<svg width="33" height="33" viewBox="0 0 33 33" fill="none" xmlns="http://www.w3.org/2000/svg">
<g clip-path="url(#clip0)">
<path d="M33 5.5H0V27.5002H33V5.5Z" fill="#F0F0F0"/>
<path d="M18.5625 5.49976H14.4375V14.4372H0V18.5622H14.4375V27.4997H18.5625V18.5622H33V14.4372H18.5625V5.49976Z" fill="#D80027"/>
<path d="M25.3828 20.3258L33.0022 24.5588V20.3258H25.3828Z" fill="#0052B4"/>
<path d="M20.0879 20.3258L33.0009 27.4997V25.4711L23.7395 20.3258H20.0879Z" fill="#0052B4"/>
<path d="M29.5613 27.4997L20.0879 22.2362V27.4997H29.5613Z" fill="#0052B4"/>
<path d="M20.0879 20.3258L33.0009 27.4997V25.4711L23.7395 20.3258H20.0879Z" fill="#F0F0F0"/>
<path d="M20.0879 20.3258L33.0009 27.4997V25.4711L23.7395 20.3258H20.0879Z" fill="#D80027"/>
<path d="M5.82276 20.3257L0 23.5606V20.3257H5.82276Z" fill="#0052B4"/>
<path d="M12.9127 21.2379V27.4996H1.64258L12.9127 21.2379Z" fill="#0052B4"/>
<path d="M9.26146 20.3258L0 25.4711V27.4997L12.9131 20.3258H9.26146Z" fill="#D80027"/>
<path d="M7.61933 12.6737L0 8.44067V12.6737H7.61933Z" fill="#0052B4"/>
<path d="M12.9131 12.6736L0 5.49976V7.52835L9.26146 12.6736H12.9131Z" fill="#0052B4"/>
<path d="M3.43945 5.49976L12.9129 10.7633V5.49976H3.43945Z" fill="#0052B4"/>
<path d="M12.9131 12.6736L0 5.49976V7.52835L9.26146 12.6736H12.9131Z" fill="#F0F0F0"/>
<path d="M12.9131 12.6736L0 5.49976V7.52835L9.26146 12.6736H12.9131Z" fill="#D80027"/>
<path d="M27.1777 12.6739L33.0005 9.43896V12.6739H27.1777Z" fill="#0052B4"/>
<path d="M20.0879 11.7616V5.49988H31.358L20.0879 11.7616Z" fill="#0052B4"/>
<path d="M23.7395 12.6736L33.0009 7.52835V5.49976L20.0879 12.6736H23.7395Z" fill="#D80027"/>
</g>
<defs>
<clipPath id="clip0">
<rect width="33" height="33" fill="white"/>
</clipPath>
</defs>
</svg>
