<svg width="36" height="36" viewBox="0 0 36 36" fill="none" xmlns="http://www.w3.org/2000/svg">
<path d="M2.00481 32.1381C2.03987 32.6428 2.26491 33.1155 2.63459 33.461C3.00427 33.8064 3.49113 33.9989 3.9971 33.9998C4.04407 33.9998 4.0912 33.9981 4.13848 33.9948C4.5331 33.9674 4.91073 33.8236 5.22363 33.5816C5.53652 33.3396 5.77062 33.0103 5.89633 32.6352C6.02203 32.2602 6.03369 31.8563 5.92984 31.4746C5.82598 31.0929 5.61127 30.7506 5.31286 30.491C5.01445 30.2313 4.64574 30.066 4.25336 30.0159C3.86098 29.9658 3.46255 30.0331 3.10846 30.2095C2.75437 30.3858 2.46052 30.6631 2.26407 31.0065C2.06762 31.3498 1.9774 31.7437 2.00481 32.1383V32.1381Z" fill="white"/>
<path d="M7.5 28.9998C7.77614 28.9998 8 28.7759 8 28.4998C8 28.2236 7.77614 27.9998 7.5 27.9998C7.22386 27.9998 7 28.2236 7 28.4998C7 28.7759 7.22386 28.9998 7.5 28.9998Z" fill="white"/>
<path d="M9.5 26.9998C9.77614 26.9998 10 26.7759 10 26.4998C10 26.2236 9.77614 25.9998 9.5 25.9998C9.22386 25.9998 9 26.2236 9 26.4998C9 26.7759 9.22386 26.9998 9.5 26.9998Z" fill="white"/>
<path d="M11.1465 24.1462C11.0765 24.2161 11.0289 24.3052 11.0096 24.4022C10.9903 24.4992 11.0002 24.5997 11.0381 24.6911C11.0759 24.7825 11.14 24.8605 11.2222 24.9155C11.3044 24.9704 11.4011 24.9998 11.5 24.9998C11.5989 24.9998 11.6956 24.9704 11.7778 24.9155C11.86 24.8605 11.9241 24.7825 11.9619 24.6911C11.9998 24.5997 12.0097 24.4992 11.9904 24.4022C11.9711 24.3052 11.9235 24.2161 11.8535 24.1462C11.7598 24.0524 11.6326 23.9998 11.5 23.9998C11.3674 23.9998 11.2402 24.0524 11.1465 24.1462Z" fill="white"/>
<path d="M11 14.8448L13.2267 21.9998L13.5897 18.3289C13.6051 18.1735 13.6809 18.03 13.8015 17.9281L30 3.99976L11 14.8448Z" fill="white"/>
<path d="M15 18.7759L21.4924 24.9998L35 0.999756L15 18.7759Z" fill="white"/>
<path d="M15 22.9998L16 21.0742L15.2114 19.9998L15 22.9998Z" fill="white"/>
<path d="M10.7208 13.9998L35 0.999756L7 10.3716L10.7208 13.9998Z" fill="white"/>
</svg>
