<svg width="116" height="32" viewBox="0 0 116 32" fill="none" xmlns="http://www.w3.org/2000/svg">
<path d="M3.80503 5.43188C4.32328 9.49643 6.21684 12.8584 8.72436 15.9281C10.0906 17.5869 11.6172 19.1068 13.282 20.4657C13.7279 20.8331 13.6016 20.8036 13.9867 20.4853C16.651 18.2834 18.9782 15.78 20.7937 12.8254C22.1435 10.6287 23.1002 8.28275 23.4531 5.71256C23.4639 5.63336 23.4807 5.55496 23.5017 5.43649C25.4369 6.28916 26.7989 7.59286 27.1838 9.7296C27.4591 11.2582 27.1872 12.738 26.7302 14.1945C26.0783 16.2718 25.0755 18.1836 23.9123 20.0109C21.1723 24.3152 17.891 28.1682 14.136 31.621C14.0762 31.6761 14.015 31.7297 13.9534 31.7828C13.6088 32.0798 13.6665 32.0696 13.3279 31.7683C10.9272 29.6313 8.77813 27.2584 6.77178 24.7538C4.97954 22.5165 3.33877 20.176 2.01338 17.6275C1.19363 16.0513 0.50822 14.4218 0.176621 12.6653C-0.0489356 11.4705 -0.0960137 10.2714 0.259927 9.09264C0.803255 7.29329 2.08245 6.19079 3.80503 5.43188Z" fill="white"/>
<path d="M114.575 25.7857C113.587 27.1709 112.343 28.1192 110.796 28.6701C109.601 29.0955 108.361 29.2422 107.101 29.2196C105.641 29.1933 104.216 28.9651 102.891 28.3172C100.192 26.9977 98.617 24.8432 98.1823 21.8739C97.9356 20.1883 98.0401 18.5153 98.7229 16.9433C100.099 13.7756 102.532 12.0128 105.984 11.6837C107.446 11.5442 108.89 11.6563 110.238 12.2693C113.081 13.5624 114.783 15.7603 115.29 18.8524C115.452 19.882 115.454 20.9307 115.293 21.9607C115.224 22.4266 115.227 22.429 114.76 22.429C111.181 22.4296 107.601 22.4297 104.021 22.4293H103.499C103.393 22.562 103.474 22.6606 103.52 22.7582C103.977 23.7441 104.77 24.3146 105.802 24.5728C106.656 24.7931 107.549 24.8232 108.416 24.6608C109.166 24.5177 109.837 24.2048 110.392 23.6691C110.504 23.5608 110.587 23.4875 110.764 23.5909C112.012 24.3198 113.267 25.035 114.575 25.7857ZM110.431 18.6892C110.05 17.3807 109.318 16.507 108.022 16.1936C107.323 16.0321 106.598 16.0228 105.895 16.1665C105.446 16.2453 105.019 16.4165 104.64 16.669C103.926 17.1546 103.522 17.8413 103.293 18.6892H110.431Z" fill="white"/>
<path d="M42.7206 12.6506C42.7206 12.5529 42.7147 12.4548 42.7216 12.3576C42.7347 12.1769 42.6708 12.0939 42.474 12.0948C40.9766 12.0997 39.4793 12.0997 37.982 12.0948C37.7969 12.0944 37.7182 12.1554 37.7222 12.3464C37.7309 12.7322 37.7251 13.1185 37.7251 13.5502C37.5341 13.4955 37.4741 13.3924 37.3949 13.3143C36.794 12.7132 36.0571 12.2656 35.2466 12.0094C33.7649 11.5335 32.1757 11.506 30.6784 11.9303C30.2917 12.0382 30.1393 12.0836 30.0519 12.2526C29.9351 13.2003 29.7278 14.1346 29.4326 15.0426C28.7694 17.1563 27.7746 19.2182 26.3017 21.532C25.9912 22.0199 25.6728 22.5037 25.3466 22.9836C25.2971 23.0564 25.2642 23.1392 25.2503 23.2262C25.2364 23.3132 25.2419 23.4022 25.2663 23.4868C25.3121 23.6562 25.3678 23.8227 25.4329 23.9856C26.4306 26.3708 28.0667 28.1015 30.5754 28.9074C31.7275 29.277 32.9132 29.2966 34.1009 29.1208C35.4263 28.9249 36.5901 28.3921 37.5263 27.4105C37.5673 27.367 37.6069 27.3031 37.7246 27.3685C37.7246 27.6825 37.7222 28.0185 37.7251 28.3545C37.7285 28.754 37.7305 28.7589 38.1202 28.7594C39.471 28.7618 40.8218 28.7618 42.1726 28.7594C42.7787 28.7584 42.7201 28.8321 42.7201 28.2139C42.7211 23.026 42.7212 17.8382 42.7206 12.6506ZM37.5908 21.6029C37.2035 23.2472 35.8844 24.3558 34.1918 24.4715C33.6398 24.5199 33.0836 24.4753 32.5464 24.3397C31.0125 23.9236 29.9547 22.6367 29.8238 21.0222C29.8082 20.8278 29.8052 20.633 29.7965 20.4381C29.7863 19.9823 29.8416 19.5274 29.9605 19.0873C30.3874 17.5533 31.683 16.5028 33.2956 16.3871C33.8494 16.3475 34.4037 16.3583 34.9419 16.5121C36.281 16.896 37.1649 17.7477 37.5463 19.0956C37.7768 19.9136 37.7921 20.7772 37.5908 21.6029Z" fill="white"/>
<path d="M85.3105 13.5386C85.4017 13.4972 85.4379 13.492 85.4558 13.4711C86.7763 11.9292 88.5411 11.5821 90.443 11.6479C93.638 11.7584 95.9245 14.2043 96.2463 17.3625C96.3008 17.9288 96.3263 18.4975 96.3225 19.0664C96.3194 22.0739 96.3189 25.0815 96.321 28.0891C96.321 28.1704 96.3218 28.2517 96.3209 28.333C96.3163 28.753 96.3161 28.7566 95.8928 28.7572C94.5261 28.759 93.1594 28.7589 91.7926 28.7568C91.3527 28.7559 91.3096 28.8637 91.3099 28.2892C91.3118 25.3629 91.312 22.4366 91.3105 19.5102C91.3104 19.0545 91.2927 18.6008 91.1625 18.1585C91.0197 17.6545 90.7287 17.2051 90.3272 16.8685C89.9258 16.532 89.4324 16.3239 88.9112 16.2712C88.4744 16.2156 88.0315 16.2293 87.5989 16.3119C86.4237 16.552 85.6247 17.4068 85.4057 18.6416C85.3387 19.026 85.3061 19.4156 85.3082 19.8058C85.3127 22.5858 85.3135 25.3658 85.3105 28.1458C85.3053 28.2432 85.3059 28.3408 85.3123 28.4382C85.3438 28.7014 85.2207 28.764 84.9748 28.7624C83.5431 28.753 82.1112 28.7596 80.6794 28.7566C80.3216 28.7559 80.3179 28.749 80.3151 28.3694C80.3115 27.8655 80.3142 27.3615 80.3142 26.8575V12.8112C80.3142 12.7136 80.3147 12.6161 80.3142 12.5185C80.3116 12.0686 80.299 12.0935 80.7377 12.0939C82.137 12.0952 83.5362 12.093 84.9355 12.0954C85.3029 12.096 85.3056 12.1013 85.3097 12.4685C85.3135 12.8075 85.3105 13.1465 85.3105 13.5386Z" fill="white"/>
<path d="M59.2195 7.35015C59.2195 8.25556 59.2195 9.13281 59.2195 10.0101C59.2195 10.5956 59.2301 11.1814 59.2145 11.7666C59.2079 12.015 59.2755 12.1133 59.5383 12.1019C59.977 12.0829 60.4171 12.0968 60.8567 12.0968C61.3124 12.0969 61.7682 12.0952 62.224 12.0974C62.6435 12.0993 62.647 12.1011 62.6475 12.5214C62.6493 13.8552 62.6492 15.1889 62.6472 16.5227C62.6471 16.6344 62.67 16.7504 62.6082 16.8581C62.4535 16.9252 62.2885 16.8944 62.1278 16.895C61.265 16.8983 60.4022 16.9009 59.5395 16.8938C59.3274 16.892 59.2139 16.9301 59.2152 17.1834C59.225 19.0538 59.212 20.9244 59.2294 22.7948C59.2354 23.4332 59.5784 23.8199 60.2002 23.971C60.4999 24.0492 60.808 24.0905 61.1176 24.0942C61.5408 24.0924 61.9641 24.1013 62.387 24.0922C62.5677 24.0883 62.6513 24.1359 62.6505 24.3339C62.6451 25.6839 62.645 27.0339 62.6502 28.3839C62.6508 28.572 62.569 28.6387 62.3914 28.654C60.928 28.7797 59.4688 28.8231 58.0139 28.5446C55.9985 28.1589 54.8749 26.9003 54.4443 24.9504C54.2909 24.2344 54.2169 23.5037 54.2235 22.7716C54.2269 20.9661 54.2268 19.1607 54.223 17.3552C54.2225 16.9012 54.2196 16.8988 53.7748 16.8971C53.14 16.8948 52.5048 16.8857 51.8704 16.9017C51.6096 16.9083 51.54 16.8164 51.5419 16.5654C51.5522 15.1829 51.5523 13.8004 51.5423 12.4178C51.5405 12.1579 51.6331 12.0848 51.8835 12.0919C52.4528 12.1078 53.0229 12.1008 53.5926 12.0959C54.3319 12.0895 54.2161 12.1847 54.2219 11.4898C54.2287 10.6929 54.2295 9.89574 54.2195 9.09887C54.2169 8.89058 54.2706 8.78412 54.4871 8.72099C56.0155 8.27534 57.5397 7.81513 59.0656 7.36062C59.1165 7.35312 59.168 7.34962 59.2195 7.35015Z" fill="white"/>
<path d="M64.6513 16.5716C64.6513 12.7506 64.6513 8.92953 64.6513 5.10848C64.6581 4.99485 64.6573 4.8809 64.649 4.76736C64.6125 4.49426 64.7457 4.44431 64.9888 4.44583C66.4371 4.45488 67.8853 4.45489 69.3336 4.44586C69.5888 4.44422 69.693 4.52628 69.6598 4.78138C69.6529 4.87871 69.6523 4.97638 69.6579 5.07379C69.6579 12.7646 69.6575 20.4555 69.6566 28.1464C69.6564 28.8451 69.7509 28.7541 69.0262 28.7566C67.7244 28.7611 66.4225 28.7613 65.1207 28.757C64.6714 28.7562 64.6505 28.8483 64.6507 28.2786C64.6519 24.3763 64.6521 20.4739 64.6513 16.5716Z" fill="white"/>
<path d="M45.0539 16.6265C45.0539 12.7898 45.0539 8.95309 45.0539 5.11639C45.0539 5.01885 45.0524 4.92128 45.0542 4.82377C45.0609 4.46061 45.0613 4.45494 45.4322 4.45428C46.8314 4.45177 48.2307 4.45148 49.6299 4.45341C50.0799 4.45353 50.0503 4.42221 50.0503 4.87722C50.0502 8.14492 50.0501 11.4126 50.0502 14.6803C50.0502 19.1348 50.0502 23.5893 50.0502 28.0437C50.0502 28.1413 50.0511 28.2388 50.0501 28.3364C50.0455 28.756 50.0453 28.7593 49.6247 28.7598C48.2417 28.7614 46.8587 28.7614 45.4758 28.7597C45.0586 28.7592 45.0547 28.7556 45.0546 28.3317C45.0535 24.43 45.0533 20.5282 45.0539 16.6265Z" fill="white"/>
<path d="M77.4844 20.44C77.4844 23.0099 77.4844 25.5798 77.4844 28.1496C77.4789 28.2471 77.4795 28.3448 77.4862 28.4422C77.52 28.7106 77.3866 28.7656 77.1458 28.7642C75.6971 28.7561 74.2483 28.7561 72.7995 28.7643C72.5742 28.7655 72.459 28.7095 72.4868 28.4664C72.4928 28.3689 72.4934 28.2713 72.4884 28.1738C72.4884 23.0177 72.4884 17.8617 72.4884 12.7056C72.4938 12.6081 72.4932 12.5104 72.4866 12.4131C72.4537 12.1477 72.5796 12.0904 72.8242 12.0921C74.2403 12.1018 75.6566 12.0956 77.0728 12.0975C77.4803 12.0981 77.4837 12.1022 77.4839 12.5351C77.4849 15.17 77.4851 17.805 77.4844 20.44Z" fill="white"/>
<path d="M74.9741 4.46118C74.3823 4.46118 73.8039 4.63666 73.3119 4.96541C72.8199 5.29417 72.4364 5.76144 72.2099 6.30814C71.9835 6.85484 71.9242 7.45642 72.0397 8.03679C72.1551 8.61716 72.4401 9.15027 72.8585 9.5687C73.2769 9.98713 73.81 10.2721 74.3904 10.3875C74.9708 10.503 75.5724 10.4437 76.1191 10.2173C76.6658 9.99081 77.133 9.60733 77.4618 9.11532C77.7905 8.6233 77.966 8.04485 77.966 7.4531C77.966 7.0602 77.8886 6.67114 77.7383 6.30814C77.5879 5.94514 77.3675 5.61532 77.0897 5.33749C76.8119 5.05967 76.482 4.83928 76.1191 4.68893C75.7561 4.53857 75.367 4.46118 74.9741 4.46118V4.46118ZM76.5931 7.81387C76.5931 7.83362 76.5892 7.85319 76.5817 7.87144C76.5741 7.8897 76.563 7.90629 76.549 7.92026C76.5351 7.93423 76.5185 7.94531 76.5002 7.95287C76.482 7.96043 76.4624 7.96432 76.4427 7.96432H75.6358C75.5959 7.96432 75.5576 7.98017 75.5294 8.00839C75.5012 8.03661 75.4853 8.07488 75.4853 8.11478V8.92166C75.4853 8.94142 75.4814 8.96098 75.4739 8.97924C75.4663 8.99749 75.4552 9.01408 75.4412 9.02805C75.4273 9.04203 75.4107 9.05311 75.3924 9.06067C75.3742 9.06823 75.3546 9.07212 75.3348 9.07212H74.6133C74.5936 9.07212 74.574 9.06823 74.5558 9.06067C74.5375 9.05311 74.5209 9.04203 74.5069 9.02805C74.493 9.01408 74.4819 8.99749 74.4743 8.97924C74.4668 8.96098 74.4629 8.94142 74.4629 8.92166V8.11478C74.4629 8.09502 74.459 8.07546 74.4514 8.0572C74.4439 8.03895 74.4328 8.02236 74.4188 8.00839C74.4048 7.99442 74.3882 7.98334 74.37 7.97578C74.3517 7.96821 74.3322 7.96432 74.3124 7.96432H73.5055C73.4656 7.96432 73.4274 7.94847 73.3991 7.92025C73.3709 7.89204 73.3551 7.85377 73.3551 7.81387V7.09233C73.3551 7.05242 73.3709 7.01415 73.3991 6.98593C73.4274 6.95772 73.4656 6.94187 73.5055 6.94187H74.3124C74.3322 6.94187 74.3517 6.93797 74.37 6.93041C74.3882 6.92285 74.4048 6.91177 74.4188 6.8978C74.4328 6.88383 74.4439 6.86724 74.4514 6.84899C74.459 6.83073 74.4629 6.81117 74.4629 6.79141V5.98453C74.4629 5.96477 74.4668 5.94521 74.4743 5.92695C74.4819 5.9087 74.493 5.89211 74.5069 5.87814C74.5209 5.86417 74.5375 5.85309 74.5558 5.84553C74.574 5.83797 74.5936 5.83407 74.6133 5.83407H75.3348C75.3546 5.83407 75.3742 5.83796 75.3924 5.84552C75.4107 5.85308 75.4273 5.86417 75.4412 5.87814C75.4552 5.89211 75.4663 5.9087 75.4739 5.92695C75.4814 5.94521 75.4853 5.96477 75.4853 5.98453V6.79141C75.4853 6.83131 75.5012 6.86958 75.5294 6.8978C75.5576 6.92601 75.5959 6.94187 75.6358 6.94187H76.4427C76.4624 6.94186 76.482 6.94576 76.5002 6.95332C76.5185 6.96088 76.5351 6.97196 76.549 6.98593C76.563 6.99991 76.5741 7.01649 76.5817 7.03475C76.5892 7.053 76.5931 7.07257 76.5931 7.09233V7.81387Z" fill="#02B0EA"/>
<path d="M3.80759 5.43188C4.32584 9.49643 6.2194 12.8584 8.72692 15.9281C10.0932 17.5869 11.6198 19.1068 13.2846 20.4657C13.7305 20.8331 13.6041 20.8036 13.9892 20.4853C16.6535 18.2834 18.9807 15.78 20.7962 12.8254C22.1461 10.6287 23.1028 8.28275 23.4556 5.71256C23.4665 5.63336 23.4832 5.55496 23.5043 5.43649C25.4395 6.28916 26.8015 7.59286 27.1863 9.7296C27.4616 11.2582 27.1898 12.738 26.7327 14.1945C26.0809 16.2718 25.078 18.1836 23.9148 20.0109C21.1749 24.3152 17.8936 28.1682 14.1386 31.621C14.0787 31.6761 14.0176 31.7297 13.9559 31.7828C13.6113 32.0798 13.669 32.0696 13.3305 31.7683C10.9298 29.6313 8.78069 27.2584 6.77434 24.7538C4.9821 22.5165 3.34134 20.176 2.01594 17.6275C1.19619 16.0513 0.510784 14.4218 0.179184 12.6653C-0.0463722 11.4705 -0.0934502 10.2714 0.262491 9.09264C0.80582 7.29329 2.08501 6.19079 3.80759 5.43188Z" fill="white"/>
<path d="M13.6491 0C13.0654 -8.16276e-08 12.4873 0.114979 11.948 0.338374C11.4087 0.561769 10.9186 0.889205 10.5058 1.30198C10.0931 1.71476 9.76563 2.20481 9.54223 2.74413C9.31884 3.28345 9.20386 3.8615 9.20386 4.44525C9.20386 4.49269 9.20608 4.54189 9.20933 4.59191C9.39633 8.75568 13.6491 12.902 13.6491 12.902C13.6491 12.902 17.9019 8.75568 18.0889 4.59191C18.0921 4.54189 18.0944 4.49269 18.0944 4.44525C18.1477 1.99078 16.1042 0 13.6491 0Z" fill="#02B0EA"/>
</svg>
