<svg width="74" height="76" viewBox="0 0 74 76" fill="none" xmlns="http://www.w3.org/2000/svg">
<path d="M4 49.4668L1.5 43.9668L5 33.4668L17.5 32.4668L36.5 38.4668L56 32.4668L68.5 33.4668L72 43.9668L70 49.4668H37H4Z" fill="white"/>
<path d="M17.5 32.4668L5 33.4668L1.5 43.9668L4 49.4668H37M17.5 32.4668L36.5 38.4668L56 32.4668M17.5 32.4668L37 49.4668M56 32.4668L68.5 33.4668L72 43.9668L70 49.4668H37M56 32.4668L37 49.4668" stroke="#BA880B" stroke-width="1.5"/>
<path d="M24.5 57.9668V45.4668L32 43.9668L37 49.4668V58.9668L34 60.9668L26 60.4668L24.5 57.9668Z" fill="white" stroke="#BA880B" stroke-width="1.5"/>
<path d="M49.5 57.9668V45.4668L42 43.9668L37 49.4668V58.9668L40 60.9668L48 60.4668L49.5 57.9668Z" fill="white" stroke="#BA880B" stroke-width="1.5"/>
<path d="M17 43.4668L24.5 46.9668V57.9668L22.5 59.9668L13 56.4668L13.5 45.4668L17 43.4668Z" fill="white" stroke="#BA880B" stroke-width="1.5"/>
<path d="M57 43.4668L49.5 46.9668V57.9668L51.5 59.9668L61 56.4668L60.5 45.4668L57 43.4668Z" fill="white" stroke="#BA880B" stroke-width="1.5"/>
<path d="M7 42.4668L13.5 45.4668L13 54.9668L11.5 56.4668L4 53.9668V44.4668L7 42.4668Z" fill="white" stroke="#BA880B" stroke-width="1.5"/>
<path d="M66.9912 42.4937L60.4912 45.4937L60.9912 54.9937L62.4912 56.4937L69.9912 53.9937V44.4937L66.9912 42.4937Z" fill="white" stroke="#BA880B" stroke-width="1.5"/>
<path d="M52.5 12.5L36.9776 6L21.5 12.5L27.7629 35.4353L37 42H36.9962L46.2295 35.4353L52.5 12.5ZM44.4281 33.8923C44.4281 33.8923 39.1016 38.1854 36.9951 39.5044C34.8885 38.1854 29.5621 33.8923 29.5621 33.8923L24.3351 13.7944L36.9962 8.50347L49.6572 13.7864L44.4281 33.8923Z" fill="#BA880B"/>
<path d="M44.4281 33.8923C44.4281 33.8923 39.1016 38.1854 36.9951 39.5044C34.8885 38.1854 29.5621 33.8923 29.5621 33.8923L24.3351 13.7944L36.9962 8.50347L49.6572 13.7864L44.4281 33.8923Z" fill="#BA880B"/>
<path d="M45.8908 19.4585L46.9055 18.3538L44.696 16.3244L43.6813 17.4292L45.8908 19.4585ZM35.2615 28.8137L34.1567 29.8284L35.2615 31.0312L36.3662 29.8284L35.2615 28.8137ZM32.0368 23.0855L31.0222 21.9807L28.8127 24.0101L29.8274 25.1148L32.0368 23.0855ZM43.6813 17.4292L34.1567 27.799L36.3662 29.8284L45.8908 19.4585L43.6813 17.4292ZM36.3662 27.799L32.0368 23.0855L29.8274 25.1148L34.1567 29.8284L36.3662 27.799Z" fill="#F3F3F3"/>
</svg>
