<svg width="74" height="76" viewBox="0 0 74 76" fill="none" xmlns="http://www.w3.org/2000/svg">
<path d="M7 14L15 47L29 46.4167M7 14L36.5 9L34.5 15.3866M7 14L34.5 15.3866M63 45L66.5 17L34.5 15.3866M63 45L29 46.4167M63 45L43.5 49.669M27.5 53.5L29 46.4167M27.5 53.5L48 67.5L43.5 49.669M27.5 53.5L43.5 49.669" stroke="#BA880B" stroke-width="1.5"/>
<path d="M22 31L25.9999 27.0001L29.9998 31L25.9999 34.9999L22 31Z" fill="#BA880B"/>
<path d="M34 31L37.9999 27.0001L41.9998 31L37.9999 34.9999L34 31Z" fill="#BA880B"/>
<path d="M46 31L49.9999 27.0001L53.9998 31L49.9999 34.9999L46 31Z" fill="#BA880B"/>
</svg>
