<svg width="74" height="76" viewBox="0 0 74 76" fill="none" xmlns="http://www.w3.org/2000/svg">
<path d="M4 49.4668L1.5 43.9668L5 33.4668L17.5 32.4668L36.5 38.4668L56 32.4668L68.5 33.4668L72 43.9668L70 49.4668H37H4Z" fill="white"/>
<path d="M17.5 32.4668L5 33.4668L1.5 43.9668L4 49.4668H37M17.5 32.4668L36.5 38.4668L56 32.4668M17.5 32.4668L37 49.4668M56 32.4668L68.5 33.4668L72 43.9668L70 49.4668H37M56 32.4668L37 49.4668" stroke="#BA880B" stroke-width="1.5"/>
<path d="M24.5 57.9668V45.4668L32 43.9668L37 49.4668V58.9668L34 60.9668L26 60.4668L24.5 57.9668Z" fill="white" stroke="#BA880B" stroke-width="1.5"/>
<path d="M49.5 57.9668V45.4668L42 43.9668L37 49.4668V58.9668L40 60.9668L48 60.4668L49.5 57.9668Z" fill="white" stroke="#BA880B" stroke-width="1.5"/>
<path d="M17 43.4668L24.5 46.9668V57.9668L22.5 59.9668L13 56.4668L13.5 45.4668L17 43.4668Z" fill="white" stroke="#BA880B" stroke-width="1.5"/>
<path d="M57 43.4668L49.5 46.9668V57.9668L51.5 59.9668L61 56.4668L60.5 45.4668L57 43.4668Z" fill="white" stroke="#BA880B" stroke-width="1.5"/>
<path d="M7 42.4668L13.5 45.4668L13 54.9668L11.5 56.4668L4 53.9668V44.4668L7 42.4668Z" fill="white" stroke="#BA880B" stroke-width="1.5"/>
<path d="M66.9912 42.4937L60.4912 45.4937L60.9912 54.9937L62.4912 56.4937L69.9912 53.9937V44.4937L66.9912 42.4937Z" fill="white" stroke="#BA880B" stroke-width="1.5"/>
<path fill-rule="evenodd" clip-rule="evenodd" d="M20.201 12L19.0981 14.6887C18.7032 14.6299 18.3035 14.6106 17.9049 14.6311L16.8191 12.004L13.683 13.3166L14.6936 15.762C14.3142 16.0358 13.9677 16.3529 13.6609 16.707L11.2956 15.7256L10 18.8848L12.2379 19.8137C12.1624 20.3272 12.1526 20.8484 12.2088 21.3645L10.005 22.2863L11.3086 25.4414L13.5134 24.5196C13.8373 24.9237 14.2113 25.2845 14.6263 25.5929L13.7031 27.8444L16.8431 29.1469L17.8186 26.7672C18.2847 26.7983 18.7528 26.7749 19.2135 26.6975L20.2241 29.1428L23.3611 27.8303L22.2753 25.2032C22.5708 24.9333 22.8391 24.6347 23.0761 24.3116L25.7485 25.4213L27.0441 22.262L24.2442 21.1C24.2673 20.7466 24.2595 20.3918 24.2212 20.0398L27.0391 18.8605L25.7345 15.7054L22.9165 16.8837C22.6953 16.6079 22.4505 16.3522 22.185 16.1193L23.34 13.3024L20.201 12ZM34.3208 15.0946V19.1595C33.6228 19.3225 32.9459 19.5665 32.3037 19.8864L29.5259 17.0927L25.8399 20.8012L28.4671 23.4444C28.0594 24.1276 27.7404 24.8605 27.5178 25.6253H23.8539V30.8694H27.5178C27.7404 31.6341 28.0594 32.3671 28.4671 33.0502L25.8399 35.6935L29.5259 39.402L32.3037 36.6082C32.9459 36.9281 33.6228 37.1721 34.3208 37.3352V41.4H39.5342V37.0343C40.111 36.8271 40.666 36.563 41.191 36.2458L44.3281 39.402L48.0141 35.6935L44.7275 32.3869C44.9675 31.8993 45.1646 31.3915 45.3166 30.8694H50.0001V25.6253H45.3166C45.1646 25.1031 44.9675 24.5953 44.7275 24.1077L48.0141 20.8012L44.3281 17.0927L41.191 20.2489C40.666 19.9316 40.111 19.6675 39.5342 19.4603V15.0946H34.3208ZM18.1869 17.7136C18.7782 17.7081 19.3578 17.8803 19.8512 18.2082C20.3447 18.5361 20.7296 19.0048 20.9566 19.5542C21.1064 19.9165 21.1838 20.305 21.1844 20.6973C21.185 21.0897 21.1087 21.4784 20.96 21.8411C20.8113 22.2039 20.593 22.5336 20.3176 22.8115C20.0422 23.0893 19.7151 23.3099 19.355 23.4606C18.9949 23.6113 18.6088 23.6891 18.2188 23.6897C17.8288 23.6903 17.4425 23.6136 17.0819 23.4639C16.7214 23.3143 16.3937 23.0947 16.1175 22.8176C15.8413 22.5406 15.6221 22.2115 15.4723 21.8492C15.3225 21.4868 15.2452 21.0983 15.2447 20.7058C15.2442 20.3134 15.3205 19.9248 15.4694 19.562C15.6182 19.1993 15.8366 18.8696 16.1121 18.5917C16.3876 18.3139 16.7148 18.0934 17.075 17.9428C17.4275 17.7952 17.805 17.7174 18.1869 17.7136ZM36.4172 23.6615C37.0158 23.6615 37.6085 23.78 38.1615 24.0105C38.7145 24.2409 39.217 24.5788 39.6403 25.0046C40.0635 25.4305 40.3993 25.936 40.6283 26.4924C40.8574 27.0488 40.9753 27.6451 40.9753 28.2473C40.9753 28.8496 40.8574 29.4458 40.6283 30.0022C40.3993 30.5586 40.0635 31.0642 39.6403 31.49C39.217 31.9159 38.7145 32.2536 38.1615 32.4841C37.6085 32.7146 37.0158 32.8332 36.4172 32.8331C35.8186 32.8332 35.2259 32.7146 34.6729 32.4841C34.1198 32.2536 33.6173 31.9159 33.1941 31.49C32.7708 31.0642 32.4351 30.5586 32.206 30.0022C31.977 29.4458 31.8591 28.8496 31.8591 28.2473C31.8591 27.6451 31.977 27.0488 32.206 26.4924C32.4351 25.936 32.7708 25.4305 33.1941 25.0046C33.6173 24.5788 34.1198 24.2409 34.6729 24.0105C35.2259 23.78 35.8186 23.6615 36.4172 23.6615Z" fill="#BA880B"/>
</svg>
