<svg width="74" height="76" viewBox="0 0 74 76" fill="none" xmlns="http://www.w3.org/2000/svg">
<path fill-rule="evenodd" clip-rule="evenodd" d="M51.7798 8L56 26.1472L44.3592 67.6296L38.1992 48.5076L29.0269 68L18 28.3032L25.0787 8.51724L36.4688 16.774L51.7798 8ZM35.0429 17.6223L25.8235 10.939L20.2295 26.5749L35.0429 17.6223ZM19.7781 29.0384L29.3939 63.6551L37.6425 46.1259L40.0767 40.5878L33.4776 28.2097L19.7781 29.0384ZM35.1445 28.1088L41.7628 40.5231L39.1417 46.4865L44.2593 62.3727L54.1979 26.9563L35.1445 28.1088ZM54.2744 25.421L21.84 27.383L36.803 18.34L50.7668 10.338L54.2744 25.421Z" fill="#BA880B"/>
<path d="M10 60L6.00012 56.0001L10 52.0002L13.9999 56.0001L10 60Z" fill="#BA880B"/>
<path d="M4.00012 40L0.000237521 36.0001L4.00012 32.0002L8.00001 36.0001L4.00012 40Z" fill="#BA880B"/>
<path d="M10 20L6.00012 16.0001L10 12.0002L13.9999 16.0001L10 20Z" fill="#BA880B"/>
<path d="M64 12L67.9999 15.9999L64 19.9998L60.0001 15.9999L64 12Z" fill="#BA880B"/>
<path d="M69.9999 32L73.9998 35.9999L69.9999 39.9998L66 35.9999L69.9999 32Z" fill="#BA880B"/>
<path d="M64 52L67.9999 55.9999L64 59.9998L60.0001 55.9999L64 52Z" fill="#BA880B"/>
</svg>
