<svg width="148" height="136" viewBox="0 0 148 136" fill="none" xmlns="http://www.w3.org/2000/svg">
<path d="M60.8252 132.219L64.7387 132.996L66.7555 122.844L62.842 122.067C59.8995 121.482 57.26 123.221 56.6842 126.12C56.1084 129.018 57.8827 131.634 60.8252 132.219ZM62.6053 123.335L65.1506 123.841L63.6365 131.462L61.0913 130.956C58.9433 130.529 57.6346 128.572 58.0672 126.395C58.4998 124.217 60.4573 122.908 62.6053 123.335Z" fill="#767676"/>
<path d="M45.5545 130.585L47.0859 131.2L49.2541 129.985L47.9733 129.471L45.5545 130.585ZM54.1844 121.118L52.967 124.153L48.4146 122.327L47.9344 123.524L52.4868 125.35L51.2918 128.329L46.28 126.319L45.7997 127.516L52.0924 130.04L55.9454 120.434L49.5831 117.882L49.1029 119.079L54.1844 121.118Z" fill="#767676"/>
<path d="M37.1837 121.196L36.5113 122.297L42.1054 125.713L47.5002 116.88L46.3225 116.161L43.9925 119.976L40.101 117.599L39.4286 118.7L43.3201 121.077L41.6001 123.893L37.1837 121.196Z" fill="#767676"/>
<path d="M39.6645 111.763L38.5851 110.903L32.1363 118.998L33.2157 119.858L39.6645 111.763Z" fill="#767676"/>
<path d="M34.3236 108.935L27.894 115.318L28.8662 116.298L36.2113 109.006L31.6988 104.46L30.7833 105.369L34.3236 108.935Z" fill="#767676"/>
<path d="M28.6655 102.76L26.0141 104.674L23.1432 100.697L22.0972 101.452L24.9681 105.429L22.3654 107.308L19.2048 102.929L18.1588 103.684L22.1271 109.182L30.5191 103.124L26.5069 97.5656L25.461 98.3206L28.6655 102.76Z" fill="#767676"/>
<path d="M22.6542 90.2435L21.9322 88.7432L19.5813 93.3704C18.7446 91.9087 17.0558 91.3398 15.542 92.0683C13.9201 92.8489 13.3086 94.6914 14.1022 96.3403L15.9236 100.125L25.2497 95.6364L24.6513 94.3929L20.9479 96.1753L20.2909 94.8102L22.6542 90.2435ZM16.4875 98.3219L15.2776 95.8079C14.8223 94.8618 15.1939 93.8007 16.167 93.3323C17.1402 92.864 18.2013 93.2356 18.6566 94.1817L19.8666 96.6957L16.4875 98.3219Z" fill="#767676"/>
<path d="M8.14532 76.5493L17.1793 78.4866L9.34201 83.3904L9.60564 84.8975L19.0668 78.9178L18.8187 77.4994L7.88686 75.0717L8.14532 76.5493Z" fill="#767676"/>
<path d="M16.6818 69.5166L13.4122 69.4662L13.4879 64.5617L12.1981 64.5418L12.1223 69.4462L8.91271 69.3967L8.99608 63.9973L7.70623 63.9774L7.60155 70.7566L17.9503 70.9164L18.0562 64.0622L16.7663 64.0423L16.6818 69.5166Z" fill="#767676"/>
<path d="M19.293 55.9746L19.6049 54.3391L14.9628 56.6604C15.1597 54.9877 14.1405 53.5259 12.4903 53.2111C10.7221 52.8739 9.13467 53.9912 8.7918 55.7888L8.00489 59.9144L18.1716 61.8536L18.4302 60.498L14.3929 59.728L14.6768 58.2398L19.293 55.9746ZM9.5306 58.8006L10.0533 56.06C10.2501 55.0286 11.1799 54.3966 12.2408 54.5989C13.3017 54.8013 13.9337 55.7312 13.7369 56.7626L13.2142 59.5032L9.5306 58.8006Z" fill="#767676"/>
<path d="M21.5518 49.0214C22.3235 46.9879 21.7837 44.9861 20.1289 44.3581C18.0393 43.5651 16.4502 45.8499 15.9113 46.7203C15.3477 47.6135 14.4301 48.8054 13.3643 48.4009C12.4807 48.0656 12.2043 46.9339 12.6673 45.7138C13.0772 44.634 13.9178 43.8139 14.6704 43.5219L13.9509 42.5429C12.9662 42.9393 12.0389 43.903 11.5227 45.2634C10.7563 47.2828 11.2933 49.1231 12.906 49.7352C14.617 50.3845 16.025 49.0417 16.993 47.548C17.5546 46.7022 18.4926 45.2452 19.6847 45.6976C20.6243 46.0542 20.8862 47.3088 20.4018 48.585C19.9388 49.8051 18.9221 50.7508 17.874 51.1874L18.5809 52.2418C19.8611 51.7008 21.0036 50.4659 21.5518 49.0214Z" fill="#767676"/>
<path d="M25.6125 37.5449L18.1708 32.3773L17.3837 33.5108L25.885 39.4142L29.5382 34.1532L28.4787 33.4174L25.6125 37.5449Z" fill="#767676"/>
<path d="M30.5968 30.8948L28.2347 28.6335L31.6266 25.0903L30.6948 24.1983L27.3028 27.7414L24.9841 25.5216L28.7183 21.6209L27.7865 20.7288L23.0979 25.6264L30.5743 32.7837L35.3147 27.8319L34.3829 26.9399L30.5968 30.8948Z" fill="#767676"/>
<path d="M42.7724 15.5722C43.2248 14.8741 43.2499 13.8217 42.7183 12.9512C41.9364 11.6711 40.3928 11.3308 39.0999 12.1205L35.2851 14.4504L40.6799 23.2833L44.8019 20.7657C46.1844 19.9213 46.6164 18.2689 45.7799 16.8991C45.1075 15.7982 43.8838 15.2625 42.7724 15.5722ZM39.48 13.3472C40.248 12.8781 41.1631 13.1101 41.6322 13.8782C42.1014 14.6463 41.8515 15.5898 41.1219 16.0354L38.7152 17.5053L37.0733 14.8171L39.48 13.3472ZM43.8841 19.8674L41.1703 21.5249L39.3329 18.5166L42.0468 16.8591C42.9044 16.3353 43.9354 16.5844 44.4593 17.4421C44.9831 18.2998 44.7418 19.3435 43.8841 19.8674Z" fill="#767676"/>
<path d="M56.5444 15.4246L57.9648 14.8977L50.4133 6.6598L48.8804 7.22844L48.5282 18.3982L49.9064 17.887L49.9775 15.1888L54.7309 13.4256L56.5444 15.4246ZM50.0122 13.8161L50.1423 8.34424L53.8094 12.4075L50.0122 13.8161Z" fill="#767676"/>
<path d="M62.8992 14.1036C65.0417 13.7288 66.4872 12.2425 66.1822 10.499C65.7971 8.29743 63.0212 8.09776 61.9976 8.07885C60.9419 8.05033 59.4485 7.86996 59.252 6.74701C59.0892 5.81614 59.9211 5.0006 61.2066 4.77574C62.3443 4.57672 63.4787 4.88081 64.114 5.37878L64.5884 4.26032C63.7447 3.61605 62.4427 3.31084 61.0094 3.56155C58.8818 3.93373 57.5737 5.33509 57.8709 7.03429C58.1862 8.83692 60.0597 9.36195 61.8383 9.43153C62.8523 9.48258 64.5839 9.54513 64.8036 10.8011C64.9768 11.791 64.0318 12.6568 62.6873 12.892C61.4018 13.1169 60.0694 12.7256 59.1589 12.0473L58.6133 13.1935C59.7321 14.018 61.3773 14.3698 62.8992 14.1036Z" fill="#767676"/>
<path d="M87.1748 3.78141L83.2613 3.00392L81.2445 13.1555L85.158 13.933C88.1005 14.5176 90.74 12.7786 91.3158 9.88023C91.8916 6.98187 90.1173 4.36599 87.1748 3.78141ZM85.3947 12.6648L82.8494 12.1592L84.3635 4.5381L86.9088 5.04376C89.0568 5.47051 90.3654 7.42803 89.9328 9.60548C89.5002 11.7829 87.5427 13.0916 85.3947 12.6648Z" fill="#767676"/>
<path d="M102.446 5.41453L100.914 4.80029L98.7459 6.01547L100.027 6.5292L102.446 5.41453ZM93.8157 14.8824L95.033 11.8474L99.5854 13.6734L100.066 12.4761L95.5132 10.6502L96.7082 7.67087L101.72 9.68112L102.2 8.48384L95.9076 5.95986L92.0546 15.566L98.4169 18.1179L98.8971 16.9206L93.8157 14.8824Z" fill="#767676"/>
<path d="M110.816 14.8043L111.489 13.7034L105.895 10.2867L100.5 19.1196L101.678 19.8389L104.007 16.0241L107.899 18.4009L108.571 17.3L104.68 14.9232L106.4 12.1069L110.816 14.8043Z" fill="#767676"/>
<path d="M108.336 24.2372L109.415 25.097L115.864 17.0016L114.784 16.1418L108.336 24.2372Z" fill="#767676"/>
<path d="M113.676 27.0646L120.106 20.6815L119.134 19.7022L111.789 26.9941L116.301 31.5395L117.217 30.6307L113.676 27.0646Z" fill="#767676"/>
<path d="M119.335 33.2401L121.986 31.3262L124.857 35.3033L125.903 34.5483L123.032 30.5712L125.635 28.6924L128.795 33.0709L129.841 32.3158L125.873 26.8184L117.481 32.8762L121.493 38.4344L122.539 37.6794L119.335 33.2401Z" fill="#767676"/>
<path d="M125.346 45.7565L126.068 47.2568L128.419 42.6296C129.255 44.0913 130.944 44.6602 132.458 43.9317C134.08 43.1511 134.691 41.3086 133.898 39.6597L132.076 35.8751L122.75 40.3636L123.349 41.6071L127.052 39.8247L127.709 41.1898L125.346 45.7565ZM131.512 37.6781L132.722 40.1921C133.178 41.1382 132.806 42.1993 131.833 42.6677C130.86 43.136 129.799 42.7644 129.343 41.8183L128.133 39.3043L131.512 37.6781Z" fill="#767676"/>
<path d="M139.855 59.4507L130.821 57.5134L138.658 52.6096L138.394 51.1025L128.933 57.0822L129.181 58.5006L140.113 60.9283L139.855 59.4507Z" fill="#767676"/>
<path d="M131.318 66.4834L134.588 66.5338L134.512 71.4383L135.802 71.4582L135.878 66.5538L139.087 66.6033L139.004 72.0027L140.294 72.0226L140.398 65.2434L130.05 65.0836L129.944 71.9378L131.234 71.9577L131.318 66.4834Z" fill="#767676"/>
<path d="M128.707 80.0254L128.395 81.6609L133.037 79.3396C132.84 81.0123 133.859 82.4741 135.51 82.7889C137.278 83.1261 138.865 82.0088 139.208 80.2112L139.995 76.0856L129.828 74.1464L129.57 75.502L133.607 76.272L133.323 77.7602L128.707 80.0254ZM138.469 77.1994L137.947 79.94C137.75 80.9714 136.82 81.6034 135.759 81.4011C134.698 81.1987 134.066 80.2688 134.263 79.2374L134.786 76.4968L138.469 77.1994Z" fill="#767676"/>
<path d="M126.448 86.9786C125.676 89.0121 126.216 91.0139 127.871 91.6419C129.961 92.4349 131.55 90.1501 132.089 89.2797C132.652 88.3865 133.57 87.1946 134.636 87.5991C135.519 87.9344 135.796 89.0661 135.333 90.2862C134.923 91.366 134.082 92.1861 133.33 92.4781L134.049 93.457C135.034 93.0607 135.961 92.097 136.477 90.7366C137.244 88.7172 136.707 86.8769 135.094 86.2648C133.383 85.6155 131.975 86.9583 131.007 88.452C130.445 89.2978 129.507 90.7548 128.315 90.3024C127.376 89.9458 127.114 88.6912 127.598 87.415C128.061 86.1949 129.078 85.2492 130.126 84.8126L129.419 83.7582C128.139 84.2992 126.996 85.5341 126.448 86.9786Z" fill="#767676"/>
<path d="M122.387 98.4551L129.829 103.623L130.616 102.489L122.115 96.5858L118.462 101.847L119.521 102.583L122.387 98.4551Z" fill="#767676"/>
<path d="M117.403 105.105L119.765 107.367L116.373 110.91L117.305 111.802L120.697 108.259L123.016 110.478L119.282 114.379L120.214 115.271L124.902 110.374L117.426 103.216L112.685 108.168L113.617 109.06L117.403 105.105Z" fill="#767676"/>
<path d="M105.228 120.428C104.775 121.126 104.75 122.178 105.282 123.049C106.064 124.329 107.607 124.669 108.9 123.879L112.715 121.55L107.32 112.717L103.198 115.234C101.816 116.079 101.384 117.731 102.22 119.101C102.893 120.202 104.116 120.737 105.228 120.428ZM108.52 122.653C107.752 123.122 106.837 122.89 106.368 122.122C105.899 121.354 106.148 120.41 106.878 119.965L109.285 118.495L110.927 121.183L108.52 122.653ZM104.116 116.133L106.83 114.475L108.667 117.483L105.953 119.141C105.096 119.665 104.065 119.416 103.541 118.558C103.017 117.7 103.258 116.656 104.116 116.133Z" fill="#767676"/>
<path d="M91.4556 120.575L90.0352 121.102L97.5867 129.34L99.1196 128.772L99.4718 117.602L98.0936 118.113L98.0225 120.811L93.2691 122.574L91.4556 120.575ZM97.9878 122.184L97.8577 127.656L94.1906 123.592L97.9878 122.184Z" fill="#767676"/>
<path d="M85.1008 121.896C82.9583 122.271 81.5128 123.757 81.8178 125.501C82.2029 127.703 84.9788 127.902 86.0024 127.921C87.0581 127.95 88.5515 128.13 88.748 129.253C88.9108 130.184 88.0789 130.999 86.7934 131.224C85.6557 131.423 84.5213 131.119 83.886 130.621L83.4116 131.74C84.2553 132.384 85.5573 132.689 86.9906 132.438C89.1183 132.066 90.4263 130.665 90.1291 128.966C89.8138 127.163 87.9403 126.638 86.1617 126.568C85.1477 126.517 83.4161 126.455 83.1964 125.199C83.0232 124.209 83.9682 123.343 85.3127 123.108C86.5982 122.883 87.9306 123.274 88.8411 123.953L89.3867 122.807C88.2679 121.982 86.6227 121.63 85.1008 121.896Z" fill="#767676"/>
</svg>
