<svg width="148" height="136" viewBox="0 0 148 136" fill="none" xmlns="http://www.w3.org/2000/svg">
<path d="M60.8252 132.219L64.7387 132.996L66.7555 122.845L62.842 122.067C59.8995 121.483 57.26 123.222 56.6842 126.12C56.1084 129.018 57.8827 131.634 60.8252 132.219ZM62.6053 123.335L65.1506 123.841L63.6365 131.462L61.0912 130.956C58.9432 130.53 57.6346 128.572 58.0672 126.395C58.4998 124.217 60.4573 122.909 62.6053 123.335Z" fill="#121212"/>
<path d="M45.5545 130.586L47.0859 131.2L49.2541 129.985L47.9733 129.471L45.5545 130.586ZM54.1843 121.118L52.967 124.153L48.4146 122.327L47.9343 123.524L52.4868 125.35L51.2918 128.329L46.2799 126.319L45.7997 127.517L52.0924 130.041L55.9454 120.434L49.5831 117.883L49.1028 119.08L54.1843 121.118Z" fill="#121212"/>
<path d="M37.1836 121.196L36.5112 122.297L42.1054 125.714L47.5001 116.881L46.3224 116.162L43.9925 119.976L40.1009 117.6L39.4285 118.7L43.3201 121.077L41.6 123.894L37.1836 121.196Z" fill="#121212"/>
<path d="M39.6644 111.763L38.585 110.904L32.1362 118.999L33.2156 119.859L39.6644 111.763Z" fill="#121212"/>
<path d="M34.3236 108.936L27.8939 115.319L28.8662 116.298L36.2113 109.006L31.6988 104.461L30.7833 105.37L34.3236 108.936Z" fill="#121212"/>
<path d="M28.6654 102.76L26.014 104.674L23.1432 100.697L22.0972 101.452L24.9681 105.429L22.3653 107.308L19.2048 102.93L18.1588 103.685L22.1271 109.182L30.5191 103.124L26.5069 97.566L25.461 98.321L28.6654 102.76Z" fill="#121212"/>
<path d="M22.6542 90.2436L21.9321 88.7433L19.5813 93.3706C18.7446 91.9088 17.0558 91.3399 15.542 92.0685C13.9201 92.8491 13.3086 94.6915 14.1022 96.3405L15.9236 100.125L25.2497 95.6365L24.6512 94.393L20.9478 96.1754L20.2908 94.8103L22.6542 90.2436ZM16.4875 98.3221L15.2776 95.8081C14.8222 94.8619 15.1938 93.8008 16.167 93.3325C17.1401 92.8641 18.2013 93.2357 18.6566 94.1818L19.8665 96.6958L16.4875 98.3221Z" fill="#121212"/>
<path d="M8.14532 76.55L17.1793 78.4873L9.34201 83.3911L9.60564 84.8982L19.0668 78.9186L18.8187 77.5001L7.88686 75.0724L8.14532 76.55Z" fill="#121212"/>
<path d="M16.6818 69.5174L13.4122 69.4669L13.4879 64.5625L12.1981 64.5426L12.1223 69.447L8.91271 69.3974L8.99608 63.9981L7.70623 63.9781L7.60155 70.7573L17.9503 70.9171L18.0562 64.0629L16.7663 64.043L16.6818 69.5174Z" fill="#121212"/>
<path d="M19.293 55.9752L19.6049 54.3397L14.9628 56.661C15.1597 54.9883 14.1405 53.5265 12.4903 53.2117C10.7221 52.8745 9.13467 53.9918 8.7918 55.7894L8.00489 59.915L18.1716 61.8542L18.4302 60.4986L14.3929 59.7286L14.6768 58.2404L19.293 55.9752ZM9.5306 58.8012L10.0533 56.0606C10.2501 55.0292 11.1799 54.3972 12.2408 54.5995C13.3017 54.8019 13.9337 55.7318 13.7369 56.7632L13.2142 59.5038L9.5306 58.8012Z" fill="#121212"/>
<path d="M21.5518 49.0219C22.3235 46.9884 21.7837 44.9866 20.1289 44.3586C18.0393 43.5656 16.4502 45.8504 15.9113 46.7208C15.3477 47.6139 14.4301 48.8059 13.3643 48.4014C12.4807 48.0661 12.2043 46.9344 12.6673 45.7143C13.0772 44.6345 13.9178 43.8144 14.6704 43.5224L13.9509 42.5434C12.9662 42.9398 12.0389 43.9035 11.5227 45.2639C10.7563 47.2833 11.2933 49.1236 12.906 49.7356C14.617 50.385 16.025 49.0422 16.993 47.5485C17.5546 46.7027 18.4926 45.2457 19.6847 45.6981C20.6243 46.0547 20.8862 47.3093 20.4018 48.5855C19.9388 49.8055 18.9221 50.7513 17.874 51.1879L18.5809 52.2423C19.8611 51.7013 21.0036 50.4664 21.5518 49.0219Z" fill="#121212"/>
<path d="M25.6125 37.5458L18.1708 32.3782L17.3837 33.5117L25.885 39.4151L29.5382 34.1541L28.4787 33.4183L25.6125 37.5458Z" fill="#121212"/>
<path d="M30.5968 30.8954L28.2347 28.6341L31.6266 25.0909L30.6948 24.1989L27.3028 27.742L24.9841 25.5222L28.7183 21.6215L27.7865 20.7294L23.0979 25.627L30.5743 32.7843L35.3147 27.8326L34.3829 26.9405L30.5968 30.8954Z" fill="#121212"/>
<path d="M42.7724 15.5731C43.2248 14.8749 43.2499 13.8226 42.7183 12.9521C41.9364 11.672 40.3928 11.3317 39.0999 12.1214L35.2851 14.4513L40.6799 23.2841L44.8019 20.7665C46.1844 19.9221 46.6164 18.2697 45.7799 16.9C45.1075 15.7991 43.8838 15.2634 42.7724 15.5731ZM39.48 13.348C40.248 12.8789 41.1631 13.111 41.6322 13.879C42.1014 14.6471 41.8515 15.5906 41.1219 16.0363L38.7152 17.5062L37.0733 14.8179L39.48 13.348ZM43.8841 19.8682L41.1703 21.5258L39.3329 18.5175L42.0468 16.86C42.9044 16.3361 43.9354 16.5852 44.4593 17.4429C44.9831 18.3006 44.7418 19.3444 43.8841 19.8682Z" fill="#121212"/>
<path d="M56.5444 15.4248L57.9648 14.8979L50.4133 6.65992L48.8804 7.22856L48.5282 18.3984L49.9064 17.8871L49.9775 15.189L54.7309 13.4257L56.5444 15.4248ZM50.0122 13.8162L50.1423 8.34436L53.8094 12.4076L50.0122 13.8162Z" fill="#121212"/>
<path d="M62.8992 14.1041C65.0417 13.7293 66.4872 12.243 66.1822 10.4995C65.7971 8.29792 63.0212 8.09825 61.9976 8.07933C60.9419 8.05081 59.4485 7.87045 59.252 6.7475C59.0892 5.81663 59.9211 5.00109 61.2066 4.77622C62.3443 4.57721 63.4787 4.88129 64.114 5.37927L64.5884 4.26081C63.7447 3.61653 62.4427 3.31133 61.0094 3.56204C58.8818 3.93422 57.5737 5.33558 57.8709 7.03478C58.1862 8.83741 60.0597 9.36244 61.8383 9.43202C62.8523 9.48306 64.5839 9.54562 64.8036 10.8015C64.9768 11.7915 64.0318 12.6573 62.6873 12.8925C61.4018 13.1174 60.0694 12.7261 59.1589 12.0478L58.6133 13.194C59.7321 14.0185 61.3773 14.3703 62.8992 14.1041Z" fill="#121212"/>
<path d="M87.1748 3.78117L83.2613 3.00367L81.2445 13.1553L85.158 13.9328C88.1005 14.5174 90.74 12.7783 91.3158 9.87999C91.8916 6.98163 90.1173 4.36575 87.1748 3.78117ZM85.3947 12.6646L82.8494 12.1589L84.3635 4.53785L86.9088 5.04352C89.0568 5.47026 90.3654 7.42779 89.9328 9.60523C89.5002 11.7827 87.5427 13.0913 85.3947 12.6646Z" fill="#121212"/>
<path d="M102.446 5.41416L100.914 4.79992L98.7459 6.0151L100.027 6.52883L102.446 5.41416ZM93.8157 14.882L95.033 11.8471L99.5854 13.673L100.066 12.4758L95.5132 10.6498L96.7082 7.67051L101.72 9.68076L102.2 8.48348L95.9076 5.95949L92.0546 15.5656L98.4169 18.1175L98.8971 16.9202L93.8157 14.882Z" fill="#121212"/>
<path d="M110.816 14.8038L111.489 13.7029L105.895 10.2862L100.5 19.1191L101.678 19.8384L104.007 16.0236L107.899 18.4004L108.571 17.2995L104.68 14.9227L106.4 12.1064L110.816 14.8038Z" fill="#121212"/>
<path d="M108.336 24.2366L109.415 25.0964L115.864 17.001L114.784 16.1412L108.336 24.2366Z" fill="#121212"/>
<path d="M113.676 27.0642L120.106 20.6812L119.134 19.7018L111.789 26.9937L116.301 31.5392L117.217 30.6303L113.676 27.0642Z" fill="#121212"/>
<path d="M119.335 33.2398L121.986 31.3259L124.857 35.3029L125.903 34.5479L123.032 30.5708L125.635 28.692L128.795 33.0705L129.841 32.3155L125.873 26.8181L117.481 32.8759L121.493 38.434L122.539 37.679L119.335 33.2398Z" fill="#121212"/>
<path d="M125.346 45.7564L126.068 47.2567L128.419 42.6294C129.255 44.0912 130.944 44.6601 132.458 43.9315C134.08 43.1509 134.691 41.3085 133.898 39.6595L132.076 35.875L122.75 40.3635L123.349 41.607L127.052 39.8246L127.709 41.1897L125.346 45.7564ZM131.512 37.6779L132.722 40.1919C133.178 41.1381 132.806 42.1992 131.833 42.6675C130.86 43.1359 129.799 42.7643 129.343 41.8182L128.133 39.3042L131.512 37.6779Z" fill="#121212"/>
<path d="M139.855 59.45L130.821 57.5126L138.658 52.6089L138.394 51.1018L128.933 57.0814L129.181 58.4999L140.113 60.9276L139.855 59.45Z" fill="#121212"/>
<path d="M131.318 66.4826L134.588 66.5331L134.512 71.4375L135.802 71.4574L135.878 66.553L139.087 66.6026L139.004 72.0019L140.294 72.0219L140.398 65.2427L130.05 65.0829L129.944 71.9371L131.234 71.957L131.318 66.4826Z" fill="#121212"/>
<path d="M128.707 80.0248L128.395 81.6603L133.037 79.339C132.84 81.0117 133.859 82.4735 135.51 82.7883C137.278 83.1255 138.865 82.0082 139.208 80.2106L139.995 76.085L129.828 74.1458L129.57 75.5014L133.607 76.2714L133.323 77.7596L128.707 80.0248ZM138.469 77.1988L137.947 79.9394C137.75 80.9708 136.82 81.6028 135.759 81.4005C134.698 81.1981 134.066 80.2682 134.263 79.2368L134.786 76.4962L138.469 77.1988Z" fill="#121212"/>
<path d="M126.448 86.9781C125.676 89.0116 126.216 91.0134 127.871 91.6414C129.961 92.4344 131.55 90.1496 132.089 89.2792C132.652 88.3861 133.57 87.1941 134.636 87.5986C135.519 87.9339 135.796 89.0656 135.333 90.2857C134.923 91.3655 134.082 92.1856 133.33 92.4776L134.049 93.4566C135.034 93.0602 135.961 92.0965 136.477 90.7361C137.244 88.7167 136.707 86.8764 135.094 86.2644C133.383 85.615 131.975 86.9578 131.007 88.4515C130.445 89.2973 129.507 90.7543 128.315 90.3019C127.376 89.9453 127.114 88.6907 127.598 87.4145C128.061 86.1945 129.078 85.2487 130.126 84.8121L129.419 83.7577C128.139 84.2987 126.996 85.5336 126.448 86.9781Z" fill="#121212"/>
<path d="M122.387 98.4542L129.829 103.622L130.616 102.488L122.115 96.5849L118.462 101.846L119.521 102.582L122.387 98.4542Z" fill="#121212"/>
<path d="M117.403 105.105L119.765 107.366L116.373 110.909L117.305 111.801L120.697 108.258L123.016 110.478L119.282 114.378L120.214 115.271L124.902 110.373L117.426 103.216L112.685 108.167L113.617 109.06L117.403 105.105Z" fill="#121212"/>
<path d="M105.228 120.427C104.775 121.125 104.75 122.177 105.282 123.048C106.064 124.328 107.607 124.668 108.9 123.879L112.715 121.549L107.32 112.716L103.198 115.233C101.816 116.078 101.384 117.73 102.22 119.1C102.893 120.201 104.116 120.737 105.228 120.427ZM108.52 122.652C107.752 123.121 106.837 122.889 106.368 122.121C105.899 121.353 106.148 120.409 106.878 119.964L109.285 118.494L110.927 121.182L108.52 122.652ZM104.116 116.132L106.83 114.474L108.667 117.483L105.953 119.14C105.096 119.664 104.065 119.415 103.541 118.557C103.017 117.699 103.258 116.656 104.116 116.132Z" fill="#121212"/>
<path d="M91.4556 120.575L90.0352 121.102L97.5867 129.34L99.1196 128.771L99.4718 117.602L98.0936 118.113L98.0225 120.811L93.2691 122.574L91.4556 120.575ZM97.9878 122.184L97.8577 127.656L94.1906 123.592L97.9878 122.184Z" fill="#121212"/>
<path d="M85.1008 121.896C82.9583 122.271 81.5128 123.757 81.8178 125.501C82.2029 127.702 84.9788 127.902 86.0024 127.921C87.0581 127.949 88.5515 128.13 88.748 129.253C88.9108 130.183 88.0789 130.999 86.7934 131.224C85.6557 131.423 84.5213 131.119 83.886 130.621L83.4116 131.739C84.2553 132.383 85.5573 132.689 86.9906 132.438C89.1183 132.066 90.4263 130.664 90.1291 128.965C89.8138 127.163 87.9403 126.638 86.1617 126.568C85.1477 126.517 83.4161 126.454 83.1964 125.198C83.0232 124.208 83.9682 123.343 85.3127 123.108C86.5982 122.883 87.9306 123.274 88.8411 123.952L89.3867 122.806C88.2679 121.981 86.6227 121.63 85.1008 121.896Z" fill="#121212"/>
</svg>
