<svg width="229" height="73" viewBox="0 0 229 73" fill="none" xmlns="http://www.w3.org/2000/svg">
<path d="M58.073 3.06999V2.06999H57.4073L57.1505 2.6841L58.073 3.06999ZM33.241 62.434L32.3185 62.8199L33.241 65.0253L34.1635 62.8199L33.241 62.434ZM8.409 3.06999L9.33154 2.6841L9.07466 2.06999H8.409V3.06999ZM1.619 3.06999V2.06999H0.109953L0.69807 3.45972L1.619 3.06999ZM29.943 70L29.0221 70.3897L29.2803 71H29.943V70ZM36.345 70V71H37.0077L37.2659 70.3897L36.345 70ZM64.669 3.06999L65.5899 3.45972L66.1781 2.06999H64.669V3.06999ZM57.1505 2.6841L32.3185 62.0481L34.1635 62.8199L58.9955 3.45589L57.1505 2.6841ZM34.1635 62.0481L9.33154 2.6841L7.48646 3.45589L32.3185 62.8199L34.1635 62.0481ZM8.409 2.06999H1.619V4.06999H8.409V2.06999ZM0.69807 3.45972L29.0221 70.3897L30.8639 69.6103L2.53993 2.68027L0.69807 3.45972ZM29.943 71H36.345V69H29.943V71ZM37.2659 70.3897L65.5899 3.45972L63.7481 2.68027L35.4241 69.6103L37.2659 70.3897ZM64.669 2.06999H58.073V4.06999H64.669V2.06999ZM104.732 72.164C125.063 72.164 140.652 56.7874 140.652 36.535H138.652C138.652 55.6646 123.976 70.164 104.732 70.164V72.164ZM140.652 36.535C140.652 16.2826 125.063 0.905998 104.732 0.905998V2.906C123.976 2.906 138.652 17.4054 138.652 36.535H140.652ZM104.732 0.905998C84.3016 0.905998 68.8115 16.2844 68.8115 36.535H70.8115C70.8115 17.4036 85.3914 2.906 104.732 2.906V0.905998ZM68.8115 36.535C68.8115 56.7856 84.3016 72.164 104.732 72.164V70.164C85.3914 70.164 70.8115 55.6664 70.8115 36.535H68.8115ZM104.732 64.344C88.9878 64.344 77.0195 52.4727 77.0195 36.535H75.0195C75.0195 53.5773 87.8832 66.344 104.732 66.344V64.344ZM77.0195 36.535C77.0195 20.5973 88.9878 8.726 104.732 8.726V6.726C87.8832 6.726 75.0195 19.4927 75.0195 36.535H77.0195ZM104.732 8.726C120.475 8.726 132.444 20.5973 132.444 36.535H134.444C134.444 19.4927 121.58 6.726 104.732 6.726V8.726ZM132.444 36.535C132.444 52.4727 120.475 64.344 104.732 64.344V66.344C121.58 66.344 134.444 53.5773 134.444 36.535H132.444ZM154.527 70H153.527V71H154.527V70ZM160.444 70V71H161.444V70H160.444ZM160.444 3.06999H161.444V2.06999H160.444V3.06999ZM154.527 3.06999V2.06999H153.527V3.06999H154.527ZM154.527 71H160.444V69H154.527V71ZM161.444 70V3.06999H159.444V70H161.444ZM160.444 2.06999H154.527V4.06999H160.444V2.06999ZM153.527 3.06999V70H155.527V3.06999H153.527ZM218.96 70L218.184 70.6302L218.484 71H218.96V70ZM226.332 70V71H228.438L227.108 69.3682L226.332 70ZM203.246 41.676V40.676H201.141L202.471 42.3078L203.246 41.676ZM179.19 3.06999V2.06999H178.19V3.06999H179.19ZM179.19 70H178.19V71H179.19V70ZM185.107 70V71H186.107V70H185.107ZM185.107 41.676V40.676H184.107V41.676H185.107ZM195.971 41.676L196.748 41.0458L196.448 40.676H195.971V41.676ZM185.107 8.696V7.696H184.107V8.696H185.107ZM185.107 36.438H184.107V37.438H185.107V36.438ZM218.96 71H226.332V69H218.96V71ZM227.108 69.3682L204.022 41.0442L202.471 42.3078L225.557 70.6318L227.108 69.3682ZM203.246 42.676H205.477V40.676H203.246V42.676ZM205.477 42.676C217.165 42.676 226.071 34.003 226.071 22.47H224.071C224.071 32.859 216.1 40.676 205.477 40.676V42.676ZM226.071 22.47C226.071 10.8467 217.172 2.06999 205.38 2.06999V4.06999C216.093 4.06999 224.071 11.9773 224.071 22.47H226.071ZM205.38 2.06999H179.19V4.06999H205.38V2.06999ZM178.19 3.06999V70H180.19V3.06999H178.19ZM179.19 71H185.107V69H179.19V71ZM186.107 70V41.676H184.107V70H186.107ZM185.107 42.676H195.971V40.676H185.107V42.676ZM195.195 42.3062L218.184 70.6302L219.737 69.3698L196.748 41.0458L195.195 42.3062ZM185.107 9.696H205.283V7.696H185.107V9.696ZM205.283 9.696C212.482 9.696 217.96 15.156 217.96 22.567H219.96C219.96 14.07 213.605 7.696 205.283 7.696V9.696ZM217.96 22.567C217.96 29.978 212.482 35.438 205.283 35.438V37.438C213.605 37.438 219.96 31.064 219.96 22.567H217.96ZM205.283 35.438H185.107V37.438H205.283V35.438ZM186.107 36.438V8.696H184.107V36.438H186.107Z" fill="#BA880B"/>
</svg>
