<svg width="64" height="64" viewBox="0 0 64 64" fill="none" xmlns="http://www.w3.org/2000/svg">
<circle cx="32" cy="32" r="32" fill="#F3F3F3"/>
<circle cx="32" cy="32" r="29.5" stroke="#BA880B"/>
<path d="M42.7788 21.578C42.4083 21.578 42.0343 21.6288 41.6711 21.7253V20.587C41.6711 18.228 39.7828 16.3088 37.4619 16.3088C37.0639 16.3088 36.6788 16.3611 36.3137 16.4587V16.2782C36.3139 15.1358 35.8756 14.0613 35.0795 13.2532C34.2836 12.445 33.2255 12 32.1 12C30.9864 12 29.9363 12.437 29.1431 13.2304C28.3513 14.0225 27.9052 15.0801 27.887 16.2083L27.8869 16.224V16.2396V16.7123C27.515 16.6099 27.1288 16.5568 26.738 16.5567C24.4143 16.5568 22.5239 18.4763 22.5239 20.8353V34.686C21.6495 33.824 20.5259 33.3503 19.3517 33.3502C18.2084 33.3502 17.1268 33.809 16.3061 34.6422C14.7015 36.2713 14.5637 38.7728 15.9574 40.8815C16.2042 41.2878 17.8088 43.8419 20.6212 46.3928C22.3988 48.0051 24.3018 49.2936 26.2771 50.2224C28.7853 51.4019 31.41 52 34.0781 52C38.8508 52.0001 42.3926 50.5672 44.6055 47.7413C46.1719 45.7408 47 43.062 47 39.9945L46.9926 25.8553C46.9926 23.4973 45.1022 21.578 42.7788 21.578ZM34.0783 50.076C34.0777 50.076 34.0789 50.076 34.0782 50.076C23.5955 50.076 17.5515 39.8401 17.5515 39.8401C16.6933 38.5642 16.6288 37.0359 17.6463 36.0028C18.1314 35.5102 18.7386 35.2743 19.3517 35.2744C20.0243 35.2744 20.704 35.5585 21.2363 36.099C21.2363 36.099 22.5536 37.4364 23.2603 38.154C23.5805 38.479 23.839 38.5891 24.0302 38.5891C24.2846 38.5891 24.4191 38.394 24.4191 38.2509C24.4191 38.0746 24.4191 20.8352 24.4191 20.8352C24.4191 19.5349 25.4571 18.4808 26.7379 18.4807C27.913 18.4808 29.0353 19.358 29.0353 20.5191C29.036 20.5234 29.0292 29.1642 29.0281 31.2898C29.0279 31.2944 29.0268 31.2985 29.0268 31.3029V32.1318C29.0268 32.3436 29.1958 32.5153 29.4043 32.5153H29.4045C29.4045 32.5153 29.4046 32.5153 29.4046 32.5153C29.6129 32.5153 29.782 32.3435 29.782 32.1319V16.2395C29.8025 14.9572 30.832 13.9241 32.1 13.9241C33.3805 13.9241 34.4189 14.9782 34.4187 16.2785L34.4206 32.2217C34.4206 32.4302 34.5872 32.5993 34.7926 32.5994C34.9978 32.5993 35.1644 32.4302 35.1642 32.2217L35.1636 20.2428C35.1636 19.0589 36.2964 18.2328 37.462 18.2328C38.7427 18.2328 39.7761 19.2867 39.7761 20.5869L39.7759 32.4623C39.7759 32.6652 39.938 32.8296 40.1376 32.8296C40.3375 32.8296 40.5043 32.5689 40.5043 32.3661L40.5029 25.4042C40.5029 24.3275 41.6503 23.5021 42.7788 23.5021C44.0593 23.5021 45.0975 24.5563 45.0975 25.8565L45.1049 39.9946C45.1049 44.0176 43.4931 50.076 34.0783 50.076Z" fill="#BA880B"/>
</svg>
