<svg width="64" height="64" viewBox="0 0 64 64" fill="none" xmlns="http://www.w3.org/2000/svg">
<path d="M31.9792 18.2617C24.4152 18.2617 18.2876 24.3828 18.2876 31.9322C18.2876 39.4845 24.4152 45.6055 31.9792 45.6055C39.5374 45.6055 45.6709 39.4845 45.6709 31.9322C45.6709 24.3828 39.5374 18.2617 31.9792 18.2617ZM31.9792 40.8151C27.0659 40.8151 23.0825 36.8379 23.0825 31.9351C23.0825 27.0294 27.0659 23.0551 31.9792 23.0551C36.8926 23.0551 40.8701 27.0294 40.8701 31.9351C40.8701 36.8379 36.8926 40.8151 31.9792 40.8151Z" fill="#BA880B"/>
<path d="M46.2159 20.9467C47.9791 20.9467 49.4085 19.5195 49.4085 17.759C49.4085 15.9985 47.9791 14.5713 46.2159 14.5713C44.4526 14.5713 43.0232 15.9985 43.0232 17.759C43.0232 19.5195 44.4526 20.9467 46.2159 20.9467Z" fill="#BA880B"/>
<path d="M57.2539 14.5181C55.8649 10.943 53.0366 8.11608 49.4559 6.73514C47.3857 5.95743 45.1971 5.54049 42.9818 5.49318C40.1297 5.36898 39.2264 5.3335 31.9941 5.3335C24.7617 5.3335 23.8347 5.3335 21.0063 5.49318C18.797 5.53753 16.6083 5.95448 14.5381 6.73514C10.9545 8.11608 8.12615 10.943 6.74009 14.5181C5.96118 16.588 5.54359 18.7703 5.49917 20.9822C5.37181 23.8269 5.33331 24.7288 5.33331 31.9529C5.33331 39.174 5.33331 40.0936 5.49917 42.9235C5.54359 45.1354 5.96118 47.3177 6.74009 49.3906C8.12911 52.9627 10.9575 55.7896 14.5411 57.1735C16.6024 57.9778 18.791 58.4332 21.0123 58.5042C23.8643 58.6284 24.7676 58.6668 32 58.6668C39.2323 58.6668 40.1593 58.6668 42.9877 58.5042C45.2 58.4598 47.3887 58.0399 49.4619 57.2652C53.0425 55.8783 55.8708 53.0544 57.2599 49.4793C58.0388 47.4093 58.4564 45.227 58.5008 43.0152C58.6281 40.1705 58.6666 39.2686 58.6666 32.0445C58.6666 24.8204 58.6666 23.9038 58.5008 21.0739C58.4623 18.8324 58.0477 16.6117 57.2539 14.5181ZM53.6467 42.7047C53.6259 44.4079 53.3179 46.0964 52.7256 47.6962C51.8223 50.0234 49.9831 51.8627 47.6552 52.7557C46.0708 53.3441 44.4004 53.6517 42.7093 53.6753C39.8957 53.8054 39.102 53.838 31.8874 53.838C24.6669 53.838 23.9295 53.838 21.0626 53.6753C19.3774 53.6546 17.7011 53.3441 16.1196 52.7557C13.7829 51.8656 11.9319 50.0263 11.0286 47.6962C10.4481 46.1171 10.1341 44.4464 10.1075 42.7609C9.98014 39.9517 9.95052 39.1592 9.95052 31.9558C9.95052 24.7495 9.95052 24.0132 10.1075 21.1478C10.1282 19.4445 10.4362 17.759 11.0286 16.1593C11.9319 13.8261 13.7829 11.9898 16.1196 11.0968C17.7011 10.5113 19.3774 10.2008 21.0626 10.1771C23.8791 10.05 24.6699 10.0145 31.8874 10.0145C39.105 10.0145 39.8454 10.0145 42.7093 10.1771C44.4004 10.1978 46.0708 10.5083 47.6552 11.0968C49.9831 11.9928 51.8223 13.8321 52.7256 16.1593C53.3061 17.7383 53.62 19.409 53.6467 21.0946C53.774 23.9067 53.8066 24.6963 53.8066 31.9026C53.8066 39.106 53.8066 39.8807 53.6792 42.7076H53.6467V42.7047Z" fill="#BA880B"/>
</svg>
