<svg width="1262" height="832" viewBox="0 0 1262 832" fill="none" xmlns="http://www.w3.org/2000/svg">
<path fill-rule="evenodd" clip-rule="evenodd" d="M1162.63 0L1007.36 126.945L800.697 5.85723L740.736 254.335L1230.92 284.905L1246.14 285.854L1104.82 788.303L998.93 506.231L995.681 497.577L982.953 502.179L1106.67 831.746L1262 279.499L1162.63 0ZM1245.13 272.452L757.641 242.05L809.632 26.5969L1008.66 143.21L1020.06 133.888L1156.27 22.525L1238.28 253.177L1245.13 272.452Z" fill="#F3F3F3"/>
<path d="M1238.28 253.177L1245.13 272.452L1008.66 143.21L1020.06 133.888L1238.28 253.177Z" fill="#F3F3F3"/>
<path d="M998.93 506.231L995.681 497.577L982.953 502.179L1230.92 284.905L1246.14 285.854L998.93 506.231Z" fill="#F3F3F3"/>
<rect width="993" height="12" transform="matrix(-1 0 0 1 993 499)" fill="#F3F3F3"/>
</svg>
