<svg width="50" height="14" viewBox="0 0 50 14" fill="none" xmlns="http://www.w3.org/2000/svg">
<path d="M6.09289 0.199999H0.412891V14H2.25289V8.86H6.09289C8.61289 8.86 10.5129 7 10.5129 4.54C10.5129 2.06 8.61289 0.199999 6.09289 0.199999ZM6.05289 7.14H2.25289V1.92H6.05289C7.53289 1.92 8.63289 3.04 8.63289 4.54C8.63289 6.04 7.53289 7.14 6.05289 7.14ZM14.6462 12.28V0.199999H12.8062V14H21.3462V12.28H14.6462ZM33.9541 14H35.9741L30.3541 0.199999H28.1741L22.5541 14H24.5141L25.8541 10.66H32.6141L33.9541 14ZM26.5341 8.96L29.2341 2.18L31.9341 8.96H26.5341ZM47.742 0.199999V10.98L39.942 0.199999H38.042V14H39.882V3.26L47.682 14H49.562V0.199999H47.742Z" fill="#BA880B"/>
</svg>
