<svg width="47" height="16" viewBox="0 0 47 16" fill="none" xmlns="http://www.w3.org/2000/svg">
<path d="M12.1594 1.2L7.53938 12.62L2.89937 1.2H0.859375L6.53938 15H8.45938L14.1594 1.2H12.1594ZM21.9288 15.24C26.0488 15.24 29.1488 12.16 29.1488 8.1C29.1488 4.04 26.0488 0.96 21.9288 0.96C17.8088 0.96 14.7088 4.04 14.7088 8.1C14.7088 12.16 17.8088 15.24 21.9288 15.24ZM21.9288 13.48C18.8888 13.48 16.5888 11.16 16.5888 8.1C16.5888 5.04 18.8888 2.72 21.9288 2.72C24.9688 2.72 27.2688 5.04 27.2688 8.1C27.2688 11.16 24.9688 13.48 21.9288 13.48ZM31.6702 15H33.5102V1.2H31.6702V15ZM44.7583 15H46.9783L42.7783 9.5C45.0183 9.34 46.6783 7.64 46.6783 5.4C46.6783 3 44.8183 1.2 42.3783 1.2H36.7783V15H38.6183V9.52H40.6383L44.7583 15ZM38.6183 2.92H42.3383C43.7383 2.92 44.7983 3.98 44.7983 5.42C44.7983 6.86 43.7383 7.92 42.3383 7.92H38.6183V2.92Z" fill="#BA880B"/>
</svg>
