<svg width="173" height="88" viewBox="0 0 173 88" fill="none" xmlns="http://www.w3.org/2000/svg">
<path d="M33.4249 41.6082C33.4249 40.4927 33.6152 39.4857 33.996 38.5866C34.3766 37.6879 34.9041 36.9233 35.5787 36.2933C36.2529 35.6636 37.0544 35.1782 37.9829 34.8369C38.9109 34.4955 39.9228 34.3251 41.0181 34.3251C42.1267 34.3251 43.1483 34.4955 44.0834 34.8369C45.0182 35.1782 45.8265 35.6636 46.5076 36.2933C47.1887 36.9233 47.7198 37.6879 48.1004 38.5866C48.481 39.4857 48.6713 40.4927 48.6713 41.6082C48.6713 42.6974 48.481 43.6915 48.1004 44.5902C47.7198 45.4892 47.1887 46.2633 46.5076 46.913C45.8265 47.5626 45.0182 48.0677 44.0834 48.4287C43.1483 48.7893 42.1267 48.9699 41.0181 48.9699C39.9228 48.9699 38.9109 48.7893 37.9829 48.4287C37.0544 48.0677 36.2529 47.5626 35.5787 46.913C34.9041 46.2633 34.3766 45.4892 33.996 44.5902C33.6152 43.6915 33.4249 42.6973 33.4249 41.6082ZM36.1697 41.6082C36.1697 42.356 36.2865 43.0418 36.5203 43.6652C36.7538 44.2885 37.0878 44.8297 37.5221 45.2889C37.9559 45.7484 38.4702 46.1058 39.0647 46.3619C39.6589 46.6176 40.3169 46.7456 41.0381 46.7456C41.7595 46.7456 42.4205 46.6176 43.0216 46.3619C43.6226 46.1058 44.1401 45.7484 44.5743 45.2889C45.0082 44.8297 45.3422 44.2885 45.5761 43.6652C45.8096 43.0418 45.9267 42.356 45.9267 41.6082C45.9267 40.8867 45.8096 40.2174 45.5761 39.6004C45.3422 38.9837 45.0116 38.4456 44.5843 37.9861C44.1567 37.5269 43.6426 37.1664 43.0416 36.9036C42.4405 36.6413 41.7725 36.51 41.0381 36.51C40.3033 36.51 39.6389 36.6413 39.0447 36.9036C38.4502 37.1664 37.9393 37.527 37.512 37.9861C37.0844 38.4456 36.7538 38.9837 36.5203 39.6004C36.2865 40.2174 36.1697 40.8867 36.1697 41.6082Z" fill="#BA880B"/>
<path d="M50.0096 46.3717L57.723 36.8447H50.1298V34.6794H60.7282V36.9233L52.9747 46.411H60.8484V48.6156H50.0096V46.3717H50.0096Z" fill="#BA880B"/>
<path d="M63.581 34.6794H72.9773V36.8447H66.1053V40.3879H72.6168V42.4743H66.1053V46.411H73.3379V48.6156H63.581V34.6794Z" fill="#BA880B"/>
<path d="M76.2388 34.6794H79.5847L86.1761 45.1117H86.216V34.6794H88.7404V48.6156H85.5348L78.8033 37.8486H78.7632V48.6156H76.2388V34.6794H76.2388Z" fill="#BA880B"/>
<path d="M92.3349 34.6794H95.6802L102.272 45.1117H102.312V34.6794H104.837V48.6156H101.631L94.8991 37.8486H94.8591V48.6156H92.3349V34.6794Z" fill="#BA880B"/>
<path d="M108.43 34.6794H117.826V36.8447H110.955V40.3879H117.466V42.4743H110.955V46.411H118.187V48.6156H108.43V34.6794Z" fill="#BA880B"/>
<path d="M79.2678 58.4366H83.9761C84.8572 58.4366 85.7419 58.5811 86.6305 58.8698C87.5185 59.1585 88.3198 59.5949 89.0346 60.1786C89.7493 60.7626 90.327 61.4912 90.7676 62.3635C91.2089 63.2363 91.4288 64.25 91.4288 65.4047C91.4288 66.5728 91.2089 67.5897 90.7676 68.4558C90.327 69.3219 89.7493 70.0472 89.0346 70.6309C88.3198 71.215 87.5185 71.6513 86.6305 71.9397C85.7419 72.2287 84.8572 72.3729 83.9761 72.3729H79.2678V58.4366ZM80.71 71.1133H83.5755C84.6437 71.1133 85.5752 70.9491 86.3703 70.6211C87.1647 70.2931 87.8228 69.8631 88.3434 69.3317C88.8646 68.8002 89.2552 68.1934 89.5159 67.5108C89.7757 66.8289 89.9064 66.1267 89.9064 65.4047C89.9064 64.6832 89.7757 63.9809 89.5159 63.2987C89.2552 62.6164 88.8646 62.0093 88.3434 61.4778C87.8228 60.9464 87.1647 60.5167 86.3703 60.1884C85.5752 59.8607 84.6437 59.6962 83.5755 59.6962H80.71V71.1133Z" fill="#BA880B"/>
<path d="M95.9202 71.1133H103.513V72.3729H94.4778V58.4366H103.273V59.6962H95.9202V64.4798H102.792V65.7394H95.9202V71.1133Z" fill="#BA880B"/>
<path d="M116.216 70.3061H116.256V58.4366H117.698V72.3729H115.895L107.641 60.3852H107.601V72.3729H106.158V58.4366H107.961L116.216 70.3061Z" fill="#BA880B"/>
<path d="M126.149 72.3729H124.706V59.6962H119.958V58.4366H130.897V59.6962H126.149V72.3729Z" fill="#BA880B"/>
<path d="M131.413 72.3729H129.831L135.962 58.4366H137.364L143.454 72.3729H141.852L140.289 68.7115H132.956L131.413 72.3729ZM133.497 67.4126H139.748L136.622 60.0112L133.497 67.4126Z" fill="#BA880B"/>
<path d="M147.149 72.3729H145.707V58.4366H147.149V72.3729Z" fill="#BA880B"/>
<path d="M152.46 72.3729H151.018V58.4366H155.185C155.879 58.4366 156.524 58.5026 157.118 58.6334C157.712 58.7649 158.227 58.9779 158.661 59.2732C159.094 59.5686 159.432 59.9523 159.673 60.4248C159.913 60.8969 160.033 61.4747 160.033 62.1569C160.033 62.6687 159.94 63.1345 159.753 63.5544C159.566 63.9747 159.312 64.3387 158.991 64.6471C158.671 64.9554 158.29 65.2013 157.849 65.3851C157.408 65.5689 156.928 65.6871 156.407 65.7394L160.554 72.3729H158.791L154.864 65.8576H152.46V72.3729ZM152.46 64.6369H154.964C156.126 64.6369 157.021 64.4303 157.649 64.0171C158.277 63.6035 158.591 62.9837 158.591 62.1569C158.591 61.6978 158.504 61.3105 158.33 60.9955C158.157 60.6805 157.916 60.4248 157.609 60.228C157.301 60.0309 156.928 59.8867 156.487 59.7948C156.046 59.7033 155.558 59.6569 155.024 59.6569H152.46V64.6369Z" fill="#BA880B"/>
<path d="M164.595 71.1133H172.188V72.3729H163.152V58.4366H171.948V59.6962H164.595V64.4798H171.467V65.7394H164.595V71.1133Z" fill="#BA880B"/>
<path fill-rule="evenodd" clip-rule="evenodd" d="M0.87085 30.5847L1.80374 29.5003L29.9091 52.8042H172.663V54.2235H29.3803L0.87085 30.5847Z" fill="#BA880B"/>
<path fill-rule="evenodd" clip-rule="evenodd" d="M49.6434 2.558L1.70783 30.6519L0.966736 29.4332L48.9023 1.33929L49.6434 2.558Z" fill="#BA880B"/>
<path fill-rule="evenodd" clip-rule="evenodd" d="M11.1719 0.218567L27.7215 13.753L49.7491 0.843045L56.14 27.3349L2.27081 30.6954L17.3335 84.2648L28.9664 53.2685L30.323 53.7592L17.136 88.8965L0.580444 30.0178L11.1719 0.218567ZM2.37878 29.2664L54.3383 26.0251L48.7967 3.05424L27.5832 15.4871L11.8496 2.62011L2.37878 29.2664Z" fill="#BA880B"/>
</svg>
