<svg width="1920" height="2604" viewBox="0 0 1920 2604" fill="none" xmlns="http://www.w3.org/2000/svg">
<rect width="1920" height="2604" fill="#F3F3F3"/>
<path fill-rule="evenodd" clip-rule="evenodd" d="M1800.66 50L1614.2 202.471L1366.01 57.035L1294 355.479L1882.67 392.196L1900.95 393.336L1731.24 996.821L1604.07 658.028L1600.17 647.633L1584.88 653.161L1733.47 1049L1920 385.703L1800.66 50ZM1899.74 377.238L1314.3 340.723L1376.74 81.9453L1615.76 222.007L1629.45 210.811L1793.03 77.0545L1891.51 354.088L1899.74 377.238Z" fill="white"/>
<path d="M1891.51 354.088L1899.74 377.238L1615.76 222.007L1629.45 210.811L1891.51 354.088Z" fill="white"/>
<path d="M1604.07 658.028L1600.17 647.633L1584.88 653.161L1882.67 392.196L1900.95 393.336L1604.07 658.028Z" fill="white"/>
<path d="M36.0472 1491.52L25.6353 1520.8L384.923 1324.51L367.598 1310.35L36.0472 1491.52Z" fill="white"/>
<path d="M399.705 1875.86L404.641 1862.72L423.98 1869.71L47.229 1539.71L24.0961 1541.16L399.705 1875.86Z" fill="white"/>
<path fill-rule="evenodd" clip-rule="evenodd" d="M150.981 1107L386.895 1299.8L384.923 1324.51L367.598 1310.35L160.641 1141.21L36.0472 1491.52L25.6353 1520.8L612 1484.24L613.5 1504.41L47.229 1539.71L24.0961 1541.16L238.814 2304.27L399.705 1875.86L404.641 1862.72L423.98 1869.71L235.999 2370.25L0 1531.5L150.981 1107Z" fill="white"/>
<path d="M386.895 1299.8L384.923 1324.51L404 1313.33L386.895 1299.8Z" fill="white"/>
</svg>
