<svg width="1920" height="3671" viewBox="0 0 1920 3671" fill="none" xmlns="http://www.w3.org/2000/svg">
<path fill-rule="evenodd" clip-rule="evenodd" d="M1820.63 0L1665.36 126.945L1458.7 5.85723L1398.74 254.335L1888.92 284.905L1904.14 285.854L1762.82 788.303L1656.93 506.231L1653.68 497.577L1640.95 502.179L1764.67 831.746L1920 279.499L1820.63 0ZM1903.13 272.452L1415.64 242.05L1467.63 26.5969L1666.66 143.21L1678.06 133.888L1814.27 22.525L1896.28 253.177L1903.13 272.452Z" fill="#F3F3F3"/>
<path d="M1896.28 253.177L1903.13 272.452L1666.66 143.21L1678.06 133.888L1896.28 253.177Z" fill="#F3F3F3"/>
<path d="M1656.93 506.231L1653.68 497.577L1640.95 502.179L1888.92 284.905L1904.14 285.854L1656.93 506.231Z" fill="#F3F3F3"/>
<rect width="993" height="12" transform="matrix(-1 0 0 1 1651 499)" fill="#F3F3F3"/>
<path fill-rule="evenodd" clip-rule="evenodd" d="M98.5101 1729L253.999 1855.98L460.955 1734.86L521 1983.41L30.1282 2013.99L14.8816 2014.94L156.4 2517.54L262.442 2235.39L265.695 2226.73L278.441 2231.33L154.545 2561L-1 2008.58L98.5101 1729ZM15.896 2001.53L504.072 1971.12L452.007 1755.61L252.699 1872.25L241.281 1862.93L104.877 1751.53L22.7584 1982.25L15.896 2001.53Z" fill="#F3F3F3"/>
<path d="M22.7584 1982.25L15.896 2001.53L252.699 1872.25L241.281 1862.93L22.7584 1982.25Z" fill="#F3F3F3"/>
<path d="M262.442 2235.39L265.695 2226.73L278.441 2231.33L30.1282 2013.99L14.8816 2014.94L262.442 2235.39Z" fill="#F3F3F3"/>
<rect x="267" y="2227" width="995" height="12" fill="#F3F3F3"/>
<path fill-rule="evenodd" clip-rule="evenodd" d="M93.7005 2885L240.112 3004.66L434.985 2890.52L491.524 3124.73L29.3109 3153.55L14.9544 3154.44L148.211 3628.04L248.061 3362.17L251.125 3354.01L263.127 3358.35L146.464 3668.99L0 3148.45L93.7005 2885ZM15.9095 3141.81L475.585 3113.15L426.56 2910.07L238.888 3019.99L228.136 3011.2L99.6959 2906.23L22.3713 3123.64L15.9095 3141.81Z" fill="#F3F3F3"/>
<path d="M22.3713 3123.64L15.9095 3141.81L238.888 3019.99L228.136 3011.2L22.3713 3123.64Z" fill="#F3F3F3"/>
<path d="M248.061 3362.17L251.125 3354.01L263.127 3358.35L29.3109 3153.55L14.9544 3154.44L248.061 3362.17Z" fill="#F3F3F3"/>
<rect x="255" y="3355" width="1007" height="12" fill="#F3F3F3"/>
<path fill-rule="evenodd" clip-rule="evenodd" d="M78.1124 674L201.729 775.342L366.263 678.676L414 877.041L23.7475 901.445L11.6261 902.203L124.136 1303.32L208.441 1078.13L211.028 1071.23L221.161 1074.9L122.661 1338L-1 897.13L78.1124 674ZM12.4326 891.504L400.542 867.233L359.149 695.233L200.696 788.327L191.618 780.885L83.1745 691.982L17.8883 876.116L12.4326 891.504Z" fill="#F3F3F3"/>
<path d="M17.8883 876.116L12.4326 891.504L200.696 788.327L191.618 780.885L17.8883 876.116Z" fill="#F3F3F3"/>
<path d="M208.441 1078.13L211.028 1071.23L221.161 1074.9L23.7475 901.445L11.6261 902.203L208.441 1078.13Z" fill="#F3F3F3"/>
<rect x="212" y="1071" width="732" height="12" fill="#F3F3F3"/>
<path fill-rule="evenodd" clip-rule="evenodd" d="M1841.08 1213L1717.76 1313.73L1553.62 1217.65L1506 1414.82L1895.31 1439.08L1907.4 1439.83L1795.17 1838.53L1711.06 1614.7L1708.48 1607.83L1698.37 1611.48L1796.64 1873L1920 1434.79L1841.08 1213ZM1906.6 1429.19L1519.43 1405.07L1560.72 1234.1L1718.79 1326.64L1727.85 1319.24L1836.03 1230.87L1901.16 1413.9L1906.6 1429.19Z" fill="#F3F3F3"/>
<path d="M1901.16 1413.9L1906.6 1429.19L1718.79 1326.64L1727.85 1319.24L1901.16 1413.9Z" fill="#F3F3F3"/>
<path d="M1711.06 1614.7L1708.48 1607.83L1698.37 1611.48L1895.31 1439.08L1907.4 1439.83L1711.06 1614.7Z" fill="#F3F3F3"/>
<rect width="733" height="8" transform="matrix(-1 0 0 1 1709 1607)" fill="#F3F3F3"/>
<path fill-rule="evenodd" clip-rule="evenodd" d="M1848.32 2415L1736.32 2506.42L1587.25 2419.22L1544 2598.16L1897.58 2620.18L1908.56 2620.86L1806.62 2982.71L1730.24 2779.57L1727.9 2773.34L1718.72 2776.66L1807.96 3014L1920 2616.29L1848.32 2415ZM1907.83 2611.21L1556.19 2589.32L1593.7 2434.15L1737.26 2518.14L1745.48 2511.42L1843.74 2431.22L1902.89 2597.33L1907.83 2611.21Z" fill="#F3F3F3"/>
<path d="M1902.89 2597.33L1907.83 2611.21L1737.26 2518.14L1745.48 2511.42L1902.89 2597.33Z" fill="#F3F3F3"/>
<path d="M1730.24 2779.57L1727.9 2773.34L1718.72 2776.66L1897.58 2620.18L1908.56 2620.86L1730.24 2779.57Z" fill="#F3F3F3"/>
<rect width="856" height="8" transform="matrix(-1 0 0 1 1726 2771)" fill="#F3F3F3"/>
</svg>
