<svg width="74" height="76" viewBox="0 0 74 76" fill="none" xmlns="http://www.w3.org/2000/svg">
<path d="M10.6907 22.3514L18.2784 21L22.5464 35.4144L17.8041 39.9189L32.5052 57.9369L37.2474 54.3333L51 59.7387L50.5258 66.4955L45.7835 71L32.5052 70.0991L16.3814 57.9369L6.5 42.5L5 29.5586L10.6907 22.3514Z" fill="white"/>
<path d="M10.6907 22.3514L18.2784 21L22.5464 35.4144L17.8041 39.9189M10.6907 22.3514L5 29.5586L6.5 42.5M10.6907 22.3514L17.8041 39.9189M6.5 42.5L16.3814 57.9369M6.5 42.5L17.8041 39.9189M16.3814 57.9369L32.5052 70.0991M16.3814 57.9369H32.5052M32.5052 70.0991L45.7835 71L50.5258 66.4955M32.5052 70.0991V57.9369M50.5258 66.4955L51 59.7387L37.2474 54.3333L32.5052 57.9369M50.5258 66.4955L32.5052 57.9369M32.5052 57.9369L17.8041 39.9189" stroke="#BA880B" stroke-width="1.5"/>
<path d="M36 36L39.9999 32.0001L43.9998 36L39.9999 39.9999L36 36Z" fill="#BA880B"/>
<path d="M48 36L51.9999 32.0001L55.9998 36L51.9999 39.9999L48 36Z" fill="#BA880B"/>
<path d="M60 36L63.9999 32.0001L67.9998 36L63.9999 39.9999L60 36Z" fill="#BA880B"/>
</svg>
