<svg width="74" height="76" viewBox="0 0 74 76" fill="none" xmlns="http://www.w3.org/2000/svg">
<path d="M4 42.4668L1.5 36.9668L5 26.4668L17.5 25.4668L36.5 31.4668L56 25.4668L68.5 26.4668L72 36.9668L70 42.4668H37H4Z" fill="white"/>
<path d="M17.5 25.4668L5 26.4668L1.5 36.9668L4 42.4668H37M17.5 25.4668L36.5 31.4668L56 25.4668M17.5 25.4668L37 42.4668M56 25.4668L68.5 26.4668L72 36.9668L70 42.4668H37M56 25.4668L37 42.4668" stroke="#BA880B" stroke-width="1.5"/>
<path d="M24.5 50.9668V38.4668L32 36.9668L37 42.4668V51.9668L34 53.9668L26 53.4668L24.5 50.9668Z" fill="#EBEBEB" stroke="#BA880B" stroke-width="1.5"/>
<path d="M49.5 50.9668V38.4668L42 36.9668L37 42.4668V51.9668L40 53.9668L48 53.4668L49.5 50.9668Z" fill="white" stroke="#BA880B" stroke-width="1.5"/>
<path d="M17 36.4668L24.5 39.9668V50.9668L22.5 52.9668L13 49.4668L13.5 38.4668L17 36.4668Z" fill="#EBEBEB" stroke="#BA880B" stroke-width="1.5"/>
<path d="M57 36.4668L49.5 39.9668V50.9668L51.5 52.9668L61 49.4668L60.5 38.4668L57 36.4668Z" fill="white" stroke="#BA880B" stroke-width="1.5"/>
<path d="M7 35.4668L13.5 38.4668L13 47.9668L11.5 49.4668L4 46.9668V37.4668L7 35.4668Z" fill="#EBEBEB" stroke="#BA880B" stroke-width="1.5"/>
<path d="M66.9912 35.4932L60.4912 38.4932L60.9912 47.9932L62.4912 49.4932L69.9912 46.9932V37.4932L66.9912 35.4932Z" fill="white" stroke="#BA880B" stroke-width="1.5"/>
<path d="M37 12L36.9848 72" stroke="#BA880B" stroke-width="1.5"/>
</svg>
