<svg width="74" height="76" viewBox="0 0 74 76" fill="none" xmlns="http://www.w3.org/2000/svg">
<path d="M30.9999 43.5L18.9999 19.5M30.9999 43.5L17.9999 50.25M30.9999 43.5V35M30.9999 43.5L26.8148 46L25.4999 65.5M25.4999 65.5L6.49994 70L3.99994 57M25.4999 65.5C25.4999 65.5 19.9999 55.4518 17.9999 50.25M3.99994 57L7.49994 40.5L18.9999 19.5M3.99994 57L17.9999 50.25M18.9999 19.5L30.9999 14V35M42.9999 43.5L54.9999 19.5M42.9999 43.5L55.9999 50.25M42.9999 43.5V35M42.9999 43.5L47.2391 46.026L48.4999 65.5M48.4999 65.5L67.4999 70L69.9999 57M48.4999 65.5C48.4999 65.5 53.9999 55.4518 55.9999 50.25M69.9999 57L66.4999 40.5L54.9999 19.5M69.9999 57L55.9999 50.25M54.9999 19.5L42.9999 14V35M36.9999 4V32M36.9999 32L30.9999 35M36.9999 32L42.9999 35" stroke="#BA880B" stroke-width="1.5"/>
</svg>
