<svg width="74" height="64" viewBox="0 0 74 64" fill="none" xmlns="http://www.w3.org/2000/svg">
<path d="M4.00003 21.4668L1.50003 15.9668L5.00003 5.4668L17.5 4.4668L36.5 10.4668L56 4.4668L68.5 5.4668L72 15.9668L70 21.4668H37H4.00003Z" fill="white"/>
<path d="M17.5 4.4668L5.00003 5.4668L1.50003 15.9668L4.00003 21.4668H37M17.5 4.4668L36.5 10.4668L56 4.4668M17.5 4.4668L37 21.4668M56 4.4668L68.5 5.4668L72 15.9668L70 21.4668H37M56 4.4668L37 21.4668" stroke="#BA880B" stroke-width="1.5"/>
<path d="M24.5 29.9668V17.4668L32 15.9668L37 21.4668V30.9668L34 32.9668L26 32.4668L24.5 29.9668Z" fill="white" stroke="#BA880B" stroke-width="1.5"/>
<path d="M49.5 29.9668V17.4668L42 15.9668L37 21.4668V30.9668L40 32.9668L48 32.4668L49.5 29.9668Z" fill="white" stroke="#BA880B" stroke-width="1.5"/>
<path d="M17 15.4668L24.5 18.9668V29.9668L22.5 31.9668L13 28.4668L13.5 17.4668L17 15.4668Z" fill="white" stroke="#BA880B" stroke-width="1.5"/>
<path d="M57 15.4668L49.5 18.9668V29.9668L51.5 31.9668L61 28.4668L60.5 17.4668L57 15.4668Z" fill="white" stroke="#BA880B" stroke-width="1.5"/>
<path d="M7.00003 14.4668L13.5 17.4668L13 26.9668L11.5 28.4668L4.00003 25.9668V16.4668L7.00003 14.4668Z" fill="white" stroke="#BA880B" stroke-width="1.5"/>
<path d="M66.9912 14.4932L60.4912 17.4932L60.9912 26.9932L62.4912 28.4932L69.9912 25.9932V16.4932L66.9912 14.4932Z" fill="white" stroke="#BA880B" stroke-width="1.5"/>
<path d="M14.2276 47.4468L12.728 47.4684L12.7285 47.4819L13.2267 50.5349L14.2276 47.4468Z" fill="#BA880B"/>
<path fill-rule="evenodd" clip-rule="evenodd" d="M13.4635 46.1575L6.93323 43.1436L3.25003 45.599V56.041L11.7026 58.8585L12.2344 58.3267L12.2259 58.5145L22.691 62.3701L24.3511 60.71L25.5598 62.7244L34.2056 63.2647L37 61.4018L39.7944 63.2647L48.4403 62.7244L49.6489 60.71L51.309 62.3701L61.7742 58.5145L61.7613 58.2303L62.2887 58.8853L70.7412 56.0678V45.6258L67.058 43.1703L60.5586 46.1701L57.0349 44.1565L50.25 47.3228V46.3856L41.7307 44.6817L37 49.8855L32.2693 44.6817L23.75 46.3856V47.3228L16.9652 44.1565L13.4635 46.1575ZM62.6938 57.1691L60.7392 54.1491L60.2259 57.4863L51.691 60.6308L50.25 59.7082L49.3211 55.9957L48.75 59.8111L47.5598 61.2765L40.2056 61.7361L37.75 60.099L36.8324 57.4145L36.25 60.099L33.7944 61.7361L26.4403 61.2765L25.25 59.2927L24.3511 56.6182L23.75 59.1898L22.309 60.6308L13.7742 57.4863L13.0979 53.6893L14.2276 47.4468L17.0349 45.8443L23.75 48.9781L24.3511 51.9593L25.25 48.9781V47.6153L31.7307 46.3191L36.25 51.2904L36.8324 53.8901L37.75 51.2904L42.2693 46.3191L48.75 47.6153V48.9781L49.3211 51.448L50.25 48.9781L56.9652 45.8443L59.7594 47.4952L60.5585 49.4527L61.2732 47.4923L66.9244 44.884L69.2412 46.4286V54.9866L62.6938 57.1691ZM13.0979 53.6893L12.7244 47.4684L7.06683 44.8573L4.75003 46.4018V54.9598L11.2975 57.1423L12.554 56.2729L13.0979 53.6893ZM13.0979 53.6893L12.7285 47.4819L12.728 47.4684L14.2276 47.4468L13.0979 53.6893Z" fill="#BA880B"/>
</svg>
