<svg width="30" height="30" viewBox="0 0 30 30" fill="none" xmlns="http://www.w3.org/2000/svg">
<path d="M5.20015 4.2001H11.6C12.1531 4.2001 12.6001 4.64716 12.6001 5.2V11.6C12.6001 12.1531 12.153 12.6001 11.6002 12.6001H5.20015C4.64712 12.6001 4.2001 12.1531 4.2001 11.6V5.2C4.2001 4.64716 4.64708 4.2001 5.20015 4.2001Z" stroke="#E44747" stroke-width="1.2"/>
<path d="M5.20015 17.4H11.6C12.1531 17.4 12.6001 17.8471 12.6001 18.4V24.8C12.6001 25.3531 12.153 25.8 11.6002 25.8H5.20015C4.64712 25.8 4.2001 25.353 4.2001 24.8V18.4C4.2001 17.8471 4.64708 17.4 5.20015 17.4Z" stroke="#E44747" stroke-width="1.2"/>
<path d="M18.4003 4.2001H24.8002C25.3533 4.2001 25.8003 4.64716 25.8003 5.2V11.6C25.8003 12.1531 25.3532 12.6001 24.8004 12.6001H18.4003C17.8473 12.6001 17.4003 12.1531 17.4003 11.6V5.2C17.4003 4.64716 17.8473 4.2001 18.4003 4.2001Z" stroke="#E44747" stroke-width="1.2"/>
<path d="M18.4003 17.4H24.8002C25.3533 17.4 25.8003 17.8471 25.8003 18.4V24.8C25.8003 25.3531 25.3532 25.8 24.8004 25.8H18.4003C17.8473 25.8 17.4003 25.353 17.4003 24.8V18.4C17.4003 17.8471 17.8473 17.4 18.4003 17.4Z" stroke="#E44747" stroke-width="1.2"/>
</svg>
