<svg width="28" height="27" viewBox="0 0 28 27" fill="none" xmlns="http://www.w3.org/2000/svg">
<path d="M27.9524 13.4912L27.9286 13.5031L23.9116 3.50521H25.7445C26.0732 3.50521 26.3396 3.23875 26.3396 2.9101C26.3396 2.58145 26.0732 2.31498 25.7445 2.31498H14.5445V0.595112C14.5445 0.266461 14.2781 0 13.9494 0C13.6208 0 13.3543 0.266461 13.3543 0.595112V2.30903H2.16026C1.8316 2.30903 1.56514 2.57549 1.56514 2.90414C1.56514 3.2328 1.8316 3.49926 2.16026 3.49926H4.07056L0.0476089 13.4912C0.0178533 13.5609 0.00171095 13.6356 0 13.7114C0 16.4443 2.21545 18.6597 4.94835 18.6597C7.68125 18.6597 9.89671 16.4443 9.89671 13.7114C9.89499 13.6356 9.87885 13.5609 9.8491 13.4912L5.83209 3.4933H13.3543V21.8942C10.5156 22.1084 8.29586 23.8342 8.29586 25.9231C8.29586 26.2517 8.56232 26.5182 8.89097 26.5182H19.0079C19.3365 26.5182 19.603 26.2517 19.603 25.9231C19.603 23.8342 17.3832 22.1084 14.5445 21.8942V3.4933H22.1441L18.1509 13.4912C18.1211 13.5609 18.105 13.6356 18.1033 13.7114C18.1033 16.4443 20.3187 18.6597 23.0516 18.6597C25.7845 18.6597 28 16.4443 28 13.7114C27.9983 13.6356 27.9821 13.5609 27.9524 13.4912ZM4.94538 17.4784C3.10217 17.4759 1.53241 16.1379 1.23783 14.3184H8.62912C8.33603 16.1291 6.77959 17.4643 4.94538 17.4784ZM8.41488 13.1282H1.48778L4.95728 4.49309L8.41488 13.1282ZM18.3056 25.328H9.58725C10.0276 24.0485 11.8427 23.0606 13.9435 23.0606C16.0442 23.0606 17.8653 24.0485 18.3056 25.328ZM23.0249 4.49904L26.4825 13.1282H19.5554L23.0249 4.49904ZM23.0249 17.4784V17.4844C21.1887 17.4697 19.6316 16.1315 19.3411 14.3184H26.7324C26.4378 16.1379 24.8681 17.4759 23.0249 17.4784Z" fill="#E44747"/>
</svg>
