<svg width="19" height="18" viewBox="0 0 19 18" fill="none" xmlns="http://www.w3.org/2000/svg">
   <path d="M17.8925 3.10015C17.7995 2.98631 17.6586 2.92004 17.5096 2.92004H4.45817L4.0932 1.37206C4.04184 1.15428 3.84371 1 3.61537 1H1.49038C1.21957 1 1 1.21492 1 1.48003C1 1.74513 1.21957 1.96002 1.49038 1.96002H3.22527L5.70262 12.468C5.75395 12.6858 5.95211 12.84 6.18045 12.84H16.0057C16.2766 12.84 16.4961 12.6251 16.4961 12.36C16.4961 12.0949 16.2765 11.88 16.0057 11.88H6.57058L6.1934 10.28H16.0385C16.2678 10.28 16.4666 10.1244 16.5169 9.90541L17.988 3.5054C18.0207 3.36311 17.9856 3.21403 17.8925 3.10015ZM15.6461 9.32002H5.96705L4.68451 3.88003H16.8966L15.6461 9.32002Z" fill="#E44747"/>
   <path d="M8.1923 13.48C7.20085 13.48 6.39422 14.2695 6.39422 15.24C6.39422 16.2105 7.20082 17 8.1923 17C9.18374 17 9.99038 16.2105 9.99038 15.24C9.99038 14.2695 9.18378 13.48 8.1923 13.48ZM8.1923 16.04C7.74163 16.04 7.375 15.6811 7.375 15.24C7.375 14.7989 7.74163 14.44 8.1923 14.44C8.64296 14.44 9.00959 14.7989 9.00959 15.24C9.00959 15.6811 8.64296 16.04 8.1923 16.04Z" fill="#E44747"/>
   <path d="M14.0769 13.48C13.0854 13.48 12.2788 14.2695 12.2788 15.24C12.2788 16.2105 13.0854 17 14.0769 17C15.0683 17 15.875 16.2105 15.875 15.24C15.875 14.2695 15.0684 13.48 14.0769 13.48ZM14.0769 16.04C13.6262 16.04 13.2596 15.6811 13.2596 15.24C13.2596 14.7989 13.6262 14.44 14.0769 14.44C14.5276 14.44 14.8942 14.7989 14.8942 15.24C14.8942 15.6811 14.5276 16.04 14.0769 16.04Z" fill="#E44747"/>
   <path d="M17.8925 3.10015C17.7995 2.98631 17.6586 2.92004 17.5096 2.92004H4.45817L4.0932 1.37206C4.04184 1.15428 3.84371 1 3.61537 1H1.49038C1.21957 1 1 1.21492 1 1.48003C1 1.74513 1.21957 1.96002 1.49038 1.96002H3.22527L5.70262 12.468C5.75395 12.6858 5.95211 12.84 6.18045 12.84H16.0057C16.2766 12.84 16.4961 12.6251 16.4961 12.36C16.4961 12.0949 16.2765 11.88 16.0057 11.88H6.57058L6.1934 10.28H16.0385C16.2678 10.28 16.4666 10.1244 16.5169 9.90541L17.988 3.5054C18.0207 3.36311 17.9856 3.21403 17.8925 3.10015ZM15.6461 9.32002H5.96705L4.68451 3.88003H16.8966L15.6461 9.32002Z" stroke="#E44747" stroke-width="0.5"/>
   <path d="M8.1923 13.48C7.20085 13.48 6.39422 14.2695 6.39422 15.24C6.39422 16.2105 7.20082 17 8.1923 17C9.18374 17 9.99038 16.2105 9.99038 15.24C9.99038 14.2695 9.18378 13.48 8.1923 13.48ZM8.1923 16.04C7.74163 16.04 7.375 15.6811 7.375 15.24C7.375 14.7989 7.74163 14.44 8.1923 14.44C8.64296 14.44 9.00959 14.7989 9.00959 15.24C9.00959 15.6811 8.64296 16.04 8.1923 16.04Z" stroke="#E44747" stroke-width="0.5"/>
   <path d="M14.0769 13.48C13.0854 13.48 12.2788 14.2695 12.2788 15.24C12.2788 16.2105 13.0854 17 14.0769 17C15.0683 17 15.875 16.2105 15.875 15.24C15.875 14.2695 15.0684 13.48 14.0769 13.48ZM14.0769 16.04C13.6262 16.04 13.2596 15.6811 13.2596 15.24C13.2596 14.7989 13.6262 14.44 14.0769 14.44C14.5276 14.44 14.8942 14.7989 14.8942 15.24C14.8942 15.6811 14.5276 16.04 14.0769 16.04Z" stroke="#E44747" stroke-width="0.5"/>
</svg>
