<svg width="32" height="32" viewBox="0 0 32 32" fill="none" xmlns="http://www.w3.org/2000/svg">
<g clip-path="url(#clip0)">
<mask id="path-1-inside-1" fill="white">
<path d="M21.3942 9.68666C21.3942 7.00504 19.2355 4.82329 16.5821 4.82329H16.3759C15.0637 4.82329 13.806 5.23068 12.7382 6.00154L11.596 6.82611C10.9759 7.27393 10.6056 8.00099 10.6056 8.77129C10.6056 9.60104 11.0211 10.3587 11.7171 10.7982L12.708 11.4241C13.5275 11.9419 14.1141 12.7561 14.3554 13.6926L12.6469 11.9661C11.8354 11.1458 10.7563 10.6939 9.60877 10.6939C6.95542 10.6939 4.79666 12.8757 4.79666 15.5573V15.7659C4.79666 17.092 5.19976 18.3631 5.96235 19.4422L6.77837 20.5965C7.2212 21.2234 7.9406 21.5977 8.70291 21.5977C9.52377 21.5977 10.2735 21.1777 10.7086 20.4741L11.3279 19.4728C11.8402 18.6446 12.6458 18.0516 13.5725 17.8077L11.864 19.5343C11.0524 20.3544 10.6054 21.4449 10.6054 22.6049C10.6054 25.2865 12.7642 27.4683 15.4175 27.4683H15.6239C16.9361 27.4683 18.1939 27.0609 19.2615 26.2901L20.4038 25.4655C21.0238 25.0177 21.3941 24.2905 21.3941 23.5203C21.3941 22.6906 20.9785 21.9328 20.2825 21.4934L19.2917 20.8675C18.472 20.3497 17.8855 19.5354 17.6443 18.5989L19.3527 20.3255C20.1643 21.1458 21.2433 21.5977 22.391 21.5977C25.0444 21.5977 27.203 19.4159 27.203 16.7343V16.5257C27.203 15.1996 26.7999 13.9284 26.0373 12.8494L25.2214 11.6949C24.7783 11.0682 24.0589 10.6939 23.2967 10.6939C22.4759 10.6939 21.7262 11.1139 21.2911 11.8175L20.6716 12.8187C20.1621 13.6429 19.353 14.2397 18.4271 14.484L20.1357 12.7572C20.9474 11.9372 21.3942 10.8467 21.3942 9.68666ZM17.6246 16.1459C17.6246 17.0513 16.8958 17.7877 16 17.7877C15.1043 17.7877 14.3755 17.0512 14.3755 16.1459C14.3755 15.2406 15.1041 14.504 15.9999 14.504C16.8957 14.504 17.6246 15.2404 17.6246 16.1459ZM10.3889 18.8797L9.76962 19.8809C9.53817 20.2552 9.13936 20.4784 8.70291 20.4784C8.2976 20.4784 7.91512 20.2794 7.67938 19.946L6.86336 18.7915C6.23574 17.9034 5.90393 16.8573 5.90393 15.7658V15.5572C5.90393 13.4927 7.56588 11.813 9.60863 11.813C10.4604 11.813 11.2613 12.1482 11.8639 12.7572L13.7181 14.631C13.4342 15.0664 13.2678 15.5864 13.2678 16.1457C13.2678 16.3414 13.2887 16.5321 13.3272 16.7165C12.114 17.0267 11.058 17.7978 10.3889 18.8797ZM18.7049 21.8166L19.6959 22.4426C20.0659 22.6763 20.287 23.0793 20.287 23.5204C20.287 23.9301 20.09 24.3168 19.7602 24.555L18.6179 25.3796C17.7392 26.014 16.7041 26.3494 15.6241 26.3494H15.4177C13.3749 26.3494 11.713 24.6697 11.713 22.6052C11.713 21.7443 12.0447 20.9347 12.6471 20.3258L14.5013 18.452C14.9321 18.7389 15.4467 18.9071 16 18.9071C16.1937 18.9071 16.3824 18.886 16.5647 18.8471C16.8714 20.0732 17.6343 21.1405 18.7049 21.8166ZM21.6109 13.4121L22.2302 12.4108C22.4616 12.0366 22.8604 11.8133 23.2969 11.8133C23.7022 11.8133 24.0848 12.0124 24.3205 12.3457L25.1364 13.5002C25.7641 14.3883 26.0959 15.4345 26.0959 16.526V16.7346C26.0959 18.7991 24.4341 20.4787 22.3913 20.4787C21.5394 20.4787 20.7385 20.1435 20.1359 19.5345L18.2818 17.6607C18.5658 17.2253 18.7322 16.7053 18.7322 16.146C18.7322 15.9507 18.7114 15.7603 18.673 15.5765C19.885 15.2658 20.9453 14.4886 21.6109 13.4121ZM17.4986 13.8399C17.068 13.5529 16.5533 13.3848 15.9999 13.3848C15.8062 13.3848 15.6176 13.4059 15.4353 13.4448C15.1284 12.2186 14.3654 11.1513 13.2949 10.4751L12.3039 9.84908C11.9339 9.61545 11.7128 9.21239 11.7128 8.77129C11.7128 8.36166 11.9098 7.97497 12.2397 7.73672L13.3818 6.91215C14.2607 6.2777 15.2959 5.94236 16.3759 5.94236H16.5821C18.6249 5.94236 20.2868 7.622 20.2868 9.68652C20.2868 10.5475 19.9551 11.3571 19.3527 11.9659L17.4986 13.8399Z"/>
<path fill-rule="evenodd" clip-rule="evenodd" d="M29.7143 16.1459C29.7143 11.4044 27.3548 7.04205 23.4027 4.47641L23.2803 4.41683C22.303 3.84533 21.6915 3.55299 20.5173 3.07247L20.394 3.01249C18.9822 2.53025 17.5039 2.28571 16 2.28571C8.43791 2.28571 2.28571 8.50331 2.28571 16.1459C2.28571 23.3164 7.70135 29.2324 14.6157 29.9359L15.7231 30.0027C15.8153 30.0045 15.9074 30.0062 16 30.0062C16.0926 30.0062 16.1847 30.0045 16.2768 30.0027L17.3843 29.9359C24.2988 29.2324 29.7143 23.3164 29.7143 16.1459ZM28.6069 16.1459C28.6069 11.7872 26.4376 7.7768 22.8042 5.41794C21.8022 4.81956 21.1968 4.52508 20.0394 4.07266C18.7422 3.62959 17.383 3.40491 16 3.40491C9.04865 3.40491 3.39325 9.12041 3.39325 16.1459C3.39325 23.1715 9.04865 28.887 16.0001 28.887C22.9516 28.887 28.6069 23.1715 28.6069 16.1459Z"/>
</mask>
<path d="M21.3942 9.68666C21.3942 7.00504 19.2355 4.82329 16.5821 4.82329H16.3759C15.0637 4.82329 13.806 5.23068 12.7382 6.00154L11.596 6.82611C10.9759 7.27393 10.6056 8.00099 10.6056 8.77129C10.6056 9.60104 11.0211 10.3587 11.7171 10.7982L12.708 11.4241C13.5275 11.9419 14.1141 12.7561 14.3554 13.6926L12.6469 11.9661C11.8354 11.1458 10.7563 10.6939 9.60877 10.6939C6.95542 10.6939 4.79666 12.8757 4.79666 15.5573V15.7659C4.79666 17.092 5.19976 18.3631 5.96235 19.4422L6.77837 20.5965C7.2212 21.2234 7.9406 21.5977 8.70291 21.5977C9.52377 21.5977 10.2735 21.1777 10.7086 20.4741L11.3279 19.4728C11.8402 18.6446 12.6458 18.0516 13.5725 17.8077L11.864 19.5343C11.0524 20.3544 10.6054 21.4449 10.6054 22.6049C10.6054 25.2865 12.7642 27.4683 15.4175 27.4683H15.6239C16.9361 27.4683 18.1939 27.0609 19.2615 26.2901L20.4038 25.4655C21.0238 25.0177 21.3941 24.2905 21.3941 23.5203C21.3941 22.6906 20.9785 21.9328 20.2825 21.4934L19.2917 20.8675C18.472 20.3497 17.8855 19.5354 17.6443 18.5989L19.3527 20.3255C20.1643 21.1458 21.2433 21.5977 22.391 21.5977C25.0444 21.5977 27.203 19.4159 27.203 16.7343V16.5257C27.203 15.1996 26.7999 13.9284 26.0373 12.8494L25.2214 11.6949C24.7783 11.0682 24.0589 10.6939 23.2967 10.6939C22.4759 10.6939 21.7262 11.1139 21.2911 11.8175L20.6716 12.8187C20.1621 13.6429 19.353 14.2397 18.4271 14.484L20.1357 12.7572C20.9474 11.9372 21.3942 10.8467 21.3942 9.68666ZM17.6246 16.1459C17.6246 17.0513 16.8958 17.7877 16 17.7877C15.1043 17.7877 14.3755 17.0512 14.3755 16.1459C14.3755 15.2406 15.1041 14.504 15.9999 14.504C16.8957 14.504 17.6246 15.2404 17.6246 16.1459ZM10.3889 18.8797L9.76962 19.8809C9.53817 20.2552 9.13936 20.4784 8.70291 20.4784C8.2976 20.4784 7.91512 20.2794 7.67938 19.946L6.86336 18.7915C6.23574 17.9034 5.90393 16.8573 5.90393 15.7658V15.5572C5.90393 13.4927 7.56588 11.813 9.60863 11.813C10.4604 11.813 11.2613 12.1482 11.8639 12.7572L13.7181 14.631C13.4342 15.0664 13.2678 15.5864 13.2678 16.1457C13.2678 16.3414 13.2887 16.5321 13.3272 16.7165C12.114 17.0267 11.058 17.7978 10.3889 18.8797ZM18.7049 21.8166L19.6959 22.4426C20.0659 22.6763 20.287 23.0793 20.287 23.5204C20.287 23.9301 20.09 24.3168 19.7602 24.555L18.6179 25.3796C17.7392 26.014 16.7041 26.3494 15.6241 26.3494H15.4177C13.3749 26.3494 11.713 24.6697 11.713 22.6052C11.713 21.7443 12.0447 20.9347 12.6471 20.3258L14.5013 18.452C14.9321 18.7389 15.4467 18.9071 16 18.9071C16.1937 18.9071 16.3824 18.886 16.5647 18.8471C16.8714 20.0732 17.6343 21.1405 18.7049 21.8166ZM21.6109 13.4121L22.2302 12.4108C22.4616 12.0366 22.8604 11.8133 23.2969 11.8133C23.7022 11.8133 24.0848 12.0124 24.3205 12.3457L25.1364 13.5002C25.7641 14.3883 26.0959 15.4345 26.0959 16.526V16.7346C26.0959 18.7991 24.4341 20.4787 22.3913 20.4787C21.5394 20.4787 20.7385 20.1435 20.1359 19.5345L18.2818 17.6607C18.5658 17.2253 18.7322 16.7053 18.7322 16.146C18.7322 15.9507 18.7114 15.7603 18.673 15.5765C19.885 15.2658 20.9453 14.4886 21.6109 13.4121ZM17.4986 13.8399C17.068 13.5529 16.5533 13.3848 15.9999 13.3848C15.8062 13.3848 15.6176 13.4059 15.4353 13.4448C15.1284 12.2186 14.3654 11.1513 13.2949 10.4751L12.3039 9.84908C11.9339 9.61545 11.7128 9.21239 11.7128 8.77129C11.7128 8.36166 11.9098 7.97497 12.2397 7.73672L13.3818 6.91215C14.2607 6.2777 15.2959 5.94236 16.3759 5.94236H16.5821C18.6249 5.94236 20.2868 7.622 20.2868 9.68652C20.2868 10.5475 19.9551 11.3571 19.3527 11.9659L17.4986 13.8399Z" fill="#F76F6F"/>
<path fill-rule="evenodd" clip-rule="evenodd" d="M29.7143 16.1459C29.7143 11.4044 27.3548 7.04205 23.4027 4.47641L23.2803 4.41683C22.303 3.84533 21.6915 3.55299 20.5173 3.07247L20.394 3.01249C18.9822 2.53025 17.5039 2.28571 16 2.28571C8.43791 2.28571 2.28571 8.50331 2.28571 16.1459C2.28571 23.3164 7.70135 29.2324 14.6157 29.9359L15.7231 30.0027C15.8153 30.0045 15.9074 30.0062 16 30.0062C16.0926 30.0062 16.1847 30.0045 16.2768 30.0027L17.3843 29.9359C24.2988 29.2324 29.7143 23.3164 29.7143 16.1459ZM28.6069 16.1459C28.6069 11.7872 26.4376 7.7768 22.8042 5.41794C21.8022 4.81956 21.1968 4.52508 20.0394 4.07266C18.7422 3.62959 17.383 3.40491 16 3.40491C9.04865 3.40491 3.39325 9.12041 3.39325 16.1459C3.39325 23.1715 9.04865 28.887 16.0001 28.887C22.9516 28.887 28.6069 23.1715 28.6069 16.1459Z" fill="#F76F6F"/>
<path d="M14.5657 29.9359V35.1724H14.6657V29.9359H14.5657ZM14.5657 35.1724C14.5657 35.9709 15.2086 36.6214 16 36.6214V36.5214C15.2648 36.5214 14.6657 35.9167 14.6657 35.1724H14.5657ZM16 36.6214C16.7914 36.6214 17.4343 35.9709 17.4343 35.1724H17.3343C17.3343 35.9167 16.7352 36.5214 16 36.5214V36.6214ZM17.4343 35.1724V29.9359H17.3343V35.1724H17.4343ZM16.2268 35.1724C16.2268 35.2996 16.1246 35.4022 16 35.4022V35.5022C16.1808 35.5022 16.3268 35.3538 16.3268 35.1724H16.2268ZM16 35.4022C15.8754 35.4022 15.7731 35.2996 15.7731 35.1724H15.6731C15.6731 35.3538 15.8192 35.5022 16 35.5022V35.4022ZM15.7731 35.1724V30.0027H15.6731V35.1724H15.7731ZM16.2268 30.0027V35.1724H16.3268V30.0027H16.2268ZM20.5446 3.03059C20.5035 3.0038 20.4586 2.98168 20.4102 2.96517L20.3779 3.05981C20.4183 3.07361 20.4558 3.09206 20.49 3.11436L20.5446 3.03059ZM23.43 4.43447C23.3873 4.40681 23.3425 4.38521 23.2964 4.36951L23.2642 4.46415C23.3025 4.47722 23.3399 4.49521 23.3755 4.51835L23.43 4.43447ZM23.4027 4.47641L23.4576 4.3919L23.4465 4.38649L23.4027 4.47641ZM22.8042 5.41794L22.8587 5.33401L22.8555 5.33209L22.8042 5.41794ZM20.0394 4.07266L20.0758 3.97943L20.0717 3.97802L20.0394 4.07266ZM20.394 3.01249L20.4381 2.92188L20.4264 2.91786L20.394 3.01249ZM14.6157 29.9359L14.6056 30.0355L14.6097 30.0358L14.6157 29.9359ZM17.3843 29.9359L17.3903 30.0358L17.3944 30.0354L17.3843 29.9359ZM15.7231 30.0027L15.7171 30.1026L15.7212 30.1026L15.7231 30.0027ZM16.2768 30.0027L16.2788 30.1027L16.2829 30.1025L16.2768 30.0027ZM12.7382 6.00154L12.6796 5.92046L12.6796 5.92046L12.7382 6.00154ZM11.596 6.82611L11.5375 6.74503L11.5375 6.74504L11.596 6.82611ZM11.7171 10.7982L11.7705 10.7136L11.7705 10.7136L11.7171 10.7982ZM12.708 11.4241L12.7614 11.3395L12.7614 11.3395L12.708 11.4241ZM14.3554 13.6926L14.2843 13.7629L14.5445 14.0259L14.4522 13.6676L14.3554 13.6926ZM12.6469 11.9661L12.5759 12.0364L12.5759 12.0364L12.6469 11.9661ZM5.96235 19.4422L5.88068 19.4999L5.88069 19.4999L5.96235 19.4422ZM6.77837 20.5965L6.86005 20.5388L6.86003 20.5388L6.77837 20.5965ZM10.7086 20.4741L10.6235 20.4215L10.6235 20.4215L10.7086 20.4741ZM11.3279 19.4728L11.2428 19.4202L11.2428 19.4202L11.3279 19.4728ZM13.5725 17.8077L13.6435 17.8781L13.901 17.6179L13.547 17.711L13.5725 17.8077ZM11.864 19.5343L11.9351 19.6046L11.9351 19.6046L11.864 19.5343ZM19.2615 26.2901L19.203 26.209L19.2029 26.209L19.2615 26.2901ZM20.4038 25.4655L20.4623 25.5466L20.4623 25.5465L20.4038 25.4655ZM20.2825 21.4934L20.2291 21.578L20.2291 21.578L20.2825 21.4934ZM19.2917 20.8675L19.2383 20.9521H19.2383L19.2917 20.8675ZM17.6443 18.5989L17.7153 18.5285L17.4551 18.2655L17.5474 18.6238L17.6443 18.5989ZM19.3527 20.3255L19.2816 20.3959L19.3527 20.3255ZM26.0373 12.8494L26.119 12.7917L26.0373 12.8494ZM25.2214 11.6949L25.3031 11.6372L25.3031 11.6372L25.2214 11.6949ZM21.2911 11.8175L21.3761 11.8701L21.3761 11.8701L21.2911 11.8175ZM20.6716 12.8187L20.5866 12.7661L20.5866 12.7662L20.6716 12.8187ZM18.4271 14.484L18.356 14.4137L18.0982 14.6742L18.4526 14.5807L18.4271 14.484ZM20.1357 12.7572L20.0646 12.6868L20.0646 12.6869L20.1357 12.7572ZM10.3889 18.8797L10.474 18.9323L10.474 18.9323L10.3889 18.8797ZM9.76962 19.8809L9.68457 19.8283L9.68457 19.8283L9.76962 19.8809ZM7.67938 19.946L7.59772 20.0037L7.59774 20.0037L7.67938 19.946ZM6.86336 18.7915L6.7817 18.8492L6.7817 18.8492L6.86336 18.7915ZM11.8639 12.7572L11.7928 12.8275L11.7928 12.8275L11.8639 12.7572ZM13.7181 14.631L13.8018 14.6856L13.8459 14.618L13.7892 14.5607L13.7181 14.631ZM13.3272 16.7165L13.3519 16.8134L13.4446 16.7897L13.4251 16.6961L13.3272 16.7165ZM18.7049 21.8166L18.7583 21.7321L18.7583 21.732L18.7049 21.8166ZM19.6959 22.4426L19.6425 22.5272L19.6425 22.5272L19.6959 22.4426ZM19.7602 24.555L19.8188 24.6361L19.8188 24.6361L19.7602 24.555ZM18.6179 25.3796L18.5594 25.2985L18.5594 25.2985L18.6179 25.3796ZM12.6471 20.3258L12.576 20.2555L12.576 20.2555L12.6471 20.3258ZM14.5013 18.452L14.5567 18.3688L14.4882 18.3231L14.4302 18.3817L14.5013 18.452ZM16.5647 18.8471L16.6617 18.8228L16.6382 18.7291L16.5438 18.7493L16.5647 18.8471ZM21.6109 13.4121L21.5258 13.3595L21.5258 13.3595L21.6109 13.4121ZM22.2302 12.4108L22.3152 12.4634L22.3152 12.4634L22.2302 12.4108ZM24.3205 12.3457L24.4022 12.288L24.4022 12.288L24.3205 12.3457ZM25.1364 13.5002L25.2181 13.4425H25.2181L25.1364 13.5002ZM20.1359 19.5345L20.207 19.4642L20.1359 19.5345ZM18.2818 17.6607L18.1981 17.6061L18.154 17.6737L18.2108 17.731L18.2818 17.6607ZM18.673 15.5765L18.6482 15.4796L18.5556 15.5033L18.5751 15.5969L18.673 15.5765ZM17.4986 13.8399L17.4432 13.9231L17.5118 13.9688L17.5697 13.9102L17.4986 13.8399ZM15.4353 13.4448L15.3383 13.4691L15.3617 13.5627L15.4561 13.5426L15.4353 13.4448ZM13.2949 10.4751L13.2415 10.5597L13.2415 10.5597L13.2949 10.4751ZM12.3039 9.84908L12.3573 9.76454L12.3573 9.76453L12.3039 9.84908ZM12.2397 7.73672L12.1812 7.65564L12.1811 7.65566L12.2397 7.73672ZM13.3818 6.91215L13.3233 6.83107L13.3233 6.83107L13.3818 6.91215ZM19.3527 11.9659L19.2816 11.8956L19.2816 11.8956L19.3527 11.9659ZM23.2803 4.41683L23.2297 4.50341L23.2365 4.50675L23.2803 4.41683ZM20.5173 3.07247L20.4735 3.16258L20.4795 3.16502L20.5173 3.07247ZM29.8143 16.1459C29.8143 11.3708 27.4379 6.97675 23.4572 4.39253L23.3483 4.56028C27.2717 7.10734 29.6143 11.438 29.6143 16.1459H29.8143ZM22.7497 5.50181C26.3545 7.8421 28.5069 11.8208 28.5069 16.1459H28.7069C28.7069 11.7536 26.5207 7.71151 22.8586 5.33407L22.7497 5.50181ZM28.5069 16.1459C28.5069 23.1172 22.8954 28.787 16.0001 28.787V28.987C23.0078 28.987 28.7069 23.2257 28.7069 16.1459H28.5069ZM16.0001 28.787C9.10487 28.787 3.49325 23.1172 3.49325 16.1459H3.29325C3.29325 23.2257 8.99243 28.987 16.0001 28.987V28.787ZM3.49325 16.1459C3.49325 9.17464 9.10487 3.50491 16 3.50491V3.30491C8.99243 3.30491 3.29325 9.06618 3.29325 16.1459H3.49325ZM16 3.50491C17.3721 3.50491 18.7204 3.72781 20.0071 4.16729L20.0717 3.97802C18.764 3.53137 17.3939 3.30491 16 3.30491V3.50491ZM20.4264 2.91786C19.0041 2.43204 17.5148 2.18571 16 2.18571V2.38571C17.4929 2.38571 18.9604 2.62847 20.3617 3.10712L20.4264 2.91786ZM16 2.18571C8.38169 2.18571 2.18571 8.44908 2.18571 16.1459H2.38571C2.38571 8.55754 8.49414 2.38571 16 2.38571V2.18571ZM2.18571 16.1459C2.18571 23.3674 7.6399 29.3266 14.6056 30.0354L14.6259 29.8365C7.7628 29.1381 2.38571 23.2654 2.38571 16.1459H2.18571ZM17.3944 30.0354C24.3602 29.3266 29.8143 23.3674 29.8143 16.1459H29.6143C29.6143 23.2654 24.2373 29.1381 17.3741 29.8365L17.3944 30.0354ZM15.7212 30.1026C15.8133 30.1045 15.9063 30.1062 16 30.1062V29.9062C15.9085 29.9062 15.8173 29.9045 15.7251 29.9027L15.7212 30.1026ZM16 30.1062C16.0937 30.1062 16.1866 30.1045 16.2788 30.1026L16.2749 29.9027C16.1827 29.9045 16.0915 29.9062 16 29.9062V30.1062ZM14.6097 30.0358L15.7171 30.1025L15.7292 29.9028L14.6217 29.8361L14.6097 30.0358ZM16.2829 30.1025L17.3903 30.0358L17.3782 29.8361L16.2708 29.9028L16.2829 30.1025ZM21.4942 9.68666C21.4942 6.95082 19.2917 4.72329 16.5821 4.72329V4.92329C19.1792 4.92329 21.2942 7.05927 21.2942 9.68666H21.4942ZM16.5821 4.72329H16.3759V4.92329H16.5821V4.72329ZM16.3759 4.72329C15.0426 4.72329 13.7644 5.13735 12.6796 5.92046L12.7967 6.08262C13.8475 5.32401 15.0848 4.92329 16.3759 4.92329V4.72329ZM12.6796 5.92046L11.5375 6.74503L11.6545 6.90719L12.7967 6.08261L12.6796 5.92046ZM11.5375 6.74504C10.8911 7.21181 10.5056 7.96914 10.5056 8.77129H10.7056C10.7056 8.03285 11.0606 7.33605 11.6546 6.90718L11.5375 6.74504ZM10.5056 8.77129C10.5056 9.63502 10.9384 10.4248 11.6637 10.8827L11.7705 10.7136C11.1038 10.2927 10.7056 9.56705 10.7056 8.77129H10.5056ZM11.6637 10.8827L12.6546 11.5086L12.7614 11.3395L11.7705 10.7136L11.6637 10.8827ZM12.6546 11.5086C13.4522 12.0126 14.0235 12.8053 14.2586 13.7175L14.4522 13.6676C14.2047 12.7068 13.6027 11.8711 12.7614 11.3395L12.6546 11.5086ZM14.4265 13.6222L12.718 11.8957L12.5759 12.0364L14.2843 13.7629L14.4265 13.6222ZM12.718 11.8957C11.8878 11.0566 10.7832 10.5939 9.60877 10.5939V10.7939C10.7294 10.7939 11.7829 11.235 12.5759 12.0364L12.718 11.8957ZM9.60877 10.5939C6.89919 10.5939 4.69666 12.8215 4.69666 15.5573H4.89666C4.89666 12.9299 7.01164 10.7939 9.60877 10.7939V10.5939ZM4.69666 15.5573V15.7659H4.89666V15.5573H4.69666ZM4.69666 15.7659C4.69666 17.1126 5.10612 18.4039 5.88068 19.4999L6.04401 19.3845C5.2934 18.3224 4.89666 17.0714 4.89666 15.7659H4.69666ZM5.88069 19.4999L6.69671 20.6542L6.86003 20.5388L6.044 19.3845L5.88069 19.4999ZM6.69669 20.6542C7.1581 21.3074 7.90785 21.6977 8.70291 21.6977V21.4977C7.97334 21.4977 7.28429 21.1394 6.86005 20.5388L6.69669 20.6542ZM8.70291 21.6977C9.55875 21.6977 10.3405 21.2595 10.7936 20.5267L10.6235 20.4215C10.2065 21.0959 9.4888 21.4977 8.70291 21.4977V21.6977ZM10.7936 20.5267L11.4129 19.5254L11.2428 19.4202L10.6235 20.4215L10.7936 20.5267ZM11.4129 19.5254C11.9118 18.719 12.6961 18.1418 13.5979 17.9045L13.547 17.711C12.5956 17.9614 11.7686 18.5703 11.2428 19.4202L11.4129 19.5254ZM13.5014 17.7374L11.7929 19.4639L11.9351 19.6046L13.6435 17.8781L13.5014 17.7374ZM11.7929 19.4639C10.9627 20.3028 10.5054 21.4187 10.5054 22.6049H10.7054C10.7054 21.4711 11.1421 20.4059 11.9351 19.6046L11.7929 19.4639ZM10.5054 22.6049C10.5054 25.3408 12.708 27.5683 15.4175 27.5683V27.3683C12.8204 27.3683 10.7054 25.2323 10.7054 22.6049H10.5054ZM15.4175 27.5683H15.6239V27.3683H15.4175V27.5683ZM15.6239 27.5683C16.9572 27.5683 18.2355 27.1542 19.32 26.3711L19.2029 26.209C18.1524 26.9676 16.915 27.3683 15.6239 27.3683V27.5683ZM19.32 26.3711L20.4623 25.5466L20.3453 25.3844L19.203 26.209L19.32 26.3711ZM20.4623 25.5465C21.1086 25.0798 21.4941 24.3223 21.4941 23.5203H21.2941C21.2941 24.2586 20.939 24.9555 20.3452 25.3844L20.4623 25.5465ZM21.4941 23.5203C21.4941 22.6566 21.0612 21.8668 20.3359 21.4089L20.2291 21.578C20.8958 21.9989 21.2941 22.7245 21.2941 23.5203H21.4941ZM20.3359 21.4089L19.3451 20.783L19.2383 20.9521L20.2291 21.578L20.3359 21.4089ZM19.3451 20.783C18.5473 20.279 17.9761 19.4861 17.7411 18.5739L17.5474 18.6238C17.795 19.5846 18.3968 20.4205 19.2383 20.9521L19.3451 20.783ZM17.5732 18.6692L19.2816 20.3959L19.4238 20.2552L17.7153 18.5285L17.5732 18.6692ZM19.2816 20.3959C20.1119 21.235 21.2165 21.6977 22.391 21.6977V21.4977C21.2702 21.4977 20.2167 21.0566 19.4238 20.2552L19.2816 20.3959ZM22.391 21.6977C25.1006 21.6977 27.303 19.4701 27.303 16.7343H27.103C27.103 19.3617 24.9881 21.4977 22.391 21.4977V21.6977ZM27.303 16.7343V16.5257H27.103V16.7343H27.303ZM27.303 16.5257C27.303 15.179 26.8935 13.8877 26.119 12.7917L25.9556 12.9071C26.7063 13.9692 27.103 15.2202 27.103 16.5257H27.303ZM26.119 12.7917L25.3031 11.6372L25.1398 11.7526L25.9556 12.9071L26.119 12.7917ZM25.3031 11.6372C24.8414 10.9842 24.0917 10.5939 23.2967 10.5939V10.7939C24.0262 10.7939 24.7152 11.1522 25.1398 11.7527L25.3031 11.6372ZM23.2967 10.5939C22.4409 10.5939 21.6592 11.0321 21.206 11.7649L21.3761 11.8701C21.7932 11.1957 22.5109 10.7939 23.2967 10.7939V10.5939ZM21.2061 11.7649L20.5866 12.7661L20.7567 12.8714L21.3761 11.8701L21.2061 11.7649ZM20.5866 12.7662C20.0905 13.5685 19.3027 14.1496 18.4016 14.3873L18.4526 14.5807C19.4033 14.3299 20.2337 13.7173 20.7567 12.8713L20.5866 12.7662ZM18.4981 14.5543L20.2067 12.8275L20.0646 12.6869L18.356 14.4137L18.4981 14.5543ZM20.2067 12.8275C21.0371 11.9887 21.4942 10.8729 21.4942 9.68666H21.2942C21.2942 10.8205 20.8577 11.8857 20.0646 12.6868L20.2067 12.8275ZM17.5246 16.1459C17.5246 16.9971 16.8396 17.6877 16 17.6877V17.8877C16.952 17.8877 17.7246 17.1055 17.7246 16.1459H17.5246ZM16 17.6877C15.1605 17.6877 14.4755 16.9969 14.4755 16.1459H14.2755C14.2755 17.1054 15.0481 17.8877 16 17.8877V17.6877ZM14.4755 16.1459C14.4755 15.2948 15.1604 14.604 15.9999 14.604V14.404C15.0479 14.404 14.2755 15.1864 14.2755 16.1459H14.4755ZM15.9999 14.604C16.8394 14.604 17.5246 15.2947 17.5246 16.1459H17.7246C17.7246 15.1862 16.9519 14.404 15.9999 14.404V14.604ZM10.3039 18.8271L9.68457 19.8283L9.85466 19.9335L10.474 18.9323L10.3039 18.8271ZM9.68457 19.8283C9.47118 20.1734 9.1044 20.3784 8.70291 20.3784V20.5784C9.17433 20.5784 9.60516 20.337 9.85467 19.9335L9.68457 19.8283ZM8.70291 20.3784C8.33037 20.3784 7.97821 20.1954 7.76103 19.8882L7.59774 20.0037C7.85204 20.3634 8.26482 20.5784 8.70291 20.5784V20.3784ZM7.76104 19.8883L6.94502 18.7338L6.7817 18.8492L7.59772 20.0037L7.76104 19.8883ZM6.94503 18.7338C6.32938 17.8627 6.00393 16.8367 6.00393 15.7658H5.80393C5.80393 16.8779 6.1421 17.9442 6.7817 18.8492L6.94503 18.7338ZM6.00393 15.7658V15.5572H5.80393V15.7658H6.00393ZM6.00393 15.5572C6.00393 13.5469 7.6221 11.913 9.60863 11.913V11.713C7.50965 11.713 5.80393 13.4384 5.80393 15.5572H6.00393ZM9.60863 11.913C10.4335 11.913 11.2089 12.2374 11.7928 12.8275L11.9349 12.6869C11.3137 12.059 10.4872 11.713 9.60863 11.713V11.913ZM11.7928 12.8275L13.647 14.7014L13.7892 14.5607L11.9349 12.6869L11.7928 12.8275ZM13.6343 14.5764C13.3402 15.0274 13.1678 15.5663 13.1678 16.1457H13.3678C13.3678 15.6065 13.5281 15.1054 13.8018 14.6856L13.6343 14.5764ZM13.1678 16.1457C13.1678 16.3486 13.1895 16.5461 13.2293 16.7369L13.4251 16.6961C13.3879 16.5181 13.3678 16.3343 13.3678 16.1457H13.1678ZM13.3024 16.6196C12.0642 16.9362 10.9865 17.7232 10.3039 18.8271L10.474 18.9323C11.1294 17.8724 12.1638 17.1172 13.3519 16.8134L13.3024 16.6196ZM18.6515 21.9011L19.6425 22.5272L19.7493 22.3581L18.7583 21.7321L18.6515 21.9011ZM19.6425 22.5272C19.9832 22.7423 20.187 23.1133 20.187 23.5204H20.387C20.387 23.0453 20.1486 22.6102 19.7493 22.3581L19.6425 22.5272ZM20.187 23.5204C20.187 23.8982 20.0052 24.2546 19.7017 24.474L19.8188 24.6361C20.1747 24.3789 20.387 23.9619 20.387 23.5204H20.187ZM19.7017 24.4739L18.5594 25.2985L18.6765 25.4607L19.8188 24.6361L19.7017 24.4739ZM18.5594 25.2985C17.6977 25.9207 16.683 26.2494 15.6241 26.2494V26.4494C16.7252 26.4494 17.7808 26.1074 18.6765 25.4607L18.5594 25.2985ZM15.6241 26.2494H15.4177V26.4494H15.6241V26.2494ZM15.4177 26.2494C13.4311 26.2494 11.813 24.6155 11.813 22.6052H11.613C11.613 24.724 13.3187 26.4494 15.4177 26.4494V26.2494ZM11.813 22.6052C11.813 21.7704 12.1344 20.9862 12.7182 20.3961L12.576 20.2555C11.9549 20.8832 11.613 21.7181 11.613 22.6052H11.813ZM12.7182 20.3962L14.5724 18.5223L14.4302 18.3817L12.576 20.2555L12.7182 20.3962ZM14.4459 18.5352C14.8923 18.8326 15.4261 19.0071 16 19.0071V18.8071C15.4674 18.8071 14.9718 18.6453 14.5567 18.3688L14.4459 18.5352ZM16 19.0071C16.201 19.0071 16.3967 18.9852 16.5855 18.9449L16.5438 18.7493C16.3681 18.7868 16.1864 18.8071 16 18.8071V19.0071ZM16.4677 18.8713C16.7806 20.122 17.5588 21.2111 18.6515 21.9011L18.7583 21.732C17.7098 21.0699 16.9623 20.0243 16.6617 18.8228L16.4677 18.8713ZM21.6959 13.4647L22.3152 12.4634L22.1451 12.3582L21.5258 13.3595L21.6959 13.4647ZM22.3152 12.4634C22.5286 12.1184 22.8954 11.9133 23.2969 11.9133V11.7133C22.8255 11.7133 22.3946 11.9548 22.1451 12.3582L22.3152 12.4634ZM23.2969 11.9133C23.6694 11.9133 24.0217 12.0964 24.2389 12.4035L24.4022 12.288C24.1479 11.9284 23.735 11.7133 23.2969 11.7133V11.9133ZM24.2389 12.4035L25.0548 13.5579L25.2181 13.4425L24.4022 12.288L24.2389 12.4035ZM25.0548 13.5579C25.6704 14.4291 25.9959 15.4551 25.9959 16.526H26.1959C26.1959 15.4139 25.8577 14.3475 25.2181 13.4425L25.0548 13.5579ZM25.9959 16.526V16.7346H26.1959V16.526H25.9959ZM25.9959 16.7346C25.9959 18.7449 24.3778 20.3787 22.3913 20.3787V20.5787C24.4903 20.5787 26.1959 18.8533 26.1959 16.7346H25.9959ZM22.3913 20.3787C21.5663 20.3787 20.7909 20.0543 20.207 19.4642L20.0648 19.6049C20.6861 20.2327 21.5126 20.5787 22.3913 20.5787V20.3787ZM20.207 19.4642L18.3529 17.5904L18.2108 17.731L20.0648 19.6049L20.207 19.4642ZM18.3656 17.7153C18.6597 17.2643 18.8321 16.7255 18.8321 16.146H18.6322C18.6322 16.6852 18.4718 17.1863 18.1981 17.6061L18.3656 17.7153ZM18.8321 16.146C18.8321 15.9436 18.8106 15.7463 18.7709 15.5561L18.5751 15.5969C18.6121 15.7743 18.6322 15.9578 18.6322 16.146H18.8321ZM18.6979 15.6733C19.9349 15.3562 21.0168 14.5631 21.6959 13.4647L21.5258 13.3595C20.8738 14.4141 19.835 15.1753 18.6482 15.4796L18.6979 15.6733ZM17.5541 13.7567C17.1078 13.4593 16.5739 13.2848 15.9999 13.2848V13.4848C16.5327 13.4848 17.0282 13.6466 17.4432 13.9231L17.5541 13.7567ZM15.9999 13.2848C15.7989 13.2848 15.6033 13.3067 15.4144 13.347L15.4561 13.5426C15.6319 13.5051 15.8135 13.4848 15.9999 13.4848V13.2848ZM15.5323 13.4205C15.2192 12.1697 14.4409 11.0807 13.3483 10.3906L13.2415 10.5597C14.2899 11.2219 15.0375 12.2674 15.3383 13.4691L15.5323 13.4205ZM13.3483 10.3906L12.3573 9.76454L12.2505 9.93362L13.2415 10.5597L13.3483 10.3906ZM12.3573 9.76453C12.0166 9.54939 11.8128 9.17841 11.8128 8.77129H11.6128C11.6128 9.24638 11.8512 9.68151 12.2505 9.93364L12.3573 9.76453ZM11.8128 8.77129C11.8128 8.39353 11.9946 8.0371 12.2982 7.81779L12.1811 7.65566C11.825 7.91285 11.6128 8.32979 11.6128 8.77129H11.8128ZM12.2982 7.8178L13.4404 6.99323L13.3233 6.83107L12.1812 7.65564L12.2982 7.8178ZM13.4404 6.99323C14.3023 6.37103 15.317 6.04236 16.3759 6.04236V5.84236C15.2748 5.84236 14.2191 6.18437 13.3233 6.83107L13.4404 6.99323ZM16.3759 6.04236H16.5821V5.84236H16.3759V6.04236ZM16.5821 6.04236C18.5686 6.04236 20.1868 7.67623 20.1868 9.68652H20.3868C20.3868 7.56778 18.6811 5.84236 16.5821 5.84236V6.04236ZM20.1868 9.68652C20.1868 10.5213 19.8654 11.3056 19.2816 11.8956L19.4238 12.0363C20.0449 11.4086 20.3868 10.5736 20.3868 9.68652H20.1868ZM19.2816 11.8956L17.4275 13.7696L17.5697 13.9102L19.4238 12.0362L19.2816 11.8956ZM20.003 4.16579C21.1556 4.61633 21.756 4.90843 22.7529 5.50379L22.8555 5.33209C21.8485 4.73069 21.238 4.43382 20.0758 3.97952L20.003 4.16579ZM23.3308 4.33051C22.3486 3.75618 21.7327 3.46184 20.5552 2.97993L20.4795 3.16502C21.6502 3.64415 22.2574 3.93449 23.2298 4.50315L23.3308 4.33051ZM23.4465 4.38649L23.324 4.32691L23.2365 4.50675L23.359 4.56633L23.4465 4.38649ZM20.5611 2.98255L20.4378 2.92257L20.3503 3.10241L20.4736 3.1624L20.5611 2.98255Z" fill="white" mask="url(#path-1-inside-1)"/>
</g>
<defs>
<clipPath id="clip0">
<rect width="32" height="32" fill="white"/>
</clipPath>
</defs>
</svg>
