<svg width="37" height="32" viewBox="0 0 37 32" fill="none" xmlns="http://www.w3.org/2000/svg">
<path fill-rule="evenodd" clip-rule="evenodd" d="M29.4949 30.8966V32H3.89638V30.8966V26.4532V25.3793V15.1724L1.89302 13.6828C1.82344 13.631 1.76706 13.5638 1.72841 13.4866C1.68975 13.4093 1.6699 13.3242 1.67044 13.238C1.67098 13.1517 1.6919 13.0668 1.73152 12.9901C1.77114 12.9133 1.82836 12.8468 1.89858 12.7959L16.3673 2.31317C16.4626 2.24413 16.5776 2.20691 16.6957 2.20691C16.8137 2.20691 16.9287 2.24413 17.024 2.31317L21.1476 5.30076L22.2079 6.06897L25.5995 8.52621L26.7125 9.33255L31.4927 12.7959C31.5629 12.8468 31.6202 12.9133 31.6598 12.9901C31.6994 13.0668 31.7203 13.1517 31.7209 13.238C31.7214 13.3242 31.7015 13.4093 31.6629 13.4866C31.6242 13.5638 31.5679 13.631 31.4983 13.6828L29.4949 15.1724V25.3793V26.4828V30.8966ZM30.2291 13.2472L16.6957 3.44193L3.16216 13.2472L5.00936 14.5517V15.1724V15.1775V30.8966H17.2521H18.3651H25.043H26.156H28.3819V15.1775V14.6413L28.9334 14.2107L30.2291 13.2472Z" fill="#434343"/>
<path d="M15.4784 16.087C15.4784 16.2484 15.5425 16.4032 15.6567 16.5174C15.7708 16.6315 15.9256 16.6957 16.0871 16.6957C16.2485 16.6957 16.4033 16.6315 16.5175 16.5174C16.6316 16.4032 16.6958 16.2484 16.6958 16.087C16.6958 15.9512 16.718 15.9142 16.7916 15.7914C16.9719 15.5181 17.0658 15.1969 17.061 14.8696C17.0658 14.5422 16.9719 14.221 16.7916 13.9477C16.7255 13.8638 16.6915 13.759 16.6958 13.6522C16.6915 13.5454 16.7255 13.4406 16.7916 13.3567C16.9719 13.0834 17.0658 12.7622 17.061 12.4348C17.061 12.2734 16.9969 12.1185 16.8827 12.0044C16.7686 11.8902 16.6137 11.8261 16.4523 11.8261C16.2909 11.8261 16.136 11.8902 16.0219 12.0044C15.9077 12.1185 15.8436 12.2734 15.8436 12.4348C15.8436 12.5705 15.8214 12.6075 15.7477 12.7303C15.5674 13.0036 15.4736 13.3248 15.4784 13.6522C15.4736 13.9796 15.5675 14.3008 15.7477 14.5741C15.81 14.66 15.8436 14.7635 15.8436 14.8696C15.8436 14.9758 15.81 15.0792 15.7477 15.1652C15.5674 15.4384 15.4736 15.7596 15.4784 16.087Z" fill="#434343"/>
<path d="M10.6088 16.087C10.6088 16.2484 10.6729 16.4032 10.7871 16.5174C10.9012 16.6315 11.0561 16.6957 11.2175 16.6957C11.3789 16.6957 11.5338 16.6315 11.6479 16.5174C11.7621 16.4032 11.8262 16.2484 11.8262 16.087C11.8262 15.9512 11.8484 15.9142 11.9221 15.7914C12.1023 15.5181 12.1962 15.1969 12.1914 14.8696C12.1962 14.5422 12.1023 14.221 11.9221 13.9477C11.8559 13.8638 11.8219 13.759 11.8262 13.6522C11.8219 13.5454 11.8559 13.4406 11.9221 13.3567C12.1024 13.0834 12.1962 12.7622 12.1914 12.4348C12.1914 12.2734 12.1273 12.1185 12.0131 12.0044C11.899 11.8902 11.7441 11.8261 11.5827 11.8261C11.4213 11.8261 11.2665 11.8902 11.1523 12.0044C11.0381 12.1185 10.974 12.2734 10.974 12.4348C10.974 12.5705 10.9518 12.6075 10.8781 12.7303C10.6978 13.0036 10.604 13.3248 10.6088 13.6522C10.604 13.9796 10.6979 14.3008 10.8781 14.5741C10.9405 14.66 10.974 14.7635 10.974 14.8696C10.974 14.9758 10.9405 15.0792 10.8781 15.1652C10.6979 15.4384 10.604 15.7596 10.6088 16.087Z" fill="#434343"/>
<path d="M20.3479 16.087C20.3479 16.2484 20.4121 16.4032 20.5262 16.5174C20.6404 16.6315 20.7952 16.6957 20.9566 16.6957C21.1181 16.6957 21.2729 16.6315 21.3871 16.5174C21.5012 16.4032 21.5653 16.2484 21.5653 16.087C21.5653 15.9512 21.5876 15.9142 21.6612 15.7914C21.8415 15.5181 21.9353 15.1969 21.9306 14.8696C21.9353 14.5422 21.8415 14.221 21.6612 13.9477C21.595 13.8638 21.561 13.759 21.5653 13.6522C21.561 13.5454 21.595 13.4406 21.6612 13.3567C21.8415 13.0834 21.9354 12.7622 21.9306 12.4348C21.9306 12.2734 21.8664 12.1185 21.7523 12.0044C21.6381 11.8902 21.4833 11.8261 21.3219 11.8261C21.1604 11.8261 21.0056 11.8902 20.8914 12.0044C20.7773 12.1185 20.7132 12.2734 20.7132 12.4348C20.7132 12.5705 20.6909 12.6075 20.6173 12.7303C20.437 13.0036 20.3431 13.3248 20.3479 13.6522C20.3432 13.9796 20.437 14.3008 20.6173 14.5741C20.6796 14.66 20.7132 14.7635 20.7132 14.8696C20.7132 14.9758 20.6796 15.0792 20.6173 15.1652C20.437 15.4384 20.3432 15.7596 20.3479 16.087Z" fill="#434343"/>
<path d="M31.913 22.7828C31.7515 22.7828 31.5967 22.8469 31.4826 22.9611C31.3684 23.0752 31.3043 23.2301 31.3043 23.3915C31.3043 23.5529 31.3684 23.7078 31.4826 23.8219C31.5967 23.9361 31.7515 24.0002 31.913 24.0002C32.0488 24.0002 32.0858 24.0224 32.2086 24.0961C32.4818 24.2763 32.803 24.3702 33.1304 24.3654C33.4577 24.3702 33.7789 24.2763 34.0522 24.0961C34.1362 24.0299 34.241 23.9959 34.3478 24.0002C34.4545 23.9959 34.5594 24.0299 34.6433 24.0961C34.9166 24.2764 35.2378 24.3702 35.5651 24.3654C35.7266 24.3654 35.8814 24.3013 35.9956 24.1871C36.1097 24.073 36.1738 23.9182 36.1738 23.7567C36.1738 23.5953 36.1097 23.4405 35.9956 23.3263C35.8814 23.2122 35.7266 23.148 35.5651 23.148C35.4294 23.148 35.3924 23.1258 35.2697 23.0521C34.9964 22.8718 34.6751 22.778 34.3478 22.7828C34.0204 22.778 33.6992 22.8719 33.4259 23.0521C33.3399 23.1145 33.2365 23.148 33.1303 23.148C33.0242 23.148 32.9207 23.1145 32.8348 23.0521C32.5615 22.8719 32.2403 22.778 31.913 22.7828Z" fill="#434343"/>
<path d="M31.913 17.9132C31.7515 17.9132 31.5967 17.9774 31.4826 18.0915C31.3684 18.2057 31.3043 18.3605 31.3043 18.5219C31.3043 18.6834 31.3684 18.8382 31.4826 18.9523C31.5967 19.0665 31.7515 19.1306 31.913 19.1306C32.0488 19.1306 32.0858 19.1528 32.2086 19.2265C32.4818 19.4068 32.803 19.5006 33.1304 19.4958C33.4577 19.5006 33.7789 19.4068 34.0522 19.2265C34.1362 19.1603 34.241 19.1263 34.3478 19.1306C34.4545 19.1263 34.5594 19.1603 34.6433 19.2265C34.9166 19.4068 35.2378 19.5006 35.5651 19.4958C35.7266 19.4958 35.8814 19.4317 35.9956 19.3176C36.1097 19.2034 36.1738 19.0486 36.1738 18.8871C36.1738 18.7257 36.1097 18.5709 35.9956 18.4567C35.8814 18.3426 35.7266 18.2784 35.5651 18.2784C35.4294 18.2784 35.3924 18.2562 35.2697 18.1826C34.9964 18.0023 34.6751 17.9084 34.3478 17.9132C34.0204 17.9085 33.6992 18.0023 33.4259 18.1826C33.3399 18.2449 33.2365 18.2784 33.1303 18.2784C33.0242 18.2784 32.9207 18.2449 32.8348 18.1826C32.5615 18.0023 32.2403 17.9085 31.913 17.9132Z" fill="#434343"/>
<path d="M31.913 27.6524C31.7515 27.6524 31.5967 27.7165 31.4826 27.8307C31.3684 27.9448 31.3043 28.0996 31.3043 28.2611C31.3043 28.4225 31.3684 28.5773 31.4826 28.6915C31.5967 28.8056 31.7515 28.8698 31.913 28.8698C32.0488 28.8698 32.0858 28.892 32.2086 28.9656C32.4818 29.1459 32.803 29.2398 33.1304 29.235C33.4577 29.2398 33.7789 29.1459 34.0522 28.9656C34.1362 28.8995 34.241 28.8655 34.3478 28.8698C34.4545 28.8655 34.5594 28.8995 34.6433 28.9656C34.9166 29.1459 35.2378 29.2398 35.5651 29.235C35.7266 29.235 35.8814 29.1709 35.9956 29.0567C36.1097 28.9426 36.1738 28.7877 36.1738 28.6263C36.1738 28.4649 36.1097 28.31 35.9956 28.1959C35.8814 28.0817 35.7266 28.0176 35.5651 28.0176C35.4294 28.0176 35.3924 27.9954 35.2697 27.9217C34.9964 27.7414 34.6751 27.6476 34.3478 27.6524C34.0204 27.6476 33.6992 27.7415 33.4259 27.9217C33.3399 27.984 33.2365 28.0176 33.1303 28.0176C33.0242 28.0176 32.9207 27.984 32.8348 27.9217C32.5615 27.7414 32.2403 27.6476 31.913 27.6524Z" fill="#434343"/>
<path d="M24.3478 23.7391L28.913 20.0491L28.913 27.4292L24.3478 23.7391Z" fill="#434343"/>
<path d="M16.4004 18.8121C17.2613 18.8121 18.1236 19.0581 18.8941 19.5234C19.3828 19.8193 19.8219 20.1911 20.1949 20.6254L18.9078 20.5826C18.7566 20.5776 18.63 20.6969 18.6251 20.8491C18.6201 21.0012 18.7386 21.1287 18.8898 21.1336L20.6707 21.1928C20.773 21.2351 20.8906 21.2114 20.9688 21.1326C21.047 21.0538 21.0703 20.9355 21.028 20.8325L20.9694 19.0408C20.966 18.8886 20.8406 18.768 20.6893 18.7714C20.5382 18.7749 20.4181 18.901 20.4216 19.0532C20.4216 19.0552 20.4216 19.0571 20.4217 19.0591L20.4556 20.0928C20.0788 19.6876 19.6482 19.3367 19.176 19.0505C18.3204 18.5339 17.3606 18.2609 16.4004 18.2609C14.8665 18.2609 13.4522 18.8973 12.4187 20.053C11.5032 21.0767 10.9565 22.4547 10.9565 23.7391C10.9565 23.8913 11.0791 24.0147 11.2304 24.0147C11.3818 24.0147 11.5044 23.8913 11.5044 23.7391C11.5044 22.5872 11.9983 21.347 12.8259 20.4218C13.7543 19.3839 15.0236 18.8121 16.4004 18.8121Z" fill="black"/>
<path d="M21.6391 23.4634C21.4878 23.4634 21.3652 23.5868 21.3652 23.7391C21.3652 24.8909 20.8712 26.1311 20.0437 27.0564C19.1153 28.0943 17.846 28.6659 16.4692 28.6659C15.6083 28.6659 14.746 28.4202 13.9755 27.9549C13.4868 27.6589 13.0477 27.287 12.6747 26.8529L13.9618 26.8956C14.113 26.9005 14.2396 26.7812 14.2445 26.6291C14.2495 26.477 14.131 26.3496 13.9798 26.3445L12.1989 26.2854C12.0966 26.243 11.979 26.2668 11.9008 26.3455C11.8226 26.4244 11.7993 26.5426 11.8415 26.6456L11.9002 28.4372C11.9036 28.5895 12.029 28.7102 12.1803 28.7068C12.3314 28.7034 12.4514 28.5772 12.448 28.425C12.448 28.423 12.448 28.4211 12.4478 28.4191L12.4139 27.3854C12.7907 27.7907 13.2214 28.1413 13.6936 28.4278C14.5492 28.9444 15.509 29.2174 16.4692 29.2174C18.0031 29.2174 19.4174 28.581 20.4509 27.4254C21.3664 26.4015 21.913 25.0236 21.913 23.7391C21.913 23.5868 21.7905 23.4634 21.6391 23.4634Z" fill="black"/>
<path d="M16.4004 18.8121C17.2613 18.8121 18.1236 19.0581 18.8941 19.5234C19.3828 19.8193 19.8219 20.1911 20.1949 20.6254L18.9078 20.5826C18.7566 20.5776 18.63 20.6969 18.6251 20.8491C18.6201 21.0012 18.7386 21.1287 18.8898 21.1336L20.6707 21.1928C20.773 21.2351 20.8906 21.2114 20.9688 21.1326C21.047 21.0538 21.0703 20.9355 21.028 20.8325L20.9694 19.0408C20.966 18.8886 20.8406 18.768 20.6893 18.7714C20.5382 18.7749 20.4181 18.901 20.4216 19.0532C20.4216 19.0552 20.4216 19.0571 20.4217 19.0591L20.4556 20.0928C20.0788 19.6876 19.6482 19.3367 19.176 19.0505C18.3204 18.5339 17.3606 18.2609 16.4004 18.2609C14.8665 18.2609 13.4522 18.8973 12.4187 20.053C11.5032 21.0767 10.9565 22.4547 10.9565 23.7391C10.9565 23.8913 11.0791 24.0147 11.2304 24.0147C11.3818 24.0147 11.5044 23.8913 11.5044 23.7391C11.5044 22.5872 11.9983 21.347 12.8259 20.4218C13.7543 19.3839 15.0236 18.8121 16.4004 18.8121Z" stroke="#434343" stroke-width="0.5"/>
<path d="M21.6391 23.4634C21.4878 23.4634 21.3652 23.5868 21.3652 23.7391C21.3652 24.8909 20.8712 26.1311 20.0437 27.0564C19.1153 28.0943 17.846 28.6659 16.4692 28.6659C15.6083 28.6659 14.746 28.4202 13.9755 27.9549C13.4868 27.6589 13.0477 27.287 12.6747 26.8529L13.9618 26.8956C14.113 26.9005 14.2396 26.7812 14.2445 26.6291C14.2495 26.477 14.131 26.3496 13.9798 26.3445L12.1989 26.2854C12.0966 26.243 11.979 26.2668 11.9008 26.3455C11.8226 26.4244 11.7993 26.5426 11.8415 26.6456L11.9002 28.4372C11.9036 28.5895 12.029 28.7102 12.1803 28.7068C12.3314 28.7034 12.4514 28.5772 12.448 28.425C12.448 28.423 12.448 28.4211 12.4478 28.4191L12.4139 27.3854C12.7907 27.7907 13.2214 28.1413 13.6936 28.4278C14.5492 28.9444 15.509 29.2174 16.4692 29.2174C18.0031 29.2174 19.4174 28.581 20.4509 27.4254C21.3664 26.4015 21.913 25.0236 21.913 23.7391C21.913 23.5868 21.7905 23.4634 21.6391 23.4634Z" stroke="#434343" stroke-width="0.5"/>
</svg>
