<svg width="27" height="25" viewBox="0 0 27 25" fill="none" xmlns="http://www.w3.org/2000/svg">
<path d="M25.9575 12.7073L25.9362 12.7179L22.3496 3.79127H23.9862C24.2796 3.79127 24.5175 3.55336 24.5175 3.25992C24.5175 2.96648 24.2796 2.72857 23.9862 2.72857H13.9862V1.19297C13.9862 0.899533 13.7483 0.661621 13.4548 0.661621C13.1614 0.661621 12.9235 0.899533 12.9235 1.19297V2.72326H2.9288C2.63536 2.72326 2.39745 2.96117 2.39745 3.25461C2.39745 3.54805 2.63536 3.78596 2.9288 3.78596H4.63443L1.04251 12.7073C1.01594 12.7696 1.00153 12.8363 1 12.9039C1 15.344 2.97808 17.3221 5.41817 17.3221C7.85826 17.3221 9.83634 15.344 9.83634 12.9039C9.83482 12.8363 9.8204 12.7696 9.79384 12.7073L6.20723 3.78064H12.9235V20.21C10.3889 20.4013 8.40701 21.9422 8.40701 23.8072C8.40701 24.1007 8.64493 24.3386 8.93836 24.3386H17.9713C18.2647 24.3386 18.5027 24.1007 18.5027 23.8072C18.5027 21.9422 16.5207 20.4013 13.9862 20.21V3.78064H20.7715L17.2062 12.7073C17.1796 12.7696 17.1652 12.8363 17.1637 12.9039C17.1637 15.344 19.1417 17.3221 21.5818 17.3221C24.0219 17.3221 26 15.344 26 12.9039C25.9985 12.8363 25.9841 12.7696 25.9575 12.7073ZM5.41552 16.2674C3.76979 16.2651 2.36823 15.0705 2.10521 13.4459H8.70457C8.44288 15.0626 7.0532 16.2547 5.41552 16.2674ZM8.51328 12.3832H2.32837L5.42614 4.67331L8.51328 12.3832ZM17.3443 23.2759H9.56004C9.95324 22.1335 11.5739 21.2514 13.4495 21.2514C15.3252 21.2514 16.9511 22.1335 17.3443 23.2759ZM21.5579 4.67862L24.6451 12.3832H18.4602L21.5579 4.67862ZM21.5579 16.2674V16.2727C19.9185 16.2596 18.5282 15.0647 18.2689 13.4459H24.8682C24.6052 15.0705 23.2036 16.2651 21.5579 16.2674Z" fill="#434343" stroke="#434343" stroke-width="0.5"/>
</svg>
