<svg width="140" height="151" viewBox="0 0 140 151" fill="none" xmlns="http://www.w3.org/2000/svg">
<g filter="url(#filter0_d)">
<path d="M132 46.6585C132 68.2825 117.093 86.4232 97 91.3561C93.4754 92.2213 89.7913 92.6802 86 92.6802C82.2087 92.6802 78.5246 92.2213 75 91.3561C54.9067 86.4232 40 68.2825 40 46.6585C40 21.2414 60.5949 0.636719 86 0.636719C111.405 0.636719 132 21.2414 132 46.6585Z" fill="#F76F6F"/>
<path d="M86 92.6802C82.2087 92.6802 78.5246 92.2213 75 91.3561L82.9459 100.751C84.5437 102.64 87.4563 102.64 89.0541 100.751L97 91.3561C93.4754 92.2213 89.7913 92.6802 86 92.6802Z" fill="#F76F6F"/>
</g>
<path d="M109.429 43.3935H118.016C120.404 37.9017 120.327 34.9111 112.071 34.9111C103.293 34.9287 102.164 37.921 99.8522 41.7518C97.7103 46.0027 98.8248 47.8784 102.824 50.7814C104.931 52.2604 105.441 53.2601 104.806 55.433C103.485 58.9902 101.834 58.7165 102.824 55.1594L103.714 52.8405H95.4583C93.8549 57.5346 92.663 59.9902 95.8893 61.7264C101.387 64.1986 108.787 62.2547 111.08 59.811C115.704 54.8858 116.034 49.6869 112.071 46.677L109.099 44.488C107.487 43.2007 108.074 42.4839 108.769 41.2045C110.741 38.3815 110.701 39.2575 109.429 43.3935Z" fill="white"/>
<path d="M85.982 35.4584H100.333L98.201 40.6573H92.9171L90.6054 45.8561H95.559L93.5775 50.7814H88.9542L86.3122 56.8012H92.2566L89.9449 62H75.084L85.982 35.4584Z" fill="white"/>
<path d="M63.5255 35.4584H71.121V44.2144L74.7537 35.4584H82.6795L71.7815 62H63.8557L64.1859 53.244L60.5533 62H52.6274L63.5255 35.4584Z" fill="white"/>
<path d="M109.429 43.3935H118.016C120.404 37.9017 120.327 34.9111 112.071 34.9111C103.293 34.9287 102.164 37.921 99.8522 41.7518C97.7103 46.0027 98.8248 47.8784 102.824 50.7814C104.931 52.2604 105.441 53.2601 104.806 55.433C103.485 58.9902 101.834 58.7165 102.824 55.1594L103.714 52.8405H95.4583C93.8549 57.5346 92.663 59.9902 95.8893 61.7264C101.387 64.1986 108.787 62.2547 111.08 59.811C115.704 54.8858 116.034 49.6869 112.071 46.677L109.099 44.488C107.487 43.2007 108.074 42.4839 108.769 41.2045C110.741 38.3815 110.701 39.2575 109.429 43.3935Z" stroke="#EEEDED"/>
<path d="M85.982 35.4584H100.333L98.201 40.6573H92.9171L90.6054 45.8561H95.559L93.5775 50.7814H88.9542L86.3122 56.8012H92.2566L89.9449 62H75.084L85.982 35.4584Z" stroke="#EEEDED"/>
<path d="M63.5255 35.4584H71.121V44.2144L74.7537 35.4584H82.6795L71.7815 62H63.8557L64.1859 53.244L60.5533 62H52.6274L63.5255 35.4584Z" stroke="#EEEDED"/>
<defs>
<filter id="filter0_d" x="0" y="0.636719" width="140" height="149.531" filterUnits="userSpaceOnUse" color-interpolation-filters="sRGB">
<feFlood flood-opacity="0" result="BackgroundImageFix"/>
<feColorMatrix in="SourceAlpha" type="matrix" values="0 0 0 0 0 0 0 0 0 0 0 0 0 0 0 0 0 0 127 0"/>
<feOffset dx="-16" dy="24"/>
<feGaussianBlur stdDeviation="12"/>
<feColorMatrix type="matrix" values="0 0 0 0 0 0 0 0 0 0 0 0 0 0 0 0 0 0 0.08 0"/>
<feBlend mode="normal" in2="BackgroundImageFix" result="effect1_dropShadow"/>
<feBlend mode="normal" in="SourceGraphic" in2="effect1_dropShadow" result="shape"/>
</filter>
</defs>
</svg>
