<svg width="1920" height="236" viewBox="0 0 1920 236" fill="none" xmlns="http://www.w3.org/2000/svg">
<g opacity="0.08">
<path d="M336.483 70.4326H406.394C425.838 25.4792 425.216 1 357.994 1C286.525 1.14349 277.329 25.6374 258.507 56.994C241.067 91.7903 250.142 107.143 282.706 130.906C299.862 143.012 304.013 151.196 298.839 168.982C288.084 198.099 274.64 195.859 282.706 166.742L289.953 147.761H222.731C209.677 186.184 199.972 206.284 226.24 220.496C271.003 240.732 331.251 224.82 349.928 204.818C387.572 164.502 390.261 121.947 357.994 97.3097L333.795 79.3916C320.67 68.8544 325.45 62.9868 331.106 52.5145C347.166 29.4066 346.835 36.5771 336.483 70.4326Z" fill="white"/>
<path d="M145.575 5.47952H262.424L245.062 48.035H202.041L183.219 90.5904H223.551L207.418 130.906H169.774L148.263 180.181H196.663L177.841 222.736H56.8423L145.575 5.47952Z" fill="white"/>
<path d="M-37.2677 5.47952H24.576V77.1518L54.1534 5.47952H118.686L29.9537 222.736H-34.5789L-31.89 151.064L-61.4674 222.736H-126L-37.2677 5.47952Z" fill="white"/>
<path d="M336.483 70.4326H406.394C425.838 25.4792 425.216 1 357.994 1C286.525 1.14349 277.329 25.6374 258.507 56.994C241.067 91.7903 250.142 107.143 282.706 130.906C299.862 143.012 304.013 151.196 298.839 168.982C288.084 198.099 274.64 195.859 282.706 166.742L289.953 147.761H222.731C209.677 186.184 199.972 206.284 226.24 220.496C271.003 240.732 331.251 224.82 349.928 204.818C387.572 164.502 390.261 121.947 357.994 97.3097L333.795 79.3916C320.67 68.8544 325.45 62.9868 331.106 52.5145C347.166 29.4066 346.835 36.5771 336.483 70.4326Z" stroke="#EEEDED"/>
<path d="M145.575 5.47952H262.424L245.062 48.035H202.041L183.219 90.5904H223.551L207.418 130.906H169.774L148.263 180.181H196.663L177.841 222.736H56.8423L145.575 5.47952Z" stroke="#EEEDED"/>
<path d="M-37.2677 5.47952H24.576V77.1518L54.1534 5.47952H118.686L29.9537 222.736H-34.5789L-31.89 151.064L-61.4674 222.736H-126L-37.2677 5.47952Z" stroke="#EEEDED"/>
</g>
<g opacity="0.08">
<path d="M879.205 75.4325H949.115C968.559 30.4792 967.937 6 900.715 6C829.246 6.14349 820.05 30.6374 801.228 61.994C783.788 96.7903 792.863 112.143 825.427 135.906C842.583 148.012 846.734 156.196 841.561 173.982C830.805 203.099 817.361 200.859 825.427 171.742L832.674 152.761H765.452C752.398 191.184 742.693 211.284 768.961 225.496C813.724 245.732 873.972 229.82 892.649 209.818C930.293 169.502 932.982 126.947 900.715 102.31L876.516 84.3916C863.391 73.8544 868.171 67.9868 873.827 57.5145C889.887 34.4066 889.557 41.5771 879.205 75.4325Z" fill="white"/>
<path d="M688.296 10.4795H805.145L787.783 53.035H744.762L725.94 95.5904H766.273L750.139 135.906H712.495L690.985 185.181H739.384L720.562 227.736H599.563L688.296 10.4795Z" fill="white"/>
<path d="M505.453 10.4795H567.297V82.1518L596.875 10.4795H661.407L572.675 227.736H508.142L510.831 156.064L481.254 227.736H416.721L505.453 10.4795Z" fill="white"/>
<path d="M879.205 75.4325H949.115C968.559 30.4792 967.937 6 900.715 6C829.246 6.14349 820.05 30.6374 801.228 61.994C783.788 96.7903 792.863 112.143 825.427 135.906C842.583 148.012 846.734 156.196 841.561 173.982C830.805 203.099 817.361 200.859 825.427 171.742L832.674 152.761H765.452C752.398 191.184 742.693 211.284 768.961 225.496C813.724 245.732 873.972 229.82 892.649 209.818C930.293 169.502 932.982 126.947 900.715 102.31L876.516 84.3916C863.391 73.8544 868.171 67.9868 873.827 57.5145C889.887 34.4066 889.557 41.5771 879.205 75.4325Z" stroke="#EEEDED"/>
<path d="M688.296 10.4795H805.145L787.783 53.035H744.762L725.94 95.5904H766.273L750.139 135.906H712.495L690.985 185.181H739.384L720.562 227.736H599.563L688.296 10.4795Z" stroke="#EEEDED"/>
<path d="M505.453 10.4795H567.297V82.1518L596.875 10.4795H661.407L572.675 227.736H508.142L510.831 156.064L481.254 227.736H416.721L505.453 10.4795Z" stroke="#EEEDED"/>
</g>
<g opacity="0.08">
<path d="M1422.2 75.4325H1492.11C1511.56 30.4792 1510.94 6 1443.72 6C1372.25 6.14349 1363.05 30.6374 1344.23 61.994C1326.79 96.7903 1335.86 112.143 1368.43 135.906C1385.58 148.012 1389.73 156.196 1384.56 173.982C1373.81 203.099 1360.36 200.859 1368.43 171.742L1375.67 152.761H1308.45C1295.4 191.184 1285.69 211.284 1311.96 225.496C1356.72 245.732 1416.97 229.82 1435.65 209.818C1473.29 169.502 1475.98 126.947 1443.72 102.31L1419.52 84.3916C1406.39 73.8544 1411.17 67.9868 1416.83 57.5145C1432.89 34.4066 1432.56 41.5771 1422.2 75.4325Z" fill="white"/>
<path d="M1231.3 10.4795H1348.15L1330.78 53.035H1287.76L1268.94 95.5904H1309.27L1293.14 135.906H1255.5L1233.98 185.181H1282.38L1263.56 227.736H1142.56L1231.3 10.4795Z" fill="white"/>
<path d="M1048.45 10.4795H1110.3V82.1518L1139.87 10.4795H1204.41L1115.67 227.736H1051.14L1053.83 156.064L1024.25 227.736H959.721L1048.45 10.4795Z" fill="white"/>
<path d="M1422.2 75.4325H1492.11C1511.56 30.4792 1510.94 6 1443.72 6C1372.25 6.14349 1363.05 30.6374 1344.23 61.994C1326.79 96.7903 1335.86 112.143 1368.43 135.906C1385.58 148.012 1389.73 156.196 1384.56 173.982C1373.81 203.099 1360.36 200.859 1368.43 171.742L1375.67 152.761H1308.45C1295.4 191.184 1285.69 211.284 1311.96 225.496C1356.72 245.732 1416.97 229.82 1435.65 209.818C1473.29 169.502 1475.98 126.947 1443.72 102.31L1419.52 84.3916C1406.39 73.8544 1411.17 67.9868 1416.83 57.5145C1432.89 34.4066 1432.56 41.5771 1422.2 75.4325Z" stroke="#EEEDED"/>
<path d="M1231.3 10.4795H1348.15L1330.78 53.035H1287.76L1268.94 95.5904H1309.27L1293.14 135.906H1255.5L1233.98 185.181H1282.38L1263.56 227.736H1142.56L1231.3 10.4795Z" stroke="#EEEDED"/>
<path d="M1048.45 10.4795H1110.3V82.1518L1139.87 10.4795H1204.41L1115.67 227.736H1051.14L1053.83 156.064L1024.25 227.736H959.721L1048.45 10.4795Z" stroke="#EEEDED"/>
</g>
<g opacity="0.08">
<path d="M1965.2 75.4325H2035.11C2054.56 30.4792 2053.94 6 1986.72 6C1915.25 6.14349 1906.05 30.6374 1887.23 61.994C1869.79 96.7903 1878.86 112.143 1911.43 135.906C1928.58 148.012 1932.73 156.196 1927.56 173.982C1916.81 203.099 1903.36 200.859 1911.43 171.742L1918.67 152.761H1851.45C1838.4 191.184 1828.69 211.284 1854.96 225.496C1899.72 245.732 1959.97 229.82 1978.65 209.818C2016.29 169.502 2018.98 126.947 1986.72 102.31L1962.52 84.3916C1949.39 73.8544 1954.17 67.9868 1959.83 57.5145C1975.89 34.4066 1975.56 41.5771 1965.2 75.4325Z" fill="white"/>
<path d="M1774.3 10.4795H1891.15L1873.78 53.035H1830.76L1811.94 95.5904H1852.27L1836.14 135.906H1798.5L1776.98 185.181H1825.38L1806.56 227.736H1685.56L1774.3 10.4795Z" fill="white"/>
<path d="M1591.45 10.4795H1653.3V82.1518L1682.87 10.4795H1747.41L1658.67 227.736H1594.14L1596.83 156.064L1567.25 227.736H1502.72L1591.45 10.4795Z" fill="white"/>
<path d="M1965.2 75.4325H2035.11C2054.56 30.4792 2053.94 6 1986.72 6C1915.25 6.14349 1906.05 30.6374 1887.23 61.994C1869.79 96.7903 1878.86 112.143 1911.43 135.906C1928.58 148.012 1932.73 156.196 1927.56 173.982C1916.81 203.099 1903.36 200.859 1911.43 171.742L1918.67 152.761H1851.45C1838.4 191.184 1828.69 211.284 1854.96 225.496C1899.72 245.732 1959.97 229.82 1978.65 209.818C2016.29 169.502 2018.98 126.947 1986.72 102.31L1962.52 84.3916C1949.39 73.8544 1954.17 67.9868 1959.83 57.5145C1975.89 34.4066 1975.56 41.5771 1965.2 75.4325Z" stroke="#EEEDED"/>
<path d="M1774.3 10.4795H1891.15L1873.78 53.035H1830.76L1811.94 95.5904H1852.27L1836.14 135.906H1798.5L1776.98 185.181H1825.38L1806.56 227.736H1685.56L1774.3 10.4795Z" stroke="#EEEDED"/>
<path d="M1591.45 10.4795H1653.3V82.1518L1682.87 10.4795H1747.41L1658.67 227.736H1594.14L1596.83 156.064L1567.25 227.736H1502.72L1591.45 10.4795Z" stroke="#EEEDED"/>
</g>
</svg>
