<svg width="27" height="22" viewBox="0 0 27 22" fill="none" xmlns="http://www.w3.org/2000/svg">
<path d="M12.3428 20.5642C12.6538 20.844 13.0718 21 13.5102 21C13.9435 21 14.3717 20.8394 14.6776 20.5642L23.8385 12.3211C25.2302 11.0688 25.9949 9.40367 26 7.63761C26 5.86697 25.2353 4.20183 23.8436 2.94954C22.4519 1.69725 20.6064 1.00917 18.6387 1.00917C16.7066 1.00917 14.8866 2.67431 13.5051 3.88532C12.1185 2.66972 10.2934 1 8.35624 1C6.39356 1 4.54812 1.68807 3.1564 2.93578C1.76468 4.18807 1 5.85321 1 7.62385C1 9.38991 1.76978 11.055 3.1615 12.3073L12.3428 20.5642ZM4.04343 3.73395C5.19555 2.69725 6.73002 2.12385 8.36134 2.12385C9.99266 2.12385 11.5322 3.69725 12.6894 4.73853L13.0667 5.07798C13.1839 5.18349 13.342 5.24312 13.5102 5.24312C13.6733 5.24312 13.8365 5.18349 13.9537 5.07798L14.3208 4.74771C15.478 3.70642 17.0124 2.13303 18.6489 2.13303C20.2802 2.13303 21.8146 2.70642 22.9668 3.74312C24.124 4.7844 24.7561 6.16514 24.7561 7.63303C24.7561 9.10092 24.1189 10.4817 22.9617 11.5229L13.7957 19.7706C13.6478 19.9037 13.3777 19.9037 13.2247 19.7706L4.04853 11.5138C2.89131 10.4725 2.25408 9.09174 2.25408 7.62385C2.25408 6.15596 2.89131 4.77523 4.04343 3.73395Z" fill="#434343" stroke="#434343" stroke-width="0.5"/>
</svg>
