<svg width="14" height="15" viewBox="0 0 14 15" fill="none" xmlns="http://www.w3.org/2000/svg">
<path d="M13.9702 11.6222C13.9306 11.4944 13.6787 11.3061 13.2146 11.0577C13.0888 10.9794 12.9097 10.873 12.6779 10.7381C12.4458 10.6031 12.2352 10.4788 12.0464 10.3651C11.8572 10.2515 11.68 10.1414 11.5144 10.035C11.4879 10.0137 11.4051 9.95167 11.2659 9.84846C11.1265 9.74555 11.009 9.66917 10.9127 9.61935C10.8166 9.56984 10.7221 9.54491 10.6293 9.54491C10.4967 9.54491 10.3311 9.64618 10.1323 9.84846C9.93353 10.051 9.75118 10.271 9.58553 10.5091C9.41986 10.7472 9.24415 10.9672 9.05872 11.1696C8.87302 11.3721 8.72044 11.4732 8.60126 11.4732C8.54142 11.4732 8.46682 11.4554 8.37742 11.4201C8.28805 11.3846 8.22006 11.3542 8.17339 11.3297C8.12714 11.3047 8.04777 11.2551 7.93499 11.1803C7.82201 11.1057 7.75918 11.0648 7.74595 11.0577C6.8378 10.5178 6.05894 9.89991 5.40922 9.20413C4.75972 8.50793 4.18289 7.67356 3.6791 6.7005C3.67249 6.68629 3.63428 6.61878 3.56473 6.49811C3.49507 6.37733 3.44865 6.29222 3.42545 6.24237C3.40225 6.1927 3.37408 6.11987 3.34099 6.02401C3.3079 5.92815 3.29129 5.8483 3.29129 5.78431C3.29129 5.65654 3.38578 5.49311 3.57472 5.29423C3.76363 5.09546 3.96919 4.90718 4.19118 4.72975C4.41335 4.55232 4.6187 4.35695 4.80767 4.14397C4.99658 3.93087 5.09103 3.7534 5.09103 3.61139C5.09103 3.51202 5.06784 3.41072 5.02148 3.30777C4.97509 3.2046 4.90383 3.0787 4.80767 2.92948C4.71148 2.78034 4.65349 2.69165 4.63357 2.6631C4.53424 2.48568 4.4316 2.29571 4.32541 2.09329C4.21922 1.8909 4.10331 1.6653 3.9773 1.41676C3.8514 1.16832 3.75203 0.976495 3.67903 0.841569C3.44715 0.344516 3.27151 0.0745151 3.15215 0.0320523C3.10573 0.0107463 3.03607 0 2.94336 0C2.76427 0 2.53065 0.0354478 2.2423 0.106567C1.95386 0.177575 1.72688 0.252053 1.56114 0.330299C1.22968 0.479367 0.878365 0.912577 0.507097 1.62978C0.169021 2.29724 0 2.95788 0 3.6112C0 3.80281 0.0115978 3.98923 0.0347933 4.1705C0.0579888 4.35158 0.0994343 4.55579 0.159164 4.78311C0.21879 5.01035 0.266888 5.17915 0.303248 5.28908C0.339644 5.39908 0.407593 5.59613 0.507063 5.88031C0.606392 6.16442 0.666123 6.33834 0.686009 6.40225C0.917999 7.0983 1.19311 7.71968 1.51126 8.26659C2.03473 9.17562 2.74909 10.1151 3.65392 11.0845C4.55879 12.0539 5.43548 12.8192 6.28404 13.3803C6.79444 13.7211 7.37464 14.0158 8.02422 14.2646C8.08392 14.2857 8.24625 14.3496 8.51133 14.4564C8.77651 14.5629 8.96051 14.6357 9.06318 14.6747C9.16589 14.7138 9.32349 14.7654 9.53542 14.8294C9.7478 14.8934 9.93824 14.9378 10.1073 14.9628C10.2764 14.9873 10.4504 15 10.6293 15C11.2391 15 11.8557 14.8188 12.4788 14.4566C13.1482 14.059 13.5525 13.6826 13.6917 13.3272C13.7649 13.1498 13.8342 12.9066 13.9005 12.5975C13.967 12.2886 14 12.0384 14 11.8466C14.0002 11.7468 13.9902 11.6724 13.9702 11.6222Z" fill="#F33131"/>
</svg>
