<svg width="28" height="26" viewBox="0 0 28 26" fill="none" xmlns="http://www.w3.org/2000/svg">
<path d="M20.7084 0.166626C17.6025 0.166626 15.0374 3.05139 14 4.41289C12.9626 3.05139 10.3975 0.166626 7.29165 0.166626C3.27102 0.166626 0 3.86317 0 8.40623C0 10.8848 0.983828 13.1948 2.70588 14.7756C2.73093 14.8189 2.76172 14.8588 2.79759 14.8947L13.5881 25.663C13.7021 25.7763 13.8508 25.8333 14 25.8333C14.1492 25.8333 14.2985 25.7763 14.4125 25.6624L25.5619 14.517L25.6769 14.4053C25.7681 14.3193 25.8581 14.2321 25.9589 14.1205C26.0011 14.079 26.0358 14.0322 26.0626 13.9815C27.313 12.4503 28 10.4752 28 8.40623C28 3.86317 24.729 0.166626 20.7084 0.166626ZM25.0919 13.3253C25.0759 13.3441 25.0611 13.364 25.048 13.3845C24.9933 13.4472 24.9335 13.5024 24.8743 13.5588L13.9995 24.4257L3.75523 14.202C3.7222 14.137 3.67604 14.0778 3.61966 14.0282C2.06046 12.6667 1.16665 10.6176 1.16665 8.40623C1.16665 4.5063 3.91415 1.33333 7.29165 1.33333C10.631 1.33333 13.481 5.68897 13.5095 5.73283C13.7249 6.06549 14.2751 6.06549 14.4905 5.73283C14.519 5.68897 17.369 1.33333 20.7084 1.33333C24.0859 1.33333 26.8334 4.50635 26.8334 8.40623C26.8334 10.2439 26.2147 11.9911 25.0919 13.3253Z" fill="#B2B2B2"/>
</svg>
