<svg width="26" height="26" viewBox="0 0 26 26" fill="none" xmlns="http://www.w3.org/2000/svg">
<path d="M20.5 25.0001H16.5C16.224 25.0001 16 24.7761 16 24.5001V17.5001C16 17.2241 15.776 17.0001 15.5 17.0001H10.5C10.224 17.0001 10 17.2241 10 17.5001V24.5001C10 24.7761 9.776 25.0001 9.5 25.0001H5.5C4.673 25.0001 4 24.3271 4 23.5001V14.0001H2C1.449 14.0001 1 13.5511 1 13.0001C1 12.7351 1.108 12.4751 1.296 12.2871L12.65 1.14311C12.844 0.95311 13.156 0.95311 13.35 1.14311L24.7 12.2831C24.892 12.4751 25 12.7351 25 13.0001C25 13.5511 24.551 14.0001 24 14.0001H22V23.5001C22 24.3271 21.327 25.0001 20.5 25.0001ZM17 24.0001H20.5C20.776 24.0001 21 23.7761 21 23.5001V13.5001C21 13.2241 21.224 13.0001 21.5 13.0001H24L13 2.20111L2 12.9971L4.5 13.0001C4.776 13.0001 5 13.2241 5 13.5001V23.5001C5 23.7761 5.224 24.0001 5.5 24.0001H9V17.5001C9 16.6731 9.673 16.0001 10.5 16.0001H15.5C16.327 16.0001 17 16.6731 17 17.5001V24.0001Z" fill="#434343" stroke="#434343" stroke-width="0.5"/>
</svg>
