<svg width="70" height="70" viewBox="0 0 70 70" fill="none" xmlns="http://www.w3.org/2000/svg">
<path d="M59.7331 9.35326C59.7331 8.83736 59.3157 8.41992 58.7998 8.41992H13.0664C12.5505 8.41992 12.1331 8.83736 12.1331 9.35326V21.4866C12.1331 22.0025 12.5505 22.4199 13.0664 22.4199H39.567L10.581 51.406C10.2165 51.7705 10.2165 52.3613 10.581 52.7257L19.1606 61.3054C19.3356 61.4804 19.5727 61.5788 19.8205 61.5788H19.8214C20.0692 61.5788 20.3072 61.4795 20.4822 61.3035C20.4822 61.3035 59.4603 22.146 59.461 22.1453C59.461 22.1453 59.7333 21.8861 59.7333 21.4866V9.35326H59.7331ZM13.9998 10.2866H15.8664V12.1533C15.8664 12.6692 16.2839 13.0866 16.7998 13.0866C17.3157 13.0866 17.7331 12.6692 17.7331 12.1533V10.2866H19.5998V14.0199C19.5998 14.5358 20.0172 14.9533 20.5331 14.9533C21.049 14.9533 21.4664 14.5358 21.4664 14.0199V10.2866H23.3331V12.1533C23.3331 12.6692 23.7505 13.0866 24.2664 13.0866C24.7823 13.0866 25.1998 12.6692 25.1998 12.1533V10.2866H27.0664V14.0199C27.0664 14.5358 27.4839 14.9533 27.9998 14.9533C28.5157 14.9533 28.9331 14.5358 28.9331 14.0199V10.2866H30.7998V12.1533C30.7998 12.6692 31.2172 13.0866 31.7331 13.0866C32.249 13.0866 32.6664 12.6692 32.6664 12.1533V10.2866H34.5331V14.0199C34.5331 14.5358 34.9505 14.9533 35.4664 14.9533C35.9823 14.9533 36.3998 14.5358 36.3998 14.0199V10.2866H38.2664V12.1533C38.2664 12.6692 38.6839 13.0866 39.1998 13.0866C39.7157 13.0866 40.1331 12.6692 40.1331 12.1533V10.2866H41.9998V14.0199C41.9998 14.5358 42.4172 14.9533 42.9331 14.9533C43.449 14.9533 43.8664 14.5358 43.8664 14.0199V10.2866H45.7331V12.1533C45.7331 12.6692 46.1505 13.0866 46.6664 13.0866C47.1823 13.0866 47.5998 12.6692 47.5998 12.1533V10.2866H49.4664V14.0199C49.4664 14.5358 49.8839 14.9533 50.3998 14.9533C50.9157 14.9533 51.3331 14.5358 51.3331 14.0199V10.2866H53.1998V12.1533C53.1998 12.6692 53.6172 13.0866 54.1331 13.0866C54.649 13.0866 55.0664 12.6692 55.0664 12.1533V10.2866H57.8664V20.5533H13.9998V10.2866ZM19.8186 59.3239L12.5608 52.0661L13.8812 50.7457L15.2012 52.0661C15.3834 52.2483 15.6224 52.3396 15.8611 52.3396C16.0998 52.3396 16.3387 52.2483 16.5209 52.0661C16.8854 51.7016 16.8854 51.1108 16.5209 50.7464L15.201 49.4259L16.5207 48.106L19.1604 50.7464C19.3426 50.9286 19.5816 51.0198 19.8203 51.0198C20.059 51.0198 20.2979 50.9286 20.4801 50.7464C20.8446 50.3819 20.8446 49.7911 20.4801 49.4266L17.8404 46.786L19.1604 45.466L20.4801 46.7858C20.6624 46.968 20.9013 47.0592 21.14 47.0592C21.3787 47.0592 21.6176 46.968 21.7999 46.7858C22.1643 46.4213 22.1643 45.8305 21.7999 45.466L20.4801 44.1463L21.8001 42.8263L24.4405 45.466C24.6227 45.6483 24.8617 45.7395 25.1004 45.7395C25.3391 45.7395 25.578 45.6483 25.7602 45.466C26.1247 45.1016 26.1247 44.5108 25.7602 44.1463L23.1198 41.5066L24.4405 40.1859L25.7602 41.5057C25.9425 41.6879 26.1814 41.7791 26.4201 41.7791C26.6588 41.7791 26.8977 41.6879 27.08 41.5057C27.4444 41.1412 27.4444 40.5504 27.08 40.1859L25.7602 38.8662L27.08 37.5465L29.7194 40.1859C29.9017 40.3682 30.1406 40.4594 30.3793 40.4594C30.618 40.4594 30.8569 40.3682 31.0392 40.1859C31.4036 39.8215 31.4036 39.2307 31.0392 38.8662L28.3997 36.2267L29.7197 34.9068L31.0401 36.2267C31.2223 36.409 31.4613 36.5002 31.7 36.5002C31.9387 36.5002 32.1776 36.409 32.3598 36.2267C32.7243 35.8623 32.7243 35.2715 32.3598 34.907L31.0394 33.587L32.3598 32.2666L34.9998 34.907C35.182 35.0892 35.4209 35.1805 35.6596 35.1805C35.8983 35.1805 36.1373 35.0892 36.3195 34.907C36.684 34.5425 36.684 33.9517 36.3195 33.5873L33.6798 30.9469L34.9998 29.6269L36.3195 30.9466C36.5017 31.1289 36.7407 31.2201 36.9794 31.2201C37.2181 31.2201 37.457 31.1289 37.6392 30.9466C38.0037 30.5822 38.0037 29.9914 37.6392 29.6269L36.3195 28.3072L37.6395 26.9872L40.2799 29.6269C40.4621 29.8091 40.701 29.9004 40.9397 29.9004C41.1784 29.9004 41.4174 29.8091 41.5996 29.6269C41.9641 29.2624 41.9641 28.6716 41.5996 28.3072L38.9592 25.6675L40.2796 24.347L41.5996 25.6675C41.7818 25.8497 42.0208 25.9409 42.2595 25.9409C42.4982 25.9409 42.7371 25.8497 42.9193 25.6675C43.2838 25.303 43.2838 24.7122 42.9193 24.3477L41.5994 23.0273L42.2065 22.4199H56.5537L19.8186 59.3239Z" fill="#434343"/>
<path d="M12.9537 29.9991C13.1359 30.1814 13.3749 30.2726 13.6136 30.2726C13.8523 30.2726 14.0912 30.1814 14.2734 29.9991L14.9333 29.3393L15.5932 29.9991C15.7754 30.1814 16.0143 30.2726 16.253 30.2726C16.4917 30.2726 16.7307 30.1814 16.9129 29.9991C17.2774 29.6347 17.2774 29.0439 16.9129 28.6794L16.253 28.0195L16.9129 27.3597C17.2774 26.9952 17.2774 26.4044 16.9129 26.04C16.5484 25.6755 15.9576 25.6755 15.5932 26.04L14.9333 26.6998L14.2734 26.04C13.909 25.6755 13.3182 25.6755 12.9537 26.04C12.5892 26.4044 12.5892 26.9952 12.9537 27.3597L13.6136 28.0195L12.9537 28.6794C12.589 29.0441 12.589 29.6347 12.9537 29.9991Z" fill="#434343"/>
<path d="M47.713 52.1737C47.3485 51.8093 46.7577 51.8093 46.3933 52.1737L45.7334 52.8336L45.0735 52.1737C44.7091 51.8093 44.1183 51.8093 43.7538 52.1737C43.3894 52.5382 43.3894 53.129 43.7538 53.4935L44.4137 54.1533L43.7538 54.8132C43.3894 55.1777 43.3894 55.7685 43.7538 56.1329C43.9361 56.3152 44.175 56.4064 44.4137 56.4064C44.6524 56.4064 44.8913 56.3152 45.0735 56.1329L45.7334 55.4731L46.3933 56.1329C46.5755 56.3152 46.8144 56.4064 47.0531 56.4064C47.2918 56.4064 47.5308 56.3152 47.713 56.1329C48.0775 55.7685 48.0775 55.1777 47.713 54.8132L47.0531 54.1533L47.713 53.4935C48.0777 53.1288 48.0777 52.5382 47.713 52.1737Z" fill="#434343"/>
<path d="M52.2663 36.4204C52.7818 36.4204 53.1997 36.0025 53.1997 35.487C53.1997 34.9716 52.7818 34.5537 52.2663 34.5537C51.7509 34.5537 51.333 34.9716 51.333 35.487C51.333 36.0025 51.7509 36.4204 52.2663 36.4204Z" fill="#434343"/>
<path d="M11.1999 38.2866C11.7154 38.2866 12.1333 37.8687 12.1333 37.3533C12.1333 36.8378 11.7154 36.4199 11.1999 36.4199C10.6845 36.4199 10.2666 36.8378 10.2666 37.3533C10.2666 37.8687 10.6845 38.2866 11.1999 38.2866Z" fill="#434343"/>
<path d="M55.0666 18.687C55.5821 18.687 56 18.2691 56 17.7536C56 17.2382 55.5821 16.8203 55.0666 16.8203C54.5512 16.8203 54.1333 17.2382 54.1333 17.7536C54.1333 18.2691 54.5512 18.687 55.0666 18.687Z" fill="#434343"/>
<path d="M45.8701 41.5547C44.2832 41.5547 42.9917 42.8462 42.9917 44.4331C42.9917 46.0209 44.2832 47.3124 45.8701 47.3124C47.4579 47.3124 48.7494 46.0209 48.7494 44.4331C48.7494 42.8462 47.4579 41.5547 45.8701 41.5547ZM45.8701 45.4455C45.3122 45.4455 44.8584 44.9917 44.8584 44.4329C44.8584 43.875 45.3122 43.4211 45.8701 43.4211C46.4289 43.4211 46.8828 43.875 46.8828 44.4329C46.8828 44.9917 46.4287 45.4455 45.8701 45.4455Z" fill="#F33131"/>
</svg>
