<svg width="70" height="70" viewBox="0 0 70 70" fill="none" xmlns="http://www.w3.org/2000/svg">
<path d="M20.5336 55.6933C20.1691 55.3288 19.5783 55.3288 19.2138 55.6933L18.554 56.3531L17.8941 55.6933C17.5296 55.3288 16.9388 55.3288 16.5744 55.6933C16.2099 56.0577 16.2099 56.6485 16.5744 57.013L17.2342 57.6729L16.5741 58.3327C16.2097 58.6972 16.2097 59.288 16.5741 59.6525C16.7564 59.8347 16.9953 59.9259 17.234 59.9259C17.4727 59.9259 17.7116 59.8347 17.8939 59.6525L18.5537 58.9926L19.2136 59.6525C19.3958 59.8347 19.6348 59.9259 19.8735 59.9259C20.1122 59.9259 20.3511 59.8347 20.5333 59.6525C20.8978 59.288 20.8978 58.6972 20.5333 58.3327L19.8735 57.6729L20.5336 57.013C20.898 56.6483 20.898 56.0577 20.5336 55.6933Z" fill="#434343"/>
<path d="M52.1535 15.6732C53.6975 15.6732 54.9535 14.4172 54.9535 12.8732C54.9535 11.3293 53.6975 10.0732 52.1535 10.0732C50.6095 10.0732 49.3535 11.3293 49.3535 12.8732C49.3535 14.4172 50.6093 15.6732 52.1535 15.6732ZM52.1535 11.9399C52.6685 11.9399 53.0869 12.3587 53.0869 12.8732C53.0869 13.3877 52.6685 13.8066 52.1535 13.8066C51.6385 13.8066 51.2202 13.3877 51.2202 12.8732C51.2202 12.3587 51.6385 11.9399 52.1535 11.9399Z" fill="#F33131"/>
<path d="M47.8892 32.0068C47.8892 32.5579 48.336 33.0045 48.8869 33.0045C49.4378 33.0045 49.8846 32.5577 49.8846 32.0068C49.8846 31.4559 49.4378 31.0088 48.8869 31.0088C48.336 31.0088 47.8892 31.4556 47.8892 32.0068Z" fill="#434343"/>
<path d="M10.1538 24.0731H30.6871C31.203 24.0731 31.6205 23.6552 31.6205 23.1398V17.5398C31.6205 17.0243 31.203 16.6064 30.6871 16.6064H10.1538C9.63789 16.6064 9.22046 17.0243 9.22046 17.5398V23.1398C9.22046 23.6552 9.63789 24.0731 10.1538 24.0731ZM11.0871 18.4731H29.7538V22.2064H11.0871V18.4731Z" fill="#434343"/>
<path d="M49.3538 45.5402V39.9402C49.3538 39.4247 48.9364 39.0068 48.4205 39.0068H10.1538C9.63789 39.0068 9.22046 39.4247 9.22046 39.9402V45.5402C9.22046 46.0556 9.63789 46.4735 10.1538 46.4735H48.4205C48.9364 46.4735 49.3538 46.0556 49.3538 45.5402ZM47.4871 44.6068H11.0871V40.8735H47.4871V44.6068Z" fill="#434343"/>
<path d="M56.8205 50.2061H28.8205C28.3046 50.2061 27.8872 50.624 27.8872 51.1394V56.7394C27.8872 57.2548 28.3046 57.6727 28.8205 57.6727H56.8205C57.3364 57.6727 57.7539 57.2548 57.7539 56.7394V51.1394C57.7539 50.624 57.3364 50.2061 56.8205 50.2061ZM55.8872 55.8061H29.7539V52.0727H55.8872V55.8061Z" fill="#434343"/>
<path d="M18.5539 27.8066C18.038 27.8066 17.6206 28.2245 17.6206 28.74V34.34C17.6206 34.8554 18.038 35.2733 18.5539 35.2733H38.1539C38.6698 35.2733 39.0873 34.8554 39.0873 34.34V28.74C39.0873 28.2245 38.6698 27.8066 38.1539 27.8066H18.5539ZM37.2206 33.4066H19.4873V29.6733H37.2206V33.4066Z" fill="#434343"/>
<path d="M45.6206 21.2729H54.9539V35.2729C54.9539 35.7883 55.3714 36.2062 55.8872 36.2062C56.4031 36.2062 56.8206 35.7883 56.8206 35.2729V20.3396C56.8206 19.8241 56.4031 19.4062 55.8872 19.4062H45.6206C45.1047 19.4062 44.6873 19.8241 44.6873 20.3396C44.6873 20.855 45.1047 21.2729 45.6206 21.2729Z" fill="#434343"/>
<path d="M37.4938 24.96C37.6688 25.135 37.9058 25.2335 38.1536 25.2335C38.4014 25.2335 38.6385 25.135 38.8135 24.96L42.7727 21.0001C43.1372 20.6357 43.1372 20.0449 42.7727 19.6804L38.8133 15.7205C38.4633 15.3705 37.8435 15.3705 37.4935 15.7205L33.5341 19.6804C33.1696 20.0449 33.1696 20.6357 33.5341 21.0001L37.4938 24.96ZM38.1536 17.7001L40.7931 20.34L38.1536 22.98L35.5142 20.34L38.1536 17.7001Z" fill="#434343"/>
<path d="M60.5063 42.0798L56.5469 38.1199C56.1969 37.7699 55.5772 37.7699 55.2272 38.1199L51.2677 42.0798C50.9033 42.4443 50.9033 43.0351 51.2677 43.3996L55.2272 47.3595C55.4022 47.5345 55.6392 47.6329 55.887 47.6329C56.1348 47.6329 56.3719 47.5345 56.5469 47.3595L60.5063 43.3996C60.871 43.0351 60.871 42.4443 60.5063 42.0798ZM55.8873 45.3796L53.2478 42.7397L55.8873 40.0998L58.5267 42.7397L55.8873 45.3796Z" fill="#434343"/>
</svg>
