<svg width="70" height="70" viewBox="0 0 70 70" fill="none" xmlns="http://www.w3.org/2000/svg">
<path d="M58.3588 25.8864C55.7858 25.8864 53.6921 27.9801 53.6921 30.5531V30.5771C52.9098 29.9847 51.9468 29.6198 50.8921 29.6198C49.2551 29.6198 47.7599 30.4714 46.9187 31.8374L39.7253 27.9055L42.6338 22.8676C43.2568 21.7884 43.4222 20.5305 43.0995 19.3265C42.7768 18.1225 42.0049 17.1161 40.9253 16.4927C38.6967 15.2075 35.8375 15.973 34.5506 18.2007L33.3926 20.2069C32.705 21.398 32.5223 22.7864 32.8781 24.1152C32.907 24.2232 32.9591 24.3201 32.9945 24.4251C30.811 23.8256 28.417 24.5191 26.9272 26.3309L19.3725 35.5177C19.1238 35.8194 18.8844 36.1531 18.6401 36.5376C17.2268 38.7697 16.7396 41.4194 17.2683 43.9989L18.848 51.7127L14.0164 51.1312C11.6105 50.8459 9.23771 51.5057 7.33184 53.0033C7.05394 53.2212 6.92304 53.5775 6.99421 53.9238C7.06491 54.27 7.32554 54.5472 7.66691 54.6382L20.9907 58.2057C21.2877 58.285 21.5904 58.3242 21.8907 58.3242C22.6016 58.3242 23.3012 58.1053 23.8955 57.6844C24.7399 57.0857 25.2696 56.1495 25.3484 55.1177L25.8905 48.0298L32.0754 49.2242L31.8535 54.383C31.8062 55.4904 31.97 56.5751 32.3169 57.6195H30.3593C29.8438 57.6195 29.4259 58.037 29.4259 58.5529C29.4259 59.0688 29.8438 59.4862 30.3593 59.4862H61.1593H62.0926C62.608 59.4862 63.0259 59.0688 63.0259 58.5529V30.5529C63.0255 27.9799 60.932 25.8864 58.3588 25.8864ZM50.8921 31.4864C52.4361 31.4864 53.6921 32.7425 53.6921 34.2864V57.6198H48.0921V37.6709L49.6753 38.3679C50.4675 38.7151 51.3961 38.5667 52.0415 37.9869C52.5724 37.5083 52.84 36.7992 52.7565 36.0892C52.6736 35.3791 52.2497 34.7512 51.6227 34.4085L48.5651 32.7371C49.0782 31.9666 49.9434 31.4864 50.8921 31.4864ZM39.0367 31.6444L38.962 29.6163L50.7276 36.0474C50.862 36.1202 50.8949 36.2415 50.9026 36.3062C50.9103 36.3717 50.9064 36.4966 50.7923 36.5997C50.6929 36.69 50.5489 36.7126 50.4264 36.659L39.0367 31.6444ZM35.0096 21.1404L36.1676 19.1342C36.5414 18.4863 37.1451 18.0231 37.8675 17.8299C38.1085 17.7653 38.3533 17.7333 38.5966 17.7333C39.0815 17.7333 39.5605 17.8609 39.992 18.1097C41.329 18.8818 41.7889 20.597 41.017 21.9342L38.217 26.7841L36.2113 25.6256C35.4515 25.1871 34.9083 24.479 34.6808 23.6322C34.454 22.7847 34.5707 21.8997 35.0096 21.1404ZM28.3692 27.516C29.5823 26.0423 31.6792 25.634 33.3553 26.5517L37.0552 28.574L37.143 30.9547C35.7675 30.7356 34.357 31.3135 33.558 32.5252L29.4889 38.6904L21.6382 35.7009L28.3692 27.516ZM24.242 46.6403C24.1545 46.7723 24.102 46.9247 24.0903 47.0831L23.4869 54.9754C23.4505 55.4521 23.2057 55.8842 22.8156 56.1612C22.425 56.4391 21.9348 56.525 21.473 56.4027L10.3255 53.4177C11.4142 52.993 12.5951 52.839 13.7935 52.9848L19.9108 53.7203C20.2062 53.7558 20.5056 53.6466 20.7088 53.4258C20.9116 53.2053 20.9963 52.8999 20.9363 52.6064L19.097 43.624C18.6658 41.5202 19.0636 39.3575 20.2167 37.5363C20.2853 37.4283 20.3525 37.3324 20.4202 37.2341L28.4357 40.2866L24.242 46.6403ZM26.7113 46.2879L28.8543 43.0409L34.4407 45.8864C35.3435 46.3467 35.7691 47.3785 35.4529 48.3417L33.7594 53.5024L33.9745 48.5002C33.9946 48.0382 33.6728 47.6315 33.219 47.544L26.7113 46.2879ZM37.2267 48.9244C37.832 47.0806 37.0167 45.1045 35.288 44.2239L29.8886 41.4736L35.1158 33.5535C35.5883 32.8372 36.5008 32.5672 37.2879 32.9137L46.2257 36.8489V57.6198H34.3731L37.2267 48.9244ZM55.5588 57.6198V30.5531C55.5588 29.0091 56.8148 27.7531 58.3588 27.7531C59.9028 27.7531 61.1588 29.0091 61.1588 30.5531V57.6198H55.5588Z" fill="#434343"/>
<path d="M50.7794 18.5333C50.9616 18.7156 51.2005 18.8068 51.4392 18.8068C51.6779 18.8068 51.9169 18.7156 52.0991 18.5333L52.759 17.8735L53.4188 18.5333C53.6011 18.7156 53.84 18.8068 54.0787 18.8068C54.3174 18.8068 54.5563 18.7156 54.7386 18.5333C55.103 18.1689 55.103 17.5781 54.7386 17.2136L54.0787 16.5537L54.7386 15.8939C55.103 15.5294 55.103 14.9386 54.7386 14.5741C54.3741 14.2097 53.7833 14.2097 53.4188 14.5741L52.759 15.234L52.0991 14.5741C51.7346 14.2097 51.1438 14.2097 50.7794 14.5741C50.4149 14.9386 50.4149 15.5294 50.7794 15.8939L51.4392 16.5537L50.7794 17.2136C50.4147 17.5781 50.4147 18.1689 50.7794 18.5333Z" fill="#434343"/>
<path d="M12.6255 29.234L11.9656 28.5741C11.6012 28.2097 11.0104 28.2097 10.6459 28.5741C10.2814 28.9386 10.2814 29.5294 10.6459 29.8939L11.3058 30.5537L10.6459 31.2136C10.2814 31.5781 10.2814 32.1689 10.6459 32.5333C10.8281 32.7156 11.0671 32.8068 11.3058 32.8068C11.5445 32.8068 11.7834 32.7156 11.9656 32.5333L12.6255 31.8735L13.2854 32.5333C13.4676 32.7156 13.7065 32.8068 13.9452 32.8068C14.1839 32.8068 14.4229 32.7156 14.6051 32.5333C14.9698 32.1689 14.9698 31.5781 14.6051 31.2136L13.9452 30.5537L14.6051 29.8939C14.9698 29.5294 14.9698 28.9386 14.6051 28.5741C14.2406 28.2097 13.6498 28.2097 13.2854 28.5741L12.6255 29.234Z" fill="#434343"/>
<path d="M10.2921 18.4201C12.0932 18.4201 13.5587 16.9545 13.5587 15.1534C13.5587 13.3523 12.0932 11.8867 10.2921 11.8867C8.49096 11.8867 7.02539 13.3523 7.02539 15.1534C7.02539 16.9545 8.49119 18.4201 10.2921 18.4201ZM10.2921 13.7534C11.0642 13.7534 11.6921 14.3813 11.6921 15.1534C11.6921 15.9255 11.0642 16.5534 10.2921 16.5534C9.51996 16.5534 8.89206 15.9255 8.89206 15.1534C8.89206 14.3813 9.52019 13.7534 10.2921 13.7534Z" fill="#F33131"/>
<path d="M22.0358 12.5094C22.587 12.5094 23.0338 12.0625 23.0338 11.5116C23.0338 10.9605 22.587 10.5137 22.0358 10.5137C21.4847 10.5137 21.0381 10.9605 21.0381 11.5116C21.0379 12.0625 21.4847 12.5094 22.0358 12.5094Z" fill="#434343"/>
<path d="M58.4352 29.1797C57.8841 29.1797 57.4375 29.6265 57.4375 30.1777C57.4375 30.7286 57.8843 31.1754 58.4352 31.1754C58.9861 31.1754 59.4332 30.7286 59.4332 30.1777C59.433 29.6265 58.9861 29.1797 58.4352 29.1797Z" fill="#434343"/>
<path d="M58.4352 54.3799C57.8841 54.3799 57.4375 54.8267 57.4375 55.3778C57.4375 55.9287 57.8843 56.3756 58.4352 56.3756C58.9861 56.3756 59.4332 55.9287 59.4332 55.3778C59.433 54.8267 58.9861 54.3799 58.4352 54.3799Z" fill="#434343"/>
<path d="M50.9689 54.3799C50.4178 54.3799 49.9712 54.8267 49.9712 55.3778C49.9712 55.9287 50.418 56.3756 50.9689 56.3756C51.5198 56.3756 51.9669 55.9287 51.9669 55.3778C51.9667 54.8267 51.5198 54.3799 50.9689 54.3799Z" fill="#434343"/>
</svg>
