<svg width="59" height="59" viewBox="0 0 59 59" fill="none" xmlns="http://www.w3.org/2000/svg">
<g clip-path="url(#clip0)">
<path d="M58.9916 30.4662C58.8129 26.591 55.6368 23.4154 51.7608 23.2368C51.3198 23.2166 50.884 23.2358 50.4559 23.2885V19.9966C50.4559 13.4932 45.165 8.20233 38.6616 8.20233H20.337C17.744 8.20233 15.2837 9.0281 13.2224 10.5902C12.842 10.8785 12.7672 11.4206 13.0556 11.801C13.3438 12.1813 13.8859 12.2562 14.2663 11.9679C16.0248 10.6353 18.124 9.93085 20.337 9.93085H38.6616C44.2119 9.93085 48.7274 14.4463 48.7274 19.9966V23.711C47.7836 24.0658 46.912 24.6111 46.1584 25.331C44.7758 26.6515 43.9621 28.3914 43.8296 30.2767C42.6875 29.4545 41.3033 28.9916 39.8661 28.9916H19.1334C17.6964 28.9916 16.3122 29.4545 15.1701 30.2766C15.0375 28.3909 14.2238 26.651 12.8413 25.3306C12.0876 24.6107 11.2162 24.0654 10.2725 23.7106V19.9966C10.2725 17.9224 10.8984 15.931 12.0824 14.2381C12.356 13.847 12.2607 13.3082 11.8694 13.0346C11.4783 12.7611 10.9396 12.8564 10.6659 13.2475C9.27782 15.2323 8.544 17.5662 8.544 19.9966V23.2884C8.11567 23.2356 7.67963 23.2165 7.23816 23.2368C3.36236 23.4152 0.1866 26.5909 0.00833165 30.4669C-0.0881199 32.5653 0.65549 34.5552 2.10215 36.07C3.34841 37.375 4.96804 38.1751 6.73159 38.3723V43.9411C6.73159 45.1315 7.4079 46.1662 8.39604 46.683V48.0208C8.39604 49.552 9.64184 50.7978 11.1731 50.7978H12.1847C13.716 50.7978 14.9618 49.552 14.9618 48.0208V47.034H44.0379V48.0208C44.0379 49.552 45.2837 50.7978 46.815 50.7978H47.8266C49.3579 50.7978 50.6035 49.552 50.6035 48.0208V46.683C51.5915 46.1661 52.2675 45.1315 52.2675 43.9414V38.3717C52.71 38.3215 53.1461 38.2325 53.5708 38.1054C54.0281 37.9685 54.2879 37.487 54.1512 37.0297C54.0144 36.5725 53.5332 36.3127 53.0754 36.4494C52.5373 36.6104 51.9747 36.692 51.4033 36.692C50.926 36.692 50.539 37.0789 50.539 37.5562V43.9414C50.539 44.6926 49.9287 45.3038 49.178 45.3056H45.5367V30.8241C45.5367 29.2061 46.1815 27.6991 47.3523 26.5809C48.5224 25.4634 50.0596 24.8881 51.6816 24.9635C54.6744 25.1014 57.1271 27.5535 57.265 30.5454C57.3397 32.1792 56.758 33.7244 55.627 34.8966C55.2956 35.2401 55.3052 35.7872 55.6488 36.1187C55.9923 36.4501 56.5394 36.4403 56.8708 36.0969C58.3351 34.5794 59.0883 32.5798 58.9916 30.4662ZM19.1334 30.7201H39.8661C41.3985 30.7201 42.8523 31.4238 43.808 32.614V40.7535H15.1917V32.6137C16.1475 31.4236 17.6011 30.7201 19.1334 30.7201ZM7.59585 36.6916C5.97749 36.6916 4.47034 36.0469 3.35221 34.8761C2.23478 33.706 1.66045 32.1683 1.73501 30.5462C1.8726 27.5534 4.3248 25.1012 7.31756 24.9635C8.93937 24.8881 10.4774 25.4631 11.6475 26.5806C12.8183 27.6988 13.4631 29.206 13.4631 30.8243V45.3055H9.82461C9.07224 45.3055 8.46011 44.6934 8.46011 43.941V37.5559C8.46011 37.0786 8.07315 36.6916 7.59585 36.6916ZM13.2331 48.0207C13.2331 48.5988 12.7627 49.0692 12.1846 49.0692H11.173C10.5948 49.0692 10.1244 48.5988 10.1244 48.0207V47.0339H13.2331V48.0207ZM43.8079 45.3054H15.1917V42.4819H43.8079V45.3054ZM47.8265 49.0692H46.8149C46.2367 49.0692 45.7663 48.5988 45.7663 48.0207V47.034H48.8749V48.0207C48.8749 48.5989 48.4046 49.0692 47.8265 49.0692Z" fill="white"/>
<path d="M19.0389 16.9952C18.5616 16.9952 18.1746 17.3822 18.1746 17.8595V19.371H16.6631C16.1858 19.371 15.7988 19.758 15.7988 20.2353C15.7988 20.7126 16.1858 21.0995 16.6631 21.0995H18.1746V22.6111C18.1746 23.0884 18.5616 23.4753 19.0389 23.4753C19.5162 23.4753 19.9031 23.0884 19.9031 22.6111V21.0995H21.4148C21.8921 21.0995 22.279 20.7126 22.279 20.2353C22.279 19.758 21.8921 19.371 21.4148 19.371H19.9031V17.8595C19.9031 17.3822 19.5162 16.9952 19.0389 16.9952Z" fill="white"/>
<path d="M29.4999 16.9952C29.0226 16.9952 28.6357 17.3822 28.6357 17.8595V19.371H27.124C26.6467 19.371 26.2598 19.758 26.2598 20.2353C26.2598 20.7126 26.6467 21.0995 27.124 21.0995H28.6356V22.6111C28.6356 23.0884 29.0225 23.4753 29.4998 23.4753C29.9771 23.4753 30.3641 23.0884 30.3641 22.6111V21.0995H31.8756C32.3529 21.0995 32.7399 20.7126 32.7399 20.2353C32.7399 19.758 32.3529 19.371 31.8756 19.371H30.3641V17.8595C30.3642 17.3822 29.9772 16.9952 29.4999 16.9952Z" fill="white"/>
<path d="M39.9607 16.9952C39.4834 16.9952 39.0965 17.3822 39.0965 17.8595V19.371H37.585C37.1077 19.371 36.7207 19.758 36.7207 20.2353C36.7207 20.7126 37.1077 21.0995 37.585 21.0995H39.0965V22.6111C39.0965 23.0884 39.4834 23.4753 39.9607 23.4753C40.438 23.4753 40.825 23.0884 40.825 22.6111V21.0995H42.3367C42.814 21.0995 43.2009 20.7126 43.2009 20.2353C43.2009 19.758 42.814 19.371 42.3367 19.371H40.825V17.8595C40.825 17.3822 40.438 16.9952 39.9607 16.9952Z" fill="white"/>
<path d="M51.7227 26.9295C49.5731 26.9295 47.8242 28.6784 47.8242 30.828C47.8242 32.9776 49.5731 34.7265 51.7227 34.7265C53.8723 34.7265 55.6212 32.9777 55.6212 30.828C55.6212 28.6783 53.8723 26.9295 51.7227 26.9295ZM51.7227 32.9979C50.5262 32.9979 49.5527 32.0245 49.5527 30.8279C49.5527 29.6313 50.5262 28.6579 51.7227 28.6579C52.9192 28.6579 53.8927 29.6314 53.8927 30.8279C53.8927 32.0244 52.9192 32.9979 51.7227 32.9979Z" fill="white"/>
<path d="M11.4943 30.8279C11.4943 28.6784 9.74534 26.9294 7.59576 26.9294C5.44618 26.9294 3.69727 28.6784 3.69727 30.8279C3.69727 32.9775 5.44606 34.7264 7.59576 34.7264C9.74546 34.7264 11.4943 32.9775 11.4943 30.8279ZM7.59576 32.9978C6.39928 32.9978 5.42578 32.0244 5.42578 30.8278C5.42578 29.6312 6.39917 28.6578 7.59576 28.6578C8.79235 28.6578 9.76574 29.6313 9.76574 30.8278C9.76574 32.0243 8.79224 32.9978 7.59576 32.9978Z" fill="white"/>
</g>
<defs>
<clipPath id="clip0">
<rect width="59" height="59" fill="white"/>
</clipPath>
</defs>
</svg>
