<svg width="32" height="32" viewBox="0 0 32 32" fill="none" xmlns="http://www.w3.org/2000/svg">
<g clip-path="url(#clip0)">
<mask id="path-1-inside-1" fill="white">
<path d="M21.3943 9.68659C21.3943 7.00498 19.2355 4.82323 16.5822 4.82323H16.3759C15.0638 4.82323 13.806 5.23062 12.7382 6.00147L11.5961 6.82605C10.9759 7.27387 10.6056 8.00093 10.6056 8.77123C10.6056 9.60098 11.0212 10.3587 11.7172 10.7981L12.708 11.424C13.5275 11.9418 14.1142 12.756 14.3555 13.6925L12.647 11.966C11.8354 11.1458 10.7564 10.6939 9.60883 10.6939C6.95548 10.6939 4.79672 12.8756 4.79672 15.5572V15.7658C4.79672 17.092 5.19982 18.3631 5.96241 19.4421L6.77843 20.5965C7.22126 21.2234 7.94066 21.5976 8.70297 21.5976C9.52383 21.5976 10.2736 21.1776 10.7086 20.474L11.3279 19.4728C11.8403 18.6446 12.6459 18.0515 13.5725 17.8077L11.8641 19.5342C11.0525 20.3543 10.6055 21.4448 10.6055 22.6049C10.6055 25.2865 12.7642 27.4682 15.4176 27.4682H15.624C16.9361 27.4682 18.194 27.0608 19.2616 26.29L20.4038 25.4654C21.0239 25.0176 21.3941 24.2904 21.3941 23.5202C21.3941 22.6905 20.9786 21.9328 20.2826 21.4934L19.2917 20.8674C18.4721 20.3497 17.8856 19.5353 17.6443 18.5988L19.3528 20.3255C20.1644 21.1457 21.2434 21.5976 22.3911 21.5976C25.0444 21.5976 27.2031 19.4158 27.2031 16.7342V16.5256C27.2031 15.1995 26.8 13.9284 26.0374 12.8493L25.2215 11.6949C24.7784 11.0681 24.059 10.6939 23.2968 10.6939C22.4759 10.6939 21.7262 11.1139 21.2912 11.8174L20.6717 12.8187C20.1622 13.6428 19.3531 14.2397 18.4271 14.4839L20.1357 12.7571C20.9474 11.9372 21.3943 10.8467 21.3943 9.68659ZM17.6247 16.1458C17.6247 17.0512 16.8959 17.7877 16.0001 17.7877C15.1043 17.7877 14.3755 17.0511 14.3755 16.1458C14.3755 15.2405 15.1042 14.5039 16 14.5039C16.8957 14.5039 17.6247 15.2404 17.6247 16.1458ZM10.389 18.8796L9.76968 19.8809C9.53823 20.2551 9.13943 20.4784 8.70297 20.4784C8.29766 20.4784 7.91519 20.2793 7.67945 19.9459L6.86342 18.7915C6.2358 17.9034 5.90399 16.8572 5.90399 15.7657V15.5571C5.90399 13.4926 7.56594 11.8129 9.60869 11.8129C10.4604 11.8129 11.2614 12.1481 11.8639 12.7571L13.7181 14.631C13.4342 15.0663 13.2678 15.5863 13.2678 16.1457C13.2678 16.3414 13.2887 16.5321 13.3272 16.7165C12.1141 17.0266 11.058 17.7978 10.389 18.8796ZM18.7049 21.8165L19.6959 22.4426C20.0659 22.6762 20.287 23.0793 20.287 23.5204C20.287 23.93 20.09 24.3167 19.7603 24.5549L18.618 25.3795C17.7393 26.014 16.7041 26.3493 15.6241 26.3493H15.4177C13.375 26.3493 11.713 24.6697 11.713 22.6052C11.713 21.7442 12.0447 20.9346 12.6471 20.3258L14.5014 18.4519C14.9321 18.7389 15.4468 18.907 16.0001 18.907C16.1938 18.907 16.3824 18.8859 16.5647 18.847C16.8715 20.0731 17.6344 21.1404 18.7049 21.8165ZM21.6109 13.412L22.2302 12.4107C22.4617 12.0365 22.8605 11.8132 23.2969 11.8132C23.7023 11.8132 24.0849 12.0123 24.3206 12.3457L25.1365 13.5001C25.7641 14.3882 26.0959 15.4344 26.0959 16.5259V16.7345C26.0959 18.799 24.4341 20.4787 22.3914 20.4787C21.5395 20.4787 20.7386 20.1435 20.136 19.5345L18.2819 17.6606C18.5658 17.2253 18.7322 16.7053 18.7322 16.1459C18.7322 15.9506 18.7114 15.7602 18.6731 15.5764C19.885 15.2657 20.9454 14.4885 21.6109 13.412ZM17.4987 13.8398C17.0681 13.5529 16.5534 13.3847 16 13.3847C15.8063 13.3847 15.6176 13.4059 15.4353 13.4447C15.1284 12.2185 14.3654 11.1512 13.295 10.4751L12.304 9.84902C11.934 9.61539 11.7129 9.21233 11.7129 8.77123C11.7129 8.3616 11.9099 7.97491 12.2398 7.73666L13.3819 6.91209C14.2608 6.27764 15.2959 5.9423 16.3759 5.9423H16.5822C18.6249 5.9423 20.2869 7.62194 20.2869 9.68646C20.2869 10.5474 19.9552 11.357 19.3528 11.9659L17.4987 13.8398Z"/>
<path fill-rule="evenodd" clip-rule="evenodd" d="M29.7143 16.1459C29.7143 11.4044 27.3549 7.04198 23.4028 4.47635L23.2804 4.41677C22.3031 3.84527 21.6915 3.55293 20.5174 3.07241L20.3941 3.01243C18.9823 2.53019 17.5039 2.28564 16.0001 2.28564C8.43797 2.28564 2.28577 8.50325 2.28577 16.1459C2.28577 23.3163 7.70141 29.2323 14.6158 29.9359L15.7232 30.0026C15.8154 30.0044 15.9074 30.0061 16.0001 30.0061C16.0927 30.0061 16.1847 30.0044 16.2769 30.0026L17.3843 29.9359C24.2988 29.2323 29.7143 23.3163 29.7143 16.1459ZM28.6069 16.1459C28.6069 11.7871 26.4377 7.77674 22.8043 5.41788C21.8023 4.81949 21.1968 4.52501 20.0395 4.07259C18.7423 3.62953 17.3831 3.40485 16.0001 3.40485C9.04871 3.40485 3.39331 9.12035 3.39331 16.1459C3.39331 23.1714 9.04871 28.8869 16.0002 28.8869C22.9517 28.8869 28.6069 23.1714 28.6069 16.1459Z"/>
</mask>
<path d="M21.3943 9.68659C21.3943 7.00498 19.2355 4.82323 16.5822 4.82323H16.3759C15.0638 4.82323 13.806 5.23062 12.7382 6.00147L11.5961 6.82605C10.9759 7.27387 10.6056 8.00093 10.6056 8.77123C10.6056 9.60098 11.0212 10.3587 11.7172 10.7981L12.708 11.424C13.5275 11.9418 14.1142 12.756 14.3555 13.6925L12.647 11.966C11.8354 11.1458 10.7564 10.6939 9.60883 10.6939C6.95548 10.6939 4.79672 12.8756 4.79672 15.5572V15.7658C4.79672 17.092 5.19982 18.3631 5.96241 19.4421L6.77843 20.5965C7.22126 21.2234 7.94066 21.5976 8.70297 21.5976C9.52383 21.5976 10.2736 21.1776 10.7086 20.474L11.3279 19.4728C11.8403 18.6446 12.6459 18.0515 13.5725 17.8077L11.8641 19.5342C11.0525 20.3543 10.6055 21.4448 10.6055 22.6049C10.6055 25.2865 12.7642 27.4682 15.4176 27.4682H15.624C16.9361 27.4682 18.194 27.0608 19.2616 26.29L20.4038 25.4654C21.0239 25.0176 21.3941 24.2904 21.3941 23.5202C21.3941 22.6905 20.9786 21.9328 20.2826 21.4934L19.2917 20.8674C18.4721 20.3497 17.8856 19.5353 17.6443 18.5988L19.3528 20.3255C20.1644 21.1457 21.2434 21.5976 22.3911 21.5976C25.0444 21.5976 27.2031 19.4158 27.2031 16.7342V16.5256C27.2031 15.1995 26.8 13.9284 26.0374 12.8493L25.2215 11.6949C24.7784 11.0681 24.059 10.6939 23.2968 10.6939C22.4759 10.6939 21.7262 11.1139 21.2912 11.8174L20.6717 12.8187C20.1622 13.6428 19.3531 14.2397 18.4271 14.4839L20.1357 12.7571C20.9474 11.9372 21.3943 10.8467 21.3943 9.68659ZM17.6247 16.1458C17.6247 17.0512 16.8959 17.7877 16.0001 17.7877C15.1043 17.7877 14.3755 17.0511 14.3755 16.1458C14.3755 15.2405 15.1042 14.5039 16 14.5039C16.8957 14.5039 17.6247 15.2404 17.6247 16.1458ZM10.389 18.8796L9.76968 19.8809C9.53823 20.2551 9.13943 20.4784 8.70297 20.4784C8.29766 20.4784 7.91519 20.2793 7.67945 19.9459L6.86342 18.7915C6.2358 17.9034 5.90399 16.8572 5.90399 15.7657V15.5571C5.90399 13.4926 7.56594 11.8129 9.60869 11.8129C10.4604 11.8129 11.2614 12.1481 11.8639 12.7571L13.7181 14.631C13.4342 15.0663 13.2678 15.5863 13.2678 16.1457C13.2678 16.3414 13.2887 16.5321 13.3272 16.7165C12.1141 17.0266 11.058 17.7978 10.389 18.8796ZM18.7049 21.8165L19.6959 22.4426C20.0659 22.6762 20.287 23.0793 20.287 23.5204C20.287 23.93 20.09 24.3167 19.7603 24.5549L18.618 25.3795C17.7393 26.014 16.7041 26.3493 15.6241 26.3493H15.4177C13.375 26.3493 11.713 24.6697 11.713 22.6052C11.713 21.7442 12.0447 20.9346 12.6471 20.3258L14.5014 18.4519C14.9321 18.7389 15.4468 18.907 16.0001 18.907C16.1938 18.907 16.3824 18.8859 16.5647 18.847C16.8715 20.0731 17.6344 21.1404 18.7049 21.8165ZM21.6109 13.412L22.2302 12.4107C22.4617 12.0365 22.8605 11.8132 23.2969 11.8132C23.7023 11.8132 24.0849 12.0123 24.3206 12.3457L25.1365 13.5001C25.7641 14.3882 26.0959 15.4344 26.0959 16.5259V16.7345C26.0959 18.799 24.4341 20.4787 22.3914 20.4787C21.5395 20.4787 20.7386 20.1435 20.136 19.5345L18.2819 17.6606C18.5658 17.2253 18.7322 16.7053 18.7322 16.1459C18.7322 15.9506 18.7114 15.7602 18.6731 15.5764C19.885 15.2657 20.9454 14.4885 21.6109 13.412ZM17.4987 13.8398C17.0681 13.5529 16.5534 13.3847 16 13.3847C15.8063 13.3847 15.6176 13.4059 15.4353 13.4447C15.1284 12.2185 14.3654 11.1512 13.295 10.4751L12.304 9.84902C11.934 9.61539 11.7129 9.21233 11.7129 8.77123C11.7129 8.3616 11.9099 7.97491 12.2398 7.73666L13.3819 6.91209C14.2608 6.27764 15.2959 5.9423 16.3759 5.9423H16.5822C18.6249 5.9423 20.2869 7.62194 20.2869 9.68646C20.2869 10.5474 19.9552 11.357 19.3528 11.9659L17.4987 13.8398Z" fill="#434343"/>
<path fill-rule="evenodd" clip-rule="evenodd" d="M29.7143 16.1459C29.7143 11.4044 27.3549 7.04198 23.4028 4.47635L23.2804 4.41677C22.3031 3.84527 21.6915 3.55293 20.5174 3.07241L20.3941 3.01243C18.9823 2.53019 17.5039 2.28564 16.0001 2.28564C8.43797 2.28564 2.28577 8.50325 2.28577 16.1459C2.28577 23.3163 7.70141 29.2323 14.6158 29.9359L15.7232 30.0026C15.8154 30.0044 15.9074 30.0061 16.0001 30.0061C16.0927 30.0061 16.1847 30.0044 16.2769 30.0026L17.3843 29.9359C24.2988 29.2323 29.7143 23.3163 29.7143 16.1459ZM28.6069 16.1459C28.6069 11.7871 26.4377 7.77674 22.8043 5.41788C21.8023 4.81949 21.1968 4.52501 20.0395 4.07259C18.7423 3.62953 17.3831 3.40485 16.0001 3.40485C9.04871 3.40485 3.39331 9.12035 3.39331 16.1459C3.39331 23.1714 9.04871 28.8869 16.0002 28.8869C22.9517 28.8869 28.6069 23.1714 28.6069 16.1459Z" fill="#434343"/>
<path d="M14.5658 29.9359V35.1724H14.6658V29.9359H14.5658ZM14.5658 35.1724C14.5658 35.9709 15.2087 36.6214 16.0001 36.6214V36.5214C15.2649 36.5214 14.6658 35.9167 14.6658 35.1724H14.5658ZM16.0001 36.6214C16.7914 36.6214 17.4343 35.9709 17.4343 35.1724H17.3343C17.3343 35.9167 16.7352 36.5214 16.0001 36.5214V36.6214ZM17.4343 35.1724V29.9359H17.3343V35.1724H17.4343ZM16.2269 35.1724C16.2269 35.2996 16.1246 35.4022 16.0001 35.4022V35.5022C16.1809 35.5022 16.3269 35.3538 16.3269 35.1724H16.2269ZM16.0001 35.4022C15.8755 35.4022 15.7732 35.2996 15.7732 35.1724H15.6732C15.6732 35.3538 15.8193 35.5022 16.0001 35.5022V35.4022ZM15.7732 35.1724V30.0026H15.6732V35.1724H15.7732ZM16.2269 30.0026V35.1724H16.3269V30.0026H16.2269ZM20.5447 3.03053C20.5036 3.00374 20.4586 2.98162 20.4103 2.96511L20.378 3.05975C20.4184 3.07355 20.4559 3.092 20.4901 3.1143L20.5447 3.03053ZM23.43 4.43441C23.3874 4.40675 23.3425 4.38515 23.2965 4.36945L23.2642 4.46409C23.3025 4.47716 23.3399 4.49515 23.3756 4.51829L23.43 4.43441ZM23.4028 4.47635L23.4577 4.39183L23.4466 4.38643L23.4028 4.47635ZM22.8043 5.41788L22.8587 5.33395L22.8555 5.33202L22.8043 5.41788ZM20.0395 4.07259L20.0759 3.97937L20.0718 3.97796L20.0395 4.07259ZM20.3941 3.01243L20.4382 2.92181L20.4264 2.9178L20.3941 3.01243ZM14.6158 29.9359L14.6057 30.0354L14.6098 30.0357L14.6158 29.9359ZM17.3843 29.9359L17.3903 30.0358L17.3944 30.0354L17.3843 29.9359ZM15.7232 30.0026L15.7172 30.1025L15.7212 30.1026L15.7232 30.0026ZM16.2769 30.0026L16.2789 30.1027L16.2829 30.1024L16.2769 30.0026ZM12.7382 6.00147L12.6797 5.92039L12.6797 5.9204L12.7382 6.00147ZM11.5961 6.82605L11.5375 6.74497L11.5375 6.74498L11.5961 6.82605ZM11.7172 10.7981L11.7706 10.7136L11.7706 10.7135L11.7172 10.7981ZM12.708 11.424L12.7615 11.3395L12.7615 11.3395L12.708 11.424ZM14.3555 13.6925L14.2844 13.7628L14.5446 14.0258L14.4523 13.6676L14.3555 13.6925ZM12.647 11.966L12.5759 12.0363L12.5759 12.0363L12.647 11.966ZM5.96241 19.4421L5.88074 19.4999L5.88075 19.4999L5.96241 19.4421ZM6.77843 20.5965L6.86011 20.5388L6.86009 20.5387L6.77843 20.5965ZM10.7086 20.474L10.6236 20.4214L10.6236 20.4215L10.7086 20.474ZM11.3279 19.4728L11.2429 19.4202L11.2429 19.4202L11.3279 19.4728ZM13.5725 17.8077L13.6436 17.878L13.9011 17.6178L13.5471 17.711L13.5725 17.8077ZM11.8641 19.5342L11.9351 19.6045L11.9351 19.6045L11.8641 19.5342ZM19.2616 26.29L19.203 26.2089L19.203 26.2089L19.2616 26.29ZM20.4038 25.4654L20.4624 25.5465L20.4624 25.5465L20.4038 25.4654ZM20.2826 21.4934L20.2292 21.5779L20.2292 21.5779L20.2826 21.4934ZM19.2917 20.8674L19.2383 20.952H19.2383L19.2917 20.8674ZM17.6443 18.5988L17.7154 18.5285L17.4552 18.2655L17.5475 18.6238L17.6443 18.5988ZM19.3528 20.3255L19.2817 20.3958L19.3528 20.3255ZM26.0374 12.8493L26.119 12.7916L26.0374 12.8493ZM25.2215 11.6949L25.3032 11.6372L25.3031 11.6371L25.2215 11.6949ZM21.2912 11.8174L21.3762 11.87L21.3762 11.87L21.2912 11.8174ZM20.6717 12.8187L20.5867 12.7661L20.5866 12.7661L20.6717 12.8187ZM18.4271 14.4839L18.356 14.4136L18.0983 14.6741L18.4526 14.5806L18.4271 14.4839ZM20.1357 12.7571L20.0646 12.6868L20.0646 12.6868L20.1357 12.7571ZM10.389 18.8796L10.474 18.9322L10.474 18.9322L10.389 18.8796ZM9.76968 19.8809L9.68463 19.8283L9.68463 19.8283L9.76968 19.8809ZM7.67945 19.9459L7.59779 20.0036L7.5978 20.0037L7.67945 19.9459ZM6.86342 18.7915L6.78176 18.8492L6.78176 18.8492L6.86342 18.7915ZM11.8639 12.7571L11.7928 12.8275L11.7928 12.8275L11.8639 12.7571ZM13.7181 14.631L13.8019 14.6856L13.846 14.618L13.7892 14.5606L13.7181 14.631ZM13.3272 16.7165L13.352 16.8133L13.4447 16.7897L13.4251 16.696L13.3272 16.7165ZM18.7049 21.8165L18.7584 21.732L18.7583 21.732L18.7049 21.8165ZM19.6959 22.4426L19.6425 22.5271L19.6425 22.5271L19.6959 22.4426ZM19.7603 24.5549L19.8188 24.636L19.8189 24.636L19.7603 24.5549ZM18.618 25.3795L18.5595 25.2984L18.5595 25.2984L18.618 25.3795ZM12.6471 20.3258L12.5761 20.2554L12.5761 20.2554L12.6471 20.3258ZM14.5014 18.4519L14.5568 18.3687L14.4882 18.323L14.4303 18.3816L14.5014 18.4519ZM16.5647 18.847L16.6617 18.8227L16.6383 18.7291L16.5439 18.7492L16.5647 18.847ZM21.6109 13.412L21.5259 13.3594L21.5259 13.3594L21.6109 13.412ZM22.2302 12.4107L22.3153 12.4633L22.3153 12.4633L22.2302 12.4107ZM24.3206 12.3457L24.4023 12.288L24.4023 12.2879L24.3206 12.3457ZM25.1365 13.5001L25.2182 13.4424H25.2182L25.1365 13.5001ZM20.136 19.5345L20.2071 19.4641L20.136 19.5345ZM18.2819 17.6606L18.1981 17.606L18.1541 17.6736L18.2108 17.731L18.2819 17.6606ZM18.6731 15.5764L18.6483 15.4795L18.5557 15.5033L18.5752 15.5968L18.6731 15.5764ZM17.4987 13.8398L17.4432 13.923L17.5118 13.9687L17.5698 13.9102L17.4987 13.8398ZM15.4353 13.4447L15.3383 13.469L15.3618 13.5627L15.4562 13.5425L15.4353 13.4447ZM13.295 10.4751L13.2416 10.5596L13.2416 10.5596L13.295 10.4751ZM12.304 9.84902L12.3574 9.76448L12.3574 9.76446L12.304 9.84902ZM12.2398 7.73666L12.1812 7.65558L12.1812 7.65559L12.2398 7.73666ZM13.3819 6.91209L13.3234 6.83101L13.3234 6.83101L13.3819 6.91209ZM19.3528 11.9659L19.2817 11.8955L19.2817 11.8955L19.3528 11.9659ZM23.2804 4.41677L23.2297 4.50334L23.2366 4.50669L23.2804 4.41677ZM20.5174 3.07241L20.4736 3.16252L20.4795 3.16496L20.5174 3.07241ZM29.8143 16.1459C29.8143 11.3708 27.4379 6.97669 23.4573 4.39247L23.3484 4.56022C27.2718 7.10728 29.6143 11.438 29.6143 16.1459H29.8143ZM22.7498 5.50175C26.3546 7.84204 28.5069 11.8207 28.5069 16.1459H28.7069C28.7069 11.7535 26.5207 7.71145 22.8587 5.334L22.7498 5.50175ZM28.5069 16.1459C28.5069 23.1172 22.8954 28.7869 16.0002 28.7869V28.9869C23.0079 28.9869 28.7069 23.2256 28.7069 16.1459H28.5069ZM16.0002 28.7869C9.10493 28.7869 3.49331 23.1172 3.49331 16.1459H3.29331C3.29331 23.2256 8.99249 28.9869 16.0002 28.9869V28.7869ZM3.49331 16.1459C3.49331 9.17458 9.10494 3.50485 16.0001 3.50485V3.30485C8.99249 3.30485 3.29331 9.06612 3.29331 16.1459H3.49331ZM16.0001 3.50485C17.3722 3.50485 18.7205 3.72775 20.0071 4.16723L20.0718 3.97796C18.7641 3.53131 17.394 3.30485 16.0001 3.30485V3.50485ZM20.4264 2.9178C19.0041 2.43198 17.5148 2.18564 16.0001 2.18564V2.38564C17.493 2.38564 18.9605 2.62841 20.3618 3.10706L20.4264 2.9178ZM16.0001 2.18564C8.38175 2.18564 2.18577 8.44902 2.18577 16.1459H2.38577C2.38577 8.55747 8.4942 2.38564 16.0001 2.38564V2.18564ZM2.18577 16.1459C2.18577 23.3674 7.63996 29.3266 14.6057 30.0354L14.6259 29.8364C7.76286 29.1381 2.38577 23.2653 2.38577 16.1459H2.18577ZM17.3944 30.0354C24.3603 29.3266 29.8143 23.3674 29.8143 16.1459H29.6143C29.6143 23.2653 24.2374 29.1381 17.3742 29.8364L17.3944 30.0354ZM15.7212 30.1026C15.8134 30.1044 15.9063 30.1061 16.0001 30.1061V29.9061C15.9085 29.9061 15.8174 29.9044 15.7252 29.9026L15.7212 30.1026ZM16.0001 30.1061C16.0938 30.1061 16.1867 30.1044 16.2789 30.1026L16.2749 29.9026C16.1827 29.9044 16.0916 29.9061 16.0001 29.9061V30.1061ZM14.6098 30.0357L15.7172 30.1024L15.7292 29.9028L14.6218 29.8361L14.6098 30.0357ZM16.2829 30.1024L17.3903 30.0357L17.3783 29.8361L16.2709 29.9028L16.2829 30.1024ZM21.4943 9.68659C21.4943 6.95075 19.2918 4.72323 16.5822 4.72323V4.92323C19.1793 4.92323 21.2943 7.05921 21.2943 9.68659H21.4943ZM16.5822 4.72323H16.3759V4.92323H16.5822V4.72323ZM16.3759 4.72323C15.0427 4.72323 13.7645 5.13729 12.6797 5.92039L12.7968 6.08256C13.8476 5.32395 15.0849 4.92323 16.3759 4.92323V4.72323ZM12.6797 5.9204L11.5375 6.74497L11.6546 6.90713L12.7968 6.08255L12.6797 5.9204ZM11.5375 6.74498C10.8911 7.21175 10.5056 7.96908 10.5056 8.77123H10.7056C10.7056 8.03279 11.0607 7.33599 11.6546 6.90712L11.5375 6.74498ZM10.5056 8.77123C10.5056 9.63496 10.9385 10.4247 11.6638 10.8827L11.7706 10.7135C11.1039 10.2926 10.7056 9.56699 10.7056 8.77123H10.5056ZM11.6638 10.8826L12.6546 11.5086L12.7615 11.3395L11.7706 10.7136L11.6638 10.8826ZM12.6546 11.5086C13.4523 12.0125 14.0236 12.8053 14.2586 13.7175L14.4523 13.6676C14.2048 12.7068 13.6028 11.8711 12.7615 11.3395L12.6546 11.5086ZM14.4265 13.6222L12.7181 11.8957L12.5759 12.0363L14.2844 13.7628L14.4265 13.6222ZM12.7181 11.8957C11.8878 11.0566 10.7833 10.5939 9.60883 10.5939V10.7939C10.7295 10.7939 11.783 11.235 12.5759 12.0363L12.7181 11.8957ZM9.60883 10.5939C6.89925 10.5939 4.69672 12.8214 4.69672 15.5572H4.89672C4.89672 12.9299 7.0117 10.7939 9.60883 10.7939V10.5939ZM4.69672 15.5572V15.7658H4.89672V15.5572H4.69672ZM4.69672 15.7658C4.69672 17.1125 5.10618 18.4039 5.88074 19.4999L6.04407 19.3844C5.29346 18.3223 4.89672 17.0714 4.89672 15.7658H4.69672ZM5.88075 19.4999L6.69677 20.6542L6.86009 20.5387L6.04407 19.3844L5.88075 19.4999ZM6.69675 20.6542C7.15816 21.3074 7.90791 21.6976 8.70297 21.6976V21.4976C7.9734 21.4976 7.28435 21.1393 6.86011 20.5388L6.69675 20.6542ZM8.70297 21.6976C9.55881 21.6976 10.3406 21.2594 10.7937 20.5266L10.6236 20.4215C10.2065 21.0958 9.48886 21.4976 8.70297 21.4976V21.6976ZM10.7937 20.5267L11.413 19.5254L11.2429 19.4202L10.6236 20.4214L10.7937 20.5267ZM11.413 19.5254C11.9118 18.7189 12.6962 18.1417 13.598 17.9044L13.5471 17.711C12.5956 17.9614 11.7687 18.5702 11.2429 19.4202L11.413 19.5254ZM13.5014 17.7373L11.793 19.4639L11.9351 19.6045L13.6436 17.878L13.5014 17.7373ZM11.793 19.4639C10.9628 20.3028 10.5055 21.4186 10.5055 22.6049H10.7055C10.7055 21.471 11.1422 20.4058 11.9351 19.6045L11.793 19.4639ZM10.5055 22.6049C10.5055 25.3407 12.708 27.5682 15.4176 27.5682V27.3682C12.8205 27.3682 10.7055 25.2323 10.7055 22.6049H10.5055ZM15.4176 27.5682H15.624V27.3682H15.4176V27.5682ZM15.624 27.5682C16.9572 27.5682 18.2356 27.1542 19.3201 26.3711L19.203 26.2089C18.1524 26.9675 16.915 27.3682 15.624 27.3682V27.5682ZM19.3201 26.3711L20.4624 25.5465L20.3453 25.3843L19.203 26.2089L19.3201 26.3711ZM20.4624 25.5465C21.1086 25.0797 21.4941 24.3222 21.4941 23.5202H21.2941C21.2941 24.2585 20.9391 24.9555 20.3453 25.3844L20.4624 25.5465ZM21.4941 23.5202C21.4941 22.6565 21.0613 21.8667 20.336 21.4088L20.2292 21.5779C20.8959 21.9988 21.2941 22.7245 21.2941 23.5202H21.4941ZM20.336 21.4088L19.3451 20.7829L19.2383 20.952L20.2292 21.5779L20.336 21.4088ZM19.3451 20.7829C18.5474 20.2789 17.9762 19.4861 17.7412 18.5739L17.5475 18.6238C17.795 19.5846 18.3968 20.4204 19.2383 20.952L19.3451 20.7829ZM17.5732 18.6692L19.2817 20.3958L19.4239 20.2551L17.7154 18.5285L17.5732 18.6692ZM19.2817 20.3958C20.1119 21.2349 21.2165 21.6976 22.3911 21.6976V21.4976C21.2703 21.4976 20.2168 21.0565 19.4239 20.2551L19.2817 20.3958ZM22.3911 21.6976C25.1007 21.6976 27.3031 19.4701 27.3031 16.7342H27.1031C27.1031 19.3616 24.9882 21.4976 22.3911 21.4976V21.6976ZM27.3031 16.7342V16.5256H27.1031V16.7342H27.3031ZM27.3031 16.5256C27.3031 15.1789 26.8936 13.8876 26.119 12.7916L25.9557 12.907C26.7063 13.9692 27.1031 15.2201 27.1031 16.5256H27.3031ZM26.119 12.7916L25.3032 11.6372L25.1398 11.7526L25.9557 12.907L26.119 12.7916ZM25.3031 11.6371C24.8415 10.9841 24.0917 10.5939 23.2968 10.5939V10.7939C24.0262 10.7939 24.7153 11.1521 25.1398 11.7526L25.3031 11.6371ZM23.2968 10.5939C22.441 10.5939 21.6592 11.0321 21.2061 11.7648L21.3762 11.87C21.7932 11.1956 22.5109 10.7939 23.2968 10.7939V10.5939ZM21.2061 11.7648L20.5867 12.7661L20.7567 12.8713L21.3762 11.87L21.2061 11.7648ZM20.5866 12.7661C20.0906 13.5685 19.3028 14.1495 18.4016 14.3872L18.4526 14.5806C19.4033 14.3298 20.2337 13.7172 20.7568 12.8713L20.5866 12.7661ZM18.4982 14.5543L20.2068 12.8275L20.0646 12.6868L18.356 14.4136L18.4982 14.5543ZM20.2068 12.8275C21.0372 11.9887 21.4943 10.8728 21.4943 9.68659H21.2943C21.2943 10.8205 20.8577 11.8857 20.0646 12.6868L20.2068 12.8275ZM17.5247 16.1458C17.5247 16.997 16.8396 17.6877 16.0001 17.6877V17.8877C16.9521 17.8877 17.7247 17.1055 17.7247 16.1458H17.5247ZM16.0001 17.6877C15.1606 17.6877 14.4755 16.9969 14.4755 16.1458H14.2755C14.2755 17.1053 15.0481 17.8877 16.0001 17.8877V17.6877ZM14.4755 16.1458C14.4755 15.2947 15.1604 14.6039 16 14.6039V14.4039C15.048 14.4039 14.2755 15.1863 14.2755 16.1458H14.4755ZM16 14.6039C16.8395 14.6039 17.5247 15.2946 17.5247 16.1458H17.7247C17.7247 15.1861 16.9519 14.4039 16 14.4039V14.6039ZM10.304 18.827L9.68463 19.8283L9.85472 19.9335L10.474 18.9322L10.304 18.827ZM9.68463 19.8283C9.47124 20.1733 9.10446 20.3784 8.70297 20.3784V20.5784C9.17439 20.5784 9.60522 20.3369 9.85473 19.9335L9.68463 19.8283ZM8.70297 20.3784C8.33043 20.3784 7.97827 20.1953 7.7611 19.8882L7.5978 20.0037C7.8521 20.3633 8.26488 20.5784 8.70297 20.5784V20.3784ZM7.76111 19.8882L6.94508 18.7337L6.78176 18.8492L7.59779 20.0036L7.76111 19.8882ZM6.94509 18.7338C6.32944 17.8626 6.00399 16.8366 6.00399 15.7657H5.80399C5.80399 16.8778 6.14216 17.9441 6.78176 18.8492L6.94509 18.7338ZM6.00399 15.7657V15.5571H5.80399V15.7657H6.00399ZM6.00399 15.5571C6.00399 13.5468 7.62216 11.9129 9.60869 11.9129V11.7129C7.50971 11.7129 5.80399 13.4384 5.80399 15.5571H6.00399ZM9.60869 11.9129C10.4336 11.9129 11.2089 12.2373 11.7928 12.8275L11.935 12.6868C11.3138 12.0589 10.4873 11.7129 9.60869 11.7129V11.9129ZM11.7928 12.8275L13.6471 14.7013L13.7892 14.5606L11.935 12.6868L11.7928 12.8275ZM13.6344 14.5763C13.3403 15.0273 13.1678 15.5662 13.1678 16.1457H13.3678C13.3678 15.6065 13.5282 15.1053 13.8019 14.6856L13.6344 14.5763ZM13.1678 16.1457C13.1678 16.3485 13.1895 16.5461 13.2293 16.7369L13.4251 16.696C13.388 16.5181 13.3678 16.3342 13.3678 16.1457H13.1678ZM13.3025 16.6196C12.0642 16.9361 10.9866 17.7231 10.3039 18.827L10.474 18.9322C11.1295 17.8724 12.1639 17.1171 13.352 16.8133L13.3025 16.6196ZM18.6515 21.9011L19.6425 22.5271L19.7493 22.358L18.7584 21.732L18.6515 21.9011ZM19.6425 22.5271C19.9833 22.7423 20.187 23.1133 20.187 23.5204H20.387C20.387 23.0453 20.1486 22.6102 19.7493 22.358L19.6425 22.5271ZM20.187 23.5204C20.187 23.8981 20.0053 24.2546 19.7017 24.4739L19.8189 24.636C20.1748 24.3788 20.387 23.9619 20.387 23.5204H20.187ZM19.7018 24.4739L18.5595 25.2984L18.6765 25.4606L19.8188 24.636L19.7018 24.4739ZM18.5595 25.2984C17.6977 25.9206 16.683 26.2493 15.6241 26.2493V26.4493C16.7252 26.4493 17.7808 26.1073 18.6765 25.4606L18.5595 25.2984ZM15.6241 26.2493H15.4177V26.4493H15.6241V26.2493ZM15.4177 26.2493C13.4312 26.2493 11.813 24.6154 11.813 22.6052H11.613C11.613 24.7239 13.3188 26.4493 15.4177 26.4493V26.2493ZM11.813 22.6052C11.813 21.7704 12.1344 20.9861 12.7182 20.3961L12.5761 20.2554C11.955 20.8831 11.613 21.718 11.613 22.6052H11.813ZM12.7182 20.3961L14.5724 18.5223L14.4303 18.3816L12.5761 20.2554L12.7182 20.3961ZM14.4459 18.5352C14.8924 18.8325 15.4262 19.007 16.0001 19.007V18.807C15.4674 18.807 14.9719 18.6452 14.5568 18.3687L14.4459 18.5352ZM16.0001 19.007C16.2011 19.007 16.3967 18.9851 16.5856 18.9448L16.5439 18.7492C16.3681 18.7867 16.1865 18.807 16.0001 18.807V19.007ZM16.4677 18.8713C16.7806 20.1219 17.5589 21.211 18.6515 21.9011L18.7583 21.732C17.7098 21.0698 16.9624 20.0243 16.6617 18.8227L16.4677 18.8713ZM21.696 13.4646L22.3153 12.4633L22.1452 12.3581L21.5259 13.3594L21.696 13.4646ZM22.3153 12.4633C22.5287 12.1183 22.8955 11.9132 23.2969 11.9132V11.7132C22.8255 11.7132 22.3947 11.9547 22.1452 12.3581L22.3153 12.4633ZM23.2969 11.9132C23.6695 11.9132 24.0218 12.0963 24.239 12.4034L24.4023 12.2879C24.148 11.9283 23.735 11.7132 23.2969 11.7132V11.9132ZM24.2389 12.4034L25.0548 13.5579L25.2182 13.4424L24.4023 12.288L24.2389 12.4034ZM25.0548 13.5579C25.6705 14.429 25.9959 15.455 25.9959 16.5259H26.1959C26.1959 15.4138 25.8578 14.3475 25.2182 13.4424L25.0548 13.5579ZM25.9959 16.5259V16.7345H26.1959V16.5259H25.9959ZM25.9959 16.7345C25.9959 18.7448 24.3779 20.3787 22.3914 20.3787V20.5787C24.4903 20.5787 26.1959 18.8532 26.1959 16.7345H25.9959ZM22.3914 20.3787C21.5664 20.3787 20.791 20.0543 20.2071 19.4641L20.0649 19.6048C20.6861 20.2327 21.5126 20.5787 22.3914 20.5787V20.3787ZM20.2071 19.4641L18.353 17.5903L18.2108 17.731L20.0649 19.6048L20.2071 19.4641ZM18.3657 17.7153C18.6598 17.2643 18.8322 16.7254 18.8322 16.1459H18.6322C18.6322 16.6851 18.4719 17.1863 18.1981 17.606L18.3657 17.7153ZM18.8322 16.1459C18.8322 15.9435 18.8107 15.7463 18.771 15.556L18.5752 15.5968C18.6122 15.7742 18.6322 15.9578 18.6322 16.1459H18.8322ZM18.6979 15.6733C19.9349 15.3561 21.0168 14.5631 21.696 13.4646L21.5259 13.3594C20.8739 14.414 19.8351 15.1753 18.6483 15.4795L18.6979 15.6733ZM17.5541 13.7566C17.1078 13.4592 16.574 13.2847 16 13.2847V13.4847C16.5328 13.4847 17.0283 13.6466 17.4432 13.923L17.5541 13.7566ZM16 13.2847C15.799 13.2847 15.6033 13.3067 15.4145 13.3469L15.4562 13.5425C15.6319 13.5051 15.8136 13.4847 16 13.4847V13.2847ZM15.5323 13.4205C15.2193 12.1697 14.4409 11.0806 13.3484 10.3905L13.2416 10.5596C14.2899 11.2218 15.0376 12.2673 15.3383 13.469L15.5323 13.4205ZM13.3484 10.3905L12.3574 9.76448L12.2506 9.93356L13.2416 10.5596L13.3484 10.3905ZM12.3574 9.76446C12.0167 9.54933 11.8129 9.17835 11.8129 8.77123H11.6129C11.6129 9.24632 11.8513 9.68144 12.2506 9.93357L12.3574 9.76446ZM11.8129 8.77123C11.8129 8.39347 11.9947 8.03704 12.2983 7.81773L12.1812 7.65559C11.8251 7.91279 11.6129 8.32973 11.6129 8.77123H11.8129ZM12.2983 7.81774L13.4404 6.99317L13.3234 6.83101L12.1812 7.65558L12.2983 7.81774ZM13.4404 6.99317C14.3023 6.37097 15.317 6.0423 16.3759 6.0423V5.8423C15.2748 5.8423 14.2192 6.18431 13.3234 6.83101L13.4404 6.99317ZM16.3759 6.0423H16.5822V5.8423H16.3759V6.0423ZM16.5822 6.0423C18.5687 6.0423 20.1869 7.67617 20.1869 9.68646H20.3869C20.3869 7.56772 18.6812 5.8423 16.5822 5.8423V6.0423ZM20.1869 9.68646C20.1869 10.5212 19.8655 11.3055 19.2817 11.8955L19.4239 12.0362C20.0449 11.4085 20.3869 10.5736 20.3869 9.68646H20.1869ZM19.2817 11.8955L17.4276 13.7695L17.5698 13.9102L19.4239 12.0362L19.2817 11.8955ZM20.0031 4.16573C21.1556 4.61627 21.7561 4.90836 22.753 5.50373L22.8555 5.33202C21.8485 4.73062 21.238 4.43376 20.0759 3.97946L20.0031 4.16573ZM23.3308 4.33044C22.3487 3.75612 21.7328 3.46178 20.5553 2.97986L20.4795 3.16496C21.6502 3.64409 22.2574 3.93443 23.2299 4.50309L23.3308 4.33044ZM23.4466 4.38643L23.3241 4.32685L23.2366 4.50669L23.3591 4.56627L23.4466 4.38643ZM20.5611 2.98249L20.4379 2.92251L20.3504 3.10235L20.4736 3.16233L20.5611 2.98249Z" fill="white" mask="url(#path-1-inside-1)"/>
</g>
<defs>
<clipPath id="clip0">
<rect width="32" height="32" fill="white"/>
</clipPath>
</defs>
</svg>
