<svg width="32" height="32" viewBox="0 0 32 32" fill="none" xmlns="http://www.w3.org/2000/svg">
<path d="M3.68258 16.8072L4.27192 17.0599V27.3196C4.27231 27.6515 4.40434 27.9698 4.63904 28.2045C4.87375 28.4392 5.19195 28.5711 5.52383 28.5714H26.4762C26.8081 28.5711 27.1263 28.4392 27.361 28.2045C27.5957 27.9698 27.7277 27.6515 27.7281 27.3196V17.0599L28.3177 16.8072C28.393 16.7748 28.4572 16.7211 28.5023 16.6526C28.5474 16.5841 28.5715 16.5039 28.5714 16.4219V10.554C28.5711 10.2206 28.4385 9.901 28.2028 9.66527C27.9671 9.42954 27.6476 9.29694 27.3143 9.29655H25.2191V8.87741C25.2187 8.54404 25.0861 8.22442 24.8504 7.98869C24.6148 7.75296 24.2952 7.62036 23.9619 7.61999V7.20085C23.9608 6.20073 23.5631 5.24189 22.8561 4.5347C22.149 3.82751 21.1904 3.42971 20.1905 3.42859H11.8095C10.8096 3.42971 9.85102 3.82751 9.14398 4.5347C8.43694 5.24189 8.03924 6.20073 8.03811 7.20085V7.61999C7.70481 7.62036 7.38527 7.75296 7.14959 7.98869C6.91391 8.22442 6.78134 8.54404 6.78097 8.87741V9.29655H4.68573C4.35244 9.29694 4.0329 9.42954 3.79723 9.66527C3.56155 9.901 3.42898 10.2206 3.42859 10.554V16.4219C3.42859 16.504 3.45266 16.5842 3.49781 16.6527C3.54296 16.7211 3.6072 16.7749 3.68258 16.8072ZM5.09954 27.3196V17.4145L9.54951 19.322C9.60159 19.3443 9.65765 19.3559 9.7143 19.3559H13.4857V19.7751C13.4862 20.1827 13.6053 20.5813 13.8286 20.9223C14.0518 21.2633 14.3695 21.5319 14.7429 21.6952V27.7443H5.52383C5.4113 27.7441 5.30345 27.6993 5.22391 27.6196C5.14438 27.54 5.09965 27.4321 5.09954 27.3196ZM10.5524 7.61999V7.20085C10.5528 6.86748 10.6853 6.54786 10.921 6.31213C11.1567 6.0764 11.4762 5.9438 11.8095 5.94343H20.1905C20.5238 5.9438 20.8433 6.0764 21.079 6.31213C21.3147 6.54786 21.4473 6.86748 21.4476 7.20085V7.61999C21.1143 7.62036 20.7948 7.75296 20.5591 7.98869C20.3234 8.22442 20.1909 8.54404 20.1905 8.87741V9.29655H11.8095V8.87741C11.8092 8.54404 11.6766 8.22442 11.4409 7.98869C11.2052 7.75296 10.8857 7.62036 10.5524 7.61999ZM15.1619 10.1348H16.8381V16.0028H15.1619V10.1348ZM15.1619 16.8411H16.8381C17.1714 16.8414 17.491 16.974 17.7266 17.2098C17.9623 17.4455 18.0949 17.7651 18.0953 18.0985V18.5176H13.9048V18.0985C13.9052 17.7651 14.0377 17.4455 14.2734 17.2098C14.5091 16.974 14.8286 16.8414 15.1619 16.8411ZM16.4191 27.7443H15.581V21.8708H16.4191V27.7443ZM16.4191 21.0325H15.581C15.2477 21.0321 14.9281 20.8995 14.6924 20.6638C14.4568 20.428 14.3242 20.1084 14.3238 19.7751V19.3559H17.6762V19.7751C17.6758 20.1084 17.5433 20.428 17.3076 20.6638C17.0719 20.8995 16.7524 21.0321 16.4191 21.0325ZM26.9008 27.3196C26.9006 27.4322 26.8559 27.5401 26.7763 27.6197C26.6967 27.6994 26.5888 27.7441 26.4762 27.7443H17.2572V21.6952C17.6305 21.5319 17.9482 21.2633 18.1715 20.9223C18.3947 20.5813 18.5138 20.1827 18.5143 19.7751V19.3559H22.2857C22.3425 19.3559 22.3986 19.3444 22.4508 19.322L26.9008 17.4145V27.3196ZM27.7334 10.554V16.1456L22.1997 18.5176H18.9334V18.0985C18.9329 17.6909 18.8138 17.2922 18.5905 16.9512C18.3673 16.6102 18.0496 16.3417 17.6762 16.1783V10.1348H27.3143C27.4254 10.135 27.5319 10.1792 27.6105 10.2577C27.689 10.3363 27.7332 10.4428 27.7334 10.554ZM24.381 8.87741V9.29655H21.0286V8.87741C21.0287 8.76629 21.0729 8.65975 21.1515 8.58117C21.23 8.50259 21.3365 8.4584 21.4476 8.45827H23.9619C24.073 8.4584 24.1795 8.50259 24.2581 8.58117C24.3367 8.65975 24.3808 8.76629 24.381 8.87741ZM8.87621 7.20085C8.87708 6.42298 9.18641 5.67722 9.73633 5.12718C10.2862 4.57714 11.0318 4.26774 11.8095 4.26687H20.1905C20.9682 4.26774 21.7138 4.57714 22.2637 5.12718C22.8136 5.67722 23.123 6.42298 23.1238 7.20085V7.61999H22.2857V7.20085C22.2851 6.64523 22.0642 6.11254 21.6714 5.71966C21.2786 5.32677 20.746 5.10577 20.1905 5.10515H11.8095C11.254 5.10577 10.7215 5.32677 10.3287 5.71966C9.93587 6.11254 9.71493 6.64523 9.7143 7.20085V7.61999H8.87621V7.20085ZM7.61907 8.87741C7.61919 8.76629 7.66338 8.65975 7.74194 8.58117C7.8205 8.50259 7.92701 8.4584 8.03811 8.45827H10.5524C10.6635 8.4584 10.77 8.50259 10.8486 8.58117C10.9271 8.65975 10.9713 8.76629 10.9714 8.87741V9.29655H7.61907V8.87741ZM4.26668 10.554C4.26681 10.4428 4.311 10.3363 4.38956 10.2577C4.46812 10.1792 4.57463 10.135 4.68573 10.1348H14.3238V16.1783C13.9505 16.3417 13.6328 16.6102 13.4095 16.9512C13.1863 17.2922 13.0671 17.6909 13.0667 18.0985V18.5176H9.80031L4.26668 16.1456V10.554Z" fill="#434343"/>
</svg>
