<svg width="32" height="32" viewBox="0 0 32 32" fill="none" xmlns="http://www.w3.org/2000/svg">
<path d="M20.1187 12.6372C20.1277 12.6291 20.137 12.6214 20.1455 12.6128C20.2629 12.4947 20.3282 12.3347 20.3271 12.1683L20.2971 7.56275C20.2948 7.21919 20.0156 6.94181 19.672 6.94181H16.6399V0.625C16.6399 0.279875 16.36 0 16.0149 0C15.6697 0 15.3899 0.279875 15.3899 0.625V6.94181H12.3277C12.1612 6.94181 12.0016 7.00825 11.8843 7.12631C11.7669 7.24444 11.7015 7.40438 11.7027 7.57088L11.7327 12.1764C11.7338 12.3486 11.8045 12.5041 11.918 12.6164C9.41874 14.0269 7.72974 16.69 7.72974 19.7367C7.72974 24.2558 11.4397 27.9324 15.9998 27.9324C20.5599 27.9324 24.2699 24.2558 24.2699 19.7367C24.2699 16.7051 22.5977 14.0529 20.1187 12.6372ZM12.9786 11.5473L12.9567 8.19181H19.0511L19.073 11.5473H12.9786ZM15.9999 26.6824C12.1289 26.6824 8.9798 23.5665 8.9798 19.7367C8.9798 15.9102 12.129 12.7973 15.9999 12.7973C19.8707 12.7973 23.0199 15.9103 23.0199 19.7367C23.0199 23.5665 19.8708 26.6824 15.9999 26.6824Z" fill="#434343"/>
<path d="M16 29.5333C15.6549 29.5333 15.375 29.8132 15.375 30.1583V31.375C15.375 31.7201 15.6549 32 16 32C16.3451 32 16.625 31.7201 16.625 31.375V30.1583C16.625 29.8132 16.3451 29.5333 16 29.5333Z" fill="#434343"/>
<path d="M4.94927 18.5903H3.7207C3.37558 18.5903 3.0957 18.8702 3.0957 19.2153C3.0957 19.5605 3.37558 19.8403 3.7207 19.8403H4.94927C5.29439 19.8403 5.57427 19.5605 5.57427 19.2153C5.57427 18.8702 5.29445 18.5903 4.94927 18.5903Z" fill="#434343"/>
<path d="M28.2791 18.5903H27.0505C26.7054 18.5903 26.4255 18.8702 26.4255 19.2153C26.4255 19.5605 26.7054 19.8403 27.0505 19.8403H28.2791C28.6242 19.8403 28.9041 19.5605 28.9041 19.2153C28.9041 18.8702 28.6242 18.5903 28.2791 18.5903Z" fill="#434343"/>
<path d="M7.7463 26.5091L6.87762 27.3695C6.6323 27.6123 6.63043 28.0081 6.8733 28.2533C6.99555 28.3768 7.15643 28.4386 7.31737 28.4386C7.4763 28.4386 7.6353 28.3783 7.75712 28.2576L8.6258 27.3973C8.87112 27.1545 8.87299 26.7587 8.63012 26.5135C8.38724 26.2681 7.99155 26.2663 7.7463 26.5091Z" fill="#434343"/>
<path d="M24.2535 26.5091C24.0083 26.2662 23.6125 26.2682 23.3696 26.5134C23.1267 26.7586 23.1287 27.1544 23.3739 27.3973L24.2426 28.2576C24.3644 28.3783 24.5234 28.4386 24.6824 28.4386C24.8433 28.4386 25.0042 28.3767 25.1264 28.2533C25.3693 28.0081 25.3674 27.6123 25.1221 27.3694L24.2535 26.5091Z" fill="#434343"/>
</svg>
