<svg width="246" height="580" viewBox="0 0 246 580" fill="none" xmlns="http://www.w3.org/2000/svg">
<g opacity="0.1">
<path d="M170.978 492.893L170.978 567.248C218.903 587.929 245 587.267 245 515.771C244.847 439.757 218.734 429.976 185.305 409.957C148.209 391.409 131.841 401.061 106.508 435.696C93.6015 453.942 84.8775 458.357 65.9155 452.855C34.8742 441.415 37.262 427.116 68.3033 435.696L88.5393 443.403L88.5393 371.907C47.5763 358.022 26.1476 347.701 10.9962 375.639C-10.577 423.248 6.38659 487.328 27.7108 507.192C70.6911 547.23 116.059 550.089 142.325 515.771L161.427 490.033C172.661 476.074 178.916 481.158 190.081 487.173C214.716 504.254 207.071 503.903 170.978 492.893Z" fill="white"/>
<path d="M240.224 289.844L240.224 414.124L194.856 395.658L194.856 349.901L149.488 329.882L149.488 372.779L106.508 355.62L106.508 315.582L53.9765 292.704L53.9765 344.181L8.60846 324.162L8.60847 195.469L240.224 289.844Z" fill="white"/>
<path d="M240.224 95.3747L240.224 161.151L163.815 161.151L240.224 192.609L240.224 261.246L8.60847 166.871L8.60847 98.2346L85.0179 101.094L8.60847 69.6362L8.60847 0.99999L240.224 95.3747Z" fill="white"/>
<path d="M170.978 492.893L170.978 567.248C218.903 587.929 245 587.267 245 515.771C244.847 439.757 218.734 429.976 185.305 409.957C148.209 391.409 131.841 401.061 106.508 435.696C93.6015 453.942 84.8775 458.357 65.9155 452.855C34.8742 441.415 37.262 427.116 68.3033 435.696L88.5393 443.403L88.5393 371.907C47.5763 358.022 26.1476 347.701 10.9962 375.639C-10.577 423.248 6.38659 487.328 27.7108 507.192C70.6911 547.23 116.059 550.089 142.325 515.771L161.427 490.033C172.661 476.074 178.916 481.158 190.081 487.173C214.716 504.254 207.071 503.903 170.978 492.893Z" stroke="#EEEDED"/>
<path d="M240.224 289.844L240.224 414.124L194.856 395.658L194.856 349.901L149.488 329.882L149.488 372.779L106.508 355.62L106.508 315.582L53.9765 292.704L53.9765 344.181L8.60846 324.162L8.60847 195.469L240.224 289.844Z" stroke="#EEEDED"/>
<path d="M240.224 95.3747L240.224 161.151L163.815 161.151L240.224 192.609L240.224 261.246L8.60847 166.871L8.60847 98.2346L85.0179 101.094L8.60847 69.6362L8.60847 0.99999L240.224 95.3747Z" stroke="#EEEDED"/>
</g>
</svg>
