<svg width="25" height="25" viewBox="0 0 25 25" fill="none" xmlns="http://www.w3.org/2000/svg">
<g clip-path="url(#clip0)">
<mask id="path-1-inside-1" fill="white">
<path d="M16.7142 7.56812C16.7142 5.47311 15.0276 3.76862 12.9547 3.76862H12.7936C11.7685 3.76862 10.7859 4.0869 9.95163 4.68913L9.05932 5.33332C8.57483 5.68318 8.28554 6.2512 8.28554 6.85299C8.28554 7.50124 8.61019 8.09319 9.15395 8.43649L9.92805 8.92549C10.5683 9.33 11.0266 9.96611 11.2151 10.6977L9.88036 9.34891C9.2463 8.7081 8.40331 8.35507 7.50679 8.35507C5.43386 8.35507 3.74733 10.0596 3.74733 12.1546V12.3175C3.74733 13.3536 4.06225 14.3466 4.65802 15.1896L5.29554 16.0915C5.6415 16.5812 6.20353 16.8736 6.79908 16.8736C7.44038 16.8736 8.0261 16.5455 8.366 15.9958L8.84984 15.2136C9.25009 14.5665 9.8795 14.1032 10.6034 13.9127L9.26869 15.2616C8.63463 15.9023 8.28543 16.7542 8.28543 17.6605C8.28543 19.7555 9.97196 21.46 12.0449 21.46H12.2061C13.2312 21.46 14.214 21.1418 15.048 20.5395L15.9404 19.8953C16.4248 19.5455 16.7141 18.9773 16.7141 18.3757C16.7141 17.7274 16.3894 17.1355 15.8457 16.7922L15.0716 16.3032C14.4312 15.8987 13.973 15.2624 13.7845 14.5308L15.1192 15.8797C15.7533 16.5206 16.5963 16.8736 17.4929 16.8736C19.5659 16.8736 21.2523 15.1691 21.2523 13.0741V12.9111C21.2523 11.8751 20.9374 10.882 20.3416 10.039L19.7042 9.13709C19.358 8.64744 18.796 8.35507 18.2005 8.35507C17.5592 8.35507 16.9735 8.68318 16.6336 9.23283L16.1497 10.0151C15.7516 10.6589 15.1195 11.1252 14.3961 11.316L15.7309 9.96698C16.3651 9.32639 16.7142 8.47442 16.7142 7.56812ZM13.7692 12.6144C13.7692 13.3218 13.1998 13.8971 12.5 13.8971C11.8002 13.8971 11.2308 13.3216 11.2308 12.6144C11.2308 11.9071 11.8 11.3317 12.4999 11.3317C13.1997 11.3317 13.7692 11.907 13.7692 12.6144ZM8.11629 14.7502L7.63245 15.5324C7.45163 15.8248 7.14007 15.9992 6.79908 15.9992C6.48243 15.9992 6.18363 15.8437 5.99946 15.5832L5.36194 14.6813C4.87161 13.9875 4.61238 13.1702 4.61238 12.3174V12.1545C4.61238 10.5416 5.91078 9.22934 7.50668 9.22934C8.1721 9.22934 8.79783 9.49121 9.26858 9.96698L10.7172 11.4309C10.4954 11.771 10.3654 12.1773 10.3654 12.6143C10.3654 12.7672 10.3817 12.9162 10.4118 13.0602C9.464 13.3025 8.63896 13.905 8.11629 14.7502ZM14.6131 17.0446L15.3873 17.5337C15.6764 17.7163 15.8491 18.0312 15.8491 18.3758C15.8491 18.6958 15.6952 18.9979 15.4376 19.184L14.5452 19.8282C13.8587 20.3239 13.05 20.5859 12.2062 20.5859H12.045C10.4491 20.5859 9.1507 19.2736 9.1507 17.6607C9.1507 16.9881 9.40982 16.3556 9.88047 15.88L11.3291 14.416C11.6656 14.6402 12.0677 14.7716 12.5 14.7716C12.6513 14.7716 12.7987 14.7551 12.9411 14.7247C13.1807 15.6826 13.7767 16.5164 14.6131 17.0446ZM16.8834 10.4786L17.3673 9.69636C17.5481 9.40399 17.8596 9.22955 18.2006 9.22955C18.5173 9.22955 18.8162 9.38508 19.0004 9.64554L19.6378 10.5475C20.1281 11.2413 20.3873 12.0586 20.3873 12.9113V13.0743C20.3873 14.6872 19.089 15.9994 17.4931 15.9994C16.8276 15.9994 16.2019 15.7376 15.7311 15.2618L14.2826 13.7979C14.5044 13.4577 14.6344 13.0515 14.6344 12.6145C14.6344 12.4619 14.6182 12.3132 14.5883 12.1695C15.5351 11.9268 16.3635 11.3196 16.8834 10.4786ZM13.6707 10.8128C13.3343 10.5887 12.9322 10.4573 12.4999 10.4573C12.3486 10.4573 12.2012 10.4738 12.0587 10.5042C11.819 9.54619 11.2229 8.71236 10.3866 8.18412L9.61238 7.69502C9.3233 7.51249 9.1506 7.19761 9.1506 6.85299C9.1506 6.53297 9.30449 6.23087 9.5622 6.04474L10.4545 5.40054C11.1411 4.90488 11.9498 4.64289 12.7936 4.64289H12.9547C14.5506 4.64289 15.849 5.95512 15.849 7.56802C15.849 8.24063 15.5899 8.87313 15.1192 9.3488L13.6707 10.8128Z"/>
<path fill-rule="evenodd" clip-rule="evenodd" d="M23.2142 12.6144C23.2142 8.91013 21.3709 5.50202 18.2833 3.49762L18.1877 3.45107C17.4242 3.00459 16.9464 2.7762 16.0291 2.4008L15.9328 2.35393C14.8298 1.97718 13.6748 1.78613 12.4999 1.78613C6.59206 1.78613 1.78564 6.64363 1.78564 12.6144C1.78564 18.2164 6.01662 22.8382 11.4185 23.3879L12.2836 23.44C12.3557 23.4414 12.4276 23.4427 12.4999 23.4427C12.5723 23.4427 12.6442 23.4414 12.7162 23.44L13.5814 23.3879C18.9834 22.8382 23.2142 18.2164 23.2142 12.6144ZM22.3491 12.6144C22.3491 9.20917 20.6543 6.07605 17.8157 4.23319C17.0329 3.7657 16.5599 3.53564 15.6557 3.18219C14.6423 2.83604 13.5804 2.66051 12.4999 2.66051C7.06919 2.66051 2.65092 7.12574 2.65092 12.6144C2.65092 18.1031 7.06919 22.5684 12.5 22.5684C17.9309 22.5684 22.3491 18.1031 22.3491 12.6144Z"/>
</mask>
<path d="M16.7142 7.56812C16.7142 5.47311 15.0276 3.76862 12.9547 3.76862H12.7936C11.7685 3.76862 10.7859 4.0869 9.95163 4.68913L9.05932 5.33332C8.57483 5.68318 8.28554 6.2512 8.28554 6.85299C8.28554 7.50124 8.61019 8.09319 9.15395 8.43649L9.92805 8.92549C10.5683 9.33 11.0266 9.96611 11.2151 10.6977L9.88036 9.34891C9.2463 8.7081 8.40331 8.35507 7.50679 8.35507C5.43386 8.35507 3.74733 10.0596 3.74733 12.1546V12.3175C3.74733 13.3536 4.06225 14.3466 4.65802 15.1896L5.29554 16.0915C5.6415 16.5812 6.20353 16.8736 6.79908 16.8736C7.44038 16.8736 8.0261 16.5455 8.366 15.9958L8.84984 15.2136C9.25009 14.5665 9.8795 14.1032 10.6034 13.9127L9.26869 15.2616C8.63463 15.9023 8.28543 16.7542 8.28543 17.6605C8.28543 19.7555 9.97196 21.46 12.0449 21.46H12.2061C13.2312 21.46 14.214 21.1418 15.048 20.5395L15.9404 19.8953C16.4248 19.5455 16.7141 18.9773 16.7141 18.3757C16.7141 17.7274 16.3894 17.1355 15.8457 16.7922L15.0716 16.3032C14.4312 15.8987 13.973 15.2624 13.7845 14.5308L15.1192 15.8797C15.7533 16.5206 16.5963 16.8736 17.4929 16.8736C19.5659 16.8736 21.2523 15.1691 21.2523 13.0741V12.9111C21.2523 11.8751 20.9374 10.882 20.3416 10.039L19.7042 9.13709C19.358 8.64744 18.796 8.35507 18.2005 8.35507C17.5592 8.35507 16.9735 8.68318 16.6336 9.23283L16.1497 10.0151C15.7516 10.6589 15.1195 11.1252 14.3961 11.316L15.7309 9.96698C16.3651 9.32639 16.7142 8.47442 16.7142 7.56812ZM13.7692 12.6144C13.7692 13.3218 13.1998 13.8971 12.5 13.8971C11.8002 13.8971 11.2308 13.3216 11.2308 12.6144C11.2308 11.9071 11.8 11.3317 12.4999 11.3317C13.1997 11.3317 13.7692 11.907 13.7692 12.6144ZM8.11629 14.7502L7.63245 15.5324C7.45163 15.8248 7.14007 15.9992 6.79908 15.9992C6.48243 15.9992 6.18363 15.8437 5.99946 15.5832L5.36194 14.6813C4.87161 13.9875 4.61238 13.1702 4.61238 12.3174V12.1545C4.61238 10.5416 5.91078 9.22934 7.50668 9.22934C8.1721 9.22934 8.79783 9.49121 9.26858 9.96698L10.7172 11.4309C10.4954 11.771 10.3654 12.1773 10.3654 12.6143C10.3654 12.7672 10.3817 12.9162 10.4118 13.0602C9.464 13.3025 8.63896 13.905 8.11629 14.7502ZM14.6131 17.0446L15.3873 17.5337C15.6764 17.7163 15.8491 18.0312 15.8491 18.3758C15.8491 18.6958 15.6952 18.9979 15.4376 19.184L14.5452 19.8282C13.8587 20.3239 13.05 20.5859 12.2062 20.5859H12.045C10.4491 20.5859 9.1507 19.2736 9.1507 17.6607C9.1507 16.9881 9.40982 16.3556 9.88047 15.88L11.3291 14.416C11.6656 14.6402 12.0677 14.7716 12.5 14.7716C12.6513 14.7716 12.7987 14.7551 12.9411 14.7247C13.1807 15.6826 13.7767 16.5164 14.6131 17.0446ZM16.8834 10.4786L17.3673 9.69636C17.5481 9.40399 17.8596 9.22955 18.2006 9.22955C18.5173 9.22955 18.8162 9.38508 19.0004 9.64554L19.6378 10.5475C20.1281 11.2413 20.3873 12.0586 20.3873 12.9113V13.0743C20.3873 14.6872 19.089 15.9994 17.4931 15.9994C16.8276 15.9994 16.2019 15.7376 15.7311 15.2618L14.2826 13.7979C14.5044 13.4577 14.6344 13.0515 14.6344 12.6145C14.6344 12.4619 14.6182 12.3132 14.5883 12.1695C15.5351 11.9268 16.3635 11.3196 16.8834 10.4786ZM13.6707 10.8128C13.3343 10.5887 12.9322 10.4573 12.4999 10.4573C12.3486 10.4573 12.2012 10.4738 12.0587 10.5042C11.819 9.54619 11.2229 8.71236 10.3866 8.18412L9.61238 7.69502C9.3233 7.51249 9.1506 7.19761 9.1506 6.85299C9.1506 6.53297 9.30449 6.23087 9.5622 6.04474L10.4545 5.40054C11.1411 4.90488 11.9498 4.64289 12.7936 4.64289H12.9547C14.5506 4.64289 15.849 5.95512 15.849 7.56802C15.849 8.24063 15.5899 8.87313 15.1192 9.3488L13.6707 10.8128Z" fill="#E44747"/>
<path fill-rule="evenodd" clip-rule="evenodd" d="M23.2142 12.6144C23.2142 8.91013 21.3709 5.50202 18.2833 3.49762L18.1877 3.45107C17.4242 3.00459 16.9464 2.7762 16.0291 2.4008L15.9328 2.35393C14.8298 1.97718 13.6748 1.78613 12.4999 1.78613C6.59206 1.78613 1.78564 6.64363 1.78564 12.6144C1.78564 18.2164 6.01662 22.8382 11.4185 23.3879L12.2836 23.44C12.3557 23.4414 12.4276 23.4427 12.4999 23.4427C12.5723 23.4427 12.6442 23.4414 12.7162 23.44L13.5814 23.3879C18.9834 22.8382 23.2142 18.2164 23.2142 12.6144ZM22.3491 12.6144C22.3491 9.20917 20.6543 6.07605 17.8157 4.23319C17.0329 3.7657 16.5599 3.53564 15.6557 3.18219C14.6423 2.83604 13.5804 2.66051 12.4999 2.66051C7.06919 2.66051 2.65092 7.12574 2.65092 12.6144C2.65092 18.1031 7.06919 22.5684 12.5 22.5684C17.9309 22.5684 22.3491 18.1031 22.3491 12.6144Z" fill="#E44747"/>
<path d="M11.3685 23.3879V27.4789H11.4685V23.3879H11.3685ZM11.3685 27.4789C11.3685 28.1087 11.8755 28.6218 12.4999 28.6218V28.5218C11.9317 28.5218 11.4685 28.0544 11.4685 27.4789H11.3685ZM12.4999 28.6218C13.1244 28.6218 13.6314 28.1087 13.6314 27.4789H13.5314C13.5314 28.0544 13.0681 28.5218 12.4999 28.5218V28.6218ZM13.6314 27.4789V23.3879H13.5314V27.4789H13.6314ZM12.6662 27.4789C12.6662 27.5723 12.5911 27.6475 12.4999 27.6475V27.7475C12.6473 27.7475 12.7662 27.6265 12.7662 27.4789H12.6662ZM12.4999 27.6475C12.4088 27.6475 12.3336 27.5723 12.3336 27.4789H12.2336C12.2336 27.6265 12.3525 27.7475 12.4999 27.7475V27.6475ZM12.3336 27.4789V23.44H12.2336V27.4789H12.3336ZM12.6662 23.44V27.4789H12.7662V23.44H12.6662ZM16.0564 2.35891C16.0235 2.33749 15.9876 2.31981 15.9489 2.30661L15.9166 2.40125C15.9473 2.41174 15.9758 2.42575 16.0018 2.44268L16.0564 2.35891ZM18.3105 3.45568C18.2765 3.43357 18.2406 3.41631 18.2038 3.40375L18.1715 3.4984C18.2006 3.50831 18.229 3.52197 18.2561 3.53956L18.3105 3.45568ZM18.2833 3.49762L18.3382 3.41311L18.3271 3.4077L18.2833 3.49762ZM17.8157 4.23319L17.8702 4.14926L17.867 4.14734L17.8157 4.23319ZM15.6557 3.18219L15.6922 3.08896L15.688 3.08756L15.6557 3.18219ZM15.9328 2.35393L15.9769 2.26332L15.9651 2.2593L15.9328 2.35393ZM11.4185 23.3879L11.4083 23.4874L11.4125 23.4877L11.4185 23.3879ZM13.5814 23.3879L13.5874 23.4878L13.5915 23.4874L13.5814 23.3879ZM12.2836 23.44L12.2776 23.5399L12.2817 23.54L12.2836 23.44ZM12.7162 23.44L12.7182 23.5401L12.7222 23.5398L12.7162 23.44ZM9.95163 4.68913L9.8931 4.60804L9.89309 4.60805L9.95163 4.68913ZM9.05932 5.33332L9.00079 5.25224L9.00078 5.25225L9.05932 5.33332ZM9.15395 8.43649L9.20735 8.35195L9.20733 8.35193L9.15395 8.43649ZM9.92805 8.92549L9.98147 8.84095L9.98146 8.84094L9.92805 8.92549ZM11.2151 10.6977L11.144 10.7681L11.4042 11.0311L11.3119 10.6728L11.2151 10.6977ZM9.88036 9.34891L9.80928 9.41924L9.80928 9.41924L9.88036 9.34891ZM4.65802 15.1896L4.57636 15.2474L4.57636 15.2474L4.65802 15.1896ZM5.29554 16.0915L5.37722 16.0338L5.3772 16.0337L5.29554 16.0915ZM8.366 15.9958L8.28095 15.9432L8.28095 15.9432L8.366 15.9958ZM8.84984 15.2136L8.7648 15.161L8.7648 15.161L8.84984 15.2136ZM10.6034 13.9127L10.6745 13.9831L10.932 13.7229L10.578 13.816L10.6034 13.9127ZM9.26869 15.2616L9.33977 15.3319L9.33977 15.3319L9.26869 15.2616ZM15.048 20.5395L14.9894 20.4584L14.9894 20.4585L15.048 20.5395ZM15.9404 19.8953L15.9989 19.9764L15.9989 19.9764L15.9404 19.8953ZM15.8457 16.7922L15.7923 16.8767L15.7923 16.8767L15.8457 16.7922ZM15.0716 16.3032L15.0181 16.3877L15.0181 16.3877L15.0716 16.3032ZM13.7845 14.5308L13.8556 14.4605L13.5954 14.1975L13.6877 14.5557L13.7845 14.5308ZM15.1192 15.8797L15.0482 15.9501L15.1192 15.8797ZM20.3416 10.039L20.4232 9.9813L20.3416 10.039ZM19.7042 9.13709L19.7858 9.07937L19.7858 9.07936L19.7042 9.13709ZM16.6336 9.23283L16.7186 9.28544L16.7187 9.28543L16.6336 9.23283ZM16.1497 10.0151L16.0646 9.96246L16.0646 9.96249L16.1497 10.0151ZM14.3961 11.316L14.325 11.2457L14.0672 11.5062L14.4216 11.4127L14.3961 11.316ZM15.7309 9.96698L15.6598 9.89663L15.6598 9.89665L15.7309 9.96698ZM8.11629 14.7502L8.20134 14.8028L8.20134 14.8028L8.11629 14.7502ZM7.63245 15.5324L7.5474 15.4798L7.5474 15.4798L7.63245 15.5324ZM5.99946 15.5832L5.9178 15.6409L5.91781 15.641L5.99946 15.5832ZM5.36194 14.6813L5.28027 14.739L5.28028 14.739L5.36194 14.6813ZM9.26858 9.96698L9.1975 10.0373L9.1975 10.0373L9.26858 9.96698ZM10.7172 11.4309L10.801 11.4855L10.845 11.4179L10.7883 11.3606L10.7172 11.4309ZM10.4118 13.0602L10.4366 13.1571L10.5292 13.1334L10.5097 13.0398L10.4118 13.0602ZM14.6131 17.0446L14.6665 16.9601L14.6665 16.9601L14.6131 17.0446ZM15.3873 17.5337L15.3339 17.6183L15.3339 17.6183L15.3873 17.5337ZM15.4376 19.184L15.4962 19.2651L15.4962 19.2651L15.4376 19.184ZM14.5452 19.8282L14.4867 19.7471L14.4867 19.7471L14.5452 19.8282ZM9.88047 15.88L9.80939 15.8096L9.80938 15.8096L9.88047 15.88ZM11.3291 14.416L11.3845 14.3328L11.3159 14.2871L11.258 14.3457L11.3291 14.416ZM12.9411 14.7247L13.0381 14.7004L13.0147 14.6067L12.9202 14.6269L12.9411 14.7247ZM16.8834 10.4786L16.7984 10.426L16.7984 10.426L16.8834 10.4786ZM17.3673 9.69636L17.4523 9.74897L17.4523 9.74896L17.3673 9.69636ZM19.0004 9.64554L19.082 9.58782L19.082 9.5878L19.0004 9.64554ZM19.6378 10.5475L19.7194 10.4897V10.4897L19.6378 10.5475ZM15.7311 15.2618L15.8022 15.1914L15.7311 15.2618ZM14.2826 13.7979L14.1989 13.7432L14.1548 13.8108L14.2115 13.8682L14.2826 13.7979ZM14.5883 12.1695L14.5634 12.0727L14.4708 12.0964L14.4904 12.19L14.5883 12.1695ZM13.6707 10.8128L13.6153 10.8961L13.6839 10.9417L13.7418 10.8832L13.6707 10.8128ZM12.0587 10.5042L11.9617 10.5285L11.9852 10.6221L12.0796 10.602L12.0587 10.5042ZM10.3866 8.18412L10.3332 8.26867L10.3332 8.26867L10.3866 8.18412ZM9.61238 7.69502L9.66579 7.61048L9.66577 7.61046L9.61238 7.69502ZM9.5622 6.04474L9.50366 5.96366L9.50364 5.96367L9.5622 6.04474ZM10.4545 5.40054L10.396 5.31946L10.396 5.31946L10.4545 5.40054ZM15.1192 9.3488L15.0482 9.27846L15.0482 9.27846L15.1192 9.3488ZM18.1877 3.45107L18.137 3.53765L18.1439 3.54099L18.1877 3.45107ZM16.0291 2.4008L15.9853 2.4909L15.9912 2.49335L16.0291 2.4008ZM23.3142 12.6144C23.3142 8.87652 21.454 5.43673 18.3378 3.41374L18.2289 3.5815C21.2878 5.56732 23.1142 8.94374 23.1142 12.6144H23.3142ZM17.7613 4.31707C20.5712 6.14135 22.2491 9.24279 22.2491 12.6144H22.4491C22.4491 9.17556 20.7374 6.01076 17.8702 4.14932L17.7613 4.31707ZM22.2491 12.6144C22.2491 18.0489 17.8747 22.4684 12.5 22.4684V22.6684C17.9871 22.6684 22.4491 18.1574 22.4491 12.6144H22.2491ZM12.5 22.4684C7.12542 22.4684 2.75092 18.0489 2.75092 12.6144H2.55092C2.55092 18.1574 7.01297 22.6684 12.5 22.6684V22.4684ZM2.75092 12.6144C2.75092 7.17997 7.12542 2.76051 12.4999 2.76051V2.56051C7.01297 2.56051 2.55092 7.07152 2.55092 12.6144H2.75092ZM12.4999 2.76051C13.5695 2.76051 14.6205 2.93426 15.6234 3.27682L15.688 3.08756C14.6641 2.73782 13.5913 2.56051 12.4999 2.56051V2.76051ZM15.9651 2.2593C14.8516 1.87897 13.6857 1.68613 12.4999 1.68613V1.88613C13.6639 1.88613 14.808 2.0754 15.9005 2.44856L15.9651 2.2593ZM12.4999 1.68613C6.53583 1.68613 1.68564 6.58941 1.68564 12.6144H1.88564C1.88564 6.69786 6.64828 1.88613 12.4999 1.88613V1.68613ZM1.68564 12.6144C1.68564 18.2674 5.95516 22.9325 11.4084 23.4874L11.4286 23.2884C6.07807 22.744 1.88564 18.1653 1.88564 12.6144H1.68564ZM13.5915 23.4874C19.0448 22.9325 23.3142 18.2674 23.3142 12.6144H23.1142C23.1142 18.1653 18.9219 22.744 13.5713 23.2884L13.5915 23.4874ZM12.2817 23.54C12.3537 23.5414 12.4265 23.5427 12.4999 23.5427V23.3427C12.4287 23.3427 12.3577 23.3414 12.2856 23.34L12.2817 23.54ZM12.4999 23.5427C12.5734 23.5427 12.6462 23.5414 12.7182 23.54L12.7142 23.34C12.6422 23.3414 12.5712 23.3427 12.4999 23.3427V23.5427ZM11.4125 23.4877L12.2776 23.5398L12.2897 23.3402L11.4245 23.2881L11.4125 23.4877ZM12.7222 23.5398L13.5874 23.4877L13.5754 23.2881L12.7102 23.3402L12.7222 23.5398ZM16.8142 7.56812C16.8142 5.41889 15.0839 3.66862 12.9547 3.66862V3.86862C14.9714 3.86862 16.6142 5.52734 16.6142 7.56812H16.8142ZM12.9547 3.66862H12.7936V3.86862H12.9547V3.66862ZM12.7936 3.66862C11.7474 3.66862 10.7443 3.99357 9.8931 4.60804L10.0102 4.77021C10.8274 4.18023 11.7896 3.86862 12.7936 3.86862V3.66862ZM9.89309 4.60805L9.00079 5.25224L9.11785 5.4144L10.0102 4.7702L9.89309 4.60805ZM9.00078 5.25225C8.49004 5.62106 8.18554 6.21934 8.18554 6.85299H8.38554C8.38554 6.28306 8.65961 5.74531 9.11786 5.4144L9.00078 5.25225ZM8.18554 6.85299C8.18554 7.53522 8.52751 8.15925 9.10056 8.52105L9.20733 8.35193C8.69288 8.02713 8.38554 7.46725 8.38554 6.85299H8.18554ZM9.10054 8.52104L9.87465 9.01003L9.98146 8.84094L9.20735 8.35195L9.10054 8.52104ZM9.87464 9.01003C10.493 9.40073 10.936 10.0154 11.1183 10.7227L11.3119 10.6728C11.1172 9.91685 10.6435 9.25927 9.98147 8.84095L9.87464 9.01003ZM11.2862 10.6274L9.95144 9.27857L9.80928 9.41924L11.144 10.7681L11.2862 10.6274ZM9.95144 9.27857C9.29873 8.6189 8.43019 8.25507 7.50679 8.25507V8.45507C8.37643 8.45507 9.19388 8.79729 9.80928 9.41924L9.95144 9.27857ZM7.50679 8.25507C5.37763 8.25507 3.64733 10.0053 3.64733 12.1546H3.84733C3.84733 10.1138 5.49008 8.45507 7.50679 8.45507V8.25507ZM3.64733 12.1546V12.3175H3.84733V12.1546H3.64733ZM3.64733 12.3175C3.64733 13.3742 3.96861 14.3874 4.57636 15.2474L4.73969 15.1319C4.15589 14.3059 3.84733 13.333 3.84733 12.3175H3.64733ZM4.57636 15.2474L5.21388 16.1492L5.3772 16.0337L4.73968 15.1319L4.57636 15.2474ZM5.21386 16.1492C5.5784 16.6652 6.17078 16.9736 6.79908 16.9736V16.7736C6.23627 16.7736 5.70459 16.4972 5.37722 16.0338L5.21386 16.1492ZM6.79908 16.9736C7.47536 16.9736 8.0931 16.6273 8.45105 16.0484L8.28095 15.9432C7.9591 16.4637 7.40541 16.7736 6.79908 16.7736V16.9736ZM8.45105 16.0484L8.93489 15.2662L8.7648 15.161L8.28095 15.9432L8.45105 16.0484ZM8.93489 15.2662C9.32167 14.6409 9.92975 14.1934 10.6289 14.0094L10.578 13.816C9.82924 14.0131 9.17851 14.4922 8.7648 15.161L8.93489 15.2662ZM10.5323 13.8424L9.19761 15.1912L9.33977 15.3319L10.6745 13.9831L10.5323 13.8424ZM9.19761 15.1912C8.54491 15.8508 8.18543 16.7281 8.18543 17.6605H8.38543C8.38543 16.7804 8.72435 15.9538 9.33977 15.3319L9.19761 15.1912ZM8.18543 17.6605C8.18543 19.8098 9.91573 21.56 12.0449 21.56V21.36C10.0282 21.36 8.38543 19.7013 8.38543 17.6605H8.18543ZM12.0449 21.56H12.2061V21.36H12.0449V21.56ZM12.2061 21.56C13.2523 21.56 14.2555 21.2351 15.1065 20.6206L14.9894 20.4585C14.1724 21.0484 13.2101 21.36 12.2061 21.36V21.56ZM15.1065 20.6206L15.9989 19.9764L15.8819 19.8142L14.9894 20.4584L15.1065 20.6206ZM15.9989 19.9764C16.5096 19.6076 16.8141 19.0092 16.8141 18.3757H16.6141C16.6141 18.9455 16.34 19.4834 15.8818 19.8143L15.9989 19.9764ZM16.8141 18.3757C16.8141 17.6934 16.4721 17.0694 15.899 16.7076L15.7923 16.8767C16.3067 17.2015 16.6141 17.7614 16.6141 18.3757H16.8141ZM15.8991 16.7076L15.125 16.2186L15.0181 16.3877L15.7923 16.8767L15.8991 16.7076ZM15.125 16.2186C14.5065 15.8279 14.0636 15.2132 13.8814 14.5059L13.6877 14.5557C13.8824 15.3117 14.3559 15.9694 15.0181 16.3877L15.125 16.2186ZM13.7134 14.6011L15.0482 15.9501L15.1903 15.8094L13.8556 14.4605L13.7134 14.6011ZM15.0482 15.9501C15.7009 16.6098 16.5694 16.9736 17.4929 16.9736V16.7736C16.6232 16.7736 15.8057 16.4314 15.1903 15.8094L15.0482 15.9501ZM17.4929 16.9736C19.6221 16.9736 21.3523 15.2233 21.3523 13.0741H21.1523C21.1523 15.1149 19.5096 16.7736 17.4929 16.7736V16.9736ZM21.3523 13.0741V12.9111H21.1523V13.0741H21.3523ZM21.3523 12.9111C21.3523 11.8545 21.031 10.8412 20.4232 9.9813L20.2599 10.0967C20.8437 10.9228 21.1523 11.8957 21.1523 12.9111H21.3523ZM20.4232 9.9813L19.7858 9.07937L19.6225 9.1948L20.2599 10.0967L20.4232 9.9813ZM19.7858 9.07936C19.4211 8.56343 18.8287 8.25507 18.2005 8.25507V8.45507C18.7632 8.45507 19.2949 8.73144 19.6225 9.19482L19.7858 9.07936ZM18.2005 8.25507C17.5242 8.25507 16.9065 8.60139 16.5486 9.18024L16.7187 9.28543C17.0405 8.76496 17.5942 8.45507 18.2005 8.45507V8.25507ZM16.5486 9.18022L16.0646 9.96246L16.2347 10.0677L16.7186 9.28544L16.5486 9.18022ZM16.0646 9.96249C15.68 10.5846 15.0692 11.0351 14.3706 11.2193L14.4216 11.4127C15.1697 11.2154 15.8232 10.7333 16.2347 10.0677L16.0646 9.96249ZM14.4672 11.3864L15.802 10.0373L15.6598 9.89665L14.325 11.2457L14.4672 11.3864ZM15.802 10.0373C16.4548 9.3779 16.8142 8.50059 16.8142 7.56812H16.6142C16.6142 8.44825 16.2754 9.27489 15.6598 9.89663L15.802 10.0373ZM13.6692 12.6144C13.6692 13.2675 13.1436 13.7971 12.5 13.7971V13.9971C13.256 13.9971 13.8692 13.376 13.8692 12.6144H13.6692ZM12.5 13.7971C11.8564 13.7971 11.3308 13.2674 11.3308 12.6144H11.1308C11.1308 13.3759 11.7439 13.9971 12.5 13.9971V13.7971ZM11.3308 12.6144C11.3308 11.9613 11.8563 11.4317 12.4999 11.4317V11.2317C11.7438 11.2317 11.1308 11.8529 11.1308 12.6144H11.3308ZM12.4999 11.4317C13.1435 11.4317 13.6692 11.9613 13.6692 12.6144H13.8692C13.8692 11.8528 13.2559 11.2317 12.4999 11.2317V11.4317ZM8.03125 14.6976L7.5474 15.4798L7.7175 15.585L8.20134 14.8028L8.03125 14.6976ZM7.5474 15.4798C7.38464 15.743 7.1051 15.8992 6.79908 15.8992V16.0992C7.17503 16.0992 7.51862 15.9066 7.7175 15.585L7.5474 15.4798ZM6.79908 15.8992C6.51521 15.8992 6.24672 15.7597 6.08111 15.5255L5.91781 15.641C6.12054 15.9277 6.44966 16.0992 6.79908 16.0992V15.8992ZM6.08112 15.5255L5.4436 14.6236L5.28028 14.739L5.9178 15.6409L6.08112 15.5255ZM5.4436 14.6236C4.96525 13.9467 4.71238 13.1496 4.71238 12.3174H4.51238C4.51238 13.1908 4.77797 14.0283 5.28027 14.739L5.4436 14.6236ZM4.71238 12.3174V12.1545H4.51238V12.3174H4.71238ZM4.71238 12.1545C4.71238 10.5958 5.967 9.32934 7.50668 9.32934V9.12933C5.85455 9.12933 4.51238 10.4873 4.51238 12.1545H4.71238ZM7.50668 9.32934C8.14523 9.32934 8.74541 9.58042 9.1975 10.0373L9.33967 9.89665C8.85024 9.40201 8.19896 9.12933 7.50668 9.12933V9.32934ZM9.1975 10.0373L10.6461 11.5012L10.7883 11.3606L9.33966 9.89664L9.1975 10.0373ZM10.6334 11.3763C10.4014 11.732 10.2654 12.1572 10.2654 12.6143H10.4654C10.4654 12.1974 10.5893 11.81 10.801 11.4855L10.6334 11.3763ZM10.2654 12.6143C10.2654 12.7743 10.2825 12.9302 10.3139 13.0806L10.5097 13.0398C10.481 12.9022 10.4654 12.76 10.4654 12.6143H10.2654ZM10.387 12.9633C9.41417 13.212 8.56752 13.8304 8.03124 14.6976L8.20134 14.8028C8.7104 13.9796 9.51383 13.393 10.4366 13.1571L10.387 12.9633ZM14.5597 17.1292L15.3339 17.6183L15.4407 17.4492L14.6665 16.9601L14.5597 17.1292ZM15.3339 17.6183C15.5937 17.7823 15.7491 18.0651 15.7491 18.3758H15.9491C15.9491 17.9972 15.7591 17.6502 15.4407 17.4492L15.3339 17.6183ZM15.7491 18.3758C15.7491 18.6639 15.6104 18.9358 15.3791 19.103L15.4962 19.2651C15.78 19.06 15.9491 18.7277 15.9491 18.3758H15.7491ZM15.3791 19.1029L14.4867 19.7471L14.6037 19.9093L15.4962 19.2651L15.3791 19.1029ZM14.4867 19.7471C13.8171 20.2306 13.0289 20.4859 12.2062 20.4859V20.6859C13.0711 20.6859 13.9003 20.4172 14.6037 19.9093L14.4867 19.7471ZM12.2062 20.4859H12.045V20.6859H12.2062V20.4859ZM12.045 20.4859C10.5053 20.4859 9.2507 19.2194 9.2507 17.6607H9.0507C9.0507 19.3279 10.3929 20.6859 12.045 20.6859V20.4859ZM9.2507 17.6607C9.2507 17.0143 9.49955 16.4071 9.95155 15.9503L9.80938 15.8096C9.32009 16.3041 9.0507 16.962 9.0507 17.6607H9.2507ZM9.95155 15.9503L11.4002 14.4864L11.258 14.3457L9.80939 15.8096L9.95155 15.9503ZM11.2736 14.4993C11.6259 14.7339 12.0471 14.8716 12.5 14.8716V14.6716C12.0883 14.6716 11.7054 14.5465 11.3845 14.3328L11.2736 14.4993ZM12.5 14.8716C12.6586 14.8716 12.813 14.8543 12.962 14.8225L12.9202 14.6269C12.7844 14.6559 12.644 14.6716 12.5 14.6716V14.8716ZM12.8441 14.749C13.0899 15.7314 13.7012 16.587 14.5597 17.1292L14.6665 16.9601C13.8522 16.4458 13.2716 15.6338 13.0381 14.7004L12.8441 14.749ZM16.9685 10.5312L17.4523 9.74897L17.2822 9.64376L16.7984 10.426L16.9685 10.5312ZM17.4523 9.74896C17.6151 9.48579 17.8946 9.32955 18.2006 9.32955V9.12955C17.8247 9.12955 17.4811 9.3222 17.2822 9.64376L17.4523 9.74896ZM18.2006 9.32955C18.4845 9.32955 18.7531 9.46908 18.9187 9.70327L19.082 9.5878C18.8793 9.30109 18.55 9.12955 18.2006 9.12955V9.32955ZM18.9187 9.70325L19.5561 10.6052L19.7194 10.4897L19.082 9.58782L18.9187 9.70325ZM19.5561 10.6052C20.0345 11.2821 20.2873 12.0792 20.2873 12.9113H20.4873C20.4873 12.038 20.2217 11.2005 19.7194 10.4897L19.5561 10.6052ZM20.2873 12.9113V13.0743H20.4873V12.9113H20.2873ZM20.2873 13.0743C20.2873 14.633 19.0328 15.8994 17.4931 15.8994V16.0994C19.1453 16.0994 20.4873 14.7414 20.4873 13.0743H20.2873ZM17.4931 15.8994C16.8545 15.8994 16.2543 15.6483 15.8022 15.1914L15.66 15.3321C16.1495 15.8268 16.8008 16.0994 17.4931 16.0994V15.8994ZM15.8022 15.1914L14.3537 13.7275L14.2115 13.8682L15.66 15.3321L15.8022 15.1914ZM14.3664 13.8525C14.5984 13.4967 14.7344 13.0716 14.7344 12.6145H14.5344C14.5344 13.0313 14.4105 13.4187 14.1989 13.7432L14.3664 13.8525ZM14.7344 12.6145C14.7344 12.4548 14.7174 12.2992 14.6861 12.1491L14.4904 12.19C14.519 12.3271 14.5344 12.469 14.5344 12.6145H14.7344ZM14.6131 12.2664C15.585 12.0172 16.4349 11.3942 16.9685 10.5312L16.7984 10.426C16.292 11.2451 15.4851 11.8364 14.5634 12.0727L14.6131 12.2664ZM13.7262 10.7296C13.3741 10.495 12.9528 10.3573 12.4999 10.3573V10.5573C12.9116 10.5573 13.2945 10.6823 13.6153 10.8961L13.7262 10.7296ZM12.4999 10.3573C12.3413 10.3573 12.1869 10.3746 12.0379 10.4064L12.0796 10.602C12.2155 10.573 12.3559 10.5573 12.4999 10.5573V10.3573ZM12.1557 10.4799C11.9098 9.49736 11.2984 8.64176 10.44 8.09958L10.3332 8.26867C11.1474 8.78295 11.7281 9.59502 11.9617 10.5285L12.1557 10.4799ZM10.44 8.09958L9.66579 7.61048L9.55897 7.77956L10.3332 8.26867L10.44 8.09958ZM9.66577 7.61046C9.40599 7.44643 9.2506 7.16362 9.2506 6.85299H9.0506C9.0506 7.23159 9.24062 7.57855 9.55899 7.77957L9.66577 7.61046ZM9.2506 6.85299C9.2506 6.56484 9.38926 6.293 9.62075 6.12581L9.50364 5.96367C9.21971 6.16875 9.0506 6.5011 9.0506 6.85299H9.2506ZM9.62073 6.12582L10.513 5.48162L10.396 5.31946L9.50366 5.96366L9.62073 6.12582ZM10.513 5.48162C11.1827 4.99821 11.9709 4.74289 12.7936 4.74289V4.54289C11.9287 4.54289 11.0996 4.81155 10.396 5.31946L10.513 5.48162ZM12.7936 4.74289H12.9547V4.54289H12.7936V4.74289ZM12.9547 4.74289C14.4944 4.74289 15.749 6.00934 15.749 7.56802H15.949C15.949 5.90089 14.6068 4.54289 12.9547 4.54289V4.74289ZM15.749 7.56802C15.749 8.21446 15.5002 8.82164 15.0482 9.27846L15.1903 9.41913C15.6796 8.92463 15.949 8.2668 15.949 7.56802H15.749ZM15.0482 9.27846L13.5997 10.7425L13.7418 10.8832L15.1903 9.41913L15.0482 9.27846ZM15.6193 3.27532C16.5187 3.6269 16.9867 3.85457 17.7644 4.31905L17.867 4.14734C17.0792 3.67683 16.6011 3.44438 15.6921 3.08905L15.6193 3.27532ZM18.2381 3.36475C17.4698 2.91544 16.9877 2.68505 16.067 2.30825L15.9912 2.49335C16.9051 2.86736 17.3785 3.09375 18.1372 3.5374L18.2381 3.36475ZM18.3271 3.4077L18.2314 3.36115L18.1439 3.54099L18.2396 3.58754L18.3271 3.4077ZM16.0729 2.31088L15.9765 2.26401L15.889 2.44385L15.9853 2.49072L16.0729 2.31088Z" fill="white" mask="url(#path-1-inside-1)"/>
</g>
<defs>
<clipPath id="clip0">
<rect width="25" height="25" fill="white"/>
</clipPath>
</defs>
</svg>
