<svg width="25" height="25" viewBox="0 0 25 25" fill="none" xmlns="http://www.w3.org/2000/svg">
<path d="M23.0469 4.6875H1.95312C1.53884 4.68789 1.14164 4.85263 0.848699 5.14557C0.555757 5.43852 0.391013 5.83572 0.390625 6.25V14.8438C0.391013 15.258 0.555757 15.6552 0.848699 15.9482C1.14164 16.2411 1.53884 16.4059 1.95312 16.4062H23.0469C23.4612 16.4059 23.8584 16.2411 24.1513 15.9482C24.4442 15.6552 24.609 15.258 24.6094 14.8438V6.25C24.609 5.83572 24.4442 5.43852 24.1513 5.14557C23.8584 4.85263 23.4612 4.68789 23.0469 4.6875ZM23.8281 14.8438C23.8279 15.0509 23.7455 15.2494 23.599 15.3959C23.4525 15.5423 23.254 15.6247 23.0469 15.625H1.95312C1.74601 15.6247 1.54745 15.5423 1.401 15.3959C1.25454 15.2494 1.17215 15.0509 1.17188 14.8438V6.25C1.17215 6.04288 1.25454 5.84433 1.401 5.69787C1.54745 5.55142 1.74601 5.46902 1.95312 5.46875H23.0469C23.254 5.46902 23.4525 5.55142 23.599 5.69787C23.7455 5.84433 23.8279 6.04288 23.8281 6.25V14.8438Z" fill="#E44747"/>
<path d="M21.4844 12.5H3.51562C3.41202 12.5 3.31267 12.5412 3.23941 12.6144C3.16616 12.6877 3.125 12.787 3.125 12.8906V14.4531C3.125 14.5567 3.16616 14.6561 3.23941 14.7293C3.31267 14.8026 3.41202 14.8438 3.51562 14.8438H21.4844C21.588 14.8438 21.6873 14.8026 21.7606 14.7293C21.8338 14.6561 21.875 14.5567 21.875 14.4531V12.8906C21.875 12.787 21.8338 12.6877 21.7606 12.6144C21.6873 12.5412 21.588 12.5 21.4844 12.5ZM9.76562 13.2812H12.1094V14.0625H9.76562V13.2812ZM8.98438 14.0625H6.64062V13.2812H8.98438V14.0625ZM12.8906 13.2812H15.2344V14.0625H12.8906V13.2812ZM16.0156 13.2812H18.3594V14.0625H16.0156V13.2812ZM3.90625 13.2812H5.85938V14.0625H3.90625V13.2812ZM21.0938 14.0625H19.1406V13.2812H21.0938V14.0625Z" fill="#E44747"/>
<path d="M8.20312 8.20312V6.64062C8.20312 6.53702 8.16197 6.43767 8.08871 6.36441C8.01546 6.29115 7.9161 6.25 7.8125 6.25H2.34375C2.24015 6.25 2.14079 6.29115 2.06754 6.36441C1.99428 6.43767 1.95312 6.53702 1.95312 6.64062V8.20312C1.95312 8.30673 1.99428 8.40608 2.06754 8.47934C2.14079 8.5526 2.24015 8.59375 2.34375 8.59375H7.8125C7.9161 8.59375 8.01546 8.5526 8.08871 8.47934C8.16197 8.40608 8.20312 8.30673 8.20312 8.20312ZM7.42188 7.8125H2.73438V7.03125H7.42188V7.8125Z" fill="#E44747"/>
<path d="M22.6562 6.25H20.3125C20.2089 6.25 20.1095 6.29115 20.0363 6.36441C19.963 6.43767 19.9219 6.53702 19.9219 6.64062C19.9219 6.74423 19.963 6.84358 20.0363 6.91684C20.1095 6.9901 20.2089 7.03125 20.3125 7.03125H22.6562C22.7599 7.03125 22.8592 6.9901 22.9325 6.91684C23.0057 6.84358 23.0469 6.74423 23.0469 6.64062C23.0469 6.53702 23.0057 6.43767 22.9325 6.36441C22.8592 6.29115 22.7599 6.25 22.6562 6.25Z" fill="#E44747"/>
<path d="M22.6562 7.42188H21.4844C21.3808 7.42188 21.2814 7.46303 21.2082 7.53629C21.1349 7.60954 21.0938 7.7089 21.0938 7.8125C21.0938 7.9161 21.1349 8.01546 21.2082 8.08871C21.2814 8.16197 21.3808 8.20312 21.4844 8.20312H22.6562C22.7599 8.20312 22.8592 8.16197 22.9325 8.08871C23.0057 8.01546 23.0469 7.9161 23.0469 7.8125C23.0469 7.7089 23.0057 7.60954 22.9325 7.53629C22.8592 7.46303 22.7599 7.42188 22.6562 7.42188Z" fill="#E44747"/>
<path d="M13.0859 17.5781C13.0859 17.4745 13.0448 17.3752 12.9715 17.3019C12.8983 17.2287 12.7989 17.1875 12.6953 17.1875C12.5917 17.1875 12.4924 17.2287 12.4191 17.3019C12.3458 17.3752 12.3047 17.4745 12.3047 17.5781C12.3047 17.6078 12.3047 17.6117 12.2238 17.6926C12.108 17.8084 11.9141 18.0023 11.9141 18.3594C11.9141 18.7165 12.108 18.9104 12.2238 19.0262C12.3047 19.1072 12.3047 19.111 12.3047 19.1406C12.3047 19.1703 12.3047 19.1742 12.2238 19.255C12.108 19.3709 11.9141 19.5648 11.9141 19.9219C11.9141 20.0255 11.9552 20.1248 12.0285 20.1981C12.1017 20.2713 12.2011 20.3125 12.3047 20.3125C12.4083 20.3125 12.5076 20.2713 12.5809 20.1981C12.6542 20.1248 12.6953 20.0255 12.6953 19.9219C12.6953 19.8922 12.6953 19.8884 12.7762 19.8075C12.892 19.6917 13.0859 19.4978 13.0859 19.1406C13.0859 18.7834 12.892 18.5896 12.7762 18.4738C12.6953 18.393 12.6953 18.3891 12.6953 18.3594C12.6953 18.3296 12.6953 18.3258 12.7762 18.2449C12.892 18.1292 13.0859 17.9353 13.0859 17.5781Z" fill="#E44747"/>
<path d="M10.1562 17.5781C10.1562 17.4745 10.1151 17.3752 10.0418 17.3019C9.96858 17.2287 9.86923 17.1875 9.76562 17.1875C9.66202 17.1875 9.56267 17.2287 9.48941 17.3019C9.41615 17.3752 9.375 17.4745 9.375 17.5781C9.375 17.6078 9.375 17.6117 9.29409 17.6926C9.17827 17.8084 8.98438 18.0023 8.98438 18.3594C8.98438 18.7165 9.17827 18.9104 9.29409 19.0262C9.375 19.1072 9.375 19.111 9.375 19.1406C9.375 19.1703 9.375 19.1742 9.29409 19.255C9.17827 19.3709 8.98438 19.5648 8.98438 19.9219C8.98438 20.0255 9.02553 20.1248 9.09879 20.1981C9.17204 20.2713 9.2714 20.3125 9.375 20.3125C9.4786 20.3125 9.57796 20.2713 9.65121 20.1981C9.72447 20.1248 9.76562 20.0255 9.76562 19.9219C9.76562 19.8922 9.76562 19.8884 9.84653 19.8075C9.96235 19.6917 10.1562 19.4978 10.1562 19.1406C10.1562 18.7834 9.96235 18.5896 9.84653 18.4738C9.76562 18.393 9.76562 18.3891 9.76562 18.3594C9.76562 18.3296 9.76562 18.3258 9.84653 18.2449C9.96235 18.1292 10.1562 17.9353 10.1562 17.5781Z" fill="#E44747"/>
<path d="M7.03125 17.5781C7.03125 17.4745 6.9901 17.3752 6.91684 17.3019C6.84358 17.2287 6.74423 17.1875 6.64062 17.1875C6.53702 17.1875 6.43767 17.2287 6.36441 17.3019C6.29115 17.3752 6.25 17.4745 6.25 17.5781C6.25 17.6078 6.25 17.6117 6.16909 17.6926C6.05327 17.8084 5.85938 18.0023 5.85938 18.3594C5.85938 18.7165 6.05327 18.9104 6.16909 19.0262C6.25 19.1072 6.25 19.111 6.25 19.1406C6.25 19.1703 6.25 19.1742 6.16909 19.255C6.05327 19.3709 5.85938 19.5648 5.85938 19.9219C5.85938 20.0255 5.90053 20.1248 5.97379 20.1981C6.04704 20.2713 6.1464 20.3125 6.25 20.3125C6.3536 20.3125 6.45296 20.2713 6.52621 20.1981C6.59947 20.1248 6.64062 20.0255 6.64062 19.9219C6.64062 19.8922 6.64062 19.8884 6.72153 19.8075C6.83735 19.6917 7.03125 19.4978 7.03125 19.1406C7.03125 18.7834 6.83735 18.5896 6.72153 18.4738C6.64062 18.393 6.64062 18.3891 6.64062 18.3594C6.64062 18.3296 6.64062 18.3258 6.72153 18.2449C6.83735 18.1292 7.03125 17.9353 7.03125 17.5781Z" fill="#E44747"/>
<path d="M19.5312 17.5781C19.5312 17.4745 19.4901 17.3752 19.4168 17.3019C19.3436 17.2287 19.2442 17.1875 19.1406 17.1875C19.037 17.1875 18.9377 17.2287 18.8644 17.3019C18.7912 17.3752 18.75 17.4745 18.75 17.5781C18.75 17.6078 18.75 17.6117 18.6691 17.6926C18.5533 17.8084 18.3594 18.0023 18.3594 18.3594C18.3594 18.7165 18.5533 18.9104 18.6691 19.0262C18.75 19.1072 18.75 19.111 18.75 19.1406C18.75 19.1703 18.75 19.1742 18.6691 19.255C18.5533 19.3709 18.3594 19.5648 18.3594 19.9219C18.3594 20.0255 18.4005 20.1248 18.4738 20.1981C18.547 20.2713 18.6464 20.3125 18.75 20.3125C18.8536 20.3125 18.953 20.2713 19.0262 20.1981C19.0995 20.1248 19.1406 20.0255 19.1406 19.9219C19.1406 19.8922 19.1406 19.8884 19.2215 19.8075C19.3374 19.6917 19.5312 19.4978 19.5312 19.1406C19.5312 18.7834 19.3374 18.5896 19.2215 18.4738C19.1406 18.393 19.1406 18.3891 19.1406 18.3594C19.1406 18.3296 19.1406 18.3258 19.2215 18.2449C19.3374 18.1292 19.5312 17.9353 19.5312 17.5781Z" fill="#E44747"/>
<path d="M16.4062 17.5781C16.4062 17.4745 16.3651 17.3752 16.2918 17.3019C16.2186 17.2287 16.1192 17.1875 16.0156 17.1875C15.912 17.1875 15.8127 17.2287 15.7394 17.3019C15.6662 17.3752 15.625 17.4745 15.625 17.5781C15.625 17.6078 15.625 17.6117 15.5441 17.6926C15.4283 17.8084 15.2344 18.0023 15.2344 18.3594C15.2344 18.7165 15.4283 18.9104 15.5441 19.0262C15.625 19.1072 15.625 19.111 15.625 19.1406C15.625 19.1703 15.625 19.1742 15.5441 19.255C15.4283 19.3709 15.2344 19.5648 15.2344 19.9219C15.2344 20.0255 15.2755 20.1248 15.3488 20.1981C15.422 20.2713 15.5214 20.3125 15.625 20.3125C15.7286 20.3125 15.828 20.2713 15.9012 20.1981C15.9745 20.1248 16.0156 20.0255 16.0156 19.9219C16.0156 19.8922 16.0156 19.8884 16.0965 19.8075C16.2124 19.6917 16.4062 19.4978 16.4062 19.1406C16.4062 18.7834 16.2124 18.5896 16.0965 18.4738C16.0156 18.393 16.0156 18.3891 16.0156 18.3594C16.0156 18.3296 16.0156 18.3258 16.0965 18.2449C16.2124 18.1292 16.4062 17.9353 16.4062 17.5781Z" fill="#E44747"/>
</svg>
