<svg width="25" height="25" viewBox="0 0 25 25" fill="none" xmlns="http://www.w3.org/2000/svg">
<path fill-rule="evenodd" clip-rule="evenodd" d="M20.3841 22.3528V23.1154H2.69282V22.3528V19.282V18.5398V11.4858L1.30828 10.4563C1.26019 10.4205 1.22123 10.3741 1.19451 10.3207C1.1678 10.2673 1.15408 10.2084 1.15445 10.1488C1.15483 10.0893 1.16929 10.0306 1.19667 9.97752C1.22405 9.92447 1.26359 9.87852 1.31212 9.84336L11.3116 2.59865C11.3774 2.55093 11.4569 2.52521 11.5385 2.52521C11.6201 2.52521 11.6995 2.55093 11.7654 2.59865L14.6152 4.66339L15.348 5.1943L17.692 6.89252L18.4612 7.44979L21.7648 9.84336C21.8134 9.87852 21.8529 9.92447 21.8803 9.97752C21.9077 10.0306 21.9221 10.0893 21.9225 10.1488C21.9229 10.2084 21.9092 10.2673 21.8824 10.3207C21.8557 10.3741 21.8168 10.4205 21.7687 10.4563L20.3841 11.4858V18.5398V19.3024V22.3528ZM20.8916 10.1552L11.5385 3.37874L2.18539 10.1552L3.462 11.0568V11.4858V11.4893V22.3528H11.9231H12.6923H17.3074H18.0766H19.615V11.4893V11.1187L19.996 10.8211L20.8916 10.1552Z" fill="#E44747"/>
<path d="M10.6971 12.1176C10.6971 12.2291 10.7415 12.3361 10.8204 12.415C10.8992 12.4939 11.0063 12.5382 11.1178 12.5382C11.2294 12.5382 11.3364 12.4939 11.4153 12.415C11.4942 12.3361 11.5385 12.2291 11.5385 12.1176C11.5385 12.0237 11.5539 11.9981 11.6048 11.9133C11.7293 11.7244 11.7942 11.5024 11.7909 11.2762C11.7942 11.05 11.7293 10.828 11.6048 10.6391C11.559 10.5811 11.5355 10.5087 11.5385 10.4349C11.5355 10.3611 11.559 10.2886 11.6048 10.2306C11.7294 10.0418 11.7942 9.81977 11.7909 9.59353C11.7909 9.48196 11.7466 9.37496 11.6677 9.29606C11.5888 9.21717 11.4818 9.17285 11.3702 9.17285C11.2587 9.17285 11.1517 9.21717 11.0728 9.29606C10.9939 9.37496 10.9495 9.48196 10.9495 9.59353C10.9495 9.68734 10.9342 9.71289 10.8833 9.79771C10.7587 9.98659 10.6938 10.2086 10.6971 10.4349C10.6938 10.6611 10.7587 10.8831 10.8833 11.072C10.9264 11.1314 10.9495 11.2029 10.9495 11.2762C10.9495 11.3496 10.9264 11.4211 10.8833 11.4805C10.7587 11.6694 10.6938 11.8913 10.6971 12.1176V12.1176Z" fill="#E44747"/>
<path d="M7.33191 12.1176C7.33191 12.2291 7.37623 12.3361 7.45512 12.415C7.53401 12.4939 7.64101 12.5382 7.75258 12.5382C7.86415 12.5382 7.97115 12.4939 8.05004 12.415C8.12893 12.3361 8.17325 12.2291 8.17325 12.1176C8.17325 12.0237 8.18861 11.9981 8.23951 11.9133C8.3641 11.7244 8.42896 11.5024 8.42566 11.2762C8.42896 11.05 8.3641 10.828 8.23951 10.6391C8.19377 10.5811 8.17027 10.5087 8.17325 10.4349C8.17027 10.3611 8.19377 10.2886 8.23951 10.2306C8.36411 10.0418 8.42897 9.81977 8.42566 9.59353C8.42566 9.48196 8.38133 9.37496 8.30244 9.29606C8.22355 9.21717 8.11655 9.17285 8.00498 9.17285C7.89341 9.17285 7.78642 9.21717 7.70752 9.29606C7.62863 9.37496 7.58431 9.48196 7.58431 9.59353C7.58431 9.68734 7.56896 9.71289 7.51806 9.79771C7.39345 9.98659 7.32858 10.2086 7.33191 10.4349C7.32861 10.6611 7.39348 10.8831 7.51806 11.072C7.56112 11.1314 7.58431 11.2029 7.58431 11.2762C7.58431 11.3496 7.56112 11.4211 7.51806 11.4805C7.39347 11.6694 7.32861 11.8913 7.33191 12.1176V12.1176Z" fill="#E44747"/>
<path d="M14.0626 12.1176C14.0626 12.2291 14.1069 12.3361 14.1858 12.415C14.2647 12.4939 14.3717 12.5382 14.4833 12.5382C14.5949 12.5382 14.7019 12.4939 14.7808 12.415C14.8597 12.3361 14.904 12.2291 14.904 12.1176C14.904 12.0237 14.9193 11.9981 14.9702 11.9133C15.0948 11.7244 15.1597 11.5024 15.1564 11.2762C15.1597 11.05 15.0948 10.828 14.9702 10.6391C14.9245 10.5811 14.901 10.5087 14.904 10.4349C14.901 10.3611 14.9245 10.2886 14.9702 10.2306C15.0948 10.0418 15.1597 9.81977 15.1564 9.59353C15.1564 9.48196 15.1121 9.37496 15.0332 9.29606C14.9543 9.21717 14.8473 9.17285 14.7357 9.17285C14.6241 9.17285 14.5171 9.21717 14.4382 9.29606C14.3593 9.37496 14.315 9.48196 14.315 9.59353C14.315 9.68734 14.2997 9.71289 14.2488 9.79771C14.1242 9.98659 14.0593 10.2086 14.0626 10.4349C14.0593 10.6611 14.1242 10.8831 14.2488 11.072C14.2918 11.1314 14.315 11.2029 14.315 11.2762C14.315 11.3496 14.2918 11.4211 14.2488 11.4805C14.1242 11.6694 14.0593 11.8913 14.0626 12.1176Z" fill="#E44747"/>
<path d="M22.0553 16.7452C21.9437 16.7452 21.8367 16.7896 21.7578 16.8685C21.6789 16.9473 21.6346 17.0543 21.6346 17.1659C21.6346 17.2775 21.6789 17.3845 21.7578 17.4634C21.8367 17.5423 21.9437 17.5866 22.0553 17.5866C22.1491 17.5866 22.1747 17.6019 22.2596 17.6528C22.4484 17.7774 22.6704 17.8423 22.8966 17.839C23.1229 17.8423 23.3449 17.7774 23.5337 17.6528C23.5917 17.6071 23.6642 17.5836 23.738 17.5866C23.8118 17.5836 23.8842 17.6071 23.9422 17.6528C24.1311 17.7775 24.3531 17.8423 24.5793 17.839C24.6909 17.839 24.7979 17.7947 24.8768 17.7158C24.9557 17.6369 25 17.5299 25 17.4183C25 17.3068 24.9557 17.1998 24.8768 17.1209C24.7979 17.042 24.6909 16.9976 24.5793 16.9976C24.4855 16.9976 24.46 16.9823 24.3751 16.9314C24.1863 16.8068 23.9642 16.7419 23.738 16.7452C23.5117 16.7419 23.2897 16.8068 23.1009 16.9314C23.0415 16.9745 22.97 16.9976 22.8966 16.9976C22.8232 16.9976 22.7517 16.9745 22.6923 16.9314C22.5035 16.8068 22.2815 16.7419 22.0553 16.7452V16.7452Z" fill="#E44747"/>
<path d="M22.0553 13.38C21.9437 13.38 21.8367 13.4243 21.7578 13.5032C21.6789 13.5821 21.6346 13.6891 21.6346 13.8007C21.6346 13.9122 21.6789 14.0192 21.7578 14.0981C21.8367 14.177 21.9437 14.2213 22.0553 14.2213C22.1491 14.2213 22.1747 14.2367 22.2596 14.2876C22.4484 14.4122 22.6704 14.4771 22.8966 14.4738C23.1229 14.4771 23.3449 14.4122 23.5337 14.2876C23.5917 14.2419 23.6642 14.2184 23.738 14.2213C23.8118 14.2184 23.8842 14.2419 23.9422 14.2876C24.1311 14.4122 24.3531 14.4771 24.5793 14.4738C24.6909 14.4738 24.7979 14.4294 24.8768 14.3505C24.9557 14.2716 25 14.1646 25 14.0531C25 13.9415 24.9557 13.8345 24.8768 13.7556C24.7979 13.6767 24.6909 13.6324 24.5793 13.6324C24.4855 13.6324 24.46 13.6171 24.3751 13.5662C24.1863 13.4415 23.9642 13.3767 23.738 13.38C23.5117 13.3767 23.2897 13.4416 23.1009 13.5662C23.0415 13.6092 22.97 13.6324 22.8966 13.6324C22.8232 13.6324 22.7517 13.6092 22.6923 13.5662C22.5035 13.4416 22.2815 13.3767 22.0553 13.38V13.38Z" fill="#E44747"/>
<path d="M22.0553 20.1105C21.9437 20.1105 21.8367 20.1548 21.7578 20.2337C21.6789 20.3126 21.6346 20.4196 21.6346 20.5312C21.6346 20.6427 21.6789 20.7497 21.7578 20.8286C21.8367 20.9075 21.9437 20.9518 22.0553 20.9518C22.1491 20.9518 22.1747 20.9672 22.2596 21.0181C22.4484 21.1427 22.6704 21.2075 22.8966 21.2042C23.1229 21.2075 23.3449 21.1427 23.5337 21.0181C23.5917 20.9723 23.6642 20.9488 23.738 20.9518C23.8118 20.9488 23.8842 20.9723 23.9422 21.0181C24.1311 21.1427 24.3531 21.2076 24.5793 21.2042C24.6909 21.2042 24.7979 21.1599 24.8768 21.081C24.9557 21.0021 25 20.8951 25 20.7836C25 20.672 24.9557 20.565 24.8768 20.4861C24.7979 20.4072 24.6909 20.3629 24.5793 20.3629C24.4855 20.3629 24.46 20.3475 24.3751 20.2966C24.1863 20.172 23.9642 20.1071 23.738 20.1105C23.5117 20.1072 23.2897 20.172 23.1009 20.2966C23.0415 20.3397 22.97 20.3629 22.8966 20.3629C22.8232 20.3629 22.7517 20.3397 22.6923 20.2966C22.5035 20.172 22.2815 20.1072 22.0553 20.1105Z" fill="#E44747"/>
<path d="M11.3345 14.0011C11.9295 14.0011 12.5255 14.1711 13.058 14.4927C13.3957 14.6971 13.6992 14.9541 13.957 15.2542L13.0674 15.2247C12.963 15.2212 12.8755 15.3036 12.872 15.4088C12.8686 15.514 12.9505 15.6021 13.055 15.6055L14.2858 15.6464C14.3565 15.6757 14.4377 15.6593 14.4918 15.6048C14.5458 15.5503 14.562 15.4685 14.5328 15.3974L14.4922 14.1592C14.4899 14.054 14.4032 13.9706 14.2987 13.973C14.1942 13.9753 14.1113 14.0625 14.1136 14.1677C14.1136 14.1691 14.1136 14.1704 14.1137 14.1718L14.1372 14.8862C13.8768 14.6061 13.5791 14.3637 13.2528 14.1658C12.6615 13.8088 11.9982 13.6201 11.3345 13.6201C10.2744 13.6201 9.29705 14.06 8.58279 14.8587C7.95004 15.5662 7.57227 16.5185 7.57227 17.4062C7.57227 17.5113 7.65698 17.5967 7.76157 17.5967C7.86616 17.5967 7.95087 17.5113 7.95087 17.4062C7.95087 16.6101 8.29227 15.753 8.8642 15.1136C9.50582 14.3963 10.3831 14.0011 11.3345 14.0011Z" fill="#E44747"/>
<path d="M14.9551 17.2156C14.8505 17.2156 14.7658 17.3009 14.7658 17.4061C14.7658 18.2022 14.4244 19.0593 13.8525 19.6988C13.2108 20.4161 12.3336 20.8111 11.3821 20.8111C10.7871 20.8111 10.1912 20.6413 9.65869 20.3197C9.32096 20.1152 9.01749 19.8582 8.75968 19.5581L9.64923 19.5877C9.7537 19.591 9.84119 19.5086 9.84462 19.4035C9.84805 19.2983 9.76618 19.2103 9.66165 19.2068L8.43089 19.1659C8.36019 19.1366 8.27891 19.1531 8.22484 19.2075C8.17083 19.262 8.15468 19.3437 8.18391 19.4148L8.22443 20.6531C8.22679 20.7583 8.31346 20.8417 8.41799 20.8393C8.52246 20.837 8.6054 20.7498 8.60303 20.6446C8.60303 20.6433 8.60303 20.6419 8.60292 20.6405L8.57949 19.9261C8.8399 20.2062 9.13752 20.4486 9.46389 20.6465C10.0552 21.0036 10.7185 21.1922 11.3821 21.1922C12.4422 21.1922 13.4196 20.7524 14.1339 19.9538C14.7666 19.2462 15.1444 18.2939 15.1444 17.4061C15.1444 17.3009 15.0597 17.2156 14.9551 17.2156Z" fill="#E44747"/>
<path d="M11.3345 14.0011C11.9295 14.0011 12.5255 14.1711 13.058 14.4927C13.3957 14.6971 13.6992 14.9541 13.957 15.2542L13.0674 15.2247C12.963 15.2212 12.8755 15.3036 12.872 15.4088C12.8686 15.514 12.9505 15.6021 13.055 15.6055L14.2858 15.6464C14.3565 15.6757 14.4377 15.6593 14.4918 15.6048C14.5458 15.5503 14.562 15.4685 14.5328 15.3974L14.4922 14.1592C14.4899 14.054 14.4032 13.9706 14.2987 13.973C14.1942 13.9753 14.1113 14.0625 14.1136 14.1677C14.1136 14.1691 14.1136 14.1704 14.1137 14.1718L14.1372 14.8862C13.8768 14.6061 13.5791 14.3637 13.2528 14.1658C12.6615 13.8088 11.9982 13.6201 11.3345 13.6201C10.2744 13.6201 9.29705 14.06 8.58279 14.8587C7.95004 15.5662 7.57227 16.5185 7.57227 17.4062C7.57227 17.5113 7.65698 17.5967 7.76157 17.5967C7.86616 17.5967 7.95087 17.5113 7.95087 17.4062C7.95087 16.6101 8.29227 15.753 8.8642 15.1136C9.50582 14.3963 10.3831 14.0011 11.3345 14.0011Z" stroke="#E44747" stroke-width="0.5"/>
<path d="M14.9551 17.2156C14.8505 17.2156 14.7658 17.3009 14.7658 17.4061C14.7658 18.2022 14.4244 19.0593 13.8525 19.6988C13.2108 20.4161 12.3336 20.8111 11.3821 20.8111C10.7871 20.8111 10.1912 20.6413 9.65869 20.3197C9.32096 20.1152 9.01749 19.8582 8.75968 19.5581L9.64923 19.5877C9.7537 19.591 9.84119 19.5086 9.84462 19.4035C9.84805 19.2983 9.76618 19.2103 9.66165 19.2068L8.43089 19.1659C8.36019 19.1366 8.27891 19.1531 8.22484 19.2075C8.17083 19.262 8.15468 19.3437 8.18391 19.4148L8.22443 20.6531C8.22679 20.7583 8.31346 20.8417 8.41799 20.8393C8.52246 20.837 8.6054 20.7498 8.60303 20.6446C8.60303 20.6433 8.60303 20.6419 8.60292 20.6405L8.57949 19.9261C8.8399 20.2062 9.13752 20.4486 9.46389 20.6465C10.0552 21.0036 10.7185 21.1922 11.3821 21.1922C12.4422 21.1922 13.4196 20.7524 14.1339 19.9538C14.7666 19.2462 15.1444 18.2939 15.1444 17.4061C15.1444 17.3009 15.0597 17.2156 14.9551 17.2156Z" stroke="#E44747" stroke-width="0.5"/>
<path d="M17 16L20 13.4019L20 18.5981L17 16Z" fill="#E44747"/>
</svg>
