<svg width="22" height="22" viewBox="0 0 22 22" fill="none" xmlns="http://www.w3.org/2000/svg">
<path d="M11 21.5C16.799 21.5 21.5 16.799 21.5 11C21.5 5.20101 16.799 0.5 11 0.5C5.20101 0.5 0.5 5.20101 0.5 11C0.5 16.799 5.20101 21.5 11 21.5Z" stroke="#CFD0D1"/>
<path d="M11.3311 16H10.0664V8.60352H11.3311V16ZM9.96387 6.6416C9.96387 6.43652 10.0254 6.26335 10.1484 6.12207C10.276 5.98079 10.4629 5.91016 10.709 5.91016C10.9551 5.91016 11.1419 5.98079 11.2695 6.12207C11.3971 6.26335 11.4609 6.43652 11.4609 6.6416C11.4609 6.84668 11.3971 7.01758 11.2695 7.1543C11.1419 7.29102 10.9551 7.35938 10.709 7.35938C10.4629 7.35938 10.276 7.29102 10.1484 7.1543C10.0254 7.01758 9.96387 6.84668 9.96387 6.6416Z" fill="#CFD0D1"/>
</svg>
