<svg width="25" height="24" viewBox="0 0 25 24" fill="none" xmlns="http://www.w3.org/2000/svg">
<path d="M12.25 23C12.1418 23 12.0337 22.9615 11.9466 22.8854C11.6221 22.5985 4 15.7987 4 9.25C4 4.70058 7.7015 1 12.25 1C16.7985 1 20.5 4.70058 20.5 9.25C20.5 15.7987 12.8779 22.5985 12.5534 22.8854C12.4663 22.9615 12.3582 23 12.25 23ZM12.25 1.91667C8.20658 1.91667 4.91667 5.20658 4.91667 9.25C4.91667 14.6748 10.8301 20.5782 12.25 21.9174C13.6699 20.5782 19.5833 14.6748 19.5833 9.25C19.5833 5.20658 16.2934 1.91667 12.25 1.91667Z" fill="#434343"/>
<path d="M12.2503 13.8334C9.72306 13.8334 7.66698 11.7773 7.66698 9.25002C7.66698 6.72277 9.72306 4.66669 12.2503 4.66669C14.7776 4.66669 16.8336 6.72277 16.8336 9.25002C16.8336 11.7773 14.7776 13.8334 12.2503 13.8334ZM12.2503 5.58336C10.2281 5.58336 8.58365 7.22786 8.58365 9.25002C8.58365 11.2722 10.2281 12.9167 12.2503 12.9167C14.2725 12.9167 15.917 11.2722 15.917 9.25002C15.917 7.22786 14.2725 5.58336 12.2503 5.58336Z" fill="#434343"/>
<path d="M12.25 23C12.1418 23 12.0337 22.9615 11.9466 22.8854C11.6221 22.5985 4 15.7987 4 9.25C4 4.70058 7.7015 1 12.25 1C16.7985 1 20.5 4.70058 20.5 9.25C20.5 15.7987 12.8779 22.5985 12.5534 22.8854C12.4663 22.9615 12.3582 23 12.25 23ZM12.25 1.91667C8.20658 1.91667 4.91667 5.20658 4.91667 9.25C4.91667 14.6748 10.8301 20.5782 12.25 21.9174C13.6699 20.5782 19.5833 14.6748 19.5833 9.25C19.5833 5.20658 16.2934 1.91667 12.25 1.91667Z" stroke="#434343" stroke-width="0.3"/>
<path d="M12.2503 13.8334C9.72306 13.8334 7.66698 11.7773 7.66698 9.25002C7.66698 6.72277 9.72306 4.66669 12.2503 4.66669C14.7776 4.66669 16.8336 6.72277 16.8336 9.25002C16.8336 11.7773 14.7776 13.8334 12.2503 13.8334ZM12.2503 5.58336C10.2281 5.58336 8.58365 7.22786 8.58365 9.25002C8.58365 11.2722 10.2281 12.9167 12.2503 12.9167C14.2725 12.9167 15.917 11.2722 15.917 9.25002C15.917 7.22786 14.2725 5.58336 12.2503 5.58336Z" stroke="#434343" stroke-width="0.3"/>
</svg>
