<svg width="27" height="24" viewBox="0 0 27 24" fill="none" xmlns="http://www.w3.org/2000/svg">
<path d="M21 23C20.9344 23 20.8689 22.9755 20.8161 22.9271C20.6194 22.7445 16 18.4173 16 14.25C16 11.3549 18.2433 9 21 9C23.7567 9 26 11.3549 26 14.25C26 18.4173 21.3806 22.7445 21.1839 22.9271C21.1311 22.9755 21.0656 23 21 23ZM21 9.58333C18.5494 9.58333 16.5556 11.6769 16.5556 14.25C16.5556 17.7022 20.1394 21.4588 21 22.3111C21.8606 21.4588 25.4444 17.7022 25.4444 14.25C25.4444 11.6769 23.4506 9.58333 21 9.58333Z" fill="#434343"/>
<path d="M21.0002 17.1667C19.4685 17.1667 18.2224 15.8583 18.2224 14.25C18.2224 12.6418 19.4685 11.3333 21.0002 11.3333C22.5319 11.3333 23.778 12.6418 23.778 14.25C23.778 15.8583 22.5319 17.1667 21.0002 17.1667ZM21.0002 11.9167C19.7746 11.9167 18.778 12.9632 18.778 14.25C18.778 15.5368 19.7746 16.5833 21.0002 16.5833C22.2257 16.5833 23.2224 15.5368 23.2224 14.25C23.2224 12.9632 22.2257 11.9167 21.0002 11.9167Z" fill="#434343"/>
<path d="M21 23C20.9344 23 20.8689 22.9755 20.8161 22.9271C20.6194 22.7445 16 18.4173 16 14.25C16 11.3549 18.2433 9 21 9C23.7567 9 26 11.3549 26 14.25C26 18.4173 21.3806 22.7445 21.1839 22.9271C21.1311 22.9755 21.0656 23 21 23ZM21 9.58333C18.5494 9.58333 16.5556 11.6769 16.5556 14.25C16.5556 17.7022 20.1394 21.4588 21 22.3111C21.8606 21.4588 25.4444 17.7022 25.4444 14.25C25.4444 11.6769 23.4506 9.58333 21 9.58333Z" stroke="#434343" stroke-width="0.8"/>
<path d="M21.0002 17.1667C19.4685 17.1667 18.2224 15.8583 18.2224 14.25C18.2224 12.6418 19.4685 11.3333 21.0002 11.3333C22.5319 11.3333 23.778 12.6418 23.778 14.25C23.778 15.8583 22.5319 17.1667 21.0002 17.1667ZM21.0002 11.9167C19.7746 11.9167 18.778 12.9632 18.778 14.25C18.778 15.5368 19.7746 16.5833 21.0002 16.5833C22.2257 16.5833 23.2224 15.5368 23.2224 14.25C23.2224 12.9632 22.2257 11.9167 21.0002 11.9167Z" stroke="#434343" stroke-width="0.8"/>
<path d="M17.5153 7.61935C17.8832 5.70689 17.7181 4.29842 17.0296 3.42994C16.6665 2.97546 16.242 2.78196 15.9591 2.69646C15.7563 2.42647 15.346 1.97198 14.6527 1.60749C13.9359 1.2025 13.1295 1 12.2429 1C12.0825 1 11.9222 1.009 11.7807 1.018C11.3846 1.036 10.9931 1.108 10.6064 1.22949C10.6017 1.22949 10.597 1.23399 10.5923 1.23399C10.1678 1.37349 9.75284 1.57599 9.35198 1.83698C8.89453 2.11597 8.47481 2.44897 8.11168 2.81796C7.39957 3.51544 6.92798 4.30292 6.72519 5.14441C6.53183 5.84189 6.51769 6.54387 6.67803 7.23236C6.59314 7.29086 6.51768 7.35836 6.45166 7.43935C6.12626 7.84884 6.11211 8.49233 6.39979 9.46881C6.59786 10.1438 6.86195 10.8323 7.30997 11.1428C7.44202 11.7908 7.66367 12.3802 7.96077 12.9022V13.9867C7.14963 14.3782 4.83408 15.5482 2.56099 17.2356C1.58478 17.9601 1 19.1031 1 20.3001V21.47C1 22.316 1.72154 23 2.60343 23H16.7275L16 21.893H2.60343C2.35348 21.8975 2.1507 21.704 2.1507 21.4655V20.2956C2.1507 19.4406 2.5657 18.6216 3.26367 18.1041C5.71597 16.2907 8.21072 15.0937 8.68703 14.8732C8.95113 14.7517 9.11619 14.4997 9.11619 14.2162V12.7537C9.11619 12.6547 9.08789 12.5602 9.03601 12.4747C8.72476 11.9708 8.50782 11.3678 8.39936 10.6793C8.36163 10.4588 8.19185 10.2833 7.9702 10.2293C7.9089 10.1618 7.73441 9.9188 7.51275 9.16731C7.32883 8.54633 7.34298 8.25834 7.36184 8.15484C7.54577 8.16384 7.72969 8.08284 7.84759 7.94334C7.9702 7.79485 8.00322 7.59685 7.93719 7.42135C7.69196 6.76887 7.66367 6.09838 7.8523 5.4144C8.01265 4.75741 8.38049 4.14543 8.95113 3.58744C9.25766 3.27245 9.61136 2.99795 9.98864 2.76846C9.99336 2.76396 10.0028 2.75946 10.0075 2.75496C10.3235 2.54346 10.6536 2.38597 10.979 2.27797C10.9837 2.27797 10.9884 2.27347 10.9884 2.27347C11.2667 2.18347 11.5543 2.13397 11.8562 2.12047C12.6815 2.05298 13.4219 2.20147 14.0774 2.56596C14.7942 2.94396 15.0866 3.43894 15.0866 3.43894C15.1762 3.61444 15.3365 3.71794 15.5441 3.73144C15.5582 3.73144 15.8647 3.77644 16.1288 4.13193C16.4071 4.50992 16.8032 5.4819 16.308 7.74985C16.2514 8.00184 16.3882 8.25384 16.6287 8.36183C16.6361 8.38702 16.6448 8.43091 16.6472 8.5L17.65 7.81245C17.6121 7.74125 17.5672 7.67687 17.5153 7.61935Z" fill="#434343" stroke="#434343" stroke-width="0.5"/>
</svg>
