<svg width="21" height="23" viewBox="0 0 21 23" fill="none" xmlns="http://www.w3.org/2000/svg">
<path d="M18.7174 7.86773C18.7174 3.5225 15.0383 0 10.5 0C5.96166 0 2.28261 3.5225 2.28261 7.86773C1.10935 8.0076 0 8.74192 0 10.4466V14.5553C0 16.4785 1.40609 17.1779 2.73913 17.1779H4.06304C4.31516 17.1779 4.51957 16.9822 4.51957 16.7408V8.2786C4.51957 8.03722 4.31516 7.84151 4.06304 7.84151H3.19565C3.19565 3.97911 6.46595 0.847967 10.5 0.847967C14.5341 0.847967 17.8043 3.97911 17.8043 7.84151H16.937C16.6848 7.84151 16.4804 8.03722 16.4804 8.2786V16.7277C16.4804 16.9691 16.6848 17.1648 16.937 17.1648H17.8043C17.6765 20.1676 16.17 20.8713 13.1615 20.9981V20.7052C13.1615 20.2224 12.7528 19.8311 12.2485 19.8311H9.37696C8.87267 19.8311 8.46391 20.2224 8.46391 20.7052V22.1258C8.46391 22.6086 8.87267 23 9.37696 23H12.2576C12.7619 23 13.1707 22.6086 13.1707 22.1258V21.8723C16.065 21.7455 18.5667 21.1729 18.7174 17.1385C19.8907 16.9987 21 16.2643 21 14.5597V10.451C21 8.73755 19.8952 8.0076 18.7174 7.86773ZM3.60652 8.6851V16.2906H2.7163C2.04065 16.2906 0.890218 16.0633 0.890218 14.5422V10.4335C0.890218 8.9255 2.02696 8.6851 2.7163 8.6851H3.60652ZM12.2576 21.4658V22.1302H9.37696V20.7096H12.2576V21.4658ZM20.087 14.5553C20.087 16.0633 18.9502 16.3037 18.2609 16.3037H17.3935V8.7157H18.2837C18.9593 8.7157 20.1098 8.94299 20.1098 10.4641L20.087 14.5553Z" fill="#E44747"/>
</svg>
