<svg width="30" height="23" viewBox="0 0 30 23" fill="none" xmlns="http://www.w3.org/2000/svg">
<path d="M2 0.5H28C28.8284 0.5 29.5 1.17157 29.5 2V14.3851C29.5 15.2136 28.8284 15.8851 28 15.8851H21.0385C19.6579 15.8851 18.5385 17.0037 18.5385 18.3846V21.7481C18.2322 21.4943 17.832 21.0944 17.3797 20.6014C16.2879 19.4114 15.0071 17.8069 14.268 16.8605C13.7893 16.2476 13.0575 15.8851 12.2759 15.8851H2C1.17157 15.8851 0.5 15.2136 0.5 14.3851V2C0.5 1.17157 1.17157 0.5 2 0.5ZM18.5375 22.2558C18.5375 22.2558 18.5376 22.2542 18.5381 22.2512C18.5378 22.2544 18.5376 22.2559 18.5375 22.2558ZM18.9142 22.0051C18.9162 22.0056 18.9173 22.006 18.9173 22.006C18.9173 22.0061 18.9163 22.0058 18.9142 22.0051Z" stroke="#E44747"/>
</svg>
