<svg width="14" height="14" viewBox="0 0 14 14" fill="none" xmlns="http://www.w3.org/2000/svg">
<path d="M3.01584 13.2827C3.01583 13.2827 3.01583 13.2827 3.01583 13.2827M3.01584 13.2827L3.01582 13.2828L3.01583 13.2827M3.01584 13.2827L3.01583 13.2827M3.01584 13.2827L3.01583 13.2827M8.86042 4.70542L8.97676 4.94113L9.23688 4.97893L13.3967 5.58342L10.3864 8.51757L10.1982 8.70106L10.2426 8.96016L10.9533 13.1033L7.23268 11.1471L7 11.0248L6.76732 11.1471L3.0466 13.1033L3.75706 8.96013L3.80148 8.70107L3.61327 8.51759L0.603256 5.58343L4.76306 4.97893L5.02318 4.94113L5.13952 4.70542L7.00001 0.935926L8.86042 4.70542ZM13.5272 5.45629L13.5271 5.45632L13.5272 5.45629ZM0.422997 5.60962L0.423075 5.60961L0.422997 5.60962ZM6.91943 0.772662L6.91948 0.772768C6.91945 0.77271 6.91943 0.772653 6.9194 0.772595L6.91943 0.772662Z" stroke="#E44747"/>
</svg>
