<svg width="22" height="22" viewBox="0 0 22 22" fill="none" xmlns="http://www.w3.org/2000/svg">
<path d="M14.9951 15.9654L19.6464 20.6166C19.7787 20.749 19.9551 20.8171 20.1315 20.8171C20.308 20.8171 20.4844 20.749 20.6167 20.6166C20.8853 20.348 20.8853 19.9109 20.6167 19.6423L15.9655 14.9911C17.2085 13.5275 17.9583 11.635 17.9583 9.57C17.9583 4.94283 14.1932 1.18176 9.57006 1.18176C4.94691 1.18176 1.18182 4.94287 1.18182 9.57008C1.18182 14.1973 4.94691 17.9583 9.57407 17.9583C11.639 17.9583 13.5316 17.2084 14.9951 15.9654ZM2.55714 9.57008C2.55714 5.70074 5.70473 2.55716 9.57006 2.55716C13.4354 2.55716 16.583 5.70475 16.583 9.57008C16.583 13.4354 13.4354 16.583 9.57006 16.583C5.70473 16.583 2.55714 13.4353 2.55714 9.57008Z" fill="#434343" stroke="#434343" stroke-width="0.5"/>
</svg>
