<svg width="14" height="14" viewBox="0 0 14 14" fill="none" xmlns="http://www.w3.org/2000/svg">
<path d="M13.9799 5.39388C13.9317 5.24537 13.8033 5.13715 13.6489 5.11473L9.30879 4.48404L7.3678 0.55129C7.29873 0.411291 7.15613 0.32267 7.00002 0.32267C6.84389 0.32267 6.70132 0.411291 6.63222 0.55129L4.69115 4.48404L0.351171 5.11473C0.196707 5.13715 0.0683282 5.24537 0.020094 5.39385C-0.0281676 5.54235 0.0120823 5.70535 0.12389 5.81431L3.26425 8.87554L2.52302 13.1981C2.49661 13.352 2.55988 13.5075 2.68618 13.5993C2.75763 13.6512 2.84226 13.6776 2.9273 13.6776C2.99259 13.6776 3.05811 13.662 3.1181 13.6305L7 11.5896L10.8817 13.6304C11.0199 13.7031 11.1874 13.691 11.3137 13.5992C11.44 13.5075 11.5033 13.3519 11.4769 13.1981L10.7354 8.87554L13.8761 5.81429C13.9879 5.70535 14.0282 5.54235 13.9799 5.39388Z" fill="#E44747"/>
</svg>
