<svg width="48" height="48" viewBox="0 0 48 48" fill="none" xmlns="http://www.w3.org/2000/svg">
<path d="M46.3711 30.844H42.418C42.3354 30.844 42.2536 30.8602 42.1772 30.8918C42.1009 30.9233 42.0316 30.9696 41.9732 31.0279C41.9147 31.0863 41.8684 31.1556 41.8368 31.2318C41.8052 31.3081 41.789 31.3898 41.7891 31.4723V32.9084H32.6135V31.4723C32.6135 31.3898 32.5973 31.3081 32.5657 31.2318C32.5341 31.1556 32.4878 31.0863 32.4294 31.0279C32.371 30.9696 32.3016 30.9233 32.2253 30.8918C32.149 30.8602 32.0672 30.844 31.9846 30.844H28.0315C27.9489 30.844 27.8671 30.8602 27.7907 30.8918C27.7144 30.9233 27.6451 30.9696 27.5867 31.0279C27.5283 31.0863 27.4819 31.1556 27.4503 31.2318C27.4188 31.3081 27.4025 31.3898 27.4026 31.4723V32.9084H21.6641C19.9252 32.9064 18.2582 32.2155 17.0286 30.9871C15.7991 29.7588 15.1075 28.0934 15.1055 26.3563V20.5785H16.543C16.7098 20.5785 16.8697 20.5123 16.9877 20.3945C17.1056 20.2767 17.1719 20.1169 17.1719 19.9502V16.001C17.1719 15.8344 17.1056 15.6746 16.9877 15.5567C16.8697 15.4389 16.7098 15.3727 16.543 15.3727H15.1055V6.20617H16.543C16.7097 6.20608 16.8696 6.13985 16.9876 6.02205C17.1055 5.90424 17.1718 5.74449 17.1719 5.57788V1.62865C17.1719 1.46198 17.1056 1.30214 16.9877 1.18425C16.8698 1.06637 16.7098 1.0001 16.543 1H1.62891C1.46208 1.0001 1.30211 1.06637 1.18418 1.18425C1.06625 1.30214 1 1.46198 1 1.62865V5.57788C1.0001 5.74449 1.06639 5.90424 1.18431 6.02205C1.30223 6.13985 1.46214 6.20608 1.62891 6.20617H3.06641V15.3727H1.62891C1.46211 15.3727 1.30215 15.4389 1.1842 15.5567C1.06626 15.6746 1 15.8344 1 16.001V19.9502C1 20.1169 1.06626 20.2767 1.1842 20.3945C1.30215 20.5123 1.46211 20.5785 1.62891 20.5785H3.06641V26.3563C3.07202 31.2821 5.03321 36.0046 8.51973 39.4877C12.0063 42.9708 16.7334 44.93 21.6641 44.9356H27.4026V46.3717C27.4026 46.5383 27.4688 46.6982 27.5868 46.816C27.7047 46.9338 27.8647 47 28.0315 47H31.9846C32.1514 47 32.3114 46.9338 32.4293 46.816C32.5472 46.6982 32.6135 46.5383 32.6135 46.3717V44.9356H41.7891V46.3717C41.7891 46.5383 41.8553 46.6982 41.9733 46.816C42.0912 46.9338 42.2512 47 42.418 47H46.3711C46.5379 47 46.6979 46.9338 46.8158 46.816C46.9337 46.6982 47 46.5383 47 46.3717V31.4723C47 31.3898 46.9838 31.3081 46.9522 31.2318C46.9206 31.1556 46.8743 31.0863 46.8159 31.0279C46.7575 30.9696 46.6881 30.9233 46.6118 30.8918C46.5355 30.8602 46.4537 30.844 46.3711 30.844ZM41.7891 34.165V36.4986H32.6135V34.165H41.7891ZM21.6641 34.165H27.4026V36.4986H21.6641C18.9724 36.4956 16.3919 35.426 14.4886 33.5246C12.5854 31.6232 11.5148 29.0452 11.5117 26.3563V20.5785H13.8477V26.3563C13.85 28.4265 14.6743 30.4113 16.1397 31.8752C17.605 33.3391 19.5918 34.1626 21.6641 34.165ZM13.8477 15.3727H11.5117V6.20617H13.8477V15.3727ZM2.25781 2.25693H15.9141V4.9496H2.25781V2.25693ZM4.32422 6.20617H10.2539V15.3727H4.32422V6.20617ZM2.25781 16.6293H15.9141V19.3219H2.25781V16.6293ZM21.6641 43.6791C17.0667 43.6743 12.659 41.8477 9.4082 38.6001C6.15737 35.3524 4.32898 30.9491 4.32422 26.3563V20.5785H10.2539V26.3563C10.2574 29.3784 11.4607 32.2757 13.5998 34.4126C15.7388 36.5496 18.639 37.7517 21.6641 37.7552H27.4026V43.6791H21.6641ZM31.3557 45.7434H28.6604V32.1006H31.3557V45.7434ZM32.6135 43.6791V37.7552H41.7891V43.6791H32.6135ZM45.7422 45.7434H43.0469V32.1006H45.7422V45.7434Z" fill="#747474"/>
</svg>
