<svg width="48" height="48" viewBox="0 0 48 48" fill="none" xmlns="http://www.w3.org/2000/svg">
<mask id="path-1-inside-1" fill="white">
<path d="M47.0875 23.1324H41.9772L45.4449 19.2084C45.8099 18.8434 45.7186 18.2959 45.3536 17.9309C44.9886 17.5658 44.4411 17.6571 44.076 18.0221L39.5133 23.1324H33.9468L36.1369 20.5772C36.5019 20.2122 36.4106 19.5734 36.0456 19.2997C35.9544 19.2084 35.8631 19.2084 35.7719 19.1172C35.7719 19.0259 35.8631 18.9347 35.8631 18.8434C35.8631 18.2959 35.4981 17.9309 35.0418 17.8396L31.6654 17.6571L35.5894 13.7331L42.4335 14.1894C42.4335 14.1894 42.4335 14.1894 42.5247 14.1894C42.981 14.1894 43.4373 13.8244 43.4373 13.3681C43.4373 12.8206 43.0722 12.4556 42.616 12.3643L37.4144 11.9993L41.0646 8.3491C41.4297 7.98409 41.4297 7.43656 41.0646 7.07154C40.6996 6.70652 40.1521 6.70652 39.7871 7.07154L36.1369 10.7217L35.7719 5.52021C35.7719 4.97268 35.3156 4.60766 34.7681 4.69891C34.2205 4.69891 33.8555 5.15519 33.9468 5.70272L34.403 12.5468L30.3878 16.3795L30.1141 13.0944C30.1141 12.5468 29.6578 12.1818 29.1103 12.2731C29.019 12.2731 28.9278 12.2731 28.8365 12.3643C28.8365 12.2731 28.7452 12.1818 28.654 12.0905C28.289 11.7255 27.7414 11.6343 27.3764 11.9993L24.9125 14.0982V8.53161L30.0228 4.06013C30.3878 3.69511 30.4791 3.14758 30.1141 2.78256C29.7491 2.41755 29.2015 2.32629 28.8365 2.69131L24.9125 6.06774V0.957469C24.9125 0.409941 24.5475 0.0449219 24 0.0449219C23.4525 0.0449219 23.0875 0.409941 23.0875 0.957469V6.06774L19.1635 2.60005C18.7985 2.23504 18.251 2.32629 17.8859 2.69131C17.5209 3.05633 17.6122 3.69511 17.9772 3.96888L23.0875 8.53161V14.0982L20.5323 11.908C20.1673 11.543 19.6198 11.6343 19.2548 11.9993C19.1635 12.0905 19.1635 12.1818 19.0722 12.2731C18.981 12.2731 18.8897 12.1818 18.7985 12.1818C18.251 12.1818 17.8859 12.5468 17.7947 13.0031L17.6122 16.3795L13.6882 12.4556L14.1445 5.61146C14.1445 5.06393 13.7795 4.69891 13.3232 4.60766C12.7757 4.60766 12.4106 4.97268 12.3194 5.42895L11.9544 10.6305L8.30418 6.98028C7.93916 6.61526 7.39163 6.61526 7.02662 6.98028C6.6616 7.3453 6.6616 7.89283 7.02662 8.25785L10.6768 11.908L5.47529 12.2731C4.92776 12.2731 4.56274 12.7293 4.65399 13.2769C4.65399 13.7331 5.11027 14.0982 5.56654 14.0982C5.56654 14.0982 5.56654 14.0982 5.65779 14.0982L12.5019 13.6419L16.4259 17.5658L13.0494 17.9309C12.5932 17.9309 12.1369 18.3871 12.2281 18.9347C12.2281 19.0259 12.2281 19.1172 12.3194 19.2084C12.2281 19.2084 12.1369 19.2997 12.0456 19.3909C11.6806 19.756 11.5894 20.3035 11.9544 20.6685L14.1445 23.2236L8.48669 23.1324L3.92395 18.0221C3.55894 17.6571 3.01141 17.5658 2.64639 17.9309C2.28137 18.2959 2.19011 18.8434 2.55513 19.2084L6.02281 23.1324H0.912548C0.365019 23.1324 0 23.4974 0 24.0449C0 24.5925 0.456274 24.9575 0.912548 24.9575H6.02281L2.55513 28.8814C2.19011 29.2464 2.28137 29.794 2.64639 30.159C2.8289 30.3415 3.01141 30.4328 3.28517 30.4328C3.55894 30.4328 3.8327 30.3415 4.01521 30.159L8.48669 24.9575H14.0532L11.8631 27.4213C11.4981 27.7864 11.5894 28.4252 11.9544 28.6989C12.0456 28.7902 12.1369 28.7902 12.2281 28.8814C12.2281 28.9727 12.1369 29.0639 12.1369 29.1552C12.1369 29.7027 12.5019 30.0677 12.9582 30.159L16.2433 30.4328L12.3194 34.3567L5.47529 33.9004C5.01901 33.9004 4.56274 34.2655 4.47148 34.7217C4.47148 35.2693 4.8365 35.6343 5.29278 35.7255L10.4943 36.0906L6.84411 39.7407C6.47909 40.1058 6.47909 40.6533 6.84411 41.0183C7.02662 41.2008 7.30038 41.2921 7.48289 41.2921C7.6654 41.2921 7.93916 41.2008 8.12167 41.0183L11.7719 37.3681L12.1369 42.5696C12.1369 43.0259 12.5932 43.3909 13.0494 43.3909C13.0494 43.3909 13.0494 43.3909 13.1407 43.3909C13.6882 43.3909 14.0532 42.9347 13.962 42.3871L13.5057 35.543L17.4297 31.6191L17.7034 34.9042C17.7034 35.3605 18.1597 35.7255 18.616 35.7255H18.7072C18.7985 35.7255 18.8897 35.7255 18.981 35.6343C18.981 35.7255 19.0722 35.8168 19.1635 35.908C19.346 36.0905 19.6198 36.1818 19.8935 36.1818C20.076 36.1818 20.3498 36.0906 20.5323 35.9993L23.0875 33.8092V39.5582L17.9772 44.121C17.6122 44.486 17.5209 45.0335 17.8859 45.3985C18.0684 45.581 18.3422 45.6723 18.616 45.6723C18.7985 45.6723 19.0722 45.581 19.2548 45.3985L23.1787 41.9309V47.0411C23.1787 47.5886 23.5437 47.9537 24.0913 47.9537C24.6388 47.9537 25.0038 47.5886 25.0038 47.0411V41.9309L28.9278 45.3985C29.1103 45.581 29.2928 45.6723 29.5665 45.6723C29.8403 45.6723 30.1141 45.581 30.2966 45.3985C30.6616 45.0335 30.5703 44.486 30.2053 44.121L24.9125 39.5582V33.9917L27.4677 36.1818C27.6502 36.3643 27.8327 36.3643 28.1065 36.3643C28.3802 36.3643 28.654 36.2731 28.8365 36.0906C28.9278 35.9993 28.9278 35.908 29.019 35.8168C29.1103 35.8168 29.2015 35.908 29.2928 35.908H29.384C29.8403 35.908 30.2966 35.543 30.2966 35.0868L30.5703 31.8016L34.4943 35.7255L34.038 42.5696C34.038 43.1172 34.403 43.4822 34.8593 43.5734C34.8593 43.5734 34.8593 43.5734 34.9506 43.5734C35.4068 43.5734 35.8631 43.2084 35.8631 42.7521L36.2281 37.5506L39.8783 41.2008C40.0608 41.3833 40.3346 41.4746 40.5171 41.4746C40.6996 41.4746 40.9734 41.3833 41.1559 41.2008C41.5209 40.8358 41.5209 40.2883 41.1559 39.9233L37.5057 36.2731L42.7072 35.908C43.2548 35.908 43.6198 35.4518 43.5285 34.9042C43.5285 34.3567 43.0722 33.9917 42.5247 34.0829L35.6806 34.5392L31.6654 30.4328L34.9506 30.159C35.4068 30.159 35.8631 29.7027 35.7719 29.1552C35.7719 29.0639 35.7719 28.9727 35.6806 28.8814C35.7719 28.8814 35.8631 28.7902 35.9544 28.6989C36.3194 28.3339 36.4106 27.7864 36.0456 27.4213L33.9468 24.9575H39.5133L43.9848 30.0677C44.1673 30.2502 44.4411 30.3415 44.7148 30.3415C44.8973 30.3415 45.1711 30.2502 45.3536 30.0677C45.7186 29.7027 45.8099 29.1552 45.4449 28.7902L41.9772 24.9575H47.0875C47.635 24.9575 48 24.5925 48 24.0449C48 23.4974 47.635 23.1324 47.0875 23.1324ZM13.5057 19.6647L17.9772 19.2997L21.7186 23.0411H16.4259L13.5057 19.6647ZM17.9772 28.6989L13.5057 28.4252L16.4259 24.9575H21.7186L17.9772 28.6989ZM22.9962 31.6191L19.6198 34.5392L19.2548 30.0677L22.9962 26.3263V31.6191ZM23.0875 21.7636L19.346 18.0221L19.711 13.5506L23.0875 16.4708V21.7636ZM24.9125 16.562L28.3802 13.5506L28.7452 18.0221L24.9125 21.8548V16.562ZM28.3802 34.5392L24.9125 31.6191V26.3263L28.654 30.0677L28.3802 34.5392ZM34.403 28.4252L29.9316 28.7902L26.1901 24.9575H31.4829L34.403 28.4252ZM31.5741 23.1324H26.2814L30.0228 19.3909L34.4943 19.6647L31.5741 23.1324Z"/>
</mask>
<path d="M47.0875 23.1324H41.9772L45.4449 19.2084C45.8099 18.8434 45.7186 18.2959 45.3536 17.9309C44.9886 17.5658 44.4411 17.6571 44.076 18.0221L39.5133 23.1324H33.9468L36.1369 20.5772C36.5019 20.2122 36.4106 19.5734 36.0456 19.2997C35.9544 19.2084 35.8631 19.2084 35.7719 19.1172C35.7719 19.0259 35.8631 18.9347 35.8631 18.8434C35.8631 18.2959 35.4981 17.9309 35.0418 17.8396L31.6654 17.6571L35.5894 13.7331L42.4335 14.1894C42.4335 14.1894 42.4335 14.1894 42.5247 14.1894C42.981 14.1894 43.4373 13.8244 43.4373 13.3681C43.4373 12.8206 43.0722 12.4556 42.616 12.3643L37.4144 11.9993L41.0646 8.3491C41.4297 7.98409 41.4297 7.43656 41.0646 7.07154C40.6996 6.70652 40.1521 6.70652 39.7871 7.07154L36.1369 10.7217L35.7719 5.52021C35.7719 4.97268 35.3156 4.60766 34.7681 4.69891C34.2205 4.69891 33.8555 5.15519 33.9468 5.70272L34.403 12.5468L30.3878 16.3795L30.1141 13.0944C30.1141 12.5468 29.6578 12.1818 29.1103 12.2731C29.019 12.2731 28.9278 12.2731 28.8365 12.3643C28.8365 12.2731 28.7452 12.1818 28.654 12.0905C28.289 11.7255 27.7414 11.6343 27.3764 11.9993L24.9125 14.0982V8.53161L30.0228 4.06013C30.3878 3.69511 30.4791 3.14758 30.1141 2.78256C29.7491 2.41755 29.2015 2.32629 28.8365 2.69131L24.9125 6.06774V0.957469C24.9125 0.409941 24.5475 0.0449219 24 0.0449219C23.4525 0.0449219 23.0875 0.409941 23.0875 0.957469V6.06774L19.1635 2.60005C18.7985 2.23504 18.251 2.32629 17.8859 2.69131C17.5209 3.05633 17.6122 3.69511 17.9772 3.96888L23.0875 8.53161V14.0982L20.5323 11.908C20.1673 11.543 19.6198 11.6343 19.2548 11.9993C19.1635 12.0905 19.1635 12.1818 19.0722 12.2731C18.981 12.2731 18.8897 12.1818 18.7985 12.1818C18.251 12.1818 17.8859 12.5468 17.7947 13.0031L17.6122 16.3795L13.6882 12.4556L14.1445 5.61146C14.1445 5.06393 13.7795 4.69891 13.3232 4.60766C12.7757 4.60766 12.4106 4.97268 12.3194 5.42895L11.9544 10.6305L8.30418 6.98028C7.93916 6.61526 7.39163 6.61526 7.02662 6.98028C6.6616 7.3453 6.6616 7.89283 7.02662 8.25785L10.6768 11.908L5.47529 12.2731C4.92776 12.2731 4.56274 12.7293 4.65399 13.2769C4.65399 13.7331 5.11027 14.0982 5.56654 14.0982C5.56654 14.0982 5.56654 14.0982 5.65779 14.0982L12.5019 13.6419L16.4259 17.5658L13.0494 17.9309C12.5932 17.9309 12.1369 18.3871 12.2281 18.9347C12.2281 19.0259 12.2281 19.1172 12.3194 19.2084C12.2281 19.2084 12.1369 19.2997 12.0456 19.3909C11.6806 19.756 11.5894 20.3035 11.9544 20.6685L14.1445 23.2236L8.48669 23.1324L3.92395 18.0221C3.55894 17.6571 3.01141 17.5658 2.64639 17.9309C2.28137 18.2959 2.19011 18.8434 2.55513 19.2084L6.02281 23.1324H0.912548C0.365019 23.1324 0 23.4974 0 24.0449C0 24.5925 0.456274 24.9575 0.912548 24.9575H6.02281L2.55513 28.8814C2.19011 29.2464 2.28137 29.794 2.64639 30.159C2.8289 30.3415 3.01141 30.4328 3.28517 30.4328C3.55894 30.4328 3.8327 30.3415 4.01521 30.159L8.48669 24.9575H14.0532L11.8631 27.4213C11.4981 27.7864 11.5894 28.4252 11.9544 28.6989C12.0456 28.7902 12.1369 28.7902 12.2281 28.8814C12.2281 28.9727 12.1369 29.0639 12.1369 29.1552C12.1369 29.7027 12.5019 30.0677 12.9582 30.159L16.2433 30.4328L12.3194 34.3567L5.47529 33.9004C5.01901 33.9004 4.56274 34.2655 4.47148 34.7217C4.47148 35.2693 4.8365 35.6343 5.29278 35.7255L10.4943 36.0906L6.84411 39.7407C6.47909 40.1058 6.47909 40.6533 6.84411 41.0183C7.02662 41.2008 7.30038 41.2921 7.48289 41.2921C7.6654 41.2921 7.93916 41.2008 8.12167 41.0183L11.7719 37.3681L12.1369 42.5696C12.1369 43.0259 12.5932 43.3909 13.0494 43.3909C13.0494 43.3909 13.0494 43.3909 13.1407 43.3909C13.6882 43.3909 14.0532 42.9347 13.962 42.3871L13.5057 35.543L17.4297 31.6191L17.7034 34.9042C17.7034 35.3605 18.1597 35.7255 18.616 35.7255H18.7072C18.7985 35.7255 18.8897 35.7255 18.981 35.6343C18.981 35.7255 19.0722 35.8168 19.1635 35.908C19.346 36.0905 19.6198 36.1818 19.8935 36.1818C20.076 36.1818 20.3498 36.0906 20.5323 35.9993L23.0875 33.8092V39.5582L17.9772 44.121C17.6122 44.486 17.5209 45.0335 17.8859 45.3985C18.0684 45.581 18.3422 45.6723 18.616 45.6723C18.7985 45.6723 19.0722 45.581 19.2548 45.3985L23.1787 41.9309V47.0411C23.1787 47.5886 23.5437 47.9537 24.0913 47.9537C24.6388 47.9537 25.0038 47.5886 25.0038 47.0411V41.9309L28.9278 45.3985C29.1103 45.581 29.2928 45.6723 29.5665 45.6723C29.8403 45.6723 30.1141 45.581 30.2966 45.3985C30.6616 45.0335 30.5703 44.486 30.2053 44.121L24.9125 39.5582V33.9917L27.4677 36.1818C27.6502 36.3643 27.8327 36.3643 28.1065 36.3643C28.3802 36.3643 28.654 36.2731 28.8365 36.0906C28.9278 35.9993 28.9278 35.908 29.019 35.8168C29.1103 35.8168 29.2015 35.908 29.2928 35.908H29.384C29.8403 35.908 30.2966 35.543 30.2966 35.0868L30.5703 31.8016L34.4943 35.7255L34.038 42.5696C34.038 43.1172 34.403 43.4822 34.8593 43.5734C34.8593 43.5734 34.8593 43.5734 34.9506 43.5734C35.4068 43.5734 35.8631 43.2084 35.8631 42.7521L36.2281 37.5506L39.8783 41.2008C40.0608 41.3833 40.3346 41.4746 40.5171 41.4746C40.6996 41.4746 40.9734 41.3833 41.1559 41.2008C41.5209 40.8358 41.5209 40.2883 41.1559 39.9233L37.5057 36.2731L42.7072 35.908C43.2548 35.908 43.6198 35.4518 43.5285 34.9042C43.5285 34.3567 43.0722 33.9917 42.5247 34.0829L35.6806 34.5392L31.6654 30.4328L34.9506 30.159C35.4068 30.159 35.8631 29.7027 35.7719 29.1552C35.7719 29.0639 35.7719 28.9727 35.6806 28.8814C35.7719 28.8814 35.8631 28.7902 35.9544 28.6989C36.3194 28.3339 36.4106 27.7864 36.0456 27.4213L33.9468 24.9575H39.5133L43.9848 30.0677C44.1673 30.2502 44.4411 30.3415 44.7148 30.3415C44.8973 30.3415 45.1711 30.2502 45.3536 30.0677C45.7186 29.7027 45.8099 29.1552 45.4449 28.7902L41.9772 24.9575H47.0875C47.635 24.9575 48 24.5925 48 24.0449C48 23.4974 47.635 23.1324 47.0875 23.1324ZM13.5057 19.6647L17.9772 19.2997L21.7186 23.0411H16.4259L13.5057 19.6647ZM17.9772 28.6989L13.5057 28.4252L16.4259 24.9575H21.7186L17.9772 28.6989ZM22.9962 31.6191L19.6198 34.5392L19.2548 30.0677L22.9962 26.3263V31.6191ZM23.0875 21.7636L19.346 18.0221L19.711 13.5506L23.0875 16.4708V21.7636ZM24.9125 16.562L28.3802 13.5506L28.7452 18.0221L24.9125 21.8548V16.562ZM28.3802 34.5392L24.9125 31.6191V26.3263L28.654 30.0677L28.3802 34.5392ZM34.403 28.4252L29.9316 28.7902L26.1901 24.9575H31.4829L34.403 28.4252ZM31.5741 23.1324H26.2814L30.0228 19.3909L34.4943 19.6647L31.5741 23.1324Z" fill="#747474" stroke="white" stroke-width="0.6" mask="url(#path-1-inside-1)"/>
</svg>
