<svg width="48" height="48" viewBox="0 0 48 48" fill="none" xmlns="http://www.w3.org/2000/svg">
<mask id="path-1-inside-1" fill="white">
<path d="M33.0469 13.3807C33.0469 8.88342 29.4265 5.22447 24.9766 5.22447H24.6307C22.4302 5.22447 20.3208 5.90769 18.53 7.20047L16.6146 8.58334C15.5745 9.33437 14.9535 10.5537 14.9535 11.8455C14.9535 13.2371 15.6504 14.5078 16.8177 15.2448L18.4794 16.2945C19.8537 17.1628 20.8376 18.5283 21.2422 20.0989L18.377 17.2034C17.0159 15.8278 15.2063 15.07 13.2818 15.07C8.83194 15.07 5.21155 18.7289 5.21155 23.2262V23.576C5.21155 25.8 5.88757 27.9318 7.16649 29.7414L8.53502 31.6773C9.27767 32.7287 10.4842 33.3563 11.7626 33.3563C13.1393 33.3563 14.3966 32.652 15.1262 31.472L16.1649 29.7928C17.0241 28.4039 18.3752 27.4093 19.9292 27.0003L17.064 29.8958C15.7029 31.2712 14.9533 33.1001 14.9533 35.0456C14.9533 39.5428 18.5737 43.2018 23.0235 43.2018H23.3697C25.5702 43.2018 27.6798 42.5186 29.4701 41.2258L31.3858 39.8429C32.4256 39.0919 33.0466 37.8723 33.0466 36.5807C33.0466 35.1892 32.3497 33.9184 31.1825 33.1815L29.5207 32.1318C28.1462 31.2634 27.1625 29.8977 26.7579 28.3271L29.6231 31.2229C30.9842 32.5985 32.7938 33.3563 34.7186 33.3563C39.1684 33.3563 42.7886 29.6973 42.7886 25.2001V24.8503C42.7886 22.6263 42.1126 20.4945 40.8337 18.6848L39.4654 16.7487C38.7223 15.6976 37.5158 15.07 36.2375 15.07C34.8609 15.07 33.6036 15.7743 32.8739 16.9542L31.835 18.6334C30.9805 20.0156 29.6236 21.0165 28.0707 21.4262L30.9362 18.5302C32.2975 17.1551 33.0469 15.3262 33.0469 13.3807ZM26.7249 24.2132C26.7249 25.7317 25.5027 26.9668 24.0004 26.9668C22.4982 26.9668 21.2759 25.7315 21.2759 24.2132C21.2759 22.695 22.4979 21.4597 24.0002 21.4597C25.5024 21.4597 26.7249 22.6948 26.7249 24.2132ZM14.5902 28.798L13.5516 30.4772C13.1634 31.1048 12.4946 31.4793 11.7626 31.4793C11.0829 31.4793 10.4414 31.1454 10.0461 30.5863L8.67755 28.6502C7.62498 27.1608 7.06852 25.4063 7.06852 23.5758V23.226C7.06852 19.7636 9.85572 16.9467 13.2816 16.9467C14.71 16.9467 16.0532 17.5089 17.0638 18.5302L20.1734 21.6727C19.6973 22.4029 19.4182 23.275 19.4182 24.213C19.4182 24.5413 19.4533 24.861 19.5178 25.1703C17.4833 25.6904 15.7122 26.9837 14.5902 28.798ZM28.5366 33.7235L30.1986 34.7734C30.8191 35.1652 31.1899 35.8412 31.1899 36.581C31.1899 37.2679 30.8595 37.9164 30.3066 38.316L28.3909 39.6989C26.9172 40.7629 25.1811 41.3253 23.3699 41.3253H23.0238C19.5979 41.3253 16.8107 38.5084 16.8107 35.046C16.8107 33.6022 17.367 32.2444 18.3773 31.2233L21.4869 28.0808C22.2094 28.562 23.0725 28.844 24.0004 28.844C24.3252 28.844 24.6416 28.8086 24.9474 28.7434C25.4618 30.7996 26.7412 32.5895 28.5366 33.7235ZM33.4102 19.6285L34.4488 17.9493C34.837 17.3217 35.5058 16.9472 36.2378 16.9472C36.9175 16.9472 37.5592 17.2811 37.9545 17.8402L39.3228 19.7763C40.3754 21.2657 40.9319 23.0202 40.9319 24.8507V25.2005C40.9319 28.6629 38.1449 31.4798 34.719 31.4798C33.2904 31.4798 31.9472 30.9176 30.9366 29.8963L27.8272 26.7538C28.3033 26.0236 28.5824 25.1515 28.5824 24.2135C28.5824 23.886 28.5476 23.5666 28.4833 23.2583C30.5157 22.7372 32.294 21.4339 33.4102 19.6285ZM26.5137 20.3459C25.7915 19.8647 24.9283 19.5827 24.0002 19.5827C23.6754 19.5827 23.359 19.6181 23.0533 19.6834C22.5386 17.6269 21.259 15.837 19.4637 14.703L17.8018 13.6531C17.1812 13.2613 16.8105 12.5853 16.8105 11.8455C16.8105 11.1586 17.1408 10.5101 17.6941 10.1105L19.6095 8.72763C21.0835 7.66361 22.8195 7.10122 24.6307 7.10122H24.9766C28.4025 7.10122 31.1897 9.91811 31.1897 13.3804C31.1897 14.8243 30.6334 16.1821 29.6231 17.2032L26.5137 20.3459Z"/>
<path fill-rule="evenodd" clip-rule="evenodd" d="M47.0002 24.2134C47.0002 16.2615 43.0432 8.94548 36.4153 4.64272L36.2099 4.5428C34.571 3.58436 33.5453 3.09408 31.5763 2.28822L31.3695 2.18762C29.0018 1.37887 26.5224 0.96875 24.0003 0.96875C11.3182 0.96875 1.00049 11.3961 1.00049 24.2134C1.00049 36.2388 10.0829 46.1603 21.6788 47.3402L23.536 47.4521C23.6907 47.4552 23.845 47.458 24.0003 47.458C24.1557 47.458 24.31 47.4552 24.4646 47.4521L26.3219 47.3402C37.918 46.1603 47.0002 36.2388 47.0002 24.2134ZM45.143 24.2134C45.143 16.9034 41.505 10.1777 35.4115 6.22174C33.7311 5.2182 32.7157 4.72434 30.7747 3.9656C28.5993 3.22254 26.3198 2.84574 24.0003 2.84574C12.3424 2.84574 2.85793 12.431 2.85793 24.2134C2.85793 35.9957 12.3424 45.581 24.0006 45.581C35.6587 45.581 45.143 35.9957 45.143 24.2134Z"/>
</mask>
<path d="M33.0469 13.3807C33.0469 8.88342 29.4265 5.22447 24.9766 5.22447H24.6307C22.4302 5.22447 20.3208 5.90769 18.53 7.20047L16.6146 8.58334C15.5745 9.33437 14.9535 10.5537 14.9535 11.8455C14.9535 13.2371 15.6504 14.5078 16.8177 15.2448L18.4794 16.2945C19.8537 17.1628 20.8376 18.5283 21.2422 20.0989L18.377 17.2034C17.0159 15.8278 15.2063 15.07 13.2818 15.07C8.83194 15.07 5.21155 18.7289 5.21155 23.2262V23.576C5.21155 25.8 5.88757 27.9318 7.16649 29.7414L8.53502 31.6773C9.27767 32.7287 10.4842 33.3563 11.7626 33.3563C13.1393 33.3563 14.3966 32.652 15.1262 31.472L16.1649 29.7928C17.0241 28.4039 18.3752 27.4093 19.9292 27.0003L17.064 29.8958C15.7029 31.2712 14.9533 33.1001 14.9533 35.0456C14.9533 39.5428 18.5737 43.2018 23.0235 43.2018H23.3697C25.5702 43.2018 27.6798 42.5186 29.4701 41.2258L31.3858 39.8429C32.4256 39.0919 33.0466 37.8723 33.0466 36.5807C33.0466 35.1892 32.3497 33.9184 31.1825 33.1815L29.5207 32.1318C28.1462 31.2634 27.1625 29.8977 26.7579 28.3271L29.6231 31.2229C30.9842 32.5985 32.7938 33.3563 34.7186 33.3563C39.1684 33.3563 42.7886 29.6973 42.7886 25.2001V24.8503C42.7886 22.6263 42.1126 20.4945 40.8337 18.6848L39.4654 16.7487C38.7223 15.6976 37.5158 15.07 36.2375 15.07C34.8609 15.07 33.6036 15.7743 32.8739 16.9542L31.835 18.6334C30.9805 20.0156 29.6236 21.0165 28.0707 21.4262L30.9362 18.5302C32.2975 17.1551 33.0469 15.3262 33.0469 13.3807ZM26.7249 24.2132C26.7249 25.7317 25.5027 26.9668 24.0004 26.9668C22.4982 26.9668 21.2759 25.7315 21.2759 24.2132C21.2759 22.695 22.4979 21.4597 24.0002 21.4597C25.5024 21.4597 26.7249 22.6948 26.7249 24.2132ZM14.5902 28.798L13.5516 30.4772C13.1634 31.1048 12.4946 31.4793 11.7626 31.4793C11.0829 31.4793 10.4414 31.1454 10.0461 30.5863L8.67755 28.6502C7.62498 27.1608 7.06852 25.4063 7.06852 23.5758V23.226C7.06852 19.7636 9.85572 16.9467 13.2816 16.9467C14.71 16.9467 16.0532 17.5089 17.0638 18.5302L20.1734 21.6727C19.6973 22.4029 19.4182 23.275 19.4182 24.213C19.4182 24.5413 19.4533 24.861 19.5178 25.1703C17.4833 25.6904 15.7122 26.9837 14.5902 28.798ZM28.5366 33.7235L30.1986 34.7734C30.8191 35.1652 31.1899 35.8412 31.1899 36.581C31.1899 37.2679 30.8595 37.9164 30.3066 38.316L28.3909 39.6989C26.9172 40.7629 25.1811 41.3253 23.3699 41.3253H23.0238C19.5979 41.3253 16.8107 38.5084 16.8107 35.046C16.8107 33.6022 17.367 32.2444 18.3773 31.2233L21.4869 28.0808C22.2094 28.562 23.0725 28.844 24.0004 28.844C24.3252 28.844 24.6416 28.8086 24.9474 28.7434C25.4618 30.7996 26.7412 32.5895 28.5366 33.7235ZM33.4102 19.6285L34.4488 17.9493C34.837 17.3217 35.5058 16.9472 36.2378 16.9472C36.9175 16.9472 37.5592 17.2811 37.9545 17.8402L39.3228 19.7763C40.3754 21.2657 40.9319 23.0202 40.9319 24.8507V25.2005C40.9319 28.6629 38.1449 31.4798 34.719 31.4798C33.2904 31.4798 31.9472 30.9176 30.9366 29.8963L27.8272 26.7538C28.3033 26.0236 28.5824 25.1515 28.5824 24.2135C28.5824 23.886 28.5476 23.5666 28.4833 23.2583C30.5157 22.7372 32.294 21.4339 33.4102 19.6285ZM26.5137 20.3459C25.7915 19.8647 24.9283 19.5827 24.0002 19.5827C23.6754 19.5827 23.359 19.6181 23.0533 19.6834C22.5386 17.6269 21.259 15.837 19.4637 14.703L17.8018 13.6531C17.1812 13.2613 16.8105 12.5853 16.8105 11.8455C16.8105 11.1586 17.1408 10.5101 17.6941 10.1105L19.6095 8.72763C21.0835 7.66361 22.8195 7.10122 24.6307 7.10122H24.9766C28.4025 7.10122 31.1897 9.91811 31.1897 13.3804C31.1897 14.8243 30.6334 16.1821 29.6231 17.2032L26.5137 20.3459Z" fill="#747474"/>
<path fill-rule="evenodd" clip-rule="evenodd" d="M47.0002 24.2134C47.0002 16.2615 43.0432 8.94548 36.4153 4.64272L36.2099 4.5428C34.571 3.58436 33.5453 3.09408 31.5763 2.28822L31.3695 2.18762C29.0018 1.37887 26.5224 0.96875 24.0003 0.96875C11.3182 0.96875 1.00049 11.3961 1.00049 24.2134C1.00049 36.2388 10.0829 46.1603 21.6788 47.3402L23.536 47.4521C23.6907 47.4552 23.845 47.458 24.0003 47.458C24.1557 47.458 24.31 47.4552 24.4646 47.4521L26.3219 47.3402C37.918 46.1603 47.0002 36.2388 47.0002 24.2134ZM45.143 24.2134C45.143 16.9034 41.505 10.1777 35.4115 6.22174C33.7311 5.2182 32.7157 4.72434 30.7747 3.9656C28.5993 3.22254 26.3198 2.84574 24.0003 2.84574C12.3424 2.84574 2.85793 12.431 2.85793 24.2134C2.85793 35.9957 12.3424 45.581 24.0006 45.581C35.6587 45.581 45.143 35.9957 45.143 24.2134Z" fill="#747474"/>
<path d="M23.536 47.4521H23.686V47.3021H23.536V47.4521ZM23.536 47.3021C23.4927 47.3021 23.4495 47.3074 23.4098 47.3223C23.3695 47.3374 23.3268 47.3651 23.299 47.4119C23.2391 47.5129 23.2901 47.6109 23.3334 47.6547C23.3765 47.6982 23.4756 47.7515 23.5778 47.6896C23.6246 47.6612 23.6516 47.6182 23.6663 47.5782C23.6809 47.5387 23.686 47.4955 23.686 47.4521H23.386C23.386 47.4734 23.3832 47.4788 23.3848 47.4747C23.3865 47.47 23.3955 47.4492 23.4223 47.433C23.4845 47.3953 23.5356 47.4325 23.5467 47.4437C23.5579 47.4551 23.5929 47.5046 23.557 47.5651C23.5412 47.5917 23.5206 47.6012 23.5152 47.6032C23.5106 47.6049 23.5154 47.6021 23.536 47.6021V47.3021ZM31.6582 2.16255C31.5847 2.11466 31.5043 2.07514 31.418 2.04566L31.321 2.32957C31.3836 2.35093 31.4415 2.37945 31.4944 2.41388L31.6582 2.16255ZM36.497 4.51689C36.4209 4.46752 36.3407 4.42892 36.2584 4.40083L36.1615 4.68477C36.2206 4.70493 36.2784 4.73272 36.3336 4.76855L36.497 4.51689ZM36.4153 4.64272L36.5787 4.39109L36.5632 4.38104L36.5466 4.37296L36.4153 4.64272ZM35.4115 6.22174L35.575 5.96994L35.5653 5.96417L35.4115 6.22174ZM30.7747 3.9656L30.8841 3.68592L30.8717 3.6817L30.7747 3.9656ZM31.3695 2.18762L31.5008 1.91786L31.4841 1.90973L31.4665 1.90372L31.3695 2.18762ZM21.6788 47.3402L21.6484 47.6389L21.6608 47.6397L21.6788 47.3402ZM26.3219 47.3402L26.3399 47.6399L26.3522 47.6387L26.3219 47.3402ZM23.536 47.4521L23.518 47.7518L23.5301 47.7521L23.536 47.4521ZM24.4646 47.4521L24.4706 47.7523L24.4827 47.7516L24.4646 47.4521ZM18.53 7.20047L18.3544 6.95723L18.3544 6.95723L18.53 7.20047ZM16.6146 8.58334L16.4389 8.3401L16.4389 8.34012L16.6146 8.58334ZM16.8177 15.2448L16.9779 14.9911L16.9778 14.9911L16.8177 15.2448ZM18.4794 16.2945L18.6397 16.0409L18.6396 16.0408L18.4794 16.2945ZM21.2422 20.0989L21.029 20.3099L21.8097 21.0988L21.5328 20.024L21.2422 20.0989ZM18.377 17.2034L18.1638 17.4144L18.1638 17.4144L18.377 17.2034ZM7.16649 29.7414L6.92149 29.9146L6.92152 29.9146L7.16649 29.7414ZM8.53502 31.6773L8.78005 31.5042L8.77998 31.5041L8.53502 31.6773ZM15.1262 31.472L14.8711 31.3142L14.8711 31.3142L15.1262 31.472ZM16.1649 29.7928L15.9097 29.635L15.9097 29.635L16.1649 29.7928ZM19.9292 27.0003L20.1424 27.2114L20.9149 26.4307L19.8529 26.7102L19.9292 27.0003ZM17.064 29.8958L17.2772 30.1069L17.2772 30.1068L17.064 29.8958ZM29.4701 41.2258L29.2945 40.9825L29.2945 40.9826L29.4701 41.2258ZM31.3858 39.8429L31.5614 40.0862L31.5615 40.0861L31.3858 39.8429ZM31.1825 33.1815L31.0222 33.4351L31.0223 33.4352L31.1825 33.1815ZM29.5207 32.1318L29.3605 32.3854L29.3605 32.3854L29.5207 32.1318ZM26.7579 28.3271L26.9712 28.1161L26.1905 27.3271L26.4674 28.402L26.7579 28.3271ZM29.6231 31.2229L29.4099 31.4339L29.6231 31.2229ZM40.8337 18.6848L41.0787 18.5117L40.8337 18.6848ZM39.4654 16.7487L39.7104 16.5756L39.7103 16.5755L39.4654 16.7487ZM32.8739 16.9542L33.129 17.1121L33.1291 17.112L32.8739 16.9542ZM31.835 18.6334L31.5799 18.4756L31.5799 18.4757L31.835 18.6334ZM28.0707 21.4262L27.8575 21.2152L27.0842 21.9967L28.1472 21.7162L28.0707 21.4262ZM30.9362 18.5302L30.723 18.3191L30.7229 18.3192L30.9362 18.5302ZM14.5902 28.798L14.8453 28.9558L14.8454 28.9558L14.5902 28.798ZM13.5516 30.4772L13.2964 30.3194L13.2964 30.3194L13.5516 30.4772ZM10.0461 30.5863L9.8011 30.7595L9.80114 30.7595L10.0461 30.5863ZM8.67755 28.6502L8.43256 28.8234L8.43258 28.8234L8.67755 28.6502ZM17.0638 18.5302L16.8505 18.7412L16.8505 18.7412L17.0638 18.5302ZM20.1734 21.6727L20.4247 21.8366L20.557 21.6338L20.3867 21.4617L20.1734 21.6727ZM19.5178 25.1703L19.5921 25.4609L19.8701 25.3899L19.8115 25.109L19.5178 25.1703ZM28.5366 33.7235L28.6969 33.4699L28.6968 33.4698L28.5366 33.7235ZM30.1986 34.7734L30.0384 35.027L30.0384 35.0271L30.1986 34.7734ZM30.3066 38.316L30.4821 38.5592L30.4823 38.5592L30.3066 38.316ZM28.3909 39.6989L28.2153 39.4556L28.2152 39.4556L28.3909 39.6989ZM18.3773 31.2233L18.164 31.0123L18.164 31.0123L18.3773 31.2233ZM21.4869 28.0808L21.6532 27.8311L21.4475 27.6941L21.2737 27.8698L21.4869 28.0808ZM24.9474 28.7434L25.2384 28.6705L25.1681 28.3895L24.8848 28.45L24.9474 28.7434ZM33.4102 19.6285L33.155 19.4707L33.155 19.4707L33.4102 19.6285ZM34.4488 17.9493L34.704 18.1071L34.704 18.1071L34.4488 17.9493ZM37.9545 17.8402L38.1995 17.667L38.1995 17.667L37.9545 17.8402ZM39.3228 19.7763L39.5678 19.6031V19.6031L39.3228 19.7763ZM30.9366 29.8963L31.1499 29.6853L30.9366 29.8963ZM27.8272 26.7538L27.5759 26.5899L27.4437 26.7927L27.6139 26.9648L27.8272 26.7538ZM28.4833 23.2583L28.4087 22.9677L28.131 23.0389L28.1896 23.3196L28.4833 23.2583ZM26.5137 20.3459L26.3473 20.5956L26.5531 20.7327L26.7269 20.5569L26.5137 20.3459ZM23.0533 19.6834L22.7622 19.7562L22.8326 20.0372L23.1158 19.9768L23.0533 19.6834ZM19.4637 14.703L19.3035 14.9566L19.3035 14.9567L19.4637 14.703ZM17.8018 13.6531L17.962 13.3995L17.9619 13.3994L17.8018 13.6531ZM17.6941 10.1105L17.5184 9.86727L17.5184 9.8673L17.6941 10.1105ZM19.6095 8.72763L19.4339 8.48439L19.4339 8.4844L19.6095 8.72763ZM29.6231 17.2032L29.4099 16.9922L29.4098 16.9922L29.6231 17.2032ZM36.2099 4.5428L36.0585 4.80177L36.0684 4.80755L36.0787 4.81256L36.2099 4.5428ZM31.5763 2.28822L31.445 2.55798L31.4537 2.56221L31.4626 2.56587L31.5763 2.28822ZM47.3002 24.2134C47.3002 16.1607 43.2924 8.7496 36.5787 4.39109L36.2519 4.89435C42.794 9.14136 46.7002 16.3623 46.7002 24.2134H47.3002ZM35.2481 6.47336C41.2558 10.3736 44.843 17.0043 44.843 24.2134H45.443C45.443 16.8026 41.7542 9.98183 35.5748 5.97011L35.2481 6.47336ZM44.843 24.2134C44.843 35.833 35.49 45.281 24.0006 45.281V45.881C35.8274 45.881 45.443 36.1584 45.443 24.2134H44.843ZM24.0006 45.281C12.5111 45.281 3.15793 35.833 3.15793 24.2134H2.55793C2.55793 36.1584 12.1738 45.881 24.0006 45.881V45.281ZM3.15793 24.2134C3.15793 12.5937 12.5111 3.14574 24.0003 3.14574V2.54574C12.1738 2.54574 2.55793 12.2684 2.55793 24.2134H3.15793ZM24.0003 3.14574C26.2871 3.14574 28.5338 3.5172 30.6778 4.24949L30.8717 3.6817C28.6647 2.92789 26.3525 2.54574 24.0003 2.54574V3.14574ZM31.4665 1.90372C29.0673 1.08423 26.5552 0.66875 24.0003 0.66875V1.26875C26.4897 1.26875 28.9363 1.67352 31.2725 2.47151L31.4665 1.90372ZM24.0003 0.66875C11.1495 0.66875 0.700488 11.2334 0.700488 24.2134H1.30049C1.30049 11.5588 11.4869 1.26875 24.0003 1.26875V0.66875ZM0.700488 24.2134C0.700488 36.3918 9.89856 46.4431 21.6485 47.6387L21.7092 47.0417C10.2673 45.8775 1.30049 36.0857 1.30049 24.2134H0.700488ZM26.3522 47.6387C38.1024 46.4431 47.3002 36.3918 47.3002 24.2134H46.7002C46.7002 36.0857 37.7337 45.8775 26.2915 47.0417L26.3522 47.6387ZM23.5301 47.7521C23.6847 47.7551 23.8417 47.758 24.0003 47.758V47.158C23.8483 47.158 23.6966 47.1552 23.542 47.1522L23.5301 47.7521ZM24.0003 47.758C24.1589 47.758 24.316 47.7551 24.4706 47.7521L24.4587 47.1522C24.3041 47.1552 24.1524 47.158 24.0003 47.158V47.758ZM21.6608 47.6397L23.518 47.7516L23.5541 47.1527L21.6969 47.0407L21.6608 47.6397ZM24.4827 47.7516L26.3399 47.6397L26.3038 47.0407L24.4466 47.1527L24.4827 47.7516ZM33.3469 13.3807C33.3469 8.72074 29.5952 4.92447 24.9766 4.92447V5.52447C29.2578 5.52447 32.7469 9.0461 32.7469 13.3807H33.3469ZM24.9766 4.92447H24.6307V5.52447H24.9766V4.92447ZM24.6307 4.92447C22.3669 4.92447 20.1961 5.6277 18.3544 6.95723L18.7056 7.44371C20.4455 6.18769 22.4935 5.52447 24.6307 5.52447V4.92447ZM18.3544 6.95723L16.4389 8.3401L16.7902 8.82657L18.7056 7.4437L18.3544 6.95723ZM16.4389 8.34012C15.3202 9.148 14.6535 10.4581 14.6535 11.8455H15.2535C15.2535 10.6493 15.8289 9.52074 16.7902 8.82655L16.4389 8.34012ZM14.6535 11.8455C14.6535 13.339 15.4024 14.706 16.6575 15.4984L16.9778 14.9911C15.8985 14.3096 15.2535 13.1351 15.2535 11.8455H14.6535ZM16.6575 15.4984L18.3192 16.5481L18.6396 16.0408L16.9779 14.9911L16.6575 15.4984ZM18.3192 16.5481C19.628 17.375 20.5659 18.6761 20.9517 20.1737L21.5328 20.024C21.1093 18.3806 20.0795 16.9506 18.6397 16.0409L18.3192 16.5481ZM21.4555 19.8879L18.5903 16.9924L18.1638 17.4144L21.029 20.3099L21.4555 19.8879ZM18.5903 16.9924C17.1732 15.5602 15.287 14.77 13.2818 14.77V15.37C15.1257 15.37 16.8587 16.0954 18.1638 17.4144L18.5903 16.9924ZM13.2818 14.77C8.66326 14.77 4.91155 18.5662 4.91155 23.2262H5.51155C5.51155 18.8916 9.00061 15.37 13.2818 15.37V14.77ZM4.91155 23.2262V23.576H5.51155V23.2262H4.91155ZM4.91155 23.576C4.91155 25.8618 5.60665 28.0541 6.92149 29.9146L7.41148 29.5683C6.16849 27.8095 5.51155 25.7382 5.51155 23.576H4.91155ZM6.92152 29.9146L8.29005 31.8505L8.77998 31.5041L7.41146 29.5683L6.92152 29.9146ZM8.28998 31.8504C9.08839 32.9807 10.3859 33.6563 11.7626 33.6563V33.0563C10.5824 33.0563 9.46694 32.4767 8.78005 31.5042L8.28998 31.8504ZM11.7626 33.6563C13.2442 33.6563 14.5976 32.8973 15.3814 31.6298L14.8711 31.3142C14.1956 32.4066 13.0343 33.0563 11.7626 33.0563V33.6563ZM15.3814 31.6298L16.42 29.9506L15.9097 29.635L14.8711 31.3142L15.3814 31.6298ZM16.42 29.9507C17.2388 28.627 18.526 27.6798 20.0055 27.2905L19.8529 26.7102C18.2244 27.1388 16.8093 28.1807 15.9097 29.635L16.42 29.9507ZM19.716 26.7893L16.8508 29.6848L17.2772 30.1068L20.1424 27.2114L19.716 26.7893ZM16.8508 29.6848C15.4337 31.1167 14.6533 33.0215 14.6533 35.0456H15.2533C15.2533 33.1786 15.9721 31.4257 17.2772 30.1069L16.8508 29.6848ZM14.6533 35.0456C14.6533 39.7055 18.405 43.5018 23.0235 43.5018V42.9018C18.7423 42.9018 15.2533 39.3802 15.2533 35.0456H14.6533ZM23.0235 43.5018H23.3697V42.9018H23.0235V43.5018ZM23.3697 43.5018C25.6335 43.5018 27.8045 42.7986 29.6457 41.469L29.2945 40.9826C27.5551 42.2386 25.5069 42.9018 23.3697 42.9018V43.5018ZM29.6457 41.469L31.5614 40.0862L31.2102 39.5997L29.2945 40.9825L29.6457 41.469ZM31.5615 40.0861C32.68 39.2782 33.3466 37.9679 33.3466 36.5807H32.7466C32.7466 37.7768 32.1713 38.9056 31.2102 39.5997L31.5615 40.0861ZM33.3466 36.5807C33.3466 35.0872 32.5978 33.7203 31.3426 32.9278L31.0223 33.4352C32.1017 34.1166 32.7466 35.2911 32.7466 36.5807H33.3466ZM31.3427 32.9279L29.681 31.8782L29.3605 32.3854L31.0222 33.4351L31.3427 32.9279ZM29.681 31.8782C28.372 31.0513 27.4343 29.75 27.0484 28.2523L26.4674 28.402C26.8908 30.0454 27.9203 31.4756 29.3605 32.3854L29.681 31.8782ZM26.5447 28.5381L29.4099 31.4339L29.8364 31.0119L26.9712 28.1161L26.5447 28.5381ZM29.4099 31.4339C30.8269 32.866 32.7132 33.6563 34.7186 33.6563V33.0563C32.8745 33.0563 31.1415 32.3309 29.8364 31.0119L29.4099 31.4339ZM34.7186 33.6563C39.3371 33.6563 43.0886 29.86 43.0886 25.2001H42.4886C42.4886 29.5347 38.9998 33.0563 34.7186 33.0563V33.6563ZM43.0886 25.2001V24.8503H42.4886V25.2001H43.0886ZM43.0886 24.8503C43.0886 22.5645 42.3935 20.3722 41.0787 18.5117L40.5887 18.858C41.8317 20.6168 42.4886 22.688 42.4886 24.8503H43.0886ZM41.0787 18.5117L39.7104 16.5756L39.2204 16.9218L40.5887 18.858L41.0787 18.5117ZM39.7103 16.5755C38.9115 15.4456 37.614 14.77 36.2375 14.77V15.37C37.4175 15.37 38.533 15.9496 39.2204 16.9219L39.7103 16.5755ZM36.2375 14.77C34.756 14.77 33.4026 15.529 32.6188 16.7964L33.1291 17.112C33.8046 16.0197 34.9658 15.37 36.2375 15.37V14.77ZM32.6188 16.7964L31.5799 18.4756L32.0902 18.7913L33.129 17.1121L32.6188 16.7964ZM31.5799 18.4757C30.7657 19.7925 29.4727 20.746 27.9942 21.1361L28.1472 21.7162C29.7744 21.287 31.1953 20.2387 32.0902 18.7912L31.5799 18.4757ZM28.284 21.6372L31.1494 18.7412L30.7229 18.3192L27.8575 21.2152L28.284 21.6372ZM31.1494 18.7413C32.5667 17.3096 33.3469 15.4047 33.3469 13.3807H32.7469C32.7469 15.2477 32.0283 17.0006 30.723 18.3191L31.1494 18.7413ZM26.4249 24.2132C26.4249 25.569 25.334 26.6668 24.0004 26.6668V27.2668C25.6713 27.2668 27.0249 25.8944 27.0249 24.2132H26.4249ZM24.0004 26.6668C22.6669 26.6668 21.5759 25.5688 21.5759 24.2132H20.9759C20.9759 25.8942 22.3295 27.2668 24.0004 27.2668V26.6668ZM21.5759 24.2132C21.5759 22.8576 22.6667 21.7597 24.0002 21.7597V21.1597C22.3292 21.1597 20.9759 22.5324 20.9759 24.2132H21.5759ZM24.0002 21.7597C25.3338 21.7597 26.4249 22.8575 26.4249 24.2132H27.0249C27.0249 22.532 25.6711 21.1597 24.0002 21.1597V21.7597ZM14.3351 28.6402L13.2964 30.3194L13.8067 30.635L14.8453 28.9558L14.3351 28.6402ZM13.2964 30.3194C12.9624 30.8595 12.3897 31.1793 11.7626 31.1793V31.7793C12.5995 31.7793 13.3644 31.3502 13.8067 30.635L13.2964 30.3194ZM11.7626 31.1793C11.1812 31.1793 10.6307 30.8935 10.291 30.4131L9.80114 30.7595C10.2522 31.3974 10.9845 31.7793 11.7626 31.7793V31.1793ZM10.2911 30.4132L8.92253 28.4771L8.43258 28.8234L9.8011 30.7595L10.2911 30.4132ZM8.92255 28.4771C7.9059 27.0385 7.36852 25.3445 7.36852 23.5758H6.76852C6.76852 25.4681 7.34407 27.2831 8.43256 28.8234L8.92255 28.4771ZM7.36852 23.5758V23.226H6.76852V23.5758H7.36852ZM7.36852 23.226C7.36852 19.9263 10.0244 17.2467 13.2816 17.2467V16.6467C9.68705 16.6467 6.76852 19.6009 6.76852 23.226H7.36852ZM13.2816 17.2467C14.6294 17.2467 15.896 17.7765 16.8505 18.7412L17.277 18.3192C16.2105 17.2413 14.7906 16.6467 13.2816 16.6467V17.2467ZM16.8505 18.7412L19.9602 21.8838L20.3867 21.4617L17.277 18.3192L16.8505 18.7412ZM19.9221 21.5089C19.4154 22.2859 19.1182 23.2146 19.1182 24.213H19.7182C19.7182 23.3354 19.9791 22.5199 20.4247 21.8366L19.9221 21.5089ZM19.1182 24.213C19.1182 24.5627 19.1556 24.903 19.2242 25.2316L19.8115 25.109C19.751 24.819 19.7182 24.5198 19.7182 24.213H19.1182ZM19.4435 24.8796C17.3338 25.419 15.4979 26.7599 14.335 28.6402L14.8454 28.9558C15.9265 27.2075 17.6327 25.9619 19.5921 25.4609L19.4435 24.8796ZM28.3764 33.9771L30.0384 35.027L30.3588 34.5198L28.6969 33.4699L28.3764 33.9771ZM30.0384 35.0271C30.5711 35.3634 30.8899 35.9431 30.8899 36.581H31.4899C31.4899 35.7392 31.0672 34.9671 30.3588 34.5198L30.0384 35.0271ZM30.8899 36.581C30.8899 37.1723 30.6052 37.7301 30.1309 38.0728L30.4823 38.5592C31.1139 38.1028 31.4899 37.3635 31.4899 36.581H30.8899ZM30.131 38.0728L28.2153 39.4556L28.5664 39.9421L30.4821 38.5592L30.131 38.0728ZM28.2152 39.4556C26.7925 40.4829 25.1178 41.0253 23.3699 41.0253V41.6253C25.2444 41.6253 27.0419 41.0429 28.5665 39.9421L28.2152 39.4556ZM23.3699 41.0253H23.0238V41.6253H23.3699V41.0253ZM23.0238 41.0253C19.7666 41.0253 17.1107 38.3457 17.1107 35.046H16.5107C16.5107 38.6711 19.4292 41.6253 23.0238 41.6253V41.0253ZM17.1107 35.046C17.1107 33.6807 17.6361 32.3989 18.5905 31.4343L18.164 31.0123C17.0978 32.0899 16.5107 33.5237 16.5107 35.046H17.1107ZM18.5905 31.4343L21.7002 28.2918L21.2737 27.8698L18.164 31.0123L18.5905 31.4343ZM21.3206 28.3305C22.0901 28.843 23.0107 29.144 24.0004 29.144V28.544C23.1343 28.544 22.3287 28.281 21.6532 27.8311L21.3206 28.3305ZM24.0004 29.144C24.3471 29.144 24.6845 29.1062 25.01 29.0368L24.8848 28.45C24.5987 28.511 24.3033 28.544 24.0004 28.544V29.144ZM24.6563 28.8162C25.1892 30.9461 26.5147 32.8013 28.3765 33.9771L28.6968 33.4698C26.9677 32.3778 25.7344 30.6531 25.2384 28.6705L24.6563 28.8162ZM33.6653 19.7863L34.704 18.1071L34.1937 17.7915L33.155 19.4707L33.6653 19.7863ZM34.704 18.1071C35.038 17.567 35.6107 17.2472 36.2378 17.2472V16.6472C35.4009 16.6472 34.636 17.0763 34.1937 17.7915L34.704 18.1071ZM36.2378 17.2472C36.8192 17.2472 37.3699 17.533 37.7096 18.0134L38.1995 17.667C37.7484 17.0291 37.0158 16.6472 36.2378 16.6472V17.2472ZM37.7095 18.0133L39.0778 19.9494L39.5678 19.6031L38.1995 17.667L37.7095 18.0133ZM39.0778 19.9494C40.0945 21.388 40.6319 23.082 40.6319 24.8507H41.2319C41.2319 22.9584 40.6563 21.1434 39.5678 19.6031L39.0778 19.9494ZM40.6319 24.8507V25.2005H41.2319V24.8507H40.6319ZM40.6319 25.2005C40.6319 28.5002 37.9762 31.1798 34.719 31.1798V31.7798C38.3136 31.7798 41.2319 28.8256 41.2319 25.2005H40.6319ZM34.719 31.1798C33.371 31.1798 32.1044 30.65 31.1499 29.6853L30.7234 30.1073C31.7899 31.1852 33.2098 31.7798 34.719 31.7798V31.1798ZM31.1499 29.6853L28.0404 26.5427L27.6139 26.9648L30.7234 30.1073L31.1499 29.6853ZM28.0785 26.9176C28.5852 26.1406 28.8824 25.2119 28.8824 24.2135H28.2824C28.2824 25.0911 28.0215 25.9066 27.5759 26.5899L28.0785 26.9176ZM28.8824 24.2135C28.8824 23.8646 28.8453 23.5248 28.7769 23.1971L28.1896 23.3196C28.2498 23.6085 28.2824 23.9073 28.2824 24.2135H28.8824ZM28.5578 23.5489C30.6655 23.0085 32.5085 21.6575 33.6654 19.7862L33.155 19.4707C32.0796 21.2103 30.366 22.4659 28.4087 22.9677L28.5578 23.5489ZM26.68 20.0963C25.9108 19.5837 24.9901 19.2827 24.0002 19.2827V19.8827C24.8665 19.8827 25.6722 20.1457 26.3473 20.5956L26.68 20.0963ZM24.0002 19.2827C23.6535 19.2827 23.3161 19.3205 22.9907 19.39L23.1158 19.9768C23.4019 19.9157 23.6973 19.8827 24.0002 19.8827V19.2827ZM23.3443 19.6105C22.8112 17.4804 21.4854 15.6252 19.6239 14.4494L19.3035 14.9567C21.0325 16.0487 22.266 17.7734 22.7622 19.7562L23.3443 19.6105ZM19.624 14.4494L17.962 13.3995L17.6415 13.9067L19.3035 14.9566L19.624 14.4494ZM17.9619 13.3994C17.4293 13.0631 17.1105 12.4834 17.1105 11.8455H16.5105C16.5105 12.6873 16.9332 13.4594 17.6416 13.9067L17.9619 13.3994ZM17.1105 11.8455C17.1105 11.2542 17.3952 10.6964 17.8697 10.3537L17.5184 9.8673C16.8865 10.3237 16.5105 11.063 16.5105 11.8455H17.1105ZM17.8697 10.3537L19.7851 8.97087L19.4339 8.4844L17.5184 9.86727L17.8697 10.3537ZM19.7851 8.97087C21.2081 7.9436 22.8828 7.40122 24.6307 7.40122V6.80122C22.7562 6.80122 20.9588 7.38363 19.4339 8.48439L19.7851 8.97087ZM24.6307 7.40122H24.9766V6.80122H24.6307V7.40122ZM24.9766 7.40122C28.2338 7.40122 30.8897 10.0808 30.8897 13.3804H31.4897C31.4897 9.75543 28.5711 6.80122 24.9766 6.80122V7.40122ZM30.8897 13.3804C30.8897 14.7458 30.3642 16.0276 29.4099 16.9922L29.8364 17.4142C30.9026 16.3366 31.4897 14.9028 31.4897 13.3804H30.8897ZM29.4098 16.9922L26.3004 20.135L26.7269 20.5569L29.8364 17.4142L29.4098 16.9922ZM30.6655 4.24501C32.5921 4.99811 33.5925 5.48481 35.2577 6.4793L35.5653 5.96417C33.8698 4.95159 32.8394 4.45056 30.884 3.68618L30.6655 4.24501ZM36.3614 4.28383C34.7079 3.3169 33.6692 2.82062 31.6899 2.01057L31.4626 2.56587C33.4215 3.36755 34.434 3.85182 36.0585 4.80177L36.3614 4.28383ZM36.5466 4.37296L36.3412 4.27304L36.0787 4.81256L36.284 4.91248L36.5466 4.37296ZM31.7075 2.01846L31.5008 1.91786L31.2382 2.45738L31.445 2.55798L31.7075 2.01846Z" fill="white" mask="url(#path-1-inside-1)"/>
</svg>
