<svg width="30" height="21" viewBox="0 0 30 21" fill="none" xmlns="http://www.w3.org/2000/svg">
<path d="M6.87502 2.69999H29.375C29.7205 2.69999 30 2.42044 30 2.07497C30 1.7295 29.7205 1.44995 29.375 1.44995H6.87502C6.52955 1.44995 6.25 1.7295 6.25 2.07497C6.25006 2.42044 6.52961 2.69999 6.87502 2.69999Z" fill="#E44747"/>
<path d="M29.375 9.57501H6.87502C6.52955 9.57501 6.25 9.85456 6.25 10.2C6.25 10.5455 6.52955 10.8251 6.87502 10.8251H29.375C29.7205 10.8251 30 10.5455 30 10.2C30 9.85456 29.7205 9.57501 29.375 9.57501Z" fill="#E44747"/>
<path d="M29.375 17.7001H6.87502C6.52955 17.7001 6.25 17.9796 6.25 18.3251C6.25 18.6706 6.52955 18.9501 6.87502 18.9501H29.375C29.7205 18.9501 30 18.6706 30 18.3251C30 17.9796 29.7205 17.7001 29.375 17.7001Z" fill="#E44747"/>
<path d="M3.12498 0.200012H0.62502C0.279551 0.200012 0 0.479563 0 0.825031V3.32505C0 3.67052 0.279551 3.95007 0.62502 3.95007H3.12504C3.47051 3.95007 3.75006 3.67052 3.75006 3.32505V0.825031C3.75 0.479563 3.47045 0.200012 3.12498 0.200012ZM2.50002 2.70003H1.24998V1.45005H2.49996V2.70003H2.50002Z" fill="#E44747"/>
<path d="M3.12498 8.32507H0.62502C0.279551 8.32507 0 8.60462 0 8.95009V11.4501C0 11.7955 0.279551 12.0751 0.62502 12.0751H3.12504C3.47045 12.0751 3.75 11.7955 3.75 11.4501V8.95003C3.75 8.60462 3.47045 8.32507 3.12498 8.32507ZM2.50002 10.8251H1.24998V9.57511H2.49996V10.8251H2.50002Z" fill="#E44747"/>
<path d="M3.12498 16.4501H0.62502C0.279551 16.4501 0 16.7297 0 17.0751V19.5751C0 19.9206 0.279551 20.2001 0.62502 20.2001H3.12504C3.47045 20.2001 3.75 19.9206 3.75 19.5751V17.0751C3.75 16.7297 3.47045 16.4501 3.12498 16.4501ZM2.50002 18.9501H1.24998V17.7001H2.49996V18.9501H2.50002Z" fill="#E44747"/>
</svg>
