<svg width="67" height="67" viewBox="0 0 67 67" fill="none" xmlns="http://www.w3.org/2000/svg">
<path d="M33.5 0C15.027 0 0 15.0284 0 33.5C0 51.9716 15.027 67 33.5 67C51.973 67 67 51.9716 67 33.5C67 15.0284 51.973 0 33.5 0ZM33.5 64.2084C16.5673 64.2084 2.79162 50.4327 2.79162 33.5C2.79162 16.5673 16.5673 2.79162 33.5 2.79162C50.4327 2.79162 64.2084 16.5673 64.2084 33.5C64.2084 50.4327 50.4327 64.2084 33.5 64.2084Z" fill="#E44747"/>
<path fill-rule="evenodd" clip-rule="evenodd" d="M46.8177 32.3263L27.2761 19.7638C26.848 19.4844 26.2946 19.4693 25.853 19.712C25.4031 19.9573 25.125 20.4263 25.125 20.9375V46.0625C25.125 46.5736 25.4031 47.0426 25.853 47.288C26.0601 47.4012 26.2919 47.4583 26.5209 47.4583C26.7826 47.4583 27.0471 47.3847 27.2761 47.2361L46.8177 34.6736C47.2158 34.4174 47.4584 33.9743 47.4584 33.5C47.4584 33.0256 47.2158 32.5826 46.8177 32.3263ZM27.9166 23.4947V43.5052L43.4808 33.5L27.9166 23.4947Z" fill="#E44747"/>
<path d="M27.9166 43.5052V23.4947L43.4808 33.5L27.9166 43.5052Z" fill="#E44747"/>
</svg>
