<svg width="33" height="33" viewBox="0 0 33 33" fill="none" xmlns="http://www.w3.org/2000/svg">
<g clip-path="url(#clip0)">
<path d="M0.550119 33.0637H26.95C27.2539 33.0637 27.5002 32.8175 27.5002 32.5138V27.5638H31.35C31.6539 27.5638 31.9001 27.3175 31.9001 27.0139V21.5137C31.9001 21.2101 31.6539 20.9638 31.35 20.9638H27.5002V16.0138C27.5002 15.7099 27.2539 15.4637 26.95 15.4637H25.9407C26.0182 15.1041 25.9362 14.7285 25.7159 14.4339L23.2306 11.1211L24.3782 10.2603C24.888 9.87862 25.1728 9.26682 25.1368 8.63085L25.0816 7.64038C25.0665 7.37174 25.1869 7.11342 25.4022 6.95204L26.5495 6.09149L27.0324 6.73501C27.1197 6.85158 27.2499 6.92888 27.3944 6.94952C27.4201 6.95305 27.446 6.95506 27.4722 6.95481C27.5913 6.95506 27.7071 6.91629 27.8023 6.84479L32.3402 3.44059C33.0688 2.894 33.2166 1.85997 32.67 1.1311L32.3644 0.723228C31.817 -0.00464191 30.7835 -0.151928 30.0544 0.393911L25.517 3.79785C25.274 3.98014 25.2247 4.32506 25.4069 4.56802L25.8896 5.21155L24.7423 6.07235C24.2324 6.45404 23.9474 7.06559 23.9837 7.70156L24.0386 8.69203C24.0539 8.96067 23.9336 9.21924 23.7183 9.38037L22.571 10.2412L20.0855 6.92837C19.8254 6.57615 19.403 6.38203 18.9661 6.41401C18.5495 6.44422 18.1771 6.68592 17.9795 7.05426L13.4602 15.4637H0.550119C0.246232 15.4637 0 15.7099 0 16.0138V21.5137C0 21.8176 0.246232 22.0638 0.550119 22.0638H4.39995V26.4638H0.550119C0.246232 26.4638 0 26.71 0 27.0139V32.5138C0 32.8175 0.246232 33.0637 0.550119 33.0637ZM30.7145 1.2736C30.9572 1.09132 31.3019 1.14041 31.4844 1.38337L31.7901 1.79124C31.9721 2.0342 31.9228 2.37862 31.6801 2.5609L27.582 5.63528L26.6164 4.34772L30.7145 1.2736ZM9.90013 27.5638H17.6V31.9637H9.90013V27.5638ZM14.3001 22.0638H22V26.4638H14.3001V22.0638ZM26.4002 31.9637H18.7V27.5638H26.4002V31.9637ZM30.8001 26.4638H23.1V22.0638H30.8001V26.4638ZM26.4002 20.9638H18.7V17.7611L24.3296 16.5636H26.4002V20.9638ZM18.9488 7.57542C18.9674 7.5369 19.0062 7.51223 19.049 7.51097L19.0598 7.51047C19.1182 7.51147 19.1723 7.54043 19.2056 7.58826L21.6906 10.9011L19.4216 12.6033C19.1786 12.7856 19.1293 13.1302 19.3116 13.3735C19.4939 13.6164 19.8385 13.6655 20.0817 13.4835L22.3507 11.7813L24.8359 15.0941C24.8755 15.1424 24.887 15.2076 24.8661 15.2663C24.853 15.3071 24.8186 15.337 24.7763 15.3446L13.8648 17.6649C13.797 17.6755 13.7291 17.6465 13.69 17.5901C13.6462 17.5372 13.6374 17.4637 13.6674 17.4018L18.9488 7.57542ZM12.8103 18.2503C13.1034 18.6533 13.6064 18.8454 14.0936 18.7407L17.6 17.995V20.9638H9.90013V16.5636H12.8688L12.6983 16.8809C12.4627 17.3197 12.5067 17.8557 12.8103 18.2503ZM1.09999 18.7639H2.19997C2.50386 18.7639 2.75009 18.5176 2.75009 18.2138C2.75009 17.9101 2.50386 17.6639 2.19997 17.6639H1.09999V16.5636H8.80014V20.9638H1.09999V18.7639ZM5.49993 22.0638H13.2001V26.4638H5.49993V22.0638ZM1.09999 27.5638H8.80014V31.9637H1.09999V27.5638Z" fill="#161616"/>
<path d="M7.15006 18.2138C7.15006 17.9101 6.90383 17.6639 6.59994 17.6639H4.39997C4.09633 17.6639 3.8501 17.9101 3.8501 18.2138C3.8501 18.5177 4.09633 18.7639 4.39997 18.7639H6.59994C6.90383 18.7639 7.15006 18.5177 7.15006 18.2138Z" fill="#161616"/>
</g>
<defs>
<clipPath id="clip0">
<rect width="33" height="33" fill="white"/>
</clipPath>
</defs>
</svg>
