<svg width="33" height="33" viewBox="0 0 33 33" fill="none" xmlns="http://www.w3.org/2000/svg">
<path d="M33 4.95V1.65C32.999 0.739148 32.2609 0.000966797 31.35 0H26.4C25.7031 0.00212695 25.0829 0.442664 24.8514 1.10002H22.4486C22.2171 0.442664 21.597 0.00212695 20.9 0H1.65C0.739148 0.000966797 0.000966797 0.739148 0 1.65V4.95C0.00212695 5.64693 0.442664 6.2671 1.10002 6.49862V8.90136C0.442664 9.13288 0.00212695 9.75305 0 10.45V13.75C0.00212695 14.4469 0.442664 15.0671 1.10002 15.2986V17.7013C0.442664 17.9329 0.00212695 18.5531 0 19.25V22.55C0.00212695 23.247 0.442664 23.8671 1.10002 24.0986V26.5014C0.442664 26.7329 0.00212695 27.3531 0 28.05V31.35C0.000966797 32.2609 0.739148 32.999 1.65 33H6.6C7.29693 32.9979 7.9171 32.5573 8.14861 31.9H10.5514C10.7829 32.5573 11.403 32.9979 12.1 33H31.35C32.2609 32.999 32.999 32.2609 33 31.35V28.05C32.9979 27.3531 32.5573 26.7329 31.9 26.5013V24.0986C32.5573 23.8671 32.9978 23.2469 33 22.55V19.25C32.9979 18.553 32.5573 17.9329 31.9 17.7013V15.2986C32.5573 15.0671 32.9978 14.4469 33 13.7499V10.4499C32.9979 9.75298 32.5573 9.13281 31.9 8.90123V6.49855C32.5573 6.2671 32.9979 5.64693 33 4.95ZM1.10002 1.65C1.10034 1.34636 1.34636 1.10028 1.65 1.10002H20.9C21.2037 1.10034 21.4497 1.34636 21.45 1.65V4.95C21.4497 5.25364 21.2037 5.49972 20.9 5.49998H1.65C1.34636 5.49966 1.10028 5.25364 1.10002 4.95V1.65ZM1.10002 10.45C1.10034 10.1463 1.34636 9.90026 1.65 9.9H6.6C6.90364 9.90032 7.14972 10.1463 7.14998 10.45V13.75C7.14966 14.0536 6.90364 14.2997 6.6 14.3H1.65C1.34636 14.2996 1.10028 14.0536 1.10002 13.75V10.45ZM1.10002 19.25C1.10034 18.9464 1.34636 18.7003 1.65 18.7H20.9C21.2037 18.7004 21.4497 18.9464 21.45 19.25V22.55C21.4497 22.8537 21.2037 23.0997 20.9 23.1H1.65C1.34636 23.0997 1.10028 22.8537 1.10002 22.55V19.25ZM7.14998 31.35C7.14966 31.6536 6.90364 31.8997 6.6 31.9H1.65C1.34636 31.8997 1.10028 31.6536 1.10002 31.35V28.05C1.10034 27.7464 1.34636 27.5003 1.65 27.5H6.6C6.90364 27.5003 7.14972 27.7464 7.14998 28.05V31.35ZM10.45 28.05V30.8H8.25V28.05C8.24903 27.1391 7.51085 26.401 6.6 26.4H2.19998V24.2H20.9C21.8108 24.1991 22.549 23.4609 22.55 22.55V19.25C22.549 18.3392 21.8108 17.601 20.9 17.6H2.19998V15.4H6.6C7.51085 15.3991 8.24903 14.6609 8.25 13.75V10.45C8.24903 9.53919 7.51085 8.80101 6.6 8.80004H2.19998V6.6H20.9C21.8108 6.59903 22.549 5.86085 22.55 4.95V2.19998H24.75V4.95C24.751 5.86085 25.4891 6.59903 26.4 6.6H30.8V8.79998H12.1C11.1891 8.80095 10.4509 9.53913 10.45 10.45V13.75C10.4509 14.6608 11.1891 15.399 12.1 15.4H30.8V17.6H26.4C25.4891 17.6009 24.751 18.3391 24.75 19.25V22.55C24.751 23.4608 25.4891 24.199 26.4 24.2H30.8V26.4H12.1C11.1891 26.401 10.451 27.1391 10.45 28.05ZM31.9 31.35C31.8997 31.6536 31.6536 31.8997 31.35 31.9H12.1C11.7963 31.8997 11.5503 31.6536 11.55 31.35V28.05C11.5503 27.7464 11.7963 27.5003 12.1 27.5H31.35C31.6536 27.5003 31.8997 27.7464 31.9 28.05V31.35ZM31.9 22.55C31.8997 22.8537 31.6536 23.0997 31.35 23.1H26.4C26.0964 23.0997 25.8503 22.8537 25.85 22.55V19.25C25.8503 18.9464 26.0964 18.7003 26.4 18.7H31.35C31.6536 18.7004 31.8997 18.9464 31.9 19.25V22.55ZM31.9 13.75C31.8997 14.0536 31.6536 14.2997 31.35 14.3H12.1C11.7963 14.2996 11.5503 14.0536 11.55 13.75V10.45C11.5503 10.1463 11.7963 9.90026 12.1 9.9H31.35C31.6536 9.90032 31.8997 10.1463 31.9 10.45V13.75ZM31.35 5.49998H26.4C26.0964 5.49966 25.8503 5.25364 25.85 4.95V1.65C25.8503 1.34636 26.0964 1.10028 26.4 1.10002H31.35C31.6536 1.10034 31.8997 1.34636 31.9 1.65V4.95C31.8997 5.25364 31.6536 5.49972 31.35 5.49998Z" fill="#161616"/>
</svg>
