<svg width="74" height="74" viewBox="0 0 74 74" fill="none" xmlns="http://www.w3.org/2000/svg">
<path d="M26.2231 53.1605L26.2367 53.1643L26.2507 53.1656C33.0042 53.7773 38.3137 59.47 38.3137 66.3799V72.5548C38.3137 73.2702 37.7338 73.8501 37.0184 73.8501H1.44531C0.729909 73.8501 0.15 73.2702 0.15 72.5548V66.3799C0.15 59.4699 5.4598 53.7771 12.2134 53.1656L12.2275 53.1643L12.241 53.1605C12.3337 53.134 12.4294 53.1189 12.5268 53.1137L12.8517 53.0962L12.6274 52.8605C11.0694 51.2231 10.1105 49.0118 10.1105 46.5794V39.5034C10.1105 35.5041 13.3644 32.2501 17.3638 32.2501H27.058C27.7734 32.2501 28.3533 32.83 28.3533 33.5454V38.3563C28.3533 38.4913 28.347 38.6258 28.3376 38.761L28.3365 38.7767L28.3387 38.7923C28.3476 38.855 28.3533 38.9153 28.3533 38.9754V46.5794C28.3533 49.0118 27.3943 51.2231 25.8364 52.8605L25.6121 53.0962L25.9371 53.1137C26.0345 53.1189 26.1303 53.134 26.2231 53.1605ZM25.7627 34.9906V34.8406H25.6127H17.3638C14.7928 34.8406 12.7011 36.9322 12.7011 39.5033V41.3362V41.4289V41.5789H12.8511H22.5399C24.3171 41.5789 25.7627 40.1333 25.7627 38.3561V34.9906ZM12.8511 44.1695H12.7011V44.3195V46.5792C12.7011 50.1804 15.6307 53.11 19.2319 53.11C22.8331 53.11 25.7627 50.1804 25.7627 46.5792V43.4647V43.1989L25.5351 43.3363C24.6598 43.8649 23.635 44.1695 22.5399 44.1695H12.8511ZM22.4837 55.9568L22.7398 55.7008H22.3776H16.0862H15.7241L15.9801 55.9568L19.1258 59.1027L19.2319 59.2088L19.338 59.1027L22.4837 55.9568ZM35.5732 71.2595H35.7232V71.1095V66.3799C35.7232 60.9496 31.6485 56.4568 26.397 55.7894L26.3241 55.7801L26.272 55.8322L20.1478 61.9564C19.905 62.1992 19.5754 62.3358 19.2319 62.3358C18.8884 62.3358 18.5589 62.1992 18.316 61.9564L12.1918 55.8322L12.1398 55.7801L12.0668 55.7894C7.16329 56.4127 3.28656 60.3705 2.79412 65.3134L2.77769 65.4783H2.94338H8.88867C9.60408 65.4783 10.184 66.0582 10.184 66.7736C10.184 67.489 9.60408 68.0689 8.88867 68.0689H2.89063H2.74063V68.2189V71.1095V71.2595H2.89063H35.5732Z" fill="#B7A179" stroke="#161616" stroke-width="0.3"/>
<path d="M61.7597 21.0605L61.7732 21.0644L61.7873 21.0657C68.5404 21.6775 73.8499 27.3702 73.8499 34.2799V40.4547C73.8499 41.1701 73.27 41.75 72.5546 41.75H60.4621C59.7467 41.75 59.1668 41.1701 59.1668 40.4547C59.1668 39.7393 59.7467 39.1594 60.4621 39.1594H71.1093H71.2593V39.0094V34.2799C71.2593 28.8497 67.1848 24.357 61.933 23.6895L61.86 23.6802L61.808 23.7322L55.6838 29.8564L55.6838 29.8564C55.431 30.1094 55.0996 30.2358 54.7679 30.2358C54.4362 30.2358 54.105 30.1094 53.852 29.8564L47.7278 23.7322L47.6757 23.6802L47.6028 23.6895C42.3513 24.3569 38.2768 28.8497 38.2768 34.2799V39.0093V39.1593H38.4268H48.6104C49.3258 39.1593 49.9057 39.7392 49.9057 40.4546C49.9057 41.17 49.3258 41.7499 48.6104 41.7499H36.9814C36.266 41.7499 35.6861 41.17 35.6861 40.4546V34.2798C35.6861 27.3701 40.9955 21.6773 47.7488 21.0655L47.7629 21.0642L47.7764 21.0604C47.8692 21.034 47.9652 21.0188 48.0628 21.0136L48.3877 20.9961L48.1634 20.7604C46.6055 19.123 45.6466 16.9117 45.6466 14.4793V7.40333C45.6466 3.40402 48.9005 0.15 52.9 0.15H62.5941C63.3095 0.15 63.8894 0.729909 63.8894 1.44531V6.25618C63.8894 6.39122 63.8831 6.52572 63.8738 6.66088L63.8727 6.67658L63.8749 6.69217C63.8837 6.75494 63.8894 6.81526 63.8894 6.87535V14.4794C63.8894 16.9118 62.9306 19.1232 61.3727 20.7606L61.1484 20.9963L61.4733 21.0137C61.571 21.019 61.6669 21.0341 61.7597 21.0605ZM54.6621 27.0026L54.7682 27.1087L54.8743 27.0026L58.02 23.8569L58.276 23.6008H57.9139H51.6225H51.2603L51.5164 23.8569L54.6621 27.0026ZM48.3874 12.0695H48.2374V12.2195V14.4794C48.2374 18.0806 51.167 21.0101 54.7682 21.0101C58.3694 21.0101 61.299 18.0805 61.299 14.4793V11.3648V11.099L61.0714 11.2364C60.1961 11.7648 59.1713 12.0695 58.0762 12.0695H48.3874ZM48.2374 9.32891V9.47891H48.3874H58.0762C59.8534 9.47891 61.299 8.03336 61.299 6.25618V2.89063V2.74063H61.149H52.9001C50.329 2.74063 48.2374 4.83223 48.2374 7.40333V9.23627V9.32891Z" fill="#B7A179" stroke="#161616" stroke-width="0.3"/>
<path d="M53.8527 39.5389L53.853 39.5386C54.0938 39.2978 54.4272 39.159 54.7688 39.159C55.1091 39.159 55.4438 39.2978 55.6846 39.5386C55.9253 39.7793 56.0641 40.1141 56.0641 40.4543C56.0641 40.796 55.9254 41.1293 55.6846 41.3701L55.6843 41.3704C55.4439 41.6121 55.1094 41.7497 54.7688 41.7497C54.4268 41.7497 54.0937 41.6121 53.8533 41.3704L53.8527 41.3698C53.611 41.1294 53.4735 40.7963 53.4735 40.4543C53.4735 40.1137 53.6111 39.7792 53.8527 39.5389ZM53.3235 40.4543C53.3235 40.8359 53.4767 41.2074 53.747 41.4762H55.7906C56.0595 41.2074 56.2141 40.8359 56.2141 40.4543C56.2141 40.0742 56.0595 39.7013 55.7906 39.4325C55.5218 39.1637 55.1489 39.009 54.7688 39.009C54.3872 39.009 54.0158 39.1637 53.747 39.4325C53.4767 39.7013 53.3235 40.0742 53.3235 40.4543Z" fill="#B7A179" stroke="#161616" stroke-width="0.3"/>
<path d="M32.4539 14.1797V14.2418L32.4979 14.2857L38.5423 20.3302C38.9126 20.7006 39.0235 21.2579 38.823 21.7418C38.6225 22.2257 38.1501 22.5414 37.6263 22.5414H32.0641H31.9632L31.9252 22.6349C30.8548 25.266 28.3039 27.0219 25.3772 27.0219H7.22656C3.32468 27.0219 0.15 23.8472 0.15 19.9453V7.22656C0.15 3.32468 3.32468 0.15 7.22656 0.15H25.3774C29.2793 0.15 32.4539 3.32468 32.4539 7.22656V14.1797ZM34.137 19.9508H34.4991L34.243 19.6947L30.2426 15.6942C29.9997 15.4514 29.8632 15.1218 29.8632 14.7783V7.22656C29.8632 4.75288 27.8509 2.74063 25.3772 2.74063H7.22656C4.75288 2.74063 2.74063 4.75288 2.74063 7.22656V19.9453C2.74063 22.419 4.75288 24.4313 7.22656 24.4313H25.3772C27.4791 24.4313 29.2767 23.0017 29.7473 20.9557C29.8827 20.3675 30.4063 19.9508 31.0098 19.9508H34.137Z" fill="#B7A179" stroke="#161616" stroke-width="0.3"/>
<path d="M41.9359 51.4586H42.0368L42.0748 51.3651C43.1452 48.734 45.6961 46.9781 48.6228 46.9781H66.7734C70.6753 46.9781 73.85 50.1528 73.85 54.0547V66.7734C73.85 70.6753 70.6753 73.85 66.7734 73.85H48.6226C44.7207 73.85 41.5461 70.6753 41.5461 66.7734V59.8203V59.7582L41.5021 59.7143L35.4577 53.6698C35.4577 53.6698 35.4577 53.6698 35.4577 53.6698C35.0873 53.2993 34.9765 52.7421 35.177 52.2582C35.3775 51.7743 35.8499 51.4586 36.3737 51.4586H41.9359ZM39.863 54.0492H39.5009L44.3988 53.0779L44.2527 53.0443C44.2527 53.0443 44.2527 53.0443 44.2527 53.0443C44.1173 53.6325 43.5937 54.0492 42.9902 54.0492H39.863Z" fill="#B7A179" stroke="#161616" stroke-width="0.3"/>
<path d="M58.3086 60.6223L58.2026 60.5162L56.416 58.7297C55.9102 58.2239 55.09 58.2238 54.584 58.7297C54.584 58.7297 54.584 58.7297 54.584 58.7297M58.3086 60.6223L54.584 58.7297M58.3086 60.6223L58.4147 60.5162L62.2568 56.6741C62.7626 56.1683 63.5828 56.1683 64.0884 56.6741C64.5943 57.1801 64.5943 58.0003 64.0885 58.5061L59.2244 63.3702L59.2244 63.3702C58.9715 63.6232 58.6402 63.7496 58.3085 63.7496C57.9768 63.7496 57.6456 63.6232 57.3926 63.3702L54.5841 60.5617M58.3086 60.6223L54.5841 60.5617M54.584 58.7297C54.0782 59.2355 54.0782 60.0557 54.5841 60.5617M54.584 58.7297L54.5841 60.5617" fill="#B7A179" stroke="#161616" stroke-width="0.3"/>
<path d="M19.9888 9.77649C20.0618 10.8343 19.3684 11.7691 18.34 11.9992M19.9888 9.77649L20.1385 9.76618C20.1385 9.76618 20.1385 9.76617 20.1385 9.76617C20.0612 8.64524 19.1585 7.74246 18.0375 7.66514C17.3992 7.62034 16.7895 7.83584 16.3249 8.26968C15.8598 8.70386 15.6032 9.29422 15.6032 9.92999C15.6032 10.6454 15.0233 11.2253 14.3079 11.2253C13.5925 11.2253 13.0126 10.6454 13.0124 9.92984L18.34 11.9992M19.9888 9.77649C19.9167 8.73023 19.0734 7.88689 18.0271 7.81477L19.9888 9.77649ZM18.34 11.9992C17.2144 12.251 16.4283 13.2296 16.4283 14.3789M18.34 11.9992L16.4283 14.3789M14.5571 6.37577L14.5571 6.37577C13.5756 7.29192 13.0124 8.58768 13.0124 9.92982L14.5571 6.37577ZM14.5571 6.37577C15.5527 5.44631 16.8514 4.98659 18.2154 5.08044L14.5571 6.37577ZM16.4283 14.3789V15.15M16.4283 14.3789V15.15M16.4283 15.15C16.4283 15.9483 17.0754 16.5953 17.8736 16.5953M16.4283 15.15L17.8736 16.5953M17.8736 16.5953C18.6719 16.5953 19.3189 15.9483 19.3189 15.15M17.8736 16.5953L19.3189 15.15M19.3189 15.15V14.7294V15.15Z" fill="#B7A179" stroke="#161616" stroke-width="0.3"/>
<path d="M16.9582 19.7654L16.9585 19.7651C17.1993 19.5243 17.5326 19.3856 17.8743 19.3856C18.2145 19.3856 18.5493 19.5244 18.79 19.7651C19.0308 20.0059 19.1696 20.3406 19.1696 20.6809C19.1696 21.0212 19.0308 21.3559 18.79 21.5967C18.5493 21.8374 18.2145 21.9762 17.8743 21.9762C17.5326 21.9762 17.1993 21.8375 16.9585 21.5967L16.9582 21.5964C16.7165 21.356 16.579 21.0215 16.579 20.6809C16.579 20.3403 16.7165 20.0058 16.9582 19.7654Z" fill="#B7A179" stroke="#161616" stroke-width="0.3"/>
<path d="M14.6699 65.4781C15.0102 65.4781 15.345 65.6169 15.5857 65.8577C15.8264 66.0984 15.9652 66.4332 15.9652 66.7734C15.9652 67.1137 15.8264 67.4485 15.5857 67.6892C15.345 67.9299 15.0102 68.0688 14.6699 68.0688C14.3296 68.0688 13.9949 67.9299 13.7542 67.6892C13.5134 67.4485 13.3746 67.1137 13.3746 66.7734C13.3746 66.4332 13.5134 66.0984 13.7542 65.8577C13.9949 65.6169 14.3296 65.4781 14.6699 65.4781Z" fill="#B7A179" stroke="#161616" stroke-width="0.3"/>
</svg>
