<svg width="33" height="33" viewBox="0 0 33 33" fill="none" xmlns="http://www.w3.org/2000/svg">
<g clip-path="url(#clip0)">
<path d="M0.550119 33.0636H26.95C27.2539 33.0636 27.5002 32.8174 27.5002 32.5137V27.5637H31.35C31.6539 27.5637 31.9001 27.3174 31.9001 27.0138V21.5136C31.9001 21.21 31.6539 20.9638 31.35 20.9638H27.5002V16.0137C27.5002 15.7098 27.2539 15.4636 26.95 15.4636H25.9407C26.0182 15.104 25.9362 14.7284 25.7159 14.4338L23.2306 11.121L24.3782 10.2602C24.888 9.87853 25.1728 9.26673 25.1368 8.63076L25.0816 7.64029C25.0665 7.37165 25.1869 7.11333 25.4022 6.95195L26.5495 6.0914L27.0324 6.73492C27.1197 6.85149 27.2499 6.92879 27.3944 6.94943C27.4201 6.95296 27.446 6.95497 27.4722 6.95472C27.5913 6.95497 27.7071 6.9162 27.8023 6.84469L32.3402 3.4405C33.0688 2.8939 33.2166 1.85988 32.67 1.131L32.3644 0.723136C31.817 -0.00473344 30.7835 -0.15202 30.0544 0.39382L25.517 3.79776C25.274 3.98004 25.2247 4.32497 25.4069 4.56793L25.8896 5.21146L24.7423 6.07226C24.2324 6.45395 23.9474 7.0655 23.9837 7.70147L24.0386 8.69194C24.0539 8.96058 23.9336 9.21914 23.7183 9.38028L22.571 10.2411L20.0855 6.92828C19.8254 6.57605 19.403 6.38194 18.9661 6.41391C18.5495 6.44413 18.1771 6.68583 17.9795 7.05417L13.4602 15.4636H0.550119C0.246232 15.4636 0 15.7098 0 16.0137V21.5136C0 21.8175 0.246232 22.0637 0.550119 22.0637H4.39995V26.4637H0.550119C0.246232 26.4637 0 26.7099 0 27.0138V32.5137C0 32.8174 0.246232 33.0636 0.550119 33.0636ZM30.7145 1.27351C30.9572 1.09123 31.3019 1.14032 31.4844 1.38328L31.7901 1.79115C31.9721 2.03411 31.9228 2.37853 31.6801 2.56081L27.582 5.63519L26.6164 4.34763L30.7145 1.27351ZM9.90013 27.5637H17.6V31.9636H9.90013V27.5637ZM14.3001 22.0637H22V26.4637H14.3001V22.0637ZM26.4002 31.9636H18.7V27.5637H26.4002V31.9636ZM30.8001 26.4637H23.1V22.0637H30.8001V26.4637ZM26.4002 20.9638H18.7V17.761L24.3296 16.5636H26.4002V20.9638ZM18.9488 7.57533C18.9674 7.53681 19.0062 7.51214 19.049 7.51088L19.0598 7.51038C19.1182 7.51138 19.1723 7.54034 19.2056 7.58817L21.6906 10.901L19.4216 12.6032C19.1786 12.7855 19.1293 13.1302 19.3116 13.3734C19.4939 13.6163 19.8385 13.6654 20.0817 13.4834L22.3507 11.7812L24.8359 15.094C24.8755 15.1423 24.887 15.2075 24.8661 15.2662C24.853 15.307 24.8186 15.3369 24.7763 15.3445L13.8648 17.6648C13.797 17.6754 13.7291 17.6464 13.69 17.59C13.6462 17.5372 13.6374 17.4636 13.6674 17.4017L18.9488 7.57533ZM12.8103 18.2502C13.1034 18.6533 13.6064 18.8454 14.0936 18.7406L17.6 17.9949V20.9638H9.90013V16.5636H12.8688L12.6983 16.8808C12.4627 17.3196 12.5067 17.8556 12.8103 18.2502ZM1.09999 18.7638H2.19997C2.50386 18.7638 2.75009 18.5175 2.75009 18.2137C2.75009 17.91 2.50386 17.6638 2.19997 17.6638H1.09999V16.5636H8.80014V20.9638H1.09999V18.7638ZM5.49993 22.0637H13.2001V26.4637H5.49993V22.0637ZM1.09999 27.5637H8.80014V31.9636H1.09999V27.5637Z" fill="#161616"/>
<path d="M7.15006 18.2137C7.15006 17.91 6.90383 17.6638 6.59994 17.6638H4.39997C4.09633 17.6638 3.8501 17.91 3.8501 18.2137C3.8501 18.5176 4.09633 18.7638 4.39997 18.7638H6.59994C6.90383 18.7638 7.15006 18.5176 7.15006 18.2137Z" fill="#161616"/>
</g>
<defs>
<clipPath id="clip0">
<rect width="33" height="33" fill="white"/>
</clipPath>
</defs>
</svg>
