<svg width="33" height="33" viewBox="0 0 33 33" fill="none" xmlns="http://www.w3.org/2000/svg">
<g clip-path="url(#clip0)">
<path d="M23.2211 17.7807C23.0065 17.5661 22.6584 17.5661 22.4438 17.7807L21.6669 18.557L20.3876 17.2771L27.8947 9.77007C29.2717 9.87206 30.6251 9.37044 31.6029 8.39567C33.0032 6.98345 33.3919 4.85598 32.5815 3.03981C32.5092 2.87268 32.3588 2.75214 32.1799 2.71806C32.001 2.68392 31.8169 2.74061 31.6881 2.8694L29.3565 5.19879C29.1625 5.40237 28.8897 5.51183 28.6088 5.49895C28.3171 5.49463 28.0386 5.37622 27.8331 5.16909C27.4052 4.75637 27.3914 4.07533 27.8023 3.64567L30.1333 1.31299C30.2621 1.18421 30.3188 1.00008 30.2846 0.821165C30.2505 0.642254 30.13 0.491884 29.9629 0.419598C28.1468 -0.391269 26.019 -0.00252179 24.607 1.39817C23.6303 2.3748 23.1284 3.72904 23.2326 5.10634L15.7229 12.6162L12.1367 9.03008L12.3797 8.78706C12.68 8.48864 12.8507 8.08392 12.8547 7.66057C12.861 7.23678 12.695 6.82864 12.3946 6.5297L10.9553 5.12173C10.9595 5.10099 10.9696 5.08192 10.9844 5.06678C13.8636 1.80663 15.9873 1.90558 16.0357 1.90726C16.2834 1.92994 16.5154 1.7835 16.6016 1.55021C16.6877 1.31692 16.6065 1.05477 16.4035 0.911104C13.2149 -1.35012 9.47146 1.21404 7.95468 2.86882L6.93314 3.88862L5.56802 2.52246C5.14326 2.10254 4.45886 2.10524 4.03745 2.52852L2.53052 4.03545C2.32313 4.23755 2.20581 4.51452 2.20485 4.80411C2.20395 5.09364 2.31953 5.37138 2.52556 5.57484L3.88566 6.9361L3.84333 6.97843C3.62177 7.19902 3.50464 7.5035 3.52114 7.81571C3.53325 8.10041 3.66745 8.3661 3.88946 8.54469C3.95479 8.60061 3.99216 8.68243 3.9917 8.76844C3.99667 8.9297 3.93482 9.08587 3.82072 9.20003L3.61127 9.40948C3.46038 9.56249 3.22987 9.60469 3.03459 9.51501L2.57665 9.28578C2.16078 9.07968 1.65967 9.16273 1.33252 9.49195L0.480484 10.3446C0.180903 10.6423 0.010496 11.046 0.00605058 11.4683C-0.000456458 11.8917 0.165247 12.2996 0.465086 12.5986L3.39428 15.5278C3.6898 15.823 4.09092 15.9883 4.50866 15.9868C4.93754 15.9869 5.34884 15.8161 5.65164 15.5124L6.50323 14.6602C6.83328 14.3334 6.91639 13.8318 6.70939 13.4161L6.48396 12.9647C6.39054 12.7684 6.43133 12.5345 6.58569 12.3814L6.79514 12.1719C6.98565 11.9787 7.29502 11.9709 7.495 12.1544C7.69073 12.3568 7.95945 12.4724 8.24099 12.4754C8.5226 12.4784 8.79364 12.3685 8.99368 12.1703L9.02609 12.1379L12.6127 15.724L5.22881 23.1108C2.95754 22.9817 0.890943 24.4181 0.220203 26.5919C-0.450537 28.7657 0.447369 31.1168 2.39645 32.2899C4.34553 33.4631 6.8434 33.1562 8.45044 31.5459C9.44885 30.5533 9.97315 29.1799 9.8903 27.7745L17.2764 20.3883L18.5563 21.6698L17.7784 22.4472C17.5638 22.6619 17.5638 23.0099 17.7784 23.2246L26.423 31.8669C27.9259 33.3699 30.3627 33.3699 31.8657 31.8669C33.3687 30.364 33.3687 27.9272 31.8657 26.4242L23.2211 17.7807ZM3.30467 4.81777L4.78904 3.30041L6.15468 4.66605L4.6598 6.16138L3.30467 4.81777ZM8.25259 11.3578C7.95919 11.0714 7.56297 10.9149 7.15303 10.9235C6.72814 10.9263 6.32129 11.0956 6.01997 11.3952L5.81052 11.6047C5.32404 12.0909 5.19918 12.832 5.49934 13.4508L5.72805 13.8835L4.87589 14.7356C4.78505 14.8312 4.65987 14.8866 4.52805 14.8895C4.39624 14.8924 4.26874 14.8425 4.17384 14.751L1.24245 11.8219C1.15232 11.7311 1.1029 11.6078 1.10555 11.4799C1.10703 11.3445 1.16173 11.2152 1.25785 11.1198L2.08527 10.2676L2.54927 10.5002C3.16712 10.7964 3.90473 10.6701 4.38876 10.1852L4.59821 9.97572C4.93194 9.64058 5.11014 9.18103 5.08972 8.70853C5.07516 8.33795 4.91306 7.98856 4.63944 7.73821L7.31789 5.06085L7.33381 5.04494L8.74725 3.62872C8.77966 3.59406 11.5209 0.65282 14.312 1.1795C12.6982 1.89019 11.2755 2.97267 10.1601 4.33851C9.75603 4.76101 9.75603 5.42673 10.1601 5.8493L11.6181 7.30726C11.7086 7.39797 11.7584 7.5216 11.7561 7.64975C11.7546 7.78511 11.6997 7.91435 11.6033 8.00931L8.25259 11.3578ZM9.80564 11.3633L11.3593 9.8097L14.9459 13.3958L13.3923 14.9495L9.80564 11.3633ZM16.8982 19.2113C16.8944 19.2151 16.8894 19.2162 16.8856 19.2201C16.8818 19.224 16.8807 19.2289 16.8774 19.2327L8.93209 27.1774C8.81393 27.2958 8.75608 27.4615 8.77489 27.6277C8.95412 29.2507 8.08888 30.81 6.61687 31.5166C5.14487 32.2233 3.387 31.9234 2.23268 30.7685C1.13608 29.6694 0.807382 28.0191 1.39914 26.5837C1.99089 25.1483 3.38719 24.2091 4.93973 24.2021C5.08463 24.2022 5.22946 24.2103 5.37351 24.2263C5.5398 24.2457 5.70576 24.1877 5.82379 24.069L13.7658 16.1265C13.7707 16.1221 13.7773 16.1204 13.7817 16.116C13.7861 16.1117 13.7878 16.105 13.7921 16.1001L16.0968 13.7955C16.1017 13.7911 16.1078 13.79 16.1127 13.785C16.1177 13.7801 16.1188 13.774 16.1231 13.7691L24.192 5.70067C24.3121 5.58058 24.3699 5.41172 24.3487 5.24324C24.1915 4.06792 24.6135 2.88931 25.4811 2.08095C26.3488 1.27266 27.5543 0.934942 28.7155 1.17493L27.025 2.86766C26.1846 3.72678 26.1983 5.10421 27.0558 5.94639C27.4633 6.35678 28.0157 6.59091 28.594 6.59838C29.1723 6.61932 29.7321 6.39299 30.1334 5.97602L31.8245 4.28606C32.0645 5.44728 31.7268 6.65282 30.9184 7.52032C30.1101 8.38788 28.9314 8.8098 27.7562 8.65228C27.5877 8.63109 27.4188 8.68888 27.2987 8.80897L16.8982 19.2113ZM18.0533 19.6093L19.6097 18.0529L20.8896 19.3317L20.8175 19.4042L19.3332 20.8886L18.0533 19.6093ZM31.8086 29.8613C31.5552 30.813 30.812 31.5565 29.8603 31.8102C28.9086 32.0638 27.8938 31.7889 27.2004 31.0896L18.9445 22.8343L19.7108 22.0684C19.7152 22.064 19.7213 22.063 19.7251 22.0585L21.646 20.1343L22.8324 18.9468L31.0872 27.2016C31.7868 27.8949 32.062 28.9095 31.8086 29.8613Z" fill="#161616"/>
<path d="M3.39829 26.4941C2.76923 27.123 2.58098 28.0689 2.92128 28.8907C3.26164 29.7125 4.06349 30.2483 4.95302 30.2483C5.84255 30.2483 6.6444 29.7125 6.98476 28.8907C7.32512 28.0689 7.13681 27.123 6.50775 26.4941C5.63722 25.6647 4.26888 25.6647 3.39829 26.4941ZM5.73045 28.8257C5.29506 29.2401 4.61111 29.2401 4.17572 28.8257C3.86119 28.5112 3.76706 28.0383 3.93721 27.6274C4.10736 27.2164 4.50835 26.9485 4.95308 26.9485C5.39782 26.9485 5.79881 27.2164 5.96895 27.6274C6.1391 28.0383 6.04498 28.5112 5.73045 28.8257Z" fill="#161616"/>
<path d="M22.158 10.066L10.0631 22.1609C9.92022 22.2989 9.86288 22.5033 9.91319 22.6955C9.96351 22.8878 10.1136 23.0379 10.3058 23.0881C10.4981 23.1385 10.7024 23.0811 10.8405 22.9382L22.9354 10.8433C23.1437 10.6276 23.1408 10.2847 22.9287 10.0727C22.7167 9.86057 22.3738 9.8576 22.158 10.066Z" fill="#161616"/>
</g>
<defs>
<clipPath id="clip0">
<rect width="33" height="33" fill="white"/>
</clipPath>
</defs>
</svg>
