<svg width="33" height="33" viewBox="0 0 33 33" fill="none" xmlns="http://www.w3.org/2000/svg">
<g clip-path="url(#clip0)">
<path d="M23.2209 17.7809C23.0062 17.5663 22.6582 17.5663 22.4435 17.7809L21.6667 18.5571L20.3874 17.2773L27.8945 9.7702C29.2715 9.87218 30.6248 9.37056 31.6027 8.3958C33.003 6.98358 33.3917 4.8561 32.5812 3.03993C32.5089 2.87281 32.3586 2.75227 32.1797 2.71818C32.0008 2.68404 31.8166 2.74073 31.6878 2.86952L29.3563 5.19891C29.1622 5.4025 28.8895 5.51196 28.6086 5.49907C28.3168 5.49475 28.0384 5.37634 27.8328 5.16921C27.4049 4.7565 27.3911 4.07545 27.802 3.64579L30.133 1.31312C30.2618 1.18433 30.3185 1.0002 30.2844 0.821287C30.2502 0.642376 30.1298 0.492006 29.9626 0.41972C28.1465 -0.391147 26.0188 -0.00239972 24.6068 1.39829C23.6301 2.37492 23.1281 3.72916 23.2324 5.10646L15.7226 12.6163L12.1365 9.0302L12.3795 8.78718C12.6798 8.48876 12.8504 8.08404 12.8545 7.66069C12.8608 7.2369 12.6948 6.82876 12.3944 6.52982L10.9551 5.12186C10.9593 5.10111 10.9694 5.08204 10.9842 5.0669C13.8633 1.80675 15.9871 1.90571 16.0355 1.90738C16.2831 1.93006 16.5152 1.78362 16.6013 1.55033C16.6875 1.31705 16.6062 1.0549 16.4033 0.911226C13.2146 -1.35 9.47122 1.21416 7.95444 2.86894L6.9329 3.88874L5.56777 2.52259C5.14301 2.10266 4.45861 2.10536 4.0372 2.52864L2.53028 4.03557C2.32289 4.23767 2.20557 4.51464 2.2046 4.80424C2.2037 5.09377 2.31928 5.37151 2.52532 5.57496L3.88542 6.93622L3.84309 6.97855C3.62153 7.19915 3.5044 7.50362 3.52089 7.81583C3.533 8.10053 3.6672 8.36622 3.88922 8.54481C3.95454 8.60073 3.99191 8.68256 3.99146 8.76856C3.99642 8.92982 3.93457 9.08599 3.82047 9.20016L3.61102 9.4096C3.46014 9.56262 3.22962 9.60481 3.03435 9.51513L2.57641 9.28591C2.16054 9.07981 1.65943 9.16285 1.33227 9.49207L0.48024 10.3447C0.180659 10.6424 0.0102518 11.0461 0.00580643 11.4684C-0.000700599 11.8918 0.165003 12.2998 0.464842 12.5987L3.39404 15.5279C3.68956 15.8232 4.09068 15.9884 4.50842 15.9869C4.9373 15.987 5.3486 15.8163 5.6514 15.5125L6.50298 14.6603C6.83304 14.3336 6.91615 13.8319 6.70914 13.4162L6.48372 12.9648C6.3903 12.7685 6.43108 12.5347 6.58545 12.3815L6.7949 12.1721C6.9854 11.9788 7.29478 11.971 7.49476 12.1545C7.69048 12.3569 7.9592 12.4725 8.24075 12.4755C8.52235 12.4785 8.79339 12.3686 8.99344 12.1704L9.02584 12.138L12.6125 15.7241L5.22857 23.1109C2.95729 22.9819 0.890698 24.4182 0.219959 26.592C-0.450781 28.7658 0.447125 31.1169 2.39621 32.2901C4.34529 33.4633 6.84315 33.1563 8.4502 31.546C9.44861 30.5534 9.97291 29.18 9.89005 27.7746L17.2762 20.3885L18.5561 21.6699L17.7781 22.4473C17.5635 22.662 17.5635 23.01 17.7781 23.2247L26.4227 31.867C27.9257 33.37 30.3625 33.37 31.8655 31.867C33.3685 30.3641 33.3685 27.9273 31.8655 26.4243L23.2209 17.7809ZM3.30442 4.81789L4.7888 3.30053L6.15444 4.66617L4.65956 6.1615L3.30442 4.81789ZM8.25234 11.3579C7.95895 11.0715 7.56273 10.915 7.15278 10.9236C6.72789 10.9264 6.32104 11.0958 6.01972 11.3953L5.81027 11.6048C5.32379 12.091 5.19893 12.8321 5.49909 13.4509L5.72781 13.8836L4.87564 14.7358C4.7848 14.8313 4.65962 14.8867 4.52781 14.8896C4.39599 14.8925 4.26849 14.8427 4.17359 14.7512L1.24221 11.822C1.15207 11.7313 1.10266 11.6079 1.1053 11.48C1.10678 11.3446 1.16148 11.2153 1.2576 11.1199L2.08503 10.2678L2.54903 10.5003C3.16687 10.7966 3.90449 10.6702 4.38852 10.1853L4.59797 9.97584C4.93169 9.6407 5.1099 9.18115 5.08947 8.70865C5.07491 8.33807 4.91282 7.98869 4.6392 7.73833L7.31765 5.06097L7.33356 5.04506L8.74701 3.62885C8.77941 3.59419 11.5206 0.652942 14.3117 1.17963C12.6979 1.89031 11.2753 2.9728 10.1599 4.33863C9.75579 4.76113 9.75579 5.42685 10.1599 5.84942L11.6178 7.30738C11.7084 7.39809 11.7582 7.52173 11.7558 7.64987C11.7544 7.78523 11.6995 7.91447 11.603 8.00943L8.25234 11.3579ZM9.8054 11.3635L11.359 9.80982L14.9457 13.396L13.3921 14.9496L9.8054 11.3635ZM16.898 19.2114C16.8941 19.2153 16.8892 19.2163 16.8854 19.2202C16.8815 19.2241 16.8804 19.229 16.8771 19.2328L8.93184 27.1775C8.81369 27.2959 8.75583 27.4616 8.77464 27.6278C8.95388 29.2508 8.08864 30.8101 6.61663 31.5168C5.14462 32.2235 3.38676 31.9235 2.23244 30.7686C1.13584 29.6695 0.807138 28.0192 1.39889 26.5838C1.99064 25.1484 3.38695 24.2092 4.93949 24.2022C5.08438 24.2023 5.22921 24.2105 5.37327 24.2264C5.53955 24.2458 5.70552 24.1878 5.82354 24.0691L13.7655 16.1266C13.7705 16.1222 13.7771 16.1205 13.7815 16.1162C13.7858 16.1118 13.7875 16.1051 13.7919 16.1003L16.0965 13.7956C16.1015 13.7912 16.1076 13.7901 16.1125 13.7852C16.1174 13.7802 16.1185 13.7741 16.1229 13.7693L24.1918 5.70079C24.3119 5.5807 24.3697 5.41184 24.3485 5.24336C24.1912 4.06804 24.6133 2.88943 25.4809 2.08107C26.3485 1.27279 27.5541 0.935064 28.7153 1.17505L27.0247 2.86778C26.1843 3.7269 26.1981 5.10433 27.0555 5.94651C27.4631 6.3569 28.0154 6.59103 28.5938 6.5985C29.1721 6.61944 29.7319 6.39311 30.1331 5.97615L31.8242 4.28619C32.0643 5.4474 31.7266 6.65294 30.9182 7.52044C30.1099 8.388 28.9312 8.80993 27.7559 8.6524C27.5874 8.63121 27.4186 8.689 27.2985 8.80909L16.898 19.2114ZM18.053 19.6094L19.6094 18.053L20.8893 19.3318L20.8173 19.4043L19.3329 20.8887L18.053 19.6094ZM31.8084 29.8614C31.555 30.8132 30.8117 31.5566 29.86 31.8103C28.9083 32.0639 27.8936 31.789 27.2001 31.0897L18.9442 22.8344L19.7106 22.0686C19.715 22.0642 19.721 22.0631 19.7249 22.0586L21.6457 20.1344L22.8322 18.9469L31.0869 27.2017C31.7866 27.8951 32.0618 28.9096 31.8084 29.8614Z" fill="#161616"/>
<path d="M3.3978 26.4941C2.76875 27.123 2.58049 28.0689 2.92079 28.8907C3.26115 29.7125 4.063 30.2484 4.95253 30.2484C5.84206 30.2484 6.64391 29.7125 6.98427 28.8907C7.32464 28.0689 7.13632 27.123 6.50726 26.4941C5.63674 25.6648 4.26839 25.6648 3.3978 26.4941ZM5.72996 28.8257C5.29457 29.2401 4.61062 29.2401 4.17523 28.8257C3.8607 28.5112 3.76658 28.0383 3.93673 27.6274C4.10687 27.2165 4.50786 26.9485 4.9526 26.9485C5.39733 26.9485 5.79832 27.2165 5.96847 27.6274C6.13862 28.0383 6.04449 28.5112 5.72996 28.8257Z" fill="#161616"/>
<path d="M22.1578 10.066L10.0629 22.1609C9.91997 22.299 9.86263 22.5033 9.91295 22.6956C9.96327 22.8878 10.1134 23.0379 10.3056 23.0882C10.4978 23.1385 10.7022 23.0812 10.8402 22.9383L22.9351 10.8434C23.1435 10.6277 23.1405 10.2847 22.9284 10.0727C22.7164 9.8606 22.3735 9.85763 22.1578 10.066Z" fill="#161616"/>
</g>
<defs>
<clipPath id="clip0">
<rect width="33" height="33" fill="white"/>
</clipPath>
</defs>
</svg>
