<svg width="82" height="66" viewBox="0 0 82 66" fill="none" xmlns="http://www.w3.org/2000/svg">
<path d="M25.4056 24.9844C26.5589 25.4521 27.5667 26.0331 28.3885 26.7005V22.5963C28.3885 21.0982 29.0829 19.7227 30.2998 18.5651C31.185 17.7252 32.3517 16.9987 33.7185 16.4313C33.2462 15.4143 32.9827 14.2793 32.9827 13.09V5.78093C32.9827 4.40087 33.5458 3.14781 34.4582 2.23988C35.3663 1.32747 36.6194 0.764526 37.9994 0.764526H44.0056C45.3857 0.764526 46.6387 1.32747 47.5513 2.23988C48.4594 3.14781 49.0222 4.40087 49.0222 5.78093V13.0901C49.0222 14.2796 48.759 15.4146 48.2867 16.4361C49.6444 16.9991 50.802 17.7117 51.6782 18.538C52.9132 19.7047 53.6214 21.0894 53.6214 22.5967V26.7053C54.4431 26.0334 55.4553 25.4522 56.6131 24.9801C56.1454 23.9631 55.8824 22.8327 55.8824 21.6479V14.3385C55.8824 12.9585 56.4499 11.7054 57.358 10.7975C58.2657 9.88493 59.5188 9.32214 60.9033 9.32214H66.9053C68.2854 9.32214 69.5429 9.88509 70.451 10.7975C71.3588 11.7056 71.9219 12.9585 71.9219 14.3385V21.6477C71.9219 22.8326 71.6632 23.9629 71.1956 24.9755C72.5891 25.5475 73.7787 26.283 74.6774 27.132C75.8942 28.2896 76.589 29.6607 76.589 31.1543V39.9752H80.8019C81.4648 39.9752 82.0005 40.5155 82.0005 41.1783C82.0005 41.4643 81.9007 41.7276 81.7327 41.932L77.3288 48.3422L81.7872 54.8252C82.164 55.37 82.0234 56.1146 81.4832 56.4913C81.283 56.6274 81.0425 56.7047 80.8019 56.7047H54.5021L54.9468 62.4159C55.0013 63.1377 54.7561 63.8141 54.316 64.3226C53.5395 65.226 52.2592 65.4893 51.1923 64.9763L41.0049 60.7679L30.6673 65.0354C29.5826 65.4803 28.3339 65.1488 27.6122 64.2273C27.2171 63.7188 27.0129 63.0559 27.0582 62.4159L27.5033 56.7047H18.9093C18.2464 56.7047 17.7107 56.169 17.7107 55.5061C17.7107 54.8434 18.2466 54.3031 18.9093 54.3031H27.6894L27.9253 51.2659L20.739 42.8308C20.6163 42.7082 20.4938 42.5266 20.4074 42.3769H3.48279L7.10536 47.6431C7.39156 48.0426 7.40966 48.5919 7.11449 49.0232L3.48279 54.3031H13.4703C14.1332 54.3031 14.6689 54.8434 14.6689 55.5061C14.6689 56.169 14.133 56.7047 13.4703 56.7047H1.20361C0.540729 56.7047 0.00500731 56.169 0.00500731 55.5061C0.00500731 55.2201 0.104784 54.9568 0.272788 54.748L4.67676 48.342L0.218335 41.8591C-0.353742 41.0284 0.272788 39.975 1.2491 39.975H5.44855V33.878C5.44855 33.2153 5.98411 32.675 6.64683 32.675C7.30956 32.675 7.84992 33.2153 7.84992 33.878V39.975H20.2896C20.4395 39.6481 20.7481 39.2215 21.0612 39.0035C21.3972 38.7402 21.7921 38.5858 22.2052 38.486L28.3886 36.9924V31.1541C28.3886 30.3461 27.9573 29.5561 27.2038 28.8479C26.4365 28.126 25.3561 27.4995 24.0529 27.0274C22.5321 28.7024 20.3893 29.665 18.1193 29.665C15.8492 29.665 13.7065 28.7024 12.181 27.0274C10.8826 27.4995 9.42986 28.2667 8.55381 29.3653C8.13628 29.8783 7.38275 29.96 6.86961 29.5469C6.35199 29.1337 6.27031 28.3802 6.68351 27.8626C7.73669 26.5506 9.28476 25.6154 10.8282 24.9798C10.3605 23.9628 10.0976 22.8324 10.0976 21.6476V16.5402V14.3385C10.0976 12.9585 10.665 11.7054 11.5727 10.7975C12.4808 9.88493 13.7339 9.32214 15.1184 9.32214H24.9382C25.6011 9.32214 26.1368 9.86234 26.1368 10.5252V16.5405V21.6479C26.1367 22.8372 25.8732 23.9676 25.4056 24.9844ZM69.5199 19.682L62.7373 17.3849L58.2883 19.5686V21.6477C58.2883 23.1913 58.9192 24.5941 59.9361 25.6111C60.9578 26.6326 62.3604 27.2636 63.904 27.2636C65.4478 27.2636 66.8504 26.6326 67.8672 25.6111C68.8889 24.5941 69.5197 23.1913 69.5197 21.6477V19.682H69.5199ZM58.2883 16.9036L62.0608 15.0559C62.347 14.8879 62.7054 14.8426 63.0414 14.9559L69.5199 17.1486V14.3385C69.5199 13.6212 69.2249 12.9674 68.7529 12.4953C68.2761 12.0187 67.6224 11.7235 66.9052 11.7235H60.9032C60.1815 11.7235 59.5321 12.0187 59.0558 12.4953C58.579 12.9674 58.2885 13.6212 58.2885 14.3385V16.9036H58.2883ZM12.4988 15.3419H23.735V11.7237H15.1181C14.3965 11.7237 13.7427 12.0188 13.2704 12.4955C12.7939 12.9676 12.4988 13.6214 12.4988 14.3387V15.3419ZM23.735 17.7435H12.4988V21.6477C12.4988 23.1913 13.1344 24.5941 14.1513 25.6111C15.1729 26.6326 16.5755 27.2636 18.1191 27.2636C19.6627 27.2636 21.0657 26.6326 22.0827 25.6111C23.104 24.5941 23.7348 23.1913 23.7348 21.6477V17.7435H23.735ZM46.6206 10.9383C44.8136 11.2152 41.8084 11.2152 39.3295 9.00423C38.4671 9.51272 37.0779 10.0938 35.3844 9.93489V13.0901C35.3844 14.6337 36.0201 16.0365 37.0369 17.0535C38.0539 18.075 39.4612 18.706 41.0048 18.706C42.5482 18.706 43.9511 18.075 44.968 17.0535C45.9893 16.0365 46.6205 14.6337 46.6205 13.0901V10.9383H46.6206ZM35.3844 7.51974C36.5377 7.70136 37.8133 7.3109 38.6847 6.53462C39.1843 6.10332 39.9378 6.15778 40.3736 6.65714C42.4122 9.00423 45.2495 8.79555 46.6206 8.51399V5.78093C46.6206 5.06359 46.3253 4.40984 45.849 3.9377C45.3767 3.46107 44.7229 3.1659 44.0056 3.1659H37.9994C37.2821 3.1659 36.6283 3.46107 36.156 3.9377C35.6796 4.40984 35.3844 5.06359 35.3844 5.78093V7.51974ZM57.9658 27.0229C56.631 27.5086 55.528 28.1534 54.7517 28.8934C54.0298 29.5879 53.6212 30.3642 53.6212 31.1541V36.9924L59.9499 38.5224C60.649 38.6904 61.2209 39.1307 61.5659 39.7028C61.6207 39.7891 61.6703 39.8797 61.7158 39.9752H74.187V31.1543C74.187 30.3553 73.7646 29.5699 73.0249 28.8708C72.2576 28.14 71.1634 27.5088 69.8378 27.0277C69.7515 27.123 69.6608 27.2183 69.57 27.3091C68.1174 28.7619 66.1106 29.6653 63.9042 29.6653C61.6977 29.6653 59.691 28.7619 58.2383 27.3091C58.1429 27.2181 58.0521 27.1228 57.9658 27.0229ZM35.0756 18.4789C33.7819 18.9555 32.7101 19.582 31.9523 20.3039C31.2122 21.0076 30.7899 21.793 30.7899 22.5965V31.1541V36.4157L32.9145 35.9027L38.7667 26.3736C39.1481 25.7562 39.7427 25.3521 40.3965 25.1933C41.5088 24.93 42.6665 25.4202 43.2521 26.3917L49.095 35.9027L51.2152 36.4157V31.1541V22.5965C51.2152 21.7839 50.7885 20.994 50.0347 20.2858C49.2768 19.5684 48.2095 18.951 46.9294 18.4744C45.4086 20.1496 43.2702 21.1075 41.0049 21.1075C38.7397 21.1075 36.6013 20.1496 35.0756 18.4789ZM61.6024 42.3767C61.5204 42.5129 61.4298 42.6445 61.3209 42.7672L59.3051 45.137C58.8738 45.641 58.1203 45.6955 57.6163 45.2687C57.1123 44.8374 57.0532 44.0792 57.4846 43.5798L59.5004 41.21C59.55 41.1509 59.5638 41.0647 59.541 40.992C59.5185 40.9193 59.4594 40.865 59.3868 40.8467C55.6323 39.9433 51.887 39.0399 48.1368 38.1319C47.8008 38.082 47.4968 37.8867 47.3059 37.5781L41.2043 27.6494C41.159 27.5722 41.1045 27.5267 41.0048 27.5267C40.9276 27.5223 40.8549 27.5631 40.814 27.6312L34.7034 37.578C34.5401 37.8368 34.2811 38.0365 33.959 38.1137C30.2272 39.0126 26.4999 39.9116 22.7681 40.8149C22.6546 40.8467 22.5367 40.8467 22.4776 40.9648C22.4369 41.042 22.4461 41.1464 22.5048 41.21L30.0275 50.04C30.2546 50.2761 30.3816 50.603 30.3544 50.9571C30.0547 54.8341 29.7551 58.7157 29.451 62.5972C29.4463 62.6653 29.4782 62.738 29.5326 62.7833C29.5961 62.8333 29.6869 62.8514 29.7597 62.8197L40.5466 58.366C40.8281 58.248 41.155 58.239 41.459 58.366L52.1143 62.7652C52.2913 62.8288 52.5773 62.9105 52.5544 62.5972C52.2548 58.7157 51.9506 54.8341 51.651 50.9571C51.6284 50.6528 51.7235 50.3397 51.9372 50.0855L53.9572 47.7202C54.3839 47.2163 55.142 47.1572 55.6461 47.5885C56.1453 48.0198 56.2044 48.7733 55.7777 49.2774L54.0842 51.2657L54.316 54.3029H78.5224L74.8998 49.0366C74.6136 48.6417 74.5955 48.0879 74.8907 47.6611L78.5224 42.3767H61.6024Z" fill="#B7A179"/>
</svg>
