<svg width="82" height="82" viewBox="0 0 82 82" fill="none" xmlns="http://www.w3.org/2000/svg">
<path d="M30.2231 57.1604L30.2367 57.1642L30.2507 57.1655C37.0042 57.7772 42.3137 63.4699 42.3137 70.3798V76.5547C42.3137 77.2701 41.7338 77.85 41.0184 77.85H5.44533C4.72993 77.85 4.15002 77.2701 4.15002 76.5547V70.3798C4.15002 63.4698 9.45982 57.777 16.2134 57.1655L16.2275 57.1642L16.241 57.1604C16.3337 57.1339 16.4294 57.1188 16.5268 57.1136L16.8517 57.0961L16.6274 56.8604C15.0694 55.223 14.1105 53.0117 14.1105 50.5793V43.5033C14.1105 39.504 17.3644 36.25 21.3638 36.25H31.058C31.7734 36.25 32.3533 36.8299 32.3533 37.5453V42.3562C32.3533 42.4912 32.347 42.6257 32.3376 42.7609L32.3365 42.7766L32.3387 42.7922C32.3476 42.8549 32.3533 42.9152 32.3533 42.9753V50.5793C32.3533 53.0117 31.3943 55.223 29.8364 56.8604L29.6121 57.0961L29.9371 57.1136C30.0345 57.1188 30.1303 57.1339 30.2231 57.1604ZM29.7627 38.9905V38.8405H29.6127H21.3638C18.7928 38.8405 16.7011 40.9321 16.7011 43.5032V45.3361V45.4288V45.5788H16.8511H26.5399C28.3171 45.5788 29.7627 44.1332 29.7627 42.356V38.9905ZM16.8511 48.1694H16.7011V48.3194V50.5791C16.7011 54.1803 19.6307 57.1099 23.2319 57.1099C26.8331 57.1099 29.7627 54.1803 29.7627 50.5791V47.4646V47.1988L29.5351 47.3362C28.6598 47.8648 27.635 48.1694 26.5399 48.1694H16.8511ZM26.4837 59.9567L26.7398 59.7007H26.3776H20.0862H19.7241L19.9801 59.9567L23.1258 63.1026L23.2319 63.2087L23.338 63.1026L26.4837 59.9567ZM39.5732 75.2594H39.7232V75.1094V70.3798C39.7232 64.9495 35.6485 60.4567 30.397 59.7893L30.3241 59.78L30.272 59.8321L24.1478 65.9563C23.905 66.1991 23.5754 66.3357 23.2319 66.3357C22.8884 66.3357 22.5589 66.1991 22.316 65.9563L16.1918 59.8321L16.1398 59.78L16.0668 59.7893C11.1633 60.4126 7.28658 64.3704 6.79414 69.3133L6.77771 69.4782H6.9434H12.8887C13.6041 69.4782 14.184 70.0581 14.184 70.7735C14.184 71.4889 13.6041 72.0688 12.8887 72.0688H6.89065H6.74065V72.2188V75.1094V75.2594H6.89065H39.5732Z" fill="#B7A179" stroke="#161616" stroke-width="0.3"/>
<path d="M65.7598 25.0604L65.7733 25.0643L65.7874 25.0656C72.5405 25.6774 77.85 31.3701 77.85 38.2798V44.4546C77.85 45.17 77.2701 45.7499 76.5547 45.7499H64.4622C63.7468 45.7499 63.1669 45.17 63.1669 44.4546C63.1669 43.7392 63.7468 43.1593 64.4622 43.1593H75.1094H75.2594V43.0093V38.2798C75.2594 32.8496 71.1849 28.3569 65.9331 27.6894L65.8601 27.6801L65.8081 27.7321L59.6839 33.8563C59.4311 34.1093 59.0997 34.2357 58.768 34.2357C58.4363 34.2357 58.1051 34.1093 57.8521 33.8563L51.7279 27.7321L51.6758 27.6801L51.6029 27.6894C46.3514 28.3568 42.2769 32.8496 42.2769 38.2798V43.0092V43.1592H42.4269H52.6105C53.3259 43.1592 53.9058 43.7391 53.9058 44.4545C53.9058 45.1699 53.3259 45.7498 52.6105 45.7498H40.9815C40.2661 45.7498 39.6862 45.1699 39.6862 44.4545V38.2797C39.6862 31.37 44.9956 25.6772 51.7489 25.0654L51.763 25.0641L51.7765 25.0603C51.8693 25.0339 51.9653 25.0187 52.0629 25.0135L52.3878 24.996L52.1635 24.7603C50.6056 23.1229 49.6467 20.9116 49.6467 18.4792V11.4032C49.6467 7.40392 52.9006 4.1499 56.9001 4.1499H66.5942C67.3096 4.1499 67.8895 4.72981 67.8895 5.44521V10.2561C67.8895 10.3911 67.8832 10.5256 67.8739 10.6608L67.8728 10.6765L67.875 10.6921C67.8838 10.7548 67.8895 10.8152 67.8895 10.8753V18.4793C67.8895 20.9117 66.9307 23.1231 65.3728 24.7605L65.1485 24.9962L65.4734 25.0136C65.5711 25.0189 65.667 25.034 65.7598 25.0604ZM58.6622 31.0025L58.7683 31.1086L58.8744 31.0025L62.0201 27.8568L62.2761 27.6007H61.914H55.6226H55.2604L55.5165 27.8568L58.6622 31.0025ZM52.3875 16.0694H52.2375V16.2194V18.4793C52.2375 22.0805 55.1671 25.01 58.7683 25.01C62.3695 25.01 65.2991 22.0804 65.2991 18.4792V15.3647V15.0989L65.0715 15.2363C64.1962 15.7647 63.1714 16.0694 62.0763 16.0694H52.3875ZM52.2375 13.3288V13.4788H52.3875H62.0763C63.8535 13.4788 65.2991 12.0333 65.2991 10.2561V6.89053V6.74053H65.1491H56.9002C54.3291 6.74053 52.2375 8.83213 52.2375 11.4032V13.2362V13.3288Z" fill="#B7A179" stroke="#161616" stroke-width="0.3"/>
<path d="M57.8527 43.5389L57.853 43.5386C58.0938 43.2978 58.4272 43.159 58.7688 43.159C59.1091 43.159 59.4438 43.2978 59.6846 43.5386C59.9253 43.7793 60.0641 44.1141 60.0641 44.4543C60.0641 44.796 59.9254 45.1293 59.6846 45.3701L59.6843 45.3704C59.4439 45.6121 59.1094 45.7497 58.7688 45.7497C58.4268 45.7497 58.0937 45.6121 57.8533 45.3704L57.8527 45.3698C57.611 45.1294 57.4735 44.7963 57.4735 44.4543C57.4735 44.1137 57.6111 43.7792 57.8527 43.5389ZM57.3235 44.4543C57.3235 44.8359 57.4767 45.2074 57.747 45.4762H59.7906C60.0595 45.2074 60.2141 44.8359 60.2141 44.4543C60.2141 44.0742 60.0595 43.7013 59.7906 43.4325C59.5218 43.1637 59.1489 43.009 58.7688 43.009C58.3872 43.009 58.0158 43.1637 57.747 43.4325C57.4767 43.7013 57.3235 44.0742 57.3235 44.4543Z" fill="#B7A179" stroke="#161616" stroke-width="0.3"/>
<path d="M36.4539 18.1796V18.2417L36.4979 18.2856L42.5423 24.3301C42.9126 24.7005 43.0235 25.2578 42.823 25.7417C42.6225 26.2256 42.1501 26.5413 41.6263 26.5413H36.0641H35.9632L35.9252 26.6348C34.8548 29.2659 32.3039 31.0218 29.3772 31.0218H11.2266C7.3247 31.0218 4.15002 27.8471 4.15002 23.9452V11.2265C4.15002 7.32458 7.3247 4.1499 11.2266 4.1499H29.3774C33.2793 4.1499 36.4539 7.32458 36.4539 11.2265V18.1796ZM38.137 23.9507H38.4991L38.243 23.6946L34.2426 19.6941C33.9997 19.4513 33.8632 19.1217 33.8632 18.7782V11.2265C33.8632 8.75278 31.8509 6.74053 29.3772 6.74053H11.2266C8.7529 6.74053 6.74065 8.75278 6.74065 11.2265V23.9452C6.74065 26.4189 8.7529 28.4312 11.2266 28.4312H29.3772C31.4791 28.4312 33.2767 27.0016 33.7473 24.9556C33.8827 24.3674 34.4063 23.9507 35.0098 23.9507H38.137Z" fill="#B7A179" stroke="#161616" stroke-width="0.3"/>
<path d="M45.4677 63.8422V63.7801L45.4237 63.7362L39.3793 57.6917C39.009 57.3213 38.8981 56.764 39.0986 56.2801C39.2991 55.7962 39.7715 55.4805 40.2953 55.4805H45.8575H45.9584L45.9964 55.387C47.0668 52.7559 49.6177 51 52.5444 51H70.695C74.5969 51 77.7716 54.1747 77.7716 58.0766V70.7953C77.7716 74.6972 74.5969 77.8719 70.695 77.8719H52.5442C48.6423 77.8719 45.4677 74.6972 45.4677 70.7953V63.8422ZM43.7846 58.0711H43.4225L43.6786 58.3272L47.679 62.3277C47.9219 62.5705 48.0584 62.9001 48.0584 63.2436V70.7953C48.0584 73.269 50.0707 75.2813 52.5444 75.2813H70.695C73.1687 75.2813 75.181 73.269 75.181 70.7953V58.0766C75.181 55.6029 73.1687 53.5906 70.695 53.5906H52.5444C50.4425 53.5906 48.6449 55.0202 48.1743 57.0662C48.0389 57.6544 47.5153 58.0711 46.9118 58.0711H43.7846Z" fill="#B7A179" stroke="#161616" stroke-width="0.3"/>
<path d="M19.3792 22.3798L19.3795 22.3795C19.6203 22.1387 19.9536 22 20.2953 22C20.6355 22 20.9703 22.1388 21.211 22.3795C21.4518 22.6203 21.5906 22.955 21.5906 23.2953C21.5906 23.6356 21.4518 23.9703 21.211 24.2111C20.9703 24.4518 20.6355 24.5906 20.2953 24.5906C19.9536 24.5906 19.6203 24.4519 19.3795 24.2111L19.3792 24.2108C19.1375 23.9704 19 23.6359 19 23.2953C19 22.9547 19.1375 22.6202 19.3792 22.3798Z" fill="#B7A179" stroke="#161616" stroke-width="0.3"/>
<path d="M56.5 65L61 68L69 61.5" stroke="#B7A179" stroke-width="2"/>
<path d="M18.6699 69.478C19.0102 69.478 19.345 69.6168 19.5857 69.8576C19.8264 70.0983 19.9652 70.4331 19.9652 70.7733C19.9652 71.1136 19.8264 71.4484 19.5857 71.6891C19.345 71.9298 19.0102 72.0687 18.6699 72.0687C18.3296 72.0687 17.9949 71.9298 17.7542 71.6891C17.5134 71.4484 17.3746 71.1136 17.3746 70.7733C17.3746 70.4331 17.5134 70.0983 17.7542 69.8576C17.9949 69.6168 18.3296 69.478 18.6699 69.478Z" fill="#B7A179" stroke="#161616" stroke-width="0.3"/>
<path d="M17.5 13.5C17.5 9.50005 23.5 9.49994 23.5 13.5C23.5 17.5001 20.5 14.5 20.5 20" stroke="#B7A179" stroke-width="2"/>
</svg>
