<svg width="82" height="82" viewBox="0 0 82 82" fill="none" xmlns="http://www.w3.org/2000/svg">
<g clip-path="url(#clip0)">
<path d="M56.2334 46.2336L45.1005 39.393C44.9648 39.3095 44.8088 39.253 44.6514 39.2283L41.1659 38.6133C40.5211 38.4993 39.8879 38.9429 39.7742 39.5877C39.6604 40.2325 40.1036 40.8658 40.7484 40.9795L44.0375 41.5599L54.9757 48.2809C55.5097 48.609 56.2421 48.4497 56.5965 47.934C56.9767 47.3805 56.805 46.5851 56.2334 46.2336Z" fill="#B7A179"/>
<path d="M81.6017 46.6188C81.1484 46.134 80.3883 46.1083 79.9035 46.5613L75.0333 51.1129L52.7175 29.0943L81.5453 2.07786C82.0293 1.62414 82.0539 0.86388 81.6004 0.379888C81.1468 -0.104104 80.3864 -0.128768 79.9024 0.324794L50.163 28.1955C49.6726 28.655 49.6623 29.4551 50.1407 29.9273L52.1146 31.8746L51.4846 32.431L38.2908 31.2948C38.0872 31.2776 37.8756 31.3126 37.6899 31.3985L27.236 36.1596C27.2055 36.1517 27.1751 36.1441 27.1436 36.1385L21.1303 35.0773L21.6166 33.8343C21.857 33.2196 21.5567 32.5261 20.9439 32.2813L1.72261 24.5928C1.10633 24.346 0.407403 24.646 0.161083 25.2621C-0.0853973 25.878 0.214255 26.5773 0.830376 26.8236L18.9445 34.0694L8.26979 61.3486L1.67744 59.0137C1.05187 58.7924 0.365443 59.1196 0.143946 59.7452C-0.0775497 60.3706 0.24997 61.0572 0.87538 61.2787L8.56384 64.0016C9.16731 64.2154 9.85054 63.9027 10.0836 63.3069L11.8675 58.7479L16.542 61.3674L16.0265 62.2031C14.5657 64.5707 15.3032 67.6854 17.671 69.1463C18.9231 69.9189 20.4774 70.1021 21.8765 69.6492C22.1009 71.1073 22.9577 72.4084 24.2141 73.1835C25.4662 73.9561 27.0204 74.1394 28.4197 73.6864C28.6442 75.1445 29.5007 76.4455 30.7572 77.2208C32.0131 77.9958 33.5593 78.1782 34.963 77.7251C35.1879 79.1825 36.0443 80.483 37.3004 81.258C39.126 82.3844 41.5424 82.216 43.188 80.8368C43.6028 80.4891 43.9598 80.0741 44.2439 79.6135L45.0635 78.2855L45.7382 78.7C47.5662 79.8232 49.982 79.6502 51.6251 78.2679C52.0392 77.9194 52.3954 77.5038 52.6787 77.0427C53.2418 76.1261 53.4749 75.0989 53.4134 74.0988C53.7948 74.1906 54.1853 74.2399 54.5793 74.2399C56.324 74.2399 57.9744 73.3198 58.8875 71.8339C59.4375 70.9386 59.6888 69.918 59.625 68.8906C60.0055 68.9819 60.3952 69.0309 60.7879 69.0309C62.5326 69.0309 64.1832 68.1108 65.0961 66.6248C65.6466 65.7289 65.8977 64.7076 65.8335 63.6794C66.2182 63.771 66.6088 63.8189 66.9977 63.8189C68.6943 63.8189 70.3534 62.9646 71.3049 61.4161C72.7614 59.0456 72.0179 55.9323 69.6474 54.4759L68.8242 53.9701L71.5852 51.0854L74.1677 53.6334C74.6206 54.0801 75.3671 54.09 75.8317 53.656L81.5446 48.3169C82.0291 47.8638 82.0547 47.1035 81.6017 46.6188ZM22.5697 66.2401C21.8043 67.4802 20.1728 67.8665 18.9325 67.1016C17.6923 66.3364 17.306 64.7049 18.071 63.4646L24.7998 52.5594C25.5508 51.3422 27.1623 50.9443 28.3928 51.6712C29.666 52.4239 30.0174 54.1695 29.253 55.4086L22.5697 66.2401ZM29.1125 70.2774C28.3475 71.5174 26.7158 71.9039 25.4757 71.1388C24.2505 70.3827 23.857 68.729 24.6142 67.5019L29.9971 58.7777C30.748 57.5606 32.3595 57.1625 33.59 57.8894C34.8633 58.6422 35.2146 60.3877 34.4501 61.6268L29.1125 70.2774ZM35.6562 74.3146C35.2853 74.9153 34.7026 75.3359 34.0159 75.4986C33.3286 75.6615 32.6196 75.5467 32.0189 75.1761C30.7938 74.42 30.4003 72.766 31.1576 71.5391L35.1948 64.9959C35.9458 63.7787 37.5574 63.3807 38.7877 64.1077C40.061 64.8604 40.4124 66.6059 39.6479 67.8451L35.6562 74.3146ZM44.8453 74.0636L42.1992 78.352C41.4431 79.5771 39.7893 79.9703 38.5621 79.2133C37.337 78.4573 36.9437 76.8032 37.7007 75.5763L40.3922 71.2143C41.1431 69.9974 42.7548 69.5988 43.9851 70.3262C45.2584 71.0788 45.6097 72.8245 44.8453 74.0636ZM66.7297 52.6831L60.7748 49.024C60.2226 48.6846 59.4617 48.8664 59.1224 49.4186C58.7831 49.9708 58.9649 50.7317 59.5171 51.0709L68.3892 56.5225C69.6308 57.2855 70.0203 58.9162 69.2575 60.1579C68.4945 61.3994 66.8636 61.7889 65.6219 61.0261L56.1065 55.1791C55.5414 54.8316 54.8014 55.0085 54.4542 55.5737C54.107 56.1389 54.2836 56.8788 54.8488 57.2261L62.1808 61.7313C63.4074 62.485 63.8038 64.1383 63.049 65.3666C62.2953 66.5933 60.642 66.9895 59.4136 66.2349L52.769 62.152C52.2037 61.8046 51.4639 61.9814 51.1167 62.5466C50.7695 63.1118 50.9461 63.8517 51.5113 64.1989L55.9723 66.94C57.1988 67.6939 57.5954 69.3468 56.8405 70.5754C56.0868 71.8019 54.4336 72.1984 53.2052 71.4436C53.2052 71.4436 49.282 69.0353 49.2453 69.0177C48.6968 68.7528 48.026 68.9413 47.7006 69.4711C47.3534 70.0363 47.53 70.7762 48.0952 71.1235L49.7639 72.1488C51.0054 72.9118 51.3947 74.5425 50.6319 75.7842C49.8782 77.0108 48.2249 77.407 46.9965 76.6524L46.3258 76.2401L46.8907 75.3245C47.6128 74.1541 47.8369 72.7127 47.5054 71.3699C47.1783 70.0448 46.3625 68.9394 45.2086 68.2573C44.3082 67.7253 43.3009 67.5097 42.3201 67.5758C42.5043 66.7847 42.5053 65.9509 42.308 65.1516C41.9809 63.8264 41.1651 62.721 40.0112 62.0389C39.1108 61.5067 38.1035 61.2912 37.1227 61.3573C37.6181 59.2291 36.7062 56.9394 34.8138 55.8205C33.9134 55.2885 32.9062 55.0729 31.9254 55.1389C32.4207 53.0108 31.5088 50.721 29.6164 49.6021C27.267 48.2134 24.1896 48.974 22.7562 51.2969L17.8058 59.3201L12.7516 56.4889L20.237 37.3595L24.3126 38.0787C23.1534 39.5186 22.8275 41.5456 23.6443 43.3396C24.4896 45.1954 26.326 46.2936 28.2437 46.2935C28.9421 46.2935 29.6515 46.1477 30.3275 45.8399L37.3628 42.6355C37.9586 42.3642 38.2296 41.6401 37.9581 41.0444C37.6868 40.4487 36.9627 40.1774 36.367 40.4491L29.3315 43.6533C28.0055 44.2574 26.4349 43.6698 25.8308 42.3435C25.2268 41.0173 25.8143 39.447 27.1405 38.8429L38.3985 33.7155L51.7905 34.8687C51.8249 34.8718 51.8594 34.8732 51.8936 34.8732C52.1851 34.8732 52.4681 34.767 52.6886 34.5726L53.8286 33.566L69.8741 49.3973L66.7297 52.6831Z" fill="#B7A179"/>
</g>
<defs>
<clipPath id="clip0">
<rect width="82" height="82" fill="white"/>
</clipPath>
</defs>
</svg>
