<svg width="82" height="82" viewBox="0 0 82 82" fill="none" xmlns="http://www.w3.org/2000/svg">
<path d="M75.6016 59.2031C76.4861 59.2031 77.2031 58.4861 77.2031 57.6016C77.2031 56.717 76.4861 56 75.6016 56C74.717 56 74 56.717 74 57.6016C74 58.4861 74.717 59.2031 75.6016 59.2031Z" fill="#B7A179"/>
<path d="M75.5938 38.75H68.2812C68.2812 37.3544 68.2812 7.85272 68.2812 6.40625C68.2812 5.62972 67.6515 5 66.875 5H41C40.4312 5 39.9185 5.3427 39.7008 5.86808C39.4832 6.39359 39.6036 6.99842 40.0056 7.40061L47.4486 14.8438L40.0055 22.2869C39.6035 22.6891 39.4831 23.2939 39.7006 23.8194C39.9183 24.3448 40.431 24.6875 40.9999 24.6875H65.4686V38.75H58.1561C57.3796 38.75 56.7499 39.3797 56.7499 40.1562V48.0312H40.7188C39.9422 48.0312 39.3125 48.661 39.3125 49.4375V56.4688H23.5625C22.7858 56.4688 22.1562 57.0985 22.1562 57.875V64.9062H6.40625C5.62958 64.9062 5 65.536 5 66.3125V75.5938C5 76.3703 5.62958 77 6.40625 77H75.5938C76.3703 77 77 76.3703 77 75.5938V64.2031C77 63.4266 76.3703 62.7969 75.5938 62.7969C74.8172 62.7969 74.1875 63.4266 74.1875 64.2031V74.1875H59.5625V41.5625H74.1875V51.5469C74.1875 52.3234 74.8172 52.9531 75.5938 52.9531C76.3703 52.9531 77 52.3234 77 51.5469V40.1562C77 39.3797 76.3703 38.75 75.5938 38.75ZM50.4319 15.8381C50.981 15.289 50.981 14.3985 50.4319 13.8492L44.3951 7.8125H65.4688V21.875H44.3951L50.4319 15.8381ZM24.9688 59.2812H39.3125V74.1875H24.9688C24.9688 72.6998 24.9688 60.7731 24.9688 59.2812ZM7.8125 67.7188H22.1562V74.1875H7.8125V67.7188ZM42.125 50.8438H56.75V74.1875H42.125V50.8438Z" fill="#B7A179"/>
</svg>
