<svg width="127" height="127" viewBox="0 0 127 127" fill="none" xmlns="http://www.w3.org/2000/svg">
<path d="M63.5 127C28.4299 127 0 98.5701 0 63.5C0 28.4299 28.4299 0 63.5 0C98.5701 0 127 28.4299 127 63.5H63.5V127Z" fill="#313231"/>
<g clip-path="url(#clip0)">
<path d="M56.8703 70.8194C56.8719 70.8357 56.8747 70.8515 56.8775 70.8673C56.8784 70.8727 56.8789 70.8781 56.8799 70.8833C56.8837 70.9022 56.8885 70.9207 56.8939 70.9389C56.8945 70.9411 56.895 70.9435 56.8957 70.9457C56.9014 70.9643 56.908 70.9825 56.9153 71.0004C56.916 71.0023 56.9166 71.0043 56.9174 71.0062C56.9245 71.0233 56.9326 71.04 56.941 71.0563C56.9424 71.059 56.9436 71.0619 56.945 71.0646C56.9531 71.0798 56.9622 71.0944 56.9714 71.1089C56.9738 71.1126 56.9757 71.1164 56.9782 71.12C56.9872 71.1336 56.9972 71.1464 57.0072 71.1592C57.0104 71.1634 57.0133 71.1678 57.0168 71.172C57.0292 71.1872 57.0426 71.2017 57.0564 71.2157C57.0577 71.2171 57.0588 71.2185 57.0601 71.2198L63.7881 77.9478C63.7897 77.9494 63.7915 77.9507 63.7931 77.9523C63.8068 77.9657 63.821 77.9787 63.8358 77.991C63.8406 77.9948 63.8457 77.9982 63.8505 78.002C63.8627 78.0114 63.8749 78.0208 63.8877 78.0295C63.892 78.0324 63.8966 78.0347 63.901 78.0375C63.9148 78.0463 63.9287 78.055 63.9432 78.0628C63.9464 78.0645 63.9498 78.0658 63.953 78.0675C63.9689 78.0757 63.9849 78.0835 64.0015 78.0905C64.0038 78.0914 64.0063 78.0921 64.0086 78.0931C64.0262 78.1001 64.044 78.1067 64.0622 78.1123C64.0645 78.113 64.0669 78.1134 64.0692 78.1141C64.0874 78.1195 64.1058 78.1243 64.1246 78.128C64.1298 78.129 64.135 78.1295 64.1402 78.1304C64.1562 78.1332 64.1721 78.1359 64.1885 78.1376C64.2103 78.1398 64.2322 78.1409 64.2543 78.1409H82.4274C83.2755 78.1409 83.9655 77.4509 83.9655 76.6028V64.5978C83.9655 64.2336 83.6704 63.9386 83.3064 63.9386C82.9423 63.9386 82.6472 64.2336 82.6472 64.5978V76.6027C82.6472 76.7239 82.5486 76.8225 82.4274 76.8225H64.9134V71.6325C64.9134 70.7845 64.2234 70.0944 63.3753 70.0944H58.1854V56.6274H59.9738C60.8218 56.6274 61.5118 55.9374 61.5118 55.0893V46.1894C61.5118 45.8056 61.3696 45.455 61.1362 45.1853C61.1194 45.1645 61.1015 45.1444 61.0818 45.1254C60.8017 44.8339 60.409 44.6512 59.9737 44.6512H58.1854V42.5381C58.1854 42.4169 58.284 42.3184 58.4051 42.3184H82.4274C82.5485 42.3184 82.6471 42.4169 82.6471 42.5381V61.961C82.6471 62.3252 82.9422 62.6202 83.3063 62.6202C83.6703 62.6202 83.9654 62.3252 83.9654 61.961V42.5381C83.9654 41.69 83.2755 41 82.4274 41H58.4051C57.557 41 56.867 41.69 56.867 42.5381V44.6513H44.5726C44.1374 44.6513 43.7446 44.8339 43.4645 45.1255C43.4449 45.1445 43.4269 45.1645 43.4101 45.1854C43.1767 45.4551 43.0344 45.8057 43.0344 46.1895V55.0894C43.0344 55.9375 43.7245 56.6275 44.5725 56.6275H56.867V70.7536C56.867 70.7757 56.8681 70.7976 56.8703 70.8194ZM59.4892 45.9697L57.6975 48.2309C57.5717 48.3898 57.3834 48.4807 57.1809 48.4807H47.3655C47.1629 48.4807 46.9746 48.3898 46.8489 48.2309L45.0571 45.9697H59.4892ZM44.3529 55.0893V47.2038L45.8155 49.0496C46.1929 49.5258 46.7578 49.7989 47.3655 49.7989H57.1809C57.7885 49.7989 58.3535 49.5258 58.7308 49.0496L60.1935 47.2038V55.0892C60.1935 55.2104 60.0949 55.3089 59.9738 55.3089H57.5347C57.5318 55.3089 57.5291 55.3085 57.5262 55.3085C57.5233 55.3085 57.5206 55.3089 57.5177 55.3089H44.5726C44.4515 55.309 44.3529 55.2105 44.3529 55.0893ZM63.595 71.6325V75.8902L59.1175 71.4128H63.3753C63.4964 71.4128 63.595 71.5113 63.595 71.6325Z" fill="white"/>
<path d="M53.9623 68.9633H50.522L54.5457 61.8638C54.8966 61.2446 54.8922 60.5079 54.5339 59.893C54.1756 59.2783 53.5368 58.9111 52.8253 58.9111H45.9562C45.2446 58.9111 44.6058 59.2783 44.2476 59.893C43.8892 60.5079 43.8849 61.2446 44.2357 61.8638L48.2594 68.9633H44.8191C43.835 68.9633 43.0344 69.7639 43.0344 70.748V73.9137C43.0344 74.2778 43.3296 74.5729 43.6936 74.5729C44.0576 74.5729 44.3528 74.2778 44.3528 73.9137V70.748C44.3528 70.4908 44.562 70.2816 44.8191 70.2816H53.9624C54.2196 70.2816 54.4287 70.4908 54.4287 70.748V84.2153C54.4287 84.4725 54.2196 84.6816 53.9624 84.6816H44.8191C44.562 84.6816 44.3528 84.4725 44.3528 84.2153V76.5504C44.3528 76.1863 44.0576 75.8913 43.6936 75.8913C43.3296 75.8913 43.0344 76.1863 43.0344 76.5504V84.2153C43.0344 85.1993 43.835 86 44.8191 86H53.9624C54.9465 86 55.7471 85.1994 55.7471 84.2153V70.748C55.747 69.764 54.9464 68.9633 53.9623 68.9633ZM45.3866 60.5568C45.444 60.4584 45.6143 60.2295 45.9562 60.2295H52.8254C53.1672 60.2295 53.3376 60.4584 53.3949 60.5568C53.4522 60.6552 53.5674 60.9163 53.3988 61.2138L49.3908 68.2855L45.3827 61.2137C45.2141 60.9163 45.3292 60.6552 45.3866 60.5568Z" fill="white"/>
<path d="M49.3909 72.2646C47.7547 72.2646 46.4236 73.5958 46.4236 75.2319C46.4236 76.8681 47.7547 78.1992 49.3909 78.1992C51.027 78.1992 52.3581 76.8681 52.3581 75.2319C52.3581 73.5958 51.0269 72.2646 49.3909 72.2646ZM49.3909 76.8808C48.4816 76.8808 47.7419 76.1411 47.7419 75.2318C47.7419 74.3226 48.4816 73.5829 49.3909 73.5829C50.3001 73.5829 51.0398 74.3226 51.0398 75.2318C51.0398 76.1411 50.3001 76.8808 49.3909 76.8808Z" fill="white"/>
<path d="M50.8809 79.8901H47.9009C47.5368 79.8901 47.2417 80.1852 47.2417 80.5493C47.2417 80.9134 47.5368 81.2085 47.9009 81.2085H50.8809C51.2449 81.2085 51.5401 80.9134 51.5401 80.5493C51.5401 80.1852 51.2449 79.8901 50.8809 79.8901Z" fill="white"/>
<path d="M82.7001 80.8769V80.6497C82.7001 79.7936 82.0036 79.0972 81.1476 79.0972H73.1972C72.8331 79.0972 72.538 79.3922 72.538 79.7563C72.538 80.1205 72.8331 80.4155 73.1972 80.4155H81.1476C81.2767 80.4155 81.3817 80.5206 81.3817 80.6497V80.8493H73.4949C73.0478 80.8493 72.6725 81.1579 72.568 81.573H58.7189C57.6978 81.573 56.8672 82.4037 56.8672 83.4246C56.8672 84.4456 57.6978 85.2762 58.7189 85.2762H72.568C72.6725 85.6914 73.0478 86 73.4949 86H82.4133C83.2693 86 83.9657 85.3036 83.9657 84.4476V82.4016C83.9657 81.6437 83.4194 81.012 82.7001 80.8769ZM72.538 83.958H60.8956V82.8914H72.538V83.958ZM58.1855 83.4246C58.1855 83.1306 58.4248 82.8914 58.7189 82.8914H59.5773V83.958H58.7189C58.4248 83.958 58.1855 83.7187 58.1855 83.4246ZM82.6473 84.4477C82.6473 84.5768 82.5423 84.6817 82.4133 84.6817H73.8564V82.1676H82.4133C82.5423 82.1676 82.6473 82.2726 82.6473 82.4017V84.4477Z" fill="white"/>
<path d="M73.9341 74.1147H79.4493C79.8134 74.1147 80.1085 73.8197 80.1085 73.4556C80.1085 73.0914 79.8134 72.7964 79.4493 72.7964H73.9341C73.57 72.7964 73.2749 73.0914 73.2749 73.4556C73.2749 73.8197 73.57 74.1147 73.9341 74.1147Z" fill="white"/>
<path d="M75.9946 67.5934L74.227 68.7031C73.8426 68.9443 73.613 69.3594 73.613 69.8133C73.613 70.2673 73.8425 70.6824 74.227 70.9238L75.9948 72.0335C76.2064 72.1664 76.449 72.2328 76.6917 72.2328C76.9343 72.2328 77.177 72.1663 77.3887 72.0335L79.1565 70.9237C79.5409 70.6824 79.7704 70.2673 79.7703 69.8133C79.7703 69.3594 79.5407 68.9443 79.1564 68.7031L77.3887 67.5934C76.9653 67.3276 76.4182 67.3276 75.9946 67.5934ZM78.4454 69.8135L76.6956 70.9169L74.938 69.8134L76.6917 68.7125L78.4454 69.8135Z" fill="#696969"/>
<path d="M66.8983 45.9292C67.2624 45.9292 67.5575 45.6342 67.5575 45.27C67.5575 44.9059 67.2624 44.6108 66.8983 44.6108H65.5549C64.9491 44.6108 64.4563 45.1036 64.4563 45.7095V48.0381C64.4563 48.644 64.9491 49.1368 65.5549 49.1368H75.2774C75.8832 49.1368 76.376 48.644 76.376 48.0381V45.7095C76.376 45.1036 75.8832 44.6108 75.2774 44.6108H69.5351C69.171 44.6108 68.8759 44.9059 68.8759 45.27C68.8759 45.6342 69.171 45.9292 69.5351 45.9292H75.0577V47.8184H65.7747V45.9292H66.8983Z" fill="#696969"/>
<path d="M63.9482 53.9668C63.9482 54.3309 64.2434 54.626 64.6074 54.626H76.2248C76.5888 54.626 76.884 54.3309 76.884 53.9668C76.884 53.6027 76.5888 53.3076 76.2248 53.3076H64.6074C64.2434 53.3076 63.9482 53.6028 63.9482 53.9668Z" fill="white"/>
<path d="M64.6074 58.1157H76.2248C76.5888 58.1157 76.884 57.8207 76.884 57.4565C76.884 57.0924 76.5888 56.7974 76.2248 56.7974H64.6074C64.2434 56.7974 63.9482 57.0924 63.9482 57.4565C63.9482 57.8207 64.2434 58.1157 64.6074 58.1157Z" fill="white"/>
<path d="M64.6074 61.6055H76.2248C76.5888 61.6055 76.884 61.3104 76.884 60.9463C76.884 60.5822 76.5888 60.2871 76.2248 60.2871H64.6074C64.2434 60.2871 63.9482 60.5822 63.9482 60.9463C63.9482 61.3104 64.2434 61.6055 64.6074 61.6055Z" fill="white"/>
</g>
<defs>
<clipPath id="clip0">
<rect width="45" height="45" fill="white" transform="translate(41 41)"/>
</clipPath>
</defs>
</svg>
