<svg xmlns="http://www.w3.org/2000/svg" width="39" height="35" viewBox="0 0 39 35">
    <g fill="#FFF" fill-rule="evenodd">
        <path d="M2.135 25.612c0-.282.289-.45.71-.45.9 0 1.264.636 1.264.636l1.162-.707s-.478-1.256-2.556-1.256c-1.563 0-2.443.832-2.443 1.795 0 2.414 3.238 1.52 3.238 2.723 0 .3-.262.486-.729.486-1.097 0-1.78-.937-1.78-.937l-1 .884s.644 1.342 2.78 1.342c1.843 0 2.535-.962 2.535-1.83 0-2.332-3.181-1.643-3.181-2.686M9.846 26.991H9.2v-1.83h.581c.796 0 1.16.4 1.16.946 0 .592-.393.884-1.095.884m2.81-.884c0-1.511-1.06-2.22-2.735-2.22H7.495v6.19H9.2v-1.821h.955c1.33 0 2.5-.664 2.5-2.149M19.046 25.162v-1.274h-4.335v6.188h4.335v-1.273h-2.63v-1.167h1.936V26.39h-1.936v-1.228zM25.615 28.803h-2.63v-1.167h1.938V26.39h-1.938v-1.228h2.63v-1.274H21.28v6.188h4.335zM29.554 23.888H27.85v6.188h4.334v-1.273h-2.63zM35.759 28.75c-.71 0-1.264-.468-1.264-1.759 0-1.29.56-1.732 1.264-1.732.702 0 1.264.442 1.264 1.732s-.552 1.76-1.264 1.76m0-4.916c-1.713 0-3.033 1.088-3.033 3.156 0 2.07 1.33 3.137 3.033 3.137 1.704 0 3.033-1.068 3.033-3.137 0-2.068-1.319-3.156-3.033-3.156M11.88 34.074h.505v.056c0 .235-.12.428-.444.428-.295 0-.572-.204-.572-.725 0-.516.245-.737.563-.737.435 0 .448.419.448.419l.365-.056c0-.083-.092-.69-.82-.69-.58 0-.962.357-.962 1.064 0 .707.403 1.052.969 1.052.581 0 .828-.371.828-.755v-.336h-.88v.28zM15.31 33.79h-.317v-.7h.349c.277 0 .437.137.437.354 0 .225-.202.345-.47.345m.47.175a.545.545 0 0 0 .39-.532c0-.458-.286-.644-.811-.644h-.762v2.08h.397v-.797h.267c.469 0 .312.807.957.807.129 0 .21-.016.21-.016v-.28h-.088c-.302 0-.32-.452-.56-.618M18.975 34.565c-.303 0-.566-.197-.566-.735 0-.543.267-.733.566-.733.297 0 .566.19.566.733 0 .538-.265.735-.566.735m0-1.795c-.533 0-.976.333-.976 1.06 0 .728.447 1.055.976 1.055.528 0 .972-.327.972-1.055 0-.727-.444-1.06-.972-1.06M23.045 34.038c0 .327-.136.518-.443.518-.309 0-.448-.191-.448-.518v-1.25h-.392v1.221c-.003.662.377.876.84.876.462 0 .837-.214.837-.876v-1.221h-.394v1.25zM26.076 33.866h-.33v-.776h.318c.324 0 .476.164.476.4 0 .245-.157.376-.464.376m.02-1.078h-.745v2.08h.395v-.7h.4c.447 0 .793-.212.793-.679 0-.473-.321-.701-.843-.701M22.71 19.38c.566 0 1.026-.433 1.026-.967 0-2.456-2.116-4.453-4.716-4.453s-4.715 1.997-4.715 4.453c0 .534.46.967 1.026.967.566 0 1.025-.433 1.025-.967 0-1.388 1.196-2.517 2.664-2.517 1.47 0 2.666 1.129 2.666 2.517 0 .534.458.967 1.024.967M10.607 15.223a4.783 4.783 0 0 1-.984 2.59c-.332.434-.226 1.038.233 1.353.18.123.39.183.598.183.318 0 .632-.14.833-.401a6.66 6.66 0 0 0 1.366-3.601c.259-3.804-2.808-7.099-6.837-7.344-.557-.039-1.052.37-1.09.904-.036.535.393.994.957 1.028 2.902.177 5.11 2.548 4.924 5.288"/>
        <path d="M28.101 16.86c0-4.95-4.268-8.98-9.513-8.98-.356 0-.713.024-1.068.061a4.014 4.014 0 0 0-1.017-1.524c-1.56-1.448-3.47-1.43-5.316-1.413-.268.002-.538.005-.81.002-.48 0-.937.014-1.37.028-1.713.058-2.5.05-3.155-.755-.48-.59-.346-1.08-.226-1.319.201-.395.627-.647 1.117-.66a.736.736 0 0 1 .413.095.925.925 0 0 0-.064 1.138c.309.447.943.575 1.417.285.67-.41.945-1.157.7-1.904-.255-.778-1.104-1.55-2.435-1.55l-.082.001c-1.264.03-2.381.704-2.915 1.759-.543 1.072-.376 2.318.448 3.332C5.55 7.09 7.345 7.028 9.083 6.969c.402-.014.824-.03 1.278-.026.285.002.568-.001.846-.003 1.808-.02 2.952.015 3.858.858.546.506.782 1.276.634 2.058-.143.752-.612 1.362-1.257 1.636-.516.22-.747.792-.515 1.28.17.358.544.571.936.571.14 0 .284-.027.42-.084 1.262-.538 2.173-1.68 2.435-3.06.021-.112.03-.224.043-.336.274-.029.55-.047.827-.047 4.115 0 7.463 3.162 7.463 7.045 0 .457-.046.913-.138 1.356-.107.525.255 1.033.813 1.134.064.012.13.019.196.019.48 0 .911-.322 1.005-.785a8.53 8.53 0 0 0 .174-1.724"/>
        <path d="M12.796 7.906c-.67 0-1.212.512-1.212 1.145s.542 1.146 1.212 1.146c.671 0 1.215-.513 1.215-1.146 0-.633-.544-1.145-1.215-1.145"/>
    </g>
</svg>
