<svg width="127" height="127" viewBox="0 0 127 127" fill="none" xmlns="http://www.w3.org/2000/svg">
<path d="M-2.77567e-06 63.5C-1.24271e-06 28.4299 28.4299 -4.30864e-06 63.5 -2.77567e-06C98.5701 -1.24271e-06 127 28.4299 127 63.5C127 98.5701 98.5701 127 63.5 127L63.5 63.5L-2.77567e-06 63.5Z" fill="#313231"/>
<g clip-path="url(#clip0)">
<path d="M64.159 65.6136C64.159 65.2496 63.8638 64.9544 63.4998 64.9544H52.9319C51.353 64.9544 50.0684 63.6698 50.0684 62.0908V45.1819C50.0684 43.603 51.353 42.3184 52.9319 42.3184H71.25C72.829 42.3184 74.1136 43.603 74.1136 45.1819V62.0909C74.1136 63.0003 73.6959 63.8354 72.9676 64.3823C72.6766 64.601 72.6178 65.0142 72.8364 65.3053C73.0551 65.5964 73.4682 65.655 73.7594 65.4365C74.8222 64.6382 75.4318 63.4187 75.4318 62.0909V45.1819C75.4319 42.876 73.556 41 71.25 41H52.9319C50.626 41 48.75 42.876 48.75 45.1819V62.0909C48.75 64.3968 50.626 66.2729 52.9319 66.2729H63.4997C63.8638 66.2728 64.159 65.9776 64.159 65.6136Z" fill="white"/>
<path d="M69.7956 52.4141V47.9998C69.7956 47.6358 69.5005 47.3406 69.1364 47.3406H57.4977L57.3609 46.7937C57.1303 45.8713 56.3053 45.2271 55.3545 45.2271H53.6365C53.2724 45.2271 52.9773 45.5222 52.9773 45.8862C52.9773 46.2503 53.2724 46.5454 53.6365 46.5454H55.3545C55.6992 46.5454 55.9984 46.779 56.0819 47.1134L58.3665 56.2514C58.5971 57.1738 59.4221 57.8181 60.373 57.8181H65.6137C65.9777 57.8181 66.2729 57.5229 66.2729 57.1589C66.2729 56.7949 65.9777 56.4997 65.6137 56.4997H60.373C60.0283 56.4997 59.7291 56.2661 59.6455 55.9317L59.5794 55.6674L68.0199 54.4616C69.0322 54.317 69.7956 53.4367 69.7956 52.4141ZM59.258 54.3816L57.8274 48.659H68.4773V52.4141C68.4773 52.7849 68.2006 53.1041 67.8335 53.1565L59.258 54.3816Z" fill="#696969"/>
<path d="M58.5682 58.6138C57.4278 58.6138 56.5 59.5416 56.5 60.682C56.5 61.8224 57.4279 62.7503 58.5682 62.7503C59.7086 62.7503 60.6365 61.8224 60.6365 60.682C60.6365 59.5416 59.7087 58.6138 58.5682 58.6138ZM58.5682 61.432C58.1547 61.432 57.8184 61.0955 57.8184 60.6821C57.8184 60.2687 58.1548 59.9322 58.5682 59.9322C58.9817 59.9322 59.3181 60.2687 59.3181 60.6821C59.3181 61.0955 58.9818 61.432 58.5682 61.432Z" fill="white"/>
<path d="M78.2502 76.8866V69.9166C78.2502 68.8704 77.5083 67.9609 76.5245 67.8008C76.0302 67.7204 75.5316 67.8181 75.1133 68.0703C74.8057 67.5625 74.3 67.1928 73.7063 67.0962C73.212 67.0159 72.7134 67.1136 72.2951 67.3658C71.9875 66.858 71.4818 66.4883 70.888 66.3917C70.5142 66.331 70.1379 66.372 69.7956 66.5048V60.7575C69.7956 59.7114 69.0537 58.8018 68.0698 58.6417C67.4639 58.5432 66.8508 58.7124 66.3879 59.1062C65.9247 59.5001 65.6591 60.0746 65.6591 60.6822V67.5525L63.8127 70.7837C63.1549 71.9348 63.0836 73.3453 63.6221 74.5569L64.9721 77.5943C65.2688 78.2617 65.7616 78.8015 66.3637 79.1625V81.3299C65.9441 81.5628 65.6592 82.01 65.6592 82.523V84.6366C65.6592 85.3886 66.2709 86.0003 67.0229 86.0003H76.182C76.934 86.0003 77.5457 85.3886 77.5457 84.6366V82.523C77.5457 82.01 77.2607 81.5628 76.8411 81.3299V79.2994C77.6815 78.8225 78.2502 77.92 78.2502 76.8866ZM76.2273 84.6366C76.2273 84.6616 76.207 84.6819 76.182 84.6819H67.0229C66.9978 84.6819 66.9775 84.6616 66.9775 84.6366V82.523C66.9775 82.4979 66.9978 82.4776 67.0229 82.4776H76.182C76.207 82.4776 76.2273 82.4979 76.2273 82.523V84.6366ZM75.5228 81.1592H67.6821V79.6265C67.8359 79.6475 67.9919 79.6594 68.1498 79.6594C68.5139 79.6594 68.809 79.3643 68.809 79.0002C68.809 78.6362 68.5139 78.3411 68.1498 78.3411C67.2975 78.3411 66.523 77.8378 66.1769 77.0589L64.8269 74.0215C64.4582 73.1919 64.507 72.226 64.9574 71.4379L65.6592 70.2098V72.6592C65.6592 73.0232 65.9543 73.3184 66.3183 73.3184C66.6824 73.3184 66.9775 73.0232 66.9775 72.6592V60.6822C66.9775 60.4618 67.0739 60.2534 67.2421 60.1104C67.4124 59.9656 67.631 59.9059 67.8582 59.943C68.2054 59.9995 68.4773 60.3572 68.4773 60.7576V69.1367C68.4773 69.5007 68.7724 69.7959 69.1365 69.7959C69.5005 69.7959 69.7957 69.5007 69.7957 69.1367V68.4322C69.7957 68.2118 69.8921 68.0034 70.0602 67.8604C70.2305 67.7156 70.4495 67.6559 70.6764 67.693C71.0236 67.7495 71.2954 68.1072 71.2954 68.5075V69.8412C71.2954 70.2053 71.5906 70.5004 71.9546 70.5004C72.3186 70.5004 72.6138 70.2053 72.6138 69.8412V69.1367C72.6138 68.9164 72.7102 68.708 72.8783 68.565C73.0487 68.4201 73.2675 68.3605 73.4945 68.3975C73.8417 68.4541 74.1136 68.8118 74.1136 69.212V70.5458C74.1136 70.9098 74.4088 71.2049 74.7728 71.2049C75.1369 71.2049 75.432 70.9098 75.432 70.5458V69.8412C75.432 69.6209 75.5284 69.4125 75.6965 69.2695C75.8669 69.1247 76.0856 69.0651 76.3127 69.1021C76.6599 69.1586 76.9318 69.5163 76.9318 69.9166V76.8866C76.9318 77.6886 76.2793 78.3411 75.4773 78.3411C75.1133 78.3411 74.8182 78.6362 74.8182 79.0002C74.8182 79.3643 75.1133 79.6594 75.4773 79.6594C75.4925 79.6594 75.5076 79.6585 75.5227 79.6583V81.1592H75.5228Z" fill="white"/>
</g>
<defs>
<clipPath id="clip0">
<rect width="45" height="45" fill="white" transform="translate(41 41)"/>
</clipPath>
</defs>
</svg>
