<svg width="127" height="127" viewBox="0 0 127 127" fill="none" xmlns="http://www.w3.org/2000/svg">
<path d="M127 63.5C127 98.5701 98.5701 127 63.5 127C28.4299 127 -1.24271e-06 98.5701 -2.77567e-06 63.5C-4.30864e-06 28.4299 28.4299 -1.24271e-06 63.5 -2.77567e-06L63.5 63.5L127 63.5Z" fill="#313231"/>
<g clip-path="url(#clip0)">
<path d="M78.9652 63.6046C78.9652 59.5887 77.4333 55.7822 74.6518 52.8862C74.3999 52.624 73.9832 52.6156 73.7209 52.8674C73.4587 53.1192 73.4503 53.536 73.7022 53.7982C76.247 56.4478 77.6485 59.9304 77.6485 63.6045C77.6485 71.4117 71.2968 77.7633 63.4897 77.7633C55.6825 77.7633 49.3306 71.4117 49.3306 63.6046C49.3306 55.7974 55.6823 49.4456 63.4895 49.4456C66.4391 49.4456 69.2661 50.3438 71.6647 52.0431C71.9612 52.2534 72.3723 52.1832 72.5824 51.8865C72.7927 51.5898 72.7225 51.1789 72.4258 50.9688C69.8035 49.1109 66.7134 48.1289 63.4895 48.1289C54.9563 48.1289 48.0139 55.0713 48.0139 63.6045C48.0139 72.1377 54.9563 79.0801 63.4895 79.0801C72.0227 79.0801 78.9652 72.1378 78.9652 63.6046Z" fill="#696969"/>
<path d="M56.574 71.6998C56.1388 71.3276 55.7306 70.9181 55.3547 70.4734C55.1199 70.1958 54.7046 70.1608 54.4269 70.3957C54.1492 70.6304 54.1144 71.0458 54.3491 71.3235C56.6296 74.0214 59.9611 75.5687 63.4894 75.5687C70.0864 75.5687 75.4534 70.2016 75.4534 63.6046C75.4534 57.0077 70.0863 51.6406 63.4894 51.6406C56.8925 51.6406 51.5254 57.0077 51.5254 63.6046C51.5254 65.4151 51.9199 67.1549 52.698 68.7759C52.8553 69.1037 53.2487 69.2419 53.5764 69.0845C53.9042 68.9272 54.0424 68.534 53.8851 68.2061C53.1931 66.7644 52.8421 65.2162 52.8421 63.6046C52.8421 57.7337 57.6185 52.9574 63.4894 52.9574C69.3603 52.9574 74.1367 57.7338 74.1367 63.6046C74.1367 66.8397 72.686 69.742 70.4015 71.6963C69.3138 70.5387 67.9174 69.7018 66.3837 69.2887V68.088C66.8218 67.8247 67.2281 67.5005 67.5908 67.1167C67.8405 66.8525 67.8287 66.4358 67.5644 66.186C67.3002 65.9363 66.8835 65.9481 66.6337 66.2123C65.807 67.0871 64.6903 67.5689 63.4893 67.5689C61.1035 67.5689 59.1624 65.6279 59.1624 63.2419V61.3734H67.8162V63.2419C67.8162 63.4983 67.7921 63.7605 67.7448 64.0212C67.6798 64.3789 67.9171 64.7217 68.2748 64.7867C68.6323 64.8517 68.9753 64.6145 69.0403 64.2568C69.1019 63.9186 69.133 63.5772 69.133 63.2419V60.715C69.133 60.7143 69.1329 60.7137 69.1329 60.713C69.1329 60.7122 69.133 60.7114 69.133 60.7106L69.1006 55.8149C69.0983 55.4567 68.8964 55.1375 68.5738 54.9817C68.2513 54.826 67.8758 54.8664 67.5938 55.0872L66.9542 55.5883H62.0615C59.7369 55.5883 57.8458 57.4794 57.8458 59.8039V60.7149V63.2418C57.8458 65.2964 58.9497 67.0974 60.5951 68.0845V69.2886C59.0597 69.7023 57.662 70.5403 56.574 71.6998ZM62.0614 56.9051H67.1813C67.3284 56.9051 67.4714 56.8558 67.5873 56.7651L67.7891 56.607L67.8119 60.0567H59.1624V59.8041C59.1624 58.2055 60.4629 56.9051 62.0614 56.9051ZM69.3439 72.4932C67.663 73.6041 65.6505 74.2519 63.4893 74.2519C61.3813 74.2519 59.3527 73.6303 57.6324 72.4957C58.484 71.6236 59.5475 70.9783 60.7129 70.6236C61.0662 71.8234 62.1768 72.702 63.4893 72.702C64.8018 72.702 65.9125 71.8234 66.2657 70.6236C67.43 70.978 68.4926 71.6224 69.3439 72.4932ZM63.4893 68.8856C64.0323 68.8856 64.5615 68.8085 65.0669 68.6624V69.8079C65.0669 70.6777 64.3592 71.3854 63.4893 71.3854C62.6195 71.3854 61.9118 70.6777 61.9118 69.8079V68.6596C62.4128 68.8057 62.9417 68.8856 63.4893 68.8856Z" fill="white"/>
<path d="M70.7737 48.4482C71.1325 48.5067 71.4709 48.2633 71.5295 47.9044C71.7792 46.3751 72.5681 44.9738 73.7509 43.9588C73.8067 43.9109 73.8641 43.865 73.9213 43.8191C73.7053 44.3427 73.5859 44.9158 73.5859 45.5164C73.5859 46.6442 74.0071 47.675 74.6992 48.4617C74.3219 48.7018 73.9698 48.982 73.6477 49.3017C73.3896 49.5577 73.388 49.9746 73.6442 50.2327C73.7729 50.3623 73.9422 50.4273 74.1114 50.4273C74.2791 50.4273 74.4468 50.3637 74.5752 50.2362C74.9332 49.8809 75.3373 49.5872 75.7786 49.3578C76.4448 49.7534 77.2217 49.9815 78.051 49.9815C78.8808 49.9815 79.6581 49.7532 80.3245 49.3572C81.8446 50.1478 82.855 51.6845 82.9736 53.3971C82.0053 54.4758 80.6799 55.2375 79.1533 55.4937C78.7947 55.554 78.5529 55.8934 78.613 56.252C78.667 56.5737 78.9458 56.8014 79.2615 56.8014C79.2977 56.8014 79.3344 56.7984 79.3713 56.7923C81.1983 56.4856 82.8706 55.5373 84.08 54.122C85.3035 52.6903 85.9772 50.8633 85.9772 48.9776C85.9772 44.607 82.4215 41.0513 78.0509 41.0513C76.159 41.0513 74.3272 41.7289 72.8933 42.9596C71.4753 44.1764 70.5294 45.8573 70.2299 47.6924C70.1713 48.0512 70.4148 48.3896 70.7737 48.4482ZM74.9025 45.5164C74.9025 43.7803 76.3149 42.3679 78.051 42.3679C79.7871 42.3679 81.1995 43.7803 81.1995 45.5164C81.1995 47.2525 79.7871 48.6649 78.051 48.6649C76.3149 48.6649 74.9025 47.2525 74.9025 45.5164ZM84.6606 48.9776C84.6606 50.0037 84.4276 50.9794 84.0088 51.8512C83.5665 50.4607 82.646 49.2535 81.403 48.4616C82.0951 47.6748 82.5162 46.6441 82.5162 45.5164C82.5162 44.9174 82.3974 44.3457 82.1824 43.8235C83.6919 45.0359 84.6606 46.8953 84.6606 48.9776Z" fill="white"/>
<path d="M47.6318 56.7416C47.6687 56.7478 47.7052 56.7508 47.7413 56.7508C48.0571 56.7508 48.336 56.5229 48.3899 56.2011C48.4499 55.8425 48.2079 55.503 47.8493 55.443C46.3237 55.1875 44.9989 54.4273 44.0304 53.3502C44.1641 51.6566 45.1699 50.1407 46.676 49.3573C47.3425 49.7533 48.1197 49.9816 48.9495 49.9816C49.7789 49.9816 50.5557 49.7536 51.2219 49.3579C51.6598 49.5855 52.0611 49.8765 52.4171 50.2281C52.5453 50.3549 52.7125 50.4181 52.8797 50.4181C53.0495 50.4181 53.2193 50.3528 53.3481 50.2224C53.6036 49.9637 53.601 49.5468 53.3424 49.2914C53.023 48.976 52.6743 48.6997 52.301 48.462C52.9934 47.6752 53.4146 46.6444 53.4146 45.5164C53.4146 44.8856 53.283 44.2851 53.0459 43.7407C53.1192 43.7985 53.1918 43.8572 53.2628 43.9184C54.4483 44.9408 55.2347 46.3505 55.4772 47.8877C55.534 48.247 55.8717 48.4924 56.2302 48.4355C56.5894 48.3789 56.8345 48.0418 56.7779 47.6826C56.487 45.8379 55.544 44.147 54.1228 42.9213C52.6862 41.6823 50.849 41 48.9496 41C44.579 41 41.0232 44.5557 41.0232 48.9263C41.0232 50.8125 41.6973 52.6399 42.9213 54.0717C44.1313 55.4873 45.8042 56.4355 47.6318 56.7416ZM45.8011 45.5164C45.8011 43.7803 47.2135 42.3679 48.9496 42.3679C50.6856 42.3679 52.0981 43.7803 52.0981 45.5164C52.0981 47.2525 50.6856 48.6649 48.9496 48.6649C47.2135 48.6649 45.8011 47.2525 45.8011 45.5164ZM44.8517 43.7453C44.6159 44.2887 44.4844 44.8874 44.4844 45.5165C44.4844 46.6445 44.9057 47.6755 45.5981 48.4623C44.3642 49.2483 43.4482 50.4434 43.0021 51.8209C42.5769 50.9439 42.3399 49.9609 42.3399 48.9264C42.3399 46.8287 43.323 44.9569 44.8517 43.7453Z" fill="white"/>
<path d="M79.4026 70.3643C79.0445 70.3006 78.7028 70.5393 78.6392 70.8973C78.58 71.2303 78.7825 71.5491 79.0992 71.6432C79.1047 71.6453 79.1098 71.6479 79.1153 71.6498C80.3618 72.0978 81.1993 73.2885 81.1993 74.6128C81.1993 76.3489 79.7869 77.7613 78.0509 77.7613C77.0193 77.7613 76.0515 77.254 75.4622 76.404C75.2551 76.1053 74.8449 76.031 74.546 76.2382C74.2472 76.4454 74.1729 76.8556 74.3802 77.1544C74.4786 77.2963 74.5849 77.4308 74.6975 77.5588C73.4567 78.3498 72.5373 79.5548 72.0947 80.9427C71.8457 80.4248 71.6614 79.8673 71.553 79.2795C71.4871 78.922 71.1443 78.6856 70.7863 78.7513C70.4287 78.8173 70.1922 79.1606 70.2581 79.5181C70.9503 83.2741 74.2276 86.0002 78.0509 86.0002C82.4214 86.0002 85.9772 82.4445 85.9772 78.0739C85.9772 74.2837 83.2122 71.0413 79.4026 70.3643ZM78.0509 84.6836C76.1152 84.6836 74.3483 83.8446 73.1289 82.4853C73.2502 80.7762 74.2597 79.2432 75.7773 78.4539C76.4566 78.8562 77.2396 79.0781 78.0509 79.0781C78.8807 79.0781 79.6579 78.8497 80.3243 78.4538C81.8403 79.2422 82.8494 80.7729 82.9725 82.4799C81.7615 83.8313 80.0041 84.6836 78.0509 84.6836ZM84.0063 80.9398C83.563 79.5528 82.6434 78.3487 81.4026 77.5584C82.0949 76.7716 82.5162 75.7408 82.5162 74.6128C82.5162 74.0679 82.4156 73.5391 82.2304 73.0472C83.7269 74.2523 84.6606 76.071 84.6606 78.074C84.6605 79.1002 84.4254 80.0725 84.0063 80.9398Z" fill="white"/>
<path d="M56.2131 78.7603C55.8553 78.6938 55.512 78.93 55.4456 79.2874C55.3371 79.872 55.1533 80.4265 54.9055 80.9419C54.4624 79.5541 53.5427 78.3495 52.3017 77.5586C52.4109 77.4345 52.5144 77.3046 52.6103 77.1675C52.8186 76.8695 52.7459 76.459 52.4479 76.2507C52.1499 76.0423 51.7394 76.115 51.5311 76.4131C50.9412 77.257 49.976 77.7608 48.9492 77.7608C47.2132 77.7608 45.8008 76.3484 45.8008 74.6123C45.8008 73.2924 46.6344 72.1031 47.8751 71.6526C47.8805 71.6507 47.8855 71.6481 47.8908 71.6461C48.2033 71.5485 48.4018 71.2317 48.3421 70.9013C48.2775 70.5434 47.9346 70.306 47.5772 70.3704C43.7795 71.0562 41.0229 74.2959 41.0229 78.0735C41.0229 82.4441 44.5787 85.9998 48.9492 85.9998C52.7675 85.9998 56.0441 83.2779 56.7402 79.5277C56.8066 79.1703 56.5706 78.8267 56.2131 78.7603ZM44.7681 73.0524C44.5841 73.5429 44.4842 74.0698 44.4842 74.6124C44.4842 75.74 44.9053 76.7707 45.5973 77.5574C44.3566 78.3479 43.4374 79.5524 42.9943 80.9398C42.575 80.0723 42.3398 79.0999 42.3398 78.0736C42.3397 76.0749 43.2729 74.2578 44.7681 73.0524ZM48.9493 84.6831C46.9961 84.6831 45.2388 83.8309 44.0277 82.4794C44.1508 80.7724 45.1598 79.2418 46.6759 78.4533C47.3423 78.8493 48.1195 79.0776 48.9493 79.0776C49.76 79.0776 50.5432 78.8558 51.2228 78.4533C52.7403 79.2425 53.7498 80.7753 53.8714 82.4844C52.6516 83.8438 50.8845 84.6831 48.9493 84.6831Z" fill="white"/>
</g>
<defs>
<clipPath id="clip0">
<rect width="45" height="45" fill="white" transform="translate(41 41)"/>
</clipPath>
</defs>
</svg>
