<svg width="303" height="36" viewBox="0 0 303 36" fill="none" xmlns="http://www.w3.org/2000/svg">
<path d="M84.3177 15.4123H86.395C88.9819 15.4123 90.8073 15.0627 91.8725 14.3635C92.9532 13.6492 93.4935 12.456 93.4935 10.7841C93.4935 8.9601 92.9984 7.68338 92.0098 6.95374C91.0205 6.20901 89.1491 5.8366 86.395 5.8366H84.3177V15.4123ZM84.3177 30.1634H86.1891C88.0911 30.1634 89.5142 30.0874 90.4575 29.9354C91.4009 29.7834 92.1464 29.5174 92.694 29.1374C93.3635 28.6966 93.8812 28.1039 94.2463 27.3591C94.6113 26.6143 94.7939 25.7935 94.7939 24.8968C94.7939 23.8328 94.5734 22.9057 94.1324 22.1153C93.6913 21.3249 93.0598 20.7093 92.2376 20.2685C91.7207 20.0102 91.1271 19.8202 90.4575 19.6986C89.8033 19.5769 88.9286 19.5162 87.8326 19.5162H86.1891H84.3177V30.1634ZM79 34.7004V1.32238H87.4215C89.8259 1.32238 91.5987 1.45155 92.74 1.70996C93.8965 1.96836 94.8778 2.39394 95.6847 2.98668C96.7193 3.74666 97.5181 4.74222 98.081 5.97343C98.6593 7.20457 98.9484 8.56495 98.9484 10.0545C98.9484 11.8328 98.5373 13.3223 97.7159 14.5231C96.8938 15.7087 95.6993 16.5371 94.1324 17.0082C96.0797 17.3122 97.6093 18.2014 98.7199 19.6757C99.8458 21.1349 100.409 22.9817 100.409 25.2159C100.409 26.5687 100.173 27.853 99.7012 29.069C99.2295 30.285 98.56 31.3185 97.6926 32.1697C96.7799 33.0969 95.646 33.7505 94.2923 34.1305C92.9378 34.5105 90.6627 34.7004 87.4675 34.7004H79ZM102.783 34.7004V1.32238H108.215V34.7004H102.783ZM117.853 15.5491H118.835C121.711 15.5491 123.62 15.2147 124.563 14.5459C125.507 13.8771 125.978 12.6916 125.978 10.9892C125.978 9.1501 125.469 7.85813 124.45 7.1134C123.445 6.35342 121.573 5.97343 118.835 5.97343H117.853V15.5491ZM117.511 19.7669V34.7004H112.421V1.32238H119.999C122.22 1.32238 123.94 1.46679 125.157 1.75554C126.39 2.04436 127.439 2.5231 128.307 3.19192C129.342 3.99748 130.14 5.03862 130.703 6.31542C131.266 7.59214 131.548 8.99052 131.548 10.5105C131.548 13.1856 130.901 15.2831 129.607 16.8031C128.314 18.3078 126.405 19.2122 123.879 19.5162L135.382 34.7004H129.242L118.127 19.7669H117.511ZM143.335 29.7986H147.9C150.411 29.7986 152.29 29.6314 153.538 29.297C154.801 28.9626 155.896 28.4003 156.824 27.6099C158.087 26.5307 159.031 25.1932 159.655 23.5972C160.294 21.986 160.614 20.1165 160.614 17.9886C160.614 15.8607 160.294 13.9987 159.655 12.4028C159.031 10.7916 158.087 9.44651 156.824 8.36729C155.881 7.57697 154.748 7.01457 153.424 6.68017C152.115 6.34576 150.061 6.17859 147.261 6.17859H145.298H143.335V29.7986ZM137.903 34.7004V1.32238H145.229C149.992 1.32238 153.34 1.56554 155.273 2.05195C157.22 2.5231 158.924 3.32108 160.385 4.44588C162.318 5.92019 163.778 7.81255 164.767 10.1228C165.771 12.4332 166.274 15.0703 166.274 18.0342C166.274 20.9981 165.771 23.6276 164.767 25.9228C163.778 28.2026 162.318 30.0874 160.385 31.5769C158.924 32.7017 157.258 33.5072 155.387 33.9936C153.53 34.4649 150.632 34.7004 146.69 34.7004H145.229H137.903ZM166.987 28.0203L171.323 26.0139C171.734 27.5035 172.488 28.6434 173.583 29.4338C174.679 30.209 176.079 30.5966 177.783 30.5966C179.396 30.5966 180.674 30.1482 181.618 29.2514C182.576 28.3546 183.055 27.1539 183.055 25.6491C183.055 23.6884 181.427 21.9404 178.171 20.4053C177.714 20.1773 177.365 20.0102 177.121 19.9037C173.439 18.1102 170.982 16.4914 169.748 15.0475C168.531 13.5883 167.923 11.81 167.923 9.7125C167.923 6.99174 168.844 4.78787 170.685 3.10067C172.541 1.41355 174.968 0.569985 177.966 0.569985C180.431 0.569985 182.493 1.0488 184.151 2.00636C185.81 2.94868 186.958 4.30906 187.598 6.08742L183.352 8.27612C182.682 7.22739 181.945 6.45976 181.138 5.97343C180.347 5.48703 179.434 5.24386 178.399 5.24386C176.938 5.24386 175.774 5.62385 174.907 6.38376C174.055 7.14374 173.629 8.16213 173.629 9.43892C173.629 11.4452 175.516 13.3147 179.289 15.0475C179.578 15.1843 179.807 15.2907 179.974 15.3667C183.276 16.8867 185.543 18.3762 186.776 19.8353C188.008 21.2793 188.624 23.088 188.624 25.2615C188.624 28.423 187.628 30.9386 185.634 32.8081C183.641 34.6625 180.948 35.5896 177.555 35.5896C174.709 35.5896 172.373 34.936 170.548 33.6289C168.737 32.3217 167.55 30.4521 166.987 28.0203ZM216.037 36L201.133 1.32238H206.771L214.257 19.1058C214.698 20.1393 215.063 21.0969 215.352 21.9784C215.641 22.8448 215.87 23.6732 216.037 24.4636C216.235 23.6276 216.486 22.7613 216.791 21.8644C217.095 20.9677 217.452 20.0482 217.863 19.1058L225.327 1.32238H230.942L216.037 36ZM231.17 34.7004V1.32238H236.602V34.7004H231.17ZM240.088 34.7004V1.32238H258.735V5.92784H245.52V14.2951H258.735V19.0602H245.52V29.8442H258.735V34.7004H240.088ZM258.835 1.32238H264.198L270.521 18.171C270.932 19.2806 271.274 20.2533 271.548 21.0893C271.837 21.9253 272.088 22.708 272.301 23.4376C272.834 21.6745 273.389 19.9493 273.967 18.2622C274.043 18.0494 274.096 17.905 274.127 17.829L280.837 0L287.913 18.171C288.247 19.0526 288.56 19.9342 288.848 20.8157C289.153 21.6973 289.435 22.5864 289.693 23.4832C289.846 22.7993 290.051 22.0469 290.309 21.2261C290.568 20.4053 290.903 19.4326 291.314 18.3078L297.59 1.32238H303L290.058 36L282.435 16.9626C282.1 16.1114 281.796 15.2983 281.522 14.5231C281.248 13.7327 281.005 12.988 280.792 12.2888C280.533 13.1856 280.274 14.0291 280.016 14.8195C279.757 15.5947 279.491 16.3394 279.217 17.0538L271.731 36L258.835 1.32238Z" fill="url(#paint0_linear)"/>
<path d="M55.3923 1C55.3942 0.999974 55.396 1.00038 55.3974 1.00118C55.3992 1.00197 55.4006 1.00314 55.4015 1.00458C55.4025 1.00603 55.4034 1.0077 55.4034 1.00946C55.4039 1.01122 55.4034 1.01301 55.4029 1.01468L52.5653 8.76844L43.2255 34.2902L42.9684 34.9931C42.9676 34.9952 42.9662 34.9969 42.9644 34.9982C42.9626 34.9994 42.9605 35 42.9582 35L20.1348 34.9243C24.7144 34.5811 31.8372 32.722 31.6769 24.4723C31.6769 24.4723 32.5283 16.4942 23.1534 14.0575L23.2262 14.0291L23.2368 14.0245L23.3055 13.9965L23.3806 13.9644L23.4552 13.9313L23.5294 13.8978L23.5953 13.8667L23.6114 13.8589L23.6764 13.8277L23.7487 13.7909L23.821 13.7538L23.8809 13.7217L23.9035 13.7093C23.9233 13.6987 23.9436 13.6877 23.9634 13.6762L24.0339 13.6363L24.1002 13.5978L24.1062 13.5941C24.1288 13.5813 24.1523 13.5675 24.173 13.5542L24.2338 13.517L24.2518 13.5056L24.3103 13.4684L24.3781 13.4225C24.3983 13.4097 24.4186 13.3959 24.4384 13.3822C24.4665 13.3633 24.4937 13.3445 24.5213 13.3253L24.5776 13.2858L24.6388 13.2399L24.7075 13.1895L24.7536 13.1546C24.8102 13.1087 24.8655 13.067 24.9203 13.022L24.9392 13.0069L24.9742 12.9775C25.0148 12.9435 25.0553 12.9091 25.0949 12.8738L25.141 12.8316L25.1968 12.7811C25.2861 12.6985 25.3741 12.6137 25.4589 12.526C25.4709 12.5132 25.4833 12.5008 25.4958 12.488C25.5428 12.4384 25.5888 12.3883 25.634 12.3375L25.6686 12.298L25.704 12.2576C25.7211 12.2379 25.7386 12.2182 25.7552 12.198L25.7976 12.148L25.839 12.0975L25.8796 12.047C25.9229 11.9923 25.9654 11.9372 26.0072 11.8819C26.0219 11.8617 26.0376 11.841 26.0533 11.8204V11.8172L26.0878 11.769C26.1228 11.7204 26.1569 11.6708 26.1901 11.6213C26.2054 11.5992 26.2208 11.5772 26.2362 11.5552L26.2698 11.5034C26.2763 11.4928 26.2827 11.4823 26.2896 11.4722L26.3232 11.418L26.3656 11.3492C26.3933 11.3033 26.4205 11.2574 26.4467 11.2116L26.4804 11.1515C26.4854 11.1427 26.4905 11.134 26.4951 11.1253C26.5131 11.0923 26.531 11.0592 26.5481 11.0262C26.5651 10.9932 26.5826 10.9597 26.5997 10.9262C26.6121 10.9023 26.6241 10.878 26.6356 10.8537C26.6582 10.8078 26.6817 10.7619 26.7015 10.7161C26.7029 10.7134 26.7042 10.7106 26.7052 10.7078C26.7167 10.683 26.7278 10.6587 26.7379 10.6344C27.2054 9.80598 27.484 8.88521 27.5539 7.9375C27.6238 6.98976 27.4833 6.03834 27.1424 5.15078C27.1424 5.15078 26.3186 1.71986 22.2205 1.00551C22.2215 1.00391 22.223 1.00257 22.2247 1.00162C22.2263 1.00066 22.2282 1.00011 22.2302 1H30.2348C30.2371 1.00003 30.2394 1.00075 30.2412 1.00206C30.2431 1.00336 30.2446 1.0052 30.2454 1.00734L30.8734 2.7228L34.3182 12.1356L38.069 22.3852L38.0791 22.4132L38.0897 22.3843L38.8785 20.2279L45.337 2.58103L45.912 1.00642C45.9128 1.00453 45.9141 1.00291 45.9158 1.00178C45.9175 1.00063 45.9196 1.00002 45.9216 1H55.3923Z" fill="url(#paint1_linear)"/>
<path d="M21.1821 18.1333C24.6601 18.2109 27.4558 20.993 27.4558 24.4708C27.4551 25.3569 27.2694 26.2333 26.9104 27.0441C26.5514 27.8549 26.027 28.5826 25.3705 29.1808C23.5737 30.8325 22.4744 30.4563 20.2694 30.8114H11.3105L11.7422 29.6318L13.1226 25.8628L15.9514 18.132L21.1821 18.1333Z" fill="url(#paint2_linear)"/>
<path d="M11.08 15.4019L11.0736 15.4193L11.0676 15.4354L3.85674 34.9772H0V1.00745C0.0879988 1.09324 11.7554 6.91407 13.614 5.39039C13.614 5.39039 18.9018 1.77915 22.3462 6.48096C22.3484 6.4839 22.3512 6.48628 22.3545 6.48798C22.3578 6.48963 22.3614 6.49055 22.365 6.4906C22.5668 6.4906 25.2962 6.52179 24.4019 9.21359C24.3982 9.22506 24.1103 10.1684 24.0978 10.1684C23.8357 10.1083 20.6949 9.63156 17.8739 10.066C12.9713 10.8208 11.2431 14.9816 11.08 15.4019ZM20.9018 6.18412C20.9327 6.0896 20.6253 5.90471 20.2107 5.77119C19.796 5.63768 19.439 5.60694 19.4081 5.70146C19.3772 5.79597 19.6845 5.98087 20.0992 6.11438C20.5139 6.24789 20.8709 6.27863 20.9018 6.18412Z" fill="url(#paint3_linear)"/>
<defs>
<linearGradient id="paint0_linear" x1="303" y1="33.7861" x2="295.629" y2="-25.0923" gradientUnits="userSpaceOnUse">
<stop stop-color="#EFB54C"/>
<stop offset="0.796875" stop-color="#F5D474"/>
<stop offset="1" stop-color="#F4CB6A"/>
</linearGradient>
<linearGradient id="paint1_linear" x1="55.4036" y1="32.9091" x2="28.2843" y2="-3.20522" gradientUnits="userSpaceOnUse">
<stop stop-color="#EFB54C"/>
<stop offset="0.796875" stop-color="#F5D474"/>
<stop offset="1" stop-color="#F4CB6A"/>
</linearGradient>
<linearGradient id="paint2_linear" x1="27.4558" y1="30.0317" x2="18.0798" y2="14.7049" gradientUnits="userSpaceOnUse">
<stop stop-color="#EFB54C"/>
<stop offset="0.796875" stop-color="#F5D474"/>
<stop offset="1" stop-color="#F4CB6A"/>
</linearGradient>
<linearGradient id="paint3_linear" x1="24.5813" y1="32.8881" x2="-3.55657" y2="6.74876" gradientUnits="userSpaceOnUse">
<stop stop-color="#EFB54C"/>
<stop offset="0.796875" stop-color="#F5D474"/>
<stop offset="1" stop-color="#F4CB6A"/>
</linearGradient>
</defs>
</svg>
