<svg width="36" height="42" viewBox="0 0 36 42" fill="none" xmlns="http://www.w3.org/2000/svg">
<path d="M35.1875 5.8751C29.4947 5.88046 23.9286 4.19521 19.1949 1.03304L18.3816 0.490603C18.2686 0.415226 18.1358 0.375 18 0.375C17.8642 0.375 17.7314 0.415226 17.6184 0.490603L16.8051 1.03304C12.0714 4.19521 6.50526 5.88046 0.8125 5.8751C0.630164 5.8751 0.455295 5.94754 0.326364 6.07647C0.197433 6.2054 0.125 6.38027 0.125 6.5626V18.4179C0.127368 22.4502 1.20337 26.4093 3.24244 29.8881C5.28151 33.3669 8.2101 36.2401 11.7272 38.2124L17.6645 41.5371C17.7669 41.5948 17.8825 41.6251 18 41.6251C18.1175 41.6251 18.2331 41.5948 18.3355 41.5371L24.2728 38.2124C27.7899 36.2401 30.7185 33.3669 32.7576 29.8881C34.7966 26.4093 35.8726 22.4502 35.875 18.4179V6.5626C35.875 6.38027 35.8026 6.2054 35.6736 6.07647C35.5447 5.94754 35.3698 5.8751 35.1875 5.8751ZM34.5 18.4179C34.4978 22.2059 33.487 25.9251 31.5715 29.1932C29.6561 32.4613 26.905 35.1605 23.6011 37.0134L18 40.1497L12.3989 37.0134C9.09497 35.1605 6.34391 32.4613 4.42846 29.1932C2.513 25.9251 1.50223 22.2059 1.5 18.4179V7.24185C7.22884 7.11783 12.8032 5.36069 17.5676 2.17704L18 1.8876L18.4324 2.17567C23.1967 5.3598 28.771 7.11743 34.5 7.24185V18.4179Z" fill="#E44747"/>
<path d="M17.6336 3.77279C13.3681 6.45461 8.52397 8.0793 3.50407 8.51173C3.33204 8.5264 3.17183 8.60526 3.05529 8.73264C2.93874 8.86001 2.87438 9.02658 2.875 9.19922V18.4179C2.8773 21.9613 3.82295 25.4401 5.6148 28.497C7.40664 31.5539 9.98006 34.0786 13.0706 35.8117L17.6645 38.3843C17.7669 38.442 17.8825 38.4723 18 38.4723C18.1175 38.4723 18.2331 38.442 18.3355 38.3843L22.9294 35.8117C26.02 34.0786 28.5934 31.5539 30.3852 28.497C32.1771 25.4401 33.1227 21.9613 33.125 18.4179V9.19648C33.1256 9.02383 33.0613 8.85726 32.9447 8.72989C32.8282 8.60251 32.668 8.52365 32.4959 8.50898C27.4762 8.07759 22.6321 6.45384 18.3664 3.77279C18.2567 3.70367 18.1297 3.66699 18 3.66699C17.8703 3.66699 17.7433 3.70367 17.6336 3.77279ZM31.75 18.4179C31.7477 21.7169 30.8672 24.9558 29.199 27.8019C27.5308 30.6481 25.135 32.9988 22.2577 34.6127L18 36.9983L13.7423 34.6127C10.865 32.9988 8.46921 30.6481 6.801 27.8019C5.13279 24.9558 4.2523 21.7169 4.25 18.4179V9.82416C9.12211 9.30893 13.8187 7.71701 18 5.1636C22.1814 7.71647 26.878 9.3077 31.75 9.8221V18.4179Z" fill="#E44747"/>
<path d="M18.6875 7.25H17.3125V8.625H18.6875V7.25Z" fill="#E44747"/>
<path d="M18.6875 33.375H17.3125V34.75H18.6875V33.375Z" fill="#E44747"/>
<path d="M7 10.6875H5.625V12.0625H7V10.6875Z" fill="#E44747"/>
<path d="M30.375 10.6875H29V12.0625H30.375V10.6875Z" fill="#E44747"/>
<path d="M7 18.9375H5.625V20.3125H7V18.9375Z" fill="#E44747"/>
<path d="M30.375 18.9375H29V20.3125H30.375V18.9375Z" fill="#E44747"/>
<path d="M9.75 27.1875H8.375V28.5625H9.75V27.1875Z" fill="#E44747"/>
<path d="M27.625 27.1875H26.25V28.5625H27.625V27.1875Z" fill="#E44747"/>
</svg>
