<svg width="44" height="44" viewBox="0 0 44 44" fill="none" xmlns="http://www.w3.org/2000/svg">
<path d="M37.7641 13.2515H3.70239C1.66084 13.2515 0 14.9123 0 16.9539V36.2062C0 38.2476 1.66084 39.9085 3.70239 39.9085H37.7641C39.8055 39.9085 41.4665 38.2477 41.4665 36.2062V16.9539C41.4665 14.9123 39.8055 13.2515 37.7641 13.2515ZM39.9855 36.2068C39.9855 37.4315 38.9888 38.4283 37.7641 38.4283H3.70239C2.47768 38.4283 1.48097 37.4315 1.48097 36.2068V16.9545C1.48097 15.7298 2.47768 14.7331 3.70239 14.7331H37.7641C38.9888 14.7331 39.9855 15.7298 39.9855 16.9545V36.2068Z" fill="#E44747"/>
<path d="M11.8473 16.9536H4.44259C4.03387 16.9536 3.70215 17.2853 3.70215 17.6941V23.6179C3.70215 24.0274 4.03387 24.3583 4.44259 24.3583H11.8473C12.256 24.3583 12.5877 24.0273 12.5877 23.6179V17.6941C12.5878 17.2853 12.2561 16.9536 11.8473 16.9536ZM11.1068 22.8773H5.18304V18.4345H11.1068V22.8773Z" fill="#E44747"/>
<path d="M6.66379 19.9165H4.44238V21.3975H6.66379V19.9165Z" fill="#E44747"/>
<path d="M11.8474 19.9165H9.62598V21.3975H11.8474V19.9165Z" fill="#E44747"/>
<path d="M33.3208 27.3203C30.8706 27.3203 28.8779 29.313 28.8779 31.7631C28.8779 34.2133 30.8706 36.206 33.3208 36.206C35.7709 36.206 37.7636 34.2133 37.7636 31.7631C37.7636 29.313 35.771 27.3203 33.3208 27.3203ZM33.3208 34.7251C31.6872 34.7251 30.3589 33.3967 30.3589 31.7632C30.3589 30.1297 31.6873 28.8014 33.3208 28.8014C34.9542 28.8014 36.2826 30.1298 36.2826 31.7632C36.2827 33.3967 34.9543 34.7251 33.3208 34.7251Z" fill="#E44747"/>
<path d="M28.8784 27.3203C26.4282 27.3203 24.4355 29.313 24.4355 31.7631C24.4355 34.2133 26.4282 36.206 28.8784 36.206C31.3286 36.206 33.3212 34.2133 33.3212 31.7631C33.3212 29.313 31.3286 27.3203 28.8784 27.3203ZM28.8784 34.7251C27.2449 34.7251 25.9165 33.3967 25.9165 31.7632C25.9165 30.1297 27.245 28.8014 28.8784 28.8014C30.5119 28.8014 31.8402 30.1298 31.8402 31.7632C31.8403 33.3967 30.5119 34.7251 28.8784 34.7251Z" fill="#E44747"/>
<path d="M8.14498 28.8013H3.70215V30.2822H8.14498V28.8013Z" fill="#E44747"/>
<path d="M15.5503 28.8013H11.1074V30.2822H15.5503V28.8013Z" fill="#E44747"/>
<path d="M22.9545 28.8013H18.5117V30.2822H22.9545V28.8013Z" fill="#E44747"/>
<path d="M22.9544 33.2441H3.70215V34.7251H22.9544V33.2441Z" fill="#E44747"/>
<path d="M40.8797 9.53731L7.24672 4.13919C5.2319 3.81417 3.32966 5.19588 3.00756 7.21071L1.81543 14.6154L3.27784 14.8509L4.46997 7.4454C4.66325 6.23548 5.80648 5.40764 7.0128 5.60091L40.6458 10.9997C41.8543 11.1915 42.6814 12.3304 42.4919 13.5381C42.4911 13.5425 42.4904 13.5477 42.4896 13.5522L39.9934 29.4271L41.4573 29.6574L43.9513 13.7883C43.952 13.7839 43.9527 13.7795 43.9535 13.775C44.274 11.7587 42.8953 9.85786 40.8797 9.53731Z" fill="#E44747"/>
<path d="M28.1382 17.6948H26.6572V20.6567H28.1382V17.6948Z" fill="#E44747"/>
<path d="M31.1001 17.6948H29.6191V20.6567H31.1001V17.6948Z" fill="#E44747"/>
<path d="M34.062 17.6948H32.5811V20.6567H34.062V17.6948Z" fill="#E44747"/>
<path d="M37.0239 17.6948H35.543V20.6567H37.0239V17.6948Z" fill="#E44747"/>
<path d="M40.8499 15.1075L40.6016 16.5674L42.8228 16.9452L43.0711 15.4854L40.8499 15.1075Z" fill="#E44747"/>
<path d="M3.82839 8.82022L3.57812 10.2798L29.494 14.7236L29.7443 13.264L3.82839 8.82022Z" fill="#E44747"/>
</svg>
