<svg width="44" height="44" viewBox="0 0 44 44" fill="none" xmlns="http://www.w3.org/2000/svg">
<path d="M10.2662 28.9668C7.83959 28.9668 5.86621 30.9402 5.86621 33.3668C5.86621 35.7934 7.83959 37.7668 10.2662 37.7668C12.6928 37.7668 14.6662 35.7934 14.6662 33.3668C14.6662 30.9402 12.6927 28.9668 10.2662 28.9668ZM10.2662 36.3001C8.64844 36.3001 7.33291 34.9845 7.33291 33.3668C7.33291 31.749 8.64852 30.4335 10.2662 30.4335C11.8839 30.4335 13.1995 31.7491 13.1995 33.3668C13.1995 34.9845 11.8839 36.3001 10.2662 36.3001Z" fill="#E44747"/>
<path d="M35.1998 28.9668C32.7732 28.9668 30.7998 30.9402 30.7998 33.3668C30.7998 35.7934 32.7732 37.7668 35.1998 37.7668C37.6264 37.7668 39.5998 35.7934 39.5998 33.3668C39.5998 30.9402 37.6264 28.9668 35.1998 28.9668ZM35.1998 36.3001C33.582 36.3001 32.2665 34.9845 32.2665 33.3668C32.2665 31.749 33.5821 30.4335 35.1998 30.4335C36.8176 30.4335 38.1331 31.7491 38.1331 33.3668C38.1331 34.9845 36.8176 36.3001 35.1998 36.3001Z" fill="#E44747"/>
<path d="M43.8829 24.9031L37.2829 14.6364C37.148 14.4266 36.9155 14.2998 36.6661 14.2998H28.5995C28.194 14.2998 27.8662 14.6283 27.8662 15.0331V33.3664C27.8662 33.772 28.194 34.0997 28.5995 34.0997H31.5328V32.633H29.3328V15.7665H36.2657L42.5328 25.5154V32.6332H38.8661V34.0998H43.2661C43.6717 34.0998 43.9994 33.772 43.9994 33.3665V25.2998C43.9995 25.1597 43.9592 25.0211 43.8829 24.9031Z" fill="#E44747"/>
<path d="M32.2664 23.8334V18.7001H38.1331V17.2334H31.5331C31.1276 17.2334 30.7998 17.5619 30.7998 17.9667V24.5667C30.7998 24.9723 31.1276 25.3 31.5331 25.3H42.5331V23.8333H32.2664V23.8334Z" fill="#E44747"/>
<path d="M28.6 9.1665H0.733305C0.328539 9.1665 0 9.49504 0 9.89981V33.3665C0 33.772 0.328539 34.0998 0.733305 34.0998H6.6V32.6331H1.4667V10.6331H27.8667V32.6331H13.9333V34.0998H28.6C29.0055 34.0998 29.3333 33.772 29.3333 33.3665V9.89981C29.3333 9.49504 29.0055 9.1665 28.6 9.1665Z" fill="#E44747"/>
<path d="M5.1334 29.7002H0.733398V31.1669H5.1334V29.7002Z" fill="#E44747"/>
<path d="M27.8671 29.7002H15.4004V31.1669H27.8671V29.7002Z" fill="#E44747"/>
<path d="M43.2663 29.7002H40.333V31.1669H43.2663V29.7002Z" fill="#E44747"/>
<path d="M28.6003 12.1001H2.93359V13.5668H28.6003V12.1001Z" fill="#E44747"/>
<path d="M10.9999 32.6333H9.5332V34.1H10.9999V32.6333Z" fill="#E44747"/>
<path d="M35.9335 32.6333H34.4668V34.1H35.9335V32.6333Z" fill="#E44747"/>
<path d="M13.2003 6.2334H2.93359V7.70009H13.2003V6.2334Z" fill="#E44747"/>
<path d="M1.4667 6.2334H0V7.70009H1.4667V6.2334Z" fill="#E44747"/>
</svg>
