<svg width="44" height="44" viewBox="0 0 44 44" fill="none" xmlns="http://www.w3.org/2000/svg">
<g clip-path="url(#clip0)">
<path d="M11.7654 20.5029C10.146 20.5029 8.83301 21.8159 8.83301 23.4354C8.83301 25.055 10.146 26.3678 11.7654 26.3678C13.3847 26.3678 14.6978 25.055 14.6978 23.4354C14.6978 21.8159 13.3847 20.5029 11.7654 20.5029ZM11.7654 24.9015C10.9557 24.9015 10.2993 24.2449 10.2993 23.4354C10.2993 22.6254 10.9557 21.969 11.7654 21.969C12.575 21.969 13.2314 22.6254 13.2314 23.4354C13.2314 24.2449 12.575 24.9015 11.7654 24.9015Z" fill="#E44747"/>
<path d="M30.6373 11.8081C32.4154 8.41493 31.5611 4.23931 28.5935 1.81677C25.6258 -0.605589 21.3635 -0.605589 18.3957 1.81677C15.428 4.23931 14.5741 8.41493 16.3518 11.8081C15.7389 11.8642 15.13 11.9581 14.5281 12.0891C13.3436 10.0653 11.1776 8.8186 8.83258 8.81105C8.42762 8.81105 8.09943 9.13888 8.09943 9.54402V15.2671C5.62222 17.388 3.92565 20.2764 3.2792 23.4731H0.768305C0.363536 23.4731 0.0351562 23.8011 0.0351562 24.2063V30.0711C0.0351562 30.4761 0.363536 30.8041 0.768305 30.8041H3.65544C4.76077 34.3005 7.12957 37.2592 10.2989 39.1036V43.2671C10.2989 43.6718 10.6273 44 11.0318 44H17.6298C18.0348 44 18.3631 43.6718 18.3631 43.2671V41.0676H28.6265V43.2671C28.6265 43.6718 28.9547 44 29.3593 44H35.9574C36.3624 44 36.6906 43.6718 36.6906 43.2671V39.1036C40.8064 36.7249 43.5122 32.497 43.9481 27.7629C43.9952 27.5582 44.0199 27.3487 44.0217 27.1385V26.4057C44.0107 18.809 38.2044 12.4762 30.6373 11.8081ZM23.4946 1.47992C27.1387 1.47992 30.0926 4.43406 30.0926 8.07808C30.0926 11.7216 27.1387 14.6761 23.4946 14.6761C19.8508 14.6761 16.8968 11.7216 16.8968 8.07808C16.9007 4.43553 19.8523 1.48397 23.4946 1.47992ZM42.5055 27.4993C42.3163 28.2068 41.6338 28.6665 40.9069 28.5757C40.1802 28.4846 39.632 27.8711 39.6228 27.1385V26.4057H38.1569V27.1385C38.1569 28.758 39.4697 30.0711 41.0891 30.0711C41.4304 30.068 41.7685 30.0045 42.0875 29.8837C41.1349 33.3713 38.793 36.3151 35.6092 38.0279C35.3721 38.1558 35.2243 38.4038 35.2243 38.6734V42.5339H30.0926V40.3345C30.0926 39.9293 29.7642 39.6017 29.3593 39.6017H17.6298C17.2249 39.6017 16.8968 39.9293 16.8968 40.3345V42.5339H11.765V38.6734C11.765 38.4038 11.617 38.1558 11.3803 38.0279C8.20324 36.3065 5.86666 33.363 4.91171 29.878C4.82483 29.5594 4.53547 29.3376 4.20452 29.3381H1.50164V24.9392H3.89105C4.25164 24.9391 4.55867 24.6771 4.61518 24.3211C5.12026 21.1235 6.7872 18.224 9.2957 16.1779C9.46651 16.0385 9.56554 15.83 9.56554 15.6097V10.3315C11.2759 10.5855 12.7453 11.679 13.4796 13.2449C13.6287 13.5647 13.9849 13.7331 14.3272 13.6449C15.2956 13.3929 16.2892 13.251 17.2897 13.2219C17.7519 13.7747 18.2851 14.2636 18.8763 14.6761H16.1635V16.1422H30.8256V14.6761H28.117C28.7044 14.2645 29.2352 13.7769 29.695 13.2265C36.8434 13.4124 42.5444 19.2552 42.5552 26.4057C42.5552 26.772 42.5348 27.1385 42.5055 27.4993Z" fill="#E44747"/>
<path d="M23.4944 5.14568V3.6792C21.0662 3.68159 19.0985 5.64966 19.0957 8.07809H20.5622C20.5622 6.45828 21.8752 5.14568 23.4944 5.14568Z" fill="#E44747"/>
<path d="M23.4951 12.4766C25.9235 12.4739 27.8912 10.506 27.8938 8.07812H26.4275C26.4275 9.69756 25.1144 11.0102 23.4951 11.0102V12.4766Z" fill="#E44747"/>
<path d="M35.9682 6.73178C36.0275 7.08464 36.3331 7.34252 36.6909 7.34252C37.0484 7.34252 37.3539 7.08464 37.4136 6.73178C37.6133 5.53753 38.5489 4.60154 39.7435 4.40219C40.0962 4.34237 40.3544 4.03681 40.3544 3.67916C40.3544 3.32133 40.0962 3.01615 39.7435 2.95614C38.5489 2.75679 37.6133 1.8208 37.4136 0.626921C37.3539 0.273875 37.0484 0.015625 36.6909 0.015625C36.3331 0.015625 36.0275 0.273875 35.9682 0.626921C35.7681 1.8208 34.8325 2.75679 33.6383 2.95614C33.2856 3.01615 33.0273 3.32133 33.0273 3.67916C33.0273 4.03681 33.2856 4.34237 33.6383 4.40219C34.8325 4.60154 35.7681 5.53753 35.9682 6.73178ZM36.6909 2.63199C36.9766 3.03879 37.3307 3.39312 37.7377 3.67916C37.3307 3.96502 36.9766 4.31936 36.6909 4.72615C36.4048 4.31936 36.0507 3.96502 35.6439 3.67916C36.0507 3.39312 36.4048 3.03879 36.6909 2.63199Z" fill="#E44747"/>
</g>
<defs>
<clipPath id="clip0">
<rect width="44" height="44" fill="white"/>
</clipPath>
</defs>
</svg>
