<svg width="28" height="28" viewBox="0 0 28 28" fill="none" xmlns="http://www.w3.org/2000/svg">
<path d="M27.9524 14.2321L27.9286 14.244L23.9116 4.24617H25.7445C26.0732 4.24617 26.3396 3.97971 26.3396 3.65106C26.3396 3.32241 26.0732 3.05595 25.7445 3.05595H14.5445V1.33608C14.5445 1.00743 14.2781 0.740967 13.9494 0.740967C13.6208 0.740967 13.3543 1.00743 13.3543 1.33608V3.05H2.16026C1.8316 3.05 1.56514 3.31646 1.56514 3.64511C1.56514 3.97376 1.8316 4.24022 2.16026 4.24022H4.07056L0.0476089 14.2321C0.0178533 14.3018 0.00171095 14.3766 0 14.4523C0 17.1852 2.21545 19.4007 4.94835 19.4007C7.68125 19.4007 9.89671 17.1852 9.89671 14.4523C9.89499 14.3766 9.87885 14.3018 9.8491 14.2321L5.83209 4.23427H13.3543V22.6351C10.5156 22.8494 8.29586 24.5752 8.29586 26.664C8.29586 26.9927 8.56232 27.2591 8.89097 27.2591H19.0079C19.3365 27.2591 19.603 26.9927 19.603 26.664C19.603 24.5752 17.3832 22.8494 14.5445 22.6351V4.23427H22.1441L18.1509 14.2321C18.1211 14.3018 18.105 14.3766 18.1033 14.4523C18.1033 17.1852 20.3187 19.4007 23.0516 19.4007C25.7845 19.4007 28 17.1852 28 14.4523C27.9983 14.3766 27.9821 14.3018 27.9524 14.2321ZM4.94538 18.2194C3.10217 18.2169 1.53241 16.8789 1.23783 15.0594H8.62912C8.33603 16.8701 6.77959 18.2053 4.94538 18.2194ZM8.41488 13.8691H1.48778L4.95728 5.23406L8.41488 13.8691ZM18.3056 26.0689H9.58725C10.0276 24.7894 11.8427 23.8015 13.9435 23.8015C16.0442 23.8015 17.8653 24.7894 18.3056 26.0689ZM23.0249 5.24001L26.4825 13.8691H19.5554L23.0249 5.24001ZM23.0249 18.2194V18.2253C21.1887 18.2107 19.6316 16.8724 19.3411 15.0594H26.7324C26.4378 16.8789 24.8681 18.2169 23.0249 18.2194Z" fill="#B2B2B2"/>
</svg>
