<svg width="23" height="22" viewBox="0 0 23 22" fill="none" xmlns="http://www.w3.org/2000/svg">
<path d="M21.8248 3.60505C21.7091 3.4619 21.5341 3.37857 21.3489 3.37857H5.1306L4.67707 1.43208C4.61324 1.15823 4.36704 0.964233 4.0833 0.964233H1.44268C1.10616 0.964233 0.833313 1.23449 0.833313 1.56784C0.833313 1.90119 1.10616 2.1714 1.44268 2.1714H3.59854L6.67701 15.3845C6.7408 15.6584 6.98704 15.8524 7.27078 15.8524H19.4802C19.8167 15.8524 20.0895 15.5821 20.0895 15.2488C20.0895 14.9155 19.8167 14.6452 19.4802 14.6452H7.75558L7.28687 12.6333H19.5208C19.8059 12.6333 20.0528 12.4377 20.1153 12.1623L21.9434 4.11462C21.9841 3.93571 21.9404 3.74825 21.8248 3.60505ZM19.0333 11.4262H7.0056L5.41186 4.58569H20.5872L19.0333 11.4262Z" fill="#434343"/>
<path d="M9.7708 16.6571C8.53879 16.6571 7.53642 17.6498 7.53642 18.8702C7.53642 20.0905 8.53875 21.0833 9.7708 21.0833C11.0028 21.0833 12.0052 20.0905 12.0052 18.8702C12.0052 17.6498 11.0029 16.6571 9.7708 16.6571ZM9.7708 19.8762C9.21078 19.8762 8.75519 19.4249 8.75519 18.8702C8.75519 18.3155 9.21078 17.8642 9.7708 17.8642C10.3308 17.8642 10.7864 18.3155 10.7864 18.8702C10.7864 19.4249 10.3308 19.8762 9.7708 19.8762Z" fill="#434343"/>
<path d="M17.0833 16.6571C15.8513 16.6571 14.8489 17.6498 14.8489 18.8702C14.8489 20.0905 15.8512 21.0833 17.0833 21.0833C18.3153 21.0833 19.3176 20.0905 19.3176 18.8702C19.3176 17.6498 18.3153 16.6571 17.0833 16.6571ZM17.0833 19.8762C16.5232 19.8762 16.0677 19.4249 16.0677 18.8702C16.0677 18.3155 16.5232 17.8643 17.0833 17.8643C17.6433 17.8643 18.0989 18.3155 18.0989 18.8702C18.0989 19.4249 17.6433 19.8762 17.0833 19.8762Z" fill="#434343"/>
<path d="M21.8248 3.60505C21.7091 3.4619 21.5341 3.37857 21.3489 3.37857H5.1306L4.67707 1.43208C4.61324 1.15823 4.36704 0.964233 4.0833 0.964233H1.44268C1.10616 0.964233 0.833313 1.23449 0.833313 1.56784C0.833313 1.90119 1.10616 2.1714 1.44268 2.1714H3.59854L6.67701 15.3845C6.7408 15.6584 6.98704 15.8524 7.27078 15.8524H19.4802C19.8167 15.8524 20.0895 15.5821 20.0895 15.2488C20.0895 14.9155 19.8167 14.6452 19.4802 14.6452H7.75558L7.28687 12.6333H19.5208C19.8059 12.6333 20.0528 12.4377 20.1153 12.1623L21.9434 4.11462C21.9841 3.93571 21.9404 3.74825 21.8248 3.60505ZM19.0333 11.4262H7.0056L5.41186 4.58569H20.5872L19.0333 11.4262Z" stroke="#434343" stroke-width="0.5"/>
<path d="M9.7708 16.6571C8.53879 16.6571 7.53642 17.6498 7.53642 18.8702C7.53642 20.0905 8.53875 21.0833 9.7708 21.0833C11.0028 21.0833 12.0052 20.0905 12.0052 18.8702C12.0052 17.6498 11.0029 16.6571 9.7708 16.6571ZM9.7708 19.8762C9.21078 19.8762 8.75519 19.4249 8.75519 18.8702C8.75519 18.3155 9.21078 17.8642 9.7708 17.8642C10.3308 17.8642 10.7864 18.3155 10.7864 18.8702C10.7864 19.4249 10.3308 19.8762 9.7708 19.8762Z" stroke="#434343" stroke-width="0.5"/>
<path d="M17.0833 16.6571C15.8513 16.6571 14.8489 17.6498 14.8489 18.8702C14.8489 20.0905 15.8512 21.0833 17.0833 21.0833C18.3153 21.0833 19.3176 20.0905 19.3176 18.8702C19.3176 17.6498 18.3153 16.6571 17.0833 16.6571ZM17.0833 19.8762C16.5232 19.8762 16.0677 19.4249 16.0677 18.8702C16.0677 18.3155 16.5232 17.8643 17.0833 17.8643C17.6433 17.8643 18.0989 18.3155 18.0989 18.8702C18.0989 19.4249 17.6433 19.8762 17.0833 19.8762Z" stroke="#434343" stroke-width="0.5"/>
</svg>
