<svg width="28" height="28" viewBox="0 0 28 28" fill="none" xmlns="http://www.w3.org/2000/svg">
<path d="M17.604 11.0575C17.6119 11.0505 17.62 11.0438 17.6274 11.0362C17.7301 10.9329 17.7873 10.7929 17.7863 10.6472L17.76 6.61741C17.758 6.31679 17.5138 6.07409 17.2131 6.07409H14.56V0.546875C14.56 0.244891 14.3151 0 14.0131 0C13.7111 0 13.4662 0.244891 13.4662 0.546875V6.07409H10.7868C10.6412 6.07409 10.5015 6.13222 10.3989 6.23552C10.2962 6.33888 10.2389 6.47883 10.2399 6.62452L10.2662 10.6543C10.2672 10.805 10.3291 10.9411 10.4284 11.0394C8.24149 12.2735 6.76361 14.6037 6.76361 17.2696C6.76361 21.2238 10.0098 24.4408 13.9999 24.4408C17.99 24.4408 21.2362 21.2238 21.2362 17.2696C21.2363 14.6169 19.7731 12.2963 17.604 11.0575ZM11.3564 10.1039L11.3372 7.16784H16.6698L16.689 10.1039H11.3564ZM14 23.3471C10.6129 23.3471 7.85742 20.6207 7.85742 17.2696C7.85742 13.9215 10.613 11.1976 14 11.1976C17.387 11.1976 20.1425 13.9215 20.1425 17.2696C20.1425 20.6207 17.387 23.3471 14 23.3471Z" fill="#434343"/>
<path d="M14 25.8417C13.698 25.8417 13.4531 26.0866 13.4531 26.3886V27.4531C13.4531 27.7551 13.698 28 14 28C14.302 28 14.5469 27.7551 14.5469 27.4531V26.3886C14.5469 26.0866 14.302 25.8417 14 25.8417Z" fill="#434343"/>
<path d="M4.33073 16.2666H3.25574C2.95375 16.2666 2.70886 16.5115 2.70886 16.8134C2.70886 17.1154 2.95375 17.3603 3.25574 17.3603H4.33073C4.63271 17.3603 4.87761 17.1154 4.87761 16.8134C4.87761 16.5115 4.63277 16.2666 4.33073 16.2666Z" fill="#434343"/>
<path d="M24.7443 16.2666H23.6693C23.3673 16.2666 23.1224 16.5115 23.1224 16.8134C23.1224 17.1154 23.3673 17.3603 23.6693 17.3603H24.7443C25.0463 17.3603 25.2912 17.1154 25.2912 16.8134C25.2912 16.5115 25.0463 16.2666 24.7443 16.2666Z" fill="#434343"/>
<path d="M6.77808 23.1955L6.01798 23.9483C5.80333 24.1608 5.80169 24.5071 6.0142 24.7216C6.12117 24.8297 6.26194 24.8837 6.40276 24.8837C6.54183 24.8837 6.68095 24.831 6.78754 24.7254L7.54764 23.9726C7.76229 23.7601 7.76393 23.4139 7.55141 23.1993C7.3389 22.9846 6.99267 22.983 6.77808 23.1955Z" fill="#434343"/>
<path d="M21.222 23.1955C21.0074 22.983 20.6611 22.9847 20.4486 23.1993C20.2361 23.4138 20.2377 23.7601 20.4523 23.9727L21.2124 24.7254C21.319 24.831 21.4582 24.8838 21.5972 24.8838C21.738 24.8838 21.8789 24.8297 21.9858 24.7217C22.1983 24.5071 22.1966 24.1608 21.982 23.9483L21.222 23.1955Z" fill="#434343"/>
</svg>
