<svg width="33" height="33" viewBox="0 0 33 33" fill="none" xmlns="http://www.w3.org/2000/svg">
<g clip-path="url(#clip0)">
<path d="M24.0625 17.875C21.4088 17.875 19.25 15.7163 19.25 13.0625V5.5C19.25 3.98338 20.4834 2.75 22 2.75C23.5166 2.75 24.75 3.98338 24.75 5.5V13.0625C24.75 13.442 24.442 13.75 24.0625 13.75C23.683 13.75 23.375 13.442 23.375 13.0625V5.5C23.375 4.741 22.759 4.125 22 4.125C21.241 4.125 20.625 4.741 20.625 5.5V13.0625C20.625 14.9586 22.1664 16.5 24.0625 16.5C25.9586 16.5 27.5 14.9586 27.5 13.0625V3.4375C27.5 3.058 27.808 2.75 28.1875 2.75C28.567 2.75 28.875 3.058 28.875 3.4375V13.0625C28.875 15.7163 26.7163 17.875 24.0625 17.875Z" fill="#F33131"/>
<path d="M29.5625 31.625H3.4375C1.54138 31.625 0 30.0836 0 28.1875V10.3125C0 8.41638 1.54138 6.875 3.4375 6.875H10.4363C10.9766 6.875 11.5033 7.09362 11.8855 7.47587L13.838 9.42837C13.959 9.54937 14.1419 9.625 14.3137 9.625H15.8125C16.192 9.625 16.5 9.933 16.5 10.3125C16.5 10.692 16.192 11 15.8125 11H14.3137C13.7734 11 13.2467 10.7814 12.8645 10.3991L10.912 8.44663C10.791 8.32563 10.6081 8.25 10.4363 8.25H3.4375C2.30037 8.25 1.375 9.17537 1.375 10.3125V28.1875C1.375 29.3246 2.30037 30.25 3.4375 30.25H29.5625C30.6996 30.25 31.625 29.3246 31.625 28.1875V13.0625C31.625 12.683 31.933 12.375 32.3125 12.375C32.692 12.375 33 12.683 33 13.0625V28.1875C33 30.0836 31.4586 31.625 29.5625 31.625Z" fill="#F33131"/>
</g>
<defs>
<clipPath id="clip0">
<rect width="33" height="33" fill="white"/>
</clipPath>
</defs>
</svg>
