<svg width="1605" height="343" viewBox="0 0 1605 343" fill="none" xmlns="http://www.w3.org/2000/svg">
<mask id="mask0" mask-type="alpha" maskUnits="userSpaceOnUse" x="0" y="0" width="1605" height="343">
<rect width="1605" height="343" fill="#ECEDEF"/>
</mask>
<g mask="url(#mask0)">
<rect width="1605" height="343" fill="#F3F3F3"/>
<path d="M1618.24 119.421H1699.26C1721.79 67.3533 1721.07 39 1643.17 39C1560.34 39.1662 1549.68 67.5365 1527.86 103.856C1507.65 144.159 1518.17 161.942 1555.91 189.465C1575.79 203.487 1580.6 212.965 1574.61 233.567C1562.14 267.292 1546.56 264.697 1555.91 230.973L1564.31 208.987H1486.4C1471.27 253.491 1460.02 276.773 1490.47 293.234C1542.35 316.672 1612.17 298.242 1633.82 275.074C1677.45 228.378 1680.56 179.088 1643.17 150.552L1615.12 129.798C1599.91 117.593 1605.45 110.797 1612 98.6671C1630.62 71.9022 1630.23 80.2076 1618.24 119.421Z" fill="white"/>
<path d="M1396.98 44.1884H1532.4L1512.28 93.4787H1462.42L1440.61 142.769H1487.35L1468.65 189.465H1425.03L1400.1 246.538H1456.19L1434.37 295.828H1294.14L1396.98 44.1884Z" fill="white"/>
<path d="M1185.07 44.1884H1256.75V127.204L1291.02 44.1884H1365.82L1262.98 295.828H1188.19L1191.3 212.813L1157.02 295.828H1082.23L1185.07 44.1884Z" fill="white"/>
<path d="M1618.24 119.421H1699.26C1721.79 67.3533 1721.07 39 1643.17 39C1560.34 39.1662 1549.68 67.5365 1527.86 103.856C1507.65 144.159 1518.17 161.942 1555.91 189.465C1575.79 203.487 1580.6 212.965 1574.61 233.567C1562.14 267.292 1546.56 264.697 1555.91 230.973L1564.31 208.987H1486.4C1471.27 253.491 1460.02 276.773 1490.47 293.234C1542.35 316.672 1612.17 298.242 1633.82 275.074C1677.45 228.378 1680.56 179.088 1643.17 150.552L1615.12 129.798C1599.91 117.593 1605.45 110.797 1612 98.6671C1630.62 71.9022 1630.23 80.2076 1618.24 119.421Z" stroke="#EEEDED"/>
<path d="M1396.98 44.1884H1532.4L1512.28 93.4787H1462.42L1440.61 142.769H1487.35L1468.65 189.465H1425.03L1400.1 246.538H1456.19L1434.37 295.828H1294.14L1396.98 44.1884Z" stroke="#EEEDED"/>
<path d="M1185.07 44.1884H1256.75V127.204L1291.02 44.1884H1365.82L1262.98 295.828H1188.19L1191.3 212.813L1157.02 295.828H1082.23L1185.07 44.1884Z" stroke="#EEEDED"/>
<path d="M999.276 119.421H1080.3C1102.83 67.3533 1102.11 39 1024.21 39C941.375 39.1662 930.717 67.5365 908.903 103.856C888.691 144.159 899.209 161.942 936.95 189.465C956.832 203.487 961.643 212.965 955.647 233.567C943.182 267.292 927.601 264.697 936.95 230.973L945.348 208.987H867.441C852.311 253.491 841.064 276.773 871.507 293.234C923.385 316.672 993.211 298.242 1014.86 275.074C1058.49 228.378 1061.6 179.088 1024.21 150.552L996.159 129.798C980.948 117.593 986.488 110.797 993.043 98.6671C1011.66 71.9022 1011.27 80.2076 999.276 119.421Z" fill="white"/>
<path d="M778.019 44.1884H913.443L893.322 93.4787H843.461L821.647 142.769H868.391L849.693 189.465H806.065L781.135 246.538H837.228L815.414 295.828H675.181L778.019 44.1884Z" fill="white"/>
<path d="M566.11 44.1884H637.785V127.204L672.065 44.1884H746.856L644.018 295.828H569.227L572.343 212.813L538.064 295.828H463.273L566.11 44.1884Z" fill="white"/>
<path d="M999.276 119.421H1080.3C1102.83 67.3533 1102.11 39 1024.21 39C941.375 39.1662 930.717 67.5365 908.903 103.856C888.691 144.159 899.209 161.942 936.95 189.465C956.832 203.487 961.643 212.965 955.647 233.567C943.182 267.292 927.601 264.697 936.95 230.973L945.348 208.987H867.441C852.311 253.491 841.064 276.773 871.507 293.234C923.385 316.672 993.211 298.242 1014.86 275.074C1058.49 228.378 1061.6 179.088 1024.21 150.552L996.159 129.798C980.948 117.593 986.488 110.797 993.043 98.6671C1011.66 71.9022 1011.27 80.2076 999.276 119.421Z" stroke="#EEEDED"/>
<path d="M778.019 44.1884H913.443L893.322 93.4787H843.461L821.647 142.769H868.391L849.693 189.465H806.065L781.135 246.538H837.228L815.414 295.828H675.181L778.019 44.1884Z" stroke="#EEEDED"/>
<path d="M566.11 44.1884H637.785V127.204L672.065 44.1884H746.856L644.018 295.828H569.227L572.343 212.813L538.064 295.828H463.273L566.11 44.1884Z" stroke="#EEEDED"/>
<path d="M420.178 119.421H501.202C523.737 67.3533 523.016 39 445.108 39C362.278 39.1662 351.62 67.5365 329.806 103.856C309.594 144.159 320.111 161.942 357.852 189.465C377.735 203.487 382.546 212.965 376.55 233.567C364.085 267.292 348.503 264.697 357.852 230.973L366.25 208.987H288.343C273.214 253.491 261.966 276.773 292.41 293.234C344.288 316.672 414.114 298.242 435.76 275.074C479.388 228.378 482.504 179.088 445.108 150.552L417.062 129.798C401.851 117.593 407.391 110.797 413.945 98.6671C432.559 71.9022 432.176 80.2076 420.178 119.421Z" fill="white"/>
<path d="M198.921 44.1884H334.346L314.224 93.4787H264.363L242.549 142.769H289.294L270.596 189.465H226.968L202.037 246.538H258.131L236.317 295.828H96.0833L198.921 44.1884Z" fill="white"/>
<path d="M-12.987 44.1884H58.6878V127.204L92.9671 44.1884H167.758L64.9204 295.828H-9.87071L-6.75442 212.813L-41.0337 295.828H-115.825L-12.987 44.1884Z" fill="white"/>
<path d="M420.178 119.421H501.202C523.737 67.3533 523.016 39 445.108 39C362.278 39.1662 351.62 67.5365 329.806 103.856C309.594 144.159 320.111 161.942 357.852 189.465C377.735 203.487 382.546 212.965 376.55 233.567C364.085 267.292 348.503 264.697 357.852 230.973L366.25 208.987H288.343C273.214 253.491 261.966 276.773 292.41 293.234C344.288 316.672 414.114 298.242 435.76 275.074C479.388 228.378 482.504 179.088 445.108 150.552L417.062 129.798C401.851 117.593 407.391 110.797 413.945 98.6671C432.559 71.9022 432.176 80.2076 420.178 119.421Z" stroke="#EEEDED"/>
<path d="M198.921 44.1884H334.346L314.224 93.4787H264.363L242.549 142.769H289.294L270.596 189.465H226.968L202.037 246.538H258.131L236.317 295.828H96.0833L198.921 44.1884Z" stroke="#EEEDED"/>
<path d="M-12.987 44.1884H58.6878V127.204L92.9671 44.1884H167.758L64.9204 295.828H-9.87071L-6.75442 212.813L-41.0337 295.828H-115.825L-12.987 44.1884Z" stroke="#EEEDED"/>
</g>
</svg>
