<svg width="70" height="70" viewBox="0 0 70 70" fill="none" xmlns="http://www.w3.org/2000/svg">
<path d="M59.9811 15.4482H28.2477C27.7318 15.4482 27.3144 15.8657 27.3144 16.3816V32.2482H27.0701C24.7587 32.2482 22.5822 33.1461 20.9404 34.7748L18.6006 37.0988C18.4354 36.9499 18.2214 36.8528 17.9811 36.8528H15.1811V35.0482C15.1811 34.5323 14.7636 34.1149 14.2477 34.1149H10.5144C9.99849 34.1149 9.58105 34.5323 9.58105 35.0482V55.5816C9.58105 56.0975 9.99849 56.5149 10.5144 56.5149H14.2477C14.7636 56.5149 15.1811 56.0975 15.1811 55.5816V53.6528H17.9811C18.475 53.6528 18.8684 53.2667 18.9018 52.7816H23.9038C25.0704 52.7816 26.2217 52.5723 27.3144 52.1959V61.1816C27.3144 61.6975 27.7318 62.1149 28.2477 62.1149H59.9811C60.497 62.1149 60.9144 61.6975 60.9144 61.1816V16.3816C60.9144 15.8657 60.497 15.4482 59.9811 15.4482ZM13.3144 54.6482H11.4477V35.9816H13.3144V37.7862V52.7195V54.6482ZM15.1811 38.7195H17.0477V39.0303V51.7862H15.1811V38.7195ZM18.9144 50.9149V39.4186L22.2567 36.0999C23.5454 34.8193 25.2545 34.1147 27.0701 34.1147H27.3144V42.5147V43.448C27.3144 43.8253 27.5414 44.1653 27.8896 44.3102C28.2396 44.4532 28.6397 44.3748 28.9067 44.1088L34.3244 38.7083C34.6763 38.3574 35.143 38.1651 35.6388 38.1651C36.1666 38.1996 36.606 38.3592 36.9576 38.7139C37.6749 39.434 37.6786 40.6088 36.9658 41.3326L34.6133 43.7205C34.6126 43.7212 34.6119 43.7217 34.6114 43.7224L32.2552 46.1141C32.2548 46.1145 32.2541 46.1152 32.2536 46.1159L30.068 48.3345C28.4519 49.9741 26.2051 50.9149 23.9038 50.9149H18.9144ZM35.7144 45.3149V47.1816H33.8477V47.1578L35.6635 45.3149H35.7144ZM59.0477 60.2482H29.1811V51.3442C29.9865 50.8778 30.7376 50.3143 31.3968 49.6453L32.2543 48.7752C32.4232 48.9442 32.6566 49.0485 32.9144 49.0485H36.6477C37.1636 49.0485 37.5811 48.631 37.5811 48.1151V44.3818C37.5811 44.1044 37.4548 43.8624 37.2633 43.6916L38.2958 42.6437C39.0919 41.835 39.4256 40.7469 39.3311 39.6916C39.3712 39.6967 39.4064 39.7151 39.448 39.7151H50.648C51.1639 39.7151 51.5813 39.2977 51.5813 38.7818C51.5813 38.2659 51.1639 37.8485 50.648 37.8485H39.448C39.2032 37.8485 38.9843 37.9474 38.818 38.1014C38.6675 37.852 38.4955 37.6123 38.2813 37.3974C37.5785 36.6911 36.6426 36.301 35.6463 36.2991C35.6435 36.2991 35.6409 36.2991 35.639 36.2991C34.6446 36.2991 33.7103 36.6855 33.0068 37.3874L29.1813 41.2001V33.182V17.3154H59.048V60.2482H59.0477Z" fill="#434343"/>
<path d="M39.4475 47.1821H50.6475C51.1634 47.1821 51.5808 46.7647 51.5808 46.2488C51.5808 45.7329 51.1634 45.3154 50.6475 45.3154H39.4475C38.9316 45.3154 38.5142 45.7329 38.5142 46.2488C38.5142 46.7647 38.9316 47.1821 39.4475 47.1821Z" fill="#434343"/>
<path d="M44.1148 53.7148H32.9148C32.3989 53.7148 31.9814 54.1323 31.9814 54.6482C31.9814 55.1641 32.3989 55.5815 32.9148 55.5815H44.1148C44.6307 55.5815 45.0481 55.1641 45.0481 54.6482C45.0481 54.1323 44.6307 53.7148 44.1148 53.7148Z" fill="#434343"/>
<path d="M32.9148 26.6488H36.6481C37.164 26.6488 37.5815 26.2314 37.5815 25.7155V21.9822C37.5815 21.4663 37.164 21.0488 36.6481 21.0488H32.9148C32.3989 21.0488 31.9814 21.4663 31.9814 21.9822V25.7155C31.9814 26.2314 32.3989 26.6488 32.9148 26.6488ZM33.8481 22.9155H35.7148V24.7822H33.8481V22.9155Z" fill="#434343"/>
<path d="M39.4475 24.7817H50.6475C51.1634 24.7817 51.5808 24.3643 51.5808 23.8484C51.5808 23.3325 51.1634 22.915 50.6475 22.915H39.4475C38.9316 22.915 38.5142 23.3325 38.5142 23.8484C38.5142 24.3643 38.9316 24.7817 39.4475 24.7817Z" fill="#434343"/>
<path d="M32.9148 34.1156H36.6481C37.164 34.1156 37.5815 33.6982 37.5815 33.1823V29.449C37.5815 28.9331 37.164 28.5156 36.6481 28.5156H32.9148C32.3989 28.5156 31.9814 28.9331 31.9814 29.449V33.1823C31.9814 33.6982 32.3989 34.1156 32.9148 34.1156ZM33.8481 30.3823H35.7148V32.249H33.8481V30.3823Z" fill="#434343"/>
<path d="M39.4475 32.2485H50.6475C51.1634 32.2485 51.5808 31.8311 51.5808 31.3152C51.5808 30.7993 51.1634 30.3818 50.6475 30.3818H39.4475C38.9316 30.3818 38.5142 30.7993 38.5142 31.3152C38.5142 31.8311 38.9316 32.2485 39.4475 32.2485Z" fill="#434343"/>
<path d="M47.5052 51.4743C47.1533 51.5226 46.8598 51.7679 46.7478 52.105C46.6358 52.4422 46.7249 52.8132 46.9783 53.0629L49.0629 55.1199L48.5498 58.0037C48.4878 58.3528 48.6292 58.7084 48.9152 58.9188C49.2013 59.1293 49.5814 59.1585 49.8978 58.9954L52.499 57.649L55.0829 59.0271C55.2206 59.1008 55.3718 59.1375 55.5223 59.1375C55.7136 59.1375 55.9043 59.0782 56.0664 58.9625C56.3553 58.7555 56.5011 58.4029 56.4428 58.052L55.9652 55.1626L58.0752 53.131C58.3314 52.8839 58.4252 52.5138 58.3176 52.1748C58.2101 51.8367 57.9193 51.5887 57.5675 51.5359L54.6727 51.0966L53.3922 48.4615C53.2373 48.1426 52.9136 47.9384 52.5583 47.9365C52.5564 47.9365 52.5545 47.9365 52.5529 47.9365C52.2001 47.9365 51.8767 48.136 51.719 48.4515L50.4065 51.0702L47.5052 51.4743ZM51.8548 52.3456L52.5403 50.9794L53.2083 52.3549C53.3423 52.6312 53.6038 52.8235 53.9083 52.869L55.4187 53.0986L54.3176 54.1586C54.0962 54.3719 53.994 54.6808 54.0441 54.9834L54.2929 56.491L52.9449 55.7719C52.8072 55.6981 52.657 55.6615 52.5055 55.6615C52.3578 55.6615 52.2111 55.696 52.0762 55.7663L50.7182 56.4691L50.9861 54.9634C51.0397 54.6617 50.9415 54.3518 50.7226 54.1357L49.6353 53.0619L51.1492 52.8515C51.4537 52.8095 51.7171 52.62 51.8548 52.3456Z" fill="#434343"/>
<path d="M21.5959 27.5161C21.7781 27.6984 22.017 27.7896 22.2557 27.7896C22.4944 27.7896 22.7334 27.6984 22.9156 27.5161C23.2801 27.1517 23.2801 26.5609 22.9156 26.1964L21.3343 24.6142C20.9698 24.2497 20.379 24.2497 20.0146 24.6142C19.6501 24.9786 19.6501 25.5694 20.0146 25.9339L21.5959 27.5161Z" fill="#434343"/>
<path d="M17.9054 23.8257C18.0877 24.0079 18.3266 24.0992 18.5653 24.0992C18.804 24.0992 19.0429 24.0079 19.2252 23.8257C19.5896 23.4612 19.5896 22.8704 19.2252 22.506L17.6439 20.9237C17.2794 20.5593 16.6886 20.5593 16.3241 20.9237C15.9597 21.2882 15.9597 21.879 16.3241 22.2435L17.9054 23.8257Z" fill="#434343"/>
<path d="M20.8497 23.9235C21.0884 23.9235 21.3274 23.8323 21.5096 23.6501L23.1047 22.055C23.4691 21.6905 23.4691 21.0997 23.1047 20.7353C22.7402 20.3708 22.1494 20.3708 21.7849 20.7353L20.1899 22.3303C19.8254 22.6948 19.8254 23.2856 20.1899 23.6501C20.3721 23.8325 20.6108 23.9235 20.8497 23.9235Z" fill="#434343"/>
<path d="M16.984 27.7896C17.2227 27.7896 17.4616 27.6984 17.6439 27.5161L19.2252 25.9339C19.5896 25.5694 19.5896 24.9786 19.2252 24.6142C18.8607 24.2497 18.2699 24.2497 17.9054 24.6142L16.3241 26.1964C15.9597 26.5609 15.9597 27.1517 16.3241 27.5161C16.5064 27.6984 16.7453 27.7896 16.984 27.7896Z" fill="#434343"/>
<path d="M10.6081 14.2512C11.0393 14.4818 11.5031 14.5912 11.9607 14.5912C12.9897 14.5912 13.987 14.0389 14.5045 13.0699C14.8673 12.3918 14.9439 11.6134 14.7215 10.8777C14.4982 10.1413 14.0024 9.53605 13.3243 9.17321C12.6453 8.80945 11.8641 8.73291 11.1314 8.95715C10.395 9.17951 9.78978 9.67628 9.42695 10.3543C9.06412 11.0324 8.98758 11.8108 9.21088 12.5472C9.43325 13.2834 9.93002 13.8886 10.6081 14.2512ZM11.0729 11.2352C11.2551 10.8943 11.606 10.7001 11.9679 10.7001C12.1285 10.7001 12.2925 10.7384 12.4437 10.8196C12.9358 11.083 13.1218 11.6974 12.8583 12.1895C12.7307 12.4282 12.5184 12.6032 12.2596 12.6816C12.0008 12.7591 11.7274 12.7318 11.4884 12.6051C11.2497 12.4774 11.0754 12.2651 10.9963 12.0063C10.9179 11.7476 10.9452 11.4732 11.0729 11.2352Z" fill="#F33131"/>
<path d="M51.7149 12.2303C51.8972 12.4125 52.1361 12.5038 52.3748 12.5038C52.6135 12.5038 52.8524 12.4125 53.0347 12.2303L53.7505 11.5144L54.4664 12.2303C54.6486 12.4125 54.8876 12.5038 55.1263 12.5038C55.365 12.5038 55.6039 12.4125 55.7861 12.2303C56.1506 11.8658 56.1506 11.275 55.7861 10.9106L55.0703 10.1947L55.7861 9.47883C56.1506 9.11436 56.1506 8.52356 55.7861 8.15909C55.4217 7.79463 54.8309 7.79463 54.4664 8.15909L53.7505 8.87496L53.0347 8.15909C52.6702 7.79463 52.0794 7.79463 51.7149 8.15909C51.3505 8.52356 51.3505 9.11436 51.7149 9.47883L52.4308 10.1947L51.7149 10.9106C51.3502 11.275 51.3502 11.8658 51.7149 12.2303Z" fill="#434343"/>
</svg>
