<svg width="30" height="30" viewBox="0 0 30 30" fill="none" xmlns="http://www.w3.org/2000/svg">
<path fill-rule="evenodd" clip-rule="evenodd" d="M25.6693 2.67816V4.67715V5.49746V27.3126C25.6693 27.3665 25.6587 27.4198 25.6381 27.4696C25.6175 27.5194 25.5873 27.5646 25.5492 27.6027C25.5111 27.6408 25.4659 27.671 25.4161 27.6916C25.3663 27.7122 25.313 27.7228 25.2591 27.7228H9.95113H9.13129H7.13184C7.02306 27.7228 6.91873 27.6796 6.84181 27.6026C6.76489 27.5257 6.72168 27.4214 6.72168 27.3126V7.54355C6.72187 7.51821 6.72446 7.49294 6.72941 7.46808V7.46269C6.73701 7.42796 6.74898 7.39433 6.76504 7.36261C6.76879 7.35511 6.77277 7.34808 6.77699 7.34082C6.7946 7.30876 6.81653 7.27927 6.84215 7.25316L11.7052 2.38871C11.7316 2.36305 11.7613 2.34106 11.7936 2.32332L11.7948 2.32261C11.8014 2.31889 11.8076 2.31538 11.8142 2.31207C11.8463 2.29565 11.8804 2.28351 11.9157 2.27597H11.918C11.944 2.2707 11.9705 2.26803 11.997 2.26801H25.2591C25.313 2.26797 25.3663 2.27856 25.4161 2.29916C25.4659 2.31977 25.5111 2.34998 25.5492 2.38807C25.5873 2.42616 25.6175 2.47139 25.6381 2.52117C25.6587 2.57094 25.6693 2.62429 25.6693 2.67816ZM11.5875 3.66816V7.1334H8.1216L11.5875 3.66816ZM11.997 7.95371H7.54152V26.9025H24.8489V3.08832H12.4079V6.08738L12.4071 6.90769V7.54355C12.4072 7.59742 12.3966 7.65077 12.376 7.70055C12.3554 7.75032 12.3252 7.79555 12.2871 7.83364C12.249 7.87174 12.2038 7.90195 12.154 7.92255C12.1042 7.94315 12.0509 7.95374 11.997 7.95371Z" fill="#E44747" stroke="#E44747" stroke-width="0.2"/>
<path d="M10.8633 12.5728H21.5273C21.6361 12.5728 21.7404 12.5295 21.8174 12.4526C21.8943 12.3757 21.9375 12.2714 21.9375 12.1626C21.9375 12.0538 21.8943 11.9495 21.8174 11.8726C21.7404 11.7957 21.6361 11.7524 21.5273 11.7524H10.8633C10.7545 11.7524 10.6502 11.7957 10.5733 11.8726C10.4963 11.9495 10.4531 12.0538 10.4531 12.1626C10.4531 12.2714 10.4963 12.3757 10.5733 12.4526C10.6502 12.5295 10.7545 12.5728 10.8633 12.5728Z" fill="#E44747" stroke="#E44747" stroke-width="0.2"/>
<path d="M10.8633 15.4055H21.5273C21.6361 15.4055 21.7404 15.3622 21.8174 15.2853C21.8943 15.2084 21.9375 15.1041 21.9375 14.9953C21.9375 14.8865 21.8943 14.7822 21.8174 14.7053C21.7404 14.6284 21.6361 14.5851 21.5273 14.5851H10.8633C10.7545 14.5851 10.6502 14.6284 10.5733 14.7053C10.4963 14.7822 10.4531 14.8865 10.4531 14.9953C10.4531 15.1041 10.4963 15.2084 10.5733 15.2853C10.6502 15.3622 10.7545 15.4055 10.8633 15.4055Z" fill="#E44747" stroke="#E44747" stroke-width="0.2"/>
<path d="M10.8633 18.2391H21.5273C21.6361 18.2391 21.7404 18.1959 21.8174 18.1189C21.8943 18.042 21.9375 17.9377 21.9375 17.8289C21.9375 17.7201 21.8943 17.6158 21.8174 17.5389C21.7404 17.462 21.6361 17.4188 21.5273 17.4188H10.8633C10.7545 17.4188 10.6502 17.462 10.5733 17.5389C10.4963 17.6158 10.4531 17.7201 10.4531 17.8289C10.4531 17.9377 10.4963 18.042 10.5733 18.1189C10.6502 18.1959 10.7545 18.2391 10.8633 18.2391Z" fill="#E44747" stroke="#E44747" stroke-width="0.2"/>
<path d="M10.8633 21.0704H21.5273C21.6361 21.0704 21.7404 21.0272 21.8174 20.9503C21.8943 20.8734 21.9375 20.7691 21.9375 20.6603C21.9375 20.5515 21.8943 20.4472 21.8174 20.3703C21.7404 20.2933 21.6361 20.2501 21.5273 20.2501H10.8633C10.7545 20.2501 10.6502 20.2933 10.5733 20.3703C10.4963 20.4472 10.4531 20.5515 10.4531 20.6603C10.4531 20.7691 10.4963 20.8734 10.5733 20.9503C10.6502 21.0272 10.7545 21.0704 10.8633 21.0704Z" fill="#E44747" stroke="#E44747" stroke-width="0.2"/>
</svg>
