<svg width="922" height="393" viewBox="0 0 922 393" fill="none" xmlns="http://www.w3.org/2000/svg">
<g opacity="0.1">
<path d="M783.943 119.617L902.295 119.617C935.213 42.8196 934.159 1 820.359 1C699.368 1.24513 683.799 43.0898 651.935 96.6585C622.412 156.104 637.775 182.332 692.903 222.928C721.946 243.61 728.973 257.59 720.215 287.976C702.007 337.718 679.247 333.892 692.903 284.149L705.171 251.722L591.371 251.722C569.271 317.363 552.842 351.702 597.311 375.981C673.09 410.552 775.085 383.368 806.703 349.197C870.431 280.323 874.983 207.622 820.359 165.533L779.391 134.922C757.173 116.921 765.265 106.896 774.839 89.0059C802.028 49.529 801.468 61.779 783.943 119.617Z" fill="white"/>
<path d="M460.752 8.65268L658.567 8.65268L629.175 81.3532L556.344 81.3532L524.479 154.054H592.759L565.447 222.928H501.72L465.304 307.107L547.24 307.107L515.376 379.808H310.536L460.752 8.65268Z" fill="white"/>
<path d="M151.216 8.65268L255.912 8.65268L255.912 131.096L305.984 8.65268L415.232 8.65268L265.016 379.808L155.768 379.808L160.32 257.365L110.248 379.808H1L151.216 8.65268Z" fill="white"/>
<path d="M783.943 119.617L902.295 119.617C935.213 42.8196 934.159 1 820.359 1C699.368 1.24513 683.799 43.0898 651.935 96.6585C622.412 156.104 637.775 182.332 692.903 222.928C721.946 243.61 728.973 257.59 720.215 287.976C702.007 337.718 679.247 333.892 692.903 284.149L705.171 251.722L591.371 251.722C569.271 317.363 552.842 351.702 597.311 375.981C673.09 410.552 775.085 383.368 806.703 349.197C870.431 280.323 874.983 207.622 820.359 165.533L779.391 134.922C757.173 116.921 765.265 106.896 774.839 89.0059C802.028 49.529 801.468 61.779 783.943 119.617Z" stroke="#EEEDED"/>
<path d="M460.752 8.65268L658.567 8.65268L629.175 81.3532L556.344 81.3532L524.479 154.054H592.759L565.447 222.928H501.72L465.304 307.107L547.24 307.107L515.376 379.808H310.536L460.752 8.65268Z" stroke="#EEEDED"/>
<path d="M151.216 8.65268L255.912 8.65268L255.912 131.096L305.984 8.65268L415.232 8.65268L265.016 379.808L155.768 379.808L160.32 257.365L110.248 379.808H1L151.216 8.65268Z" stroke="#EEEDED"/>
</g>
</svg>
