<svg width="59" height="59" viewBox="0 0 59 59" fill="none" xmlns="http://www.w3.org/2000/svg">
<g clip-path="url(#clip0)">
<path d="M30.1379 49.3571C30.1498 49.3436 30.1616 49.3301 30.1729 49.3161L50.353 24.636C50.6079 24.3271 50.6092 23.8772 50.3725 23.5658L48.3221 20.7582C48.0405 20.3725 47.4996 20.288 47.1139 20.5699C46.7282 20.8515 46.644 21.3925 46.9256 21.7781L47.9816 23.2241H37.9289L42.9553 16.3414L44.2324 18.09C44.5141 18.4756 45.0549 18.56 45.4406 18.2783C45.8263 17.9966 45.9105 17.4557 45.6289 17.0701L43.6536 14.3653C43.4938 14.1459 43.2261 14.009 42.9516 14.0106H16.0412C15.777 14.0106 15.4956 14.1537 15.3396 14.3699L8.62381 23.5659C8.38725 23.8771 8.38852 24.3273 8.6433 24.6361L18.9067 37.1882C19.2955 37.5656 19.7011 37.6063 20.1234 37.3102C20.4931 37.008 20.5478 36.4632 20.2455 36.0935L11.1366 24.9534H22.1092L27.5955 45.0824L23.2519 39.7702C22.9495 39.4006 22.405 39.346 22.0352 39.6481C21.6655 39.9504 21.6108 40.4951 21.9131 40.8648L28.8239 49.3165C29.1534 49.7257 29.7847 49.7458 30.1379 49.3571ZM29.4982 45.4873L23.9014 24.9534H35.0948L29.4982 45.4873ZM24.4717 23.2241L29.4982 16.3414L34.5246 23.2241H24.4717ZM22.7697 22.6227L17.7432 15.7399H27.7961L22.7697 22.6227ZM47.8598 24.9534L31.4008 45.0824L36.8871 24.9534H47.8598ZM36.2267 22.6227L31.2002 15.7399H41.253L36.2267 22.6227ZM11.0147 23.2241L16.0412 16.3414L21.0676 23.2241H11.0147Z" fill="white"/>
<path d="M48.0522 11.8999C48.2735 11.8999 48.495 11.8154 48.6639 11.6464L51.133 9.175C51.9232 8.38415 50.6998 7.16189 49.9097 7.95275L47.4406 10.4241C46.9276 10.9376 47.3266 11.8999 48.0522 11.8999Z" fill="white"/>
<path d="M54.9889 23.593C55.063 23.593 55.1384 23.5835 55.2134 23.5633L58.3502 22.7221C59.43 22.4323 58.9822 20.7627 57.9022 21.0518L54.7654 21.893C53.7982 22.1526 54.023 23.593 54.9889 23.593Z" fill="white"/>
<path d="M50.7409 34.3735L49.2181 33.9652C48.1383 33.6759 47.6904 35.3458 48.7701 35.6354L50.2929 36.0437C51.3349 36.3229 51.809 34.66 50.7409 34.3735Z" fill="white"/>
<path d="M58.3029 36.4042L53.8451 35.2088C52.7652 34.9198 52.3173 36.5892 53.3971 36.8789L57.8549 38.0744C58.897 38.3535 59.371 36.6908 58.3029 36.4042Z" fill="white"/>
<path d="M43.2717 42.1845C42.4815 41.3935 41.2583 42.6159 42.0484 43.4068L46.0594 47.4217C46.8495 48.2127 48.0728 46.9903 47.2826 46.1994L43.2717 42.1845Z" fill="white"/>
<path d="M49.7991 48.6953C49.0089 47.9044 47.7856 49.1267 48.5758 49.9176L49.7779 51.1209C50.5681 51.9119 51.7914 50.6894 51.0012 49.8985L49.7991 48.6953Z" fill="white"/>
<path d="M36.3565 52.1499L36.0632 51.0544C35.774 49.9744 34.1038 50.4215 34.3928 51.5016L34.6861 52.5971C34.9701 53.6583 36.6464 53.2335 36.3565 52.1499Z" fill="white"/>
<path d="M37.2333 55.4274C36.9442 54.3474 35.2737 54.7946 35.5628 55.8746L36.2289 58.363C36.3432 58.7898 36.8643 59.088 37.2879 58.9747C37.7491 58.8512 38.0229 58.3772 37.8996 57.9158L37.2333 55.4274Z" fill="white"/>
<path d="M34.7506 10.2045C35.1741 10.3181 35.6953 10.0196 35.8095 9.59296L36.2089 8.1014C36.498 7.02152 34.8273 6.57422 34.5384 7.65421L34.139 9.14577C34.0155 9.60703 34.2893 10.0812 34.7506 10.2045Z" fill="white"/>
<path d="M36.0006 5.54235C36.4241 5.65568 36.9452 5.35755 37.0596 4.93065L38.0939 1.06733C38.3829 -0.0126664 36.7123 -0.459743 36.4233 0.620134L35.389 4.48346C35.2655 4.94483 35.5393 5.41888 36.0006 5.54235Z" fill="white"/>
<path d="M10.3301 11.6462C11.1202 12.4372 12.3435 11.2148 11.5533 10.424L9.0842 7.95279C8.29405 7.16183 7.07078 8.38418 7.86093 9.17502L10.3301 11.6462Z" fill="white"/>
<path d="M0.619734 22.7221L3.75653 23.5633C4.79859 23.8424 5.27265 22.1796 4.20453 21.8931L1.06773 21.0519C-0.0120297 20.7625 -0.460028 22.4325 0.619734 22.7221Z" fill="white"/>
<path d="M9.76745 33.964L8.24467 34.3723C7.17921 34.6582 7.65983 36.3194 8.69266 36.0426L10.2154 35.6342C11.2952 35.3446 10.8472 33.6751 9.76745 33.964Z" fill="white"/>
<path d="M5.11641 35.2075L0.658788 36.403C-0.406794 36.6889 0.0739459 38.3501 1.10679 38.0734L5.56452 36.8778C6.64417 36.5881 6.19652 34.9187 5.11641 35.2075Z" fill="white"/>
<path d="M15.6943 42.1821L11.6832 46.1969C10.893 46.9876 12.1163 48.2101 12.9065 47.4191L16.9176 43.4044C17.7078 42.6134 16.4844 41.3913 15.6943 42.1821Z" fill="white"/>
<path d="M9.19778 48.6951L7.9957 49.8983C7.20554 50.6891 8.42883 51.9115 9.219 51.1206L10.4211 49.9174C11.2114 49.1265 9.98795 47.9044 9.19778 48.6951Z" fill="white"/>
<path d="M23.9875 50.4435C23.5264 50.3201 23.0523 50.5938 22.9287 51.0551L22.6354 52.1507C22.3544 53.201 24.0135 53.6897 24.3058 52.5979L24.5991 51.5023C24.7227 51.041 24.4489 50.5669 23.9875 50.4435Z" fill="white"/>
<path d="M22.8057 54.8163C22.3447 54.693 21.8704 54.9666 21.7468 55.428L21.0808 57.9163C20.7997 58.9667 22.4588 59.4554 22.7511 58.3635L23.4172 55.8752C23.5407 55.4138 23.2669 54.9399 22.8057 54.8163Z" fill="white"/>
<path d="M23.3815 7.04223C22.9202 7.1657 22.6464 7.63975 22.7699 8.101L23.1692 9.59254C23.4532 10.6537 25.1297 10.2288 24.8396 9.14535L24.4403 7.65381C24.3167 7.19256 23.8424 6.9183 23.3815 7.04223Z" fill="white"/>
<path d="M21.9251 4.9307C22.2092 5.99179 23.8856 5.56696 23.5955 4.48351L22.5613 0.620184C22.2722 -0.459808 20.6019 -0.0126166 20.8909 1.06738L21.9251 4.9307Z" fill="white"/>
</g>
<defs>
<clipPath id="clip0">
<rect width="59" height="59" fill="white"/>
</clipPath>
</defs>
</svg>
