<svg width="59" height="59" viewBox="0 0 59 59" fill="none" xmlns="http://www.w3.org/2000/svg">
<path d="M48.5192 47.8042C48.0419 47.8042 47.6549 48.1911 47.6549 48.6684V56.7941C47.6549 57.0571 47.4408 57.2713 47.1777 57.2713H42.5318V40.2515C42.5318 39.7742 42.1449 39.3872 41.6676 39.3872C41.1903 39.3872 40.8033 39.7742 40.8033 40.2515V57.2714H31.448L34.161 54.2868C34.4573 53.9607 34.5971 53.4962 34.5348 53.0438C34.5336 53.035 34.5322 53.0263 34.5308 53.0175L31.9468 37.7527L32.643 36.7048C33.0279 36.9781 33.3244 37.2413 33.8804 37.2413C34.4459 37.2413 34.9747 36.9248 35.2349 36.4037V36.4036L37.9602 30.9415L44.1686 33.3458C44.3932 33.4422 47.6547 34.9109 47.6547 38.7893V44.6351C47.6546 45.1123 48.0415 45.4994 48.5189 45.4994C48.9962 45.4994 49.3832 45.1124 49.3832 44.6351V38.7893C49.3832 33.6793 45.0079 31.8219 44.8216 31.7452C44.8162 31.7429 44.8107 31.7407 44.8052 31.7387L34.4723 27.737V25.3137C36.1135 24.0373 37.2514 22.1453 37.5371 19.9867C38.3554 19.9291 39.1147 19.6235 39.7347 19.0903C40.5445 18.3939 41.0091 17.3805 41.0091 16.3102C41.0091 15.4219 40.6886 14.5738 40.1175 13.9129V10.7114C40.1174 4.80516 35.3124 0 29.4062 0C23.4999 0 18.6949 4.80516 18.6949 10.7114V13.9968C18.1177 14.651 17.8038 15.4563 17.8038 16.31C17.8038 17.3807 18.2682 18.3941 19.0782 19.0905C19.6978 19.6235 20.4566 19.9287 21.2746 19.9865C21.5626 22.1855 22.7337 24.1481 24.5147 25.4416V27.737L14.193 31.7385C14.1876 31.7406 14.1822 31.7428 14.1768 31.745C13.9905 31.8216 9.61523 33.6791 9.61523 38.789V56.7938C9.61523 58.0101 10.6048 58.9997 11.8211 58.9997H20.0554C20.5327 58.9997 20.9196 58.6127 20.9196 58.1354C20.9196 57.6581 20.5327 57.2711 20.0554 57.2711H18.1958V40.2515C18.1958 39.7742 17.8089 39.3872 17.3316 39.3872C16.8543 39.3872 16.4673 39.7742 16.4673 40.2515V57.2714H11.8212C11.5581 57.2714 11.344 57.0573 11.344 56.7942V38.7892C11.344 34.8978 14.6274 33.4324 14.829 33.3462L21.0325 30.9412L23.7581 36.4036C24.0188 36.9259 24.5483 37.2413 25.1128 37.2413C25.666 37.2413 25.9596 36.9822 26.3501 36.7048L27.0463 37.7527L24.4626 53.0176C24.4611 53.0262 24.4598 53.0349 24.4586 53.0437C24.3961 53.4958 24.5359 53.9606 24.8324 54.2869L27.5454 57.2715H24.0889C23.6116 57.2715 23.2246 57.6584 23.2246 58.1357C23.2246 58.613 23.6116 59 24.0889 59H47.1778C48.3941 59 49.3837 58.0104 49.3837 56.7942V48.6685C49.3834 48.1911 48.9965 47.8042 48.5192 47.8042ZM36.3413 30.3146L33.8005 35.4068C33.7374 35.362 32.3908 34.4053 30.7448 33.2365C31.4591 32.3548 30.6235 33.3862 33.8832 29.3626L36.3413 30.3146ZM31.2327 35.7034L30.5738 36.6952H28.4186L27.7597 35.7034L29.4963 34.4701L31.2327 35.7034ZM26.2431 28.0159V26.3985C27.2931 26.8217 28.4153 27.018 29.5111 27.018C30.6442 27.018 31.7554 26.7764 32.7437 26.3443V28.0229L29.4963 32.0314L26.2431 28.0159ZM39.2805 16.3102C39.2804 16.8763 39.0351 17.412 38.6076 17.7797C38.325 18.0229 37.9835 18.1783 37.6096 18.2392V14.3815C38.6029 14.5428 39.2805 15.3667 39.2805 16.3102ZM21.2032 18.2392C20.1986 18.0761 19.5323 17.2455 19.5323 16.31C19.5323 15.3861 20.2983 14.6341 21.2032 14.4249V18.2392ZM21.2496 12.6638C20.9743 12.6954 20.6588 12.7699 20.4236 12.8499V10.7114C20.4236 5.75826 24.4532 1.72863 29.4063 1.72863C34.3594 1.72863 38.3889 5.75826 38.3889 10.7114V12.7906C38.1377 12.7142 37.8772 12.6637 37.6097 12.6399C37.6097 11.806 37.617 11.9669 34.8888 9.0338C34.3871 8.49473 33.5571 8.3818 32.9255 8.79446C29.9145 10.7614 26.2414 11.7495 22.8523 11.5062C22.1089 11.4505 21.4318 11.9401 21.2496 12.6638ZM22.9318 18.9196V13.5276V13.2435C26.6625 13.462 30.5739 12.3537 33.7338 10.3301C34.985 11.6735 35.6626 12.3781 35.8811 12.6462C35.8811 13.3242 35.8811 18.1434 35.8811 18.9195C35.8811 22.4281 33.0203 25.2892 29.5113 25.2892C25.5709 25.2893 22.9318 22.2326 22.9318 18.9196ZM25.1922 35.4068L22.6514 30.3146L25.105 29.3643L28.2441 33.239C26.6478 34.3726 25.337 35.3039 25.1922 35.4068ZM26.1837 53.2039L28.6854 38.4236H30.3068L32.8085 53.2039L29.4962 56.848L26.1837 53.2039Z" fill="white"/>
</svg>
