<svg width="94" height="51" viewBox="0 0 94 51" fill="none" xmlns="http://www.w3.org/2000/svg">
<path d="M79.9964 15.4717L92.0889 15.4717C95.4522 5.45473 95.3445 0 83.7171 0C71.355 0.031973 69.7643 5.48997 66.5086 12.4772C63.4921 20.2309 65.0618 23.652 70.6945 28.9471C73.6618 31.6448 74.3799 33.4682 73.485 37.4316C71.6247 43.9197 69.2992 43.4207 70.6945 36.9325L71.9479 32.7029L60.3205 32.7029C58.0625 41.2648 56.3838 45.7437 60.9275 48.9106C68.6701 53.4198 79.0913 49.8741 82.3219 45.417C88.8332 36.4334 89.2983 26.9508 83.7171 21.4608L79.5313 17.4681C77.2611 15.1201 78.0879 13.8126 79.0662 11.479C81.8441 6.32987 81.787 7.92769 79.9964 15.4717Z" fill="#F33131"/>
<path d="M46.9746 0.998176L67.1862 0.998176L64.1831 10.4808L56.7416 10.4808L53.486 19.9635L60.4624 19.9635L57.6718 28.9471L51.1605 28.9471L47.4397 39.927H55.8114L52.5558 49.4097H31.6265L46.9746 0.998176Z" fill="#F33131"/>
<path d="M15.3481 0.998176L26.0453 0.998176L26.0453 16.969L31.1614 0.998176L42.3237 0.998176L26.9755 49.4097L15.8132 49.4097L16.2783 33.4389L11.1623 49.4097H0L15.3481 0.998176Z" fill="#F33131"/>
</svg>
