<svg width="32" height="32" viewBox="0 0 32 32" fill="none" xmlns="http://www.w3.org/2000/svg">
<path d="M10.5524 31H21.4474C22.0964 30.9991 22.7383 30.8651 23.3335 30.6064C23.9286 30.3477 24.4644 29.9696 24.9077 29.4956C25.351 29.0216 25.6924 28.4618 25.9108 27.8506C26.1292 27.2395 26.2199 26.59 26.1773 25.9424L25.5273 14.9494C25.374 12.5265 24.3033 10.253 22.5331 8.59156C20.7629 6.93009 18.4261 6.00549 15.9984 6.00586C13.5706 6.00623 11.2342 6.93156 9.46445 8.59357C7.69475 10.2556 6.62475 12.5294 6.47215 14.9524L5.82265 25.9395C5.7797 26.5873 5.87011 27.2371 6.08828 27.8485C6.30645 28.46 6.64775 29.0202 7.09107 29.4945C7.53439 29.9689 8.0703 30.3472 8.66566 30.6061C9.26102 30.865 9.90317 30.9991 10.5524 31ZM6.82072 26.0014L7.47028 15.0143C7.60729 12.8455 8.56536 10.8103 10.1496 9.32268C11.7339 7.8351 13.8253 7.0069 15.9985 7.00653C18.1716 7.00616 20.2633 7.83366 21.8481 9.32071C23.4328 10.8077 24.3916 12.8426 24.5293 15.0114L25.1793 26.0044C25.2134 26.5157 25.1422 27.0286 24.9702 27.5113C24.7981 27.994 24.5289 28.4363 24.1791 28.8108C23.8293 29.1853 23.4064 29.484 22.9365 29.6886C22.4667 29.8931 21.9599 29.9991 21.4474 29.9999H10.5524C10.0397 29.9991 9.53266 29.893 9.06262 29.6882C8.59259 29.4835 8.16958 29.1845 7.81977 28.8096C7.46996 28.4348 7.20081 27.9922 7.02896 27.5092C6.85712 27.0261 6.78624 26.513 6.82072 26.0014Z" fill="#434343"/>
<path d="M16 25.5C17.3845 25.5 18.7378 25.0894 19.889 24.3203C21.0401 23.5511 21.9373 22.4579 22.4672 21.1788C22.997 19.8997 23.1356 18.4922 22.8655 17.1344C22.5954 15.7765 21.9287 14.5292 20.9497 13.5503C19.9708 12.5713 18.7235 11.9046 17.3656 11.6345C16.0078 11.3644 14.6003 11.503 13.3212 12.0328C12.0421 12.5627 10.9489 13.4599 10.1797 14.611C9.41054 15.7622 9 17.1155 9 18.5C9.0021 20.3559 9.74027 22.1351 11.0526 23.4474C12.3649 24.7597 14.1441 25.4979 16 25.5ZM13.5 23.9537C12.9682 23.7087 12.475 23.3874 12.0361 23H13.5V23.9537ZM18.5 13.0463C19.0318 13.2913 19.525 13.6126 19.9639 14H18.5V13.0463ZM18.5 15H20.8704C21.0966 15.3138 21.2919 15.6487 21.4537 16H18.5V15ZM18.5 17H21.8102C21.8947 17.3279 21.9511 17.6625 21.9789 18H18.5V17ZM18.5 19H21.979C21.9512 19.3375 21.8948 19.672 21.8102 20H18.5V19ZM18.5 21H21.4537C21.2919 21.3513 21.0966 21.6862 20.8704 22H18.5V21ZM18.5 23H19.9639C19.525 23.3874 19.0318 23.7087 18.5 23.9537V23ZM14.5 12.6899C15.484 12.4367 16.516 12.4367 17.5 12.6899V14H14.5V12.6899ZM14.5 15H17.5V16H14.5V15ZM14.5 17H17.5V18H14.5V17ZM14.5 19H17.5V20H14.5V19ZM14.5 21H17.5V22H14.5V21ZM14.5 23H17.5V24.3101C16.516 24.5633 15.484 24.5633 14.5 24.3101V23ZM13.5 13.0463V14H12.0361C12.475 13.6126 12.9682 13.2913 13.5 13.0463ZM11.1296 15H13.5V16H10.5463C10.7081 15.6487 10.9034 15.3138 11.1296 15ZM10.1898 17H13.5V18H10.021C10.0488 17.6625 10.1053 17.3279 10.1898 17ZM10.0211 19H13.5V20H10.1898C10.1053 19.672 10.0488 19.3375 10.021 19H10.0211ZM13.5 21V22H11.1296C10.9034 21.6862 10.7081 21.3513 10.5463 21H13.5Z" fill="#434343"/>
<path d="M10 29C10.2967 29 10.5867 28.912 10.8334 28.7472C11.08 28.5824 11.2723 28.3481 11.3858 28.074C11.4993 27.7999 11.5291 27.4983 11.4712 27.2074C11.4133 26.9164 11.2704 26.6491 11.0607 26.4393C10.8509 26.2296 10.5836 26.0867 10.2926 26.0288C10.0017 25.9709 9.70006 26.0007 9.42597 26.1142C9.15188 26.2277 8.91762 26.42 8.75279 26.6666C8.58797 26.9133 8.5 27.2033 8.5 27.5C8.50045 27.8977 8.65862 28.279 8.93983 28.5602C9.22104 28.8414 9.60231 28.9996 10 29ZM10 27C10.0989 27 10.1956 27.0293 10.2778 27.0843C10.36 27.1392 10.4241 27.2173 10.4619 27.3087C10.4998 27.4 10.5097 27.5006 10.4904 27.5976C10.4711 27.6945 10.4235 27.7836 10.3536 27.8536C10.2836 27.9235 10.1945 27.9711 10.0975 27.9904C10.0006 28.0097 9.90002 27.9998 9.80866 27.9619C9.71729 27.9241 9.6392 27.86 9.58426 27.7778C9.52932 27.6956 9.5 27.5989 9.5 27.5C9.50015 27.3674 9.55287 27.2404 9.64661 27.1466C9.74035 27.0529 9.86744 27.0002 10 27Z" fill="#434343"/>
<path d="M20.5 27.5C20.5 27.7967 20.588 28.0867 20.7528 28.3334C20.9176 28.58 21.1519 28.7723 21.426 28.8858C21.7001 28.9994 22.0017 29.0291 22.2926 28.9712C22.5836 28.9133 22.8509 28.7704 23.0607 28.5607C23.2704 28.3509 23.4133 28.0836 23.4712 27.7926C23.5291 27.5017 23.4994 27.2001 23.3858 26.926C23.2723 26.6519 23.08 26.4176 22.8334 26.2528C22.5867 26.088 22.2967 26 22 26C21.6023 26.0004 21.221 26.1586 20.9398 26.4398C20.6586 26.721 20.5004 27.1023 20.5 27.5ZM22.5 27.5C22.5 27.5989 22.4707 27.6956 22.4157 27.7778C22.3608 27.86 22.2827 27.9241 22.1913 27.9619C22.1 27.9998 21.9994 28.0097 21.9025 27.9904C21.8055 27.9711 21.7164 27.9235 21.6464 27.8536C21.5765 27.7836 21.5289 27.6945 21.5096 27.5976C21.4903 27.5006 21.5002 27.4 21.5381 27.3087C21.5759 27.2173 21.64 27.1392 21.7222 27.0843C21.8044 27.0293 21.9011 27 22 27C22.1326 27.0002 22.2597 27.0529 22.3534 27.1466C22.4471 27.2403 22.4999 27.3674 22.5 27.5Z" fill="#434343"/>
<path d="M15.35 4.5C15.35 4.63261 15.4027 4.75979 15.4964 4.85355C15.5902 4.94732 15.7174 5 15.85 5C15.9826 5 16.1098 4.94732 16.2036 4.85355C16.2973 4.75979 16.35 4.63261 16.35 4.5C16.35 4.38844 16.3683 4.35806 16.4288 4.25719C16.5768 4.03272 16.6539 3.76888 16.65 3.5C16.6539 3.2311 16.5768 2.96724 16.4288 2.74275C16.3744 2.67382 16.3465 2.58772 16.35 2.5C16.3465 2.41228 16.3744 2.32618 16.4288 2.25725C16.5769 2.03277 16.654 1.7689 16.65 1.5C16.65 1.36739 16.5973 1.24021 16.5036 1.14645C16.4098 1.05268 16.2826 1 16.15 1C16.0174 1 15.8902 1.05268 15.7964 1.14645C15.7027 1.24021 15.65 1.36739 15.65 1.5C15.65 1.6115 15.6318 1.64187 15.5712 1.74269C15.4231 1.96719 15.346 2.23108 15.35 2.5C15.3461 2.7689 15.4232 3.03276 15.5712 3.25725C15.6224 3.32785 15.65 3.41283 15.65 3.50003C15.65 3.58724 15.6224 3.67221 15.5712 3.74281C15.4232 3.96728 15.3461 4.23112 15.35 4.5Z" fill="#434343"/>
<path d="M11.35 4.5C11.35 4.63261 11.4027 4.75979 11.4964 4.85355C11.5902 4.94732 11.7174 5 11.85 5C11.9826 5 12.1098 4.94732 12.2035 4.85355C12.2973 4.75979 12.35 4.63261 12.35 4.5C12.35 4.38844 12.3682 4.35806 12.4287 4.25719C12.5768 4.03272 12.6539 3.76888 12.65 3.5C12.6539 3.2311 12.5768 2.96724 12.4287 2.74275C12.3744 2.67382 12.3464 2.58772 12.35 2.5C12.3464 2.41228 12.3744 2.32618 12.4287 2.25725C12.5768 2.03277 12.6539 1.7689 12.65 1.5C12.65 1.36739 12.5973 1.24021 12.5035 1.14645C12.4098 1.05268 12.2826 1 12.15 1C12.0174 1 11.8902 1.05268 11.7964 1.14645C11.7027 1.24021 11.65 1.36739 11.65 1.5C11.65 1.6115 11.6317 1.64187 11.5712 1.74269C11.4231 1.96719 11.346 2.23108 11.35 2.5C11.3461 2.7689 11.4232 3.03276 11.5712 3.25725C11.6224 3.32785 11.65 3.41283 11.65 3.50003C11.65 3.58724 11.6224 3.67221 11.5712 3.74281C11.4232 3.96728 11.3461 4.23112 11.35 4.5Z" fill="#434343"/>
<path d="M19.35 4.5C19.35 4.63261 19.4027 4.75979 19.4964 4.85355C19.5902 4.94732 19.7174 5 19.85 5C19.9826 5 20.1098 4.94732 20.2036 4.85355C20.2973 4.75979 20.35 4.63261 20.35 4.5C20.35 4.38844 20.3683 4.35806 20.4288 4.25719C20.5768 4.03272 20.6539 3.76888 20.65 3.5C20.6539 3.2311 20.5768 2.96724 20.4288 2.74275C20.3744 2.67382 20.3465 2.58772 20.35 2.5C20.3465 2.41228 20.3744 2.32618 20.4288 2.25725C20.5769 2.03277 20.654 1.7689 20.65 1.5C20.65 1.36739 20.5973 1.24021 20.5036 1.14645C20.4098 1.05268 20.2826 1 20.15 1C20.0174 1 19.8902 1.05268 19.7964 1.14645C19.7027 1.24021 19.65 1.36739 19.65 1.5C19.65 1.6115 19.6318 1.64187 19.5713 1.74269C19.4231 1.96719 19.346 2.23108 19.35 2.5C19.3461 2.7689 19.4232 3.03276 19.5713 3.25725C19.6224 3.32785 19.65 3.41283 19.65 3.50003C19.65 3.58724 19.6224 3.67221 19.5713 3.74281C19.4232 3.96728 19.3461 4.23112 19.35 4.5Z" fill="#434343"/>
</svg>
