<svg width="32" height="32" viewBox="0 0 32 32" fill="none" xmlns="http://www.w3.org/2000/svg">
<g clip-path="url(#clip0)">
<path d="M22.8571 17.1429C25.378 17.1429 27.4286 15.128 27.4286 12.6512C27.4286 9.33258 23.231 3.75382 23.0525 3.51815C23.005 3.46151 22.9332 3.42859 22.8571 3.42859C22.7811 3.42859 22.7092 3.46151 22.6618 3.51815C22.4832 3.75382 18.2858 9.33258 18.2858 12.6512C18.2858 15.128 20.3364 17.1429 22.8571 17.1429ZM22.8571 4.0506C23.6959 5.2081 26.9474 9.87389 26.9474 12.6512C26.9474 14.8757 25.1125 16.6856 22.8571 16.6856C20.6018 16.6856 18.7669 14.8757 18.7669 12.6512C18.7669 9.87496 22.0183 5.20837 22.8571 4.0506Z" fill="#434343" stroke="#434343" stroke-width="0.5"/>
<path d="M9.25718 20.6588C9.15109 20.6588 9.04935 20.7005 8.97433 20.7746C8.89932 20.8488 8.85718 20.9494 8.85718 21.0543C8.85718 21.1592 8.89932 21.2598 8.97433 21.334C9.04935 21.4081 9.15109 21.4498 9.25718 21.4498H13.2572C13.3633 21.4498 13.465 21.4081 13.54 21.334C13.615 21.2598 13.6572 21.1592 13.6572 21.0543C13.6572 20.9494 13.615 20.8488 13.54 20.7746C13.465 20.7005 13.3633 20.6588 13.2572 20.6588H9.25718Z" fill="#434343"/>
<path d="M4.05718 25.4048H0.0571778C-0.0489088 25.4048 -0.15065 25.4465 -0.225665 25.5207C-0.300679 25.5949 -0.342822 25.6954 -0.342822 25.8003C-0.342822 25.9052 -0.300679 26.0058 -0.225665 26.08C-0.15065 26.1542 -0.0489088 26.1958 0.0571778 26.1958H4.05718C4.16326 26.1958 4.26501 26.1542 4.34002 26.08C4.41503 26.0058 4.45718 25.9052 4.45718 25.8003C4.45718 25.6954 4.41503 25.5949 4.34002 25.5207C4.26501 25.4465 4.16326 25.4048 4.05718 25.4048Z" fill="#434343"/>
<path d="M21.2572 25.4048H15.6572C15.5511 25.4048 15.4493 25.4465 15.3743 25.5207C15.2993 25.5949 15.2572 25.6954 15.2572 25.8003C15.2572 25.9052 15.2993 26.0058 15.3743 26.08C15.4493 26.1542 15.5511 26.1958 15.6572 26.1958H21.2572C21.3633 26.1958 21.465 26.1542 21.54 26.08C21.615 26.0058 21.6572 25.9052 21.6572 25.8003C21.6572 25.6954 21.615 25.5949 21.54 25.5207C21.465 25.4465 21.3633 25.4048 21.2572 25.4048Z" fill="#434343"/>
<path d="M20.0572 18.2858C19.3148 18.2866 18.6031 18.5786 18.0782 19.0976C17.5533 19.6166 17.258 20.3203 17.2572 21.0543C17.2572 21.1592 17.2993 21.2598 17.3743 21.334C17.4493 21.4082 17.5511 21.4499 17.6572 21.4499C17.7633 21.4499 17.865 21.4082 17.94 21.334C18.015 21.2598 18.0572 21.1592 18.0572 21.0543C18.0572 20.6632 18.1745 20.2809 18.3942 19.9557C18.614 19.6305 18.9264 19.377 19.2918 19.2274C19.6573 19.0777 20.0594 19.0385 20.4474 19.1148C20.8353 19.1911 21.1917 19.3795 21.4714 19.656C21.7511 19.9326 21.9416 20.285 22.0187 20.6686C22.0959 21.0522 22.0563 21.4498 21.9049 21.8111C21.7536 22.1725 21.4972 22.4813 21.1683 22.6986C20.8394 22.9159 20.4527 23.0319 20.0572 23.0319H6.01413C6.34411 22.7126 6.58911 22.3176 6.72731 21.8821C6.86551 21.4466 6.89262 20.984 6.80622 20.5356C6.71982 20.0872 6.5226 19.6668 6.23212 19.3121C5.94164 18.9573 5.56693 18.679 5.14135 18.5021C4.71577 18.3252 4.25254 18.2551 3.79293 18.2981C3.33332 18.341 2.89159 18.4957 2.50709 18.7484C2.12259 19.001 1.80725 19.3438 1.58918 19.7461C1.3711 20.1485 1.25705 20.5979 1.25718 21.0543C1.25718 21.1592 1.29932 21.2598 1.37434 21.334C1.44935 21.4082 1.55109 21.4499 1.65718 21.4499C1.76326 21.4499 1.86501 21.4082 1.94002 21.334C2.01503 21.2598 2.05718 21.1592 2.05718 21.0543C2.05718 20.6632 2.17448 20.2809 2.39424 19.9557C2.614 19.6305 2.92636 19.377 3.29181 19.2274C3.65726 19.0777 4.0594 19.0385 4.44736 19.1148C4.83532 19.1911 5.19169 19.3795 5.47139 19.656C5.7511 19.9326 5.94158 20.285 6.01875 20.6686C6.09592 21.0522 6.05631 21.4498 5.90494 21.8111C5.75356 22.1725 5.49722 22.4813 5.16832 22.6986C4.83942 22.9159 4.45274 23.0319 4.05718 23.0319H-0.742822C-0.848909 23.0319 -0.95065 23.0735 -1.02567 23.1477C-1.10068 23.2219 -1.14282 23.3225 -1.14282 23.4274C-1.14282 23.5323 -1.10068 23.6329 -1.02567 23.707C-0.95065 23.7812 -0.848909 23.8229 -0.742822 23.8229H10.8572C11.2527 23.8229 11.6394 23.9389 11.9683 24.1561C12.2972 24.3734 12.5536 24.6823 12.7049 25.0436C12.8563 25.405 12.8959 25.8026 12.8187 26.1862C12.7416 26.5698 12.5511 26.9222 12.2714 27.1987C11.9917 27.4753 11.6353 27.6636 11.2474 27.7399C10.8594 27.8162 10.4573 27.7771 10.0918 27.6274C9.72636 27.4777 9.414 27.2242 9.19424 26.899C8.97448 26.5738 8.85718 26.1915 8.85718 25.8004C8.85718 25.6955 8.81504 25.5949 8.74002 25.5207C8.66501 25.4466 8.56326 25.4049 8.45718 25.4049C8.35109 25.4049 8.24935 25.4466 8.17433 25.5207C8.09932 25.5949 8.05718 25.6955 8.05718 25.8004C8.05675 26.2571 8.17062 26.7069 8.38863 27.1096C8.60665 27.5122 8.92203 27.8553 9.30668 28.1083C9.69133 28.3612 10.1333 28.5161 10.5932 28.5591C11.053 28.6022 11.5166 28.5321 11.9424 28.3551C12.3682 28.1781 12.7431 27.8996 13.0337 27.5446C13.3243 27.1895 13.5216 26.7689 13.6079 26.3202C13.6942 25.8715 13.6669 25.4087 13.5284 24.9729C13.3899 24.5372 13.1445 24.1421 12.8141 23.8229H20.0572C20.7998 23.8229 21.512 23.5312 22.0371 23.012C22.5622 22.4928 22.8572 21.7886 22.8572 21.0543C22.8572 20.3201 22.5622 19.6159 22.0371 19.0967C21.512 18.5775 20.7998 18.2858 20.0572 18.2858Z" fill="#434343"/>
<path d="M9.25718 20.6588C9.15109 20.6588 9.04935 20.7005 8.97433 20.7746C8.89932 20.8488 8.85718 20.9494 8.85718 21.0543C8.85718 21.1592 8.89932 21.2598 8.97433 21.334C9.04935 21.4081 9.15109 21.4498 9.25718 21.4498H13.2572C13.3633 21.4498 13.465 21.4081 13.54 21.334C13.615 21.2598 13.6572 21.1592 13.6572 21.0543C13.6572 20.9494 13.615 20.8488 13.54 20.7746C13.465 20.7005 13.3633 20.6588 13.2572 20.6588H9.25718Z" stroke="#434343" stroke-width="0.3"/>
<path d="M4.05718 25.4048H0.0571778C-0.0489088 25.4048 -0.15065 25.4465 -0.225665 25.5207C-0.300679 25.5949 -0.342822 25.6954 -0.342822 25.8003C-0.342822 25.9052 -0.300679 26.0058 -0.225665 26.08C-0.15065 26.1542 -0.0489088 26.1958 0.0571778 26.1958H4.05718C4.16326 26.1958 4.26501 26.1542 4.34002 26.08C4.41503 26.0058 4.45718 25.9052 4.45718 25.8003C4.45718 25.6954 4.41503 25.5949 4.34002 25.5207C4.26501 25.4465 4.16326 25.4048 4.05718 25.4048Z" stroke="#434343" stroke-width="0.3"/>
<path d="M21.2572 25.4048H15.6572C15.5511 25.4048 15.4493 25.4465 15.3743 25.5207C15.2993 25.5949 15.2572 25.6954 15.2572 25.8003C15.2572 25.9052 15.2993 26.0058 15.3743 26.08C15.4493 26.1542 15.5511 26.1958 15.6572 26.1958H21.2572C21.3633 26.1958 21.465 26.1542 21.54 26.08C21.615 26.0058 21.6572 25.9052 21.6572 25.8003C21.6572 25.6954 21.615 25.5949 21.54 25.5207C21.465 25.4465 21.3633 25.4048 21.2572 25.4048Z" stroke="#434343" stroke-width="0.3"/>
<path d="M20.0572 18.2858C19.3148 18.2866 18.6031 18.5786 18.0782 19.0976C17.5533 19.6166 17.258 20.3203 17.2572 21.0543C17.2572 21.1592 17.2993 21.2598 17.3743 21.334C17.4493 21.4082 17.5511 21.4499 17.6572 21.4499C17.7633 21.4499 17.865 21.4082 17.94 21.334C18.015 21.2598 18.0572 21.1592 18.0572 21.0543C18.0572 20.6632 18.1745 20.2809 18.3942 19.9557C18.614 19.6305 18.9264 19.377 19.2918 19.2274C19.6573 19.0777 20.0594 19.0385 20.4474 19.1148C20.8353 19.1911 21.1917 19.3795 21.4714 19.656C21.7511 19.9326 21.9416 20.285 22.0187 20.6686C22.0959 21.0522 22.0563 21.4498 21.9049 21.8111C21.7536 22.1725 21.4972 22.4813 21.1683 22.6986C20.8394 22.9159 20.4527 23.0319 20.0572 23.0319H6.01413C6.34411 22.7126 6.58911 22.3176 6.72731 21.8821C6.86551 21.4466 6.89262 20.984 6.80622 20.5356C6.71982 20.0872 6.5226 19.6668 6.23212 19.3121C5.94164 18.9573 5.56693 18.679 5.14135 18.5021C4.71577 18.3252 4.25254 18.2551 3.79293 18.2981C3.33332 18.341 2.89159 18.4957 2.50709 18.7484C2.12259 19.001 1.80725 19.3438 1.58918 19.7461C1.3711 20.1485 1.25705 20.5979 1.25718 21.0543C1.25718 21.1592 1.29932 21.2598 1.37434 21.334C1.44935 21.4082 1.55109 21.4499 1.65718 21.4499C1.76326 21.4499 1.86501 21.4082 1.94002 21.334C2.01503 21.2598 2.05718 21.1592 2.05718 21.0543C2.05718 20.6632 2.17448 20.2809 2.39424 19.9557C2.614 19.6305 2.92636 19.377 3.29181 19.2274C3.65726 19.0777 4.0594 19.0385 4.44736 19.1148C4.83532 19.1911 5.19169 19.3795 5.47139 19.656C5.7511 19.9326 5.94158 20.285 6.01875 20.6686C6.09592 21.0522 6.05631 21.4498 5.90494 21.8111C5.75356 22.1725 5.49722 22.4813 5.16832 22.6986C4.83942 22.9159 4.45274 23.0319 4.05718 23.0319H-0.742822C-0.848909 23.0319 -0.95065 23.0735 -1.02567 23.1477C-1.10068 23.2219 -1.14282 23.3225 -1.14282 23.4274C-1.14282 23.5323 -1.10068 23.6329 -1.02567 23.707C-0.95065 23.7812 -0.848909 23.8229 -0.742822 23.8229H10.8572C11.2527 23.8229 11.6394 23.9389 11.9683 24.1561C12.2972 24.3734 12.5536 24.6823 12.7049 25.0436C12.8563 25.405 12.8959 25.8026 12.8187 26.1862C12.7416 26.5698 12.5511 26.9222 12.2714 27.1987C11.9917 27.4753 11.6353 27.6636 11.2474 27.7399C10.8594 27.8162 10.4573 27.7771 10.0918 27.6274C9.72636 27.4777 9.414 27.2242 9.19424 26.899C8.97448 26.5738 8.85718 26.1915 8.85718 25.8004C8.85718 25.6955 8.81504 25.5949 8.74002 25.5207C8.66501 25.4466 8.56326 25.4049 8.45718 25.4049C8.35109 25.4049 8.24935 25.4466 8.17433 25.5207C8.09932 25.5949 8.05718 25.6955 8.05718 25.8004C8.05675 26.2571 8.17062 26.7069 8.38863 27.1096C8.60665 27.5122 8.92203 27.8553 9.30668 28.1083C9.69133 28.3612 10.1333 28.5161 10.5932 28.5591C11.053 28.6022 11.5166 28.5321 11.9424 28.3551C12.3682 28.1781 12.7431 27.8996 13.0337 27.5446C13.3243 27.1895 13.5216 26.7689 13.6079 26.3202C13.6942 25.8715 13.6669 25.4087 13.5284 24.9729C13.3899 24.5372 13.1445 24.1421 12.8141 23.8229H20.0572C20.7998 23.8229 21.512 23.5312 22.0371 23.012C22.5622 22.4928 22.8572 21.7886 22.8572 21.0543C22.8572 20.3201 22.5622 19.6159 22.0371 19.0967C21.512 18.5775 20.7998 18.2858 20.0572 18.2858Z" stroke="#434343" stroke-width="0.3"/>
</g>
<defs>
<clipPath id="clip0">
<rect width="32" height="32" fill="white"/>
</clipPath>
</defs>
</svg>
