<svg width="32" height="32" viewBox="0 0 32 32" fill="none" xmlns="http://www.w3.org/2000/svg">
<path fill-rule="evenodd" clip-rule="evenodd" d="M5.48636 28.5715H26.5137V27.6651V24.0395V23.1331V14.7488L28.1594 13.5252C28.2165 13.4827 28.2628 13.4275 28.2946 13.364C28.3263 13.3006 28.3426 13.2306 28.3422 13.1598C28.3417 13.089 28.3246 13.0192 28.292 12.9562C28.2595 12.8931 28.2125 12.8385 28.1548 12.7967L24.2282 9.95179V5.00498C24.3494 5.00498 24.4657 4.95723 24.5514 4.87224C24.6371 4.78725 24.6853 4.67197 24.6853 4.55178V2.73897C24.6853 2.61877 24.6371 2.5035 24.5514 2.41851C24.4657 2.33351 24.3494 2.28577 24.2282 2.28577H19.657C19.5358 2.28577 19.4195 2.33351 19.3338 2.41851C19.248 2.5035 19.1999 2.61877 19.1999 2.73897V4.55178C19.1999 4.67197 19.248 4.78725 19.3338 4.87224C19.4195 4.95723 19.5358 5.00498 19.657 5.00498V6.63996L16.2698 4.18587C16.1915 4.12916 16.097 4.09859 16.0001 4.09859C15.9031 4.09859 15.8086 4.12916 15.7304 4.18587L3.84532 12.7967C3.78763 12.8385 3.74063 12.8931 3.70809 12.9562C3.67554 13.0192 3.65836 13.089 3.65792 13.1598C3.65747 13.2306 3.67378 13.3006 3.70553 13.364C3.73728 13.4275 3.78359 13.4827 3.84074 13.5252L5.48636 14.7488V23.1331V24.0152V27.6651V28.5715ZM20.1141 3.19217H23.771V4.09857H20.1141V3.19217ZM20.5712 7.27099V5.00498H23.3139V9.28944L20.528 7.27099H20.5712ZM16.0001 5.11307L27.1168 13.1674L26.0525 13.9588L16.269 6.90446C16.1908 6.84811 16.0967 6.81775 16.0001 6.81775C15.9034 6.81775 15.8093 6.84811 15.7312 6.90446L5.94765 13.9588L4.88326 13.1674L16.0001 5.11307ZM22.8568 27.6651H17.3714V17.6946H22.8568V27.6651ZM23.771 27.6651V17.2414C23.771 17.1212 23.7229 17.006 23.6372 16.921C23.5514 16.836 23.4352 16.7882 23.3139 16.7882H16.9143C16.793 16.7882 16.6768 16.836 16.5911 16.921C16.5053 17.006 16.4572 17.1212 16.4572 17.2414V27.6651H6.4006V14.753L16.0001 7.83137L25.5995 14.753V27.6651H23.771Z" fill="#434343"/>
<path d="M19.4624 23.1912C19.5681 22.9361 19.4469 22.6436 19.1918 22.538C18.9367 22.4323 18.6442 22.5534 18.5385 22.8086C18.4328 23.0637 18.554 23.3562 18.8091 23.4619C19.0642 23.5675 19.3567 23.4464 19.4624 23.1912Z" fill="#434343"/>
</svg>
