<svg width="32" height="32" viewBox="0 0 32 32" fill="none" xmlns="http://www.w3.org/2000/svg">
<g clip-path="url(#clip0)">
<path d="M22.8571 17.1429C25.378 17.1429 27.4286 15.128 27.4286 12.6512C27.4286 9.33258 23.231 3.75382 23.0525 3.51815C23.005 3.46151 22.9332 3.42859 22.8571 3.42859C22.7811 3.42859 22.7092 3.46151 22.6618 3.51815C22.4832 3.75382 18.2858 9.33258 18.2858 12.6512C18.2858 15.128 20.3364 17.1429 22.8571 17.1429ZM22.8571 4.0506C23.6959 5.2081 26.9474 9.87389 26.9474 12.6512C26.9474 14.8757 25.1125 16.6856 22.8571 16.6856C20.6018 16.6856 18.7669 14.8757 18.7669 12.6512C18.7669 9.87496 22.0183 5.20837 22.8571 4.0506Z" fill="#434343" stroke="#434343" stroke-width="0.5"/>
<path d="M25.8286 29.7141C24.6652 29.7334 23.5056 28.0912 22.3918 27.7979C21.3579 27.5232 20.2806 27.3935 19.2 27.4131C18.119 27.3935 17.0411 27.5232 16.0065 27.7979C14.892 28.0914 13.7318 29.7336 12.5679 29.7141C11.4052 29.7334 10.2465 28.0912 9.13325 27.7979C8.09986 27.5232 7.02307 27.3935 5.94289 27.4131C4.86218 27.3933 3.78432 27.5232 2.75021 27.7979C1.63664 28.0914 0.477178 29.7336 -0.685679 29.7141C-0.938179 29.7141 -1.14282 29.5354 -1.14282 29.3149C-1.14282 29.0945 -0.938179 28.9158 -0.685679 28.9158C0.394856 28.9354 1.47236 27.3031 2.50646 27.0282C3.62039 26.7349 4.77968 26.5954 5.94289 26.6149C7.10539 26.5954 8.26432 26.7349 9.37754 27.0282C10.4109 27.3029 11.4877 28.9354 12.5679 28.9158C13.6491 28.9354 14.727 27.3031 15.7618 27.0282C16.8761 26.7348 18.0361 26.5952 19.2 26.6149C20.3634 26.5954 21.5231 26.7349 22.6368 27.0282C23.6707 27.3029 24.7481 28.9353 25.8286 28.9158C26.0811 28.9158 26.2857 29.0945 26.2857 29.3149C26.2857 29.5354 26.0811 29.7141 25.8286 29.7141Z" fill="#434343"/>
<path d="M25.8286 27.3192C24.6652 27.3386 23.5056 25.6964 22.3918 25.4031C21.3579 25.1284 20.2806 24.9987 19.2 25.0183C18.119 24.9987 17.0411 25.1284 16.0065 25.4031C14.892 25.6965 13.7318 27.3387 12.5679 27.3192C11.4052 27.3386 10.2465 25.6964 9.13325 25.4031C8.09986 25.1284 7.02307 24.9987 5.94289 25.0183C4.86218 24.9985 3.78432 25.1284 2.75021 25.4031C1.63664 25.6965 0.477178 27.3387 -0.685679 27.3192C-0.938179 27.3192 -1.14282 27.1406 -1.14282 26.9201C-1.14282 26.6996 -0.938179 26.521 -0.685679 26.521C0.394856 26.5406 1.47236 24.9083 2.50646 24.6334C3.62039 24.3401 4.77968 24.2006 5.94289 24.2201C7.10539 24.2006 8.26432 24.3401 9.37754 24.6334C10.4109 24.9081 11.4877 26.5406 12.5679 26.521C13.6491 26.5406 14.727 24.9083 15.7618 24.6334C16.8761 24.34 18.0361 24.2004 19.2 24.2201C20.3634 24.2006 21.5231 24.3401 22.6368 24.6334C23.6707 24.9081 24.7481 26.5405 25.8286 26.521C26.0811 26.521 26.2857 26.6996 26.2857 26.9201C26.2857 27.1406 26.0811 27.3192 25.8286 27.3192Z" fill="#434343"/>
<path d="M25.8286 24.9244C24.6652 24.9437 23.5056 23.3015 22.3918 23.0083C21.3579 22.7335 20.2806 22.6038 19.2 22.6235C18.119 22.6038 17.0411 22.7335 16.0065 23.0083C14.892 23.3017 13.7318 24.9439 12.5679 24.9244C11.4052 24.9437 10.2465 23.3015 9.13325 23.0083C8.09986 22.7335 7.02307 22.6038 5.94289 22.6235C4.86218 22.6037 3.78432 22.7335 2.75021 23.0083C1.63664 23.3017 0.477178 24.9439 -0.685679 24.9244C-0.938179 24.9244 -1.14282 24.7457 -1.14282 24.5252C-1.14282 24.3048 -0.938179 24.1261 -0.685679 24.1261C0.394856 24.1458 1.47236 22.5134 2.50646 22.2385C3.62039 21.9452 4.77968 21.8057 5.94289 21.8252C7.10539 21.8057 8.26432 21.9452 9.37754 22.2385C10.4109 22.5132 11.4877 24.1458 12.5679 24.1261C13.6491 24.1458 14.727 22.5134 15.7618 22.2385C16.8761 21.9451 18.0361 21.8055 19.2 21.8252C20.3634 21.8057 21.5231 21.9452 22.6368 22.2385C23.6707 22.5132 24.7481 24.1456 25.8286 24.1261C26.0811 24.1261 26.2857 24.3048 26.2857 24.5253C26.2857 24.7457 26.0811 24.9244 25.8286 24.9244Z" fill="#434343"/>
<path d="M25.8286 22.5296C24.6652 22.5489 23.5056 20.9067 22.3918 20.6134C21.3579 20.3387 20.2806 20.209 19.2 20.2286C18.119 20.209 17.0411 20.3387 16.0065 20.6134C14.892 20.9069 13.7318 22.549 12.5679 22.5296C11.4052 22.5489 10.2465 20.9067 9.13325 20.6134C8.09986 20.3387 7.02307 20.209 5.94289 20.2286C4.86218 20.2088 3.78432 20.3387 2.75021 20.6134C1.63664 20.9069 0.477178 22.549 -0.685679 22.5296C-0.938179 22.5296 -1.14282 22.3509 -1.14282 22.1304C-1.14282 21.9099 -0.938179 21.7313 -0.685679 21.7313C0.394856 21.7509 1.47236 20.1186 2.50646 19.8437C3.62039 19.5504 4.77968 19.4109 5.94289 19.4303C7.10539 19.4109 8.26432 19.5504 9.37754 19.8437C10.4109 20.1184 11.4877 21.7509 12.5679 21.7313C13.6491 21.7509 14.727 20.1186 15.7618 19.8437C16.8761 19.5502 18.0361 19.4107 19.2 19.4303C20.3634 19.4109 21.5231 19.5504 22.6368 19.8437C23.6707 20.1184 24.7481 21.7508 25.8286 21.7313C26.0811 21.7313 26.2857 21.9099 26.2857 22.1304C26.2857 22.3509 26.0811 22.5296 25.8286 22.5296Z" fill="#434343"/>
<path d="M25.8286 29.7141C24.6652 29.7334 23.5056 28.0912 22.3918 27.7979C21.3579 27.5232 20.2806 27.3935 19.2 27.4131C18.119 27.3935 17.0411 27.5232 16.0065 27.7979C14.892 28.0914 13.7318 29.7336 12.5679 29.7141C11.4052 29.7334 10.2465 28.0912 9.13325 27.7979C8.09986 27.5232 7.02307 27.3935 5.94289 27.4131C4.86218 27.3933 3.78432 27.5232 2.75021 27.7979C1.63664 28.0914 0.477178 29.7336 -0.685679 29.7141C-0.938179 29.7141 -1.14282 29.5354 -1.14282 29.3149C-1.14282 29.0945 -0.938179 28.9158 -0.685679 28.9158C0.394856 28.9354 1.47236 27.3031 2.50646 27.0282C3.62039 26.7349 4.77968 26.5954 5.94289 26.6149C7.10539 26.5954 8.26432 26.7349 9.37754 27.0282C10.4109 27.3029 11.4877 28.9354 12.5679 28.9158C13.6491 28.9354 14.727 27.3031 15.7618 27.0282C16.8761 26.7348 18.0361 26.5952 19.2 26.6149C20.3634 26.5954 21.5231 26.7349 22.6368 27.0282C23.6707 27.3029 24.7481 28.9353 25.8286 28.9158C26.0811 28.9158 26.2857 29.0945 26.2857 29.3149C26.2857 29.5354 26.0811 29.7141 25.8286 29.7141Z" stroke="#434343" stroke-width="0.3"/>
<path d="M25.8286 27.3192C24.6652 27.3386 23.5056 25.6964 22.3918 25.4031C21.3579 25.1284 20.2806 24.9987 19.2 25.0183C18.119 24.9987 17.0411 25.1284 16.0065 25.4031C14.892 25.6965 13.7318 27.3387 12.5679 27.3192C11.4052 27.3386 10.2465 25.6964 9.13325 25.4031C8.09986 25.1284 7.02307 24.9987 5.94289 25.0183C4.86218 24.9985 3.78432 25.1284 2.75021 25.4031C1.63664 25.6965 0.477178 27.3387 -0.685679 27.3192C-0.938179 27.3192 -1.14282 27.1406 -1.14282 26.9201C-1.14282 26.6996 -0.938179 26.521 -0.685679 26.521C0.394856 26.5406 1.47236 24.9083 2.50646 24.6334C3.62039 24.3401 4.77968 24.2006 5.94289 24.2201C7.10539 24.2006 8.26432 24.3401 9.37754 24.6334C10.4109 24.9081 11.4877 26.5406 12.5679 26.521C13.6491 26.5406 14.727 24.9083 15.7618 24.6334C16.8761 24.34 18.0361 24.2004 19.2 24.2201C20.3634 24.2006 21.5231 24.3401 22.6368 24.6334C23.6707 24.9081 24.7481 26.5405 25.8286 26.521C26.0811 26.521 26.2857 26.6996 26.2857 26.9201C26.2857 27.1406 26.0811 27.3192 25.8286 27.3192Z" stroke="#434343" stroke-width="0.3"/>
<path d="M25.8286 24.9244C24.6652 24.9437 23.5056 23.3015 22.3918 23.0083C21.3579 22.7335 20.2806 22.6038 19.2 22.6235C18.119 22.6038 17.0411 22.7335 16.0065 23.0083C14.892 23.3017 13.7318 24.9439 12.5679 24.9244C11.4052 24.9437 10.2465 23.3015 9.13325 23.0083C8.09986 22.7335 7.02307 22.6038 5.94289 22.6235C4.86218 22.6037 3.78432 22.7335 2.75021 23.0083C1.63664 23.3017 0.477178 24.9439 -0.685679 24.9244C-0.938179 24.9244 -1.14282 24.7457 -1.14282 24.5252C-1.14282 24.3048 -0.938179 24.1261 -0.685679 24.1261C0.394856 24.1458 1.47236 22.5134 2.50646 22.2385C3.62039 21.9452 4.77968 21.8057 5.94289 21.8252C7.10539 21.8057 8.26432 21.9452 9.37754 22.2385C10.4109 22.5132 11.4877 24.1458 12.5679 24.1261C13.6491 24.1458 14.727 22.5134 15.7618 22.2385C16.8761 21.9451 18.0361 21.8055 19.2 21.8252C20.3634 21.8057 21.5231 21.9452 22.6368 22.2385C23.6707 22.5132 24.7481 24.1456 25.8286 24.1261C26.0811 24.1261 26.2857 24.3048 26.2857 24.5253C26.2857 24.7457 26.0811 24.9244 25.8286 24.9244Z" stroke="#434343" stroke-width="0.3"/>
<path d="M25.8286 22.5296C24.6652 22.5489 23.5056 20.9067 22.3918 20.6134C21.3579 20.3387 20.2806 20.209 19.2 20.2286C18.119 20.209 17.0411 20.3387 16.0065 20.6134C14.892 20.9069 13.7318 22.549 12.5679 22.5296C11.4052 22.5489 10.2465 20.9067 9.13325 20.6134C8.09986 20.3387 7.02307 20.209 5.94289 20.2286C4.86218 20.2088 3.78432 20.3387 2.75021 20.6134C1.63664 20.9069 0.477178 22.549 -0.685679 22.5296C-0.938179 22.5296 -1.14282 22.3509 -1.14282 22.1304C-1.14282 21.9099 -0.938179 21.7313 -0.685679 21.7313C0.394856 21.7509 1.47236 20.1186 2.50646 19.8437C3.62039 19.5504 4.77968 19.4109 5.94289 19.4303C7.10539 19.4109 8.26432 19.5504 9.37754 19.8437C10.4109 20.1184 11.4877 21.7509 12.5679 21.7313C13.6491 21.7509 14.727 20.1186 15.7618 19.8437C16.8761 19.5502 18.0361 19.4107 19.2 19.4303C20.3634 19.4109 21.5231 19.5504 22.6368 19.8437C23.6707 20.1184 24.7481 21.7508 25.8286 21.7313C26.0811 21.7313 26.2857 21.9099 26.2857 22.1304C26.2857 22.3509 26.0811 22.5296 25.8286 22.5296Z" stroke="#434343" stroke-width="0.3"/>
</g>
<defs>
<clipPath id="clip0">
<rect width="32" height="32" fill="white"/>
</clipPath>
</defs>
</svg>
