<svg width="32" height="32" viewBox="0 0 32 32" fill="none" xmlns="http://www.w3.org/2000/svg">
<path d="M28.1524 19.3524H26.8953V16.4191C26.8953 16.338 26.8718 16.2587 26.8276 16.1907C26.7834 16.1227 26.7205 16.069 26.6464 16.0361L19.1035 12.6837C19.0397 12.6554 18.9699 12.6434 18.9003 12.6489C18.8307 12.6544 18.7635 12.6773 18.705 12.7153C18.6465 12.7533 18.5983 12.8054 18.565 12.8668C18.5317 12.9282 18.5143 12.9969 18.5143 13.0667V15.7743L17.5853 15.3613L17.2572 5.51676V3.84764C17.2572 3.7365 17.213 3.62991 17.1344 3.55133C17.0558 3.47274 16.9493 3.42859 16.8381 3.42859H15.1619C15.0508 3.42859 14.9442 3.47274 14.8656 3.55133C14.787 3.62991 14.7429 3.7365 14.7429 3.84764V5.51676L14.461 13.9729L11.5607 12.6838C11.4969 12.6555 11.427 12.6435 11.3574 12.649C11.2878 12.6545 11.2207 12.6773 11.1622 12.7154C11.1036 12.7534 11.0555 12.8055 11.0222 12.8668C10.9889 12.9282 10.9715 12.9969 10.9714 13.0667V15.7743L10.0425 15.3613L9.7143 5.51676V3.84764C9.7143 3.7365 9.67015 3.62991 9.59157 3.55133C9.51298 3.47274 9.40639 3.42859 9.29526 3.42859H7.61907C7.50793 3.42859 7.40134 3.47274 7.32275 3.55133C7.24417 3.62991 7.20002 3.7365 7.20002 3.84764V5.51676L6.91816 13.9729L4.01782 12.6838C3.95403 12.6555 3.88416 12.6435 3.81457 12.649C3.74498 12.6545 3.67786 12.6773 3.61932 12.7154C3.56078 12.7534 3.51267 12.8055 3.47937 12.8668C3.44606 12.9282 3.4286 12.9969 3.42859 13.0667V28.1524C3.42859 28.2635 3.47274 28.3701 3.55133 28.4487C3.62991 28.5273 3.7365 28.5714 3.84764 28.5714H28.1524C28.2635 28.5714 28.3701 28.5273 28.4487 28.4487C28.5273 28.3701 28.5714 28.2635 28.5714 28.1524V19.7714C28.5714 19.6603 28.5273 19.5537 28.4487 19.4751C28.3701 19.3965 28.2635 19.3524 28.1524 19.3524ZM19.3524 13.7115L26.0572 16.6914V19.3524H19.3524V13.7115ZM15.581 4.26668H16.4191V5.10478H15.581V4.26668ZM15.5672 5.94287H16.4328L16.7341 14.983L15.2873 14.3401L15.5672 5.94287ZM11.8095 13.7115L18.5143 16.6914V19.3524H11.8095V13.7115ZM8.03811 4.26668H8.87621V5.10478H8.03811V4.26668ZM8.02439 5.94287H8.88993L9.19128 14.983L7.74446 14.3401L8.02439 5.94287ZM5.94287 19.7714V27.7334H4.26668V13.7115L10.9714 16.6914V19.3524H6.36192C6.25078 19.3524 6.1442 19.3965 6.06561 19.4751C5.98702 19.5537 5.94287 19.6603 5.94287 19.7714ZM22.7048 27.7334H18.5143V25.2191H22.7048V27.7334ZM27.7334 27.7334H23.5429V24.8C23.5429 24.6889 23.4987 24.5823 23.4201 24.5037C23.3416 24.4251 23.235 24.381 23.1238 24.381H18.0953C17.9841 24.381 17.8775 24.4251 17.7989 24.5037C17.7204 24.5823 17.6762 24.6889 17.6762 24.8V27.7334H6.78097V20.1905H27.7334V27.7334Z" fill="#434343"/>
</svg>
