<svg width="32" height="32" viewBox="0 0 32 32" fill="none" xmlns="http://www.w3.org/2000/svg">
<path d="M9.14279 28.5715C11.6637 28.5715 13.7143 26.3887 13.7143 23.7055C13.7143 20.1104 9.51663 14.0667 9.33814 13.8114C9.29069 13.75 9.21886 13.7144 9.14279 13.7144C9.06672 13.7144 8.9948 13.75 8.94745 13.8114C8.76886 14.0667 4.57141 20.1104 4.57141 23.7055C4.57141 26.3887 6.62203 28.5715 9.14279 28.5715ZM9.14279 14.3882C9.98151 15.6422 13.233 20.6968 13.233 23.7055C13.233 26.1153 11.3982 28.0761 9.14279 28.0761C6.88742 28.0761 5.05257 26.1153 5.05257 23.7055C5.05257 20.6979 8.30398 15.6424 9.14279 14.3882Z" fill="#434343" stroke="#434343" stroke-width="0.5"/>
<path d="M22.857 17.1429C25.3779 17.1429 27.4285 15.128 27.4285 12.6512C27.4285 9.33258 23.2309 3.75382 23.0524 3.51815C23.0049 3.46151 22.9331 3.42859 22.857 3.42859C22.781 3.42859 22.709 3.46151 22.6617 3.51815C22.4831 3.75382 18.2856 9.33258 18.2856 12.6512C18.2856 15.128 20.3363 17.1429 22.857 17.1429ZM22.857 4.0506C23.6957 5.2081 26.9472 9.87389 26.9472 12.6512C26.9472 14.8757 25.1124 16.6856 22.857 16.6856C20.6016 16.6856 18.7668 14.8757 18.7668 12.6512C18.7668 9.87496 22.0182 5.20837 22.857 4.0506Z" fill="#434343" stroke="#434343" stroke-width="0.5"/>
</svg>
