<svg width="79" height="81" viewBox="0 0 79 81" fill="none" xmlns="http://www.w3.org/2000/svg">
<path d="M77.7839 35.7015C77.5213 34.056 75.9745 32.9351 74.329 33.1976C72.6835 33.4601 71.5625 35.007 71.825 36.6525C71.8278 36.6705 71.8308 36.6884 71.834 36.7062C74.9065 54.7932 62.7349 71.9462 44.648 75.0187C26.561 78.0912 9.40801 65.9196 6.3355 47.8327C3.26299 29.7457 15.4348 12.5927 33.5215 9.52018C44.6446 7.63071 55.9664 11.5161 63.5853 19.8375L50.2195 24.2907C48.6383 24.8168 47.7832 26.5249 48.3092 28.106C48.3094 28.1064 48.3095 28.1069 48.3097 28.1073C48.8358 29.6884 50.5439 30.5435 52.1251 30.0176C52.1256 30.0174 52.1259 30.0172 52.1263 30.0172L70.229 23.9831C71.4615 23.5726 72.2929 22.4191 72.2928 21.1199V3.01717C72.2928 1.35081 70.942 0 69.2756 0C67.6092 0 66.2584 1.35081 66.2584 3.01717V14.0386C50.7205 -0.739841 26.1442 -0.124102 11.3657 15.4138C-3.41273 30.9517 -2.79717 55.5281 12.7409 70.3067C28.279 85.0853 52.8552 84.4696 67.6338 68.9315C76.0609 60.0711 79.8218 47.7586 77.7839 35.7015Z" fill="#E44747"/>
</svg>
