<svg width="25" height="25" viewBox="0 0 25 25" fill="none" xmlns="http://www.w3.org/2000/svg">
<path d="M6.35012 3.8457H4.34695C4.07013 3.8457 3.84613 4.0697 3.84613 4.34652V6.34974C3.84613 6.62656 4.07013 6.85055 4.34695 6.85055H6.35017C6.62699 6.85055 6.85098 6.62656 6.85098 6.34974V4.34652C6.85094 4.0697 6.62694 3.8457 6.35012 3.8457ZM5.84935 5.84892H4.84772V4.84734H5.8493V5.84892H5.84935Z" fill="#E44747"/>
<path d="M13.0809 3.8457H11.0777C10.8009 3.8457 10.5769 4.0697 10.5769 4.34652V6.34974C10.5769 6.62656 10.8009 6.85055 11.0777 6.85055H13.0809C13.3578 6.85055 13.5818 6.62656 13.5818 6.34974V4.34652C13.5817 4.0697 13.3577 3.8457 13.0809 3.8457ZM12.5801 5.84892H11.5785V4.84734H12.5801V5.84892H12.5801Z" fill="#E44747"/>
<path d="M19.8117 3.8457H17.8085C17.5317 3.8457 17.3077 4.0697 17.3077 4.34652V6.34974C17.3077 6.62656 17.5317 6.85055 17.8085 6.85055H19.8117C20.0885 6.85055 20.3125 6.62656 20.3125 6.34974V4.34652C20.3125 4.0697 20.0885 3.8457 19.8117 3.8457ZM19.3109 5.84892H18.3093V4.84734H19.3109V5.84892H19.3109Z" fill="#E44747"/>
<path d="M6.35012 10.3564H4.34695C4.07013 10.3564 3.84613 10.5804 3.84613 10.8573V12.8605C3.84613 13.1373 4.07013 13.3613 4.34695 13.3613H6.35017C6.62694 13.3613 6.85094 13.1373 6.85094 12.8604V10.8572C6.85094 10.5804 6.62694 10.3564 6.35012 10.3564ZM5.84935 12.3597H4.84772V11.3581H5.8493V12.3597H5.84935Z" fill="#E44747"/>
<path d="M13.0809 10.3564H11.0777C10.8009 10.3564 10.5769 10.5804 10.5769 10.8573V12.8605C10.5769 13.1373 10.8009 13.3613 11.0777 13.3613H13.0809C13.3577 13.3613 13.5817 13.1373 13.5817 12.8604V10.8572C13.5817 10.5804 13.3577 10.3564 13.0809 10.3564ZM12.5801 12.3597H11.5785V11.3581H12.5801V12.3597H12.5801Z" fill="#E44747"/>
<path d="M19.8117 10.3564H17.8085C17.5317 10.3564 17.3077 10.5804 17.3077 10.8573V12.8605C17.3077 13.1373 17.5317 13.3613 17.8085 13.3613H19.8117C20.0885 13.3613 20.3125 13.1373 20.3125 12.8604V10.8572C20.3125 10.5804 20.0885 10.3564 19.8117 10.3564ZM19.3109 12.3597H18.3093V11.3581H19.3109V12.3597H19.3109Z" fill="#E44747"/>
<path d="M6.35012 16.8662H4.34695C4.07013 16.8662 3.84613 17.0902 3.84613 17.367V19.3702C3.84613 19.647 4.07013 19.871 4.34695 19.871H6.35017C6.62694 19.871 6.85094 19.647 6.85094 19.3702V17.367C6.85094 17.0902 6.62694 16.8662 6.35012 16.8662ZM5.84935 18.8694H4.84772V17.8678H5.8493V18.8694H5.84935Z" fill="#E44747"/>
<path d="M13.0809 16.8662H11.0777C10.8009 16.8662 10.5769 17.0902 10.5769 17.367V19.3702C10.5769 19.647 10.8009 19.871 11.0777 19.871H13.0809C13.3577 19.871 13.5817 19.647 13.5817 19.3702V17.367C13.5817 17.0902 13.3577 16.8662 13.0809 16.8662ZM12.5801 18.8694H11.5785V17.8678H12.5801V18.8694H12.5801Z" fill="#E44747"/>
<path d="M19.8117 16.8662H17.8085C17.5317 16.8662 17.3077 17.0902 17.3077 17.367V19.3702C17.3077 19.647 17.5317 19.871 17.8085 19.871H19.8117C20.0885 19.871 20.3125 19.647 20.3125 19.3702V17.367C20.3125 17.0902 20.0885 16.8662 19.8117 16.8662ZM19.3109 18.8694H18.3093V17.8678H19.3109V18.8694H19.3109Z" fill="#E44747"/>
</svg>
