<svg width="25" height="24" viewBox="0 0 25 24" fill="none" xmlns="http://www.w3.org/2000/svg">
<path d="M23 21.4655V20.2956C23 19.1031 22.4152 17.9556 21.439 17.2311C19.1659 15.5482 16.8504 14.3737 16.0392 13.9822V12.6457C16.2043 12.2947 16.3411 11.9123 16.4448 11.4983C17.0484 11.2913 17.3786 10.4453 17.6002 9.6983C17.8973 8.70382 17.8643 8.00634 17.5153 7.61935C17.8832 5.70689 17.7181 4.29842 17.0296 3.42994C16.6665 2.97546 16.242 2.78196 15.9591 2.69646C15.7563 2.42647 15.346 1.97198 14.6527 1.60749C13.9359 1.2025 13.1295 1 12.2429 1C12.0825 1 11.9222 1.009 11.7807 1.018C11.3846 1.036 10.9931 1.108 10.6064 1.22949C10.6017 1.22949 10.597 1.23399 10.5923 1.23399C10.1678 1.37349 9.75284 1.57599 9.35198 1.83698C8.89453 2.11597 8.47481 2.44897 8.11168 2.81796C7.39957 3.51544 6.92797 4.30292 6.72519 5.14441C6.53183 5.84189 6.51769 6.54387 6.67803 7.23236C6.59314 7.29086 6.51769 7.35836 6.45166 7.43935C6.12626 7.84884 6.11211 8.49233 6.39979 9.46881C6.59786 10.1438 6.86195 10.8323 7.30997 11.1428C7.44202 11.7908 7.66367 12.3802 7.96077 12.9022V13.9867C7.14963 14.3782 4.83408 15.5482 2.56099 17.2356C1.58478 17.9601 1 19.1031 1 20.3001V21.47C1 22.316 1.72154 23 2.60343 23H21.3966C22.2785 23 23 22.3115 23 21.4655ZM2.1507 21.4655V20.2956C2.1507 19.4406 2.5657 18.6216 3.26367 18.1041C5.71597 16.2907 8.21072 15.0937 8.68703 14.8732C8.95113 14.7517 9.11619 14.4997 9.11619 14.2162V12.7537C9.11619 12.6547 9.08789 12.5602 9.03601 12.4747C8.72476 11.9708 8.50782 11.3678 8.39936 10.6793C8.36163 10.4588 8.19185 10.2833 7.9702 10.2293C7.9089 10.1618 7.73441 9.9188 7.51275 9.16731C7.32883 8.54633 7.34298 8.25834 7.36184 8.15484C7.54577 8.16384 7.72969 8.08284 7.84759 7.94334C7.9702 7.79485 8.00322 7.59685 7.93719 7.42135C7.69196 6.76887 7.66367 6.09838 7.8523 5.4144C8.01265 4.75741 8.38049 4.14543 8.95113 3.58744C9.25766 3.27245 9.61136 2.99795 9.98864 2.76846C9.99336 2.76396 10.0028 2.75946 10.0075 2.75496C10.3235 2.54346 10.6536 2.38597 10.979 2.27797C10.9837 2.27797 10.9884 2.27347 10.9884 2.27347C11.2667 2.18347 11.5543 2.13397 11.8562 2.12047C12.6815 2.05298 13.4219 2.20147 14.0774 2.56596C14.7942 2.94396 15.0866 3.43894 15.0866 3.43894C15.1762 3.61444 15.3365 3.71794 15.5441 3.73144C15.5582 3.73144 15.8647 3.77644 16.1288 4.13193C16.4071 4.50992 16.8032 5.4819 16.308 7.74985C16.2514 8.00184 16.3882 8.25384 16.6287 8.36183C16.6523 8.44283 16.69 8.71732 16.4872 9.40131C16.308 10.0043 16.1618 10.2788 16.077 10.4003C15.9685 10.3823 15.8553 10.3913 15.7516 10.4363C15.5723 10.5083 15.4403 10.6658 15.4073 10.8458C15.3083 11.3858 15.1479 11.8718 14.9404 12.2857C14.9027 12.3622 14.8838 12.4432 14.8838 12.5242V14.2162C14.8838 14.4997 15.0489 14.7472 15.313 14.8732C15.7893 15.0937 18.284 16.2952 20.7316 18.1041C21.4296 18.6216 21.8446 19.4406 21.8446 20.2956V21.4655C21.8446 21.6995 21.6418 21.893 21.3966 21.893H2.60343C2.35348 21.8975 2.1507 21.704 2.1507 21.4655Z" fill="#434343" stroke="#434343" stroke-width="0.5"/>
</svg>
