<svg width="24" height="24" viewBox="0 0 24 24" fill="none" xmlns="http://www.w3.org/2000/svg">
<g clip-path="url(#clip0)">
<path d="M14.8287 9.17164C14.6337 8.97664 14.3166 8.97664 14.1216 9.17164C13.9266 9.36664 13.9266 9.68464 14.1216 9.87866C14.6877 10.4447 15.0006 11.1977 15.0006 11.9997C15.0006 13.6536 13.6546 14.9997 12.0006 14.9997C11.1986 14.9997 10.4456 14.6877 9.87963 14.1207C9.68463 13.9257 9.36762 13.9257 9.17262 14.1207C8.97762 14.3147 8.97762 14.6327 9.17262 14.8277C9.9266 15.5837 10.9316 15.9997 12.0006 15.9997C14.2066 15.9997 16.0006 14.2057 16.0006 11.9997C16.0006 10.9306 15.5847 9.92563 14.8287 9.17164Z" fill="#F33131"/>
<path d="M12.697 8.06863C12.47 8.02865 12.238 7.99963 12 7.99963C9.794 7.99963 8 9.79363 8 11.9996C8 12.2376 8.02902 12.4696 8.06998 12.6966C8.11297 12.9386 8.324 13.1096 8.561 13.1096C8.59002 13.1096 8.61899 13.1076 8.64899 13.1016C8.91997 13.0536 9.10199 12.7936 9.05399 12.5226C9.023 12.3526 8.99999 12.1796 8.99999 11.9996C8.99999 10.3456 10.346 8.99962 12 8.99962C12.18 8.99962 12.353 9.02263 12.523 9.05263C12.789 9.10663 13.054 8.91862 13.102 8.64763C13.15 8.37665 12.968 8.11663 12.697 8.06863Z" fill="#F33131"/>
<path d="M23.8811 11.6766C23.7681 11.5426 21.0631 8.38564 17.3321 6.45266C17.0901 6.32567 16.7851 6.42167 16.6581 6.66767C16.5311 6.91269 16.6271 7.21466 16.8731 7.34169C19.7471 8.82968 22.0431 11.1517 22.8281 11.9997C21.6361 13.2907 16.9451 17.9997 12.0001 17.9997C10.3222 17.9997 8.63114 17.5947 6.97214 16.7947C6.72614 16.6737 6.42516 16.7787 6.30516 17.0277C6.18418 17.2757 6.28918 17.5747 6.53818 17.6947C8.33316 18.5617 10.1712 18.9997 12.0002 18.9997C18.1612 18.9997 23.6512 12.5957 23.8822 12.3227C24.0401 12.1366 24.0391 11.8636 23.8811 11.6766Z" fill="#F33131"/>
<path d="M15.2811 5.57563C14.1431 5.19262 13.0391 4.99963 12 4.99963C5.83904 4.99963 0.349052 11.4036 0.118052 11.6766C-0.0279632 11.8486 -0.0399632 12.0987 0.0900678 12.2856C0.159068 12.3846 1.81206 14.7316 4.67706 16.6346C4.76204 16.6916 4.85706 16.7186 4.95306 16.7186C5.11407 16.7186 5.27307 16.6406 5.36907 16.4936C5.52207 16.2647 5.45907 15.9536 5.22906 15.8016C3.12508 14.4026 1.68508 12.7137 1.14607 12.0267C2.29708 10.7766 7.01907 5.99966 12 5.99966C12.931 5.99966 13.9281 6.17568 14.962 6.52265C15.224 6.61663 15.508 6.47165 15.595 6.20863C15.6831 5.94665 15.543 5.66366 15.2811 5.57563Z" fill="#F33131"/>
<path d="M20.8532 3.14662C20.6582 2.95162 20.3412 2.95162 20.1462 3.14662L3.14625 20.1466C2.95125 20.3416 2.95125 20.6586 3.14625 20.8536C3.24427 20.9506 3.37223 20.9996 3.50025 20.9996C3.62826 20.9996 3.75623 20.9506 3.85326 20.8536L20.8532 3.85363C21.0482 3.65863 21.0482 3.34162 20.8532 3.14662Z" fill="#F33131"/>
</g>
<defs>
<clipPath id="clip0">
<rect width="24" height="24" fill="white"/>
</clipPath>
</defs>
</svg>
