<svg width="22" height="21" viewBox="0 0 22 21" fill="none" xmlns="http://www.w3.org/2000/svg">
<path d="M21 19.605V18.5414C21 17.4574 20.4684 16.4142 19.5809 15.7556C17.5145 14.2256 15.4094 13.1579 14.672 12.802V11.587C14.8221 11.2679 14.9464 10.9202 15.0407 10.5439C15.5895 10.3557 15.8896 9.58662 16.0911 8.90755C16.3612 8.00348 16.3312 7.3694 16.0139 7.01759C16.3483 5.27899 16.1983 3.99857 15.5723 3.20904C15.2422 2.79587 14.8564 2.61996 14.5991 2.54224C14.4148 2.29679 14.0418 1.88362 13.4116 1.55226C12.7599 1.18409 12.0268 1 11.2208 1C11.075 1 10.9293 1.00818 10.8006 1.01636C10.4405 1.03273 10.0847 1.09818 9.73312 1.20863C9.72883 1.20863 9.72454 1.21272 9.72026 1.21272C9.33441 1.33954 8.95713 1.52362 8.59271 1.76089C8.17685 2.01452 7.79528 2.31724 7.46517 2.65269C6.81779 3.28677 6.38907 4.00266 6.20472 4.76764C6.02894 5.40172 6.01608 6.03989 6.16184 6.66578C6.08467 6.71896 6.01608 6.78032 5.95606 6.85396C5.66024 7.22622 5.64737 7.81121 5.9089 8.69892C6.08896 9.31254 6.32905 9.93843 6.73633 10.2207C6.85638 10.8098 7.05788 11.3457 7.32797 11.8202V12.8061C6.59057 13.162 4.48553 14.2256 2.41908 15.7597C1.53162 16.4183 1 17.4574 1 18.5455V19.6091C1 20.3782 1.65595 21 2.45766 21H19.5423C20.3441 21 21 20.3741 21 19.605ZM2.04609 19.605V18.5414C2.04609 17.7642 2.42337 17.0196 3.05788 16.5492C5.28725 14.9006 7.5552 13.8124 7.98821 13.612C8.2283 13.5015 8.37835 13.2724 8.37835 13.0147V11.6852C8.37835 11.5952 8.35263 11.5093 8.30547 11.4316C8.02251 10.9734 7.8253 10.4252 7.72669 9.79935C7.69239 9.5989 7.53805 9.43935 7.33655 9.39026C7.28081 9.3289 7.12219 9.108 6.92069 8.42483C6.75348 7.8603 6.76635 7.59849 6.78349 7.5044C6.9507 7.51258 7.1179 7.43894 7.22508 7.31213C7.33655 7.17713 7.36656 6.99714 7.30654 6.83759C7.0836 6.24443 7.05788 5.63489 7.22937 5.01309C7.37513 4.41583 7.70954 3.85948 8.2283 3.35222C8.50697 3.06586 8.82851 2.81632 9.17149 2.60769C9.17578 2.6036 9.18435 2.59951 9.18864 2.59542C9.47588 2.40315 9.77599 2.25997 10.0718 2.16179C10.0761 2.16179 10.0804 2.1577 10.0804 2.1577C10.3333 2.07588 10.5949 2.03089 10.8692 2.01861C11.6195 1.95725 12.2926 2.09225 12.8885 2.4236C13.5402 2.76723 13.806 3.21722 13.806 3.21722C13.8875 3.37676 14.0332 3.47085 14.2219 3.48313C14.2347 3.48313 14.5134 3.52403 14.7535 3.84721C15.0064 4.19084 15.3666 5.07445 14.9164 7.13622C14.865 7.36531 14.9893 7.5944 15.2079 7.69258C15.2294 7.76621 15.2637 8.01575 15.0793 8.63755C14.9164 9.18572 14.7835 9.43526 14.7063 9.54571C14.6077 9.52935 14.5048 9.53753 14.4105 9.57844C14.2476 9.64389 14.1275 9.78707 14.0975 9.95071C14.0075 10.4416 13.8617 10.8834 13.6731 11.2598C13.6388 11.3293 13.6217 11.4029 13.6217 11.4766V13.0147C13.6217 13.2724 13.7717 13.4974 14.0118 13.612C14.4448 13.8124 16.7128 14.9047 18.9378 16.5492C19.5723 17.0196 19.9496 17.7642 19.9496 18.5414V19.605C19.9496 19.8178 19.7653 19.9937 19.5423 19.9937H2.45766C2.23044 19.9977 2.04609 19.8218 2.04609 19.605Z" fill="#434343" stroke="#434343" stroke-width="0.5"/>
</svg>
