<svg width="19" height="19" viewBox="0 0 19 19" fill="none" xmlns="http://www.w3.org/2000/svg">
<path d="M1.33337 0.6H6.66663C7.07229 0.6 7.4 0.927783 7.4 1.33325V6.66663C7.4 7.07229 7.07222 7.4 6.66675 7.4H1.33337C0.927745 7.4 0.6 7.07225 0.6 6.66663V1.33325C0.6 0.927783 0.92771 0.6 1.33337 0.6Z" stroke="#E44747" stroke-width="1.2"/>
<path d="M1.33337 11.6H6.66663C7.07229 11.6 7.4 11.9278 7.4 12.3333V17.6666C7.4 18.0723 7.07222 18.4 6.66675 18.4H1.33337C0.927745 18.4 0.6 18.0723 0.6 17.6666V12.3333C0.6 11.9278 0.92771 11.6 1.33337 11.6Z" stroke="#E44747" stroke-width="1.2"/>
<path d="M12.3334 0.6H17.6666C18.0723 0.6 18.4 0.927783 18.4 1.33325V6.66663C18.4 7.07229 18.0722 7.4 17.6667 7.4H12.3334C11.9277 7.4 11.6 7.07225 11.6 6.66663V1.33325C11.6 0.927783 11.9277 0.6 12.3334 0.6Z" stroke="#E44747" stroke-width="1.2"/>
<path d="M12.3334 11.6H17.6666C18.0723 11.6 18.4 11.9278 18.4 12.3333V17.6666C18.4 18.0723 18.0722 18.4 17.6667 18.4H12.3334C11.9277 18.4 11.6 18.0723 11.6 17.6666V12.3333C11.6 11.9278 11.9277 11.6 12.3334 11.6Z" stroke="#E44747" stroke-width="1.2"/>
</svg>
