<svg width="25" height="25" viewBox="0 0 25 25" fill="none" xmlns="http://www.w3.org/2000/svg">
<path d="M12.4999 4.16663C11.3509 4.16663 10.4165 5.10095 10.4165 6.24997C10.4165 7.399 11.3508 8.33332 12.4999 8.33332C13.6489 8.33332 14.5832 7.399 14.5832 6.24997C14.5832 5.10095 13.6488 4.16663 12.4999 4.16663ZM12.4999 7.29162C11.9256 7.29162 11.4582 6.82419 11.4582 6.24997C11.4582 5.67576 11.9256 5.20832 12.4999 5.20832C13.0741 5.20832 13.5415 5.67576 13.5415 6.24997C13.5415 6.82419 13.0741 7.29162 12.4999 7.29162Z" fill="#E44747"/>
<path d="M14.0625 9.375H9.89585C9.60796 9.375 9.375 9.60796 9.375 9.89585V11.9792C9.375 12.2671 9.60796 12.5 9.89585 12.5H10.4167V20.3126C10.4167 20.6004 10.6497 20.8334 10.9375 20.8334H14.0625C14.3504 20.8334 14.5834 20.6004 14.5834 20.3126V9.89585C14.5834 9.60796 14.3504 9.375 14.0625 9.375ZM13.5417 19.7917H11.4583V11.9792C11.4583 11.6913 11.2253 11.4583 10.9375 11.4583H10.4166V10.4167H13.5416V19.7917H13.5417Z" fill="#E44747"/>
<path d="M12.5 0C5.60762 0 0 5.60762 0 12.5C0 19.3924 5.60762 25 12.5 25C19.3924 25 25 19.3924 25 12.5C25 5.60762 19.3924 0 12.5 0ZM12.5 23.9583C6.18184 23.9583 1.04165 18.8182 1.04165 12.5C1.04165 6.18184 6.18184 1.04165 12.5 1.04165C18.8182 1.04165 23.9583 6.18184 23.9583 12.5C23.9583 18.8182 18.8182 23.9583 12.5 23.9583Z" fill="#E44747"/>
</svg>
