<svg width="25" height="19" viewBox="0 0 25 19" fill="none" xmlns="http://www.w3.org/2000/svg">
<path d="M2 0.5H23C23.8284 0.5 24.5 1.17157 24.5 2V11.6543C24.5 12.4827 23.8284 13.1543 23 13.1543H17.8654C16.4849 13.1543 15.3654 14.2727 15.3654 15.6536V17.9412C15.1557 17.753 14.9013 17.4971 14.6168 17.1899C13.7432 16.247 12.7039 14.9535 12.0584 14.1303C11.5794 13.5196 10.8469 13.1543 10.0644 13.1543H2C1.17157 13.1543 0.5 12.4827 0.5 11.6543V2C0.5 1.17157 1.17157 0.5 2 0.5ZM15.365 18.5397C15.3649 18.5395 15.365 18.5379 15.3653 18.535C15.3652 18.5383 15.3651 18.5398 15.365 18.5397ZM15.7878 18.2583C15.7906 18.2592 15.7921 18.2598 15.7921 18.2598C15.7921 18.2599 15.7907 18.2595 15.7878 18.2583Z" stroke="#E44747"/>
</svg>
