<svg width="17" height="23" viewBox="0 0 17 23" fill="none" xmlns="http://www.w3.org/2000/svg">
<path fill-rule="evenodd" clip-rule="evenodd" d="M16.3912 1.23181V2.89763V3.58123V21.7605C16.3912 21.8054 16.3824 21.8499 16.3652 21.8914C16.3481 21.9328 16.3229 21.9705 16.2912 22.0023C16.2594 22.034 16.2217 22.0592 16.1802 22.0764C16.1388 22.0935 16.0943 22.1023 16.0494 22.1023H3.29277H2.60957H0.943359C0.852709 22.1023 0.765772 22.0663 0.701673 22.0022C0.637573 21.9381 0.601563 21.8512 0.601562 21.7605V5.2863C0.601723 5.26518 0.603882 5.24413 0.608008 5.22341V5.21892C0.614336 5.18998 0.624312 5.16195 0.637696 5.13552C0.640821 5.12927 0.644141 5.12341 0.647656 5.11736C0.662333 5.09064 0.680602 5.06607 0.701953 5.04431L4.75449 0.990601C4.77649 0.969222 4.80125 0.950894 4.82812 0.936108L4.82916 0.935522C4.83463 0.93242 4.8398 0.92949 4.84531 0.926733C4.87207 0.91305 4.9005 0.902938 4.92988 0.896655H4.93184C4.9535 0.892256 4.97555 0.890032 4.99766 0.890015H16.0494C16.0943 0.889989 16.1388 0.898812 16.1802 0.91598C16.2217 0.933148 16.2594 0.958324 16.2912 0.990067C16.3229 1.02181 16.3481 1.0595 16.3652 1.10098C16.3824 1.14246 16.3912 1.18692 16.3912 1.23181ZM4.65645 2.05681V4.94451H1.76816L4.65645 2.05681ZM4.99766 5.6281H1.28477V21.4187H15.7076V1.57361H5.34004V4.07283L5.33945 4.75642V5.2863C5.33948 5.3312 5.33066 5.37565 5.31349 5.41713C5.29632 5.45861 5.27114 5.4963 5.2394 5.52805C5.20766 5.55979 5.16997 5.58497 5.12849 5.60214C5.08701 5.6193 5.04255 5.62813 4.99766 5.6281Z" fill="#E44747" stroke="#E44747" stroke-width="0.2"/>
<path d="M4.05273 9.47729H12.9395C13.0301 9.47729 13.117 9.44128 13.1811 9.37719C13.2452 9.31309 13.2812 9.22615 13.2812 9.1355C13.2812 9.04485 13.2452 8.95791 13.1811 8.89381C13.117 8.82971 13.0301 8.7937 12.9395 8.7937H4.05273C3.96208 8.7937 3.87515 8.82971 3.81105 8.89381C3.74695 8.95791 3.71094 9.04485 3.71094 9.1355C3.71094 9.22615 3.74695 9.31309 3.81105 9.37719C3.87515 9.44128 3.96208 9.47729 4.05273 9.47729Z" fill="#E44747" stroke="#E44747" stroke-width="0.2"/>
<path d="M4.05273 11.8379H12.9395C13.0301 11.8379 13.117 11.8019 13.1811 11.7378C13.2452 11.6737 13.2812 11.5867 13.2812 11.4961C13.2812 11.4054 13.2452 11.3185 13.1811 11.2544C13.117 11.1903 13.0301 11.1543 12.9395 11.1543H4.05273C3.96208 11.1543 3.87515 11.1903 3.81105 11.2544C3.74695 11.3185 3.71094 11.4054 3.71094 11.4961C3.71094 11.5867 3.74695 11.6737 3.81105 11.7378C3.87515 11.8019 3.96208 11.8379 4.05273 11.8379Z" fill="#E44747" stroke="#E44747" stroke-width="0.2"/>
<path d="M4.05273 14.1992H12.9395C13.0301 14.1992 13.117 14.1632 13.1811 14.0991C13.2452 14.035 13.2812 13.9481 13.2812 13.8574C13.2812 13.7668 13.2452 13.6798 13.1811 13.6157C13.117 13.5516 13.0301 13.5156 12.9395 13.5156H4.05273C3.96208 13.5156 3.87515 13.5516 3.81105 13.6157C3.74695 13.6798 3.71094 13.7668 3.71094 13.8574C3.71094 13.9481 3.74695 14.035 3.81105 14.0991C3.87515 14.1632 3.96208 14.1992 4.05273 14.1992Z" fill="#E44747" stroke="#E44747" stroke-width="0.2"/>
<path d="M4.05273 16.5587H12.9395C13.0301 16.5587 13.117 16.5227 13.1811 16.4586C13.2452 16.3945 13.2812 16.3076 13.2812 16.2169C13.2812 16.1263 13.2452 16.0393 13.1811 15.9752C13.117 15.9111 13.0301 15.8751 12.9395 15.8751H4.05273C3.96208 15.8751 3.87515 15.9111 3.81105 15.9752C3.74695 16.0393 3.71094 16.1263 3.71094 16.2169C3.71094 16.3076 3.74695 16.3945 3.81105 16.4586C3.87515 16.5227 3.96208 16.5587 4.05273 16.5587Z" fill="#E44747" stroke="#E44747" stroke-width="0.2"/>
</svg>
