<svg width="25" height="17" viewBox="0 0 25 17" fill="none" xmlns="http://www.w3.org/2000/svg">
<path d="M5.72935 2.24995H24.4793C24.7672 2.24995 25.0002 2.01699 25.0002 1.7291C25.0002 1.44121 24.7672 1.20825 24.4793 1.20825H5.72935C5.44146 1.20825 5.2085 1.44121 5.2085 1.7291C5.20854 2.01699 5.4415 2.24995 5.72935 2.24995Z" fill="#E44747"/>
<path d="M24.4793 7.97913H5.72935C5.44146 7.97913 5.2085 8.21209 5.2085 8.49998C5.2085 8.78787 5.44146 9.02083 5.72935 9.02083H24.4793C24.7672 9.02083 25.0002 8.78787 25.0002 8.49998C25.0002 8.21209 24.7672 7.97913 24.4793 7.97913Z" fill="#E44747"/>
<path d="M24.4793 14.75H5.72935C5.44146 14.75 5.2085 14.983 5.2085 15.2708C5.2085 15.5587 5.44146 15.7917 5.72935 15.7917H24.4793C24.7672 15.7917 25.0002 15.5587 25.0002 15.2708C25.0002 14.983 24.7672 14.75 24.4793 14.75Z" fill="#E44747"/>
<path d="M2.60415 0.166626H0.52085C0.232959 0.166626 0 0.399585 0 0.687475V2.77082C0 3.05871 0.232959 3.29167 0.52085 3.29167H2.6042C2.89209 3.29167 3.12505 3.05871 3.12505 2.77082V0.687475C3.125 0.399585 2.89204 0.166626 2.60415 0.166626ZM2.08335 2.24997H1.04165V1.20832H2.0833V2.24997H2.08335Z" fill="#E44747"/>
<path d="M2.60415 6.9375H0.52085C0.232959 6.9375 0 7.17046 0 7.45835V9.5417C0 9.82954 0.232959 10.0625 0.52085 10.0625H2.6042C2.89204 10.0625 3.125 9.82954 3.125 9.54165V7.4583C3.125 7.17046 2.89204 6.9375 2.60415 6.9375ZM2.08335 9.02085H1.04165V7.9792H2.0833V9.02085H2.08335Z" fill="#E44747"/>
<path d="M2.60415 13.7084H0.52085C0.232959 13.7084 0 13.9413 0 14.2292V16.3125C0 16.6004 0.232959 16.8334 0.52085 16.8334H2.6042C2.89204 16.8334 3.125 16.6004 3.125 16.3125V14.2292C3.125 13.9413 2.89204 13.7084 2.60415 13.7084ZM2.08335 15.7917H1.04165V14.75H2.0833V15.7917H2.08335Z" fill="#E44747"/>
</svg>
