<svg width="87" height="87" viewBox="0 0 87 87" fill="none" xmlns="http://www.w3.org/2000/svg">
<rect width="87" height="87" fill="#E7E7E7"/>
<path d="M71.0502 67.2068V64.2766C71.0502 61.29 69.5856 58.4161 67.1406 56.6016C61.4476 52.3865 55.6482 49.445 53.6166 48.4645V45.1172C54.03 44.2381 54.3726 43.2802 54.6324 42.2433C56.1443 41.7249 56.9711 39.6061 57.5262 37.7352C58.2703 35.2445 58.1876 33.4977 57.3136 32.5284C58.2349 27.7386 57.8215 24.211 56.097 22.0359C55.1875 20.8976 54.1245 20.4129 53.4158 20.1988C52.9079 19.5226 51.8804 18.3843 50.1441 17.4714C48.3488 16.4571 46.329 15.95 44.1085 15.95C43.7069 15.95 43.3053 15.9725 42.951 15.995C41.9588 16.0401 40.9785 16.2204 40.0099 16.5247C39.9981 16.5247 39.9863 16.536 39.9745 16.536C38.9115 16.8854 37.8721 17.3925 36.8681 18.0462C35.7224 18.745 34.6712 19.579 33.7617 20.5031C31.9782 22.25 30.7971 24.2223 30.2892 26.3298C29.8049 28.0767 29.7695 29.8348 30.1711 31.5592C29.9585 31.7057 29.7695 31.8747 29.6041 32.0776C28.7891 33.1032 28.7537 34.7148 29.4742 37.1605C29.9703 38.851 30.6317 40.5753 31.7538 41.353C32.0845 42.9759 32.6397 44.4523 33.3838 45.7596V48.4757C31.3522 49.4562 25.5528 52.3865 19.8598 56.6128C17.4148 58.4273 15.9502 61.29 15.9502 64.2878V67.2181C15.9502 69.3369 17.7573 71.0499 19.9661 71.0499H67.0343C69.2431 71.0499 71.0502 69.3256 71.0502 67.2068ZM18.8322 67.2068V64.2766C18.8322 62.1352 19.8716 60.084 21.6196 58.788C27.7616 54.2461 34.0098 51.2482 35.2027 50.696C35.8641 50.3917 36.2775 49.7605 36.2775 49.0505V45.3877C36.2775 45.1398 36.2067 44.9031 36.0768 44.689C35.2972 43.4267 34.7539 41.9165 34.4822 40.1921C34.3877 39.6399 33.9625 39.2004 33.4074 39.0651C33.2538 38.8961 32.8168 38.2875 32.2617 36.4054C31.801 34.8501 31.8365 34.1288 31.8837 33.8696C32.3444 33.8921 32.805 33.6892 33.1003 33.3399C33.4074 32.968 33.4901 32.4721 33.3247 32.0325C32.7105 30.3983 32.6396 28.7191 33.1121 27.006C33.5137 25.3606 34.435 23.8278 35.8642 22.4303C36.6319 21.6414 37.5177 20.9539 38.4627 20.3791C38.4745 20.3679 38.4981 20.3566 38.5099 20.3453C39.3013 19.8156 40.1281 19.4212 40.943 19.1507C40.9548 19.1507 40.9667 19.1394 40.9667 19.1394C41.6635 18.914 42.384 18.79 43.1399 18.7562C45.2069 18.5872 47.0613 18.9591 48.7031 19.872C50.4984 20.8187 51.2307 22.0584 51.2307 22.0584C51.4551 22.4979 51.8567 22.7572 52.3764 22.791C52.4119 22.791 53.1796 22.9037 53.841 23.794C54.5379 24.7407 55.5301 27.1751 54.2899 32.8552C54.1481 33.4864 54.4907 34.1175 55.093 34.388C55.1521 34.5909 55.2466 35.2783 54.7387 36.9914C54.2899 38.5016 53.9237 39.1891 53.7111 39.4934C53.4395 39.4483 53.156 39.4709 52.8961 39.5836C52.4473 39.7639 52.1166 40.1583 52.0339 40.6091C51.7859 41.9616 51.3843 43.1787 50.8646 44.2156C50.7701 44.4072 50.7228 44.6101 50.7228 44.8129V49.0505C50.7228 49.7605 51.1362 50.3804 51.7977 50.696C52.9906 51.2482 59.2388 54.2574 65.3689 58.788C67.117 60.084 68.1564 62.1352 68.1564 64.2766V67.2068C68.1564 67.7929 67.6485 68.2775 67.0343 68.2775H19.9661C19.3401 68.2887 18.8322 67.8041 18.8322 67.2068Z" fill="white"/>
<path d="M18.8322 67.2068V64.2766C18.8322 62.1352 19.8716 60.084 21.6196 58.788C27.7616 54.2461 34.0098 51.2482 35.2027 50.696C35.8641 50.3917 36.2775 49.7605 36.2775 49.0505V45.3877C36.2775 45.1398 36.2067 44.9031 36.0768 44.689C35.2972 43.4267 34.7539 41.9165 34.4822 40.1921C34.3877 39.6399 33.9625 39.2004 33.4074 39.0651C33.2538 38.8961 32.8168 38.2875 32.2617 36.4054C31.801 34.8501 31.8365 34.1288 31.8837 33.8696C32.3444 33.8921 32.805 33.6892 33.1003 33.3399C33.4074 32.968 33.4901 32.4721 33.3247 32.0325C32.7105 30.3983 32.6396 28.7191 33.1121 27.006C33.5137 25.3606 34.435 23.8278 35.8642 22.4303C36.6319 21.6414 37.5177 20.9539 38.4627 20.3791C38.4745 20.3679 38.4981 20.3566 38.5099 20.3453C39.3013 19.8156 40.1281 19.4212 40.943 19.1507C40.9548 19.1507 40.9667 19.1394 40.9667 19.1394C41.6635 18.914 42.384 18.79 43.1399 18.7562C45.2069 18.5872 47.0613 18.9591 48.7031 19.872C50.4984 20.8187 51.2307 22.0584 51.2307 22.0584C51.4551 22.4979 51.8567 22.7572 52.3764 22.791C52.4119 22.791 53.1796 22.9037 53.841 23.794C54.5379 24.7407 55.5301 27.1751 54.2899 32.8552C54.1481 33.4864 54.4907 34.1175 55.093 34.388C55.1521 34.5909 55.2466 35.2783 54.7387 36.9914C54.2899 38.5016 53.9237 39.1891 53.7111 39.4934C53.4395 39.4483 53.156 39.4709 52.8961 39.5836C52.4473 39.7639 52.1166 40.1583 52.0339 40.6091C51.7859 41.9616 51.3843 43.1787 50.8646 44.2156C50.7701 44.4072 50.7228 44.6101 50.7228 44.8129V49.0505C50.7228 49.7605 51.1362 50.3804 51.7977 50.696C52.9906 51.2482 59.2388 54.2574 65.3689 58.788C67.117 60.084 68.1564 62.1352 68.1564 64.2766V67.2068C68.1564 67.7929 67.6485 68.2775 67.0343 68.2775H19.9661C19.3401 68.2887 18.8322 67.8041 18.8322 67.2068Z" fill="white"/>
<path d="M71.0502 67.2068V64.2766C71.0502 61.29 69.5856 58.4161 67.1406 56.6016C61.4476 52.3865 55.6482 49.445 53.6166 48.4645V45.1172C54.03 44.2381 54.3726 43.2802 54.6324 42.2433C56.1443 41.7249 56.9711 39.6061 57.5262 37.7352C58.2703 35.2445 58.1876 33.4977 57.3136 32.5284C58.2349 27.7386 57.8215 24.211 56.097 22.0359C55.1875 20.8976 54.1245 20.4129 53.4158 20.1988C52.9079 19.5226 51.8804 18.3843 50.1441 17.4714C48.3488 16.4571 46.329 15.95 44.1085 15.95C43.7069 15.95 43.3053 15.9725 42.951 15.995C41.9588 16.0401 40.9785 16.2204 40.0099 16.5247C39.9981 16.5247 39.9863 16.536 39.9745 16.536C38.9115 16.8854 37.8721 17.3925 36.8681 18.0462C35.7224 18.745 34.6712 19.579 33.7617 20.5031C31.9782 22.25 30.7971 24.2223 30.2892 26.3298C29.8049 28.0767 29.7695 29.8348 30.1711 31.5592C29.9585 31.7057 29.7695 31.8747 29.6041 32.0776C28.7891 33.1032 28.7537 34.7148 29.4742 37.1605C29.9703 38.851 30.6317 40.5753 31.7538 41.353C32.0845 42.9759 32.6397 44.4523 33.3838 45.7596V48.4757C31.3522 49.4562 25.5528 52.3865 19.8598 56.6128C17.4148 58.4273 15.9502 61.29 15.9502 64.2878V67.2181C15.9502 69.3369 17.7573 71.0499 19.9661 71.0499H67.0343C69.2431 71.0499 71.0502 69.3256 71.0502 67.2068ZM18.8322 67.2068V64.2766C18.8322 62.1352 19.8716 60.084 21.6196 58.788C27.7616 54.2461 34.0098 51.2482 35.2027 50.696C35.8641 50.3917 36.2775 49.7605 36.2775 49.0505V45.3877C36.2775 45.1398 36.2067 44.9031 36.0768 44.689C35.2972 43.4267 34.7539 41.9165 34.4822 40.1921C34.3877 39.6399 33.9625 39.2004 33.4074 39.0651C33.2538 38.8961 32.8168 38.2875 32.2617 36.4054C31.801 34.8501 31.8365 34.1288 31.8837 33.8696C32.3444 33.8921 32.805 33.6892 33.1003 33.3399C33.4074 32.968 33.4901 32.4721 33.3247 32.0325C32.7105 30.3983 32.6396 28.7191 33.1121 27.006C33.5137 25.3606 34.435 23.8278 35.8642 22.4303C36.6319 21.6414 37.5177 20.9539 38.4627 20.3791C38.4745 20.3679 38.4981 20.3566 38.5099 20.3453C39.3013 19.8156 40.1281 19.4212 40.943 19.1507C40.9548 19.1507 40.9667 19.1394 40.9667 19.1394C41.6635 18.914 42.384 18.79 43.1399 18.7562C45.2069 18.5872 47.0613 18.9591 48.7031 19.872C50.4984 20.8187 51.2307 22.0584 51.2307 22.0584C51.4551 22.4979 51.8567 22.7572 52.3764 22.791C52.4119 22.791 53.1796 22.9037 53.841 23.794C54.5379 24.7407 55.5301 27.1751 54.2899 32.8552C54.1481 33.4864 54.4907 34.1175 55.093 34.388C55.1521 34.5909 55.2466 35.2783 54.7387 36.9914C54.2899 38.5016 53.9237 39.1891 53.7111 39.4934C53.4395 39.4483 53.156 39.4709 52.8961 39.5836C52.4473 39.7639 52.1166 40.1583 52.0339 40.6091C51.7859 41.9616 51.3843 43.1787 50.8646 44.2156C50.7701 44.4072 50.7228 44.6101 50.7228 44.8129V49.0505C50.7228 49.7605 51.1362 50.3804 51.7977 50.696C52.9906 51.2482 59.2388 54.2574 65.3689 58.788C67.117 60.084 68.1564 62.1352 68.1564 64.2766V67.2068C68.1564 67.7929 67.6485 68.2775 67.0343 68.2775H19.9661C19.3401 68.2887 18.8322 67.8041 18.8322 67.2068Z" stroke="white" stroke-width="0.5"/>
<path d="M18.8322 67.2068V64.2766C18.8322 62.1352 19.8716 60.084 21.6196 58.788C27.7616 54.2461 34.0098 51.2482 35.2027 50.696C35.8641 50.3917 36.2775 49.7605 36.2775 49.0505V45.3877C36.2775 45.1398 36.2067 44.9031 36.0768 44.689C35.2972 43.4267 34.7539 41.9165 34.4822 40.1921C34.3877 39.6399 33.9625 39.2004 33.4074 39.0651C33.2538 38.8961 32.8168 38.2875 32.2617 36.4054C31.801 34.8501 31.8365 34.1288 31.8837 33.8696C32.3444 33.8921 32.805 33.6892 33.1003 33.3399C33.4074 32.968 33.4901 32.4721 33.3247 32.0325C32.7105 30.3983 32.6396 28.7191 33.1121 27.006C33.5137 25.3606 34.435 23.8278 35.8642 22.4303C36.6319 21.6414 37.5177 20.9539 38.4627 20.3791C38.4745 20.3679 38.4981 20.3566 38.5099 20.3453C39.3013 19.8156 40.1281 19.4212 40.943 19.1507C40.9548 19.1507 40.9667 19.1394 40.9667 19.1394C41.6635 18.914 42.384 18.79 43.1399 18.7562C45.2069 18.5872 47.0613 18.9591 48.7031 19.872C50.4984 20.8187 51.2307 22.0584 51.2307 22.0584C51.4551 22.4979 51.8567 22.7572 52.3764 22.791C52.4119 22.791 53.1796 22.9037 53.841 23.794C54.5379 24.7407 55.5301 27.1751 54.2899 32.8552C54.1481 33.4864 54.4907 34.1175 55.093 34.388C55.1521 34.5909 55.2466 35.2783 54.7387 36.9914C54.2899 38.5016 53.9237 39.1891 53.7111 39.4934C53.4395 39.4483 53.156 39.4709 52.8961 39.5836C52.4473 39.7639 52.1166 40.1583 52.0339 40.6091C51.7859 41.9616 51.3843 43.1787 50.8646 44.2156C50.7701 44.4072 50.7228 44.6101 50.7228 44.8129V49.0505C50.7228 49.7605 51.1362 50.3804 51.7977 50.696C52.9906 51.2482 59.2388 54.2574 65.3689 58.788C67.117 60.084 68.1564 62.1352 68.1564 64.2766V67.2068C68.1564 67.7929 67.6485 68.2775 67.0343 68.2775H19.9661C19.3401 68.2887 18.8322 67.8041 18.8322 67.2068Z" stroke="white" stroke-width="0.5"/>
</svg>
