<svg width="48" height="48" viewBox="0 0 48 48" fill="none" xmlns="http://www.w3.org/2000/svg">
<g clip-path="url(#clip0)">
<path d="M44.7237 12.0329C44.4819 11.6171 43.9487 11.476 43.5329 11.7178L39.28 14.1762C38.8642 14.418 38.7231 14.9512 38.9648 15.367C39.2066 15.7828 39.7398 15.9239 40.1556 15.6821L44.4086 13.2236C44.8244 12.9818 44.9654 12.4487 44.7237 12.0329Z" fill="#747474"/>
<path d="M44.4086 34.7817L40.1556 32.3232C39.7398 32.0815 39.2066 32.2226 38.9648 32.6384C38.7231 33.0541 38.8642 33.5873 39.28 33.8291L43.5329 36.2875C43.9487 36.5293 44.4819 36.3882 44.7237 35.9724C44.9654 35.5565 44.8244 35.0234 44.4086 34.7817Z" fill="#747474"/>
<path d="M24.067 41.2095C23.5846 41.1736 23.1648 41.5356 23.1289 42.0179C23.1257 42.061 23.1257 42.1043 23.1289 42.1475V47.0596C23.0931 47.5419 23.455 47.9618 23.9373 47.9977C24.4196 48.0335 24.8395 47.6716 24.8753 47.1893C24.8786 47.1461 24.8786 47.1028 24.8753 47.0596V42.1475C24.9111 41.6653 24.5491 41.2453 24.067 41.2095Z" fill="#747474"/>
<path d="M8.72009 14.1762L4.4671 11.7178C4.0513 11.476 3.51811 11.6171 3.27636 12.0329C3.0346 12.4487 3.17568 12.9819 3.59148 13.2236L7.84448 15.6821C8.26027 15.9239 8.79346 15.7828 9.03522 15.367C9.27698 14.9511 9.13589 14.418 8.72009 14.1762Z" fill="#747474"/>
<path d="M24.0674 0.00244837C23.5851 -0.0333942 23.1652 0.328519 23.1294 0.81083C23.1261 0.854009 23.1261 0.897309 23.1294 0.940489V5.8526C23.132 6.33239 23.5204 6.72076 24.0002 6.72341C24.4838 6.72341 24.8758 6.33142 24.8758 5.84779V0.940609C24.9115 0.458298 24.5496 0.0382909 24.0674 0.00244837Z" fill="#747474"/>
<path d="M15.6773 7.84448L13.2236 3.59148C12.9819 3.17568 12.4487 3.0346 12.0329 3.27636C11.6171 3.51811 11.476 4.0513 11.7178 4.4671L14.1714 8.72009C14.4132 9.13589 14.9464 9.27698 15.3621 9.03522C15.7779 8.79334 15.919 8.26027 15.6773 7.84448Z" fill="#747474"/>
<path d="M47.868 23.9329C47.8359 23.5005 47.4921 23.1566 47.0596 23.1245H42.1475C41.6652 23.0887 41.2453 23.4506 41.2095 23.9329C41.1736 24.4152 41.5356 24.8351 42.0179 24.8709C42.061 24.8742 42.1045 24.8742 42.1476 24.8709H47.0598C47.5419 24.8352 47.9039 24.4152 47.868 23.9329Z" fill="#747474"/>
<path d="M5.98248 23.1294C5.9393 23.1261 5.896 23.1261 5.85282 23.1294H0.940712C0.458402 23.1652 0.0964887 23.5852 0.132331 24.0674C0.164445 24.4998 0.508197 24.8437 0.940712 24.8758H5.85282C6.33513 24.9116 6.75502 24.5497 6.79086 24.0674C6.8267 23.5851 6.46479 23.1651 5.98248 23.1294Z" fill="#747474"/>
<path d="M24.0036 11.1494C16.9065 11.1485 11.1524 16.9009 11.1514 23.998C11.1509 27.4075 12.5054 30.6775 14.9166 33.0879C17.3233 35.5006 20.5923 36.8545 24 36.8502C31.097 36.8512 36.8512 31.0987 36.8521 24.0016C36.8531 16.9045 31.1006 11.1504 24.0036 11.1494ZM31.8516 31.8659C27.5153 36.2023 20.4846 36.2023 16.1483 31.8659C14.0623 29.78 12.8921 26.9497 12.896 23.9998C12.8918 21.054 14.0623 18.2281 16.1483 16.1481V16.1626C20.4846 11.8262 27.5153 11.8262 31.8516 16.1626C36.1881 20.4989 36.1881 27.5296 31.8516 31.8659Z" fill="#747474"/>
<path d="M36.285 43.5368C36.2843 43.5355 36.2835 43.5341 36.2827 43.5329L33.8242 39.28C33.5825 38.8642 33.0493 38.7231 32.6335 38.9648C32.2177 39.2066 32.0766 39.7398 32.3183 40.1556L34.7768 44.4086C35.0176 44.8239 35.5492 44.9659 35.9652 44.7261C36.3819 44.4859 36.5252 43.9534 36.285 43.5368Z" fill="#747474"/>
<path d="M35.9962 3.27636C35.5804 3.0346 35.0472 3.17568 34.8054 3.59148L32.347 7.84447C32.1035 8.25931 32.2426 8.79286 32.6573 9.03618C32.6581 9.03666 32.6588 9.03714 32.6597 9.03762C33.0751 9.27986 33.6083 9.1395 33.8505 8.72394C33.8513 8.72262 33.8521 8.72129 33.8528 8.72009L36.3113 4.4671C36.553 4.05118 36.412 3.51811 35.9962 3.27636Z" fill="#747474"/>
<path d="M15.367 38.9648C14.9512 38.7231 14.418 38.8642 14.1762 39.28L11.7178 43.5329C11.476 43.9487 11.6171 44.4819 12.0329 44.7237C12.4487 44.9654 12.9819 44.8244 13.2236 44.4086L15.6821 40.1556C15.9239 39.7397 15.7828 39.2066 15.367 38.9648Z" fill="#747474"/>
<path d="M9.03522 32.6335C8.79346 32.2177 8.26027 32.0766 7.84448 32.3183L3.59148 34.7768C3.17568 35.0186 3.0346 35.5518 3.27636 35.9676C3.51811 36.3834 4.0513 36.5244 4.4671 36.2827L8.72009 33.8242C9.13589 33.5823 9.27698 33.0493 9.03522 32.6335Z" fill="#747474"/>
</g>
<defs>
<clipPath id="clip0">
<rect width="48" height="48" fill="white"/>
</clipPath>
</defs>
</svg>
