<svg width="48" height="48" viewBox="0 0 48 48" fill="none" xmlns="http://www.w3.org/2000/svg">
<path d="M37.8299 2.43038H28.8063V0.708861C28.8064 0.615757 28.7879 0.523556 28.7519 0.437529C28.716 0.351502 28.6632 0.273336 28.5968 0.207502C28.5303 0.141667 28.4513 0.0894552 28.3645 0.0538505C28.2776 0.0182458 28.1845 -5.3132e-05 28.0905 1.15875e-07H19.9095C19.8155 -5.3132e-05 19.7224 0.0182458 19.6355 0.0538505C19.5487 0.0894552 19.4697 0.141667 19.4032 0.207502C19.3368 0.273336 19.284 0.351502 19.2481 0.437529C19.2121 0.523556 19.1936 0.615757 19.1937 0.708861V2.43038H10.1701C9.32965 2.43134 8.52388 2.7624 7.92958 3.35091C7.33528 3.93942 7.00097 4.73734 7 5.56962V37.6956C7.00097 38.5279 7.33528 39.3258 7.92958 39.9143C8.52388 40.5028 9.32965 40.8339 10.1701 40.8348H15.1441V43.443C15.1441 43.5361 15.1626 43.6283 15.1985 43.7144C15.2345 43.8004 15.2872 43.8786 15.3537 43.9444C15.4202 44.0102 15.4991 44.0624 15.586 44.098C15.6728 44.1337 15.7659 44.152 15.86 44.1519H16.3713V47.2911C16.3713 47.4791 16.4467 47.6594 16.5809 47.7924C16.7152 47.9253 16.8973 48 17.0871 48C17.277 48 17.459 47.9253 17.5933 47.7924C17.7275 47.6594 17.8029 47.4791 17.8029 47.2911V44.1519H18.3142C18.5041 44.1519 18.6862 44.0772 18.8204 43.9443C18.9547 43.8113 19.0301 43.631 19.0301 43.443V40.8348H28.9699V43.443C28.9699 43.631 29.0453 43.8113 29.1796 43.9443C29.3138 44.0772 29.4959 44.1519 29.6858 44.1519H30.1971V47.2911C30.1971 47.4791 30.2725 47.6594 30.4067 47.7924C30.541 47.9253 30.723 48 30.9129 48C31.1027 48 31.2848 47.9253 31.4191 47.7924C31.5533 47.6594 31.6287 47.4791 31.6287 47.2911V44.1519H32.14C32.2341 44.152 32.3272 44.1337 32.414 44.098C32.5009 44.0624 32.5798 44.0102 32.6463 43.9444C32.7128 43.8786 32.7655 43.8004 32.8015 43.7144C32.8374 43.6283 32.8559 43.5361 32.8559 43.443V40.8348H37.8299C38.6704 40.8339 39.4761 40.5028 40.0704 39.9143C40.6647 39.3258 40.999 38.5279 41 37.6956V5.56962C40.999 4.73734 40.6647 3.93942 40.0704 3.35091C39.4761 2.7624 38.6704 2.43134 37.8299 2.43038ZM20.6254 1.41772H27.3746V2.43038H20.6254V1.41772ZM8.43167 5.56962C8.43221 5.11321 8.61554 4.67565 8.94144 4.35291C9.26735 4.03018 9.70922 3.84864 10.1701 3.8481H37.8299C38.2908 3.84864 38.7327 4.03018 39.0586 4.35291C39.3845 4.67565 39.5678 5.11321 39.5683 5.56962V7.76506H8.43167V5.56962ZM31.4258 39.4159H16.5742V23.4159H31.4258V39.4159ZM17.6 42.7342H16.5774V40.8348H17.6V42.7342ZM31.4258 42.7342H30.4032V40.8348H31.4258V42.7342ZM39.57 37.6956C39.5694 38.152 39.3861 38.5896 39.0602 38.9123C38.7343 39.235 38.2924 39.4166 37.8315 39.4171H32.8575V22.707C32.8576 22.6139 32.8391 22.5217 32.8031 22.4357C32.7672 22.3497 32.7144 22.2715 32.648 22.2057C32.5815 22.1398 32.5026 22.0876 32.4157 22.052C32.3288 22.0164 32.2357 21.9981 32.1417 21.9982H15.86C15.7659 21.9981 15.6728 22.0164 15.586 22.052C15.4991 22.0876 15.4202 22.1398 15.3537 22.2057C15.2872 22.2715 15.2345 22.3497 15.1985 22.4357C15.1626 22.5217 15.1441 22.6139 15.1441 22.707V39.4171H10.1701C9.70922 39.4166 9.26735 39.235 8.94144 38.9123C8.61554 38.5896 8.43221 38.152 8.43167 37.6956V9.18279H39.5683L39.57 37.6956Z" fill="#747474"/>
<path d="M24 38C24.5933 38 25.1734 37.8241 25.6667 37.4944C26.1601 37.1648 26.5446 36.6962 26.7716 36.1481C26.9987 35.5999 27.0581 34.9967 26.9424 34.4147C26.8266 33.8328 26.5409 33.2982 26.1213 32.8787C25.7018 32.4591 25.1672 32.1734 24.5853 32.0576C24.0033 31.9419 23.4001 32.0013 22.8519 32.2284C22.3038 32.4554 21.8352 32.8399 21.5056 33.3333C21.1759 33.8266 21 34.4067 21 35C21.0009 35.7954 21.3172 36.5579 21.8796 37.1204C22.4421 37.6828 23.2046 37.9991 24 38ZM24 33.4483C24.3069 33.4483 24.6069 33.5393 24.8621 33.7098C25.1173 33.8803 25.3162 34.1226 25.4336 34.4062C25.5511 34.6897 25.5818 35.0017 25.5219 35.3027C25.462 35.6037 25.3142 35.8802 25.0972 36.0972C24.8802 36.3142 24.6037 36.462 24.3027 36.5219C24.0017 36.5818 23.6897 36.5511 23.4062 36.4336C23.1226 36.3162 22.8803 36.1173 22.7098 35.8621C22.5393 35.6069 22.4483 35.3069 22.4483 35C22.4488 34.5886 22.6125 34.1943 22.9034 33.9034C23.1943 33.6125 23.5886 33.4488 24 33.4483Z" fill="#747474"/>
<path d="M24 31C24.5933 31 25.1734 30.8241 25.6667 30.4944C26.1601 30.1648 26.5446 29.6962 26.7716 29.1481C26.9987 28.5999 27.0581 27.9967 26.9424 27.4147C26.8266 26.8328 26.5409 26.2982 26.1213 25.8787C25.7018 25.4591 25.1672 25.1734 24.5853 25.0576C24.0033 24.9419 23.4001 25.0013 22.8519 25.2284C22.3038 25.4554 21.8352 25.8399 21.5056 26.3333C21.1759 26.8266 21 27.4067 21 28C21.0009 28.7954 21.3172 29.5579 21.8796 30.1204C22.4421 30.6828 23.2046 30.9991 24 31ZM24 26.4483C24.3069 26.4483 24.6069 26.5393 24.8621 26.7098C25.1173 26.8803 25.3162 27.1226 25.4336 27.4062C25.5511 27.6897 25.5818 28.0017 25.5219 28.3027C25.462 28.6037 25.3142 28.8802 25.0972 29.0972C24.8802 29.3142 24.6037 29.462 24.3027 29.5219C24.0017 29.5818 23.6897 29.5511 23.4062 29.4336C23.1226 29.3162 22.8803 29.1173 22.7098 28.8621C22.5393 28.6069 22.4483 28.3069 22.4483 28C22.4488 27.5886 22.6125 27.1943 22.9034 26.9034C23.1943 26.6125 23.5886 26.4488 24 26.4483Z" fill="#747474"/>
</svg>
