<svg width="48" height="48" viewBox="0 0 48 48" fill="none" xmlns="http://www.w3.org/2000/svg">
<path d="M30.0949 14.2344H17.1551C16.9813 14.2347 16.8146 14.3039 16.6918 14.427C16.569 14.55 16.5 14.7168 16.5 14.8906V21.0751C16.5 21.1613 16.5169 21.2467 16.5499 21.3263C16.5828 21.406 16.6312 21.4783 16.6921 21.5393C16.753 21.6002 16.8254 21.6486 16.9051 21.6815C16.9847 21.7145 17.0701 21.7314 17.1563 21.7314H30.0949C30.2688 21.7312 30.4354 21.6619 30.5583 21.5389C30.6811 21.4158 30.7501 21.249 30.75 21.0751V14.8906C30.75 14.7168 30.681 14.55 30.5582 14.427C30.4354 14.3039 30.2687 14.2347 30.0949 14.2344ZM29.4375 20.4189H17.8125V15.5469H29.4375V20.4189Z" fill="#747474"/>
<path d="M36.0938 13.5748H33.75V13.3873C33.7493 12.8156 33.5219 12.2676 33.1177 11.8633C32.7135 11.4591 32.1654 11.2317 31.5938 11.231H27.1811V6.91853H33.6263C33.9304 6.92242 34.2322 6.86587 34.5143 6.75218C34.7964 6.63848 35.0532 6.4699 35.2696 6.25621C35.486 6.04253 35.6579 5.78799 35.7752 5.50736C35.8925 5.22674 35.9529 4.92562 35.9529 4.62147C35.9529 4.31732 35.8925 4.0162 35.7752 3.73557C35.6579 3.45495 35.486 3.20041 35.2696 2.98672C35.0532 2.77304 34.7964 2.60445 34.5143 2.49076C34.2322 2.37707 33.9304 2.32052 33.6263 2.32441H13.6238C13.3196 2.32052 13.0178 2.37707 12.7357 2.49076C12.4536 2.60445 12.1968 2.77304 11.9804 2.98672C11.764 3.20041 11.5921 3.45495 11.4748 3.73557C11.3575 4.0162 11.2971 4.31732 11.2971 4.62147C11.2971 4.92562 11.3575 5.22674 11.4748 5.50736C11.5921 5.78799 11.764 6.04253 11.9804 6.25621C12.1968 6.4699 12.4536 6.63848 12.7357 6.75218C13.0178 6.86587 13.3196 6.92242 13.6238 6.91853H20.0689V11.231H15.6551C15.0831 11.232 14.5349 11.46 14.1309 11.8648C13.7268 12.2696 13.4999 12.8183 13.5 13.3903V13.5778H8.625V10.0168C8.62495 9.9218 8.6043 9.82796 8.56449 9.74173C8.52468 9.6555 8.46664 9.57892 8.39437 9.51728L4.21875 5.96228V2.98403C4.21865 2.81001 4.14948 2.64315 4.02643 2.5201C3.90338 2.39705 3.73652 2.32788 3.5625 2.32778H0.65625C0.482232 2.32788 0.31537 2.39705 0.192321 2.5201C0.0692717 2.64315 9.93536e-05 2.81001 0 2.98403L0 32.981C0 33.1551 0.0691404 33.322 0.192211 33.4451C0.315282 33.5681 0.482202 33.6373 0.65625 33.6373H3.5625C3.73655 33.6373 3.90347 33.5681 4.02654 33.4451C4.14961 33.322 4.21875 33.1551 4.21875 32.981V30.0043L8.39437 26.4478C8.4665 26.3864 8.52447 26.31 8.56428 26.2241C8.60409 26.1381 8.62481 26.0445 8.625 25.9498V22.3873H13.5V22.5748C13.5006 23.1465 13.728 23.6946 14.1322 24.0988C14.5365 24.5031 15.0846 24.7304 15.6562 24.731H31.5949C32.1664 24.7301 32.7142 24.5026 33.1182 24.0984C33.5222 23.6942 33.7494 23.1463 33.75 22.5748V22.3873H36.0938C36.914 22.3882 37.7004 22.7144 38.2804 23.2944C38.8604 23.8744 39.1866 24.6608 39.1875 25.481V30.0095C39.1876 30.1835 39.2568 30.3504 39.3798 30.4735C39.5029 30.5965 39.6697 30.6657 39.8438 30.6658H47.3438C47.5178 30.6657 47.6846 30.5965 47.8077 30.4735C47.9307 30.3504 47.9999 30.1835 48 30.0095V25.4825C47.9968 22.3256 46.7414 19.2989 44.5093 17.0665C42.2772 14.8341 39.2506 13.5784 36.0938 13.5748ZM12.6375 4.62466C12.6379 4.36338 12.742 4.11295 12.9269 3.92837C13.1118 3.7438 13.3625 3.64018 13.6238 3.64028H33.6263C33.7572 3.63773 33.8873 3.6613 34.009 3.70964C34.1306 3.75797 34.2415 3.83008 34.335 3.92176C34.4284 4.01344 34.5027 4.12284 34.5534 4.24356C34.6041 4.36429 34.6302 4.49391 34.6302 4.62484C34.6302 4.75578 34.6041 4.8854 34.5534 5.00613C34.5027 5.12685 34.4284 5.23625 34.335 5.32793C34.2415 5.41961 34.1306 5.49172 34.009 5.54005C33.8873 5.58838 33.7572 5.61196 33.6263 5.60941H13.6238C13.3624 5.60951 13.1117 5.50584 12.9268 5.32118C12.7419 5.13653 12.6378 4.886 12.6375 4.62466ZM21.3799 6.92191H25.8686V11.2344H21.3814L21.3799 6.92191ZM2.90625 32.3248H1.3125V3.64028H2.90625V32.3248ZM7.3125 25.6453L4.21875 28.2804V7.68503L7.3125 10.3202V25.6453ZM8.625 21.0748V14.8873H13.5V21.0748H8.625ZM32.4375 22.5748C32.4373 22.7985 32.3483 23.013 32.1902 23.1712C32.032 23.3294 31.8175 23.4183 31.5938 23.4185H15.6551C15.4316 23.418 15.2174 23.3289 15.0594 23.1708C14.9015 23.0126 14.8127 22.7983 14.8125 22.5748V13.3903C14.8127 13.1666 14.9017 12.9521 15.0598 12.7939C15.218 12.6357 15.4325 12.5467 15.6562 12.5465H31.5949C31.8186 12.5467 32.0331 12.6357 32.1913 12.7939C32.3495 12.9521 32.4384 13.1666 32.4386 13.3903V22.5748H32.4375ZM46.6875 29.3533H40.5V25.4825C40.4991 24.3141 40.0346 23.1937 39.2085 22.3673C38.3824 21.5409 37.2622 21.0761 36.0938 21.0748H33.75V14.8873H36.0938C38.9024 14.8905 41.5951 16.0076 43.5812 17.9936C45.5672 19.9797 46.6843 22.6724 46.6875 25.481V29.3533Z" fill="#747474"/>
<path d="M43.0537 33.3903C42.6577 33.9633 39.1875 39.0528 39.1875 41.2653C39.1875 42.434 39.6517 43.5547 40.4781 44.381C41.3044 45.2074 42.4251 45.6716 43.5938 45.6716C44.7624 45.6716 45.8831 45.2074 46.7094 44.381C47.5358 43.5547 48 42.434 48 41.2653C48 39.0528 44.5298 33.9626 44.1338 33.3903C44.0702 33.3075 43.9884 33.2404 43.8948 33.1942C43.8012 33.148 43.6982 33.124 43.5938 33.124C43.4893 33.124 43.3863 33.148 43.2927 33.1942C43.1991 33.2404 43.1173 33.3075 43.0537 33.3903ZM43.5938 44.3598C42.7735 44.3589 41.9871 44.0327 41.4071 43.4527C40.8271 42.8727 40.5009 42.0863 40.5 41.2661C40.5 40.0713 42.2227 37.0395 43.5938 34.941C44.9647 37.041 46.6875 40.0713 46.6875 41.2661C46.6866 42.0863 46.3604 42.8727 45.7804 43.4527C45.2004 44.0327 44.414 44.3589 43.5938 44.3598Z" fill="#747474"/>
</svg>
