<svg width="58" height="54" viewBox="0 0 58 54" fill="none" xmlns="http://www.w3.org/2000/svg">
<path d="M3.28508 22.2834C3.73624 23.813 4.46327 25.2472 5.43031 26.5152C4.62896 26.8956 3.95184 27.4954 3.47745 28.2449C3.00306 28.9945 2.75083 29.8632 2.75 30.7502V50.4377C2.75087 51.1834 3.04746 51.8983 3.57472 52.4255C4.10198 52.9528 4.81685 53.2494 5.5625 53.2502H28.0625C28.8082 53.2494 29.523 52.9528 30.0503 52.4256C30.5776 51.8983 30.8742 51.1834 30.875 50.4377V48.5627C30.8751 48.2433 30.8206 47.9263 30.7137 47.6252H35.8536L35.5644 52.2541C35.5564 52.3819 35.5746 52.51 35.618 52.6305C35.6614 52.751 35.729 52.8613 35.8167 52.9546C35.9044 53.0479 36.0102 53.1223 36.1278 53.1732C36.2453 53.224 36.372 53.2502 36.5 53.2502H47.75C47.878 53.2502 48.0047 53.224 48.1222 53.1732C48.2398 53.1223 48.3456 53.0479 48.4333 52.9546C48.521 52.8613 48.5886 52.751 48.632 52.6305C48.6754 52.51 48.6936 52.3819 48.6856 52.2541L48.3964 47.6252H54.0781C54.8859 47.6243 55.6604 47.303 56.2316 46.7318C56.8028 46.1606 57.1241 45.3862 57.125 44.5784V28.1721C57.1241 27.3643 56.8028 26.5898 56.2316 26.0186C55.6604 25.4474 54.8859 25.1261 54.0781 25.1252H28.2969C27.8269 25.1252 27.3633 25.234 26.9425 25.4432C26.5216 25.6523 26.1549 25.9561 25.8711 26.3306C25.3704 26.1539 24.8434 26.0633 24.3125 26.0627H21.4473C22.7403 25.0832 23.7656 23.7935 24.4282 22.3127H28.0625C28.8082 22.3119 29.523 22.0153 30.0503 21.488C30.5775 20.9608 30.8741 20.2459 30.875 19.5002V15.7502C30.8742 15.1645 30.6908 14.5936 30.3505 14.117C30.0101 13.6403 29.5296 13.2816 28.9759 13.0908C28.776 9.7517 27.3088 6.61492 24.8738 4.32134C22.4389 2.02776 19.2201 0.750488 15.875 0.750488C12.5299 0.750488 9.31111 2.02776 6.87617 4.32134C4.44123 6.61492 2.97396 9.7517 2.77414 13.0908C2.2204 13.2816 1.73991 13.6403 1.39953 14.117C1.05915 14.5936 0.875805 15.1645 0.875 15.7502V19.5002C0.875913 20.1761 1.11987 20.8292 1.56233 21.3401C2.00479 21.8511 2.61624 22.1859 3.28508 22.2834ZM21.785 9.26602C22.6073 10.3155 23.1333 11.5661 23.3084 12.8878C21.2131 12.6791 19.891 11.8461 19.1806 11.2294C20.0979 10.6428 20.9686 9.98638 21.785 9.26602ZM8.43934 12.909C8.60805 11.6009 9.11913 10.3605 9.9209 9.31315C10.7227 8.26584 11.7867 7.44875 13.0055 6.94449C14.2243 6.44022 15.5546 6.26665 16.862 6.44132C18.1693 6.61598 19.4074 7.13269 20.4511 7.93923C19.1524 9.07055 14.6669 12.5612 8.43934 12.909ZM9.23961 25.127C9.57057 25.4645 9.92591 25.7773 10.3027 26.0627H7.48695C6.50811 24.9701 5.75308 23.696 5.26461 22.3127H7.32184C7.78807 23.3577 8.43757 24.3108 9.23961 25.127ZM17.1706 27.9377L15.875 30.5289L14.5794 27.9377H17.1706ZM29 50.4377C28.9997 50.6863 28.9009 50.9246 28.7251 51.1003C28.5493 51.2761 28.3111 51.375 28.0625 51.3752H25.25V47.6252H28.0625C28.3111 47.6255 28.5493 47.7244 28.7251 47.9001C28.9009 48.0759 28.9997 48.3142 29 48.5627V50.4377ZM28.2969 45.7502C27.9862 45.7499 27.6883 45.6263 27.4686 45.4066C27.2489 45.1869 27.1253 44.8891 27.125 44.5784V43.8752H36.088L35.9708 45.7502H28.2969ZM37.498 51.3752L38.3183 38.2502H45.9317L46.752 51.3752H37.498ZM54.0781 45.7502H48.2792L48.162 43.8752H55.25V44.5784C55.2497 44.8891 55.1261 45.1869 54.9064 45.4066C54.6867 45.6263 54.3888 45.7499 54.0781 45.7502ZM28.2969 27.0002H54.0781C54.3888 27.0006 54.6867 27.1242 54.9064 27.3439C55.1261 27.5635 55.2497 27.8614 55.25 28.1721V42.0002H48.0448L47.7481 37.2541C47.7332 37.0161 47.6282 36.7927 47.4543 36.6294C47.2805 36.4662 47.051 36.3753 46.8125 36.3752H37.4375C37.199 36.3753 36.9695 36.4662 36.7957 36.6294C36.6218 36.7927 36.5168 37.0161 36.5019 37.2541L36.2052 42.0002H27.125V28.1721C27.1253 27.8614 27.2489 27.5635 27.4686 27.3439C27.6883 27.1242 27.9862 27.0006 28.2969 27.0002ZM25.2519 28.0996C25.2519 28.1238 25.25 28.1477 25.25 28.1721V44.5784C25.2495 44.9807 25.3292 45.3791 25.4844 45.7502H10.25V39.1877C10.25 38.9391 10.1512 38.7006 9.97541 38.5248C9.7996 38.349 9.56114 38.2502 9.3125 38.2502C9.06386 38.2502 8.8254 38.349 8.64959 38.5248C8.47377 38.7006 8.375 38.9391 8.375 39.1877V46.6877C8.375 46.9364 8.47377 47.1748 8.64959 47.3507C8.8254 47.5265 9.06386 47.6252 9.3125 47.6252H23.375V51.3752H5.5625C5.31395 51.375 5.07565 51.2761 4.8999 51.1003C4.72414 50.9246 4.62528 50.6863 4.625 50.4377V30.7502C4.62589 30.1207 4.83763 29.5095 5.22644 29.0144C5.61526 28.5192 6.15872 28.1686 6.77012 28.0184C7.67603 28.8901 8.70206 29.6277 9.81699 30.2087C9.92617 30.2656 10.0455 30.3005 10.1681 30.3112C10.2908 30.322 10.4143 30.3086 10.5318 30.2716C10.6492 30.2346 10.7582 30.1749 10.8526 30.0958C10.9469 30.0167 11.0248 29.9198 11.0817 29.8106C11.1386 29.7015 11.1734 29.5821 11.1842 29.4595C11.195 29.3368 11.1815 29.2133 11.1446 29.0958C11.1076 28.9784 11.0479 28.8694 10.9688 28.775C10.8897 28.6807 10.7928 28.6028 10.6836 28.5459C10.3297 28.3615 9.98575 28.1585 9.65328 27.9377H12.4831L15.0365 33.0445C15.1144 33.2002 15.2341 33.3312 15.3822 33.4227C15.5303 33.5142 15.7009 33.5627 15.875 33.5627C16.0491 33.5627 16.2197 33.5142 16.3678 33.4227C16.5159 33.3312 16.6356 33.2002 16.7135 33.0445L19.2669 27.9377H24.3125C24.6325 27.938 24.9502 27.9928 25.2519 28.0996ZM21.1719 23.8138C20.4852 24.5251 19.6623 25.0908 18.7522 25.4771C17.8422 25.8635 16.8637 26.0626 15.875 26.0626C14.8863 26.0626 13.9078 25.8635 12.9978 25.4771C12.0877 25.0908 11.2648 24.5251 10.5781 23.8138C9.16508 22.3846 8.37332 20.4554 8.375 18.4456V14.7901C12.0614 14.6184 15.1735 13.4605 17.5039 12.216C18.341 13.0766 20.201 14.5314 23.375 14.7769V18.4456C23.3767 20.4554 22.5849 22.3846 21.1719 23.8138ZM29 19.5002C28.9997 19.7488 28.9009 19.9871 28.7251 20.1628C28.5493 20.3386 28.3111 20.4375 28.0625 20.4377H25.0391C25.179 19.7829 25.2497 19.1152 25.25 18.4456V14.8127H28.0625C28.3111 14.813 28.5493 14.9119 28.7251 15.0876C28.9009 15.2634 28.9997 15.5017 29 15.7502V19.5002ZM15.875 2.62524C18.6954 2.62873 21.4118 3.69005 23.4875 5.59947C25.5632 7.50889 26.8472 10.1275 27.0856 12.9377H25.2031C24.971 10.6251 23.888 8.48107 22.1644 6.92178C20.4407 5.36248 18.1993 4.49907 15.875 4.49907C13.5507 4.49907 11.3093 5.36248 9.58562 6.92178C7.86197 8.48107 6.77901 10.6251 6.54688 12.9377H4.66437C4.90282 10.1275 6.18676 7.50889 8.26248 5.59947C10.3382 3.69005 13.0546 2.62873 15.875 2.62524ZM2.75 15.7502C2.75028 15.5017 2.84914 15.2634 3.0249 15.0876C3.20065 14.9119 3.43895 14.813 3.6875 14.8127H6.5V18.4456C6.50046 19.1152 6.57136 19.7829 6.71152 20.4377H3.6875C3.43895 20.4375 3.20065 20.3386 3.0249 20.1628C2.84914 19.9871 2.75028 19.7488 2.75 19.5002V15.7502Z" fill="white"/>
</svg>
