<svg width="326" height="48" viewBox="0 0 326 48" fill="none" xmlns="http://www.w3.org/2000/svg">
<path d="M20.4034 31.4922C20.4034 37.1265 15.836 41.694 10.2017 41.694C4.56747 41.694 0 37.1265 0 31.4922C0 25.858 4.56747 21.2905 10.2017 21.2905C15.836 21.2905 20.4034 25.858 20.4034 31.4922Z" fill="white"/>
<path d="M79.8395 31.4922C79.8395 37.1265 75.272 41.694 69.6378 41.694C64.0035 41.694 59.436 37.1265 59.436 31.4922C59.436 25.858 64.0035 21.2905 69.6378 21.2905C75.272 21.2905 79.8395 25.858 79.8395 31.4922Z" fill="white"/>
<path d="M27.5002 31.4927H52.7828V34.154H27.5002V31.4927Z" fill="white"/>
<path d="M19.5124 0L9.75806 14.6373H70.5248L59.9796 0H19.5124Z" fill="white"/>
<path d="M0 7.98389H8.42751V10.2017H0V7.98389Z" fill="white"/>
<path d="M71.8555 7.98389H80.283V10.2017H71.8555V7.98389Z" fill="white"/>
<path d="M111.545 16.015V20.6982H120.942V25.3509H111.545V32.6494H105.524V11.3622H122.219V16.015H111.545ZM138.466 28.5136H129.464L127.792 32.6494H121.649L131.046 11.3622H136.976L146.403 32.6494H140.138L138.466 28.5136ZM136.702 24.0737L133.965 17.2618L131.228 24.0737H136.702ZM157.416 26.9931H154.131V32.6494H148.11V11.3622H157.841C159.767 11.3622 161.44 11.6866 162.859 12.3354C164.278 12.9638 165.373 13.8761 166.143 15.0723C166.914 16.2481 167.299 17.6369 167.299 19.2385C167.299 20.7793 166.934 22.1275 166.204 23.283C165.495 24.4184 164.471 25.3104 163.133 25.9592L167.725 32.6494H161.278L157.416 26.9931ZM161.217 19.2385C161.217 18.2451 160.903 17.4747 160.274 16.9273C159.646 16.3799 158.713 16.1062 157.476 16.1062H154.131V22.3403H157.476C158.713 22.3403 159.646 22.0768 160.274 21.5497C160.903 21.0023 161.217 20.2319 161.217 19.2385ZM186.981 21.5497C188.198 21.9754 189.151 22.6444 189.84 23.5567C190.529 24.4488 190.874 25.5334 190.874 26.8106C190.874 28.6758 190.124 30.1152 188.624 31.1289C187.123 32.1426 184.954 32.6494 182.116 32.6494H170.621V11.3622H181.508C184.224 11.3622 186.292 11.8691 187.711 12.8827C189.13 13.8761 189.84 15.2243 189.84 16.9273C189.84 17.941 189.587 18.8533 189.08 19.6642C188.593 20.4549 187.894 21.0834 186.981 21.5497ZM176.581 15.7109V19.8163H180.717C182.744 19.8163 183.758 19.127 183.758 17.7484C183.758 16.3901 182.744 15.7109 180.717 15.7109H176.581ZM181.629 28.3007C183.738 28.3007 184.792 27.581 184.792 26.1416C184.792 24.7022 183.738 23.9825 181.629 23.9825H176.581V28.3007H181.629ZM217.105 28.5136H208.104L206.431 32.6494H200.288L209.685 11.3622H215.615L225.042 32.6494H218.778L217.105 28.5136ZM215.341 24.0737L212.604 17.2618L209.867 24.0737H215.341ZM236.126 33.0752C232.963 33.0752 230.5 32.2135 228.736 30.4903C226.993 28.767 226.121 26.3241 226.121 23.1614V11.3622H232.142V22.9789C232.142 26.3849 233.491 28.0879 236.187 28.0879C238.863 28.0879 240.201 26.3849 240.201 22.9789V11.3622H246.131V23.1614C246.131 26.3241 245.249 28.767 243.485 30.4903C241.742 32.2135 239.289 33.0752 236.126 33.0752ZM254.415 16.1366H247.876V11.3622H266.944V16.1366H260.436V32.6494H254.415V16.1366ZM279.625 33.0752C277.374 33.0752 275.347 32.5987 273.543 31.6459C271.759 30.693 270.35 29.3752 269.316 27.6925C268.302 26.0098 267.795 24.1143 267.795 22.0058C267.795 19.8974 268.302 18.0018 269.316 16.3191C270.35 14.6364 271.759 13.3186 273.543 12.3658C275.347 11.4129 277.374 10.9365 279.625 10.9365C281.875 10.9365 283.892 11.4129 285.676 12.3658C287.481 13.3186 288.89 14.6364 289.903 16.3191C290.937 18.0018 291.454 19.8974 291.454 22.0058C291.454 24.1143 290.937 26.0098 289.903 27.6925C288.89 29.3752 287.481 30.693 285.676 31.6459C283.892 32.5987 281.875 33.0752 279.625 33.0752ZM279.625 28.0879C280.699 28.0879 281.672 27.8345 282.544 27.3276C283.416 26.8208 284.105 26.1112 284.612 25.1989C285.119 24.2663 285.372 23.202 285.372 22.0058C285.372 20.8097 285.119 19.7555 284.612 18.8432C284.105 17.9106 283.416 17.1909 282.544 16.684C281.672 16.1772 280.699 15.9238 279.625 15.9238C278.55 15.9238 277.577 16.1772 276.705 16.684C275.834 17.1909 275.144 17.9106 274.637 18.8432C274.131 19.7555 273.877 20.8097 273.877 22.0058C273.877 23.202 274.131 24.2663 274.637 25.1989C275.144 26.1112 275.834 26.8208 276.705 27.3276C277.577 27.8345 278.55 28.0879 279.625 28.0879Z" fill="white"/>
</svg>
