<svg width="216" height="32" viewBox="0 0 216 32" fill="none" xmlns="http://www.w3.org/2000/svg">
<path d="M13.522 20.8709C13.522 24.6049 10.495 27.6319 6.76101 27.6319C3.02701 27.6319 0 24.6049 0 20.8709C0 17.1369 3.02701 14.1099 6.76101 14.1099C10.495 14.1099 13.522 17.1369 13.522 20.8709Z" fill="#212121"/>
<path d="M52.9121 20.8709C52.9121 24.6049 49.8851 27.6319 46.1511 27.6319C42.4171 27.6319 39.3901 24.6049 39.3901 20.8709C39.3901 17.1369 42.4171 14.1099 46.1511 14.1099C49.8851 14.1099 52.9121 17.1369 52.9121 20.8709Z" fill="#212121"/>
<path d="M18.2253 20.8708H34.9809V22.6346H18.2253V20.8708Z" fill="#212121"/>
<path d="M12.9315 0L6.46704 9.70057H46.7391L39.7505 0H12.9315Z" fill="#212121"/>
<path d="M0 5.29126H5.58518V6.76104H0V5.29126Z" fill="#212121"/>
<path d="M47.6208 5.29126H53.206V6.76104H47.6208V5.29126Z" fill="#212121"/>
<path d="M73.9244 11.3943V14.498H80.152V17.5815H73.9244V22.4185H69.934V8.31076H80.9984V11.3943H73.9244ZM91.7658 19.6775H85.8002L84.6918 22.4185H80.6207L86.8482 8.31076H90.7782L97.0259 22.4185H92.8743L91.7658 19.6775ZM90.5969 16.7351L88.783 12.2206L86.9692 16.7351H90.5969ZM104.324 18.6698H102.148V22.4185H98.1572V8.31076H104.606C105.883 8.31076 106.991 8.52573 107.932 8.95568C108.872 9.37219 109.598 9.97681 110.108 10.7695C110.619 11.5488 110.874 12.4692 110.874 13.5306C110.874 14.5517 110.632 15.4452 110.149 16.2111C109.679 16.9635 109 17.5547 108.113 17.9846L111.156 22.4185H106.884L104.324 18.6698ZM106.844 13.5306C106.844 12.8722 106.635 12.3617 106.219 11.9989C105.802 11.6361 105.184 11.4548 104.365 11.4548H102.148V15.5863H104.365C105.184 15.5863 105.802 15.4116 106.219 15.0623C106.635 14.6995 106.844 14.189 106.844 13.5306ZM123.919 15.0623C124.725 15.3445 125.356 15.7878 125.813 16.3925C126.27 16.9836 126.498 17.7025 126.498 18.5489C126.498 19.785 126.001 20.739 125.007 21.4108C124.013 22.0826 122.575 22.4185 120.694 22.4185H113.076V8.31076H120.291C122.091 8.31076 123.462 8.64665 124.402 9.31845C125.343 9.97681 125.813 10.8703 125.813 11.9989C125.813 12.6707 125.645 13.2753 125.309 13.8128C124.987 14.3368 124.523 14.7533 123.919 15.0623ZM117.026 11.1928V13.9135H119.767C121.11 13.9135 121.782 13.4567 121.782 12.5431C121.782 11.6429 121.11 11.1928 119.767 11.1928H117.026ZM120.372 19.5365C121.769 19.5365 122.468 19.0595 122.468 18.1055C122.468 17.1516 121.769 16.6746 120.372 16.6746H117.026V19.5365H120.372ZM143.882 19.6775H137.917L136.808 22.4185H132.737L138.965 8.31076H142.895L149.143 22.4185H144.991L143.882 19.6775ZM142.713 16.7351L140.9 12.2206L139.086 16.7351H142.713ZM156.488 22.7006C154.392 22.7006 152.76 22.1296 151.591 20.9875C150.435 19.8455 149.858 18.2265 149.858 16.1305V8.31076H153.848V16.0095C153.848 18.2668 154.742 19.3954 156.529 19.3954C158.302 19.3954 159.189 18.2668 159.189 16.0095V8.31076H163.119V16.1305C163.119 18.2265 162.534 19.8455 161.366 20.9875C160.21 22.1296 158.584 22.7006 156.488 22.7006ZM168.609 11.4749H164.276V8.31076H176.912V11.4749H172.599V22.4185H168.609V11.4749ZM185.316 22.7006C183.825 22.7006 182.481 22.3849 181.285 21.7534C180.103 21.1219 179.169 20.2486 178.484 19.1334C177.812 18.0182 177.476 16.7619 177.476 15.3646C177.476 13.9673 177.812 12.711 178.484 11.5958C179.169 10.4807 180.103 9.60732 181.285 8.97583C182.481 8.34435 183.825 8.0286 185.316 8.0286C186.808 8.0286 188.144 8.34435 189.327 8.97583C190.523 9.60732 191.456 10.4807 192.128 11.5958C192.813 12.711 193.156 13.9673 193.156 15.3646C193.156 16.7619 192.813 18.0182 192.128 19.1334C191.456 20.2486 190.523 21.1219 189.327 21.7534C188.144 22.3849 186.808 22.7006 185.316 22.7006ZM185.316 19.3954C186.028 19.3954 186.673 19.2274 187.251 18.8915C187.829 18.5556 188.286 18.0854 188.621 17.4808C188.957 16.8627 189.125 16.1573 189.125 15.3646C189.125 14.5719 188.957 13.8732 188.621 13.2686C188.286 12.6506 187.829 12.1736 187.251 11.8377C186.673 11.5018 186.028 11.3338 185.316 11.3338C184.604 11.3338 183.959 11.5018 183.381 11.8377C182.804 12.1736 182.347 12.6506 182.011 13.2686C181.675 13.8732 181.507 14.5719 181.507 15.3646C181.507 16.1573 181.675 16.8627 182.011 17.4808C182.347 18.0854 182.804 18.5556 183.381 18.8915C183.959 19.2274 184.604 19.3954 185.316 19.3954Z" fill="#212121"/>
</svg>
