<svg width="127" height="127" viewBox="0 0 127 127" fill="none" xmlns="http://www.w3.org/2000/svg">
<path d="M63.5 5.55135e-06C98.5701 2.48542e-06 127 28.4299 127 63.5C127 98.5701 98.5701 127 63.5 127C28.4299 127 -2.48542e-06 98.5701 -5.55135e-06 63.5L63.5 63.5L63.5 5.55135e-06Z" fill="#313231"/>
<path d="M82.6977 43.6461H68.3052C67.9403 43.6461 67.6447 43.9418 67.6447 44.3066C67.6447 44.6713 67.9403 44.9671 68.3052 44.9671H82.6976C83.7901 44.9671 84.679 45.8559 84.679 46.9485V70.0643H81.5125L81.5124 49.775C81.5124 48.6825 80.6235 47.7936 79.531 47.7936H47.4689C46.3764 47.7936 45.4875 48.6825 45.4875 49.775V70.0643H42.3209V46.9484C42.3209 45.8558 43.2098 44.967 44.3023 44.967H65.6633C66.0281 44.967 66.3237 44.6712 66.3237 44.3065C66.3237 43.9417 66.0281 43.646 65.6633 43.646H44.3023C42.4814 43.6461 41 45.1275 41 46.9484V73.6538C41 75.4747 42.4814 76.9561 44.3023 76.9561H58.8246L58.1589 82.0328H55.812C55.4472 82.0328 55.1515 82.3285 55.1515 82.6932C55.1515 83.058 55.4472 83.3537 55.812 83.3537H71.1879C71.5527 83.3537 71.8484 83.058 71.8484 82.6932C71.8484 82.3285 71.5527 82.0328 71.1879 82.0328H68.8411L68.1754 76.9561H75.1741C75.5389 76.9561 75.8346 76.6604 75.8346 76.2956C75.8346 75.9309 75.5389 75.6351 75.1741 75.6351H44.3023C43.2098 75.6351 42.3209 74.7463 42.3209 73.6537V71.3852H84.679V73.6537C84.679 74.7463 83.7901 75.6351 82.6976 75.6351H77.8159C77.4511 75.6351 77.1554 75.9309 77.1554 76.2956C77.1554 76.6604 77.4511 76.9561 77.8159 76.9561H82.6976C84.5185 76.9561 85.9999 75.4747 85.9999 73.6538V46.9484C86 45.1275 84.5186 43.6461 82.6977 43.6461ZM67.5089 82.0328H59.4912L60.1569 76.9561H66.8431L67.5089 82.0328ZM46.8084 49.775C46.8084 49.4107 47.1047 49.1145 47.4689 49.1145H79.5311C79.8953 49.1145 80.1916 49.4107 80.1916 49.775V53.0256H46.8084V49.775ZM46.8084 54.3466H80.1916V70.0643H76.9806V67.1201C76.9806 66.7553 76.6849 66.4596 76.3201 66.4596H65.0811C64.7162 66.4596 64.4206 66.7553 64.4206 67.1201V70.0643H62.5793V67.1201C62.5793 66.7553 62.2837 66.4596 61.9188 66.4596H50.6799C50.3151 66.4596 50.0194 66.7553 50.0194 67.1201V70.0643H46.8084V54.3466ZM75.6596 70.0642H65.7416V67.7805H75.6596V70.0642ZM61.2584 70.0642H51.3404V67.7805H61.2584V70.0642Z" fill="white"/>
<path d="M49.3274 50.0044C48.7681 50.0044 48.313 50.4595 48.313 51.0189C48.313 51.5783 48.7681 52.0333 49.3274 52.0333C49.8868 52.0333 50.3419 51.5783 50.3419 51.0189C50.3419 50.4596 49.8868 50.0044 49.3274 50.0044Z" fill="#696969"/>
<path d="M52.5832 50.0044C52.0238 50.0044 51.5687 50.4595 51.5687 51.0189C51.5687 51.5783 52.0238 52.0333 52.5832 52.0333C53.1425 52.0333 53.5976 51.5783 53.5976 51.0189C53.5976 50.4596 53.1425 50.0044 52.5832 50.0044Z" fill="#696969"/>
<path d="M55.8388 50.0044C55.2794 50.0044 54.8243 50.4595 54.8243 51.0189C54.8243 51.5783 55.2794 52.0333 55.8388 52.0333C56.3982 52.0333 56.8533 51.5783 56.8533 51.0189C56.8533 50.4596 56.3982 50.0044 55.8388 50.0044Z" fill="#696969"/>
<path d="M50.6799 64.8474H55.4848C55.8496 64.8474 56.1453 64.5516 56.1453 64.1869C56.1453 63.8221 55.8496 63.5264 55.4848 63.5264H51.3403V57.7311H75.6582V63.5264H58.1266C57.7618 63.5264 57.4661 63.8221 57.4661 64.1869C57.4661 64.5516 57.7618 64.8474 58.1266 64.8474H76.3186C76.6834 64.8474 76.9791 64.5516 76.9791 64.1869V57.0707C76.9791 56.7059 76.6834 56.4102 76.3186 56.4102H50.6799C50.3151 56.4102 50.0194 56.7059 50.0194 57.0707V64.187C50.0194 64.5517 50.3151 64.8474 50.6799 64.8474Z" fill="#696969"/>
</svg>
