<svg width="1030" height="107" viewBox="0 0 1030 107" fill="none" xmlns="http://www.w3.org/2000/svg">
<path d="M65.0234 50.3389L64.7796 49.369L64.7964 51.3127L65.0234 50.3389ZM84.8721 58.3223L84.2377 59.0953L84.2415 59.0984L84.8721 58.3223ZM84.0664 94.1377L84.6917 94.9181L84.6972 94.9136L84.0664 94.1377ZM1.44922 103H0.449219V104H1.44922V103ZM1.44922 100.29V99.29H0.449219V100.29H1.44922ZM10.751 99.0449L11.209 99.9339L11.2189 99.9287L10.751 99.0449ZM14.1934 95.6758L13.2989 95.2286L13.2925 95.2415L13.2864 95.2547L14.1934 95.6758ZM14.1934 11.0078L13.2809 11.4169L13.2895 11.4361L13.2989 11.455L14.1934 11.0078ZM1.44922 6.39355H0.449219V7.39355H1.44922V6.39355ZM1.44922 3.68359V2.68359H0.449219V3.68359H1.44922ZM73.2266 6.75977L72.8292 7.67747L72.8372 7.68086L73.2266 6.75977ZM84.4326 15.8418L83.6036 16.4011L83.6068 16.4058L84.4326 15.8418ZM83.334 41.4766L84.0647 42.1592L84.0692 42.1544L83.334 41.4766ZM38.3633 48.3613H37.3633V49.3613H38.3633V48.3613ZM53.6709 46.0176L53.2451 45.1127L53.2399 45.1152L53.6709 46.0176ZM61.2881 17.8193L60.4319 18.336L60.4372 18.3447L60.4426 18.3533L61.2881 17.8193ZM38.3633 9.25L38.3564 8.25002L37.3633 8.25682V9.25H38.3633ZM38.3633 54.0742L38.3567 53.0742L37.3633 53.0807V54.0742H38.3633ZM38.3633 85.9346L39.3631 85.9546L39.3633 85.9446V85.9346H38.3633ZM38.29 89.5967L37.2902 89.5767L37.29 89.5867V89.5967H38.29ZM40.2676 95.6025L39.5477 96.2967L39.5604 96.3098L39.5734 96.3224L40.2676 95.6025ZM57.04 95.0166L57.5031 95.903L57.5079 95.9004L57.04 95.0166ZM64.6572 87.4727L65.5381 87.946L65.541 87.9405L64.6572 87.4727ZM64.0713 63.9619L63.2058 64.463L63.2088 64.4679L64.0713 63.9619ZM64.7964 51.3127C74.188 53.5025 80.6147 56.1226 84.2378 59.0953L85.5064 57.5492C81.5122 54.2719 74.7065 51.5698 65.2505 49.365L64.7964 51.3127ZM84.2415 59.0984C89.4752 63.3508 92.0752 68.8268 92.0752 75.6074H94.0752C94.0752 68.2279 91.2064 62.1805 85.5027 57.5462L84.2415 59.0984ZM92.0752 75.6074C92.0752 82.7648 89.2176 88.6609 83.4356 93.3618L84.6972 94.9136C90.9269 89.8488 94.0752 83.3915 94.0752 75.6074H92.0752ZM83.4411 93.3573C76.3139 99.0686 65.8549 102 51.9131 102V104C66.0962 104 77.0729 101.023 84.6917 94.9181L83.4411 93.3573ZM51.9131 102H1.44922V104H51.9131V102ZM2.44922 103V100.29H0.449219V103H2.44922ZM1.44922 101.29C3.77006 101.29 5.74031 101.185 7.34972 100.97C8.94355 100.757 10.2535 100.426 11.2089 99.9339L10.293 98.1559C9.63713 98.4938 8.59112 98.7859 7.08437 98.9876C5.59318 99.1872 3.71823 99.29 1.44922 99.29V101.29ZM11.2189 99.9287C13.0236 98.9732 14.353 97.7066 15.1004 96.0969L13.2864 95.2547C12.7642 96.3794 11.7986 97.3588 10.2831 98.1611L11.2189 99.9287ZM15.0878 96.123C15.5178 95.263 15.7854 93.9188 15.9573 92.2245C16.133 90.4929 16.2188 88.2706 16.2188 85.5684H14.2188C14.2188 88.2372 14.1336 90.3851 13.9675 92.0226C13.7976 93.6974 13.5525 94.7213 13.2989 95.2286L15.0878 96.123ZM16.2188 85.5684V21.1152H14.2188V85.5684H16.2188ZM16.2188 21.1152C16.2188 18.413 16.133 16.1907 15.9573 14.4591C15.7854 12.7648 15.5178 11.4206 15.0878 10.5606L13.2989 11.455C13.5525 11.9623 13.7976 12.9862 13.9675 14.661C14.1336 16.2985 14.2188 18.4464 14.2188 21.1152H16.2188ZM15.1059 10.5988C14.359 8.93277 13.0227 7.65649 11.1982 6.74424L10.3038 8.5331C11.7996 9.28101 12.7581 10.2508 13.2809 11.4169L15.1059 10.5988ZM11.1982 6.74424C10.2245 6.25738 8.9086 5.92725 7.3131 5.71367C5.70406 5.49829 3.74619 5.39355 1.44922 5.39355V7.39355C3.69327 7.39355 5.55619 7.49634 7.04774 7.696C8.55283 7.89746 9.61734 8.18989 10.3038 8.5331L11.1982 6.74424ZM2.44922 6.39355V3.68359H0.449219V6.39355H2.44922ZM1.44922 4.68359H49.0566V2.68359H1.44922V4.68359ZM49.0566 4.68359C60.4225 4.68359 68.2971 5.71509 72.8292 7.67744L73.6239 5.84209C68.6833 3.70288 60.4447 2.68359 49.0566 2.68359V4.68359ZM72.8372 7.68086C77.4048 9.61148 80.9834 12.5175 83.6037 16.4011L85.2616 15.2825C82.4131 11.0606 78.521 7.91196 73.6159 5.83867L72.8372 7.68086ZM83.6068 16.4058C86.2358 20.2553 87.5342 24.3333 87.5342 28.6592H89.5342C89.5342 23.903 88.0982 19.4361 85.2584 15.2778L83.6068 16.4058ZM87.5342 28.6592C87.5342 33.1749 85.9081 37.2097 82.5988 40.7987L84.0692 42.1544C87.6934 38.2239 89.5342 33.7138 89.5342 28.6592H87.5342ZM82.6032 40.7939C79.3347 44.2926 73.4592 47.187 64.7796 49.369L65.2673 51.3087C74.0681 49.0962 80.3997 46.0824 84.0647 42.1592L82.6032 40.7939ZM38.3633 49.3613C45.3341 49.3613 50.6221 48.5819 54.1019 46.9199L53.2399 45.1152C50.1767 46.5782 45.2597 47.3613 38.3633 47.3613V49.3613ZM54.0967 46.9224C57.5735 45.2863 60.2679 42.9657 62.1377 39.9531L60.4384 38.8984C58.7927 41.5499 56.409 43.6239 53.2451 45.1128L54.0967 46.9224ZM62.1377 39.9531C64.0205 36.9198 64.9248 33.1089 64.9248 28.5859H62.9248C62.9248 32.8521 62.0713 36.2677 60.4384 38.8984L62.1377 39.9531ZM64.9248 28.5859C64.9248 24.0641 64.0209 20.2735 62.1336 17.2853L60.4426 18.3533C62.0709 20.9315 62.9248 24.3187 62.9248 28.5859H64.9248ZM62.1443 17.3027C60.3235 14.2854 57.6973 12.0059 54.3044 10.4637L53.4768 12.2844C56.5292 13.6719 58.8347 15.6892 60.4319 18.336L62.1443 17.3027ZM54.3044 10.4637C50.8733 8.90406 45.5126 8.20101 38.3564 8.25002L38.3701 10.25C45.4718 10.2013 50.4626 10.9143 53.4768 12.2844L54.3044 10.4637ZM37.3633 9.25V48.3613H39.3633V9.25H37.3633ZM37.3633 54.0742V85.9346H39.3633V54.0742H37.3633ZM37.3635 85.9146L37.2902 89.5767L39.2898 89.6167L39.3631 85.9546L37.3635 85.9146ZM37.29 89.5967C37.29 92.3905 37.9896 94.6808 39.5477 96.2967L40.9874 94.9084C39.9088 93.7899 39.29 92.0763 39.29 89.5967H37.29ZM39.5734 96.3224C41.1893 97.8805 43.4796 98.5801 46.2734 98.5801V96.5801C43.7939 96.5801 42.0803 95.9613 40.9617 94.8827L39.5734 96.3224ZM46.2734 98.5801C50.3312 98.5801 54.0803 97.6909 57.5031 95.903L56.577 94.1302C53.4568 95.7602 50.0281 96.5801 46.2734 96.5801V98.5801ZM57.5079 95.9004C61.0014 94.0509 63.6852 91.3944 65.5381 87.946L63.7763 86.9993C62.1136 90.0939 59.7193 92.4667 56.5722 94.1328L57.5079 95.9004ZM65.541 87.9405C67.3811 84.4649 68.2939 80.6158 68.2939 76.4131H66.2939C66.2939 80.3159 65.449 83.8398 63.7734 87.0048L65.541 87.9405ZM68.2939 76.4131C68.2939 71.6135 67.1805 67.2854 64.9338 63.4559L63.2088 64.4679C65.259 67.9626 66.2939 71.9353 66.2939 76.4131H68.2939ZM64.9367 63.4609C62.6822 59.5667 59.5571 56.8191 55.572 55.2665L54.846 57.13C58.3804 58.5071 61.1635 60.9352 63.2059 64.463L64.9367 63.4609ZM55.572 55.2665C51.6331 53.7318 45.8649 53.0252 38.3567 53.0742L38.3698 55.0742C45.8031 55.0256 51.2653 55.735 54.846 57.13L55.572 55.2665ZM166.78 100.29H167.78V99.29H166.78V100.29ZM166.78 103V104H167.78V103H166.78ZM114.852 103H113.852V104H114.852V103ZM114.852 100.29V99.29H113.852V100.29H114.852ZM125.105 98.752L124.631 97.8715L124.616 97.8796L124.602 97.8882L125.105 98.752ZM128.035 95.2363L127.126 94.8197L127.118 94.8375L127.11 94.8556L128.035 95.2363ZM124.739 7.8584L124.221 8.7136L124.236 8.72274L124.251 8.73134L124.739 7.8584ZM114.852 6.39355H113.852V7.39355H114.852V6.39355ZM114.852 3.68359V2.68359H113.852V3.68359H114.852ZM166.78 3.68359H167.78V2.68359H166.78V3.68359ZM166.78 6.39355V7.39355H167.78V6.39355H166.78ZM156.526 7.93164L157 8.81211L157.015 8.80402L157.03 8.79542L156.526 7.93164ZM153.523 11.4473L154.432 11.8639L154.435 11.8574L154.438 11.8509L153.523 11.4473ZM153.523 95.5293L152.602 95.9189L152.609 95.9337L152.615 95.9483L153.523 95.5293ZM156.819 98.8984L156.301 99.7536L156.316 99.7628L156.332 99.7714L156.819 98.8984ZM165.78 100.29V103H167.78V100.29H165.78ZM166.78 102H114.852V104H166.78V102ZM115.852 103V100.29H113.852V103H115.852ZM114.852 101.29H118.147V99.29H114.852V101.29ZM118.147 101.29C121.136 101.29 123.648 100.76 125.609 99.6157L124.602 97.8882C123.047 98.7948 120.921 99.29 118.147 99.29V101.29ZM125.58 99.6324C127.098 98.8146 128.21 97.437 128.96 95.6171L127.11 94.8556C126.493 96.3559 125.652 97.3222 124.631 97.8715L125.58 99.6324ZM128.944 95.653C129.292 94.8936 129.501 93.6742 129.636 92.1373C129.773 90.5583 129.841 88.5118 129.841 86.0078H127.841C127.841 88.4843 127.774 90.4662 127.643 91.9633C127.509 93.5026 127.315 94.4072 127.126 94.8197L128.944 95.653ZM129.841 86.0078V20.6758H127.841V86.0078H129.841ZM129.841 20.6758C129.841 18.123 129.773 16.0288 129.636 14.4025C129.501 12.8119 129.292 11.5593 128.956 10.7647L127.114 11.5439C127.315 12.0188 127.509 12.988 127.643 14.5711C127.774 16.1186 127.841 18.1505 127.841 20.6758H129.841ZM128.956 10.7647C128.305 9.22506 127.009 7.98108 125.227 6.98545L124.251 8.73134C125.79 9.59118 126.691 10.5445 127.114 11.5439L128.956 10.7647ZM125.258 7.0032C123.432 5.89707 121.032 5.39355 118.147 5.39355V7.39355C120.829 7.39355 122.823 7.8666 124.221 8.7136L125.258 7.0032ZM118.147 5.39355H114.852V7.39355H118.147V5.39355ZM115.852 6.39355V3.68359H113.852V6.39355H115.852ZM114.852 4.68359H166.78V2.68359H114.852V4.68359ZM165.78 3.68359V6.39355H167.78V3.68359H165.78ZM166.78 5.39355H163.484V7.39355H166.78V5.39355ZM163.484 5.39355C160.496 5.39355 157.984 5.9237 156.022 7.06786L157.03 8.79542C158.584 7.8888 160.711 7.39355 163.484 7.39355V5.39355ZM156.052 7.05117C154.541 7.86498 153.407 9.23344 152.609 11.0436L154.438 11.8509C155.105 10.3408 155.973 9.36549 157 8.81211L156.052 7.05117ZM152.614 11.0306C152.266 11.79 152.057 13.0094 151.923 14.5463C151.785 16.1253 151.718 18.1718 151.718 20.6758H153.718C153.718 18.1993 153.785 16.2174 153.915 14.7203C154.05 13.181 154.243 12.2764 154.432 11.8639L152.614 11.0306ZM151.718 20.6758V86.0078H153.718V20.6758H151.718ZM151.718 86.0078C151.718 88.5606 151.785 90.6547 151.923 92.2811C152.057 93.8717 152.266 95.1243 152.602 95.9189L154.444 95.1397C154.244 94.6648 154.05 93.6956 153.916 92.1125C153.785 90.565 153.718 88.5331 153.718 86.0078H151.718ZM152.615 95.9483C153.309 97.4519 154.577 98.7089 156.301 99.7536L157.338 98.0432C155.839 97.1349 154.909 96.1458 154.431 95.1102L152.615 95.9483ZM156.332 99.7714C158.194 100.812 160.604 101.29 163.484 101.29V99.29C160.798 99.29 158.765 98.8401 157.307 98.0255L156.332 99.7714ZM163.484 101.29H166.78V99.29H163.484V101.29ZM223.64 57.7363V56.7363H222.64V57.7363H223.64ZM224.592 95.749L223.679 96.1581L223.688 96.1774L223.697 96.1962L224.592 95.749ZM237.409 100.29H238.409V99.29H237.409V100.29ZM237.409 103V104H238.409V103H237.409ZM186.579 103H185.579V104H186.579V103ZM186.579 100.29V99.29H185.579V100.29H186.579ZM195.881 99.0449L196.339 99.9339L196.349 99.9287L195.881 99.0449ZM199.323 95.6758L198.429 95.2286L198.422 95.2415L198.416 95.2547L199.323 95.6758ZM199.323 11.0078L198.411 11.4169L198.419 11.4361L198.429 11.455L199.323 11.0078ZM186.579 6.39355H185.579V7.39355H186.579V6.39355ZM186.579 3.68359V2.68359H185.579V3.68359H186.579ZM272.712 15.4023L271.924 16.0187L271.928 16.0228L272.712 15.4023ZM270.075 49.2402L270.744 49.9841L270.747 49.9808L270.075 49.2402ZM255.939 56.0518L255.697 55.0816L254.276 55.4368L255.124 56.6308L255.939 56.0518ZM279.816 89.6699L279.001 90.249L279.005 90.2537L279.816 89.6699ZM286.481 97.7998L285.85 98.575L285.864 98.5865L285.878 98.5975L286.481 97.7998ZM293.439 100.29H294.439V99.3441L293.495 99.2916L293.439 100.29ZM293.439 103V104H294.439V103H293.439ZM262.165 103L261.349 103.577L261.647 104H262.165V103ZM230.158 57.7363L230.975 57.159L230.676 56.7363H230.158V57.7363ZM223.64 9.03027V8.03027H222.64V9.03027H223.64ZM223.64 52.5361H222.64V53.5361H223.64V52.5361ZM243.049 50.7051L243.39 51.6453L243.401 51.6408L243.049 50.7051ZM250.959 43.9668L250.1 43.4542L250.098 43.4581L250.959 43.9668ZM248.542 14.4502L247.825 15.1476L247.83 15.1525L248.542 14.4502ZM222.64 57.7363V85.5684H224.64V57.7363H222.64ZM222.64 85.5684C222.64 88.2695 222.719 90.4949 222.882 92.235C223.042 93.9421 223.289 95.288 223.679 96.1581L225.504 95.34C225.26 94.794 225.031 93.7351 224.873 92.0487C224.719 90.3952 224.64 88.2383 224.64 85.5684H222.64ZM223.697 96.1962C224.497 97.7955 225.849 99.0338 227.66 99.9393L228.555 98.1505C227.046 97.3959 226.054 96.4369 225.486 95.3018L223.697 96.1962ZM227.66 99.9393C228.634 100.426 229.95 100.756 231.545 100.97C233.154 101.185 235.112 101.29 237.409 101.29V99.29C235.165 99.29 233.302 99.1873 231.811 98.9876C230.306 98.7861 229.241 98.4937 228.555 98.1505L227.66 99.9393ZM236.409 100.29V103H238.409V100.29H236.409ZM237.409 102H186.579V104H237.409V102ZM187.579 103V100.29H185.579V103H187.579ZM186.579 101.29C188.9 101.29 190.87 101.185 192.48 100.97C194.073 100.757 195.383 100.426 196.339 99.9339L195.423 98.1559C194.767 98.4938 193.721 98.7859 192.214 98.9876C190.723 99.1872 188.848 99.29 186.579 99.29V101.29ZM196.349 99.9287C198.154 98.9732 199.483 97.7066 200.23 96.0969L198.416 95.2547C197.894 96.3794 196.929 97.3588 195.413 98.1611L196.349 99.9287ZM200.218 96.123C200.648 95.263 200.915 93.9188 201.087 92.2245C201.263 90.4929 201.349 88.2706 201.349 85.5684H199.349C199.349 88.2372 199.264 90.3851 199.097 92.0226C198.927 93.6974 198.682 94.7213 198.429 95.2286L200.218 96.123ZM201.349 85.5684V21.1152H199.349V85.5684H201.349ZM201.349 21.1152C201.349 18.413 201.263 16.1907 201.087 14.4591C200.915 12.7648 200.648 11.4206 200.218 10.5606L198.429 11.455C198.682 11.9623 198.927 12.9862 199.097 14.661C199.264 16.2985 199.349 18.4464 199.349 21.1152H201.349ZM200.236 10.5988C199.489 8.93277 198.153 7.65649 196.328 6.74424L195.434 8.5331C196.929 9.28101 197.888 10.2508 198.411 11.4169L200.236 10.5988ZM196.328 6.74424C195.354 6.25738 194.038 5.92725 192.443 5.71367C190.834 5.49829 188.876 5.39355 186.579 5.39355V7.39355C188.823 7.39355 190.686 7.49634 192.178 7.696C193.683 7.89746 194.747 8.18989 195.434 8.5331L196.328 6.74424ZM187.579 6.39355V3.68359H185.579V6.39355H187.579ZM186.579 4.68359H232.722V2.68359H186.579V4.68359ZM232.722 4.68359C244.717 4.68359 253.384 5.51576 258.803 7.13211L259.375 5.21554C253.661 3.51158 244.75 2.68359 232.722 2.68359V4.68359ZM258.803 7.13211C264.175 8.73419 268.539 11.6929 271.924 16.0187L273.499 14.786C269.854 10.1274 265.136 6.93378 259.375 5.21554L258.803 7.13211ZM271.928 16.0228C275.295 20.2785 276.985 25.281 276.985 31.0762H278.985C278.985 24.8596 277.16 19.4129 273.496 14.7819L271.928 16.0228ZM276.985 31.0762C276.985 38.1275 274.461 43.9101 269.403 48.4997L270.747 49.9808C276.236 45 278.985 38.6733 278.985 31.0762H276.985ZM269.407 48.4964C266.196 51.3814 261.65 53.5933 255.697 55.0816L256.182 57.0219C262.338 55.4828 267.216 53.1538 270.744 49.9841L269.407 48.4964ZM255.124 56.6308L279.001 90.249L280.632 89.0909L256.755 55.4727L255.124 56.6308ZM279.005 90.2537C282.113 94.5768 284.41 97.4021 285.85 98.575L287.113 97.0246C285.916 96.0491 283.77 93.4545 280.628 89.0861L279.005 90.2537ZM285.878 98.5975C288.047 100.237 290.56 101.132 293.384 101.288L293.495 99.2916C291.046 99.1555 288.919 98.3895 287.085 97.0022L285.878 98.5975ZM292.439 100.29V103H294.439V100.29H292.439ZM293.439 102H262.165V104H293.439V102ZM262.982 102.423L230.975 57.159L229.342 58.3137L261.349 103.577L262.982 102.423ZM230.158 56.7363H223.64V58.7363H230.158V56.7363ZM222.64 9.03027V52.5361H224.64V9.03027H222.64ZM223.64 53.5361H227.814V51.5361H223.64V53.5361ZM227.814 53.5361C234.633 53.5361 239.853 52.9267 243.389 51.6453L242.708 49.7649C239.507 50.9249 234.57 51.5361 227.814 51.5361V53.5361ZM243.401 51.6408C246.993 50.2876 249.805 47.8858 251.82 44.4755L250.098 43.4581C248.305 46.4931 245.843 48.5835 242.696 49.7693L243.401 51.6408ZM251.818 44.4794C253.891 41.0057 254.889 36.5634 254.889 31.2227H252.889C252.889 36.3311 251.933 40.3849 250.1 43.4542L251.818 44.4794ZM254.889 31.2227C254.889 23.5191 253.077 17.6229 249.254 13.7479L247.83 15.1525C251.136 18.5041 252.889 23.7895 252.889 31.2227H254.889ZM249.259 13.7528C245.472 9.86113 239.46 8.03027 231.477 8.03027V10.0303C239.215 10.0303 244.581 11.8127 247.825 15.1476L249.259 13.7528ZM231.477 8.03027H223.64V10.0303H231.477V8.03027ZM307.672 103H306.672V104H307.672V103ZM307.672 100.29V99.29H306.672V100.29H307.672ZM317.56 98.9717L318.062 99.8365L318.07 99.8315L317.56 98.9717ZM321.002 95.2363L321.907 95.6608L321.915 95.6456L321.921 95.6302L321.002 95.2363ZM317.56 7.8584L317.041 8.7136L317.056 8.72274L317.072 8.73134L317.56 7.8584ZM307.672 6.39355H306.672V7.39355H307.672V6.39355ZM307.672 3.68359V2.68359H306.672V3.68359H307.672ZM380.768 8.51758L381.176 7.60481L381.175 7.60427L380.768 8.51758ZM400.836 26.4619L399.966 26.9552L399.968 26.9592L400.836 26.4619ZM404.352 72.9707L405.285 73.3286L405.286 73.3261L404.352 72.9707ZM395.636 87.5459L396.366 88.2292L396.37 88.2246L395.636 87.5459ZM383.258 96.7744L383.701 97.6707L383.705 97.6688L383.258 96.7744ZM366.192 102.121L366.007 101.138L365.999 101.14L366.192 102.121ZM345.538 9.32324L345.532 8.32326L344.538 8.32921V9.32324H345.538ZM348.102 96.4814L348.587 95.6073L348.577 95.6018L348.567 95.5965L348.102 96.4814ZM372.491 89.2305L371.702 88.6158L371.7 88.6194L372.491 89.2305ZM375.274 23.6787L376.16 23.2134L376.157 23.2085L375.274 23.6787ZM363.043 11.5205L363.439 10.6023L363.438 10.602L363.043 11.5205ZM308.672 103V100.29H306.672V103H308.672ZM307.672 101.29H310.968V99.29H307.672V101.29ZM310.968 101.29C313.923 101.29 316.327 100.844 318.062 99.8365L317.057 98.1069C315.765 98.8573 313.774 99.29 310.968 99.29V101.29ZM318.07 99.8315C319.795 98.8072 321.085 97.4146 321.907 95.6608L320.096 94.8119C319.454 96.1831 318.449 97.2807 317.049 98.1118L318.07 99.8315ZM321.921 95.6302C322.217 94.9402 322.385 93.7497 322.494 92.2314C322.606 90.6593 322.661 88.5817 322.661 86.0078H320.661C320.661 88.5608 320.606 90.5849 320.499 92.0889C320.388 93.6467 320.227 94.507 320.083 94.8424L321.921 95.6302ZM322.661 86.0078V20.6758H320.661V86.0078H322.661ZM322.661 20.6758C322.661 18.123 322.594 16.0288 322.456 14.4025C322.322 12.8119 322.113 11.5593 321.776 10.7647L319.935 11.5439C320.135 12.0188 320.329 12.988 320.463 14.5711C320.594 16.1186 320.661 18.1505 320.661 20.6758H322.661ZM321.776 10.7647C321.125 9.22506 319.829 7.98108 318.047 6.98545L317.072 8.73134C318.61 9.59118 319.512 10.5445 319.935 11.5439L321.776 10.7647ZM318.078 7.0032C316.253 5.89707 313.852 5.39355 310.968 5.39355V7.39355C313.65 7.39355 315.644 7.8666 317.041 8.7136L318.078 7.0032ZM310.968 5.39355H307.672V7.39355H310.968V5.39355ZM308.672 6.39355V3.68359H306.672V6.39355H308.672ZM307.672 4.68359H352.13V2.68359H307.672V4.68359ZM352.13 4.68359C363.919 4.68359 373.31 6.28662 380.36 9.43088L381.175 7.60427C373.772 4.30322 364.072 2.68359 352.13 2.68359V4.68359ZM380.359 9.43035C389.013 13.3032 395.536 19.1428 399.966 26.9552L401.706 25.9686C397.054 17.7654 390.198 11.6422 381.176 7.60481L380.359 9.43035ZM399.968 26.9592C404.463 34.8015 406.721 43.6848 406.721 53.6348H408.721C408.721 43.3699 406.388 34.138 401.704 25.9646L399.968 26.9592ZM406.721 53.6348C406.721 60.5084 405.615 66.8319 403.417 72.6153L405.286 73.3261C407.58 67.2931 408.721 60.7259 408.721 53.6348H406.721ZM403.418 72.6128C401.209 78.3761 398.365 83.1194 394.901 86.8672L396.37 88.2246C400.036 84.2576 403.002 79.284 405.285 73.3286L403.418 72.6128ZM394.906 86.8626C391.423 90.5842 387.393 93.589 382.811 95.88L383.705 97.6688C388.498 95.2723 392.72 92.1248 396.366 88.2292L394.906 86.8626ZM382.814 95.8781C378.279 98.1219 372.683 99.8806 366.007 101.138L366.378 103.104C373.178 101.823 378.959 100.017 383.701 97.6707L382.814 95.8781ZM365.999 101.14C363.122 101.706 358.516 102 352.13 102V104C358.536 104 363.306 103.708 366.385 103.102L365.999 101.14ZM352.13 102H307.672V104H352.13V102ZM344.538 9.32324V86.8135H346.538V9.32324H344.538ZM344.538 86.8135C344.538 88.8763 344.587 90.5591 344.688 91.8531C344.785 93.1039 344.937 94.115 345.202 94.7455L347.046 93.9694C346.921 93.6721 346.78 92.9621 346.682 91.6982C346.587 90.4775 346.538 88.8522 346.538 86.8135H344.538ZM345.202 94.7455C345.687 95.896 346.512 96.7751 347.636 97.3664L348.567 95.5965C347.835 95.2112 347.342 94.6743 347.046 93.9694L345.202 94.7455ZM347.616 97.3556C349.15 98.2078 351.253 98.5801 353.814 98.5801V96.5801C351.396 96.5801 349.69 96.2199 348.587 95.6073L347.616 97.3556ZM353.814 98.5801C362.223 98.5801 368.765 95.6943 373.283 89.8415L371.7 88.6194C367.624 93.8994 361.715 96.5801 353.814 96.5801V98.5801ZM373.28 89.8451C379.341 82.0672 382.28 70.1292 382.28 54.2207H380.28C380.28 69.9529 377.36 81.3547 371.702 88.6158L373.28 89.8451ZM382.28 54.2207C382.28 41.3864 380.266 31.0266 376.16 23.2134L374.389 24.144C378.29 31.5652 380.28 41.5667 380.28 54.2207H382.28ZM376.157 23.2085C372.903 17.1014 368.675 12.8607 363.439 10.6023L362.647 12.4387C367.372 14.4771 371.298 18.3419 374.392 24.1489L376.157 23.2085ZM363.438 10.602C359.719 9.0005 353.703 8.27433 345.532 8.32326L345.544 10.3232C353.682 10.2745 359.336 11.0132 362.648 12.439L363.438 10.602ZM498.052 1.41309L499.051 1.38876L499.028 0.413086H498.052V1.41309ZM498.857 34.5186V35.5186H499.882L499.857 34.4942L498.857 34.5186ZM495.854 34.5186L494.869 34.6867L495.011 35.5186H495.854V34.5186ZM485.381 14.5234L484.704 15.2593L484.71 15.2654L485.381 14.5234ZM455.571 10.9346L456.246 11.6722L456.247 11.6717L455.571 10.9346ZM452.788 25.9492L451.931 26.4638L451.937 26.4743L452.788 25.9492ZM459.6 32.7607L459.016 33.5728L459.025 33.5792L459.6 32.7607ZM475.493 41.3301L475.05 42.2266L475.052 42.2275L475.493 41.3301ZM499.004 57.5166L499.789 56.8974L499.786 56.8928L499.004 57.5166ZM495.269 96.4082L495.947 97.1426L495.948 97.1424L495.269 96.4082ZM461.797 104.392L461.575 105.367L461.797 104.392ZM451.323 100.803L451.709 99.8803L451.708 99.8797L451.323 100.803ZM438.066 105.271V106.271H438.72L438.982 105.673L438.066 105.271ZM435.356 105.271H434.356V106.271H435.356V105.271ZM435.356 67.7705V66.7705H434.356V67.7705H435.356ZM438.066 67.7705L439.046 67.5709L438.883 66.7705H438.066V67.7705ZM450.444 91.9404L449.77 92.6793L449.777 92.6849L450.444 91.9404ZM483.33 95.749L482.657 95.0096L482.651 95.0146L483.33 95.749ZM486.333 78.5371L485.459 79.0228L485.463 79.0301L485.467 79.0374L486.333 78.5371ZM480.693 72.3115L480.074 73.0968L480.084 73.1041L480.693 72.3115ZM467.217 64.5479L467.659 63.6507L467.658 63.6505L467.217 64.5479ZM438.579 42.7217L437.701 43.1998L437.705 43.2083L438.579 42.7217ZM475.493 2.58496L475.243 3.55324L475.246 3.55388L475.493 2.58496ZM483.843 5.88086L483.401 6.77795L483.409 6.78188L483.417 6.78568L483.843 5.88086ZM495.854 1.41309V0.413086H495.045L494.876 1.20465L495.854 1.41309ZM497.052 1.43742L497.858 34.5429L499.857 34.4942L499.051 1.38876L497.052 1.43742ZM498.857 33.5186H495.854V35.5186H498.857V33.5186ZM496.84 34.3504C495.391 25.857 491.805 18.9796 486.051 13.7814L484.71 15.2654C490.09 20.1259 493.486 26.5786 494.869 34.6867L496.84 34.3504ZM486.058 13.7876C480.388 8.56925 474.173 5.90625 467.437 5.90625V7.90625C473.59 7.90625 479.339 10.3214 484.704 15.2592L486.058 13.7876ZM467.437 5.90625C462.272 5.90625 458.053 7.30297 454.896 10.1974L456.247 11.6717C458.949 9.19508 462.64 7.90625 467.437 7.90625V5.90625ZM454.896 10.1969C451.837 12.9965 450.25 16.3055 450.25 20.0898H452.25C452.25 16.9406 453.544 14.1461 456.246 11.6722L454.896 10.1969ZM450.25 20.0898C450.25 22.4492 450.803 24.5837 451.931 26.4637L453.646 25.4347C452.723 23.8968 452.25 22.125 452.25 20.0898H450.25ZM451.937 26.4743C453.445 28.9187 455.826 31.28 459.016 33.5728L460.183 31.9487C457.123 29.7493 454.963 27.5696 453.639 25.4241L451.937 26.4743ZM459.025 33.5792C461.395 35.243 466.766 38.1332 475.05 42.2266L475.936 40.4335C467.619 36.3238 462.394 33.5012 460.174 31.9423L459.025 33.5792ZM475.052 42.2275C486.647 47.9274 494.314 53.2434 498.222 58.1404L499.786 56.8928C495.588 51.6335 487.582 46.1585 475.934 40.4327L475.052 42.2275ZM498.219 58.1358C502.082 63.0352 504.01 68.627 504.01 74.9482H506.01C506.01 68.1835 503.934 62.1542 499.789 56.8974L498.219 58.1358ZM504.01 74.9482C504.01 82.9504 500.894 89.8435 494.59 95.674L495.948 97.1424C502.631 90.9612 506.01 83.5477 506.01 74.9482H504.01ZM494.59 95.6738C488.354 101.437 480.405 104.344 470.659 104.344V106.344C480.835 106.344 489.292 103.294 495.947 97.1426L494.59 95.6738ZM470.659 104.344C467.602 104.344 464.723 104.033 462.019 103.417L461.575 105.367C464.437 106.019 467.466 106.344 470.659 106.344V104.344ZM462.019 103.417C459.315 102.8 455.883 101.627 451.709 99.8803L450.937 101.725C455.162 103.494 458.712 104.714 461.575 105.367L462.019 103.417ZM451.708 99.8797C449.314 98.8821 447.243 98.3379 445.537 98.3379V100.338C446.859 100.338 448.645 100.77 450.939 101.726L451.708 99.8797ZM445.537 98.3379C444.004 98.3379 442.466 98.9278 440.941 99.9795L442.077 101.626C443.384 100.725 444.531 100.338 445.537 100.338V98.3379ZM440.941 99.9795C439.336 101.087 438.084 102.742 437.151 104.869L438.982 105.673C439.806 103.795 440.85 102.472 442.077 101.626L440.941 99.9795ZM438.066 104.271H435.356V106.271H438.066V104.271ZM436.356 105.271V67.7705H434.356V105.271H436.356ZM435.356 68.7705H438.066V66.7705H435.356V68.7705ZM437.087 67.9701C439.264 78.6618 443.469 86.9323 449.77 92.6793L451.118 91.2016C445.213 85.8158 441.165 77.9729 439.046 67.5709L437.087 67.9701ZM449.777 92.6849C456.08 98.3378 462.926 101.217 470.293 101.217V99.2168C463.5 99.2168 457.113 96.5782 451.112 91.196L449.777 92.6849ZM470.293 101.217C475.949 101.217 480.559 99.6721 484.009 96.4834L482.651 95.0146C479.656 97.783 475.575 99.2168 470.293 99.2168V101.217ZM484.003 96.4885C487.456 93.3454 489.237 89.6203 489.237 85.3486H487.237C487.237 88.9872 485.748 92.1956 482.657 95.0096L484.003 96.4885ZM489.237 85.3486C489.237 82.8148 488.549 80.3732 487.199 78.0368L485.467 79.0374C486.656 81.0956 487.237 83.1949 487.237 85.3486H489.237ZM487.207 78.0515C485.905 75.707 483.922 73.5333 481.303 71.5189L480.084 73.1041C482.543 74.996 484.32 76.9727 485.459 79.0228L487.207 78.0515ZM481.312 71.5263C478.684 69.454 474.11 66.8274 467.659 63.6507L466.775 65.445C473.215 68.616 477.624 71.1651 480.074 73.0968L481.312 71.5263ZM467.658 63.6505C458.639 59.214 452.223 55.4675 448.354 52.4107L447.114 53.9799C451.156 57.1732 457.728 60.995 466.775 65.4452L467.658 63.6505ZM448.354 52.4107C444.488 49.3559 441.529 45.9623 439.453 42.2351L437.705 43.2083C439.926 47.1959 443.071 50.7848 447.114 53.9799L448.354 52.4107ZM439.457 42.2436C437.442 38.5412 436.43 34.4589 436.43 29.9775H434.43C434.43 34.7735 435.517 39.1873 437.701 43.1998L439.457 42.2436ZM436.43 29.9775C436.43 22.3453 439.22 15.8663 444.837 10.4848L443.454 9.04058C437.45 14.7919 434.43 21.7895 434.43 29.9775H436.43ZM444.837 10.4848C450.443 5.11501 457.51 2.41309 466.118 2.41309V0.413086C457.05 0.413086 449.47 3.27757 443.454 9.04058L444.837 10.4848ZM466.118 2.41309C469.259 2.41309 472.3 2.79369 475.243 3.55324L475.743 1.61668C472.632 0.813728 469.423 0.413086 466.118 0.413086V2.41309ZM475.246 3.55388C477.448 4.11611 480.162 5.18273 483.401 6.77795L484.285 4.98377C480.98 3.35633 478.128 2.22569 475.741 1.61604L475.246 3.55388ZM483.417 6.78568C485.097 7.57606 486.544 8.17908 487.753 8.58635C488.944 8.98729 489.977 9.22461 490.801 9.22461V7.22461C490.307 7.22461 489.521 7.07131 488.392 6.69099C487.281 6.31701 485.909 5.74816 484.269 4.97604L483.417 6.78568ZM490.801 9.22461C492.291 9.22461 493.577 8.75688 494.533 7.73668L493.074 6.36879C492.566 6.91109 491.85 7.22461 490.801 7.22461V9.22461ZM494.533 7.73668C495.041 7.19519 495.451 6.37451 495.806 5.39863C496.169 4.39898 496.51 3.13528 496.833 1.62152L494.876 1.20465C494.564 2.66941 494.246 3.83491 493.926 4.71514C493.597 5.61914 493.299 6.12903 493.074 6.36879L494.533 7.73668ZM495.854 2.41309H498.052V0.413086H495.854V2.41309ZM679.593 3.68359H680.593V2.68359H679.593V3.68359ZM679.593 6.39355L679.753 7.38066L680.593 7.24446V6.39355H679.593ZM669.925 12.1797L669.169 11.5252L669.164 11.5308L669.159 11.5365L669.925 12.1797ZM660.77 29.3916L661.681 29.8026L661.682 29.8009L660.77 29.3916ZM626.565 105.271V106.271H627.212L627.477 105.681L626.565 105.271ZM624.148 105.271L623.23 105.667L623.491 106.271H624.148V105.271ZM590.091 26.3154L589.172 26.7111L589.173 26.7115L590.091 26.3154ZM581.814 9.54297L581.043 10.1787L581.048 10.1853L581.054 10.1919L581.814 9.54297ZM573.978 6.39355H572.978V7.2861L573.864 7.38713L573.978 6.39355ZM573.978 3.68359V2.68359H572.978V3.68359H573.978ZM621.585 3.68359H622.585V2.68359H621.585V3.68359ZM621.585 6.39355V7.39355H622.585V6.39355H621.585ZM611.185 8.00488L611.731 8.84249L611.741 8.83583L611.751 8.82893L611.185 8.00488ZM610.086 14.377L609.133 14.6817L609.137 14.6932L610.086 14.377ZM614.041 23.9717L614.96 23.5781L614.96 23.5767L614.041 23.9717ZM635.208 73.4102L634.289 73.8037L635.189 75.9073L636.121 73.8174L635.208 73.4102ZM654.837 29.3916L655.75 29.7989L655.752 29.7946L654.837 29.3916ZM655.35 7.63867L654.982 8.56866L654.989 8.57124L655.35 7.63867ZM647 6.39355H646V7.39355H647V6.39355ZM647 3.68359V2.68359H646V3.68359H647ZM678.593 3.68359V6.39355H680.593V3.68359H678.593ZM679.433 5.40645C675.547 6.03652 672.125 8.1102 669.169 11.5252L670.681 12.8342C673.389 9.7062 676.412 7.92247 679.753 7.38066L679.433 5.40645ZM669.159 11.5365C667.003 14.1034 663.898 19.9747 659.857 28.9823L661.682 29.8009C665.746 20.7421 668.745 15.1388 670.69 12.8229L669.159 11.5365ZM659.858 28.9807L625.654 104.86L627.477 105.681L661.681 29.8026L659.858 28.9807ZM626.565 104.271H624.148V106.271H626.565V104.271ZM625.067 104.874L591.009 25.9193L589.173 26.7115L623.23 105.667L625.067 104.874ZM591.009 25.9198C588.955 21.1521 587.233 17.3563 585.842 14.5387C584.47 11.7586 583.377 9.8335 582.575 8.89402L581.054 10.1919C581.668 10.9126 582.662 12.613 584.049 15.4237C585.417 18.1969 587.125 21.9573 589.172 26.7111L591.009 25.9198ZM582.586 8.90726C580.964 6.93723 578.018 5.84734 574.091 5.39998L573.864 7.38713C577.652 7.81868 579.931 8.82839 581.043 10.1787L582.586 8.90726ZM574.978 6.39355V3.68359H572.978V6.39355H574.978ZM573.978 4.68359H621.585V2.68359H573.978V4.68359ZM620.585 3.68359V6.39355H622.585V3.68359H620.585ZM621.585 5.39355H619.974V7.39355H621.585V5.39355ZM619.974 5.39355C617.789 5.39355 615.917 5.5297 614.373 5.81278C612.841 6.09379 611.563 6.5314 610.618 7.18084L611.751 8.82893C612.369 8.40415 613.337 8.03609 614.734 7.77999C616.12 7.52596 617.862 7.39355 619.974 7.39355V5.39355ZM610.638 7.16727C609.214 8.09637 608.5 9.49631 608.5 11.2275H610.5C610.5 10.1267 610.909 9.37823 611.731 8.84249L610.638 7.16727ZM608.5 11.2275C608.5 12.2455 608.724 13.4034 609.133 14.6817L611.038 14.0722C610.666 12.9091 610.5 11.9674 610.5 11.2275H608.5ZM609.137 14.6932C609.544 15.915 610.884 19.1601 613.122 24.3666L614.96 23.5767C612.706 18.334 611.409 15.1827 611.035 14.0607L609.137 14.6932ZM613.122 24.3653L634.289 73.8037L636.127 73.0166L614.96 23.5781L613.122 24.3653ZM636.121 73.8174L655.75 29.7989L653.924 28.9843L634.295 73.0029L636.121 73.8174ZM655.752 29.7946C658.091 24.4833 659.559 20.8607 660.117 18.9832L658.2 18.4133C657.684 20.149 656.27 23.6554 653.922 28.9886L655.752 29.7946ZM660.117 18.9832C660.669 17.1243 660.964 15.4845 660.964 14.084H658.964C658.964 15.2225 658.721 16.6589 658.2 18.4133L660.117 18.9832ZM660.964 14.084C660.964 12.4302 660.519 10.9338 659.613 9.63108L657.971 10.7732C658.627 11.7166 658.964 12.8081 658.964 14.084H660.964ZM659.613 9.63108C658.698 8.31581 657.375 7.35032 655.711 6.7061L654.989 8.57124C656.352 9.0989 657.324 9.84239 657.971 10.7732L659.613 9.63108ZM655.717 6.70871C653.455 5.81441 650.532 5.39355 647 5.39355V7.39355C650.401 7.39355 653.045 7.80278 654.982 8.56863L655.717 6.70871ZM648 6.39355V3.68359H646V6.39355H648ZM647 4.68359H679.593V2.68359H647V4.68359ZM749.636 100.29H750.636V99.29H749.636V100.29ZM749.636 103V104H750.636V103H749.636ZM697.707 103H696.707V104H697.707V103ZM697.707 100.29V99.29H696.707V100.29H697.707ZM707.961 98.752L707.487 97.8715L707.472 97.8796L707.457 97.8882L707.961 98.752ZM710.891 95.2363L709.982 94.8197L709.973 94.8375L709.966 94.8556L710.891 95.2363ZM707.595 7.8584L707.076 8.7136L707.091 8.72274L707.107 8.73134L707.595 7.8584ZM697.707 6.39355H696.707V7.39355H697.707V6.39355ZM697.707 3.68359V2.68359H696.707V3.68359H697.707ZM749.636 3.68359H750.636V2.68359H749.636V3.68359ZM749.636 6.39355V7.39355H750.636V6.39355H749.636ZM739.382 7.93164L739.856 8.81211L739.871 8.80402L739.886 8.79542L739.382 7.93164ZM736.379 11.4473L737.288 11.8639L737.291 11.8574L737.294 11.8509L736.379 11.4473ZM736.379 95.5293L735.458 95.9189L735.464 95.9337L735.471 95.9483L736.379 95.5293ZM739.675 98.8984L739.156 99.7536L739.172 99.7628L739.187 99.7714L739.675 98.8984ZM748.636 100.29V103H750.636V100.29H748.636ZM749.636 102H697.707V104H749.636V102ZM698.707 103V100.29H696.707V103H698.707ZM697.707 101.29H701.003V99.29H697.707V101.29ZM701.003 101.29C703.991 101.29 706.503 100.76 708.465 99.6157L707.457 97.8882C705.903 98.7948 703.776 99.29 701.003 99.29V101.29ZM708.435 99.6324C709.954 98.8146 711.066 97.437 711.815 95.6171L709.966 94.8556C709.348 96.3559 708.507 97.3222 707.487 97.8715L708.435 99.6324ZM711.8 95.653C712.148 94.8936 712.357 93.6742 712.491 92.1373C712.629 90.5583 712.696 88.5118 712.696 86.0078H710.696C710.696 88.4843 710.629 90.4662 710.499 91.9633C710.364 93.5026 710.171 94.4072 709.982 94.8197L711.8 95.653ZM712.696 86.0078V20.6758H710.696V86.0078H712.696ZM712.696 20.6758C712.696 18.123 712.629 16.0288 712.491 14.4025C712.357 12.8119 712.148 11.5593 711.812 10.7647L709.97 11.5439C710.171 12.0188 710.365 12.988 710.498 14.5711C710.629 16.1186 710.696 18.1505 710.696 20.6758H712.696ZM711.812 10.7647C711.16 9.22506 709.864 7.98108 708.083 6.98545L707.107 8.73134C708.646 9.59118 709.547 10.5445 709.97 11.5439L711.812 10.7647ZM708.113 7.0032C706.288 5.89707 703.887 5.39355 701.003 5.39355V7.39355C703.685 7.39355 705.679 7.8666 707.076 8.7136L708.113 7.0032ZM701.003 5.39355H697.707V7.39355H701.003V5.39355ZM698.707 6.39355V3.68359H696.707V6.39355H698.707ZM697.707 4.68359H749.636V2.68359H697.707V4.68359ZM748.636 3.68359V6.39355H750.636V3.68359H748.636ZM749.636 5.39355H746.34V7.39355H749.636V5.39355ZM746.34 5.39355C743.352 5.39355 740.839 5.9237 738.878 7.06786L739.886 8.79542C741.44 7.8888 743.566 7.39355 746.34 7.39355V5.39355ZM738.908 7.05117C737.396 7.86498 736.263 9.23344 735.464 11.0436L737.294 11.8509C737.96 10.3408 738.828 9.36549 739.856 8.81211L738.908 7.05117ZM735.47 11.0306C735.122 11.79 734.913 13.0094 734.778 14.5463C734.641 16.1253 734.573 18.1718 734.573 20.6758H736.573C736.573 18.1993 736.64 16.2174 736.771 14.7203C736.905 13.181 737.099 12.2764 737.288 11.8639L735.47 11.0306ZM734.573 20.6758V86.0078H736.573V20.6758H734.573ZM734.573 86.0078C734.573 88.5606 734.641 90.6547 734.778 92.2811C734.913 93.8717 735.122 95.1243 735.458 95.9189L737.3 95.1397C737.099 94.6648 736.905 93.6956 736.771 92.1125C736.64 90.565 736.573 88.5331 736.573 86.0078H734.573ZM735.471 95.9483C736.165 97.4519 737.433 98.7089 739.156 99.7536L740.193 98.0432C738.694 97.1349 737.765 96.1458 737.287 95.1102L735.471 95.9483ZM739.187 99.7714C741.05 100.812 743.46 101.29 746.34 101.29V99.29C743.654 99.29 741.62 98.8401 740.163 98.0255L739.187 99.7714ZM746.34 101.29H749.636V99.29H746.34V101.29ZM807.521 9.39648V8.39648H806.521V9.39648H807.521ZM807.521 49.8262H806.521V50.8262H807.521V49.8262ZM828.614 26.3887V25.3887H827.71L827.619 26.2879L828.614 26.3887ZM831.397 26.3887H832.397V25.3887H831.397V26.3887ZM831.397 78.3906V79.3906H832.397V78.3906H831.397ZM828.614 78.3906L827.62 78.4935L827.712 79.3906H828.614V78.3906ZM824.879 64.4746L823.989 64.9314L823.994 64.9408L824.879 64.4746ZM818.36 57.2236L817.906 58.1145L817.913 58.1181L817.92 58.1216L818.36 57.2236ZM807.521 55.3193V54.3193H806.521V55.3193H807.521ZM808.18 93.332L807.239 93.6707L807.245 93.6872L807.251 93.7034L808.18 93.332ZM845.167 91.0615L844.559 90.2673L844.556 90.2699L845.167 91.0615ZM857.252 71.4326V70.4326H856.492L856.288 71.165L857.252 71.4326ZM859.962 71.4326L860.952 71.5728L861.113 70.4326H859.962V71.4326ZM855.494 103V104H856.363L856.484 103.14L855.494 103ZM769.654 103H768.654V104H769.654V103ZM769.654 100.29V99.29H768.654V100.29H769.654ZM779.908 98.752L779.434 97.8715L779.419 97.8796L779.404 97.8882L779.908 98.752ZM782.838 95.2363L781.929 94.8197L781.921 94.8375L781.913 94.8556L782.838 95.2363ZM783.277 12.3994L784.25 12.1678L784.245 12.1461L784.239 12.1247L783.277 12.3994ZM780.567 8.44434L779.974 9.24939L779.983 9.25586L779.992 9.26214L780.567 8.44434ZM769.654 6.39355H768.654V7.39355H769.654V6.39355ZM769.654 3.68359V2.68359H768.654V3.68359H769.654ZM852.784 3.68359H853.784V2.68359H852.784V3.68359ZM852.784 33.0537V34.0537H853.784V33.0537H852.784ZM850.001 33.0537L849.02 33.2473L849.179 34.0537H850.001V33.0537ZM843.995 17.5996L843.219 18.2302L843.225 18.2374L843.995 17.5996ZM833.155 10.7148L832.849 11.6669L832.857 11.6693L833.155 10.7148ZM806.521 9.39648V49.8262H808.521V9.39648H806.521ZM807.521 50.8262H809.498V48.8262H807.521V50.8262ZM809.498 50.8262C816.014 50.8262 820.934 48.7682 824.007 44.4757L822.381 43.3114C819.791 46.9291 815.579 48.8262 809.498 48.8262V50.8262ZM824.007 44.4757C826.984 40.3183 828.82 34.2847 829.609 26.4894L827.619 26.2879C826.846 33.9223 825.068 39.5586 822.381 43.3114L824.007 44.4757ZM828.614 27.3887H831.397V25.3887H828.614V27.3887ZM830.397 26.3887V78.3906H832.397V26.3887H830.397ZM831.397 77.3906H828.614V79.3906H831.397V77.3906ZM829.609 78.2877C829.015 72.5431 827.746 67.7697 825.764 64.0084L823.994 64.9408C825.82 68.4061 827.042 72.91 827.62 78.4935L829.609 78.2877ZM825.768 64.0178C823.858 60.2983 821.555 57.6762 818.801 56.3257L817.92 58.1216C820.146 59.2125 822.188 61.4244 823.989 64.9314L825.768 64.0178ZM818.815 56.3327C816.118 54.958 812.319 54.3193 807.521 54.3193V56.3193C812.195 56.3193 815.622 56.9502 817.906 58.1145L818.815 56.3327ZM806.521 55.3193V83.2979H808.521V55.3193H806.521ZM806.521 83.2979C806.521 86.0423 806.576 88.2701 806.687 89.9735C806.797 91.6372 806.965 92.9111 807.239 93.6707L809.121 92.9933C808.955 92.5323 808.794 91.5234 808.683 89.8424C808.575 88.2011 808.521 86.0221 808.521 83.2979H806.521ZM807.251 93.7034C807.83 95.1497 808.865 96.3086 810.292 97.1866L811.341 95.4833C810.228 94.7988 809.506 93.9558 809.108 92.9606L807.251 93.7034ZM810.292 97.1866C811.807 98.1186 814.092 98.5068 816.969 98.5068V96.5068C814.182 96.5068 812.365 96.1139 811.341 95.4833L810.292 97.1866ZM816.969 98.5068H822.901V96.5068H816.969V98.5068ZM822.901 98.5068C832.329 98.5068 839.988 96.3227 845.778 91.8531L844.556 90.2699C839.213 94.3941 832.028 96.5068 822.901 96.5068V98.5068ZM845.775 91.8557C851.607 87.3927 855.733 80.6377 858.215 71.7003L856.288 71.165C853.888 79.8056 849.957 86.1366 844.559 90.2674L845.775 91.8557ZM857.252 72.4326H859.962V70.4326H857.252V72.4326ZM858.972 71.2925L854.504 102.86L856.484 103.14L860.952 71.5728L858.972 71.2925ZM855.494 102H769.654V104H855.494V102ZM770.654 103V100.29H768.654V103H770.654ZM769.654 101.29H772.95V99.29H769.654V101.29ZM772.95 101.29C775.938 101.29 778.451 100.76 780.412 99.6157L779.404 97.8882C777.85 98.7948 775.724 99.29 772.95 99.29V101.29ZM780.382 99.6324C781.901 98.8146 783.013 97.437 783.763 95.6171L781.913 94.8556C781.295 96.3559 780.454 97.3222 779.434 97.8715L780.382 99.6324ZM783.747 95.653C784.095 94.8936 784.304 93.6742 784.438 92.1373C784.576 90.5583 784.644 88.5118 784.644 86.0078H782.644C782.644 88.4843 782.577 90.4662 782.446 91.9633C782.312 93.5026 782.118 94.4072 781.929 94.8197L783.747 95.653ZM784.644 86.0078V20.6758H782.644V86.0078H784.644ZM784.644 20.6758C784.644 18.4228 784.613 16.5937 784.551 15.1933C784.49 13.8204 784.397 12.785 784.25 12.1678L782.305 12.631C782.402 13.0392 782.492 13.8959 782.553 15.2818C782.613 16.6402 782.644 18.4366 782.644 20.6758H784.644ZM784.239 12.1247C783.695 10.2199 782.668 8.69952 781.143 7.62653L779.992 9.26214C781.104 10.0446 781.883 11.161 782.316 12.6741L784.239 12.1247ZM781.161 7.63928C779.077 6.10386 776.304 5.39355 772.95 5.39355V7.39355C776.042 7.39355 778.347 8.05044 779.974 9.24939L781.161 7.63928ZM772.95 5.39355H769.654V7.39355H772.95V5.39355ZM770.654 6.39355V3.68359H768.654V6.39355H770.654ZM769.654 4.68359H852.784V2.68359H769.654V4.68359ZM851.784 3.68359V33.0537H853.784V3.68359H851.784ZM852.784 32.0537H850.001V34.0537H852.784V32.0537ZM850.982 32.8602C849.556 25.6309 847.514 20.2808 844.765 16.9618L843.225 18.2374C845.652 21.1684 847.614 26.121 849.02 33.2473L850.982 32.8602ZM844.771 16.969C842.083 13.6608 838.287 11.2709 833.454 9.76036L832.857 11.6693C837.398 13.0885 840.829 15.2884 843.219 18.2302L844.771 16.969ZM833.461 9.76281C830.558 8.82969 825.282 8.39648 817.774 8.39648V10.3965C825.306 10.3965 830.284 10.8422 832.849 11.6669L833.461 9.76281ZM817.774 8.39648H807.521V10.3965H817.774V8.39648ZM1028.88 3.68359H1029.88V2.68359H1028.88V3.68359ZM1028.88 6.39355L1028.96 7.39045L1029.88 7.31772V6.39355H1028.88ZM1020.83 11.96L1019.95 11.4844L1019.94 11.4985L1019.93 11.5127L1020.83 11.96ZM1016.21 23.3125L1015.28 22.9422L1015.28 22.9498L1015.28 22.9574L1016.21 23.3125ZM985.083 105.271V106.271H985.773L986.018 105.626L985.083 105.271ZM982.227 105.271L981.293 105.629L981.54 106.271H982.227V105.271ZM957.617 41.2568L958.551 40.898L957.662 38.5862L956.696 40.867L957.617 41.2568ZM930.518 105.271V106.271H931.18L931.438 105.66L930.518 105.271ZM927.808 105.271L926.88 105.644L927.132 106.271H927.808V105.271ZM895.142 24.1914L896.069 23.8177L896.068 23.8143L895.142 24.1914ZM881.519 6.39355H880.519V7.30419L881.425 7.38919L881.519 6.39355ZM881.519 3.68359V2.68359H880.519V3.68359H881.519ZM924.585 3.68359H925.585V2.68359H924.585V3.68359ZM924.585 6.39355L924.613 7.39316L925.585 7.36578V6.39355H924.585ZM917.627 8.00488L918.264 8.77585L918.267 8.77311L917.627 8.00488ZM919.531 23.3125L918.602 23.6826L918.604 23.6873L919.531 23.3125ZM939.014 71.5059L938.087 71.8806L939.002 74.1457L939.938 71.8887L939.014 71.5059ZM954.614 33.8594L955.538 34.2422L955.692 33.8712L955.546 33.4969L954.614 33.8594ZM950.513 23.3125L951.445 22.9501L951.444 22.9493L950.513 23.3125ZM945.312 11.8135L944.464 12.3435L944.471 12.3531L945.312 11.8135ZM941.064 7.63867L940.595 8.52186L940.607 8.52765L941.064 7.63867ZM934.106 6.39355H933.106V7.39355H934.106V6.39355ZM934.106 3.68359V2.68359H933.106V3.68359H934.106ZM982.227 3.68359H983.227V2.68359H982.227V3.68359ZM982.227 6.39355L982.241 7.39345L983.227 7.37917V6.39355H982.227ZM972.559 8.95703L973.359 9.55703L973.367 9.54549L973.376 9.53371L972.559 8.95703ZM974.976 21.9941L974.041 22.3505L974.042 22.3532L974.976 21.9941ZM993.066 69.0156L992.133 69.3747L993.072 71.8144L994.001 69.3712L993.066 69.0156ZM1009.25 26.4619L1008.32 26.0995L1008.32 26.1064L1009.25 26.4619ZM1010.94 8.29785L1010.29 9.05711L1010.29 9.06393L1010.3 9.07058L1010.94 8.29785ZM1003.1 6.39355H1002.1V7.36856L1003.08 7.39323L1003.1 6.39355ZM1003.1 3.68359V2.68359H1002.1V3.68359H1003.1ZM1027.88 3.68359V6.39355H1029.88V3.68359H1027.88ZM1028.8 5.39666C1026.81 5.55418 1025.07 6.1112 1023.63 7.10945L1024.76 8.75383C1025.86 7.99427 1027.24 7.52589 1028.96 7.39045L1028.8 5.39666ZM1023.63 7.10945C1022.19 8.10245 1020.97 9.58318 1019.95 11.4844L1021.7 12.4355C1022.63 10.7235 1023.66 9.51865 1024.76 8.75383L1023.63 7.10945ZM1019.93 11.5127C1019.61 12.1484 1018.05 15.996 1015.28 22.9422L1017.14 23.6828C1019.94 16.6641 1021.45 12.9434 1021.72 12.4072L1019.93 11.5127ZM1015.28 22.9574L984.148 104.915L986.018 105.626L1017.15 23.6676L1015.28 22.9574ZM985.083 104.271H982.227V106.271H985.083V104.271ZM983.16 104.912L958.551 40.898L956.684 41.6157L981.293 105.629L983.16 104.912ZM956.696 40.867L929.597 104.881L931.438 105.66L958.538 41.6467L956.696 40.867ZM930.518 104.271H927.808V106.271H930.518V104.271ZM928.735 104.897L896.069 23.8177L894.214 24.5651L926.88 105.644L928.735 104.897ZM896.068 23.8143C894.404 19.7294 892.987 16.4398 891.817 13.9514C890.659 11.4895 889.709 9.73689 888.975 8.78568L887.392 10.0073C887.976 10.7651 888.845 12.3327 890.007 14.8025C891.156 17.2458 892.558 20.4991 894.215 24.5685L896.068 23.8143ZM888.975 8.78568C887.423 6.77333 884.886 5.70488 881.612 5.39792L881.425 7.38919C884.401 7.66816 886.307 8.60167 887.392 10.0073L888.975 8.78568ZM882.519 6.39355V3.68359H880.519V6.39355H882.519ZM881.519 4.68359H924.585V2.68359H881.519V4.68359ZM923.585 3.68359V6.39355H925.585V3.68359H923.585ZM924.557 5.39395C922.784 5.44389 921.266 5.60675 920.02 5.89541C918.785 6.18141 917.742 6.60758 916.987 7.23666L918.267 8.77311C918.684 8.42562 919.387 8.09496 920.471 7.84385C921.544 7.5954 922.919 7.44088 924.613 7.39316L924.557 5.39395ZM916.99 7.23392C915.645 8.34532 914.942 9.79645 914.942 11.5205H916.942C916.942 10.4125 917.363 9.51991 918.264 8.77584L916.99 7.23392ZM914.942 11.5205C914.942 12.6083 915.282 14.1776 915.883 16.1513C916.492 18.1539 917.401 20.6666 918.602 23.6826L920.46 22.9424C919.269 19.9525 918.383 17.497 917.796 15.5689C917.201 13.612 916.942 12.2882 916.942 11.5205H914.942ZM918.604 23.6873L938.087 71.8806L939.941 71.1311L920.458 22.9377L918.604 23.6873ZM939.938 71.8887L955.538 34.2422L953.69 33.4765L938.09 71.123L939.938 71.8887ZM955.546 33.4969L951.445 22.9501L949.581 23.6749L953.682 34.2218L955.546 33.4969ZM951.444 22.9493C949.202 17.1969 947.436 13.2738 946.154 11.2738L944.471 12.3531C945.63 14.1618 947.331 17.9046 949.581 23.6757L951.444 22.9493ZM946.161 11.2835C944.87 9.21848 943.332 7.68167 941.522 6.7497L940.607 8.52765C942.02 9.25583 943.314 10.5022 944.464 12.3435L946.161 11.2835ZM941.534 6.75556C939.756 5.81133 937.242 5.39355 934.106 5.39355V7.39355C937.124 7.39355 939.248 7.80586 940.595 8.52179L941.534 6.75556ZM935.106 6.39355V3.68359H933.106V6.39355H935.106ZM934.106 4.68359H982.227V2.68359H934.106V4.68359ZM981.227 3.68359V6.39355H983.227V3.68359H981.227ZM982.212 5.39366C978.832 5.44264 976.281 5.70985 974.659 6.25053L975.292 8.1479C976.599 7.71203 978.883 7.44212 982.241 7.39345L982.212 5.39366ZM974.659 6.25053C973.445 6.6552 972.459 7.3646 971.742 8.38035L973.376 9.53371C973.83 8.88931 974.455 8.42683 975.292 8.1479L974.659 6.25053ZM971.759 8.35703C971.036 9.32041 970.68 10.4368 970.68 11.667H972.68C972.68 10.8464 972.909 10.1562 973.359 9.55703L971.759 8.35703ZM970.68 11.667C970.68 12.0728 970.773 12.595 970.913 13.1781C971.059 13.7813 971.272 14.5223 971.551 15.3951C972.108 17.1419 972.94 19.4625 974.041 22.3505L975.91 21.6378C974.814 18.764 973.997 16.4826 973.456 14.787C973.186 13.9387 972.987 13.2483 972.858 12.7102C972.724 12.1519 972.68 11.8227 972.68 11.667H970.68ZM974.042 22.3532L992.133 69.3747L994 68.6565L975.909 21.6351L974.042 22.3532ZM994.001 69.3712L1010.19 26.8174L1008.32 26.1064L992.132 68.6601L994.001 69.3712ZM1010.18 26.8244C1011.89 22.4378 1012.97 19.3747 1013.37 17.6887L1011.43 17.2175C1011.06 18.7542 1010.03 21.697 1008.32 26.0995L1010.18 26.8244ZM1013.37 17.6887C1013.78 16.016 1013.99 14.4466 1013.99 12.9854H1011.99C1011.99 14.2585 1011.81 15.6676 1011.43 17.2175L1013.37 17.6887ZM1013.99 12.9854C1013.99 10.7285 1013.2 8.86456 1011.57 7.52512L1010.3 9.07058C1011.41 9.97723 1011.99 11.2383 1011.99 12.9854H1013.99ZM1011.59 7.53859C1010.74 6.81213 1009.58 6.30888 1008.19 5.97115C1006.79 5.63147 1005.1 5.44379 1003.13 5.39388L1003.08 7.39323C1004.96 7.44097 1006.5 7.61951 1007.72 7.9146C1008.94 8.21162 1009.77 8.6117 1010.29 9.05711L1011.59 7.53859ZM1004.1 6.39355V3.68359H1002.1V6.39355H1004.1ZM1003.1 4.68359H1028.88V2.68359H1003.1V4.68359Z" fill="white"/>
</svg>
