<svg width="24" height="16" viewBox="0 0 24 16" fill="none" xmlns="http://www.w3.org/2000/svg">
<path d="M24 0H0V16H24V0Z" fill="#E00000"/>
<path d="M4.53899 3.2587L4.00009 1.6001L3.46129 3.2587H1.71729L3.12819 4.2838L2.58939 5.9422L4.00009 4.9172L5.41089 5.9423L4.87199 4.2838L6.28289 3.2587H4.53899Z" fill="#ECD000"/>
<path d="M9.38012 3.41235L9.46102 3.98795L9.73392 3.47476L10.3063 3.57565L9.90262 3.15756L10.1755 2.64425L9.65302 2.89916L9.24922 2.48096L9.33012 3.05656L8.80762 3.31145L9.38012 3.41235Z" fill="#ECD000"/>
<path d="M7.88085 1.88123L8.18026 2.37953L8.23095 1.80043L8.79725 1.66973L8.26226 1.44263L8.31295 0.863525L7.93156 1.30223L7.39645 1.07502L7.69586 1.57333L7.31445 2.01213L7.88085 1.88123Z" fill="#ECD000"/>
<path d="M8.28143 6.45117L7.91883 6.90548L7.37463 6.70098L7.69463 7.18628L7.33203 7.64058L7.89243 7.48618L8.21243 7.97147L8.23883 7.39077L8.79923 7.23647L8.25513 7.03198L8.28143 6.45117Z" fill="#ECD000"/>
<path d="M10.3517 5.32644L9.77086 5.34674L9.57205 4.80054L9.41185 5.35924L8.83105 5.37954L9.31296 5.70444L9.15275 6.26315L9.61066 5.90535L10.0925 6.23024L9.89365 5.68424L10.3517 5.32644Z" fill="#ECD000"/>
</svg>
