<svg width="24" height="16" viewBox="0 0 24 16" fill="none" xmlns="http://www.w3.org/2000/svg">
<mask id="mask0" mask-type="alpha" maskUnits="userSpaceOnUse" x="0" y="0" width="24" height="16">
<path d="M24 0H0V16H24V0Z" fill="#002173"/>
</mask>
<g mask="url(#mask0)">
<path d="M26.8566 -0.500732H-2.8501V16.8989H26.8566V-0.500732Z" fill="#002173"/>
<path d="M27.7872 14.6672L-2.5791 -0.515869L-3.71783 1.7616L26.6484 16.9447L27.7872 14.6672Z" fill="white"/>
<path d="M-3.14825 0.622924L-3.52783 1.38208L11.6553 8.97359L12.0349 8.21443L-3.14825 0.622924Z" fill="#C61018"/>
<path d="M12.4142 7.4552L12.0347 8.21436L27.2178 15.8059L27.5974 15.0467L12.4142 7.4552Z" fill="#C61018"/>
<path d="M26.6485 -0.515864L-3.71777 14.6672L-2.57904 16.9447L27.7872 1.76161L26.6485 -0.515864Z" fill="white"/>
<path d="M12.0347 8.21441L-3.14844 15.8059L-2.76886 16.5651L12.4143 8.97356L12.0347 8.21441Z" fill="#C61018"/>
<path d="M26.8384 -0.136169L11.6553 7.45532L12.0349 8.21448L27.218 0.622987L26.8384 -0.136169Z" fill="#C61018"/>
<path d="M26.8883 6.09253H14.1569V-0.273193H9.91308V6.09253H-2.81836V10.3363H9.91308V16.7021H14.1569V10.3363H26.8883V6.09253Z" fill="white"/>
<path d="M26.8883 6.94129H13.3081V-0.273193H10.7618V6.94129H-2.81836V9.48758H10.7618V16.7021H13.3081V9.48758H26.8883V6.94129Z" fill="#C61018"/>
</g>
</svg>
