<svg width="33" height="54" viewBox="0 0 33 54" fill="none" xmlns="http://www.w3.org/2000/svg">
<path fill-rule="evenodd" clip-rule="evenodd" d="M4.83275 4.89791C7.9271 1.76182 12.1239 -9.22086e-06 16.5 0C20.8761 1.92112e-06 25.0729 1.76184 28.1673 4.89793C31.2616 8.03402 33 12.2875 33 16.7226C33 22.9567 28.2346 30.9975 23.9784 38.1792C23.0837 39.6889 22.2115 41.1606 21.4108 42.5696C17.9317 48.6916 16.5 54 16.5 54C16.5 54 15.2686 48.6433 11.6903 42.4625C10.8356 40.9862 9.88991 39.4424 8.91742 37.855C4.70918 30.9856 0 23.2986 0 16.7226C1.06145e-05 12.2875 1.73839 8.034 4.83275 4.89791ZM25.6072 13.1589C27.2492 18.2611 24.4992 23.7463 19.4649 25.4105C14.4307 27.0746 9.01846 24.2876 7.37645 19.1854C5.73444 14.0832 8.48441 8.59795 13.5187 6.93378C18.553 5.26961 23.9652 8.05669 25.6072 13.1589Z" fill="white"/>
<path fill-rule="evenodd" clip-rule="evenodd" d="M6.95993 7.08086C9.49167 4.46745 12.9255 2.99926 16.5059 2.99927C20.0863 2.99927 23.5201 4.46747 26.0518 7.08087C28.5835 9.69428 30.0059 13.2388 30.0059 16.9347C30.0059 22.1298 26.1069 28.8306 22.6246 34.8153C21.8925 36.0733 21.1789 37.2998 20.5238 38.4739C17.6773 43.5756 16.5059 47.9993 16.5059 47.9993C16.5059 47.9993 15.4984 43.5353 12.5707 38.3847C11.8714 37.1544 11.0976 35.8679 10.3019 34.5451C6.85882 28.8206 3.00586 22.4148 3.00586 16.9347C3.00587 13.2388 4.42818 9.69427 6.95993 7.08086ZM23.9632 13.9646C25.3066 18.2165 23.0566 22.7875 18.9377 24.1743C14.8187 25.5611 10.3906 23.2385 9.0471 18.9867C7.70364 14.7349 9.95361 10.1639 14.0726 8.77705C18.1915 7.39025 22.6197 9.71281 23.9632 13.9646Z" fill="#DDA15E"/>
<path d="M24.5015 16.5015C24.5015 20.9197 20.9197 24.5015 16.5015 24.5015C12.0832 24.5015 8.50146 20.9197 8.50146 16.5015C8.50146 12.0832 12.0832 8.50146 16.5015 8.50146C20.9197 8.50146 24.5015 12.0832 24.5015 16.5015Z" stroke="white" stroke-width="2"/>
</svg>
