<svg width="115" height="71" viewBox="0 0 115 71" fill="none" xmlns="http://www.w3.org/2000/svg">
<path d="M28.8 70.504C23.232 70.504 18.272 69.128 13.92 66.376C9.568 63.624 6.14401 59.656 3.64801 54.472C1.21601 49.224 0 42.984 0 35.752C0 28.52 1.21601 22.312 3.64801 17.128C6.14401 11.88 9.568 7.88 13.92 5.128C18.272 2.376 23.232 1 28.8 1C34.368 1 39.328 2.376 43.68 5.128C48.032 7.88 51.424 11.88 53.856 17.128C56.352 22.312 57.6 28.52 57.6 35.752C57.6 42.984 56.352 49.224 53.856 54.472C51.424 59.656 48.032 63.624 43.68 66.376C39.328 69.128 34.368 70.504 28.8 70.504ZM28.8 57.352C32.896 57.352 36.096 55.592 38.4 52.072C40.768 48.552 41.952 43.112 41.952 35.752C41.952 28.392 40.768 22.952 38.4 19.432C36.096 15.912 32.896 14.152 28.8 14.152C24.768 14.152 21.568 15.912 19.2 19.432C16.896 22.952 15.744 28.392 15.744 35.752C15.744 43.112 16.896 48.552 19.2 52.072C21.568 55.592 24.768 57.352 28.8 57.352ZM114.801 56.68V69.352H64.0178V59.272L89.9378 34.792C92.6898 32.168 94.5458 29.928 95.5058 28.072C96.4658 26.152 96.9458 24.264 96.9458 22.408C96.9458 19.72 96.0178 17.672 94.1618 16.264C92.3698 14.792 89.7138 14.056 86.1938 14.056C83.2498 14.056 80.5938 14.632 78.2258 15.784C75.8578 16.872 73.8738 18.536 72.2738 20.776L60.9458 13.48C63.5698 9.576 67.1858 6.536 71.7938 4.36C76.4018 2.12 81.6818 1 87.6338 1C92.6258 1 96.9778 1.832 100.689 3.496C104.465 5.096 107.377 7.4 109.425 10.408C111.537 13.352 112.593 16.84 112.593 20.872C112.593 24.52 111.825 27.944 110.289 31.144C108.753 34.344 105.777 37.992 101.361 42.088L85.9058 56.68H114.801Z" fill="#F2F7FE"/>
<path d="M60.4191 26.1807C64.2432 25.156 67.7424 28.6553 66.7178 32.4793L64.4123 41.0836C63.3877 44.9077 58.6076 46.1884 55.8081 43.389L49.5095 37.0904C46.7101 34.291 47.9909 29.5108 51.8149 28.4862L60.4191 26.1807Z" fill="#5E9BF4"/>
</svg>
