<svg width="92" height="71" viewBox="0 0 92 71" fill="none" xmlns="http://www.w3.org/2000/svg">
<path d="M29.4503 70.1519C23.8823 70.1519 18.9223 68.7759 14.5703 66.0239C10.2183 63.2719 6.79427 59.3039 4.29827 54.1199C1.86627 48.8719 0.650269 42.632 0.650269 35.4C0.650269 28.168 1.86627 21.9599 4.29827 16.7759C6.79427 11.5279 10.2183 7.52795 14.5703 4.77595C18.9223 2.02395 23.8823 0.647949 29.4503 0.647949C35.0183 0.647949 39.9783 2.02395 44.3303 4.77595C48.6823 7.52795 52.0743 11.5279 54.5063 16.7759C57.0023 21.9599 58.2503 28.168 58.2503 35.4C58.2503 42.632 57.0023 48.8719 54.5063 54.1199C52.0743 59.3039 48.6823 63.2719 44.3303 66.0239C39.9783 68.7759 35.0183 70.1519 29.4503 70.1519ZM29.4503 57C33.5463 57 36.7463 55.24 39.0503 51.72C41.4183 48.2 42.6023 42.76 42.6023 35.4C42.6023 28.04 41.4183 22.6 39.0503 19.08C36.7463 15.56 33.5463 13.8 29.4503 13.8C25.4183 13.8 22.2183 15.56 19.8503 19.08C17.5463 22.6 16.3943 28.04 16.3943 35.4C16.3943 42.76 17.5463 48.2 19.8503 51.72C22.2183 55.24 25.4183 57 29.4503 57ZM91.164 1.79995V68.9999H75.612V14.28H62.172V1.79995H91.164Z" fill="#F2F7FE"/>
<path d="M49.4191 26.1807C53.2432 25.156 56.7424 28.6553 55.7178 32.4793L53.4123 41.0836C52.3877 44.9077 47.6076 46.1884 44.8081 43.389L38.5095 37.0904C35.7101 34.291 36.9909 29.5108 40.8149 28.4862L49.4191 26.1807Z" fill="#5E9BF4"/>
</svg>
