<svg width="115" height="71" viewBox="0 0 115 71" fill="none" xmlns="http://www.w3.org/2000/svg">
<path d="M29.0284 70.1519C23.4604 70.1519 18.5004 68.7759 14.1484 66.0239C9.7964 63.2719 6.3724 59.3039 3.8764 54.1199C1.4444 48.8719 0.228394 42.632 0.228394 35.4C0.228394 28.168 1.4444 21.9599 3.8764 16.7759C6.3724 11.5279 9.7964 7.52795 14.1484 4.77595C18.5004 2.02395 23.4604 0.647949 29.0284 0.647949C34.5964 0.647949 39.5564 2.02395 43.9084 4.77595C48.2604 7.52795 51.6524 11.5279 54.0844 16.7759C56.5804 21.9599 57.8284 28.168 57.8284 35.4C57.8284 42.632 56.5804 48.8719 54.0844 54.1199C51.6524 59.3039 48.2604 63.2719 43.9084 66.0239C39.5564 68.7759 34.5964 70.1519 29.0284 70.1519ZM29.0284 57C33.1244 57 36.3244 55.24 38.6284 51.72C40.9964 48.2 42.1804 42.76 42.1804 35.4C42.1804 28.04 40.9964 22.6 38.6284 19.08C36.3244 15.56 33.1244 13.8 29.0284 13.8C24.9964 13.8 21.7964 15.56 19.4284 19.08C17.1244 22.6 15.9724 28.04 15.9724 35.4C15.9724 42.76 17.1244 48.2 19.4284 51.72C21.7964 55.24 24.9964 57 29.0284 57ZM95.8391 29.16C101.727 30.12 106.239 32.328 109.375 35.784C112.511 39.176 114.079 43.4 114.079 48.456C114.079 52.36 113.055 55.976 111.007 59.304C108.959 62.568 105.823 65.1919 101.599 67.1759C97.4391 69.1599 92.3191 70.1519 86.2391 70.1519C81.5031 70.1519 76.8311 69.5439 72.2231 68.3279C67.6791 67.0479 63.8071 65.2559 60.6071 62.952L66.6551 51.048C69.2151 52.968 72.1591 54.472 75.4871 55.56C78.8791 56.584 82.3351 57.096 85.8551 57.096C89.7591 57.096 92.8311 56.36 95.0711 54.888C97.3111 53.352 98.4311 51.208 98.4311 48.456C98.4311 42.952 94.2391 40.2 85.8551 40.2H78.7511V29.9279L92.5751 14.28H63.9671V1.79995H111.007V11.88L95.8391 29.16Z" fill="#F2F7FE"/>
<path d="M60.4191 26.1807C64.2432 25.156 67.7424 28.6553 66.7178 32.4793L64.4123 41.0836C63.3877 44.9077 58.6076 46.1884 55.8081 43.389L49.5095 37.0904C46.7101 34.291 47.9909 29.5108 51.8149 28.4862L60.4191 26.1807Z" fill="#5E9BF4"/>
</svg>
