<svg width="232" height="249" viewBox="0 0 232 249" fill="none" xmlns="http://www.w3.org/2000/svg">
<path d="M136.054 246.625C82.371 231.549 -15.517 156.187 7.07749 92.182C29.672 28.1774 135.324 -0.681777 177.007 3.70499C221.725 8.41123 235.743 70.0627 223.608 136.42C213.578 191.264 189.738 261.701 136.054 246.625Z" fill="#F2F7FE"/>
<g clip-path="url(#clip0)">
<path d="M82.4375 87.5625H93.6875C98.3401 87.5625 102.125 83.7776 102.125 79.125C102.125 75.3238 99.5981 72.102 96.1374 71.0501C95.0827 67.5894 91.8639 65.0625 88.0625 65.0625C84.2611 65.0625 81.0423 67.5894 79.9876 71.0501C76.5269 72.102 74 75.3238 74 79.125C74 83.7778 77.7849 87.5625 82.4375 87.5625ZM144.5 76.3125H155.75C160.403 76.3125 164.188 72.5276 164.188 67.875C164.188 64.0738 161.661 60.852 158.2 59.8001C157.145 56.3394 153.926 53.8125 150.125 53.8125C146.324 53.8125 143.105 56.3394 142.05 59.8001C138.589 60.852 136.063 64.0738 136.063 67.875C136.063 72.5278 139.847 76.3125 144.5 76.3125ZM169.54 133.8L147.875 101.569C144.219 102.244 142.363 93.1875 138.875 93.1875C135.556 93.1875 108.444 93.1875 105.125 93.1875C101.638 93.1875 99.7814 102.3 96.1252 101.569L74.4599 133.8C73.8969 134.7 73.8406 135.769 74.3474 136.725C74.8535 137.625 75.8099 138.188 76.8221 138.188H167.178C168.19 138.188 169.147 137.625 169.653 136.725C170.159 135.769 170.103 134.7 169.54 133.8Z" fill="url(#paint0_linear)"/>
<path d="M124.362 66.2998C123.294 64.7249 120.706 64.7249 119.638 66.2998L96.1252 101.569C99.7817 102.3 101.638 96 105.125 96C108.444 96 110.243 101.625 113.563 101.625C116.882 101.625 118.681 96 122 96C125.319 96 127.118 101.625 130.438 101.625C133.757 101.625 135.556 96 138.875 96C142.363 96 144.219 102.244 147.875 101.569L124.362 66.2998Z" fill="url(#paint1_linear)"/>
</g>
<defs>
<linearGradient id="paint0_linear" x1="122" y1="138.188" x2="122" y2="53.8125" gradientUnits="userSpaceOnUse">
<stop stop-color="#1F3A6F"/>
<stop offset="1" stop-color="#63A3FF"/>
</linearGradient>
<linearGradient id="paint1_linear" x1="122" y1="65.1187" x2="122" y2="101.628" gradientUnits="userSpaceOnUse">
<stop stop-color="#FEE6D3"/>
<stop offset="1" stop-color="#F4B545"/>
</linearGradient>
<clipPath id="clip0">
<rect width="96" height="96" fill="white" transform="translate(74 48)"/>
</clipPath>
</defs>
</svg>
