<svg width="232" height="249" viewBox="0 0 232 249" fill="none" xmlns="http://www.w3.org/2000/svg">
<path d="M136.054 246.625C82.371 231.549 -15.517 156.187 7.07749 92.182C29.672 28.1774 135.324 -0.681779 177.007 3.70499C221.725 8.41123 235.743 70.0627 223.608 136.42C213.578 191.264 189.738 261.701 136.054 246.625Z" fill="#F2F7FE"/>
<g clip-path="url(#clip0)">
<path d="M161.188 48H104.75C103.197 48 101.938 49.2592 101.938 50.8125V96C101.938 97.5532 103.197 98.8125 104.75 98.8125H131.71L147.761 114.864C148.672 115.775 150.088 115.953 151.204 115.283C152.065 114.766 152.563 113.807 152.563 112.802V98.8123H161.188C162.741 98.8123 164 97.5531 164 95.9998V50.8125C164 49.2592 162.741 48 161.188 48V48Z" fill="url(#paint0_linear)"/>
<path d="M82.2494 144C81.8896 144 81.5268 143.931 81.1809 143.789C80.1262 143.355 79.4375 142.328 79.4375 141.188V126.938H70.8125C69.2592 126.938 68 125.678 68 124.125V79.125C68 77.5717 69.2592 76.3125 70.8125 76.3125H127.25C128.803 76.3125 130.062 77.5717 130.062 79.125V124.125C130.062 125.678 128.803 126.938 127.25 126.938H100.299L84.2497 143.165C83.7108 143.71 82.9865 144 82.2494 144Z" fill="url(#paint1_linear)"/>
</g>
<defs>
<linearGradient id="paint0_linear" x1="132.969" y1="115.688" x2="132.969" y2="48" gradientUnits="userSpaceOnUse">
<stop stop-color="#1F3A6F"/>
<stop offset="1" stop-color="#63A3FF"/>
</linearGradient>
<linearGradient id="paint1_linear" x1="99.0312" y1="76.3125" x2="99.0312" y2="144" gradientUnits="userSpaceOnUse">
<stop stop-color="#FEE6D3"/>
<stop offset="1" stop-color="#F4B545"/>
</linearGradient>
<clipPath id="clip0">
<rect width="96" height="96" fill="white" transform="translate(68 48)"/>
</clipPath>
</defs>
</svg>
