<svg width="232" height="249" viewBox="0 0 232 249" fill="none" xmlns="http://www.w3.org/2000/svg">
<path d="M136.054 246.625C82.371 231.549 -15.517 156.187 7.07749 92.182C29.672 28.1774 135.324 -0.681779 177.007 3.70499C221.725 8.41123 235.743 70.0627 223.608 136.42C213.578 191.264 189.738 261.701 136.054 246.625Z" fill="#F2F7FE"/>
<path d="M137.488 74.5123C136.703 73.7295 135.527 73.485 134.489 73.8752L69.8015 98.7866C68.6562 99.2288 67.931 100.361 68.0052 101.585C68.0795 102.808 68.939 103.843 70.1311 104.14L100.313 111.687L107.861 141.87C108.158 143.062 109.193 143.921 110.415 143.996C111.734 144.058 112.797 143.28 113.214 142.199L138.126 77.5118C138.524 76.4734 138.274 75.2979 137.488 74.5123Z" fill="url(#paint0_linear)"/>
<path d="M146.794 69.1832L154.751 61.2263C155.85 60.1277 155.85 58.3478 154.751 57.2492C153.653 56.1507 151.873 56.1507 150.774 57.2492L142.817 65.2062C141.719 66.3047 141.719 68.0847 142.817 69.1832C143.916 70.282 145.696 70.282 146.794 69.1832ZM132.875 48.001C131.32 48.001 130.062 49.2589 130.062 50.8135V62.251C130.062 63.8055 131.32 65.0635 132.875 65.0635C134.429 65.0635 135.687 63.8055 135.687 62.251V50.8135C135.687 49.2589 134.429 48.001 132.875 48.001ZM114.975 57.2494C113.877 56.1509 112.097 56.1509 110.998 57.2494C109.9 58.348 109.9 60.1279 110.998 61.2265L118.955 69.1834C120.054 70.282 121.834 70.282 122.932 69.1834C124.031 68.0849 124.031 66.3049 122.932 65.2064L114.975 57.2494ZM146.794 89.0685C145.696 87.97 143.916 87.97 142.817 89.0685C141.719 90.1671 141.719 91.947 142.817 93.0456L150.774 101.003C151.873 102.101 153.653 102.101 154.751 101.003C155.85 99.904 155.85 98.124 154.751 97.0255L146.794 89.0685ZM161.187 76.3135H149.75C148.195 76.3135 146.937 77.5714 146.937 79.126C146.937 80.6805 148.195 81.9385 149.75 81.9385H161.187C162.742 81.9385 164 80.6805 164 79.126C164 77.5714 162.742 76.3135 161.187 76.3135Z" fill="url(#paint1_linear)"/>
<defs>
<linearGradient id="paint0_linear" x1="103.156" y1="143.999" x2="103.156" y2="73.6924" gradientUnits="userSpaceOnUse">
<stop stop-color="#1F3A6F"/>
<stop offset="1" stop-color="#63A3FF"/>
</linearGradient>
<linearGradient id="paint1_linear" x1="137.087" y1="101.827" x2="137.087" y2="48.001" gradientUnits="userSpaceOnUse">
<stop stop-color="#EDBA80"/>
<stop offset="1" stop-color="#FFE8D6"/>
</linearGradient>
</defs>
</svg>
