<svg width="60" height="60" viewBox="0 0 60 60" fill="none" xmlns="http://www.w3.org/2000/svg">
<g clip-path="url(#clip0)">
<path d="M42.5542 47.9568L34.8806 45.7437V43.7981C35.9022 42.978 36.71 41.904 37.2107 40.672H37.7798C39.9117 40.672 41.6454 38.9383 41.6454 36.8064V31.0079C41.6454 24.6136 36.4434 19.4111 30.0485 19.4111C23.6542 19.4111 18.4517 24.6136 18.4517 31.0079V36.8064C18.4517 38.9383 20.1859 40.672 22.3173 40.672H22.8869C23.3875 41.904 24.1954 42.978 25.2165 43.7981V45.7437L17.5434 47.9568C14.6645 48.7878 12.6533 51.46 12.6533 54.4569V60H47.4438V54.4569C47.4438 51.46 45.4331 48.7878 42.5542 47.9568ZM35.654 47.978L34.3502 52.5396L31.4953 50.2558L34.1944 47.5566L35.654 47.978ZM29.6795 56.1344H30.418L31.3844 58.0672H28.7131L29.6795 56.1344ZM30.6153 54.2016H29.4823L28.2743 52.9936L30.0485 51.5742L31.8233 52.9936L30.6153 54.2016ZM37.7798 38.7392H37.7132C37.7529 38.4221 37.7798 38.1002 37.7798 37.7728V34.8736C38.8457 34.8736 39.7126 35.7404 39.7126 36.8064C39.7126 37.8723 38.8457 38.7392 37.7798 38.7392ZM30.0485 21.3439C35.3774 21.3439 39.7126 25.6791 39.7126 31.0079V33.4782C39.1416 33.1455 38.4876 32.9408 37.7798 32.9408V32.3872C37.7798 30.5606 36.2938 29.0751 34.4681 29.0751C33.958 29.0751 33.4456 29.1959 32.9864 29.4253L30.8413 30.4979C30.1736 30.831 29.4266 31.0079 28.6792 31.0079H25.2165C23.9585 31.0079 22.8954 31.8186 22.4952 32.9408H22.3173C21.61 32.9408 20.956 33.1455 20.3845 33.4782V31.0079C20.3845 25.6791 24.7201 21.3439 30.0485 21.3439ZM22.3173 38.7392C21.2518 38.7392 20.3845 37.8723 20.3845 36.8064C20.3845 35.7404 21.2518 34.8736 22.3173 34.8736V37.7728C22.3173 38.1002 22.3447 38.4221 22.3843 38.7392H22.3173ZM24.2501 37.7728V33.9072C24.2501 33.3739 24.6843 32.9408 25.2165 32.9408H28.6792C29.7248 32.9408 30.7705 32.6935 31.7053 32.2268L33.8504 31.1547C34.042 31.0584 34.2544 31.0089 34.4681 31.0089C35.2288 31.0079 35.847 31.6266 35.847 32.3872V37.7728C35.847 40.9707 33.2464 43.5712 30.0485 43.5712C26.8511 43.5712 24.2501 40.9707 24.2501 37.7728ZM30.0485 45.504C31.0739 45.504 32.0521 45.2992 32.9478 44.9349V46.0702L30.0485 48.9694L27.1493 46.0702V44.9349C28.0454 45.2992 29.0236 45.504 30.0485 45.504ZM25.9031 47.5566L28.6022 50.2558L25.7474 52.5396L24.4436 47.978L25.9031 47.5566ZM14.5861 54.4569C14.5861 52.3174 16.0225 50.4086 18.0789 49.8141L22.5863 48.5136L24.6862 55.864L26.7553 54.2082L27.9062 55.3586L26.5524 58.0672H20.3845V55.168H18.4517V58.0672H14.5861V54.4569ZM45.511 58.0672H41.6454V55.168H39.7126V58.0672H33.5451L32.1913 55.3586L33.3422 54.2082L35.4114 55.864L37.5113 48.5136L42.0186 49.8141C44.0751 50.4077 45.511 52.3174 45.511 54.4569V58.0672Z" fill="#222222"/>
<path d="M25.5052 11.9177L30.0489 9.07181L34.593 11.9177L33.1038 6.85069L35.9752 4.45309L31.9015 3.39326L30.0489 0L28.1963 3.39326L24.123 4.45309L26.9944 6.85069L25.5052 11.9177ZM29.4916 5.05332L30.0489 4.03171L30.6066 5.05237L31.8543 5.37702L30.8935 6.17921L31.3036 7.57549L30.0489 6.79076L28.7946 7.57644L29.2042 6.18016L28.2439 5.37797L29.4916 5.05332Z" fill="#222222"/>
<path d="M41.6455 5.79785L39.793 9.19111L35.7197 10.2509L38.5911 12.6485L37.1018 17.7155L41.6455 14.8697L46.1897 17.7155L44.7005 12.6485L47.5718 10.2509L43.4981 9.19111L41.6455 5.79785ZM42.9003 13.3743L41.6455 12.5886L40.3913 13.3743L40.8009 11.978L39.8406 11.1758L41.0883 10.8512L41.6455 9.82956L42.2033 10.8502L43.4509 11.1749L42.4902 11.9771L42.9003 13.3743Z" fill="#222222"/>
<path d="M59.1694 4.45215L55.0962 3.39184L53.2422 0L51.3896 3.39326L47.3164 4.45309L50.1878 6.85069L48.6985 11.9177L53.2422 9.07181L57.7864 11.9177L56.2971 6.85069L59.1694 4.45215ZM54.4969 7.57644L53.2422 6.79076L51.988 7.57644L52.3976 6.18016L51.4373 5.37797L52.6849 5.05332L53.2422 4.03171L53.8 5.05237L55.0476 5.37702L54.0869 6.17921L54.4969 7.57644Z" fill="#222222"/>
<path d="M13.9085 17.7155L18.4522 14.8697L22.9964 17.7155L21.5071 12.6485L24.3785 10.2509L20.3048 9.19111L18.4522 5.79785L16.5996 9.19111L12.5264 10.2509L15.3977 12.6485L13.9085 17.7155ZM17.8949 10.8512L18.4522 9.82956L19.0099 10.8502L20.2576 11.1749L19.2968 11.9771L19.7069 13.3733L18.4522 12.5886L17.1979 13.3743L17.6075 11.978L16.6473 11.1758L17.8949 10.8512Z" fill="#222222"/>
<path d="M6.85547 9.07181L11.3996 11.9177L9.91039 6.85069L12.7818 4.45309L8.70805 3.39326L6.85547 0L5.00289 3.39326L0.928711 4.45215L3.80007 6.84975L2.31083 11.9167L6.85547 9.07181ZM6.29818 5.05332L6.85547 4.03171L7.41323 5.05237L8.66087 5.37702L7.70013 6.17921L8.11019 7.57549L6.85547 6.79076L5.60122 7.57644L6.01081 6.18016L5.05055 5.37797L6.29818 5.05332Z" fill="#222222"/>
<path d="M54.2086 18.4451C54.2086 16.8469 52.9081 15.5459 51.3094 15.5459C49.7111 15.5459 48.4102 16.8469 48.4102 18.4451C48.4102 20.0438 49.7111 21.3443 51.3094 21.3443C51.4495 21.3443 51.5831 21.3221 51.7175 21.3028C53.3427 24.6012 54.2086 28.2724 54.2086 31.9747C54.2086 35.9021 53.2455 39.8027 51.4217 43.2507L53.1313 44.1552C55.0999 40.4279 56.1414 36.2173 56.1414 31.9747C56.1414 27.9614 55.1986 23.9807 53.43 20.4081C53.9094 19.8909 54.2086 19.2048 54.2086 18.4451ZM50.343 18.4451C50.343 17.9128 50.7771 17.4787 51.3094 17.4787C51.8421 17.4787 52.2758 17.9128 52.2758 18.4451C52.2758 18.9778 51.8421 19.4115 51.3094 19.4115C50.7771 19.4115 50.343 18.9778 50.343 18.4451Z" fill="#222222"/>
<path d="M8.78806 42.6039C8.64792 42.6039 8.51485 42.6261 8.38036 42.6455C6.75475 39.3471 5.88886 35.6759 5.88886 31.9735C5.88886 28.0452 6.85243 24.1456 8.67623 20.6976L6.96757 19.7939C4.99796 23.5194 3.95605 27.7309 3.95605 31.9735C3.95605 35.9868 4.89933 39.9666 6.66698 43.5416C6.1885 44.0583 5.88886 44.7444 5.88886 45.5031C5.88886 47.1019 7.18982 48.4024 8.78806 48.4024C10.3868 48.4024 11.6873 47.1019 11.6873 45.5031C11.6873 43.9049 10.3868 42.6039 8.78806 42.6039ZM8.78806 46.4695C8.25579 46.4695 7.82166 46.0368 7.82166 45.5031C7.82166 44.9699 8.25579 44.5367 8.78806 44.5367C9.32081 44.5367 9.75447 44.9699 9.75447 45.5031C9.75447 46.0368 9.32081 46.4695 8.78806 46.4695Z" fill="#222222"/>
</g>
<defs>
<clipPath id="clip0">
<rect width="60" height="60" fill="white"/>
</clipPath>
</defs>
</svg>
