<svg width="60" height="60" viewBox="0 0 60 60" fill="none" xmlns="http://www.w3.org/2000/svg">
<g clip-path="url(#clip0)">
<path d="M45 46.3031V35.625C45 35.3764 44.9012 35.1379 44.7254 34.9621C44.5496 34.7863 44.3111 34.6875 44.0625 34.6875C43.8139 34.6875 43.5754 34.7863 43.3996 34.9621C43.2238 35.1379 43.125 35.3764 43.125 35.625V46.3031C43.1236 46.4869 43.0681 46.6662 42.9656 46.8187L40.7812 50.1C40.6855 50.2418 40.6304 50.4072 40.6219 50.5781L40.3125 57.1875H39.375V27.1875H43.125V31.875C43.125 32.1236 43.2238 32.3621 43.3996 32.5379C43.5754 32.7137 43.8139 32.8125 44.0625 32.8125C44.3111 32.8125 44.5496 32.7137 44.7254 32.5379C44.9012 32.3621 45 32.1236 45 31.875V0.9375C45 0.68886 44.9012 0.450403 44.7254 0.274587C44.5496 0.0987721 44.3111 0 44.0625 0L38.4375 0C38.1889 0 37.9504 0.0987721 37.7746 0.274587C37.5988 0.450403 37.5 0.68886 37.5 0.9375V48.75H34.6875C34.4389 48.75 34.2004 48.8488 34.0246 49.0246C33.8488 49.2004 33.75 49.4389 33.75 49.6875V51.5625H26.25V49.6875C26.25 49.4389 26.1512 49.2004 25.9754 49.0246C25.7996 48.8488 25.5611 48.75 25.3125 48.75H22.5V0.9375C22.5 0.68886 22.4012 0.450403 22.2254 0.274587C22.0496 0.0987721 21.8111 0 21.5625 0L15.9375 0C15.6889 0 15.4504 0.0987721 15.2746 0.274587C15.0988 0.450403 15 0.68886 15 0.9375V7.5C15 7.74864 15.0988 7.9871 15.2746 8.16291C15.4504 8.33873 15.6889 8.4375 15.9375 8.4375C16.1861 8.4375 16.4246 8.33873 16.6004 8.16291C16.7762 7.9871 16.875 7.74864 16.875 7.5V1.875H20.625V25.3125H16.875V11.25C16.875 11.0014 16.7762 10.7629 16.6004 10.5871C16.4246 10.4113 16.1861 10.3125 15.9375 10.3125C15.6889 10.3125 15.4504 10.4113 15.2746 10.5871C15.0988 10.7629 15 11.0014 15 11.25V46.3125C14.9997 46.8661 15.1627 47.4074 15.4688 47.8688L17.5031 50.925L17.8125 58.125C17.8125 58.3736 17.9113 58.6121 18.0871 58.7879C18.2629 58.9637 18.5014 59.0625 18.75 59.0625H20.625C20.625 59.3111 20.7238 59.5496 20.8996 59.7254C21.0754 59.9012 21.3139 60 21.5625 60H25.3125C25.5611 60 25.7996 59.9012 25.9754 59.7254C26.1512 59.5496 26.25 59.3111 26.25 59.0625V57.1875H33.75V59.0625C33.75 59.3111 33.8488 59.5496 34.0246 59.7254C34.2004 59.9012 34.4389 60 34.6875 60H38.4375C38.6861 60 38.9246 59.9012 39.1004 59.7254C39.2762 59.5496 39.375 59.3111 39.375 59.0625H41.25C41.4986 59.0625 41.7371 58.9637 41.9129 58.7879C42.0887 58.6121 42.1875 58.3736 42.1875 58.125L42.4875 50.8875L44.5219 47.8312C44.8259 47.379 44.9921 46.8481 45 46.3031ZM43.125 1.875V25.3125H39.375V1.875H43.125ZM19.6875 57.1875L19.4063 50.625C19.3978 50.4541 19.3426 50.2887 19.2469 50.1469L17.0625 46.875C16.9582 46.7198 16.9027 46.537 16.9031 46.35V27.1875H20.6531V57.1875H19.6875ZM24.375 58.125H22.5V50.625H24.375V58.125ZM26.25 55.3125V53.4375H33.75V55.3125H26.25ZM35.625 58.125V50.625H37.5V58.125H35.625Z" fill="#222222"/>
<path d="M14.5312 50.625C13.4124 50.625 12.3393 51.0695 11.5481 51.8606C10.757 52.6518 10.3125 53.7249 10.3125 54.8438C10.3125 55.9626 10.757 57.0357 11.5481 57.8269C12.3393 58.618 13.4124 59.0625 14.5312 59.0625C15.9469 59.0625 16.8281 57.45 16.8281 54.8438C16.8281 52.2375 15.9375 50.625 14.5312 50.625ZM14.4562 57.1875C13.8346 57.1875 13.2385 56.9406 12.799 56.501C12.3594 56.0615 12.1125 55.4654 12.1125 54.8438C12.1125 54.2221 12.3594 53.626 12.799 53.1865C13.2385 52.7469 13.8346 52.5 14.4562 52.5C14.8419 53.2179 15.0143 54.0311 14.9531 54.8438C15.0143 55.6564 14.8419 56.4696 14.4562 57.1875Z" fill="#222222"/>
<path d="M45.4221 50.625C44.9346 50.625 44.044 50.8406 43.5471 52.2656C43.2613 53.0949 43.1186 53.9667 43.1252 54.8438C43.1252 57.45 44.0065 59.0625 45.4221 59.0625C46.541 59.0625 47.614 58.618 48.4052 57.8269C49.1964 57.0357 49.6408 55.9626 49.6408 54.8438C49.6408 53.7249 49.1964 52.6518 48.4052 51.8606C47.614 51.0695 46.541 50.625 45.4221 50.625ZM45.4971 57.1875C45.111 56.4698 44.9385 55.6564 45.0002 54.8438C44.9385 54.0311 45.111 53.2177 45.4971 52.5C46.1187 52.5 46.7148 52.7469 47.1544 53.1865C47.5939 53.626 47.8408 54.2221 47.8408 54.8438C47.8408 55.4654 47.5939 56.0615 47.1544 56.501C46.7148 56.9406 46.1187 57.1875 45.4971 57.1875Z" fill="#222222"/>
<path d="M52.5 51.5625C51.9437 51.5625 51.4 51.7275 50.9375 52.0365C50.4749 52.3455 50.1145 52.7848 49.9016 53.2987C49.6887 53.8126 49.633 54.3781 49.7415 54.9237C49.8501 55.4693 50.1179 55.9704 50.5113 56.3637C50.9046 56.7571 51.4057 57.0249 51.9513 57.1335C52.4969 57.242 53.0624 57.1863 53.5763 56.9734C54.0902 56.7605 54.5295 56.4001 54.8385 55.9375C55.1476 55.475 55.3125 54.9313 55.3125 54.375C55.3125 53.6291 55.0162 52.9137 54.4887 52.3863C53.9613 51.8588 53.2459 51.5625 52.5 51.5625ZM52.5 55.3125C52.3146 55.3125 52.1333 55.2575 51.9792 55.1545C51.825 55.0515 51.7048 54.9051 51.6339 54.7338C51.5629 54.5625 51.5443 54.374 51.5805 54.1921C51.6167 54.0102 51.706 53.8432 51.8371 53.7121C51.9682 53.581 52.1352 53.4917 52.3171 53.4555C52.499 53.4193 52.6875 53.4379 52.8588 53.5089C53.0301 53.5798 53.1765 53.7 53.2795 53.8542C53.3825 54.0083 53.4375 54.1896 53.4375 54.375C53.4375 54.6236 53.3387 54.8621 53.1629 55.0379C52.9871 55.2137 52.7486 55.3125 52.5 55.3125Z" fill="#222222"/>
<path d="M52.5 50.6252C53.0367 50.6255 53.5623 50.4722 54.0147 50.1835C54.4672 49.8947 54.8275 49.4825 55.0532 48.9956C55.279 48.5086 55.3607 47.9672 55.2887 47.4354C55.2166 46.9035 54.994 46.4033 54.6469 45.9939C53.3328 42.4246 52.9175 38.5867 53.4375 34.8189C53.4701 34.5973 53.4222 34.3712 53.3025 34.1818C53.1828 33.9924 52.9992 33.8521 52.785 33.7864C52.5708 33.7206 52.3401 33.7338 52.1348 33.8235C51.9294 33.9131 51.763 34.0734 51.6656 34.2752L50.2031 37.2002C49.8648 37.8754 49.6883 38.62 49.6875 39.3752V47.8127C49.6875 48.5586 49.9838 49.274 50.5113 49.8014C51.0387 50.3289 51.7541 50.6252 52.5 50.6252ZM51.5625 41.3158V41.3814C51.8197 43.2433 52.2851 45.0704 52.95 46.8283C52.9951 46.9509 53.0654 47.0626 53.1563 47.1564C53.267 47.265 53.3491 47.3994 53.3951 47.5476C53.4412 47.6957 53.4498 47.8529 53.4201 48.0052C53.3904 48.1574 53.3234 48.3 53.2251 48.42C53.1268 48.54 53.0003 48.6337 52.8569 48.6928C52.7134 48.7518 52.5576 48.7744 52.4033 48.7584C52.249 48.7424 52.1011 48.6884 51.9728 48.6011C51.8445 48.5139 51.7399 48.3962 51.6683 48.2586C51.5967 48.121 51.5603 47.9678 51.5625 47.8127V41.3158Z" fill="#222222"/>
</g>
<defs>
<clipPath id="clip0">
<rect width="60" height="60" fill="white"/>
</clipPath>
</defs>
</svg>
