<svg width="27" height="20" viewBox="0 0 27 20" fill="none" xmlns="http://www.w3.org/2000/svg">
<path d="M1.08008 1.05273H6.95312L10.988 14.7369H22.692L25.9201 5.32852" stroke="white" stroke-width="2" stroke-linecap="round" stroke-linejoin="round"/>
<path d="M12.4198 20.0002C13.3145 20.0002 14.0398 19.2933 14.0398 18.4212C14.0398 17.5492 13.3145 16.8423 12.4198 16.8423C11.5251 16.8423 10.7998 17.5492 10.7998 18.4212C10.7998 19.2933 11.5251 20.0002 12.4198 20.0002Z" fill="white"/>
<path d="M21.0604 20.0002C21.9551 20.0002 22.6804 19.2933 22.6804 18.4212C22.6804 17.5492 21.9551 16.8423 21.0604 16.8423C20.1657 16.8423 19.4404 17.5492 19.4404 18.4212C19.4404 19.2933 20.1657 20.0002 21.0604 20.0002Z" fill="white"/>
</svg>
