<svg width="50" height="36" viewBox="0 0 50 36" fill="none" xmlns="http://www.w3.org/2000/svg">
<path d="M48.0511 3.42689C46.2463 1.28141 42.914 0.40625 36.5502 0.40625H13.4494C6.93984 0.40625 3.55113 1.33786 1.75306 3.62206C0 5.84915 0 9.1306 0 13.6722V22.3285C0 31.1271 2.08 35.5943 13.4494 35.5943H36.5503C42.069 35.5943 45.1271 34.8221 47.1055 32.9287C49.1343 30.9871 50 27.8169 50 22.3285V13.6722C50 8.8827 49.8644 5.58189 48.0511 3.42689ZM32.1002 19.1954L21.6102 24.6779C21.3756 24.8004 21.1192 24.8612 20.8631 24.8612C20.5731 24.8612 20.2837 24.7832 20.0274 24.628C19.5448 24.3356 19.2502 23.8125 19.2502 23.2483V12.3187C19.2502 11.7554 19.544 11.2329 20.0256 10.9403C20.5074 10.6477 21.1066 10.6277 21.6065 10.8874L32.0965 16.3345C32.6302 16.6116 32.9653 17.1625 32.9661 17.7637C32.9668 18.3653 32.6331 18.9171 32.1002 19.1954Z" fill="white"/>
</svg>
