<svg width="36" height="24" viewBox="0 0 36 24" fill="none" xmlns="http://www.w3.org/2000/svg">
<rect width="36" height="24" rx="2" fill="#F1C501"/>
<path d="M21.3973 11.144C22.1333 10.728 22.6773 9.816 22.6773 8.776C22.6773 7.144 21.3973 5.96 19.7493 5.96H14.5653V17H20.1173C21.8933 17 23.2213 15.752 23.2213 14.008C23.2213 12.696 22.4693 11.528 21.3973 11.144ZM19.2053 7.944C19.8933 7.944 20.4053 8.472 20.4053 9.16C20.4053 9.848 19.8613 10.376 19.2053 10.376H16.7093V7.944H19.2053ZM19.5733 15.016H16.7093V12.248H19.5733C20.3573 12.248 20.9493 12.856 20.9493 13.624C20.9493 14.408 20.3573 15.016 19.5733 15.016Z" fill="black"/>
</svg>
