<svg width="72" height="24" viewBox="0 0 72 24" fill="none" xmlns="http://www.w3.org/2000/svg">
<rect width="72" height="24" rx="2" fill="#014A65"/>
<path d="M36 0H70C71.1046 0 72 0.895431 72 2V22C72 23.1046 71.1046 24 70 24H36V0Z" fill="#0197D3"/>
<path d="M19.0539 5.96H10.4619V8.04H13.6619V17H15.8699V8.04H19.0539V5.96ZM23.2092 5.96L19.8172 7.832L20.7612 9.608L22.5692 8.584V17H24.7772V5.96H23.2092Z" fill="#F3F3F3"/>
<path d="M53.9446 5.96H45.3526V8.04H48.5526V17H50.7606V8.04H53.9446V5.96ZM58.2129 14.92L60.8209 12.184C61.5249 11.432 62.2289 10.472 62.2289 9.112C62.2289 7.176 60.7569 5.768 58.6129 5.768C56.9969 5.768 55.5729 6.584 54.8209 7.768L56.3249 9.208C56.9009 8.456 57.6209 7.976 58.4689 7.976C59.3329 7.976 59.9729 8.472 59.9729 9.24C59.9729 9.912 59.3969 10.6 58.8849 11.16L55.1089 15.208V17H62.4369V14.92H58.2129Z" fill="#F3F3F3"/>
</svg>
