<svg width="14" height="20" viewBox="0 0 14 20" fill="none" xmlns="http://www.w3.org/2000/svg">
<path d="M8 3L8.75 1.5H12V0H2V1.5H6.75L6 3C2.87 3.09 0 3.73 0 6.5V15C0 16.5 1.11 17.73 2.55 17.95L1.36 19.14C1.04 19.46 1.26 20 1.71 20H2.8C2.93 20 3.06 19.95 3.15 19.85L5 18H9L10.85 19.85C10.94 19.94 11.07 20 11.2 20H12.29C12.74 20 12.96 19.46 12.64 19.15L11.45 17.96C12.89 17.73 14 16.5 14 15V6.5C14 3.73 11.13 3.09 8 3ZM7 16.5C6.17 16.5 5.5 15.83 5.5 15C5.5 14.17 6.17 13.5 7 13.5C7.83 13.5 8.5 14.17 8.5 15C8.5 15.83 7.83 16.5 7 16.5ZM12 12H2V7H12V12Z" fill="#BA880B"/>
</svg>
