<svg width="97" height="90" viewBox="0 0 97 90" fill="none" xmlns="http://www.w3.org/2000/svg">
<path d="M33.25 38.5429L0.5 71.2929V5.5H33.25V38.5429ZM89.5 38.5429L56.75 71.2929V5.5H89.5V38.5429Z" stroke="#124782"/>
<mask id="mask0" mask-type="alpha" maskUnits="userSpaceOnUse" x="7" y="11" width="90" height="68">
<path d="M7 11.25V78.75L40.75 45V11.25H7Z" fill="#0C3160"/>
<path d="M63.25 11.25V78.75L97 45V11.25H63.25Z" fill="#0C3160"/>
</mask>
<g mask="url(#mask0)">
<path d="M7 11.25V78.75L40.75 45V11.25H7Z" fill="#0C3160"/>
<path d="M63.25 11.25V78.75L97 45V11.25H63.25Z" fill="#0C3160"/>
<path fill-rule="evenodd" clip-rule="evenodd" d="M40.7252 85.5636L42.045 85.5636L42.045 82.3026C44.239 81.4363 41.3505 77.8792 41.6836 82.2041L40.7252 82.2041L40.7252 85.5636Z" fill="#0C1232"/>
<path fill-rule="evenodd" clip-rule="evenodd" d="M38.7401 81.3678C37.7533 80.3803 37.9603 77.8856 36.094 78.0147C35.49 81.2293 37.1753 83.3657 38.7401 81.3678Z" fill="#0C1232"/>
<path fill-rule="evenodd" clip-rule="evenodd" d="M87.674 81.3678C89.3223 81.241 87.8686 78.5249 87.674 78.0146C85.6935 78.5667 88.3072 79.8038 87.674 81.3678Z" fill="#0C1232"/>
<path fill-rule="evenodd" clip-rule="evenodd" d="M28.8215 80.5284L30.1421 80.5284C30.4233 78.7754 29.6909 78.3068 29.4807 77.172C28.5278 77.3657 29.2515 79.677 28.1624 79.6865C28.038 80.4023 28.4167 80.4803 28.8215 80.5284Z" fill="#0C1232"/>
<path fill-rule="evenodd" clip-rule="evenodd" d="M16.2562 73.8164C13.1118 75.8828 18.1092 78.1382 16.2562 73.8164V73.8164Z" fill="#0C1232"/>
<path fill-rule="evenodd" clip-rule="evenodd" d="M28.8215 76.3364C30.6839 75.4883 28.6372 72.7745 28.8215 71.3051C26.0408 72.4091 28.8254 74.0542 28.8215 76.3364Z" fill="#0C1232"/>
<path fill-rule="evenodd" clip-rule="evenodd" d="M30.1421 67.9512C31.2446 69.6183 30.0822 69.0175 30.1421 71.3051C32.136 72.6116 32.136 66.651 30.1421 67.9512Z" fill="#0C1232"/>
<path fill-rule="evenodd" clip-rule="evenodd" d="M46.6764 67.116C47.3962 66.905 47.1261 65.4473 47.9978 65.4347C47.7127 63.114 45.9188 65.3898 46.6764 67.116Z" fill="#0C1232"/>
<path fill-rule="evenodd" clip-rule="evenodd" d="M18.2399 65.4344C21.4804 68.5348 22.2018 62.8538 18.2399 65.4344V65.4344Z" fill="#0C1232"/>
<path fill-rule="evenodd" clip-rule="evenodd" d="M49.3224 66.2708C49.5796 66.005 49.8877 65.7939 50.2284 65.6501C50.5692 65.5064 50.9355 65.4331 51.3053 65.4344C50.9344 63.6941 50.2729 63.6633 49.3224 64.5957L49.3224 66.2708Z" fill="#0C1232"/>
<path fill-rule="evenodd" clip-rule="evenodd" d="M59.9023 65.4345C60.1717 65.2628 60.4035 65.0383 60.5837 64.7745C60.7638 64.5108 60.8886 64.2133 60.9505 63.8999C61.0124 63.5866 61.0101 63.2639 60.9438 62.9514C60.8775 62.639 60.7485 62.3432 60.5647 62.082C59.029 62.3112 59.044 64.3209 59.9023 65.4345Z" fill="#0C1232"/>
<path fill-rule="evenodd" clip-rule="evenodd" d="M29.4806 63.7596C31.7588 61.5955 26.081 61.7286 29.4806 63.7596V63.7596Z" fill="#0C1232"/>
<path fill-rule="evenodd" clip-rule="evenodd" d="M78.4187 31.058C80.8638 28.5168 76.4082 28.2325 78.4187 31.058V31.058Z" fill="#0C1232"/>
<path fill-rule="evenodd" clip-rule="evenodd" d="M80.074 85.9737C79.8487 84.2955 80.2079 83.3561 81.397 83.4592L81.0654 82.6206L81.397 81.7835C81.3773 80.9661 80.5858 81.1345 80.074 80.9448C80.0795 79.2784 81.8766 79.8793 81.397 77.5956L81.3907 77.6003L81.3907 77.2727L80.6032 77.2727L80.6032 78.1626C80.5371 78.2405 80.4562 78.3045 80.365 78.3506C80.2739 78.3967 80.1744 78.4241 80.0724 78.4311C79.3999 77.8877 79.3873 76.5017 78.0895 76.7529C77.124 80.4471 76.7878 81.6873 77.428 85.9737L80.074 85.9737Z" fill="#0C1232"/>
<path fill-rule="evenodd" clip-rule="evenodd" d="M73.4583 80.9448C74.9034 81.1023 75.5634 80.2597 75.4452 78.4312C74.8263 79.325 73.0047 78.6903 73.4583 80.9448Z" fill="#0C1232"/>
<path fill-rule="evenodd" clip-rule="evenodd" d="M53.6212 70.0436C52.9492 68.7568 52.7176 67.2851 52.9621 65.8541C50.6697 66.1077 50.2964 71.2177 53.6212 70.0436Z" fill="#0C1232"/>
<path fill-rule="evenodd" clip-rule="evenodd" d="M70.8147 66.6936L70.8147 65.0092L68.1703 65.0092L68.1703 66.6936L70.8147 66.6936Z" fill="#0C1232"/>
<path fill-rule="evenodd" clip-rule="evenodd" d="M14.6026 65.0092C15.7673 64.8131 16.1098 63.5728 15.9255 61.6655C13.9379 60.8166 14.7561 63.5303 14.6026 65.0092Z" fill="#0C1232"/>
<path fill-rule="evenodd" clip-rule="evenodd" d="M18.5714 63.3373L19.8984 63.3373C20.2047 61.5505 18.9534 61.738 17.9099 61.6655C18.0383 62.338 18.5753 62.5018 18.5714 63.3373Z" fill="#0C1232"/>
<path fill-rule="evenodd" clip-rule="evenodd" d="M47.0087 59.1479L47.0087 57.4697L45.6849 57.4697L45.6849 59.1479L47.0087 59.1479Z" fill="#0C1232"/>
<path fill-rule="evenodd" clip-rule="evenodd" d="M41.0568 56.631C41.1702 54.0323 38.7298 52.8581 37.7493 54.1111C37.7013 56.6279 39.6968 58.369 41.0568 56.631Z" fill="#0C1232"/>
<path fill-rule="evenodd" clip-rule="evenodd" d="M41.7175 47.4071C39.2763 46.8219 38.7959 48.7348 39.0739 51.6021C41.1505 51.7225 41.3458 49.4569 41.7175 47.4071Z" fill="#0C1232"/>
<path fill-rule="evenodd" clip-rule="evenodd" d="M49.6547 34.8332C52.6857 34.2693 49.1215 29.7538 49.6547 34.8332V34.8332Z" fill="#0C1232"/>
<path fill-rule="evenodd" clip-rule="evenodd" d="M23.2019 21.4174C25.2077 24.5146 25.4305 18.8699 23.2019 21.4174V21.4174Z" fill="#0C1232"/>
<path fill-rule="evenodd" clip-rule="evenodd" d="M70.7871 68.2127L70.7871 69.3876C70.3319 69.4821 69.9382 69.4892 70.0311 68.797C69.4594 68.9962 70.1729 69.4939 70.0311 70.4933C70.2824 70.5343 70.5392 70.5257 70.7871 70.4681L70.7871 70.7209C72.7157 71.951 72.7157 66.9708 70.7871 68.2127Z" fill="#0C1232"/>
<path fill-rule="evenodd" clip-rule="evenodd" d="M67.4788 67.3662C65.9211 68.5947 66.2519 69.138 64.1714 68.2088C64.2312 70.702 68.1167 70.4508 67.4788 67.3662Z" fill="#0C1232"/>
<path fill-rule="evenodd" clip-rule="evenodd" d="M18.5455 69.0452C19.5173 65.8543 15.5892 68.8814 16.561 65.692C13.8355 66.6575 16.702 69.0295 18.5455 69.0452Z" fill="#0C1232"/>
<path fill-rule="evenodd" clip-rule="evenodd" d="M23.8351 63.1766L22.5145 63.1766L22.5145 64.8493L23.8351 64.8493L23.8351 63.1766Z" fill="#0C1232"/>
<path fill-rule="evenodd" clip-rule="evenodd" d="M61.5277 64.8492L62.8531 64.8492L62.8531 63.1765L61.5277 63.1765L61.5277 64.8492Z" fill="#0C1232"/>
<path fill-rule="evenodd" clip-rule="evenodd" d="M73.4284 64.8493C74.9656 64.5627 76.5311 64.3059 76.0744 61.4993C74.5159 63.5468 74.8452 60.2496 72.767 60.6599C72.2252 63.0287 73.7025 62.8302 73.4284 64.8493Z" fill="#0C1232"/>
<path fill-rule="evenodd" clip-rule="evenodd" d="M51.6148 62.3348C53.7355 63.0687 52.9842 60.1621 54.2583 59.8148C54.3694 58.0036 51.9101 59.4407 50.9509 58.9816C50.6697 60.7353 51.4013 61.2039 51.6148 62.3348Z" fill="#0C1232"/>
<path fill-rule="evenodd" clip-rule="evenodd" d="M91.9471 59.815C93.1244 59.2086 92.0432 58.2997 91.9471 57.3004C90.7714 57.9194 91.8558 58.8306 91.9471 59.815Z" fill="#0C1232"/>
<path fill-rule="evenodd" clip-rule="evenodd" d="M7.96538 57.3004C10.8319 56.9595 7.26766 52.4384 7.96538 57.3004V57.3004Z" fill="#0C1232"/>
<path fill-rule="evenodd" clip-rule="evenodd" d="M20.5276 49.7617C20.4079 49.0458 20.7867 48.9742 21.1891 48.9223C20.9583 47.8198 20.0268 47.6 19.8685 46.4022C18.9692 46.6613 19.3172 48.5056 19.207 49.7617L20.5276 49.7617Z" fill="#0C1232"/>
<path fill-rule="evenodd" clip-rule="evenodd" d="M44.9998 47.2465C47.441 44.6974 42.9893 44.4163 44.9998 47.2465V47.2465Z" fill="#0C1232"/>
<path fill-rule="evenodd" clip-rule="evenodd" d="M32.4314 45.569C33.5551 45.8793 33.6788 44.9083 33.7544 43.8909C33.1929 44.0421 33.1331 43.5617 33.0945 43.0514C32.3211 43.1813 32.5337 44.5791 32.4314 45.569Z" fill="#0C1232"/>
<path fill-rule="evenodd" clip-rule="evenodd" d="M80.0434 42.2104L80.0434 43.8909C80.604 43.7334 80.6655 44.2107 80.7041 44.7265C81.99 45.0604 81.6703 40.9063 80.0434 42.2104Z" fill="#0C1232"/>
<path fill-rule="evenodd" clip-rule="evenodd" d="M64.8375 35.5001C62.7238 35.9986 62.79 33.9338 61.53 35.5001C61.6411 37.8815 62.7435 38.995 62.8554 41.374C63.8292 39.5361 64.4986 37.5524 64.8375 35.5001Z" fill="#0C1232"/>
<path fill-rule="evenodd" clip-rule="evenodd" d="M69.7901 41.0669C69.8473 41.5711 69.783 42.0817 69.6026 42.5561C70.4602 42.8545 70.8887 44.1523 71.6029 43.1546C71.7691 41.8741 71.2399 41.6331 70.7485 41.348C71.1271 41.4003 71.5127 41.3531 71.8675 41.211C72.2222 41.0689 72.5338 40.8369 72.7716 40.5377C72.3159 39.7777 72.0865 38.9035 72.1101 38.0177C69.8145 37.3444 69.5664 39.2675 67.4788 38.8532C68.0417 39.7811 68.8389 40.5445 69.7901 41.0669Z" fill="#0C1232"/>
<path fill-rule="evenodd" clip-rule="evenodd" d="M82.0286 40.5378L82.0286 38.8564L80.0465 38.8564L80.0465 40.5378L82.0286 40.5378Z" fill="#0C1232"/>
<path fill-rule="evenodd" clip-rule="evenodd" d="M10.6115 28.797C9.62635 29.512 9.65225 31.4918 9.28607 32.9896C11.254 33.1691 11.6179 29.9987 10.6115 28.797Z" fill="#0C1232"/>
<path fill-rule="evenodd" clip-rule="evenodd" d="M36.4003 32.9896C35.6963 32.2076 36.1948 29.8987 34.4182 30.4752C34.2964 32.3037 34.9571 33.1419 36.4003 32.9896Z" fill="#0C1232"/>
<path fill-rule="evenodd" clip-rule="evenodd" d="M72.7716 28.7971C73.3875 27.9001 75.2129 28.538 74.7561 26.2771C73.3129 26.128 72.6514 26.968 72.7716 28.7971Z" fill="#0C1232"/>
<path fill-rule="evenodd" clip-rule="evenodd" d="M68.1427 26.2802L70.1209 26.2802C70.2603 24.8461 68.9948 24.1098 70.1209 23.7657C69.5366 21.5025 67.4434 24.1587 68.1427 26.2802Z" fill="#0C1232"/>
<path fill-rule="evenodd" clip-rule="evenodd" d="M10.6115 21.2487C12.9346 19.8116 8.94983 19.5611 9.28609 17.8916C6.90077 19.4067 10.2044 20.5242 10.6115 21.2487Z" fill="#0C1232"/>
<path fill-rule="evenodd" clip-rule="evenodd" d="M27.8001 14.5457C25.9503 14.9914 26.5803 18.5863 25.8204 20.4125C27.36 19.5676 27.9521 17.5271 27.8001 14.5457Z" fill="#0C1232"/>
<path fill-rule="evenodd" clip-rule="evenodd" d="M79.3826 19.574C77.9329 17.0138 75.1475 20.5394 79.3826 19.574V19.574Z" fill="#0C1232"/>
<path fill-rule="evenodd" clip-rule="evenodd" d="M15.901 17.8918L15.901 16.22L14.5757 16.22L14.5757 17.8918L15.901 17.8918Z" fill="#0C1232"/>
<path fill-rule="evenodd" clip-rule="evenodd" d="M81.367 12.0312L81.367 10.353L80.8378 10.353C81.0678 9.28124 81.6159 9.33797 80.7355 8.00159C79.4865 8.93162 77.6949 9.18285 77.4279 11.3516L79.3809 11.3516L79.3809 12.0312L81.367 12.0312Z" fill="#0C1232"/>
<path fill-rule="evenodd" clip-rule="evenodd" d="M93.2731 12.0312C94.7158 12.1788 95.3774 11.3388 95.2577 9.51129C93.8108 9.35851 93.1493 10.1985 93.2731 12.0312Z" fill="#0C1232"/>
<path fill-rule="evenodd" clip-rule="evenodd" d="M85.9976 11.1887C88.0033 11.4935 87.3677 8.45769 87.982 7.00004C85.914 6.61023 85.8669 8.7892 85.9976 11.1887Z" fill="#0C1232"/>
<path fill-rule="evenodd" clip-rule="evenodd" d="M32.129 76.3365C34.5868 75.0482 33.722 73.952 31.4675 75.497C31.2792 76.9972 32.0904 77.2154 32.129 76.3365Z" fill="#0C1232"/>
<path fill-rule="evenodd" clip-rule="evenodd" d="M46.0148 52.8566C46.0723 53.385 46.4211 53.5433 46.848 53.6023C46.8558 53.7165 46.8803 53.7921 46.8803 53.926C46.9909 53.8418 47.0887 53.7421 47.1709 53.6299C47.4475 53.6364 47.7236 53.6581 47.9978 53.6952C48.1757 52.7896 47.8765 52.4896 47.5197 52.2612C47.4654 51.9147 47.3835 51.5486 47.3095 51.1335C47.078 51.1879 47.0094 51.4974 46.9204 51.7762C46.7697 51.6151 46.683 51.4044 46.6764 51.1839C45.6408 51.4784 47.2543 52.655 46.0148 52.8566Z" fill="#0C1232"/>
<path fill-rule="evenodd" clip-rule="evenodd" d="M75.1112 33.5748C75.5222 35.6546 78.2218 40.0669 78.4187 35.2529C75.9184 36.4602 77.1492 32.9495 75.1112 33.5748Z" fill="#0C1232"/>
<path fill-rule="evenodd" clip-rule="evenodd" d="M34.4473 52.4416C35.4262 52.0738 34.1843 51.3674 34.4473 49.9215C33.3795 49.6806 33.3094 50.7091 32.4613 50.7587C32.6109 51.9707 34.4323 51.0532 34.4473 52.4416Z" fill="#0C1232"/>
<path fill-rule="evenodd" clip-rule="evenodd" d="M46.318 83.2963C46.9913 82.7497 47.0039 81.3676 48.3033 81.622C48.849 79.2492 47.3725 79.4446 47.6418 77.4286C45.062 78.5429 47.5087 81.1747 46.318 83.2963Z" fill="#0C1232"/>
<path fill-rule="evenodd" clip-rule="evenodd" d="M43.6745 72.3982C42.257 70.3271 43.8611 75.06 44.3367 75.7483C45.7471 77.8249 44.1501 73.0889 43.6745 72.3982Z" fill="#0C1232"/>
<path fill-rule="evenodd" clip-rule="evenodd" d="M56.8988 68.2127C56.8838 68.2363 56.2381 68.1946 56.2396 68.2127C56.6074 71.0122 59.0172 63.7358 56.8988 68.2127Z" fill="#0C1232"/>
<path fill-rule="evenodd" clip-rule="evenodd" d="M70.1209 45.5691C70.0012 44.8509 70.3799 44.7753 70.7831 44.7265C70.4146 42.2994 69.7531 46.0187 68.8003 45.5691C68.8801 47.6937 69.7612 48.8115 71.4438 48.9223C72.2053 46.281 70.4099 46.8818 70.1209 45.5691Z" fill="#0C1232"/>
<path fill-rule="evenodd" clip-rule="evenodd" d="M83.7926 32.4511C83.7881 32.7571 83.8653 33.0588 84.0162 33.3252C84.0061 33.4632 84.0147 33.602 84.0415 33.7378C84.2619 33.8221 84.4793 33.9102 84.6982 33.9945L84.7226 33.9017C84.9801 34.0015 85.2556 34.0461 85.5315 34.0326C85.8073 34.019 86.0772 33.9475 86.3236 33.8228L87.3181 33.8228L87.3181 32.1533L86.4519 32.1533C86.3185 31.837 86.2039 31.5131 86.1086 31.1832C85.9555 31.1398 85.7924 31.1469 85.6436 31.2037C85.4949 31.2604 85.3685 31.3638 85.2833 31.4982C84.9208 31.5459 84.5629 31.6231 84.213 31.7289C84.1737 31.9037 84.1249 32.1045 84.0745 32.2974C84.0219 32.3003 83.969 32.2978 83.917 32.2897C83.954 32.2487 83.9784 32.1927 84.0178 32.1533C82.8169 29.4255 80.0268 33.9166 78.7259 31.3179C77.7092 31.7589 78.6849 32.1841 79.3873 32.1533C79.043 33.2134 78.9108 34.3308 78.9983 35.4419C78.6195 35.9034 78.6258 36.9012 78.6833 37.9682C78.7053 37.9682 78.7132 37.9832 78.7345 37.984C78.7306 37.9997 78.7345 38.006 78.7282 38.0218C78.7825 38.032 78.8179 38.017 78.8715 38.0218C79.0122 38.0466 79.1429 38.1107 79.2487 38.2067C79.3545 38.3027 79.431 38.4267 79.4692 38.5643C79.5727 38.5228 79.6609 38.4504 79.7218 38.357C79.7826 38.2636 79.8132 38.1537 79.8094 38.0422C82.3656 37.7414 82.3924 34.2276 83.7926 32.4511Z" fill="#0C1232"/>
<path fill-rule="evenodd" clip-rule="evenodd" d="M93.2732 21.2487L95.9192 21.2487C96.5012 18.5594 93.7402 20.1045 93.9347 17.8916C92.9338 18.6287 94.1134 19.1516 93.2732 21.2487Z" fill="#0C1232"/>
<path fill-rule="evenodd" clip-rule="evenodd" d="M15.2396 12.8667C14.9467 13.6061 14.6576 14.3629 13.9166 14.5456C14.0993 16.5214 15.6806 13.5825 16.561 13.7085C16.398 12.795 15.2467 13.1391 15.2396 12.0311C14.4868 12.191 14.8711 12.8667 15.2396 12.8667Z" fill="#0C1232"/>
<path fill-rule="evenodd" clip-rule="evenodd" d="M43.3712 77.891C44.1752 76.6987 43.0239 75.271 43.4798 73.9535L43.0389 78.013C43.1499 77.9712 43.2594 77.9303 43.3712 77.891Z" fill="#0C1232"/>
<path fill-rule="evenodd" clip-rule="evenodd" d="M38.4108 71.7219L40.3953 74.2418C40.3165 73.2464 40.2236 72.2408 39.796 71.8518C39.3412 71.7523 38.8761 71.7088 38.4108 71.7219Z" fill="#0C1232"/>
<path fill-rule="evenodd" clip-rule="evenodd" d="M7 31.0578L8.06156 32.1375C7.81193 31.5563 7.69142 30.8066 7 31.0578Z" fill="#0C1232"/>
<path fill-rule="evenodd" clip-rule="evenodd" d="M8.65044 32.7368L8.06062 32.1375C8.18995 32.4379 8.34525 32.7037 8.65044 32.7368Z" fill="#0C1232"/>
<path fill-rule="evenodd" clip-rule="evenodd" d="M75.0821 32.1525L76.4051 33.4124C76.3136 33.1053 76.1433 32.8275 75.9112 32.6065C75.6791 32.3855 75.3933 32.2289 75.0821 32.1525Z" fill="#0C1232"/>
<path fill-rule="evenodd" clip-rule="evenodd" d="M13.1581 79.5667L15.1584 79.5667C14.6118 78.4923 14.2037 77.3529 13.9441 76.1758C12.9432 76.275 13.1581 78.0712 13.1581 79.5667Z" fill="#0C1232"/>
<path fill-rule="evenodd" clip-rule="evenodd" d="M18.3037 76.7741C18.1933 76.4385 17.9837 76.1443 17.7024 75.9304C17.4212 75.7166 17.0816 75.593 16.7287 75.5763C16.4824 76.0187 16.3532 76.5166 16.3532 77.023C16.3532 77.5293 16.4824 78.0272 16.7287 78.4696C17.9446 78.9681 17.2304 76.5733 18.3037 76.7741Z" fill="#0C1232"/>
<path fill-rule="evenodd" clip-rule="evenodd" d="M70.3878 77.2727C70.4603 76.6742 70.8169 76.9735 70.8169 77.2727C71.7462 77.1719 71.0304 74.778 70.8169 74.4795C70.3161 74.6779 70.1728 75.4764 69.6026 75.5764C69.6026 76.6742 70.1027 76.7743 70.0311 77.8712C70.3162 77.9713 70.3878 77.6704 70.3878 77.2727Z" fill="#0C1232"/>
<path fill-rule="evenodd" clip-rule="evenodd" d="M57.8848 75.5764C57.5273 75.6764 57.5273 75.3765 57.4557 75.078C57.0273 75.078 57.1706 76.0749 57.0989 76.7742C57.7407 76.9734 57.8131 76.2749 57.8848 75.5764Z" fill="#0C1232"/>
<path fill-rule="evenodd" clip-rule="evenodd" d="M84.106 75.0781L84.106 76.7743L85.3195 76.7743C84.8919 76.1758 85.177 74.678 84.106 75.0781Z" fill="#0C1232"/>
<path fill-rule="evenodd" clip-rule="evenodd" d="M62.9547 68.7932L62.9547 69.8909C63.3114 69.7909 63.3114 70.0885 63.3831 70.4894C64.1005 70.6878 63.9571 67.8978 62.9547 68.7932Z" fill="#0C1232"/>
<path fill-rule="evenodd" clip-rule="evenodd" d="M41.0237 63.6065C40.6646 63.7042 40.6646 63.4057 40.5945 63.1057C40.1661 63.1057 40.3078 64.105 40.2362 64.8012C40.8796 65.002 40.9512 64.3027 41.0237 63.6065Z" fill="#0C1232"/>
<path fill-rule="evenodd" clip-rule="evenodd" d="M42.9523 56.2223L44.1658 56.2223L44.1658 53.9275C43.7664 54.1551 43.4402 54.4919 43.2252 54.8983C43.0103 55.3047 42.9156 55.764 42.9523 56.2223Z" fill="#0C1232"/>
<path fill-rule="evenodd" clip-rule="evenodd" d="M88.8231 55.6239C89.3216 55.5239 89.5366 55.8247 89.6106 56.2224C90.1091 56.0247 90.2532 55.2254 90.8249 55.1253C90.7532 53.4299 88.464 53.5299 88.8231 55.6239Z" fill="#0C1232"/>
<path fill-rule="evenodd" clip-rule="evenodd" d="M29.2334 53.9275L29.2334 55.6238L30.4484 55.6238C30.0193 55.1253 30.3051 53.5298 29.2334 53.9275Z" fill="#0C1232"/>
<path fill-rule="evenodd" clip-rule="evenodd" d="M50.0256 49.938L50.0256 48.8403L49.2381 48.8403L49.2381 49.9373L50.0256 49.938Z" fill="#0C1232"/>
<path fill-rule="evenodd" clip-rule="evenodd" d="M43.7398 48.8403C43.954 47.4425 43.0256 47.6425 43.3831 45.947C42.7389 46.5455 42.9547 48.4419 42.5956 49.4388C43.2374 49.5396 43.2374 48.8403 43.7398 48.8403Z" fill="#0C1232"/>
<path fill-rule="evenodd" clip-rule="evenodd" d="M13.1582 48.8402L13.9457 48.8402L13.9457 47.7424L13.1582 47.7424L13.1582 48.8402Z" fill="#0C1232"/>
<path fill-rule="evenodd" clip-rule="evenodd" d="M66.1006 45.9479C66.8149 45.8479 67.0299 45.0509 66.8881 43.7531C66.7048 43.7756 66.5199 43.7258 66.3728 43.614C66.2257 43.5022 66.128 43.3374 66.1006 43.1547C65.6722 43.2555 65.8156 44.2516 65.3131 44.2516C65.6006 44.8509 66.244 44.8509 66.1006 45.9479Z" fill="#0C1232"/>
<path fill-rule="evenodd" clip-rule="evenodd" d="M52.3827 43.1546C52.4551 43.6531 52.7402 43.6531 52.7402 44.2516L53.5277 44.2516C53.7411 43.0546 53.0268 43.1546 52.3827 43.1546Z" fill="#0C1232"/>
<path fill-rule="evenodd" clip-rule="evenodd" d="M76.3192 39.7638C75.6751 39.9622 75.9601 41.56 74.7443 40.86C74.6742 42.7547 75.6735 43.3532 76.3192 44.2517C77.4619 43.454 77.176 40.5607 76.3192 39.7638Z" fill="#0C1232"/>
<path fill-rule="evenodd" clip-rule="evenodd" d="M35.5215 39.7637C37.0965 41.6537 34.5206 40.9606 36.309 43.7531C37.38 42.0584 36.8807 40.8599 36.7374 39.1652C36.5844 39.3405 36.3983 39.4836 36.1895 39.5863C35.9808 39.689 35.7537 39.7494 35.5215 39.7637Z" fill="#0C1232"/>
<path fill-rule="evenodd" clip-rule="evenodd" d="M60.5984 40.2615C60.0283 39.663 60.17 37.9675 59.0235 37.9675L59.0235 40.2615L60.5984 40.2615Z" fill="#0C1232"/>
<path fill-rule="evenodd" clip-rule="evenodd" d="M65.744 37.9675C65.8157 38.466 66.1007 38.5668 66.1007 39.1653L66.8882 39.1653C67.1016 37.9675 66.3157 38.0675 65.744 37.9675Z" fill="#0C1232"/>
<path fill-rule="evenodd" clip-rule="evenodd" d="M38.8794 33.1786L39.4504 33.4771L40.2378 33.4771C40.0615 32.6896 40.0221 31.7108 39.8157 30.9776C39.9593 31.2683 40.1851 31.5104 40.4651 31.6738C40.7451 31.8372 41.067 31.9147 41.3907 31.8966C41.1017 30.8673 40.5434 30.1759 39.4062 30.2185C39.4726 30.3715 39.5517 30.5187 39.6425 30.6586C39.6055 30.5228 39.5403 30.3963 39.4512 30.2872C39.3622 30.1781 39.2513 30.089 39.1256 30.0255C39 29.9621 38.8623 29.9256 38.7217 29.9187C38.5811 29.9118 38.4406 29.9345 38.3093 29.9853C38.3223 30.1412 38.326 30.2976 38.3203 30.4539C37.8478 30.5326 37.7588 30.1152 37.7249 29.6388C36.9492 29.7719 37.1658 31.1634 37.0635 32.1525C38.0037 32.4053 38.236 31.7658 38.3321 30.9587C38.2746 32.2281 37.9982 33.8212 38.666 33.9771L38.8794 33.1786Z" fill="#0C1232"/>
<path fill-rule="evenodd" clip-rule="evenodd" d="M57.4556 33.9771L55.5269 33.9771C55.7411 35.1748 56.4546 35.6734 56.3144 37.4696C57.2421 37.068 57.1705 35.2725 57.4556 33.9771Z" fill="#0C1232"/>
<path fill-rule="evenodd" clip-rule="evenodd" d="M65.7439 37.4697C66.0098 37.278 66.2219 37.021 66.3598 36.7237C66.4978 36.4264 66.5568 36.0986 66.5314 35.7718C65.8896 35.5734 65.818 36.2718 65.3171 36.2718C65.3872 36.7703 65.7439 36.8704 65.7439 37.4697Z" fill="#0C1232"/>
<path fill-rule="evenodd" clip-rule="evenodd" d="M15.5151 36.8704C16.3026 37.0681 16.0876 34.2717 15.1584 35.1749L15.1584 36.2719C15.5151 36.1719 15.5151 36.5704 15.5151 36.8704Z" fill="#0C1232"/>
<path fill-rule="evenodd" clip-rule="evenodd" d="M12.7999 32.2817C13.1582 32.1817 13.1582 32.5793 13.1582 32.8786C14.0858 29.7869 9.8003 30.8846 12.0139 33.9771C12.5148 33.7771 12.7999 33.2787 12.7999 32.2817Z" fill="#0C1232"/>
<path fill-rule="evenodd" clip-rule="evenodd" d="M7.7276 28.8881C7.94549 29.4279 8.06659 30.0019 8.08521 30.5836L8.8727 30.5836C8.80104 30.0852 9.01598 30.0851 9.30106 29.9851L9.30106 28.8881C8.82856 28.9818 8.62141 28.7889 8.47809 28.3503C8.7686 28.0949 8.99371 27.7738 9.13456 27.4136C9.27541 27.0534 9.32796 26.6646 9.28769 26.2799C8.5002 26.6414 7.97494 27.3454 7.9836 28.7141C7.90879 28.7913 7.84652 28.8881 7.7276 28.8881Z" fill="#0C1232"/>
<path fill-rule="evenodd" clip-rule="evenodd" d="M62.601 30.5838C63.0995 30.3854 62.8861 29.1883 62.9578 28.2898C62.7857 28.5362 62.5435 28.7251 62.2626 28.8319C61.9816 28.9386 61.6751 28.9582 61.3828 28.8883C61.2426 31.3823 62.4569 29.5869 62.601 30.5838Z" fill="#0C1232"/>
<path fill-rule="evenodd" clip-rule="evenodd" d="M76.5783 26.4425C77.3556 25.3952 76.7996 22.6563 78.421 22.676C78.2927 21.7223 77.7556 22.2082 77.7603 22.676C76.5744 22.7847 76.3633 21.6522 75.1136 21.8373C74.8206 22.583 74.5332 23.3336 73.793 23.5123C74.019 24.8818 75.6829 24.4289 75.8404 25.8858C75.3246 26.6654 75.5924 28.6161 75.5365 29.9855C75.8932 29.9855 75.8215 29.2885 75.8932 28.8885C77.3178 29.6366 77.0075 28.038 76.5783 26.4425Z" fill="#0C1232"/>
<path fill-rule="evenodd" clip-rule="evenodd" d="M41.8089 27.7907C42.0046 28.0047 42.2531 28.1634 42.5296 28.251C42.806 28.3387 43.1006 28.352 43.3839 28.2899C43.2406 27.3929 42.0979 27.8914 42.5964 26.0944C42.0947 26.2952 41.8089 26.7945 41.8089 27.7907Z" fill="#0C1232"/>
<path fill-rule="evenodd" clip-rule="evenodd" d="M11.2281 26.0944L11.2281 27.1922L12.0156 27.1922L12.0156 26.0944L11.2281 26.0944Z" fill="#0C1232"/>
<path fill-rule="evenodd" clip-rule="evenodd" d="M25.7321 26.5936C26.233 26.3952 26.3755 25.5966 26.8764 25.4966C26.6238 24.968 26.501 24.3868 26.5181 23.8011C26.1613 24.1012 25.8755 24.3996 25.3038 24.2988C26.0212 25.4966 25.0179 25.4966 25.7321 26.5936Z" fill="#0C1232"/>
<path fill-rule="evenodd" clip-rule="evenodd" d="M62.1719 23.7979C63.3146 23.2986 62.3137 21.7032 62.9594 21.5032C62.8878 20.9047 62.1719 21.1047 62.1719 20.3062C60.8143 20.6093 61.957 22.5032 62.1719 23.7979Z" fill="#0C1232"/>
<path fill-rule="evenodd" clip-rule="evenodd" d="M49.2397 21.5065L49.2397 20.3096L48.4522 20.3096L48.4522 21.5065L49.2397 21.5065Z" fill="#0C1232"/>
<path fill-rule="evenodd" clip-rule="evenodd" d="M73.174 19.8108C73.4606 18.0145 72.7448 17.7169 72.7448 16.4191C72.2082 17.491 71.8239 18.6326 71.6029 19.8108L73.174 19.8108Z" fill="#0C1232"/>
<path fill-rule="evenodd" clip-rule="evenodd" d="M10.7996 18.1147C11.1564 18.0147 11.2281 18.3155 11.2281 18.6132C12.0156 18.914 11.8005 16.0208 10.7996 16.9177L10.7996 18.1147Z" fill="#0C1232"/>
<path fill-rule="evenodd" clip-rule="evenodd" d="M32.377 16.9177C31.9478 17.0177 32.0911 18.0147 32.0195 18.6132C32.6637 18.8132 32.7337 18.2147 32.807 17.5162C32.4487 17.6162 32.4486 17.3162 32.377 16.9177Z" fill="#0C1232"/>
<path fill-rule="evenodd" clip-rule="evenodd" d="M46.5235 18.1146C46.4908 17.9333 46.417 17.7619 46.3078 17.6137C47.5182 18.8477 48.2946 17.2987 47.6418 15.3835C47.4843 13.2226 46.5046 16.5341 44.9981 15.3835C45.2147 15.918 45.48 16.4315 45.7904 16.9176L45.3092 16.9176L45.3092 18.613C45.6659 18.3153 45.9534 18.0146 46.5235 18.1146Z" fill="#0C1232"/>
<path fill-rule="evenodd" clip-rule="evenodd" d="M28.0907 16.9176C28.4482 15.4213 30.5201 16.3191 30.0193 13.5258C29.2318 14.4228 29.5192 13.4258 28.4482 13.5258C28.019 14.2243 28.019 15.5206 28.0907 16.9176Z" fill="#0C1232"/>
<path fill-rule="evenodd" clip-rule="evenodd" d="M55.527 15.8207L56.6705 15.8207C56.4547 15.3222 56.2413 14.8237 56.6705 14.6229C56.098 14.2244 56.098 12.8275 55.0955 12.9275C54.812 14.5229 55.6696 14.4268 55.527 15.8207Z" fill="#0C1232"/>
<path fill-rule="evenodd" clip-rule="evenodd" d="M62.6011 14.6229C62.457 13.9244 61.6002 14.2245 61.0261 14.1252C60.8844 15.0214 61.3845 15.0214 61.3845 15.8207L62.172 15.8207C62.1003 15.1222 62.246 14.8206 62.6011 14.6229Z" fill="#0C1232"/>
<path fill-rule="evenodd" clip-rule="evenodd" d="M53.1685 9.53638L51.5935 9.53638C51.7368 10.6334 52.4518 10.931 52.381 12.3289C53.2401 12.3289 53.2401 10.931 53.1685 9.53638Z" fill="#0C1232"/>
<path fill-rule="evenodd" clip-rule="evenodd" d="M86.107 12.329C85.4644 11.9305 86.1779 9.63658 84.892 10.1343L84.892 12.329L86.107 12.329Z" fill="#0C1232"/>
<path fill-rule="evenodd" clip-rule="evenodd" d="M92.3944 65.3998L92.9662 65.6006L93.5371 65.3998C93.7099 65.1542 93.9522 64.966 94.2329 64.8593C94.5136 64.7527 94.8198 64.7324 95.1121 64.8013C95.1628 63.3838 94.7627 61.9868 93.9694 60.811L93.7552 61.6104L93.1835 61.4104C92.6577 62.6745 92.3894 64.0307 92.3944 65.3998Z" fill="#0C1232"/>
<path fill-rule="evenodd" clip-rule="evenodd" d="M53.5251 58.517C53.8835 58.1185 54.026 56.8208 53.5251 55.6238C53.1468 55.8691 52.8412 56.2113 52.6403 56.615C52.4393 57.0186 52.3503 57.4687 52.3825 57.9185C52.9535 57.9185 53.5251 57.8177 53.5251 58.517Z" fill="#0C1232"/>
<path fill-rule="evenodd" clip-rule="evenodd" d="M50.8115 56.2224C50.7391 55.6239 50.3824 55.9247 50.454 56.2224C50.0217 55.7528 49.7465 55.1601 49.6665 54.5269C49.0948 54.7277 49.3097 55.9247 49.2381 56.8209C50.0972 57.0217 50.3107 56.4232 50.8115 56.2224Z" fill="#0C1232"/>
<path fill-rule="evenodd" clip-rule="evenodd" d="M39.4504 43.1548C38.7369 44.1526 39.5937 44.7511 39.8079 45.948C40.1662 45.6472 40.523 45.3496 40.5954 45.948C41.1656 45.848 40.4513 42.9548 39.4504 43.1548Z" fill="#0C1232"/>
<path fill-rule="evenodd" clip-rule="evenodd" d="M85.6778 37.9675C86.2496 40.86 84.4635 40.4607 84.5352 42.5563C85.177 42.7547 85.177 42.0586 85.6778 41.9578L86.107 41.9578L86.2495 40.9608L86.8922 41.4585C87.1093 41.3361 87.294 41.1636 87.431 40.9554C87.5679 40.7472 87.6532 40.5093 87.6797 40.2615L87.2512 40.2615L87.2512 39.7638C86.6787 39.2629 86.6788 37.8675 85.6778 37.9675Z" fill="#0C1232"/>
<path fill-rule="evenodd" clip-rule="evenodd" d="M41.3773 35.1748C41.5915 36.3702 42.0207 36.3703 42.5924 35.7718C42.9499 35.6734 43.0208 34.5763 42.5924 33.9771C42.1648 34.3763 42.1648 35.3741 41.3773 35.1748Z" fill="#0C1232"/>
<path fill-rule="evenodd" clip-rule="evenodd" d="M35.5215 36.2719C36.0916 36.3703 36.6641 36.3704 36.7358 35.7719C37.8793 34.6741 35.3782 36.7704 35.5215 34.5764C34.9498 34.8741 35.6632 35.3741 35.5215 36.2719Z" fill="#0C1232"/>
<path fill-rule="evenodd" clip-rule="evenodd" d="M69.6027 35.7719C70.6737 35.5735 69.1018 34.7741 69.6027 33.4771C68.5301 33.8771 68.6018 32.6801 67.6726 32.8786C68.1431 33.8143 68.5493 34.781 68.8884 35.7719C69.1759 35.3742 69.5302 35.075 69.6027 35.7719Z" fill="#0C1232"/>
<path fill-rule="evenodd" clip-rule="evenodd" d="M92.7512 29.487C91.3935 28.59 92.5378 31.3825 91.6086 31.1825L91.7518 32.0818L91.6668 32.1117L91.6172 31.7313C91.6172 31.8888 91.6455 31.9762 91.6534 32.1164L91.1809 32.2818C92.0377 33.9773 91.2526 35.1751 93.1812 35.772C93.8245 34.3766 93.8245 30.0855 92.7512 29.487Z" fill="#0C1232"/>
<path fill-rule="evenodd" clip-rule="evenodd" d="M67.2434 32.2818C67.03 31.7809 66.815 31.2824 67.2434 31.1793C67.1733 30.4823 66.8867 30.8816 66.8867 31.1793C66.2441 30.8816 66.5291 29.3838 65.3117 29.9823C65.0297 32.1817 65.959 32.5795 67.2434 32.2818Z" fill="#0C1232"/>
<path fill-rule="evenodd" clip-rule="evenodd" d="M69.2451 29.487C69.1018 28.29 70.3878 29.587 70.3878 29.9855C71.0304 29.587 70.3161 29.1886 70.8169 27.7908C70.2444 28.6901 69.1735 27.6907 68.8884 26.5937C68.2442 26.5937 69.0301 29.2886 69.2451 29.9855C69.3088 29.9819 69.3687 29.9541 69.4125 29.9077C69.4563 29.8614 69.4807 29.8 69.4807 29.7362C69.4807 29.6725 69.4563 29.6111 69.4125 29.5647C69.3687 29.5184 69.3088 29.4905 69.2451 29.487Z" fill="#0C1232"/>
<path fill-rule="evenodd" clip-rule="evenodd" d="M36.3074 26.5937C36.2228 26.625 36.132 26.6365 36.0423 26.627C35.9525 26.6176 35.8662 26.5875 35.7899 26.5392C35.7137 26.4908 35.6496 26.4255 35.6028 26.3483C35.5559 26.2712 35.5276 26.1843 35.5199 26.0944C35.0915 26.5936 35.3765 27.0921 35.1623 28.8884C36.164 29.0884 36.1641 27.6906 36.3074 26.5937Z" fill="#0C1232"/>
<path fill-rule="evenodd" clip-rule="evenodd" d="M44.9525 25.4966C45.3093 26.0943 45.666 25.6967 46.8803 26.0944C46.8803 24.8981 45.8093 25.2982 46.0928 23.8012C45.236 23.6004 45.666 25.3958 44.9525 25.4966Z" fill="#0C1232"/>
<path fill-rule="evenodd" clip-rule="evenodd" d="M35.9508 24.9005C36.7383 24.7021 35.3066 23.4043 36.7383 23.2051C36.6122 22.6877 36.3054 22.2324 35.8732 21.9214C35.441 21.6103 34.9119 21.464 34.3813 21.5088C34.3072 23.5019 35.6633 23.4043 35.9508 24.9005Z" fill="#0C1232"/>
<path fill-rule="evenodd" clip-rule="evenodd" d="M88.823 23.2027C88.3938 21.4064 89.5365 22.5034 88.823 19.8109C88.3222 20.1086 88.1064 21.0079 88.0355 22.1049C88.2494 22.2056 88.434 22.3595 88.5718 22.5516C88.7096 22.7437 88.7961 22.9678 88.823 23.2027Z" fill="#0C1232"/>
<path fill-rule="evenodd" clip-rule="evenodd" d="M8.07178 15.5119C9.10654 17.1381 11.273 13.9896 11.2706 12.0311C9.3806 12.0831 9.3058 14.4354 8.05053 15.2945C7.92532 14.4039 7.69219 13.7691 7.72763 15.2213L7.72763 16.9176C8.15367 17.2838 8.16785 16.3529 8.07178 15.5119Z" fill="#0C1232"/>
<path fill-rule="evenodd" clip-rule="evenodd" d="M51.2399 13.5259C50.5256 13.6267 50.3107 14.5228 50.4524 15.8206C50.7375 16.3191 51.5234 16.1191 51.5951 16.9176C52.5259 16.4191 50.5256 15.5206 51.2399 13.5259Z" fill="#0C1232"/>
<path fill-rule="evenodd" clip-rule="evenodd" d="M64.958 11.8281C65.4581 12.6251 65.7455 11.9281 66.8866 11.8281C66.5536 11.1125 66.4296 10.3173 66.5291 9.53418C65.6006 9.7342 65.6006 11.332 64.958 11.8281Z" fill="#0C1232"/>
</g>
</svg>
