<svg width="496" height="567" viewBox="0 0 496 567" fill="none" xmlns="http://www.w3.org/2000/svg">
<g filter="url(#filter0_d)">
<path d="M30.6443 309.284V10.894H162.875V298.824C162.875 333.238 169.224 358.532 182.017 374.605L182.02 374.609C195.079 390.698 214.897 398.704 241.374 398.704C267.846 398.704 287.3 390.824 299.614 374.973C311.909 359.149 318.006 333.604 318.006 298.449V10.894H449.864V306.296C449.864 370.71 431.732 420.506 395.529 455.757C359.325 490.758 307.468 508.294 239.881 508.294C172.29 508.294 120.432 491.255 84.2298 457.247C48.529 422.995 30.6443 373.701 30.6443 309.284Z" stroke="#164E8C"/>
<mask id="mask0" mask-type="alpha" maskUnits="userSpaceOnUse" x="45" y="18" width="421" height="499">
<path d="M333.142 18.2122H466V314.114C466 378.625 447.838 428.564 411.513 463.933C375.189 499.052 323.19 516.612 255.517 516.612C187.844 516.612 135.845 499.551 99.5208 465.427C63.6939 431.055 45.7804 381.613 45.7804 317.102V18.2122H179.011V306.642C179.011 341.014 185.356 366.17 198.044 382.112C210.982 398.052 230.638 406.022 257.01 406.022C283.382 406.022 302.665 398.176 314.856 382.485C327.047 366.793 333.142 341.387 333.142 306.267V18.2122Z" fill="url(#paint0_linear)"/>
</mask>
<g mask="url(#mask0)">
<path d="M333.142 18.2122H466V314.114C466 378.625 447.838 428.564 411.513 463.933C375.189 499.052 323.19 516.612 255.517 516.612C187.844 516.612 135.845 499.551 99.5208 465.427C63.6939 431.055 45.7804 381.613 45.7804 317.102V18.2122H179.011V306.642C179.011 341.014 185.356 366.17 198.044 382.112C210.982 398.052 230.638 406.022 257.01 406.022C283.382 406.022 302.665 398.176 314.856 382.485C327.047 366.793 333.142 341.387 333.142 306.267V18.2122Z" fill="url(#paint1_linear)"/>
<path d="M658.793 332.882L465.641 525.756L478.224 538.324L671.375 345.449L658.793 332.882Z" fill="#0B1233"/>
<path d="M659.156 301.434L434.168 526.132L446.01 537.959L670.999 313.261L659.156 301.434Z" fill="#0B1233"/>
<path d="M402.689 526.499C402.689 526.499 403.678 525.488 405.535 523.584C407.417 521.703 410.176 518.95 413.686 515.441L442.782 486.383C466.86 462.335 498.963 430.273 531.07 398.211L659.488 269.957L670.666 281.12C670.666 281.12 606.455 345.244 542.248 409.372L453.958 497.548L424.863 526.603L416.712 534.745L413.79 537.589L402.689 526.499Z" fill="#0B1233"/>
<path d="M659.86 238.523L371.171 526.838L381.608 537.261L670.296 248.946L659.86 238.523Z" fill="#0B1233"/>
<path d="M339.653 527.166C339.653 527.166 340.866 525.878 343.216 523.535C345.567 521.193 349.055 517.804 353.393 513.372C355.581 511.185 358.009 508.76 360.649 506.125C361.969 504.803 363.339 503.427 364.797 502.034C366.255 500.642 367.653 499.09 369.199 497.586C375.31 491.498 382.211 484.629 389.732 477.138L499.891 367.065C539.969 327.061 580.045 287.055 610.102 257.048L630.58 236.556C633.642 233.515 636.46 230.626 639.164 228.059C641.757 225.371 644.199 222.962 646.388 220.773L656.587 210.64C657.737 209.445 658.629 208.537 659.242 207.936L660.161 207.018L670.003 216.847C670.003 216.847 669.688 217.159 669.083 217.764C668.477 218.369 667.581 219.263 666.377 220.416C664.041 222.765 660.601 226.216 656.229 230.601C654.037 232.789 651.626 235.229 648.937 237.815C646.356 240.518 643.463 243.332 640.42 246.39C634.31 252.478 627.417 259.348 619.893 266.842L509.734 376.9C469.656 416.903 429.578 456.907 399.519 486.913L379.045 507.417C377.544 508.962 375.982 510.358 374.589 511.813C373.196 513.267 371.817 514.645 370.495 515.956L363.237 523.205C358.799 527.527 355.428 531.036 353.061 533.368C350.693 535.701 349.424 536.926 349.424 536.926L339.653 527.166Z" fill="#0B1233"/>
<path d="M660.492 175.537L308.098 527.463L317.276 536.63L669.671 184.704L660.492 175.537Z" fill="#0B1233"/>
<path d="M276.545 527.759C276.545 527.759 276.912 527.374 277.624 526.632C278.337 525.891 279.418 524.816 280.854 523.44C282.257 522.031 283.947 520.251 286.042 518.275C288.044 516.196 290.391 513.86 293.017 511.238C298.356 506.073 304.627 499.597 311.97 492.314L336.57 467.78L468.657 335.873C516.685 287.904 564.716 239.936 600.736 203.959C609.735 194.962 617.981 186.706 625.293 179.394L644.274 160.501C646.873 157.848 649.194 155.482 651.281 153.503L654.08 150.646C654.958 149.793 655.754 149.02 656.469 148.328C659.228 145.466 660.748 143.985 660.748 143.985L669.406 152.633C669.406 152.633 667.927 154.151 665.055 156.907L662.737 159.293C661.862 160.144 660.902 161.079 659.879 162.087C657.889 164.176 655.521 166.497 652.872 169.084C647.629 174.341 641.26 180.722 633.958 188.039L609.348 212.574L477.265 344.484L345.187 476.398C336.178 485.395 327.939 493.651 320.627 500.963C313.315 508.276 306.849 514.558 301.679 519.888C299.051 522.511 296.714 524.861 294.63 526.856C292.647 528.948 290.864 530.633 289.459 532.036C288.079 533.472 287.007 534.555 286.263 535.264C285.519 535.974 285.136 536.341 285.136 536.341L276.545 527.759Z" fill="#0B1233"/>
<path d="M661.08 112.502L244.992 528.052L252.986 536.036L669.075 120.486L661.08 112.502Z" fill="#0B1233"/>
<path d="M213.437 528.347C213.437 528.347 215.122 526.538 218.458 523.32C220.037 521.618 222.137 519.675 224.506 517.291C226.82 514.85 229.642 512.208 232.65 509.097C244.898 496.865 262.398 479.389 283.398 458.421L437.377 304.642L591.356 150.862C592.704 149.586 593.997 148.285 595.249 146.97L599.086 143.195L602.775 139.44C604.021 138.237 605.261 137.055 606.422 135.826C608.789 133.41 611.215 131.178 613.41 128.845C614.513 127.679 615.669 126.606 616.78 125.523C617.891 124.44 618.907 123.284 620.008 122.252L642.094 100.187C648.226 94.0788 653.046 89.2788 656.329 86.005C657.997 84.3906 659.175 83.061 660.057 82.2463L661.37 80.9934L668.771 88.3842L667.516 89.6954C666.702 90.5767 665.369 91.758 663.751 93.4174L649.552 107.636L627.458 129.695C626.427 130.794 625.29 131.819 624.185 132.915C623.081 134.012 622.016 135.181 620.849 136.284C618.513 138.473 616.278 140.897 613.859 143.26C612.628 144.426 611.445 145.659 610.239 146.905C609.001 148.118 607.748 149.346 606.48 150.589C605.234 151.852 603.974 153.129 602.7 154.421C601.384 155.671 600.085 156.967 598.803 158.31L444.824 312.089C388.829 368.008 332.833 423.925 290.845 465.869C269.85 486.841 252.354 504.319 240.106 516.551C236.989 519.55 234.343 522.382 231.899 524.686C229.512 527.052 227.562 529.148 225.862 530.726C222.642 534.058 220.829 535.744 220.829 535.744L213.437 528.347Z" fill="#0B1233"/>
<path d="M181.884 528.643C181.884 528.643 183.706 526.721 187.236 523.225C190.766 519.73 195.91 514.57 202.463 508.019C215.582 494.915 234.327 476.197 256.815 453.738C301.794 408.815 361.767 348.918 421.741 289.024L661.634 49.4412L668.517 56.3171L428.624 295.9C368.652 355.794 308.677 415.691 263.698 460.611L209.346 514.892L194.119 530.101C190.615 533.625 188.694 535.444 188.694 535.444L181.884 528.643Z" fill="#0B1233"/>
<path d="M661.57 18.2123L150.255 528.865L156.62 535.222L667.935 24.5693L661.57 18.2123Z" fill="#0B1233"/>
<path d="M118.668 529.13C118.668 529.13 120.611 527.084 124.373 523.357L140.6 507.149C154.581 493.189 174.555 473.241 198.523 449.305L374.286 273.763L629.944 18.4353L635.866 24.3466L380.208 279.674L204.445 455.212L146.522 513.059L130.294 529.265C126.565 533.024 124.513 534.963 124.513 534.963L118.668 529.13Z" fill="#0B1233"/>
<path d="M598.358 18.6971L87.0343 529.341L92.4381 534.738L603.762 24.0941L598.358 18.6971Z" fill="#0B1233"/>
<path d="M566.767 18.9562L55.4432 529.6L60.3292 534.48L571.653 23.8359L566.767 18.9562Z" fill="#0B1233"/>
<path d="M535.098 19.1364L23.7831 529.789L28.2976 534.298L539.612 23.645L535.098 19.1364Z" fill="#0B1233"/>
<path d="M503.524 19.4128L-7.89789 529.959L-3.82785 534.025L507.594 23.4793L503.524 19.4128Z" fill="#0B1233"/>
<path d="M471.804 19.5408L-39.5115 530.195L-35.8098 533.892L475.506 23.2376L471.804 19.5408Z" fill="#0B1233"/>
<path d="M440.141 19.7259L-39.6472 498.893L-36.3171 502.219L443.471 23.0517L440.141 19.7259Z" fill="#0B1233"/>
<path d="M-39.5004 467.233C-39.5004 467.233 -37.7387 465.499 -34.4372 462.235C-31.1625 458.956 -26.3596 454.14 -20.2472 448.012L30.4908 397.343L184.47 243.563C240.463 187.645 296.459 131.727 338.448 89.7837C349.028 79.3807 358.514 69.6241 367.104 61.1737L389.201 39.1081L397.398 30.971C399.733 28.5435 401.765 26.5392 403.437 24.9314C405.108 23.3236 406.273 21.9824 407.162 21.1727L408.475 19.9165L411.437 22.8755C411.437 22.8755 411.009 23.3203 410.18 24.1867C409.351 25.053 408.036 26.2493 406.414 27.9054C404.793 29.5615 402.799 31.6124 400.369 33.9383C397.996 36.3208 395.271 39.0581 392.216 42.1221L370.122 64.1777C361.654 72.758 351.891 82.2314 341.475 92.7993C299.482 134.738 243.492 190.663 187.496 246.579C131.5 302.494 75.5133 358.418 33.517 400.358C12.5255 421.334 -4.97439 438.805 -17.2226 451.037L-31.4678 465.209C-34.7275 468.505 -36.4725 470.266 -36.4725 470.266L-39.5004 467.233Z" fill="#0B1233"/>
<path d="M376.767 20.0504L-39.3076 435.616L-36.6428 438.277L379.432 22.7116L376.767 20.0504Z" fill="#0B1233"/>
<path d="M-39.2034 403.912L-38.084 402.828C-37.34 402.119 -36.2489 401.048 -34.8526 399.639C-33.4563 398.229 -31.7614 396.45 -29.6694 394.462C-27.7009 392.353 -25.2652 390.102 -22.6628 387.465C-21.3816 386.132 -20.0119 384.724 -18.5239 383.313C-17.0358 381.901 -15.6128 380.292 -13.9746 378.763C-10.8049 375.609 -7.34329 372.225 -3.7499 368.506C3.57703 361.207 11.8448 352.975 20.865 343.993L152.952 212.074C200.975 164.103 249.001 116.131 285.021 80.1487C303.038 62.1667 318.053 47.1802 328.562 36.6939C331.127 34.0082 333.554 31.7473 335.579 29.6964C337.573 27.6104 339.323 25.8927 340.761 24.5198C343.502 21.6408 345.078 20.208 345.078 20.208L347.445 22.5738C347.445 22.5738 346.016 24.1416 343.131 26.8857C341.755 28.3202 340.035 30.0679 337.948 32.0589C335.893 34.0798 333.627 36.504 330.941 39.0681L287.429 82.5529L155.327 214.447C107.292 262.412 59.2613 310.373 23.2389 346.361C14.2471 355.367 6.00432 363.626 -1.30259 370.942C-5.02777 374.517 -8.42265 377.976 -11.574 381.15C-13.1054 382.783 -14.6986 384.224 -16.1316 385.692C-17.5646 387.16 -18.9443 388.546 -20.2872 389.825C-22.933 392.431 -25.1868 394.862 -27.2938 396.823C-29.284 398.912 -31.049 400.61 -32.4787 401.996C-33.9084 403.382 -34.9611 404.482 -35.6717 405.225L-36.7561 406.345L-39.2034 403.912Z" fill="#0B1233"/>
<path d="M313.333 20.3172L-39.0559 372.25L-36.909 374.394L315.48 22.4613L313.333 20.3172Z" fill="#0B1233"/>
<path d="M-38.9515 340.554C-38.9515 340.554 -37.6586 339.341 -35.3147 336.996C-34.1469 335.829 -32.6939 334.378 -30.9906 332.677C-29.264 331.001 -27.4122 328.945 -25.1518 326.829C-16.3902 318.072 -3.86999 305.566 11.1542 290.563L121.367 180.53C161.433 140.514 201.501 100.498 231.553 70.4871C246.577 55.479 259.097 42.9767 267.862 34.2231C272.259 29.8596 275.628 26.3459 278.038 24.06C280.385 21.7175 281.637 20.4646 281.637 20.4646L283.488 22.314C283.488 22.314 282.237 23.5668 279.888 25.9094C277.601 28.3135 274.084 31.679 269.712 36.0725C260.947 44.8244 248.425 57.33 233.401 72.3381C203.349 102.348 163.283 142.365 123.215 182.381L13.036 292.428L-23.27 328.69C-25.3903 330.949 -27.4506 332.8 -29.1272 334.521C-30.8305 336.221 -32.2768 337.669 -33.4513 338.84C-35.8002 341.182 -37.0146 342.472 -37.0146 342.472L-38.9515 340.554Z" fill="#0B1233"/>
<path d="M249.899 20.5846L-38.8046 308.885L-37.1756 310.512L251.528 22.2116L249.899 20.5846Z" fill="#0B1233"/>
<path d="M218.236 20.7707L-38.7685 277.111L-37.3633 278.517L219.641 22.1759L218.236 20.7707Z" fill="#0B1233"/>
<path d="M186.387 20.7714L-38.6191 245.455L-37.3617 246.711L187.644 22.0274L186.387 20.7714Z" fill="#0B1233"/>
<path d="M154.668 20.9022L-38.6028 213.66L-37.4936 214.769L155.777 22.0116L154.668 20.9022Z" fill="#0B1233"/>
<path d="M122.761 20.8472L-38.4011 182.054L-37.4378 183.015L123.725 21.8077L122.761 20.8472Z" fill="#0B1233"/>
<path d="M91.066 21.001L-38.4816 150.164L-37.5941 151.052L91.9535 21.8889L91.066 21.001Z" fill="#0B1233"/>
<path d="M59.2003 20.9836L-38.3901 118.448L-37.575 119.262L60.0155 21.7977L59.2003 20.9836Z" fill="#0B1233"/>
</g>
</g>
<defs>
<filter id="filter0_d" x="0.144287" y="0.394043" width="495.856" height="566.218" filterUnits="userSpaceOnUse" color-interpolation-filters="sRGB">
<feFlood flood-opacity="0" result="BackgroundImageFix"/>
<feColorMatrix in="SourceAlpha" type="matrix" values="0 0 0 0 0 0 0 0 0 0 0 0 0 0 0 0 0 0 127 0"/>
<feOffset dy="20"/>
<feGaussianBlur stdDeviation="15"/>
<feColorMatrix type="matrix" values="0 0 0 0 0.0431373 0 0 0 0 0.0705882 0 0 0 0 0.196078 0 0 0 0.2 0"/>
<feBlend mode="normal" in2="BackgroundImageFix" result="effect1_dropShadow"/>
<feBlend mode="normal" in="SourceGraphic" in2="effect1_dropShadow" result="shape"/>
</filter>
<linearGradient id="paint0_linear" x1="255.637" y1="-229.12" x2="255.637" y2="476.632" gradientUnits="userSpaceOnUse">
<stop stop-color="#2D62A2"/>
<stop offset="1" stop-color="#092E5B"/>
</linearGradient>
<linearGradient id="paint1_linear" x1="406" y1="18" x2="75" y2="297" gradientUnits="userSpaceOnUse">
<stop stop-color="#2D62A2"/>
<stop offset="1" stop-color="#052041"/>
</linearGradient>
</defs>
</svg>
