<svg width="102" height="102" viewBox="0 0 102 102" fill="none" xmlns="http://www.w3.org/2000/svg">
<g clip-path="url(#clip0)">
<path d="M70.2197 20.0776L86.732 48.6777C87.212 49.5091 87.2741 50.4148 87.0309 51.2519C87.0291 51.2548 87.0292 51.2582 87.0273 51.261C86.832 51.9384 87.2365 50.9857 69.0428 82.586L33.6664 82.5853C32.497 82.586 31.4171 81.9625 30.8331 80.9509L14.4767 52.6208C14.0637 51.9056 13.8578 51.1078 13.859 50.3097C13.8589 50.2974 13.8596 50.2865 13.8596 50.2743C13.8658 49.491 14.0722 48.708 14.4771 48.0071L30.7891 19.7534C31.4015 18.6939 32.5317 18.0414 33.7555 18.0408L36.9909 18.0415L66.6904 18.0408C67.4183 18.0421 68.1159 18.2346 68.7258 18.585C69.3362 18.9368 69.8554 19.4466 70.2197 20.0776Z" fill="url(#paint0_linear)"/>
<path d="M70.2197 20.0776L86.732 48.6777C87.212 49.5091 87.2741 50.4148 87.031 51.2519C87.0292 51.2548 87.0293 51.2582 87.0274 51.261C86.832 51.9384 87.2366 50.9857 69.0429 82.586L33.6664 82.5853C32.4971 82.586 31.4172 81.9625 30.8331 80.9509L14.4767 52.6208C14.0638 51.9056 13.8578 51.1078 13.859 50.3097L18.4003 50.2907L50.3208 50.158L68.7258 18.585C69.3363 18.9368 69.8555 19.4466 70.2197 20.0776Z" fill="#1F5B9D"/>
<path d="M70.2197 20.0776L86.732 48.6777C87.316 49.6893 87.3159 50.9364 86.7307 51.9486L69.0429 82.5859L50.3207 50.158L68.7257 18.585C69.3362 18.9368 69.8554 19.4466 70.2197 20.0776Z" fill="#164E8C"/>
</g>
<defs>
<linearGradient id="paint0_linear" x1="32.043" y1="18.5001" x2="32.519" y2="95.2857" gradientUnits="userSpaceOnUse">
<stop stop-color="#1961A9"/>
<stop offset="1" stop-color="#6EADED"/>
</linearGradient>
<clipPath id="clip0">
<rect width="74" height="74" fill="white" transform="translate(0 37) rotate(-30)"/>
</clipPath>
</defs>
</svg>
