<svg width="160" height="85" viewBox="0 0 160 85" fill="none" xmlns="http://www.w3.org/2000/svg">
<path d="M138.929 52.472C146.355 53.0751 153.553 55.3257 160 59.06C146.894 81.761 118.774 90.39 95.425 79.647C113.47 77.757 129.043 67.706 138.418 53.274L138.758 52.744L138.929 52.472ZM128.77 52.681C120.732 62.823 108.868 69.795 95.357 71.414C96.3973 70.0944 97.5048 68.829 98.675 67.623C99.0638 67.2452 99.4462 66.8608 99.822 66.47C107.595 58.941 117.507 54.236 127.949 52.787L128.77 52.681ZM32.385 52.352C42.6 53.839 52.29 58.444 59.942 65.764C60.465 66.3069 60.9985 66.8396 61.542 67.362C62.4112 68.271 63.2448 69.2134 64.041 70.187C51.646 68.411 40.708 62.118 32.949 53.03L32.529 52.532L32.385 52.352ZM52.152 31.231C62.293 39.269 69.264 51.132 70.883 64.642C69.5661 63.6035 68.3031 62.4984 67.099 61.331C66.716 60.938 66.329 60.551 65.935 60.172C58.408 52.4 53.705 42.489 52.256 32.049L52.166 31.367L52.152 31.231ZM107.648 32.914C106.161 43.128 101.557 52.818 94.239 60.469C93.6982 60.9898 93.1678 61.5212 92.648 62.063C91.7358 62.935 90.7904 63.7716 89.814 64.571C91.59 52.176 97.883 41.238 106.971 33.479L107.469 33.059L107.648 32.914ZM80.086 24.864C84.854 36.783 85.041 50.417 79.867 62.856C74.982 50.72 75.161 37.492 79.687 25.852L79.934 25.23L80.086 24.864ZM139.634 21.443C139.634 29.601 137.693 37.305 134.247 44.117C126.429 44.2046 118.708 45.8507 111.534 48.959C114.517 42.0609 116.152 34.6551 116.348 27.142C123.535 23.3865 131.525 21.4309 139.634 21.443ZM20.912 20.366C29.069 20.366 36.773 22.306 43.586 25.753C43.6736 33.571 45.3197 41.2929 48.428 48.467C41.5304 45.4833 34.1247 43.8498 26.612 43.655C22.8559 36.4674 20.9 28.4758 20.912 20.366ZM101.423 0.530998C105.306 7.23508 107.583 14.748 108.075 22.48C101.621 26.6218 96.0394 31.9862 91.645 38.271C90.9242 30.4306 88.6356 22.8149 84.915 15.876C89.1811 9.5739 94.8266 4.3262 101.423 0.530998ZM58.53 0C65.527 4.04 71.187 9.505 75.351 15.818C71.789 22.284 69.4771 29.3631 68.536 36.685C64.0759 30.4481 58.4382 25.1445 51.941 21.073C52.544 13.6463 54.7949 6.44738 58.53 0Z" fill="#BABAF7"/>
<path d="M21.949 51.927L21.064 51.989C13.6405 52.5931 6.44482 54.8437 0 58.577C13.316 81.642 42.13 90.18 65.694 78.632C47.318 76.903 31.413 66.679 21.949 51.927Z" fill="#FF85B1"/>
<path opacity="0.1" d="M99.822 66.47C99.4462 66.8608 99.0638 67.2452 98.675 67.623C97.5048 68.8291 96.3974 70.0944 95.357 71.414C108.868 69.795 120.732 62.823 128.77 52.681L127.949 52.787C117.507 54.236 107.595 58.941 99.822 66.47Z" fill="#FF85B1" fill-opacity="0.1"/>
<path opacity="0.9" d="M32.949 53.0301C40.708 62.1181 51.646 68.411 64.041 70.187C63.2449 69.2134 62.4112 68.2711 61.542 67.3621C60.9985 66.8397 60.4651 66.3069 59.942 65.7641C52.29 58.4441 42.6 53.8391 32.385 52.3521L32.529 52.5321L32.949 53.0301Z" fill="#FF85B1" fill-opacity="0.9"/>
<path opacity="0.7" d="M52.152 31.231L52.166 31.367L52.256 32.049C53.705 42.489 58.408 52.4 65.935 60.172C66.329 60.551 66.716 60.938 67.099 61.331C68.3031 62.4983 69.5661 63.6034 70.883 64.642C69.264 51.132 62.293 39.269 52.152 31.231Z" fill="#FF85B1" fill-opacity="0.7"/>
<path opacity="0.3" d="M107.469 33.0591L106.971 33.4791C97.883 41.2381 91.59 52.1761 89.814 64.5711C90.7904 63.7716 91.7358 62.935 92.648 62.0631C93.1678 61.5213 93.6982 60.9899 94.239 60.4691C101.557 52.8181 106.161 43.1281 107.648 32.9141L107.469 33.0591Z" fill="#FF85B1" fill-opacity="0.3"/>
<path opacity="0.5" d="M79.934 25.23L79.687 25.852C75.161 37.492 74.982 50.72 79.867 62.856C85.041 50.417 84.854 36.783 80.086 24.864L79.934 25.23Z" fill="#FF85B1" fill-opacity="0.5"/>
<path opacity="0.2" d="M116.348 27.142C116.152 34.6551 114.517 42.0609 111.534 48.959C118.708 45.8508 126.429 44.2047 134.247 44.117C137.693 37.305 139.634 29.601 139.634 21.443C131.525 21.4309 123.535 23.3866 116.348 27.142Z" fill="#FF85B1" fill-opacity="0.2"/>
<path opacity="0.8" d="M48.428 48.467C45.3197 41.2929 43.6736 33.5709 43.586 25.753C36.773 22.306 29.069 20.366 20.912 20.366C20.9 28.4758 22.8559 36.4674 26.612 43.655C34.1247 43.8498 41.5304 45.4833 48.428 48.467Z" fill="#FF85B1" fill-opacity="0.8"/>
<path opacity="0.4" d="M108.075 22.48C107.583 14.748 105.306 7.23509 101.423 0.531006C94.8265 4.32621 89.1811 9.57391 84.915 15.876C88.6356 22.8149 90.9242 30.4306 91.645 38.271C96.0394 31.9862 101.621 26.6218 108.075 22.48Z" fill="#FF85B1" fill-opacity="0.4"/>
<path opacity="0.6" d="M58.53 0C54.7949 6.44738 52.544 13.6463 51.941 21.073C58.4382 25.1445 64.0759 30.4481 68.536 36.685C69.4771 29.3631 71.789 22.284 75.351 15.818C71.187 9.505 65.527 4.04 58.53 0Z" fill="#FF85B1" fill-opacity="0.6"/>
</svg>
